<svg width="26" height="26" viewBox="0 0 26 26" fill="none" xmlns="http://www.w3.org/2000/svg">
<g clip-path="url(#clip0)">
<path d="M13.2533 7.97241H0.558521C0.348185 7.97241 0.177662 8.14288 0.177662 8.35327V25.6186C0.177662 25.829 0.348185 25.9995 0.558521 25.9995H13.2533C13.4637 25.9995 13.6342 25.829 13.6342 25.6186V8.35327C13.6342 8.14294 13.4637 7.97241 13.2533 7.97241Z" fill="#AC92EC"/>
<path d="M7.03338 7.97241V6.57593C7.03338 5.24592 8.11547 4.16382 9.44549 4.16382C10.7755 4.16382 11.8576 5.24592 11.8576 6.57593V7.97241H12.6193V6.57593C12.6193 4.82585 11.1956 3.4021 9.44549 3.4021C7.69541 3.4021 6.27166 4.82585 6.27166 6.57593V7.97241H7.03338Z" fill="#CCD1D9"/>
<path d="M13.2533 7.97241H11.7298C11.9401 7.97241 12.1106 8.14288 12.1106 8.35327V25.6186C12.1106 25.829 11.9401 25.9995 11.7298 25.9995H13.2533C13.4637 25.9995 13.6342 25.829 13.6342 25.6186V8.35327C13.6342 8.14294 13.4637 7.97241 13.2533 7.97241Z" fill="#967ADC"/>
<path d="M15.7929 7.97241H13.2533C13.4637 7.97241 13.6342 8.14288 13.6342 8.35327V25.6186C13.6342 25.829 13.4637 25.9995 13.2533 25.9995H15.7929C16.0032 25.9995 16.1737 25.829 16.1737 25.6186V8.35327C16.1737 8.14294 16.0032 7.97241 15.7929 7.97241Z" fill="#7E64CC"/>
<path d="M23.2832 11.9076C23.2832 11.6972 23.1128 11.5267 22.9024 11.5267H16.1737V25.6186C16.1737 25.829 16.0032 25.9995 15.7929 25.9995L22.9024 26C23.1128 26 23.2832 25.8295 23.2832 25.6191C23.2832 25.6156 23.2828 25.6121 23.2827 25.6085C23.2828 25.605 23.2832 25.6015 23.2832 25.5979V11.9076Z" fill="#48CFAD"/>
<path d="M25.8223 11.9076C25.8223 11.6972 25.6518 11.5267 25.4414 11.5267H22.9024C23.1128 11.5267 23.2832 11.6972 23.2832 11.9076V25.5979C23.2832 25.6015 23.2828 25.605 23.2827 25.6085C23.2828 25.6121 23.2832 25.6156 23.2832 25.6191C23.2832 25.8283 23.1146 25.9979 22.9059 25.9999L25.4414 26C25.6518 26 25.8223 25.8295 25.8223 25.6191C25.8223 25.6156 25.8218 25.6121 25.8217 25.6085C25.8218 25.605 25.8223 25.6015 25.8223 25.5979V11.9076Z" fill="#2DAA86"/>
<path d="M23.2832 11.9076C23.2832 11.6972 23.1128 11.5267 22.9024 11.5267H21.3788C21.5891 11.5267 21.7596 11.6972 21.7596 11.9076V25.5979C21.7596 25.6015 21.7592 25.605 21.7591 25.6085C21.7592 25.6121 21.7596 25.6156 21.7596 25.6191C21.7596 25.8288 21.5903 25.9988 21.3809 25.9999L22.9024 26C23.1128 26 23.2832 25.8295 23.2832 25.6191C23.2832 25.6156 23.2828 25.6121 23.2827 25.6085C23.2828 25.605 23.2832 25.6015 23.2832 25.5979V11.9076Z" fill="#37BC9B"/>
<path d="M6.91488 3.4021C5.1648 3.4021 3.74105 4.82585 3.74105 6.57593V11.4C3.74105 11.6104 3.91152 11.7809 4.12191 11.7809C4.33229 11.7809 4.50277 11.6104 4.50277 11.4V6.57593C4.50277 5.24592 5.58486 4.16382 6.91488 4.16382C8.24489 4.16382 9.32699 5.24592 9.32699 6.57593V11.4C9.32699 11.6104 9.49746 11.7809 9.70785 11.7809C9.91823 11.7809 10.0887 11.6104 10.0887 11.4V6.57593C10.0887 4.82585 8.66495 3.4021 6.91488 3.4021Z" fill="#E6E9ED"/>
<path d="M18.3322 13.0502C18.1218 13.0502 17.9514 13.2206 17.9514 13.431C17.9514 14.4912 17.1828 15.3746 16.1738 15.5551V16.3254C17.6045 16.1382 18.7131 14.9121 18.7131 13.431C18.7131 13.2207 18.5426 13.0502 18.3322 13.0502Z" fill="#E6E9ED"/>
</g>
<defs>
<clipPath id="clip0">
<rect width="26" height="26" fill="white"/>
</clipPath>
</defs>
</svg>
