<svg width="62" height="62" viewBox="0 0 62 62" fill="none" xmlns="http://www.w3.org/2000/svg">
<circle cx="31" cy="31" r="31" fill="#6FBFF6" fill-opacity="0.3"/>
<path d="M30.9374 11C41.9482 11 50.8747 19.9266 50.8747 30.9374C50.8747 41.9465 41.9482 50.8747 30.9374 50.8747C19.9266 50.8747 11 41.9463 11 30.9374C10.9998 19.9263 19.9263 11 30.9374 11Z" fill="#26A6D1"/>
<path d="M30.9374 20.0625C36.9423 20.0625 41.8124 24.9309 41.8124 30.9374C41.8124 36.944 36.9421 41.8124 30.9374 41.8124C24.9328 41.8124 20.0625 36.944 20.0625 30.9374C20.0625 24.9309 24.9326 20.0625 30.9374 20.0625Z" fill="#484848"/>
<path fill-rule="evenodd" clip-rule="evenodd" d="M43.625 24.5938C43.625 22.0906 41.5967 20.0625 39.0938 20.0625C36.708 20.0625 34.7539 21.905 34.5762 24.2451C34.5674 24.3601 34.5625 24.4763 34.5625 24.5938C34.5625 27.0967 36.5908 29.125 39.0938 29.125C41.5967 29.125 43.625 27.0967 43.625 24.5938Z" fill="white"/>
</svg>
