<svg width="39" height="39" viewBox="0 0 39 39" fill="none" xmlns="http://www.w3.org/2000/svg">
<rect width="39" height="39" fill="black" fill-opacity="0"/>
<circle cx="19.5" cy="19.5" r="19.5" fill="#A7DAFD"/>
<mask id="mask0" mask-type="alpha" maskUnits="userSpaceOnUse" x="0" y="0" width="39" height="39">
<circle cx="19.5" cy="19.5" r="19.5" fill="#3B75FF"/>
</mask>
<g mask="url(#mask0)">
<path d="M12.8373 23.8151C8.45353 24.4327 5.78586 28.1471 5 29.9271C5 30.5704 5 30.3774 5.25487 31.1495C6.59296 32.9509 10.6072 38.8698 19.8464 38.9985C27.2377 39.1015 32.1865 33.8087 33.7369 31.1495C33.8431 30.9779 34.0428 30.4418 33.9918 29.6697C32.0803 25.8095 28.3846 24.3941 26.7917 24.0081C25.1987 23.6221 24.8164 24.1368 24.4978 24.3941C24.1792 24.6515 22.2677 25.7452 19.8464 25.8095C17.4251 25.8739 15.3224 24.8445 14.6852 24.3941C14.048 23.9438 13.5382 23.6864 12.8373 23.8151Z" fill="#24A1F6"/>
<path fill-rule="evenodd" clip-rule="evenodd" d="M14.1082 25.2108C13.5231 24.7972 13.3042 24.7462 13.0181 24.7987L12.9976 24.8024L12.977 24.8053C11.0391 25.0784 9.45773 26.0384 8.25275 27.1655C7.13399 28.212 6.37835 29.3676 6.00129 30.145C6.00216 30.2138 6.00331 30.2431 6.00384 30.2537C6.00509 30.258 6.00756 30.2661 6.01201 30.2796C6.02023 30.3045 6.03136 30.3362 6.04964 30.3874C6.05238 30.3951 6.05522 30.4031 6.05816 30.4113C6.08296 30.4808 6.1145 30.5692 6.15294 30.6818C6.1719 30.7076 6.19131 30.734 6.21115 30.7609C7.65789 32.7268 11.4514 37.8815 19.8605 37.9986C26.7571 38.0947 31.4251 33.1296 32.8732 30.6458L32.8799 30.6344L32.8821 30.6309C32.8814 30.6319 32.8811 30.6324 32.881 30.6323C32.8801 30.6319 32.9148 30.5621 32.948 30.4148C32.9762 30.2896 32.9994 30.1246 33.0002 29.9256C31.2514 26.5872 27.9904 25.3275 26.5563 24.98C25.8683 24.8133 25.5805 24.8758 25.486 24.9076C25.4091 24.9335 25.3933 24.9471 25.3092 25.0193C25.2688 25.0541 25.2127 25.1023 25.1264 25.1721L24.5008 24.3977L25.1264 25.1721C24.8551 25.3912 24.1917 25.7742 23.3179 26.1083C22.42 26.4516 21.2235 26.7733 19.8731 26.8092C17.1955 26.8803 14.8852 25.76 14.1082 25.2108ZM12.6788 22.8276C13.7832 22.6328 14.5778 23.0936 15.2625 23.5775C15.7599 23.929 17.655 24.8674 19.82 24.8099C20.8909 24.7814 21.8608 24.5242 22.6037 24.2402C22.9735 24.0988 23.2801 23.9534 23.5065 23.8326C23.6197 23.7722 23.71 23.7194 23.7761 23.6781C23.834 23.6419 23.8625 23.6213 23.8688 23.6167C23.8703 23.6156 23.8706 23.6155 23.8696 23.6162C23.8755 23.6115 23.8855 23.6025 23.8992 23.59C24.0079 23.4918 24.3553 23.178 24.848 23.0121C25.4226 22.8187 26.1224 22.817 27.0274 23.0363C28.7526 23.4543 32.788 24.9849 34.8881 29.226L34.9767 29.4048L34.9898 29.6039C35.0516 30.5398 34.8249 31.2828 34.596 31.6618C32.9376 34.4993 27.7106 40.1082 19.8326 39.9984C10.4269 39.8674 6.11839 34.0102 4.60828 31.9572C4.55251 31.8814 4.50055 31.8107 4.45229 31.7458L4.35606 31.6162L4.30547 31.463C4.25049 31.2964 4.20869 31.1793 4.17423 31.0827C4.17137 31.0747 4.16856 31.0668 4.16579 31.0591L4.16246 31.0497C4.13078 30.9609 4.09046 30.8479 4.06136 30.7304C3.99908 30.4788 3.99957 30.2429 4.00009 29.9953C4.00014 29.9727 4.00019 29.9499 4.00019 29.9271V29.7162L4.08538 29.5232C4.53119 28.5134 5.47215 27.0279 6.88651 25.7049C8.30406 24.3789 10.2419 23.1758 12.6788 22.8276Z" fill="#24A1F6"/>
<circle cx="19.5" cy="13.5" r="7.5" fill="#24A1F6"/>
</g>
</svg>
