<svg width="39" height="39" viewBox="0 0 39 39" fill="none" xmlns="http://www.w3.org/2000/svg">
<rect width="39" height="39" fill="black" fill-opacity="0"/>
<rect width="39" height="39" fill="black" fill-opacity="0"/>
<circle cx="19.5" cy="19.5" r="19.5" fill="white"/>
<mask id="mask0" mask-type="alpha" maskUnits="userSpaceOnUse" x="0" y="0" width="39" height="39">
<circle cx="19.5" cy="19.5" r="19.5" fill="white"/>
</mask>
<g mask="url(#mask0)">
<path d="M35.4085 32.5438V33.3436C35.4085 34.5482 34.4927 35.5387 33.3209 35.6518L16.5752 19.3211L19.1533 16.7003L25.1037 22.5899L25.4323 22.9154L35.4085 32.5438Z" fill="white"/>
<path d="M32.6904 3.28929L19.1541 16.7003L16.5759 19.3211L3.88098 31.9317H3.70298C2.4264 31.9317 1.39062 30.8927 1.39062 29.6122L30.5449 0.619995C30.8469 1.13868 32.924 0.613506 33.3461 1.03361L34.1217 2.03376C34.5002 2.43861 32.3651 2.85951 32.6904 3.28929Z" fill="white"/>
<path d="M4.01781 11.5118C5.21383 9.4484 7.44243 8.06042 9.99396 8.06042C13.8092 8.06042 16.902 11.1627 16.902 14.9897C16.902 15.9495 16.7071 16.8632 16.3559 17.6945C16.0039 18.5259 15.4949 19.274 14.8667 19.9009C14.3432 20.4591 13.8737 21.0489 13.4516 21.6516C10.6866 25.603 9.99396 30.1143 9.99396 30.1143C9.99396 30.1143 9.24173 25.216 6.17549 21.1563C5.85013 20.7266 5.49896 20.3056 5.12043 19.9009H5.12122C4.69917 19.4808 4.33194 19.0057 4.0299 18.487C3.42985 17.4602 3.08594 16.2653 3.08594 14.9897C3.08594 13.7221 3.42503 12.5337 4.01781 11.5118Z" fill="white"/>
<path d="M9.99319 11.3016C12.0235 11.3016 13.669 12.9532 13.669 14.9897C13.669 17.0263 12.0235 18.6769 9.99319 18.6769C7.9629 18.6769 6.31641 17.0263 6.31641 14.9897C6.31641 12.9532 7.96295 11.3016 9.99319 11.3016Z" fill="white"/>
</g>
<g opacity="0.5">
<rect width="39" height="39" fill="black" fill-opacity="0"/>
<circle cx="19.5" cy="19.5" r="19.5" fill="#28B446"/>
<mask id="mask1" mask-type="alpha" maskUnits="userSpaceOnUse" x="0" y="0" width="39" height="39">
<circle cx="19.5" cy="19.5" r="19.5" fill="#28B446"/>
</mask>
<g mask="url(#mask1)">
<path d="M35.4085 32.5438V33.3436C35.4085 34.5482 34.4927 35.5387 33.3209 35.6518L16.5752 19.3211L19.1533 16.7003L25.1037 22.5899L25.4323 22.9154L35.4085 32.5438Z" fill="#FFCF0F"/>
<path d="M32.6904 3.28929L19.1541 16.7003L16.5759 19.3211L3.88098 31.9317H3.70298C2.4264 31.9317 1.39062 30.8927 1.39062 29.6122L30.5449 0.619995C30.8469 1.13868 32.924 0.613506 33.3461 1.03361L34.1217 2.03376C34.5002 2.43861 32.3651 2.85951 32.6904 3.28929Z" fill="#FFCF0F"/>
<path d="M4.01781 11.5118C5.21383 9.4484 7.44243 8.06042 9.99396 8.06042C13.8092 8.06042 16.902 11.1627 16.902 14.9897C16.902 15.9495 16.7071 16.8632 16.3559 17.6945C16.0039 18.5259 15.4949 19.274 14.8667 19.9009C14.3432 20.4591 13.8737 21.0489 13.4516 21.6516C10.6866 25.603 9.99396 30.1143 9.99396 30.1143C9.99396 30.1143 9.24173 25.216 6.17549 21.1563C5.85013 20.7266 5.49896 20.3056 5.12043 19.9009H5.12122C4.69917 19.4808 4.33194 19.0057 4.0299 18.487C3.42985 17.4602 3.08594 16.2653 3.08594 14.9897C3.08594 13.7221 3.42503 12.5337 4.01781 11.5118Z" fill="#F14336"/>
<path d="M9.99319 11.3016C12.0235 11.3016 13.669 12.9532 13.669 14.9897C13.669 17.0263 12.0235 18.6769 9.99319 18.6769C7.9629 18.6769 6.31641 17.0263 6.31641 14.9897C6.31641 12.9532 7.96295 11.3016 9.99319 11.3016Z" fill="#7E2D25"/>
</g>
</g>
</svg>
