<svg width="135" height="20" viewBox="0 0 135 20" fill="none" xmlns="http://www.w3.org/2000/svg">
<rect width="134.999" height="19.9998" fill="black" fill-opacity="0"/>
<rect width="134.999" height="19.9998" fill="black" fill-opacity="0"/>
<path d="M31.586 13.704C31.586 12.046 31.586 10.388 31.586 8.72993C31.586 6.41598 31.586 4.12025 31.586 1.8063C31.586 1.40546 31.586 1.00462 31.514 0.621993C31.442 0.257592 31.622 0.166491 31.8919 0.0753907C32.2878 -0.0521499 32.7018 0.0207304 33.0977 0.0207304C33.6376 0.0207304 34.1595 -0.0521499 34.6994 0.0753907C34.9694 0.130051 35.0594 0.257592 35.0594 0.530893C35.0594 2.66264 35.0594 4.81261 35.0594 6.94436C35.0594 7.05368 35.0594 7.163 35.0594 7.2541C35.0774 7.38165 35.0954 7.50919 35.2214 7.54563C35.3653 7.60029 35.3833 7.43631 35.4553 7.36343C36.5351 6.12446 37.9029 5.46854 39.5406 5.39566C40.2785 5.35922 41.0164 5.35922 41.7362 5.55964C42.6901 5.7965 43.5179 6.28844 44.1478 7.09012C44.9217 8.07401 45.2277 9.20365 45.2457 10.4062C45.2636 13.2667 45.2457 16.1091 45.2457 18.9696C45.2457 19.5527 45.1737 19.6073 44.6158 19.6073C43.9139 19.6073 43.23 19.6073 42.5281 19.6073C41.9342 19.6073 41.9162 19.6073 41.9162 18.9878C41.9162 16.601 41.9342 14.2142 41.8982 11.8091C41.8622 9.71382 40.2965 8.32909 38.2088 8.63883C37.057 8.80281 36.2112 9.38585 35.6353 10.3333C35.2573 10.9528 35.0594 11.6451 35.0594 12.4104C35.0774 14.5968 35.0594 16.765 35.0594 18.9514C35.0594 19.5344 34.9154 19.6802 34.3395 19.6802C33.6376 19.6802 32.9537 19.6802 32.2519 19.6802C31.7119 19.6802 31.604 19.5709 31.604 19.0243C31.586 17.2569 31.586 15.4896 31.586 13.704Z" fill="#3F76F0"/>
<path d="M7.48822 19.5703C5.76052 19.5703 4.03281 19.5703 2.28711 19.5703C1.80119 19.5703 1.33327 19.625 0.84735 19.5703C0.541402 19.5339 0.397427 19.4246 0.397427 19.0966C0.397427 18.4771 0.397427 17.8394 0.397427 17.2199C0.397427 16.7827 0.793359 16.564 1.02732 16.2907C2.08914 15.1064 3.20495 13.9585 4.28477 12.7925C5.2566 11.7357 6.26443 10.6971 7.18228 9.60394C7.79417 8.87514 8.38807 8.10989 8.78401 7.21711C9.16194 6.37899 9.10795 4.393 8.38807 3.71885C7.66819 3.02649 6.82234 2.91717 5.94049 3.09937C4.6627 3.35445 3.90683 4.3019 3.81685 5.63196C3.78085 6.14213 3.63688 6.30611 3.09697 6.30611C2.21512 6.30611 1.33327 6.30611 0.469414 6.30611C0.127472 6.30611 -0.0165033 6.17857 0.00149363 5.83238C0.0734814 4.73918 0.451417 3.73707 1.04532 2.77141C1.65721 1.78752 2.55706 1.14982 3.5289 0.657879C4.28477 0.275257 5.13062 0.0930562 5.99448 0.0566161C6.89433 0.0201759 7.81217 0.0201759 8.69402 0.220597C10.0438 0.548558 11.2496 1.18626 12.0235 2.44345C12.7973 3.68241 12.8873 5.01248 12.7073 6.41543C12.5094 8.01879 11.6275 9.27598 10.6737 10.4967C9.55787 11.9179 8.26209 13.1933 7.0563 14.5051C6.58838 15.0153 6.08446 15.5072 5.61654 16.0174C5.40058 16.2361 5.43657 16.4 5.70653 16.5094C5.83251 16.564 5.99448 16.6005 6.12046 16.5822C7.74018 16.5094 9.35991 16.5458 10.9796 16.5276C11.5915 16.5276 12.2034 16.5094 12.8153 16.5276C13.3552 16.5458 13.4272 16.6187 13.4452 17.1653C13.4632 17.7665 13.4092 18.3496 13.4812 18.9508C13.5352 19.3881 13.3732 19.5339 12.9413 19.5339C11.1236 19.5703 9.30592 19.5703 7.48822 19.5703Z" fill="#3F76F0"/>
<path d="M107.155 12.7566C107.263 13.6312 106.975 14.6697 106.633 15.7083C106.453 16.2731 106.075 16.7468 105.715 17.2205C105.248 17.8218 104.69 18.3684 104.042 18.751C103.448 19.1154 102.836 19.4616 102.134 19.5891C101.342 19.7167 100.586 20.0629 99.7405 19.99C99.2545 19.9353 98.7506 19.9535 98.2827 19.7713C97.9947 19.662 97.6528 19.6985 97.3649 19.6256C96.339 19.3705 95.4392 18.8968 94.6113 18.2226C93.8734 17.6031 93.2975 16.8561 92.8836 15.9998C92.5237 15.2892 92.3437 14.5057 92.2177 13.704C92.0738 12.6473 92.1817 11.6087 92.3437 10.6066C92.4697 9.93249 92.7576 9.25835 93.1176 8.65708C93.6935 7.69142 94.4673 6.90796 95.4212 6.36135C96.1951 5.90585 97.0049 5.50501 97.9408 5.46857C98.2827 5.45035 98.6246 5.34103 98.9846 5.30459C99.4165 5.24993 99.8304 5.24993 100.262 5.32281C100.766 5.39569 101.288 5.37747 101.774 5.50501C102.404 5.66899 103.016 5.90585 103.61 6.21559C104.312 6.57999 104.906 7.05372 105.409 7.63676C106.003 8.32912 106.471 9.07615 106.759 9.98715C107.065 10.8071 107.137 11.6634 107.155 12.7566ZM99.7405 16.8379C100.046 16.8197 100.388 16.8561 100.676 16.765C102.116 16.346 103.088 15.3985 103.448 13.9227C103.718 12.8113 103.682 11.6816 103.196 10.5884C102.62 9.27657 101.594 8.60242 100.262 8.36556C99.1465 8.16514 98.1027 8.45666 97.2209 9.16725C96.447 9.78673 95.9791 10.6249 95.8531 11.627C95.7811 12.1918 95.7631 12.7748 95.8171 13.3579C95.8891 14.2689 96.285 15.0341 96.8609 15.69C97.6168 16.5646 98.6246 16.8926 99.7405 16.8379Z" fill="#59C281"/>
<path d="M108.992 10.6429C108.992 8.87557 108.992 7.50906 108.992 6.12433C108.992 5.66883 109.208 5.45019 109.658 5.45019C110.431 5.45019 111.205 5.45019 111.979 5.45019C112.447 5.45019 112.591 5.61417 112.591 6.06967C112.591 8.42006 112.573 10.7705 112.591 13.1208C112.591 13.959 112.753 14.7789 113.221 15.4895C113.311 15.617 113.437 15.6899 113.545 15.7628C114.517 16.528 115.597 16.6373 116.748 16.2183C117.792 15.8539 118.35 15.034 118.782 14.0865C118.962 13.6857 118.98 13.2119 118.98 12.7564C118.98 10.5336 118.98 8.29252 118.98 6.06967C118.98 5.61417 119.088 5.46841 119.538 5.45019C120.384 5.43197 121.248 5.43197 122.094 5.45019C122.453 5.45019 122.615 5.68705 122.561 6.03323C122.507 6.30653 122.579 6.57983 122.579 6.85313C122.579 10.8798 122.579 14.9064 122.579 18.9148C122.579 19.1699 122.579 19.425 122.363 19.6072C122.291 19.6619 122.237 19.7347 122.129 19.7347C121.284 19.7165 120.456 19.6436 119.61 19.7347C119.232 19.7712 118.998 19.4979 118.98 19.097C118.962 18.7326 119.016 18.3864 118.908 18.022C118.89 17.9309 118.872 17.8216 118.782 17.7852C118.656 17.7487 118.638 17.8763 118.584 17.9309C118.17 18.514 117.576 18.8784 116.982 19.2246C116.208 19.6619 115.327 19.7712 114.499 19.8623C113.581 19.9534 112.681 19.7165 111.817 19.3339C111.223 19.0788 110.719 18.7326 110.306 18.2407C109.748 17.5848 109.424 16.8195 109.226 15.9814C108.776 14.1047 109.1 12.1734 108.992 10.6429Z" fill="#59C281"/>
<path d="M56.5295 13.7405C55.1077 13.7405 53.668 13.7405 52.2462 13.7405C52.0843 13.7405 51.9223 13.7405 51.7783 13.7587C51.4724 13.7951 51.3824 13.9045 51.4544 14.2871C51.7423 16.1273 54.3339 17.3298 55.7736 17.0019C56.0436 16.9472 56.3315 16.9837 56.5835 16.929C57.1774 16.8197 57.6993 16.5281 58.2032 16.2002C58.4552 16.0544 58.7251 15.9633 58.9411 15.7265C59.0851 15.5807 59.373 15.7265 59.535 15.8904C59.9129 16.2548 60.2729 16.6192 60.6148 16.9837C60.8488 17.2387 60.8308 17.4392 60.5428 17.7125C59.607 18.6417 58.4912 19.2247 57.2674 19.498C56.0436 19.7713 54.7838 19.8806 53.506 19.6256C51.9223 19.3158 50.5905 18.6235 49.5287 17.4209C48.7908 16.5828 48.3049 15.5989 48.0889 14.4693C47.981 13.9045 47.855 13.3579 47.837 12.793C47.819 11.5358 48.0349 10.3333 48.5748 9.20368C49.0608 8.20157 49.7447 7.34523 50.6805 6.6893C51.7963 5.90584 53.0381 5.52322 54.3879 5.46856C55.2877 5.43212 56.1876 5.4139 57.0694 5.63254C58.5272 5.97872 59.715 6.74396 60.5428 8.07403C61.5506 9.69562 61.7126 11.4994 61.6586 13.3396C61.6406 13.6858 61.3887 13.7223 61.1187 13.7223C59.8589 13.7223 58.5991 13.7223 57.3394 13.7223C57.0874 13.7405 56.8175 13.7405 56.5295 13.7405ZM54.9458 11.4265C55.9896 11.4265 57.0154 11.4265 58.0592 11.4265C58.3472 11.4265 58.5452 11.3172 58.5272 10.9892C58.4912 10.4244 58.2932 9.91426 57.9873 9.47698C57.4833 8.78461 56.7815 8.36555 55.9176 8.18335C54.9638 7.98293 54.0819 8.12869 53.2181 8.52953C52.1742 9.00325 51.7243 9.96892 51.4004 10.9892C51.3464 11.1714 51.4004 11.2625 51.5443 11.3354C51.6883 11.4083 51.8503 11.4083 52.0123 11.4083C52.9841 11.4265 53.9739 11.4265 54.9458 11.4265Z" fill="#3F76F0"/>
<path d="M15.3537 12.3372C15.3357 9.71351 16.6315 7.39956 18.9531 6.25169C21.4007 5.03094 25.288 4.86696 27.3937 6.90761C27.5916 7.10803 27.8436 7.27202 28.0595 7.47244C28.3295 7.7093 28.3475 8.09192 28.0955 8.347C27.6096 8.82072 27.1057 9.29444 26.6018 9.76817C26.3678 9.98681 26.1699 9.84105 25.9719 9.69529C25.666 9.45843 25.36 9.23978 25.0361 9.05758C23.7763 8.41988 22.2465 8.18302 20.9687 8.91182C19.8349 9.56775 18.9711 10.7703 18.8091 12.1003C18.3052 16.1088 23.3983 18.2041 26.0979 15.4528C26.3678 15.1795 26.6018 15.1978 26.8717 15.4346C27.3037 15.8355 27.7896 16.1816 28.2215 16.5825C28.4735 16.8011 28.5635 17.0015 28.2755 17.3477C26.4578 19.5159 23.2904 20.4451 20.5728 19.6799C17.2614 18.7507 15.3717 15.5075 15.3537 12.3372Z" fill="#3F76F0"/>
<path d="M70.5313 5.43192C71.935 5.35904 73.2668 5.61412 74.5086 6.30649C75.1205 6.65267 75.6604 7.07173 76.1463 7.58189C76.3263 7.76409 76.3623 8.0374 76.1283 8.29248C75.6604 8.80264 75.0845 9.20348 74.5986 9.71364C74.4366 9.89584 74.1666 9.87762 74.0047 9.69542C73.1768 8.80264 72.079 8.47468 70.9452 8.4018C69.8654 8.32892 68.8215 8.62044 68.0477 9.45856C67.4718 10.078 67.0938 10.8068 66.9679 11.6632C66.8599 12.392 66.8599 13.1208 67.0218 13.8314C67.3278 15.125 68.0477 16.0542 69.3255 16.5462C70.6032 17.0563 71.773 16.7648 72.9428 16.3458C73.4468 16.1636 73.8787 15.7627 74.2746 15.3983C74.4186 15.2708 74.5266 15.2343 74.6885 15.3436C75.2465 15.7081 75.6964 16.1818 76.2003 16.6191C76.4522 16.8559 76.4702 17.1292 76.2363 17.4207C75.1925 18.6415 73.8967 19.3703 72.3129 19.6254C71.7011 19.7165 71.0892 19.8805 70.4413 19.8622C69.0375 19.8076 67.6877 19.4978 66.4819 18.7508C65.4921 18.1313 64.7542 17.275 64.1963 16.2C63.5664 14.9792 63.3685 13.6674 63.4045 12.3373C63.4225 11.2077 63.6564 10.1327 64.1783 9.09416C64.7362 7.9463 65.5461 7.03529 66.5899 6.41581C67.6517 5.7781 68.8215 5.37726 70.0993 5.45014C70.2433 5.43192 70.3873 5.43192 70.5313 5.43192Z" fill="#3F76F0"/>
<path d="M127.257 12.0461C127.257 11.2262 127.239 10.2059 127.257 9.20375C127.257 8.82113 127.077 8.67536 126.735 8.67536C126.465 8.67536 126.177 8.67536 125.907 8.67536C125.493 8.67536 125.295 8.49316 125.277 8.09232C125.259 7.58216 125.259 7.05378 125.277 6.54362C125.295 6.16099 125.493 5.96057 125.907 5.94235C126.195 5.92413 126.483 5.92413 126.771 5.94235C127.095 5.94235 127.239 5.83303 127.239 5.46863C127.221 4.61229 127.239 3.73772 127.239 2.88138C127.239 2.22546 127.419 2.04325 128.049 2.04325C128.733 2.04325 129.416 2.02503 130.1 2.04325C130.676 2.04325 130.82 2.20723 130.838 2.77206C130.856 3.64662 130.838 4.52119 130.838 5.39575C130.838 5.85125 130.91 5.92413 131.36 5.92413C132.35 5.94235 133.322 5.92413 134.312 5.99701C134.654 6.01523 134.834 6.17921 134.834 6.50717C134.852 7.01734 134.852 7.54572 134.834 8.05588C134.816 8.51138 134.618 8.67536 134.15 8.69359C133.214 8.69359 132.26 8.71181 131.324 8.69359C130.982 8.69359 130.82 8.82113 130.82 9.18553C130.82 11.208 130.82 13.2304 130.838 15.2346C130.856 16.4189 131.792 17.0019 132.89 16.5464C133.232 16.4007 133.628 16.4007 133.988 16.2367C134.15 16.1638 134.24 16.3278 134.312 16.4553C134.636 17.093 134.78 17.8036 134.978 18.4778C135.086 18.8057 134.762 18.9879 134.528 19.0973C134.114 19.2977 133.7 19.5345 133.232 19.6256C132.602 19.7532 131.972 19.9718 131.306 19.9172C129.902 19.8078 128.661 19.3888 127.887 18.1134C127.581 17.6032 127.347 17.0384 127.311 16.4007C127.239 15.016 127.275 13.6312 127.257 12.0461Z" fill="#59C281"/>
<path d="M82.4462 8.96749C82.5182 9.07681 82.5542 9.22258 82.6442 9.29546C82.8062 9.44122 82.9322 9.53232 83.1661 9.31368C84.2819 8.25691 85.3618 7.12727 86.4236 6.01584C86.9635 5.45102 87.5394 5.17772 88.3312 5.21416C89.2671 5.26882 90.2209 5.23238 91.1568 5.23238C91.3547 5.23238 91.5707 5.23238 91.6427 5.46924C91.7147 5.68788 91.5707 5.81542 91.4267 5.96118C90.6169 6.83574 89.717 7.61921 88.9251 8.49377C88.3133 9.16792 87.6294 9.7874 86.9635 10.4251C86.4056 10.9717 85.8657 11.5365 85.3078 12.1013C85.1818 12.2289 85.0918 12.3564 85.0918 12.5386C84.7858 12.5386 84.5879 12.7208 84.3719 12.903C83.814 13.3403 83.3461 13.8687 82.7702 14.306C82.4642 14.5246 82.3023 14.4335 82.1043 14.2331C81.5104 13.6136 80.9345 12.9577 80.3046 12.3747C80.0347 12.1196 79.7827 11.7005 79.2968 11.8463C79.1528 11.5001 79.0808 11.1539 79.0808 10.7713C79.0628 10.0789 79.0988 9.36834 79.0268 8.67597C78.9728 8.09293 78.9908 7.49167 79.2428 6.94506C79.2968 6.81752 79.2788 6.63532 79.2968 6.47134C79.5487 6.67176 79.6927 6.98151 79.9987 7.14549C80.1966 7.25481 80.3586 7.41879 80.4846 7.60099C80.7365 7.94717 81.0245 8.27513 81.3484 8.51199C81.6544 8.80351 81.9243 9.27724 82.4462 8.96749Z" fill="#59C281"/>
<path d="M79.2778 11.8816C79.7817 11.7359 80.0156 12.1732 80.2856 12.41C80.9155 12.9931 81.4914 13.649 82.0853 14.2685C82.2832 14.4689 82.4452 14.5782 82.7512 14.3413C83.3271 13.9041 83.795 13.3757 84.3529 12.9384C84.5689 12.7744 84.7848 12.574 85.0728 12.574C85.2168 12.574 85.4867 12.9384 85.5767 13.0477C85.8466 13.321 86.1166 13.5943 86.3866 13.8494C86.9265 14.396 87.4664 14.9244 87.9883 15.471C89.1221 16.6189 90.2739 17.7667 91.4077 18.9146C91.4257 18.9328 91.4257 18.9328 91.4437 18.9328C91.5877 19.0968 91.8396 19.2608 91.7856 19.4794C91.7136 19.7345 91.4077 19.6981 91.1737 19.6981C90.1479 19.6981 89.1221 19.6798 88.1143 19.7163C87.6643 19.7345 87.3224 19.5705 87.0344 19.2608C86.3686 18.5866 85.7027 17.8943 85.0188 17.2201C84.6588 16.8557 84.2989 16.5095 83.939 16.1634C83.651 15.8718 83.2551 15.5985 83.0931 15.2341C83.0391 15.143 82.9491 15.0884 82.8232 15.1612C82.6432 15.2523 82.5532 15.3981 82.5712 15.5985C82.5712 16.4002 82.5712 17.2201 82.5712 18.0218C82.5712 18.4044 82.5712 18.787 82.5712 19.1697C82.5712 19.5341 82.3912 19.6981 82.0313 19.6981C81.2754 19.6981 80.5375 19.6798 79.7817 19.6981C79.4577 19.6981 79.3138 19.5705 79.2778 19.2425C79.1698 18.1676 79.2598 17.0379 79.2598 15.9629C79.2418 14.6146 79.3138 13.2299 79.2778 11.8816Z" fill="#3F76F0"/>
<path d="M82.4456 8.9665C81.9237 9.27624 81.6358 8.7843 81.3298 8.54744C81.0059 8.29236 80.7179 7.98262 80.466 7.63644C80.34 7.45423 80.178 7.29025 79.9801 7.18093C79.6921 7.01695 79.5301 6.70721 79.2782 6.50679C79.2602 5.10384 79.2602 3.7009 79.2422 2.29795C79.2422 1.71491 79.2422 1.13186 79.2422 0.548822C79.2422 0.29374 79.2962 0.18442 79.5841 0.12976C80.412 -0.016001 81.2578 0.0933195 82.0857 0.0750994C82.4097 0.0750994 82.4816 0.31196 82.4816 0.603482C82.4816 2.51659 82.4816 4.4297 82.4816 6.34281C82.4816 7.19915 82.5176 8.09194 82.4456 8.9665Z" fill="#3F76F0"/>
</svg>
