<svg width="16" height="16" viewBox="0 0 16 16" fill="none" xmlns="http://www.w3.org/2000/svg">
<path d="M8 0C3.58318 0 0 3.58318 0 8C0 12.4168 3.58318 16 8 16C12.4168 16 16 12.4168 16 8C16 3.58318 12.4168 0 8 0Z" fill="url(#paint0_linear)" fill-opacity="0.5"/>
<path d="M5.48279 0.282535L6.61067 2.43327C6.6891 2.58286 6.84075 2.68651 7.01618 2.71046L9.5383 3.05537C9.9801 3.11583 10.1564 3.62662 9.8368 3.91971L8.0118 5.59381C7.88497 5.71022 7.82698 5.87807 7.85702 6.04237L8.28777 8.4063C8.36328 8.82031 7.90145 9.13597 7.50637 8.94065L5.25063 7.82464C5.09376 7.7471 4.90624 7.7471 4.74937 7.82464L2.49363 8.94065C2.09855 9.13617 1.63672 8.82031 1.71223 8.4063L2.14298 6.04237C2.17302 5.87807 2.11503 5.71022 1.9882 5.59381L0.163203 3.91971C-0.156365 3.62643 0.019898 3.11564 0.461702 3.05537L2.98382 2.71046C3.15925 2.68651 3.3109 2.58286 3.38933 2.43327L4.51721 0.282535C4.71454 -0.0941782 5.28525 -0.0941782 5.48279 0.282535Z" transform="translate(3 3)" fill="white"/>
<defs>
<linearGradient id="paint0_linear" x2="1" gradientUnits="userSpaceOnUse" gradientTransform="translate(16) scale(16) rotate(90)">
<stop stop-color="#5C68CA"/>
<stop offset="1" stop-color="#4485E5"/>
</linearGradient>
</defs>
</svg>
