<svg width="16" height="15" viewBox="0 0 16 15" fill="none" xmlns="http://www.w3.org/2000/svg">
<path d="M3.67765 2.97822L2.70436 2.0811C2.81773 1.88023 2.88785 1.6528 2.88785 1.40743C2.88785 0.629842 2.24206 0 1.44444 0C0.646814 0 0 0.62951 0 1.40743C0 2.18536 0.646814 2.81553 1.44444 2.81553C1.72563 2.81553 1.98572 2.73385 2.20768 2.59839L3.1796 3.49451C3.32667 3.30493 3.49246 3.13128 3.67765 2.97822Z" transform="translate(2.30273 2.01123)" fill="white"/>
<path d="M0.623324 4.87704L1.91661 2.75444C2.04393 2.78996 2.17602 2.81553 2.31457 2.81553C3.11356 2.81553 3.75935 2.18536 3.75935 1.40743C3.75935 0.629842 3.11356 0 2.31457 0C1.51695 0 0.871497 0.62951 0.871497 1.40743C0.871497 1.79357 1.03116 2.14252 1.2892 2.39718L0 4.51381C0.221619 4.61176 0.430642 4.73394 0.623324 4.87704Z" transform="translate(9.47363)" fill="white"/>
<path d="M3.21807 0C2.59713 0 2.07117 0.384811 1.86725 0.921355L0.0704689 0.748373C0.0704689 0.761654 0.0725117 0.774271 0.0725117 0.787219C0.0725117 1.01565 0.0466387 1.23877 0 1.45425L1.7961 1.62723C1.9047 2.29924 2.49806 2.81453 3.21807 2.81453C4.01535 2.81453 4.66081 2.18502 4.66081 1.40743C4.66081 0.630174 4.01535 0 3.21807 0Z" transform="translate(11.3389 6.65381)" fill="white"/>
<path d="M1.48767 1.7119L1.08597 0C0.859242 0.0770286 0.623324 0.132145 0.377195 0.159703L0.779581 1.87193C0.318301 2.10733 0 2.57249 0 3.11568C0 3.89327 0.645452 4.52244 1.44444 4.52244C2.24172 4.52244 2.88717 3.89293 2.88717 3.11568C2.88819 2.35236 2.26453 1.73447 1.48767 1.7119Z" transform="translate(8.1123 10.4775)" fill="white"/>
<path d="M4.88753 0L2.65092 0.730775C2.39287 0.346296 1.94861 0.0913054 1.44308 0.0913054C0.645452 0.0913054 0 0.721147 0 1.49874C0 2.27732 0.645452 2.90717 1.44308 2.90717C2.24002 2.90717 2.88717 2.27732 2.88717 1.49874C2.88717 1.4662 2.88002 1.43632 2.8773 1.40444L5.12107 0.671676C5.01996 0.458851 4.93962 0.234738 4.88753 0Z" transform="translate(0 8.12109)" fill="white"/>
<path d="M2.47526 4.82823C3.8423 4.82823 4.95051 3.7474 4.95051 2.41412C4.95051 1.08084 3.8423 0 2.47526 0C1.10821 0 0 1.08084 0 2.41412C0 3.7474 1.10821 4.82823 2.47526 4.82823Z" transform="translate(5.63672 5.02734)" fill="white"/>
</svg>
