<svg width="8" height="7" viewBox="0 0 8 7" fill="none" xmlns="http://www.w3.org/2000/svg">
<path d="M3.9506 3.84605L7.11833 6.85584C7.31984 7.0474 7.64655 7.0474 7.84796 6.85584C8.04938 6.66446 8.04938 6.35404 7.84796 6.16267L5.045 3.49946L7.84787 0.836345C8.0493 0.64488 8.0493 0.334498 7.84787 0.143111C7.64645 -0.0483545 7.31976 -0.0483545 7.11825 0.143111L3.95052 3.15295C3.8498 3.24869 3.7995 3.37404 3.7995 3.49945C3.7995 3.62492 3.8499 3.75035 3.9506 3.84605Z" fill="white"/>
<path d="M0.149817 3.84654L3.31755 6.85633C3.51906 7.04789 3.84577 7.04789 4.04717 6.85633C4.2486 6.66494 4.2486 6.35453 4.04717 6.16316L1.24422 3.49995L4.04709 0.836834C4.24852 0.645368 4.24852 0.334987 4.04709 0.143599C3.84567 -0.0478663 3.51898 -0.0478662 3.31747 0.143599L0.149735 3.15344C0.0490228 3.24918 -0.00127638 3.37453 -0.00127636 3.49993C-0.00127634 3.6254 0.0491206 3.75084 0.149817 3.84654Z" fill="white"/>
</svg>
