<svg width="7" height="12" viewBox="0 0 7 12" fill="none" xmlns="http://www.w3.org/2000/svg">
<path d="M6.66342 0.118166C6.52861 -0.0393886 6.30425 -0.0393886 6.16472 0.118166C6.02992 0.270398 6.02992 0.523762 6.16472 0.675639L8.57598 2.06263L0.349119 2.10257C0.154605 2.10292 0 2.27751 0 2.49716C0 2.71682 0.154605 2.89708 0.349119 2.89708L8.57598 2.85714L6.16472 4.31868C6.02992 4.47624 6.02992 4.72996 6.16472 4.88183C6.30425 5.03939 6.52893 5.03939 6.66342 4.88183L9.89536 2.70033C10.0349 2.5481 10.0349 2.29473 9.89536 2.14286L6.66342 0.118166Z" transform="translate(6 1) rotate(90)" fill="#D8847D" stroke="#D8847D" stroke-width="0.25"/>
</svg>
