<svg width="8" height="7" viewBox="0 0 8 7" fill="none" xmlns="http://www.w3.org/2000/svg">
<path d="M4.04843 3.84654L0.880691 6.85633C0.679185 7.04789 0.352477 7.04789 0.151069 6.85633C-0.0503562 6.66494 -0.0503562 6.35453 0.151069 6.16316L2.95402 3.49995L0.15115 0.836834C-0.0502747 0.645368 -0.0502747 0.334987 0.15115 0.143599C0.352575 -0.0478663 0.679266 -0.0478663 0.880772 0.143599L4.04851 3.15344C4.14922 3.24918 4.19952 3.37453 4.19952 3.49993C4.19952 3.6254 4.14912 3.75084 4.04843 3.84654Z" transform="translate(8) scale(-1 1)" fill="#646464"/>
<path d="M4.04843 3.84654L0.880691 6.85633C0.679185 7.04789 0.352477 7.04789 0.151069 6.85633C-0.0503562 6.66494 -0.0503562 6.35453 0.151069 6.16316L2.95402 3.49995L0.15115 0.836834C-0.0502747 0.645368 -0.0502747 0.334987 0.15115 0.143599C0.352575 -0.0478663 0.679266 -0.0478663 0.880772 0.143599L4.04851 3.15344C4.14922 3.24918 4.19952 3.37453 4.19952 3.49993C4.19952 3.6254 4.14912 3.75084 4.04843 3.84654Z" transform="translate(4.19922) scale(-1 1)" fill="#646464"/>
</svg>
