<svg width="9" height="8" viewBox="0 0 9 8" fill="none" xmlns="http://www.w3.org/2000/svg">
<rect width="8.99967" height="8" fill="black" fill-opacity="0"/>
<rect width="4.72428" height="8" fill="black" fill-opacity="0" transform="translate(0 8) scale(1 -1)"/>
<path d="M4.55431 3.60396L0.99074 0.164193C0.764054 -0.054731 0.396522 -0.054731 0.169946 0.164193C-0.0566486 0.382922 -0.0566486 0.737679 0.169946 0.95639L3.32315 4.00006L0.170037 7.04362C-0.0565569 7.26244 -0.0565569 7.61716 0.170037 7.83589C0.396632 8.0547 0.764146 8.0547 0.990832 7.83589L4.5544 4.39607C4.6677 4.28665 4.72428 4.1434 4.72428 4.00008C4.72428 3.85668 4.66759 3.71332 4.55431 3.60396Z" fill="#3B75FF"/>
<rect width="4.72428" height="8" fill="black" fill-opacity="0" transform="translate(4.27539 8) scale(1 -1)"/>
<path d="M8.8297 3.60396L5.26613 0.164193C5.03944 -0.054731 4.67191 -0.054731 4.44534 0.164193C4.21874 0.382922 4.21874 0.737679 4.44534 0.95639L7.59854 4.00006L4.44543 7.04362C4.21883 7.26244 4.21883 7.61716 4.44543 7.83589C4.67202 8.0547 5.03954 8.0547 5.26622 7.83589L8.82979 4.39607C8.94309 4.28665 8.99967 4.1434 8.99967 4.00008C8.99967 3.85668 8.94298 3.71332 8.8297 3.60396Z" fill="#3B75FF"/>
</svg>
