<svg width="6" height="12" viewBox="0 0 6 12" fill="none" xmlns="http://www.w3.org/2000/svg">
<path d="M9.78576 1.27281H2.57139V0.181802C2.57139 0.132565 2.55016 0.0899554 2.50778 0.0539732C2.46535 0.017971 2.41511 0 2.35711 0C2.29455 0 2.24326 0.0170357 2.20308 0.0511074L0.0602317 1.86927C0.0201476 1.90346 0 1.94692 0 2.00006C0 2.04924 0.0200538 2.09097 0.0602317 2.12494L2.19642 3.94326C2.25001 3.98111 2.30358 4 2.35718 4C2.41518 4 2.46542 3.98203 2.50783 3.94613C2.55021 3.91004 2.57144 3.86753 2.57144 3.81822V2.72729H9.78576C9.84389 2.72729 9.89396 2.7094 9.93651 2.67335C9.97889 2.63731 10 2.59476 10 2.54545V1.45451C10 1.40526 9.97882 1.36271 9.93651 1.32675C9.89396 1.29078 9.84386 1.27281 9.78576 1.27281Z" transform="translate(0.986328 1.00537) scale(1 -1) rotate(-89.8471)" fill="white"/>
</svg>
