<svg width="24" height="21" viewBox="0 0 24 21" fill="none" xmlns="http://www.w3.org/2000/svg">
<path d="M8.41889 13.4913C8.36254 13.4423 8.28711 13.417 8.21081 13.417C8.17271 13.417 8.13543 13.4228 8.09892 13.4358C7.98949 13.4762 7.91816 13.5683 7.91816 13.6713V15.2422C5.03481 15.0081 2.61246 13.397 1.56294 11.157C1.51812 11.0612 1.40869 11 1.29177 11C1.27521 11 1.2587 11.0015 1.24203 11.0036C1.10615 11.026 1.00661 11.126 1.00246 11.2456C1.00087 11.3054 1 11.3659 1 11.4264C1 14.8785 4.03831 17.7126 7.9181 18.0252V19.745C7.9181 19.8481 7.98943 19.9417 8.09886 19.9799C8.13538 19.9935 8.17347 20 8.21163 20C8.28788 20 8.36331 19.9734 8.41884 19.9252L11.9148 16.8879C12.0284 16.7893 12.0284 16.6272 11.9148 16.5278L8.41889 13.4913Z" fill="#3B75FF"/>
<path d="M22.8921 0H1.10788C0.496095 0 0 0.513244 0 1.14625V7.85381C0 8.4867 0.496095 9 1.10788 9H22.8921C23.5039 9 24 8.4867 24 7.85381V1.14625C24 0.513244 23.5039 0 22.8921 0ZM22.4 7.34451H1.60006V1.65549H22.4V7.34451H22.4Z" fill="#3B75FF"/>
<path d="M14.1717 12.875H22.8282C23.0102 12.875 23.125 13.0147 23.125 13.1463V19.8537C23.125 19.9854 23.0103 20.125 22.8282 20.125H14.1717C13.9897 20.125 13.875 19.9854 13.875 19.8537V13.1463C13.875 13.0146 13.9898 12.875 14.1717 12.875Z" stroke="#3B75FF" stroke-width="1.75"/>
</svg>
