<svg width="129" height="32" viewBox="0 0 129 32" fill="none" xmlns="http://www.w3.org/2000/svg">
<g opacity="0.7">
<path d="M32 29.3C32 30.8 30.8 32 29.3 32H2.7C1.2 32 0 30.8 0 29.3V2.7C0 1.2 1.2 0 2.7 0H29.4C30.8 0 32 1.2 32 2.7V29.3Z" fill="url(#paint0_radial)"/>
<path d="M20 8H18.7C18 8 17.4 7.4 17.4 6.7C17.4 3 14.4 0 10.7 0H6.7C3 0 0 3 0 6.7V14.7C0 18.4 3 21.4 6.7 21.4H14.7C18.4 21.4 21.4 18.4 21.4 14.7V9.4C21.4 8.6 20.8 8 20 8ZM6.6 5.4H11.4C12.1 5.4 12.7 6 12.7 6.7C12.7 7.4 12.1 8 11.4 8H6.6C5.9 8 5.3 7.4 5.3 6.7C5.3 6 5.9 5.4 6.6 5.4ZM14.8 16H6.7C6 16 5.4 15.4 5.4 14.7C5.4 14 6 13.4 6.7 13.4H14.8C15.5 13.4 16.1 14 16.1 14.7C16.1 15.4 15.5 16 14.8 16Z" transform="translate(5.2998 5.2998)" fill="white"/>
<path d="M32 29.3C32 30.8 30.8 32 29.3 32H2.7C1.2 32 0 30.8 0 29.3V2.7C0 1.2 1.2 0 2.7 0H29.4C30.8 0 32 1.2 32 2.7V29.3Z" fill="url(#paint1_radial)"/>
<path d="M0 1.1H5.2C7.6 1.1 9.4 1.5 10.4 2.2C11.5 2.9 12 4 12 5.5C12 6.5 11.7 7.4 11.2 8C10.7 8.7 9.9 9.1 8.9 9.3V9.4C10.1 9.6 11 10.1 11.6 10.8C12.2 11.5 12.5 12.4 12.5 13.6C12.5 15.2 12 16.4 10.9 17.3C9.8 18.2 8.3 18.6 6.3 18.6H0V1.1ZM2.9 8.3H5.7C6.9 8.3 7.8 8.1 8.3 7.7C8.9 7.3 9.1 6.7 9.1 5.8C9.1 5 8.8 4.4 8.2 4C7.6 3.6 6.7 3.4 5.4 3.4H2.9V8.3ZM2.9 10.6V16.1H5.9C7.1 16.1 8 15.9 8.6 15.4C9.2 14.9 9.5 14.2 9.5 13.2C9.5 12.3 9.2 11.6 8.6 11.2C8 10.8 7 10.5 5.8 10.5H2.9V10.6ZM17.7 18.6H14.9V0H17.7V18.6ZM32.5 11.9C32.5 14.1 31.9 15.7 30.8 17C29.7 18.2 28.1 18.8 26.2 18.8C25 18.8 23.9 18.5 22.9 18C22 17.4 21.2 16.6 20.7 15.6C20.2 14.6 19.9 13.3 19.9 12C19.9 9.9 20.5 8.2 21.6 7C22.7 5.8 24.3 5.2 26.3 5.2C28.2 5.2 29.7 5.8 30.8 7C31.9 8.2 32.5 9.8 32.5 11.9ZM22.8 11.9C22.8 15 23.9 16.5 26.2 16.5C28.4 16.5 29.6 15 29.6 11.9C29.6 8.9 28.5 7.4 26.2 7.4C25 7.4 24.2 7.8 23.6 8.6C23.1 9.4 22.8 10.5 22.8 11.9ZM45.9 5.3V6.8L43.6 7.2C43.8 7.5 44 7.8 44.1 8.2C44.2 8.6 44.3 9 44.3 9.5C44.3 10.9 43.8 11.9 42.9 12.7C42 13.5 40.7 13.9 39 13.9C38.6 13.9 38.2 13.9 37.9 13.8C37.3 14.2 37 14.6 37 15.1C37 15.4 37.1 15.6 37.4 15.8C37.7 16 38.2 16 39 16H41.3C42.8 16 43.9 16.3 44.6 16.9C45.4 17.5 45.7 18.4 45.7 19.6C45.7 21.1 45.1 22.3 43.8 23.1C42.6 23.9 40.8 24.3 38.4 24.3C36.6 24.3 35.2 24 34.3 23.3C33.4 22.7 32.9 21.8 32.9 20.6C32.9 19.8 33.2 19.1 33.7 18.5C34.2 17.9 34.9 17.6 35.9 17.3C35.5 17.1 35.2 16.9 35 16.5C34.8 16.1 34.6 15.8 34.6 15.4C34.6 14.9 34.7 14.5 35 14.1C35.3 13.8 35.7 13.4 36.2 13.1C35.5 12.8 35 12.3 34.5 11.7C34.1 11 33.9 10.3 33.9 9.4C33.9 8 34.4 6.9 35.3 6.1C36.2 5.3 37.5 4.9 39.2 4.9C39.6 4.9 40 4.9 40.4 5C40.8 5.1 41.1 5.1 41.3 5.2H45.9V5.3ZM35.5 20.6C35.5 21.2 35.8 21.7 36.3 22C36.8 22.3 37.6 22.5 38.6 22.5C40.1 22.5 41.3 22.3 42 21.8C42.8 21.4 43.1 20.8 43.1 20.1C43.1 19.5 42.9 19.1 42.5 18.9C42.1 18.7 41.3 18.5 40.2 18.5H38.1C37.3 18.5 36.7 18.7 36.2 19.1C35.7 19.5 35.5 20 35.5 20.6ZM36.7 9.6C36.7 10.4 36.9 11.1 37.3 11.5C37.7 11.9 38.3 12.2 39.1 12.2C40.7 12.2 41.5 11.3 41.5 9.6C41.5 8.7 41.3 8.1 40.9 7.6C40.5 7.1 39.9 6.9 39.1 6.9C38.3 6.9 37.7 7.1 37.3 7.6C36.9 8.1 36.7 8.7 36.7 9.6ZM59.3 5.3V6.8L57 7.2C57.2 7.5 57.4 7.8 57.5 8.2C57.6 8.6 57.7 9 57.7 9.5C57.7 10.9 57.2 11.9 56.3 12.7C55.4 13.5 54.1 13.9 52.4 13.9C52 13.9 51.6 13.9 51.3 13.8C50.7 14.2 50.4 14.6 50.4 15.1C50.4 15.4 50.5 15.6 50.8 15.8C51.1 16 51.6 16 52.4 16H54.7C56.2 16 57.3 16.3 58 16.9C58.8 17.5 59.1 18.4 59.1 19.6C59.1 21.1 58.5 22.3 57.2 23.1C56 23.9 54.2 24.3 51.8 24.3C50 24.3 48.6 24 47.7 23.3C46.7 22.7 46.3 21.8 46.3 20.6C46.3 19.8 46.6 19.1 47.1 18.5C47.6 17.9 48.3 17.6 49.3 17.3C48.9 17.1 48.6 16.9 48.4 16.5C48.2 16.1 48 15.8 48 15.4C48 14.9 48.1 14.5 48.4 14.1C48.7 13.8 49.1 13.4 49.6 13.1C48.9 12.8 48.4 12.3 47.9 11.7C47.5 11 47.3 10.3 47.3 9.4C47.3 8 47.8 6.9 48.7 6.1C49.6 5.3 50.9 4.9 52.6 4.9C53 4.9 53.4 4.9 53.8 5C54.2 5.1 54.5 5.1 54.7 5.2H59.3V5.3ZM48.9 20.6C48.9 21.2 49.2 21.7 49.7 22C50.2 22.3 51 22.5 52 22.5C53.5 22.5 54.7 22.3 55.4 21.8C56.2 21.4 56.5 20.8 56.5 20.1C56.5 19.5 56.3 19.1 55.9 18.9C55.5 18.7 54.7 18.5 53.6 18.5H51.5C50.7 18.5 50.1 18.7 49.6 19.1C49.1 19.5 48.9 20 48.9 20.6ZM50.1 9.6C50.1 10.4 50.3 11.1 50.7 11.5C51.1 11.9 51.7 12.2 52.5 12.2C54.1 12.2 54.9 11.3 54.9 9.6C54.9 8.7 54.7 8.1 54.3 7.6C53.9 7.1 53.3 6.9 52.5 6.9C51.7 6.9 51.1 7.1 50.7 7.6C50.3 8.1 50.1 8.7 50.1 9.6ZM67.2 18.8C65.1 18.8 63.5 18.2 62.4 17C61.2 15.8 60.7 14.1 60.7 12C60.7 9.8 61.2 8.1 62.3 6.9C63.4 5.7 64.9 5 66.7 5C68.4 5 69.8 5.5 70.8 6.6C71.8 7.7 72.3 9.1 72.3 11V12.5H63.5C63.5 13.8 63.9 14.8 64.5 15.5C65.2 16.2 66.1 16.5 67.3 16.5C68.1 16.5 68.8 16.4 69.5 16.3C70.2 16.2 70.9 15.9 71.7 15.6V17.9C71 18.2 70.3 18.5 69.6 18.6C68.9 18.8 68.1 18.8 67.2 18.8ZM66.7 7.2C65.8 7.2 65.1 7.5 64.6 8.1C64.1 8.7 63.7 9.5 63.6 10.6H69.6C69.6 9.5 69.3 8.7 68.8 8.1C68.3 7.5 67.6 7.2 66.7 7.2ZM81.7 5.1C82.3 5.1 82.7 5.1 83.1 5.2L82.8 7.8C82.4 7.7 82 7.7 81.6 7.7C80.5 7.7 79.6 8.1 78.9 8.8C78.2 9.5 77.9 10.5 77.9 11.7V18.6H75.1V5.3H77.3L77.7 7.6H77.8C78.2 6.8 78.8 6.2 79.5 5.7C80.1 5.3 80.9 5.1 81.7 5.1Z" transform="translate(45 5)" fill="black"/>
</g>
<defs>
<radialGradient id="paint0_radial" cx="0.5" cy="0.5" r="0.5" gradientUnits="userSpaceOnUse" gradientTransform="translate(-44.905 -44.988) scale(89.976)">
<stop stop-color="#F59839"/>
<stop offset="1" stop-color="#F38936"/>
</radialGradient>
<radialGradient id="paint1_radial" cx="0.5" cy="0.5" r="0.5" gradientUnits="userSpaceOnUse" gradientTransform="translate(-45.092 -45.126) scale(90.318)">
<stop stop-color="white" stop-opacity="0.1"/>
<stop offset="1" stop-color="white" stop-opacity="0"/>
</radialGradient>
</defs>
</svg>
