<?xml version="1.0" encoding="utf-8"?>
<!-- Generator: Adobe Illustrator 22.1.0, SVG Export Plug-In . SVG Version: 6.00 Build 0)  -->
<svg version="1.1" id="Слой_1" xmlns="http://www.w3.org/2000/svg" xmlns:xlink="http://www.w3.org/1999/xlink" x="0px" y="0px"
	 viewBox="0 0 385.9 78.9" style="enable-background:new 0 0 385.9 78.9;" xml:space="preserve">
<style type="text/css">
	.st0{opacity:0.3;}
	.st1{fill:url(#SVGID_1_);}
	.st2{fill:#6FBFF6;}
	.st3{fill:#FD9A93;}
</style>
<g class="st0">
	
		<linearGradient id="SVGID_1_" gradientUnits="userSpaceOnUse" x1="-621.0983" y1="-1.9989" x2="-620.5951" y2="-1.9989" gradientTransform="matrix(2.112179e-14 78.8618 -344.945 4.828893e-15 -496.571 49000.5195)">
		<stop  offset="0" style="stop-color:#52E1F6"/>
		<stop  offset="1" style="stop-color:#93F9D9"/>
	</linearGradient>
	<path class="st1" d="M346.5,78.9H39.4C17.7,78.9,0,61.2,0,39.4S17.7,0,39.4,0h307.1c21.7,0,39.4,17.7,39.4,39.4
		S368.3,78.9,346.5,78.9z M39.4,1C18.2,1,1,18.2,1,39.4s17.2,38.4,38.4,38.4h307.1c21.2,0,38.4-17.2,38.4-38.4S367.7,1,346.5,1H39.4
		z"/>
</g>
<ellipse class="st2" cx="40.3" cy="39.4" rx="29.4" ry="29.3"/>
<path class="st3" d="M55.3,30.3c-5.1-6.6-15-2.7-15,4c0-6.7-10-10.6-15-4c-5.2,6.9-0.1,18.9,15,25.8C55.4,49.2,60.6,37.2,55.3,30.3z
	"/>
</svg>
