<?xml version="1.0" encoding="utf-8"?>
<!-- Generator: Adobe Illustrator 22.1.0, SVG Export Plug-In . SVG Version: 6.00 Build 0)  -->
<svg version="1.1" id="Слой_1" xmlns="http://www.w3.org/2000/svg" xmlns:xlink="http://www.w3.org/1999/xlink" x="0px" y="0px"
	 viewBox="0 0 385.9 78.9" style="enable-background:new 0 0 385.9 78.9;" xml:space="preserve">
<style type="text/css">
	.st0{opacity:0.3;}
	.st1{fill:url(#SVGID_1_);}
	.st2{fill:#6FBFF6;}
	.st3{fill:#3A7ADC;fill-opacity:0.3;}
	.st4{fill:#91DCF8;fill-opacity:0.5;}
	.st5{fill:#FD9A93;}
</style>
<g class="st0">
	
		<linearGradient id="SVGID_1_" gradientUnits="userSpaceOnUse" x1="-320.9313" y1="541.1119" x2="-320.4281" y2="541.1119" gradientTransform="matrix(2.112179e-14 78.8618 344.945 -4.828893e-15 -186460.875 25328.8086)">
		<stop  offset="0" style="stop-color:#52E1F6"/>
		<stop  offset="1" style="stop-color:#93F9D9"/>
	</linearGradient>
	<path class="st1" d="M346.5,78.9H39.4C17.7,78.9,0,61.2,0,39.4S17.7,0,39.4,0h307.1c21.7,0,39.4,17.7,39.4,39.4
		S368.3,78.9,346.5,78.9z M39.4,1C18.2,1,1,18.2,1,39.4c0,21.2,17.2,38.4,38.4,38.4h307.1c21.2,0,38.4-17.2,38.4-38.4
		c0-21.2-17.2-38.4-38.4-38.4H39.4z"/>
</g>
<ellipse class="st2" cx="40.3" cy="39.4" rx="29.4" ry="29.3"/>
<path class="st3" d="M94.9,18.6h34.5c2.8,0,5,2.2,5,5v2.1c0,2.8-2.2,5-5,5H94.9c-2.8,0-5-2.2-5-5v-2.1
	C89.9,20.8,92.2,18.6,94.9,18.6z"/>
<path class="st3" d="M151.3,18.6h85.6c2.8,0,5,2.2,5,5v2.1c0,2.8-2.2,5-5,5h-85.6c-2.8,0-5-2.2-5-5v-2.1
	C146.3,20.8,148.6,18.6,151.3,18.6z"/>
<path class="st4" d="M93.7,38h232c2,0,3.7,1.7,3.7,3.7v0c0,2-1.7,3.7-3.7,3.7h-232c-2,0-3.7-1.7-3.7-3.7v0
	C89.9,39.7,91.6,38,93.7,38z"/>
<path class="st4" d="M93.7,52.9h240.2c2,0,3.7,1.7,3.7,3.7v0c0,2-1.7,3.7-3.7,3.7H93.7c-2,0-3.7-1.7-3.7-3.7v0
	C89.9,54.5,91.6,52.9,93.7,52.9z"/>
<path class="st5" d="M55.3,30.3c-5.1-6.6-15-2.7-15,4c0-6.7-10-10.6-15-4c-5.2,6.9-0.1,18.9,15,25.8C55.4,49.2,60.6,37.2,55.3,30.3z
	"/>
</svg>
