<?xml version="1.0" encoding="utf-8"?>
<!-- Generator: Adobe Illustrator 22.1.0, SVG Export Plug-In . SVG Version: 6.00 Build 0)  -->
<svg version="1.1" id="Слой_1" xmlns="http://www.w3.org/2000/svg" xmlns:xlink="http://www.w3.org/1999/xlink" x="0px" y="0px"
	 viewBox="0 0 385.9 78.9" style="enable-background:new 0 0 385.9 78.9;" xml:space="preserve">
<style type="text/css">
	.st0{opacity:0.3;}
	.st1{fill:url(#SVGID_1_);}
	.st2{fill:#6FBFF6;}
	.st3{fill:#F6D395;}
	.st4{fill:#898989;}
</style>
<g class="st0">
	
		<linearGradient id="SVGID_1_" gradientUnits="userSpaceOnUse" x1="-621.0983" y1="-1.9989" x2="-620.5951" y2="-1.9989" gradientTransform="matrix(2.112179e-14 78.8618 -344.945 4.828893e-15 -496.571 49000.5195)">
		<stop  offset="0" style="stop-color:#52E1F6"/>
		<stop  offset="1" style="stop-color:#93F9D9"/>
	</linearGradient>
	<path class="st1" d="M346.5,78.9H39.4C17.7,78.9,0,61.2,0,39.4S17.7,0,39.4,0h307.1c21.7,0,39.4,17.7,39.4,39.4
		S368.3,78.9,346.5,78.9z M39.4,1C18.2,1,1,18.2,1,39.4s17.2,38.4,38.4,38.4h307.1c21.2,0,38.4-17.2,38.4-38.4S367.7,1,346.5,1H39.4
		z"/>
</g>
<g>
	<ellipse class="st2" cx="40.4" cy="39.4" rx="29.4" ry="29.3"/>
	<path class="st3" d="M40.3,56.7c9.5,0,17.2-7.7,17.2-17.2s-7.7-17.2-17.2-17.2C30.8,22.2,23,30,23,39.5S30.8,56.7,40.3,56.7z"/>
	<path class="st4" d="M47.1,33.5c-1.3,0-2.4,1.1-2.4,2.4c0,1.3,1.1,2.4,2.4,2.4s2.4-1.1,2.4-2.4C49.5,34.5,48.4,33.5,47.1,33.5z"/>
	<path class="st4" d="M35.5,36.9c0.1,0.2,0.3,0.3,0.5,0.3c0.1,0,0.2,0,0.3-0.1c0.3-0.2,0.4-0.6,0.2-0.9c-0.7-1.2-1.9-1.9-3.3-1.9
		c-1.4,0-2.6,0.7-3.3,1.9c-0.2,0.3-0.1,0.7,0.2,0.9c0.3,0.2,0.7,0.1,0.9-0.2c0.5-0.8,1.3-1.3,2.2-1.3C34.2,35.7,35,36.1,35.5,36.9z"
		/>
	<path class="st4" d="M46.3,40.9c-0.3-0.2-0.7-0.1-0.9,0.2c-1.1,1.8-3,2.9-5.2,2.9c-2.1,0-4.1-1.1-5.2-2.9c-0.2-0.3-0.6-0.4-0.9-0.2
		c-0.3,0.2-0.4,0.6-0.2,0.9c1.3,2.2,3.7,3.6,6.3,3.6s4.9-1.3,6.3-3.6C46.7,41.5,46.6,41.1,46.3,40.9z"/>
</g>
</svg>
