<?xml version="1.0" encoding="utf-8"?>
<!-- Generator: Adobe Illustrator 22.1.0, SVG Export Plug-In . SVG Version: 6.00 Build 0)  -->
<svg version="1.1" id="Слой_1" xmlns="http://www.w3.org/2000/svg" xmlns:xlink="http://www.w3.org/1999/xlink" x="0px" y="0px"
	 viewBox="0 0 385.9 78.9" style="enable-background:new 0 0 385.9 78.9;" xml:space="preserve">
<style type="text/css">
	.st0{opacity:0.3;}
	.st1{fill:url(#SVGID_1_);}
	.st2{fill:#3A7ADC;fill-opacity:0.3;}
	.st3{fill:#91DCF8;fill-opacity:0.5;}
	.st4{fill:#6FBFF6;}
	.st5{fill:#FFFFFF;}
	.st6{fill:#FFFFFF;filter:url(#Adobe_OpacityMaskFilter);}
	.st7{mask:url(#mask0_2_);}
	.st8{opacity:0.4;}
	.st9{fill:#28B446;}
	.st10{fill:#28B446;filter:url(#Adobe_OpacityMaskFilter_1_);}
	.st11{mask:url(#mask1_2_);}
	.st12{fill:#FFCF0F;}
	.st13{fill:#F14336;}
	.st14{fill:#7E2D25;}
</style>
<g class="st0">
	
		<linearGradient id="SVGID_1_" gradientUnits="userSpaceOnUse" x1="-320.9313" y1="541.1119" x2="-320.4281" y2="541.1119" gradientTransform="matrix(2.112179e-14 78.8618 344.945 -4.828893e-15 -186460.875 25328.8086)">
		<stop  offset="0" style="stop-color:#52E1F6"/>
		<stop  offset="1" style="stop-color:#93F9D9"/>
	</linearGradient>
	<path class="st1" d="M346.5,78.9H39.4C17.7,78.9,0,61.2,0,39.4S17.7,0,39.4,0h307.1c21.7,0,39.4,17.7,39.4,39.4
		S368.3,78.9,346.5,78.9z M39.4,1C18.2,1,1,18.2,1,39.4c0,21.2,17.2,38.4,38.4,38.4h307.1c21.2,0,38.4-17.2,38.4-38.4
		c0-21.2-17.2-38.4-38.4-38.4H39.4z"/>
</g>
<path class="st2" d="M94.9,18.6h34.5c2.8,0,5,2.2,5,5v2.1c0,2.8-2.2,5-5,5H94.9c-2.8,0-5-2.2-5-5v-2.1
	C89.9,20.8,92.2,18.6,94.9,18.6z"/>
<path class="st2" d="M151.3,18.6h85.6c2.8,0,5,2.2,5,5v2.1c0,2.8-2.2,5-5,5h-85.6c-2.8,0-5-2.2-5-5v-2.1
	C146.3,20.8,148.6,18.6,151.3,18.6z"/>
<path class="st3" d="M93.7,38h232c2,0,3.7,1.7,3.7,3.7v0c0,2-1.7,3.7-3.7,3.7h-232c-2,0-3.7-1.7-3.7-3.7v0
	C89.9,39.7,91.6,38,93.7,38z"/>
<path class="st3" d="M93.7,52.9h240.2c2,0,3.7,1.7,3.7,3.7v0c0,2-1.7,3.7-3.7,3.7H93.7c-2,0-3.7-1.7-3.7-3.7v0
	C89.9,54.5,91.6,52.9,93.7,52.9z"/>
<ellipse class="st4" cx="40.3" cy="39.4" rx="29.4" ry="29.3"/>
<ellipse class="st5" cx="40.2" cy="39.5" rx="18.2" ry="18.2"/>
<defs>
	<filter id="Adobe_OpacityMaskFilter" filterUnits="userSpaceOnUse" x="23.3" y="21.9" width="31.7" height="32.6">
		<feColorMatrix  type="matrix" values="1 0 0 0 0  0 1 0 0 0  0 0 1 0 0  0 0 0 1 0"/>
	</filter>
</defs>
<mask maskUnits="userSpaceOnUse" x="23.3" y="21.9" width="31.7" height="32.6" id="mask0_2_">
	<ellipse class="st6" cx="40.2" cy="39.5" rx="18.2" ry="18.2"/>
</mask>
<g class="st7">
	<path class="st5" d="M55,51.6v0.7c0,1.1-0.9,2-1.9,2.2L37.5,39.3l2.4-2.4l5.5,5.5l0.3,0.3L55,51.6z"/>
	<path class="st5" d="M52.5,24.4L39.9,36.9l-2.4,2.4L25.7,51.1h-0.2c-1.2,0-2.2-1-2.2-2.2l27.2-27c0.3,0.5,2.2,0,2.6,0.4l0.7,0.9
		C54.2,23.6,52.2,24,52.5,24.4z"/>
	<path class="st5" d="M25.8,32c1.1-1.9,3.2-3.2,5.6-3.2c3.6,0,6.4,2.9,6.4,6.5c0,0.9-0.2,1.7-0.5,2.5c-0.3,0.8-0.8,1.5-1.4,2.1
		c-0.5,0.5-0.9,1.1-1.3,1.6c-2.6,3.7-3.2,7.9-3.2,7.9s-0.7-4.6-3.6-8.3c-0.3-0.4-0.6-0.8-1-1.2h0c-0.4-0.4-0.7-0.8-1-1.3
		c-0.6-1-0.9-2.1-0.9-3.3C24.9,34.1,25.2,33,25.8,32z"/>
	<path class="st5" d="M31.3,31.8c1.9,0,3.4,1.5,3.4,3.4c0,1.9-1.5,3.4-3.4,3.4c-1.9,0-3.4-1.5-3.4-3.4
		C27.9,33.4,29.5,31.8,31.3,31.8z"/>
</g>
<g class="st8">
	<ellipse class="st9" cx="40.2" cy="39.5" rx="18.2" ry="18.2"/>
	<defs>
		<filter id="Adobe_OpacityMaskFilter_1_" filterUnits="userSpaceOnUse" x="23.3" y="21.9" width="31.7" height="32.6">
			<feColorMatrix  type="matrix" values="1 0 0 0 0  0 1 0 0 0  0 0 1 0 0  0 0 0 1 0"/>
		</filter>
	</defs>
	<mask maskUnits="userSpaceOnUse" x="23.3" y="21.9" width="31.7" height="32.6" id="mask1_2_">
		<ellipse class="st10" cx="40.2" cy="39.5" rx="18.2" ry="18.2"/>
	</mask>
	<g class="st11">
		<path class="st12" d="M55,51.6v0.7c0,1.1-0.9,2-1.9,2.2L37.5,39.3l2.4-2.4l5.5,5.5l0.3,0.3L55,51.6z"/>
		<path class="st12" d="M52.5,24.4L39.9,36.9l-2.4,2.4L25.7,51.1h-0.2c-1.2,0-2.2-1-2.2-2.2l27.2-27c0.3,0.5,2.2,0,2.6,0.4l0.7,0.9
			C54.2,23.6,52.2,24,52.5,24.4z"/>
		<path class="st13" d="M25.8,32c1.1-1.9,3.2-3.2,5.6-3.2c3.6,0,6.4,2.9,6.4,6.5c0,0.9-0.2,1.7-0.5,2.5c-0.3,0.8-0.8,1.5-1.4,2.1
			c-0.5,0.5-0.9,1.1-1.3,1.6c-2.6,3.7-3.2,7.9-3.2,7.9s-0.7-4.6-3.6-8.3c-0.3-0.4-0.6-0.8-1-1.2h0c-0.4-0.4-0.7-0.8-1-1.3
			c-0.6-1-0.9-2.1-0.9-3.3C24.9,34.1,25.2,33,25.8,32z"/>
		<path class="st14" d="M31.3,31.8c1.9,0,3.4,1.5,3.4,3.4c0,1.9-1.5,3.4-3.4,3.4c-1.9,0-3.4-1.5-3.4-3.4
			C27.9,33.4,29.5,31.8,31.3,31.8z"/>
	</g>
</g>
</svg>
