<?xml version="1.0" encoding="utf-8"?>
<!-- Generator: Adobe Illustrator 22.1.0, SVG Export Plug-In . SVG Version: 6.00 Build 0)  -->
<svg version="1.1" id="Слой_1" xmlns="http://www.w3.org/2000/svg" xmlns:xlink="http://www.w3.org/1999/xlink" x="0px" y="0px"
	 viewBox="0 0 385.9 78.9" style="enable-background:new 0 0 385.9 78.9;" xml:space="preserve">
<style type="text/css">
	.st0{opacity:0.3;}
	.st1{fill:url(#SVGID_1_);}
	.st2{fill:#6FBFF6;}
	.st3{fill:#FFFFFF;}
	.st4{opacity:0.4;}
	.st5{fill:#28B446;}
	.st6{fill:#FFCF0F;}
	.st7{fill:#F14336;}
	.st8{fill:#7E2D25;}
</style>
<g class="st0">
	
		<linearGradient id="SVGID_1_" gradientUnits="userSpaceOnUse" x1="-621.0983" y1="-1.9989" x2="-620.5951" y2="-1.9989" gradientTransform="matrix(2.112179e-14 78.8618 -344.945 4.828893e-15 -496.571 49000.5195)">
		<stop  offset="0" style="stop-color:#52E1F6"/>
		<stop  offset="1" style="stop-color:#93F9D9"/>
	</linearGradient>
	<path class="st1" d="M346.5,78.9H39.4C17.7,78.9,0,61.2,0,39.4S17.7,0,39.4,0h307.1c21.7,0,39.4,17.7,39.4,39.4
		S368.3,78.9,346.5,78.9z M39.4,1C18.2,1,1,18.2,1,39.4s17.2,38.4,38.4,38.4h307.1c21.2,0,38.4-17.2,38.4-38.4S367.7,1,346.5,1H39.4
		z"/>
</g>
<ellipse class="st2" cx="40.3" cy="39.4" rx="29.4" ry="29.3"/>
<ellipse class="st3" cx="40.2" cy="39.5" rx="18.2" ry="18.2"/>
<g class="st4">
	<ellipse class="st5" cx="40.2" cy="39.5" rx="18.2" ry="18.2"/>
	<g>
		<path class="st6" d="M45.7,42.7l-0.3-0.3l-5.5-5.5l11.7-11.6c-0.8-0.7-1.7-1.3-2.7-1.8L24.1,48.1c0.5,1,1.1,1.9,1.8,2.8l11.5-11.5
			L52,53.4c0.9-0.7,1.7-1.5,2.4-2.4L45.7,42.7z"/>
		<path class="st7" d="M25.8,32c1.1-1.9,3.2-3.2,5.6-3.2c3.6,0,6.4,2.9,6.4,6.5c0,0.9-0.2,1.7-0.5,2.5s-0.8,1.5-1.4,2.1
			c-0.5,0.5-0.9,1.1-1.3,1.6c-2.6,3.7-3.2,7.9-3.2,7.9s-0.7-4.6-3.6-8.3c-0.3-0.4-0.6-0.8-1-1.2l0,0c-0.4-0.4-0.7-0.8-1-1.3
			c-0.6-1-0.9-2.1-0.9-3.3C24.9,34.1,25.2,33,25.8,32z"/>
		<path class="st8" d="M31.3,31.8c1.9,0,3.4,1.5,3.4,3.4s-1.5,3.4-3.4,3.4s-3.4-1.5-3.4-3.4C27.9,33.4,29.5,31.8,31.3,31.8z"/>
	</g>
</g>
</svg>
