<?xml version="1.0" encoding="utf-8"?>
<!-- Generator: Adobe Illustrator 22.1.0, SVG Export Plug-In . SVG Version: 6.00 Build 0)  -->
<svg version="1.1" id="Слой_1" xmlns="http://www.w3.org/2000/svg" xmlns:xlink="http://www.w3.org/1999/xlink" x="0px" y="0px"
	 viewBox="0 0 241 73" style="enable-background:new 0 0 241 73;" xml:space="preserve">
<style type="text/css">
	.st0{opacity:0.3;}
	.st1{fill:url(#SVGID_1_);}
	.st2{fill:#6FBFF6;}
	.st3{fill:#F6D395;}
	.st4{fill:#898989;}
</style>
<g class="st0">
	
		<linearGradient id="SVGID_1_" gradientUnits="userSpaceOnUse" x1="-350.4093" y1="537.9813" x2="-349.9058" y2="537.9813" gradientTransform="matrix(1.475699e-14 73 241 -4.469961e-15 -129533 25598)">
		<stop  offset="0" style="stop-color:#52E1F6"/>
		<stop  offset="1" style="stop-color:#93F9D9"/>
	</linearGradient>
	<path class="st1" d="M204.5,73h-168C16.4,73,0,56.6,0,36.5S16.4,0,36.5,0h168C224.6,0,241,16.4,241,36.5S224.6,73,204.5,73z
		 M36.5,1C16.9,1,1,16.9,1,36.5C1,56.1,16.9,72,36.5,72h168c19.6,0,35.5-15.9,35.5-35.5C240,16.9,224.1,1,204.5,1H36.5z"/>
</g>
<ellipse class="st2" cx="37.4" cy="36.5" rx="27.1" ry="27"/>
<path class="st3" d="M37.3,52.4c8.8,0,15.9-7.1,15.9-15.9c0-8.8-7.1-15.9-15.9-15.9c-8.8,0-15.9,7.1-15.9,15.9
	C21.4,45.3,28.5,52.4,37.3,52.4z"/>
<path class="st4" d="M43.6,31c-1.2,0-2.2,1-2.2,2.2c0,1.2,1,2.2,2.2,2.2c1.2,0,2.2-1,2.2-2.2C45.8,31.9,44.8,31,43.6,31z"/>
<path class="st4" d="M32.9,34.2c0.1,0.2,0.3,0.3,0.5,0.3c0.1,0,0.2,0,0.3-0.1c0.3-0.2,0.4-0.5,0.2-0.8c-0.6-1.1-1.8-1.7-3.1-1.7
	c-1.3,0-2.4,0.6-3.1,1.7c-0.2,0.3-0.1,0.6,0.2,0.8c0.3,0.2,0.6,0.1,0.8-0.2c0.4-0.7,1.2-1.2,2-1.2C31.7,33,32.5,33.4,32.9,34.2z"/>
<path class="st4" d="M42.9,37.8c-0.3-0.2-0.6-0.1-0.8,0.2c-1,1.7-2.8,2.7-4.8,2.7c-2,0-3.7-1-4.8-2.7c-0.2-0.3-0.5-0.4-0.8-0.2
	c-0.3,0.2-0.4,0.5-0.2,0.8c1.2,2.1,3.4,3.3,5.8,3.3c2.4,0,4.5-1.2,5.8-3.3C43.2,38.3,43.1,38,42.9,37.8z"/>
</svg>
