<svg width="241" height="73" viewBox="0 0 241 73" fill="none" xmlns="http://www.w3.org/2000/svg">
<rect x="0.5" y="0.5" width="240" height="72" rx="36" stroke="url(#paint0_linear)" stroke-opacity="0.3"/>
<ellipse cx="27.1033" cy="27.01" rx="27.1033" ry="27.01" transform="translate(10.292 9.44727)" fill="#6FBFF6"/>
<path d="M15.8665 31.7765C24.6293 31.7765 31.733 24.6631 31.733 15.8882C31.733 7.11341 24.6293 0 15.8665 0C7.10367 0 0 7.11341 0 15.8882C0 24.6631 7.10367 31.7765 15.8665 31.7765Z" transform="translate(21.4414 20.6118)" fill="#F6D395"/>
<path d="M2.17584 0C0.976083 0 0 0.977422 0 2.17883C0 3.38023 0.976083 4.35765 2.17584 4.35765C3.3756 4.35765 4.35169 3.38023 4.35169 2.17883C4.35169 0.977422 3.37567 0 2.17584 0Z" transform="translate(41.4492 30.9536)" fill="#898989"/>
<path d="M5.18103 2.3392C5.2911 2.52377 5.48626 2.62617 5.68639 2.62611C5.78902 2.62611 5.89302 2.59918 5.98748 2.54264C6.26631 2.37581 6.35723 2.0143 6.1907 1.73508C5.54242 0.648615 4.40091 0 3.13707 0C1.87316 0 0.731598 0.648615 0.083313 1.73508C-0.0832206 2.0143 0.00770035 2.37588 0.286537 2.54264C0.565436 2.70946 0.926455 2.61835 1.09299 2.33913C1.52683 1.61189 2.29095 1.1777 3.13701 1.1777C3.98294 1.1777 4.74718 1.61189 5.18103 2.3392Z" transform="translate(27.7148 31.8193)" fill="#898989"/>
<path d="M11.4144 0.0834138C11.1358 -0.0832859 10.7745 0.00763505 10.6079 0.286916C9.59798 1.97955 7.81947 2.99011 5.85044 2.99011C3.88142 2.99011 2.10291 1.97955 1.09299 0.286916C0.926455 0.00775917 0.565436 -0.0832859 0.286537 0.0834138C0.00769999 0.250238 -0.0832205 0.611751 0.0833131 0.89097C1.30755 2.94282 3.46344 4.16787 5.85044 4.16787C8.23745 4.16787 10.3933 2.94282 11.6176 0.89097C11.7841 0.611751 11.6931 0.250176 11.4144 0.0834138Z" transform="translate(31.4561 37.7212)" fill="#898989"/>
<rect width="41.1673" height="11.1647" rx="5" transform="translate(83.1924 17.1763)" fill="#3A7ADC" fill-opacity="0.3"/>
<rect width="41.1673" height="11.1647" rx="5" transform="translate(132.936 17.1763)" fill="#3A7ADC" fill-opacity="0.3"/>
<rect width="127.79" height="6.87059" rx="3.43529" transform="translate(83.1924 35.2119)" fill="#91DCF8" fill-opacity="0.5"/>
<rect width="83.1922" height="6.87059" rx="3.43529" transform="translate(83.1924 48.9531)" fill="#91DCF8" fill-opacity="0.5"/>
<defs>
<linearGradient id="paint0_linear" x2="1" gradientUnits="userSpaceOnUse" gradientTransform="translate(241) scale(241 73) rotate(90)">
<stop stop-color="#52E1F6"/>
<stop offset="1" stop-color="#93F9D9"/>
</linearGradient>
</defs>
</svg>
