<svg width="55" height="55" viewBox="0 0 55 55" fill="none" xmlns="http://www.w3.org/2000/svg">
<path d="M27.5 55C42.6878 55 55 42.6878 55 27.5C55 12.3122 42.6878 0 27.5 0C12.3122 0 0 12.3122 0 27.5C0 42.6878 12.3122 55 27.5 55Z" fill="#F6D395"/>
<path d="M39 18C36.7944 18 35 19.7944 35 22C35 24.2056 36.7944 26 39 26C41.2056 26 43 24.2056 43 22C43 19.7944 41.2057 18 39 18Z" fill="#898989"/>
<path d="M20.0837 23.563C20.2767 23.8441 20.6189 24.0001 20.9697 24C21.1497 24 21.332 23.959 21.4976 23.8729C21.9865 23.6188 22.1459 23.0681 21.8539 22.6428C20.7173 20.9879 18.716 20 16.5001 20C14.2841 20 12.2827 20.9879 11.1461 22.6428C10.8541 23.0681 11.0135 23.6188 11.5024 23.8729C11.9914 24.127 12.6243 23.9882 12.9163 23.5629C13.6769 22.4552 15.0166 21.7938 16.5 21.7938C17.9831 21.7938 19.3231 22.4552 20.0837 23.563Z" fill="#898989"/>
<path d="M37.5103 30.1401C37.0341 29.8601 36.4166 30.0128 36.1318 30.4819C34.4056 33.3247 31.3656 35.0219 28 35.0219C24.6344 35.0219 21.5945 33.3247 19.8682 30.4819C19.5836 30.013 18.9665 29.8601 18.4898 30.1401C18.0132 30.4203 17.8578 31.0274 18.1424 31.4964C20.235 34.9425 23.92 37 28 37C32.0801 37 35.7651 34.9425 37.8576 31.4964C38.1423 31.0274 37.9867 30.4202 37.5103 30.1401Z" fill="#898989"/>
</svg>
