<svg width="30" height="38" viewBox="0 0 30 38" fill="none" xmlns="http://www.w3.org/2000/svg">
<path d="M0.499359 18.5324C0.499359 18.5324 1.95296 20.738 4.99956 22.6049C4.99956 22.6049 2.79308 3.34496 17.1697 0C13.4864 13.9621 21.855 17.8996 24.9056 10.5232C30 17.5481 26.132 23.6769 26.132 23.6769C28.2209 23.9877 29.9756 21.6307 29.9756 21.6307C29.9912 21.921 30 22.2134 30 22.5078C30.0001 31.0639 23.2843 38 15 38C6.71573 38 0 31.0639 0 22.5077C0 21.1333 0.17419 19.8011 0.499359 18.5324Z" fill="#FFB29A"/>
<path d="M9 31.0708C9 34.8977 11.9102 38 15.5 38C19.0898 38 22 34.8977 22 31.0708C22 29.0225 21.1663 27.1818 19.8409 25.9133C17.3278 29.5529 13.7465 24.0318 16.5375 20C16.5375 20 9 21.0069 9 31.0708Z" fill="#FFEFBB"/>
</svg>
