<svg width="169" height="44" viewBox="0 0 169 44" fill="none" xmlns="http://www.w3.org/2000/svg">
<g opacity="0.7">
<path d="M0 3.41264H2.01563V13.575H5.42311V0.377927H0V3.41264ZM7.72536 6.97478C7.72536 11.1995 10.549 13.9519 14.4645 13.9519C15.595 13.9519 16.8379 13.7811 18.0236 12.9713V9.21802C17.344 9.91726 16.2713 10.6531 14.8981 10.6531C12.7884 10.6531 11.5279 9.08816 11.5279 7.08832C11.5279 4.92134 12.8645 3.3001 14.8978 3.3001C16.3092 3.3001 17.3443 4.09257 18.024 4.88504V1.05719C16.9101 0.303339 15.5754 0.000665579 14.4083 0.000665579C10.8313 0.000665579 7.72569 2.56455 7.72569 6.97511L7.72536 6.97478ZM34.0063 5.52368H32.0669V3.54383H38.1094V0.377927H28.3771L28.3764 13.5746H34.007C34.9656 13.5746 39.1824 13.6119 39.1824 9.48373C39.1824 5.5067 35.0035 5.52402 34.0067 5.52402L34.0063 5.52368ZM33.6472 10.9345H32.0669V8.16316H33.6476C34.8157 8.16316 35.4936 8.50279 35.4936 9.54033C35.4936 10.5952 34.7967 10.9345 33.6482 10.9345H33.6472ZM44.6411 8.29602V0.377927H41.0833V13.5746H44.6996L49.7995 5.65554V13.5746H53.3583V0.377927H49.7447L44.6414 8.29602H44.6411ZM54.8649 3.5445H57.7623V13.575H61.4544V3.54416H64.3522V0.378257H54.8659L54.8649 3.54416V3.5445ZM71.4102 0.377927H65.8581V13.5746H69.5502V9.21802H71.4112C75.1402 9.21802 76.2125 6.61816 76.2125 4.78948C76.2125 2.97811 75.1585 0.377592 71.4105 0.377592L71.4102 0.377927ZM70.6022 6.3155H69.5502V3.28145H70.6022C72.1843 3.28145 72.4094 4.12953 72.4094 4.78915C72.4087 5.3552 72.2398 6.3155 70.6022 6.3155ZM81.2942 8.29602V0.377927H77.7364V13.5746H81.3507L86.4533 5.65554V13.5746H90.011V0.377927H86.3961L81.2942 8.29602ZM104.182 0.377927H99.8518L95.8794 5.92059V0.377927H92.1893L92.1916 13.5746H95.8791V7.89911L99.6995 13.5746H104.315L99.1741 6.76867L104.182 0.377927ZM110.948 3.29976C112.363 3.29976 113.398 4.09223 114.076 4.88471V1.05652C112.964 0.302674 111.625 0 110.461 0C106.885 0 103.778 2.56389 103.778 6.97478C103.778 11.1995 106.602 13.9519 110.518 13.9519C111.646 13.9519 112.889 13.7814 114.076 12.9716V9.21802C113.397 9.91726 112.325 10.6538 110.948 10.6538C108.842 10.6538 107.58 9.08816 107.58 7.08865C107.58 4.921 108.916 3.29943 110.948 3.29943L110.948 3.29976ZM23.1671 4.88404C22.5953 4.88404 22.0469 5.11138 21.6424 5.51608C21.2379 5.92079 21.0104 6.46977 21.0098 7.04237C21.022 7.60733 21.2546 8.14505 21.6579 8.5403C22.0611 8.93556 22.603 9.1569 23.1673 9.1569C23.7316 9.1569 24.2734 8.93556 24.6767 8.5403C25.08 8.14505 25.3126 7.60733 25.3247 7.04237C25.3247 5.85166 24.3585 4.88404 23.1668 4.88404H23.1671Z" transform="translate(54.9243 15.1577)" fill="#1D1D1B"/>
<path d="M21.9668 0C20.3309 0 18.7395 0.1848 17.2063 0.524432V22.0162C17.2063 24.65 19.3496 26.7976 21.9794 26.7976C24.6088 26.7976 26.7528 24.65 26.7528 22.0162C26.7528 19.4909 24.7787 17.4125 22.2973 17.2473V13.4181C26.8825 13.5869 30.5716 17.3838 30.5716 22.0155C30.5716 26.7557 26.7119 30.6215 21.9797 30.6215C17.2456 30.6215 13.3872 26.7557 13.3872 22.0158V1.74245C12.8461 1.97339 12.3147 2.22666 11.7945 2.50162V22.0162C11.7952 27.6344 16.3717 32.2151 21.9797 32.2151C27.589 32.2151 32.1643 27.6344 32.1643 22.0162C32.1643 16.5071 27.7613 11.9943 22.2969 11.8239V7.998C29.864 8.16915 35.9814 14.3994 35.9814 22.0162C35.9814 29.7411 29.6915 36.0396 21.9797 36.0396C14.2663 36.0396 7.9754 29.7408 7.9754 22.0158V5.03954C3.10424 9.0745 0 15.1746 0 22.0005C0 34.1507 9.83475 44 21.9671 44C34.1018 44 43.9355 34.1507 43.9355 22.0005C43.9355 9.85033 34.1018 0 21.9674 0H21.9668Z" fill="#D20033"/>
</g>
</svg>
