<svg width="224" height="23" viewBox="0 0 224 23" fill="none" xmlns="http://www.w3.org/2000/svg">
<path fill-rule="evenodd" clip-rule="evenodd" d="M22.6467 2.14606C21.8344 1.37982 20.44 1.37982 19.6277 2.14606L9.97495 11.2003L5.80319 7.23613C4.99092 6.46989 3.5965 6.46989 2.78194 7.23613L0 10.4107L8.47468 18.6754C9.28694 19.4417 10.6814 19.4417 11.4936 18.6754L13.178 17.088C13.2378 17.0324 13.293 16.9737 13.3436 16.9127L25.9188 5.29333L22.6467 2.14606Z" fill="#32BA7C"/>
<path fill-rule="evenodd" clip-rule="evenodd" d="M19.9501 2.48997L9.97285 11.8485L5.47988 7.57912C5.4797 7.57895 5.48006 7.57929 5.47988 7.57912C4.85445 6.98971 3.75601 6.98396 3.12029 7.56517L0.648998 10.3853L8.80065 18.3349C9.43183 18.9274 10.5405 18.9266 11.1703 18.3324L12.8574 16.7424C12.9019 16.7011 12.9431 16.6573 12.9811 16.6116L13.001 16.5876L25.2317 5.28644L22.3234 2.48905C22.3229 2.48857 22.3239 2.48952 22.3234 2.48905C21.6924 1.8955 20.5803 1.89546 19.9501 2.48997ZM22.6467 2.14606C21.8344 1.37982 20.44 1.37982 19.6277 2.14606L9.97495 11.2003L5.80319 7.23613C4.99092 6.46989 3.5965 6.46989 2.78194 7.23613L0 10.4107L8.47468 18.6754C9.28694 19.4417 10.6814 19.4417 11.4936 18.6754L13.178 17.088C13.2378 17.0324 13.293 16.9737 13.3436 16.9127L25.9188 5.29333L22.6467 2.14606Z" fill="white"/>
<path d="M36.9009 15.125C37.2779 15.62 37.6863 15.9657 38.1261 16.1621C38.5659 16.3586 39.045 16.4568 39.5634 16.4568C40.6316 16.4568 41.4523 16.0757 42.0257 15.3136C42.6069 14.5514 42.8975 13.4004 42.8975 11.8604C42.8975 10.4382 42.6423 9.39715 42.1317 8.73715C41.6212 8.06929 40.8986 7.73536 39.964 7.73536C39.3042 7.73536 38.7309 7.88465 38.2439 8.18322C37.7648 8.48179 37.3171 8.90608 36.9009 9.45608V15.125ZM36.9009 7.74715C37.3957 7.19715 37.9572 6.75322 38.5856 6.41536C39.2139 6.07751 39.9286 5.90858 40.7298 5.90858C41.4288 5.90858 42.0571 6.04608 42.6148 6.32108C43.1803 6.58822 43.6594 6.97715 44.0521 7.48786C44.4448 7.99072 44.7472 8.60358 44.9592 9.32644C45.1713 10.0493 45.2773 10.8664 45.2773 11.7779C45.2773 12.7443 45.1556 13.6243 44.9121 14.4179C44.6765 15.2114 44.3348 15.8911 43.8871 16.4568C43.4473 17.0225 42.9093 17.4625 42.2731 17.7768C41.6369 18.0832 40.9222 18.2364 40.1289 18.2364C39.7441 18.2364 39.3906 18.1971 39.0686 18.1186C38.7466 18.0479 38.4481 17.9418 38.1732 17.8004C37.9062 17.6589 37.6588 17.4861 37.431 17.2818C37.2032 17.0775 36.9873 16.8457 36.783 16.5864L36.677 17.5882C36.6142 17.9104 36.4178 18.0714 36.088 18.0714H34.6035V0.67572H36.9009V7.74715Z" fill="#898989"/>
<path d="M57.974 6.09715L51.3294 21.5482C51.2587 21.7211 51.1645 21.8547 51.0466 21.9489C50.9288 22.0432 50.756 22.0904 50.5283 22.0904H48.82L51.0113 17.3172L46.0985 6.09715H48.1013C48.2977 6.09715 48.4508 6.14429 48.5608 6.23858C48.6708 6.33286 48.7493 6.43894 48.7964 6.55679L51.836 13.7461C51.8988 13.9268 51.9577 14.1114 52.0127 14.3C52.0755 14.4807 52.1266 14.6614 52.1659 14.8421C52.2208 14.6536 52.2797 14.4689 52.3426 14.2882C52.4054 14.0996 52.4722 13.915 52.5429 13.7343L55.4764 6.55679C55.5314 6.42322 55.6178 6.31322 55.7356 6.22679C55.8534 6.14036 55.9869 6.09715 56.1361 6.09715H57.974Z" fill="#898989"/>
<path d="M71.3539 18.0714V4.25856H66.123V1.57142H79.5065V4.25856H74.2757V18.0714H71.3539Z" fill="#32BA7C"/>
<path d="M80.5473 18.0714V5.62571H83.3984V8.43071C84.2781 6.30928 85.7468 5.29571 87.8046 5.38999V8.40714H87.6397C86.3516 8.40714 85.3227 8.83142 84.553 9.67999C83.7833 10.5129 83.3984 11.7307 83.3984 13.3336V18.0714H80.5473Z" fill="#32BA7C"/>
<path d="M94.5691 18.3307C93.1867 18.3307 92.1029 17.8986 91.3174 17.0343C90.532 16.17 90.1393 15.0071 90.1393 13.5457V5.62571H92.9904V12.6971C92.9904 13.6714 93.2181 14.4257 93.6737 14.96C94.1449 15.4786 94.8047 15.7379 95.6529 15.7379C96.4855 15.7379 97.1609 15.4629 97.6793 14.9129C98.1977 14.3629 98.4569 13.6086 98.4569 12.65V5.62571H101.308V18.0714H98.4569V16.1386C97.4672 17.6 96.1713 18.3307 94.5691 18.3307Z" fill="#32BA7C"/>
<path d="M109.157 18.3071C107.209 18.3071 105.45 17.6864 103.879 16.445L105.151 14.5121C106.502 15.5336 107.861 16.0443 109.228 16.0443C109.84 16.0443 110.312 15.9264 110.641 15.6907C110.987 15.4393 111.16 15.0936 111.16 14.6536C111.16 14.4336 111.097 14.245 110.971 14.0878C110.861 13.915 110.657 13.7578 110.359 13.6164C110.06 13.475 109.809 13.3729 109.605 13.31C109.4 13.2471 109.063 13.145 108.592 13.0036L108.379 12.9328C107.94 12.8071 107.563 12.6893 107.248 12.5793C106.95 12.4536 106.612 12.2886 106.235 12.0843C105.858 11.88 105.552 11.66 105.316 11.4243C105.081 11.1729 104.884 10.8586 104.727 10.4814C104.57 10.1043 104.492 9.67999 104.492 9.20856C104.492 8.06142 104.908 7.14214 105.74 6.45071C106.589 5.75928 107.649 5.41357 108.921 5.41357C110.539 5.41357 112.063 5.88499 113.493 6.82785L112.362 8.85499C111.073 8.06928 109.903 7.67642 108.851 7.67642C108.301 7.67642 107.869 7.79428 107.555 8.02999C107.256 8.26571 107.107 8.57999 107.107 8.97285C107.107 9.23999 107.241 9.48357 107.508 9.70356C107.79 9.92356 108.065 10.0886 108.332 10.1986C108.615 10.2928 109.063 10.4421 109.675 10.6464C109.707 10.6621 109.746 10.6779 109.793 10.6936C109.84 10.7093 109.88 10.7171 109.911 10.7171C110.461 10.89 110.924 11.0629 111.301 11.2357C111.678 11.3929 112.071 11.6129 112.479 11.8957C112.903 12.1786 113.225 12.5321 113.445 12.9564C113.665 13.365 113.775 13.8443 113.775 14.3943C113.775 15.6514 113.343 16.6179 112.479 17.2936C111.615 17.9693 110.508 18.3071 109.157 18.3071Z" fill="#32BA7C"/>
<path d="M120.614 18.2836C118.226 18.2836 117.032 17.0657 117.032 14.63V8.07714H115.454V5.62571H117.032V2.20785H119.883V5.62571H123.229V8.07714H119.883V14.1821C119.883 15.2193 120.394 15.7379 121.415 15.7379C122.028 15.7379 122.617 15.5964 123.182 15.3136V17.6471C122.428 18.0714 121.572 18.2836 120.614 18.2836Z" fill="#32BA7C"/>
<path d="M132.088 18.0714L139.345 1.45356H142.031L149.289 18.0714H146.225L144.552 14.0878H136.753L135.057 18.0714H132.088ZM137.814 11.5186H143.492L140.641 4.91856L137.814 11.5186Z" fill="#32BA7C"/>
<path d="M156.938 18.3543C155.1 18.3543 153.569 17.7257 152.343 16.4686C151.118 15.2114 150.506 13.6793 150.506 11.8721C150.506 10.0807 151.118 8.54856 152.343 7.27571C153.584 6.00285 155.124 5.36642 156.962 5.36642C158.972 5.36642 160.63 6.08142 161.933 7.51142L160.166 9.42071C159.177 8.38356 158.1 7.86499 156.938 7.86499C155.917 7.86499 155.061 8.25785 154.37 9.04356C153.694 9.81357 153.357 10.7564 153.357 11.8721C153.357 13.0036 153.702 13.9543 154.393 14.7243C155.1 15.4943 155.996 15.8793 157.079 15.8793C158.226 15.8793 159.302 15.3607 160.308 14.3236L162.028 16.0207C161.352 16.775 160.614 17.3564 159.813 17.765C159.027 18.1579 158.069 18.3543 156.938 18.3543Z" fill="#32BA7C"/>
<path d="M168.82 18.2836C166.433 18.2836 165.239 17.0657 165.239 14.63V8.07714H163.66V5.62571H165.239V2.20785H168.09V5.62571H171.436V8.07714H168.09V14.1821C168.09 15.2193 168.6 15.7379 169.621 15.7379C170.234 15.7379 170.823 15.5964 171.389 15.3136V17.6471C170.635 18.0714 169.779 18.2836 168.82 18.2836Z" fill="#32BA7C"/>
<path d="M174.361 3.71642V1.00571H177.424V3.71642H174.361ZM174.479 18.0714V5.62571H177.33V18.0714H174.479Z" fill="#32BA7C"/>
<path d="M184.991 18.1657L179.878 5.62571H182.941L186.287 14.7714L189.656 5.62571H192.649L187.559 18.1657H184.991Z" fill="#32BA7C"/>
<path d="M195.117 3.71642V1.00571H198.18V3.71642H195.117ZM195.234 18.0714V5.62571H198.085V18.0714H195.234Z" fill="#32BA7C"/>
<path d="M205.982 18.2836C203.594 18.2836 202.4 17.0657 202.4 14.63V8.07714H200.822V5.62571H202.4V2.20785H205.252V5.62571H208.597V8.07714H205.252V14.1821C205.252 15.2193 205.762 15.7379 206.783 15.7379C207.396 15.7379 207.985 15.5964 208.55 15.3136V17.6471C207.796 18.0714 206.94 18.2836 205.982 18.2836Z" fill="#32BA7C"/>
<path d="M214.02 21.9136C212.984 21.9136 212.002 21.6621 211.075 21.1593L212.041 19.0379C212.622 19.3521 213.18 19.5093 213.714 19.5093C214.123 19.5093 214.46 19.3993 214.727 19.1793C214.994 18.975 215.246 18.6057 215.481 18.0714L210.298 5.62571H213.337L216.872 14.8657L220.1 5.62571H223.068L218.12 18.425C217.618 19.6978 217.06 20.5936 216.447 21.1121C215.835 21.6464 215.026 21.9136 214.02 21.9136Z" fill="#32BA7C"/>
</svg>
