<svg width="9" height="9" viewBox="0 0 9 9" fill="none" xmlns="http://www.w3.org/2000/svg">
<rect width="9" height="9" fill="black" fill-opacity="0"/>
<rect width="9" height="9" fill="black" fill-opacity="0"/>
<path fill-rule="evenodd" clip-rule="evenodd" d="M5.56964 4.50002L8.77847 1.29119C9.07384 0.99581 9.07384 0.51691 8.77847 0.221575C8.48309 -0.073802 8.00423 -0.073802 7.70886 0.221575L4.49998 3.43045L1.29111 0.221533C0.995734 -0.0738443 0.516878 -0.0738443 0.221501 0.221533C-0.0738336 0.51691 -0.0738336 0.99581 0.221501 1.29114L3.43037 4.49998L0.221501 7.70886C-0.0738336 8.00423 -0.0738336 8.48313 0.221501 8.77847C0.516878 9.07384 0.995734 9.07384 1.29111 8.77847L4.49998 5.56959L7.70886 8.77847C8.00419 9.07384 8.48309 9.07384 8.77847 8.77847C9.07384 8.48309 9.07384 8.00423 8.77847 7.70886L5.56964 4.50002Z" fill="#646464"/>
</svg>
