<svg width="38" height="37" viewBox="0 0 38 37" fill="none" xmlns="http://www.w3.org/2000/svg">
<rect width="38" height="37" fill="black" fill-opacity="0"/>
<rect width="38" height="37" fill="black" fill-opacity="0"/>
<rect width="38" height="37" fill="black" fill-opacity="0"/>
<path d="M31.1319 18.152C31.5138 18.152 31.8234 17.8412 31.8234 17.4578C31.8234 17.0745 31.5138 16.7637 31.1319 16.7637C30.75 16.7637 30.4404 17.0745 30.4404 17.4578C30.4404 17.8412 30.75 18.152 31.1319 18.152Z" fill="#538CF8" fill-opacity="0.8"/>
<path d="M6.23836 18.152C6.62026 18.152 6.92985 17.8412 6.92985 17.4578C6.92985 17.0745 6.62026 16.7637 6.23836 16.7637C5.85646 16.7637 5.54688 17.0745 5.54688 17.4578C5.54688 17.8412 5.85646 18.152 6.23836 18.152Z" fill="#538CF8" fill-opacity="0.8"/>
<path d="M8.31258 20.235C8.69448 20.235 9.00407 19.9242 9.00407 19.5409C9.00407 19.1575 8.69448 18.8467 8.31258 18.8467C7.93068 18.8467 7.62109 19.1575 7.62109 19.5409C7.62109 19.9242 7.93068 20.235 8.31258 20.235Z" fill="#538CF8" fill-opacity="0.8"/>
<path d="M12.461 20.235C12.8429 20.235 13.1525 19.9242 13.1525 19.5409C13.1525 19.1575 12.8429 18.8467 12.461 18.8467C12.0791 18.8467 11.7695 19.1575 11.7695 19.5409C11.7695 19.9242 12.0791 20.235 12.461 20.235Z" fill="#538CF8" fill-opacity="0.8"/>
<path d="M10.3868 22.3171C10.7687 22.3171 11.0783 22.0063 11.0783 21.6229C11.0783 21.2395 10.7687 20.9287 10.3868 20.9287C10.0049 20.9287 9.69531 21.2395 9.69531 21.6229C9.69531 22.0063 10.0049 22.3171 10.3868 22.3171Z" fill="#538CF8" fill-opacity="0.8"/>
<path d="M14.5362 22.3171C14.9181 22.3171 15.2277 22.0063 15.2277 21.6229C15.2277 21.2395 14.9181 20.9287 14.5362 20.9287C14.1543 20.9287 13.8447 21.2395 13.8447 21.6229C13.8447 22.0063 14.1543 22.3171 14.5362 22.3171Z" fill="#538CF8" fill-opacity="0.8"/>
<path d="M16.6104 24.4001C16.9923 24.4001 17.3019 24.0893 17.3019 23.7059C17.3019 23.3225 16.9923 23.0117 16.6104 23.0117C16.2285 23.0117 15.9189 23.3225 15.9189 23.7059C15.9189 24.0893 16.2285 24.4001 16.6104 24.4001Z" fill="#538CF8" fill-opacity="0.8"/>
<path d="M20.7589 24.4001C21.1408 24.4001 21.4504 24.0893 21.4504 23.7059C21.4504 23.3225 21.1408 23.0117 20.7589 23.0117C20.377 23.0117 20.0674 23.3225 20.0674 23.7059C20.0674 24.0893 20.377 24.4001 20.7589 24.4001Z" fill="#538CF8" fill-opacity="0.8"/>
<path d="M22.8341 22.3171C23.216 22.3171 23.5256 22.0063 23.5256 21.6229C23.5256 21.2395 23.216 20.9287 22.8341 20.9287C22.4522 20.9287 22.1426 21.2395 22.1426 21.6229C22.1426 22.0063 22.4522 22.3171 22.8341 22.3171Z" fill="#538CF8" fill-opacity="0.8"/>
<path d="M18.6847 26.4821C19.0665 26.4821 19.3761 26.1713 19.3761 25.7879C19.3761 25.4045 19.0665 25.0938 18.6847 25.0938C18.3028 25.0938 17.9932 25.4045 17.9932 25.7879C17.9932 26.1713 18.3028 26.4821 18.6847 26.4821Z" fill="#538CF8" fill-opacity="0.8"/>
<path d="M24.9083 20.235C25.2902 20.235 25.5998 19.9242 25.5998 19.5409C25.5998 19.1575 25.2902 18.8467 24.9083 18.8467C24.5264 18.8467 24.2168 19.1575 24.2168 19.5409C24.2168 19.9242 24.5264 20.235 24.9083 20.235Z" fill="#538CF8" fill-opacity="0.8"/>
<path d="M29.0567 20.235C29.4386 20.235 29.7482 19.9242 29.7482 19.5409C29.7482 19.1575 29.4386 18.8467 29.0567 18.8467C28.6748 18.8467 28.3652 19.1575 28.3652 19.5409C28.3652 19.9242 28.6748 20.235 29.0567 20.235Z" fill="#538CF8" fill-opacity="0.8"/>
<path d="M26.9825 22.3171C27.3644 22.3171 27.674 22.0063 27.674 21.6229C27.674 21.2395 27.3644 20.9287 26.9825 20.9287C26.6006 20.9287 26.291 21.2395 26.291 21.6229C26.291 22.0063 26.6006 22.3171 26.9825 22.3171Z" fill="#538CF8" fill-opacity="0.8"/>
<path d="M31.5035 22.1926L37.9993 18.467L31.3223 14.6609L37.9993 10.8311L19 0L0 10.8311L6.677 14.6609L0 18.467L6.677 22.2968L0 26.1029L19 37L38 26.1029L31.323 22.2968L31.3721 22.2683C31.4205 22.2503 31.4606 22.2211 31.5035 22.1926ZM19 1.5959L35.2057 10.8346L29.9248 13.864L19.0007 20.1296L2.7943 10.8346L19 1.5959ZM7.69556 15.6765C7.80758 15.9076 8.03923 16.0701 8.31237 16.0701C8.49907 16.0701 8.66641 15.9944 8.79088 15.8736L10.355 16.7705C9.98854 16.7878 9.69535 17.0863 9.69535 17.4584C9.69535 17.8416 10.0051 18.1526 10.3868 18.1526C10.7685 18.1526 11.0783 17.8416 11.0783 17.4584C11.0783 17.3383 11.0403 17.2314 10.987 17.1328L18.1301 21.2298C18.0499 21.343 17.9932 21.4742 17.9932 21.6234C17.9932 22.0066 18.303 22.3176 18.6847 22.3176C19.0664 22.3176 19.3762 22.0066 19.3762 21.6234C19.3762 21.588 19.3616 21.5582 19.3561 21.5242L26.3069 17.5375C26.3477 17.8818 26.6285 18.1519 26.9825 18.1519C27.3642 18.1519 27.674 17.8409 27.674 17.4577C27.674 17.2321 27.5599 17.0405 27.3933 16.9142L28.9159 16.0409C28.963 16.0513 29.0072 16.0694 29.057 16.0694C29.364 16.0694 29.615 15.8653 29.7056 15.5876L29.9269 15.4606L35.2057 18.4698L33.8345 19.2563C33.7259 19.0154 33.4867 18.846 33.2066 18.846C32.8249 18.846 32.5151 19.157 32.5151 19.5402C32.5151 19.6902 32.5725 19.8214 32.6527 19.9345L29.9248 21.4992L25.5076 24.0329C25.5615 23.9343 25.6002 23.826 25.6002 23.7052C25.6002 23.3221 25.2905 23.0111 24.9088 23.0111C24.5271 23.0111 24.2173 23.3221 24.2173 23.7052C24.2173 24.078 24.5118 24.3765 24.879 24.3932L23.3142 25.2907C23.1897 25.1699 23.0217 25.0936 22.8343 25.0936C22.4526 25.0936 22.1428 25.4046 22.1428 25.7878C22.1428 25.8433 22.1622 25.8926 22.1746 25.9446L19.0007 27.7648L15.1858 25.5767C15.0959 25.2984 14.8442 25.0936 14.5364 25.0936C14.486 25.0936 14.441 25.1123 14.394 25.1227L12.872 24.2502C13.0387 24.1231 13.1535 23.9322 13.1535 23.7059C13.1535 23.3228 12.8437 23.0118 12.462 23.0118C12.1079 23.0118 11.8265 23.2832 11.7864 23.6275L4.83419 19.6409C4.83903 19.6069 4.85424 19.5763 4.85424 19.5409C4.85424 19.1577 4.54446 18.8467 4.16275 18.8467C3.99749 18.8467 3.85228 18.9127 3.73334 19.0099L2.79361 18.4712L7.69556 15.6765ZM35.205 26.1064L18.9993 35.4013L2.7943 26.1064L8.07242 23.0971L19 29.3641L29.9269 23.0971L35.205 26.1064Z" fill="#538CF8" fill-opacity="0.8"/>
</svg>
