<svg width="71" height="31" viewBox="0 0 71 31" fill="none" xmlns="http://www.w3.org/2000/svg">
<path d="M9.03714 0C9.3844 0.0720332 9.73166 0.127117 10.0706 0.220337C12.2294 0.822025 13.8611 2.73726 14.1205 4.98724C14.1749 5.47452 14.1624 5.97452 14.1707 6.46604C14.1791 6.88976 14.1707 7.31348 14.1707 7.73297C14.3172 7.79229 14.4594 7.83043 14.5849 7.90246C14.9991 8.14822 15.2083 8.5211 15.2502 9.00838C15.3087 9.69905 15.6351 10.2329 16.1999 10.6228C16.6852 10.9575 16.8861 11.5719 16.6894 12.1355C16.4509 12.8177 16.5179 13.466 16.8944 14.0804C17.1915 14.5634 17.1329 15.2202 16.748 15.6312C16.2459 16.1651 16.0326 16.788 16.1371 17.5252C16.2166 18.1015 15.8861 18.6608 15.3506 18.8812C14.6853 19.1566 14.2628 19.6481 14.0578 20.3388C13.8946 20.8896 13.3884 21.2794 12.8193 21.2625C12.0872 21.2371 11.4847 21.504 11.0203 22.076C10.6647 22.5167 9.96177 22.6099 9.50991 22.3896C8.8656 22.076 8.22128 22.0718 7.57697 22.3854C7.11256 22.6142 6.40549 22.5167 6.03313 22.0549C5.58545 21.504 4.99553 21.2413 4.28846 21.2667C3.69016 21.2879 3.17555 20.8939 3.0082 20.3176C2.81155 19.6396 2.38898 19.1608 1.74049 18.8939C1.18822 18.6651 0.874427 18.1057 0.949736 17.5041C1.0376 16.8049 0.832588 16.2032 0.372364 15.6693C0.217561 15.4744 0.125516 15.2244 0 14.9998C0 14.8431 0 14.6905 0 14.5337C0.100413 14.3176 0.205009 14.1058 0.305422 13.8897C0.55227 13.36 0.619211 12.8092 0.435121 12.2456C0.196641 11.5168 0.363996 11.0168 0.979023 10.555C1.49782 10.1652 1.79069 9.63126 1.8409 8.97872C1.88274 8.41517 2.21745 7.95755 2.75716 7.79653C2.88686 7.7584 2.9287 7.69484 2.9287 7.55924C2.92033 6.93213 2.92452 6.30078 2.92452 5.67367C2.92452 3.06776 4.69429 0.788128 7.19624 0.173727C7.48493 0.101694 7.78198 0.0593214 8.07485 0C8.39701 0 8.71498 0 9.03714 0ZM14.1331 14.0931C14.2168 10.9321 11.811 8.33466 8.71916 8.24568C5.5729 8.1567 3.0333 10.6185 2.95799 13.8304C2.88686 16.8897 5.35116 19.4956 8.38864 19.5676C11.4763 19.6396 14.0494 17.1905 14.1331 14.0931ZM5.67331 5.91519C6.40131 6.14824 7.06654 6.0635 7.66902 5.6313C8.28823 5.18215 8.79866 5.18215 9.42624 5.63554C10.0287 6.07197 10.6981 6.15248 11.3968 5.91943C11.5098 4.89825 10.9743 3.80505 10.0706 3.24997C9.0455 2.62285 7.99954 2.61862 6.99541 3.26692C6.05405 3.87284 5.63984 4.77961 5.67331 5.91519Z" fill="#A1A2A4"/>
<path d="M7.38759 2.65679C7.32902 3.07204 7.26208 3.48729 7.21606 3.90678C7.10727 4.91948 6.75583 5.79235 5.86048 6.35591C5.40444 6.64404 4.8982 6.79658 4.36685 6.86438C3.4966 6.97454 2.63054 6.99997 1.77704 6.75421C1.09925 6.5593 0.496773 6.22879 0.199719 5.54236C0.0700193 5.24999 -0.0178397 4.8983 0.00307958 4.58474C0.049102 3.84322 0.128594 3.09323 0.279213 2.36866C0.513509 1.2585 1.22895 0.550882 2.3042 0.250037C3.45476 -0.0719934 4.61788 -0.097417 5.76425 0.258512C6.49643 0.487323 7.06544 0.927997 7.283 1.7246C7.32902 1.89409 7.35412 2.06782 7.38759 2.23731C7.38759 2.3729 7.38759 2.51696 7.38759 2.65679ZM3.39201 5.77117C3.39201 5.76693 3.39201 5.76269 3.39201 5.75846C3.45476 5.75846 3.51752 5.75846 3.58028 5.75846C4.4296 5.75422 4.99442 5.32626 5.21199 4.49999C5.28729 4.20762 5.33332 3.90678 5.3626 3.60594C5.40863 3.15255 5.4672 2.69493 5.45883 2.24154C5.44628 1.6907 5.10739 1.33901 4.57185 1.2585C4.325 1.22037 4.07398 1.22037 3.82295 1.22037C2.93178 1.22037 2.31257 1.68646 2.12848 2.57205C1.99878 3.2034 1.91929 3.8517 1.87326 4.49576C1.82306 5.21609 2.1494 5.60168 2.85229 5.7288C3.02801 5.75422 3.2121 5.75422 3.39201 5.77117Z" transform="translate(63.6123 7.5127)" fill="#A1A2A4"/>
<path d="M2.38898 2.84323C2.27602 3.76695 2.15887 4.69067 2.05009 5.61439C1.97897 6.24574 1.54384 6.64828 0.916264 6.65252C0.61921 6.65252 0.317973 6.65252 0 6.65252C0.267767 4.4322 0.531349 2.23307 0.799116 0.0169892C1.27608 0.0212264 1.75722 -0.063518 2.20489 0.110209C2.3848 0.178005 2.56052 0.33902 2.6693 0.504272C3.2132 1.34748 3.732 2.21188 4.25917 3.06357C4.30101 3.12713 4.34285 3.19069 4.41397 3.30509C4.46418 3.23306 4.49347 3.17797 4.53112 3.13136C5.28003 2.26697 6.03731 1.41104 6.77785 0.53817C7.03307 0.233089 7.33849 0.0508873 7.7234 0.029701C8.08322 0.0085148 8.44303 0.0254642 8.82794 0.0254642C8.77774 0.457663 8.72753 0.872913 8.67733 1.2924C8.51416 2.6229 8.35517 3.95339 8.18363 5.27965C8.15016 5.53388 8.11669 5.80083 8.01627 6.03812C7.84474 6.44065 7.51421 6.64828 7.07491 6.65252C6.76948 6.65675 6.46406 6.65252 6.13354 6.65252C6.29252 5.36863 6.44315 4.11017 6.60632 2.78815C6.51009 2.90255 6.45151 2.97035 6.39712 3.03815C5.82393 3.76695 5.25493 4.49999 4.68174 5.2288C4.65663 5.2627 4.63153 5.2966 4.60225 5.32626C4.25917 5.71185 3.92028 5.67795 3.67343 5.21609C3.30107 4.51271 2.93707 3.80932 2.57307 3.1017C2.52705 3.00848 2.47684 2.9195 2.43082 2.83052C2.42245 2.83476 2.40572 2.83899 2.38898 2.84323Z" transform="translate(36.4375 7.66943)" fill="#A1A2A4"/>
<path d="M4.05259 0C4.722 0.0296607 5.37887 0.0889825 6.00226 0.355929C6.96037 0.766942 7.43314 1.50422 7.35784 2.55506C7.31181 3.21607 7.2365 3.87708 7.11099 4.52538C6.89343 5.63977 6.21564 6.37705 5.14457 6.69909C3.95217 7.05925 2.73885 7.09739 1.54645 6.69061C0.826829 6.44909 0.257826 6.00418 0.0737364 5.20757C0.00261082 4.90249 -0.0141246 4.57623 0.0109785 4.26267C0.057001 3.6864 0.119756 3.11014 0.23272 2.54658C0.496303 1.2288 1.32471 0.453385 2.60497 0.182202C3.08193 0.084745 3.57144 0.0593214 4.05259 0ZM3.37899 5.80503C3.37899 5.79655 3.38317 5.78384 3.38317 5.77537C3.48777 5.77537 3.59236 5.7796 3.69696 5.77537C4.38311 5.73299 4.89773 5.41944 5.13621 4.74995C5.23662 4.47029 5.29519 4.16521 5.33285 3.86861C5.39979 3.36861 5.47091 2.86014 5.4751 2.35591C5.47928 1.73303 5.13202 1.35168 4.52536 1.27117C4.22412 1.2288 3.91452 1.22456 3.6091 1.24999C2.8309 1.31355 2.35394 1.76693 2.14475 2.51269C2.08617 2.72879 2.04852 2.95336 2.02341 3.17793C1.96902 3.6864 1.89371 4.19911 1.88534 4.71182C1.87698 5.22876 2.14474 5.55927 2.63844 5.69486C2.8811 5.75418 3.13214 5.76689 3.37899 5.80503Z" transform="translate(46.4004 7.49561)" fill="#A1A2A4"/>
<path d="M3.30068 6.97443C2.59779 6.949 1.92001 6.8685 1.27988 6.56341C0.351059 6.1185 -0.0798778 5.3897 0.0121671 4.35581C0.0707411 3.71599 0.137683 3.07616 0.263199 2.44905C0.489127 1.33042 1.1711 0.588898 2.25053 0.26263C3.37599 -0.0763492 4.51818 -0.0805863 5.65201 0.211784C5.86539 0.266868 6.0704 0.364324 6.26704 0.466018C6.92809 0.81771 7.32974 1.37703 7.35484 2.13126C7.38413 3.1143 7.29208 4.09734 6.95319 5.02529C6.57664 6.06342 5.75242 6.5846 4.72319 6.79646C4.25878 6.89392 3.77764 6.91934 3.30068 6.97443ZM3.38854 5.788C3.38854 5.77529 3.39273 5.76681 3.39273 5.7541C3.44712 5.7541 3.50569 5.7541 3.56008 5.7541C4.47216 5.7541 5.0579 5.288 5.24617 4.377C5.32985 3.98717 5.38006 3.58463 5.41771 3.18633C5.45118 2.83888 5.48047 2.48295 5.45118 2.13549C5.40935 1.65668 5.09137 1.32618 4.62278 1.25838C4.2797 1.21177 3.92826 1.19906 3.58518 1.22872C2.8028 1.29652 2.33839 1.76262 2.14594 2.51261C2.07063 2.7965 2.02879 3.09311 1.9995 3.38548C1.95348 3.83463 1.90327 4.28378 1.89909 4.73292C1.8949 5.20326 2.15849 5.52105 2.59361 5.65241C2.84882 5.73291 3.12496 5.74562 3.38854 5.788Z" transform="translate(27.8477 7.5127)" fill="#A1A2A4"/>
<path d="M1.98485 5.44486C2.40324 5.44486 2.81325 5.4491 3.21909 5.44062C3.39899 5.43639 3.5789 5.41096 3.75881 5.37706C4.40731 5.25842 4.83824 4.87283 4.97213 4.22453C5.08927 3.66945 5.16877 3.09743 5.19387 2.52964C5.23153 1.69066 4.81732 1.25846 3.98474 1.22033C3.37389 1.1949 2.75887 1.20762 2.14384 1.20338C2.00995 1.20338 1.88026 1.20338 1.74637 1.20338C1.01001 1.19914 0.65857 0.766941 0.775718 0.0127119C0.805005 0.00847462 0.838473 0 0.871944 0C2.04761 0.0127117 3.22746 0.0127117 4.40312 0.0423724C4.96794 0.0593214 5.52021 0.186439 6.03065 0.457623C6.69169 0.809314 7.09334 1.36863 7.06824 2.11862C7.03895 2.95336 6.96364 3.79657 6.79211 4.61012C6.55781 5.70333 5.77961 6.29655 4.72109 6.49993C4.29852 6.58044 3.86341 6.62281 3.43665 6.63129C2.63753 6.65248 1.83423 6.644 1.03093 6.63552C0.838475 6.63552 0.641832 6.60586 0.453558 6.55502C0.110482 6.45756 -0.0317675 6.25417 0.00588722 5.89824C0.0686451 5.29656 0.152319 4.69487 0.227629 4.09318C0.311306 3.40674 0.394983 2.72031 0.47866 2.03812C0.482844 1.99574 0.499582 1.95761 0.512133 1.90676C0.884497 1.90676 1.25686 1.88134 1.62086 1.91523C2.04761 1.95337 2.3363 2.38133 2.28191 2.83895C2.1815 3.66522 2.08108 4.49148 1.98067 5.31774C1.98067 5.3474 1.98485 5.3813 1.98485 5.44486Z" transform="translate(55.0078 7.67773)" fill="#A1A2A4"/>
<path d="M6.70634 0.00457606C6.61011 0.779992 6.0955 1.2249 5.51813 1.22067C4.99515 1.21643 4.47216 1.21643 3.94918 1.22067C3.75672 1.2249 3.56008 1.23761 3.36762 1.27151C2.68565 1.39016 2.23798 1.78422 2.1041 2.47489C1.99113 3.05963 1.90327 3.65708 1.8698 4.25453C1.82796 5.00876 2.18777 5.39011 2.93669 5.41978C3.86969 5.45367 4.80269 5.4452 5.73569 5.45367C5.83192 5.45367 5.92815 5.45367 6.02437 5.45367C6.00345 6.05536 5.53068 6.62315 4.97841 6.63587C4.01194 6.65281 3.04128 6.6401 2.07481 6.59349C1.56856 6.56807 1.11252 6.33078 0.710872 6.00451C0.208809 5.60198 -0.0338548 5.05537 0.00379994 4.42826C0.0540063 3.67827 0.125132 2.9198 0.300854 2.19099C0.585357 0.991855 1.44723 0.364742 2.60198 0.135931C3.02455 0.0554233 3.45967 0.0172881 3.88642 0.00881356C4.81942 -0.00813542 5.75661 0.00457606 6.70634 0.00457606Z" transform="translate(20.6475 7.67334)" fill="#A1A2A4"/>
<path d="M0 2.82436C0.351444 2.91334 0.68197 3.00656 1.02086 3.07436C1.14638 3.09978 1.28863 3.09131 1.40996 3.04894C1.49364 3.01928 1.58987 2.92182 1.6066 2.84131C1.62334 2.76928 1.5564 2.6464 1.49364 2.59979C1.36812 2.50233 1.21332 2.44725 1.07525 2.37098C0.849324 2.2481 0.60666 2.1464 0.405835 1.98539C-0.213376 1.48963 -0.0794918 0.45998 0.652684 0.154898C0.870244 0.0616789 1.12128 0.0320181 1.36394 0.00659468C1.76977 -0.0315405 2.32623 0.0998148 2.64838 0.294728C2.55215 0.544726 2.45174 0.794722 2.35133 1.04896C2.09611 0.981161 1.84927 0.913365 1.6066 0.849806C1.56476 0.837094 1.52293 0.82862 1.48109 0.832857C1.31373 0.832857 1.12128 0.824383 1.0627 1.02777C1.00413 1.21845 1.17566 1.29472 1.30955 1.36675C1.54384 1.48963 1.78651 1.5998 2.0208 1.72268C2.46011 1.94725 2.69441 2.30318 2.65257 2.81165C2.61073 3.36673 2.29276 3.70571 1.78651 3.85401C1.23842 4.01503 0.686153 3.97266 0.146435 3.76927C0.0376547 3.7269 1.53211e-06 3.66757 0.00418539 3.54893C0.00418539 3.2947 0 3.05317 0 2.82436Z" transform="translate(24.7393 15.9214)" fill="#8C8D8F"/>
<path d="M0.000881828 2.8237C0.35651 2.91268 0.695405 3.01014 1.03848 3.08217C1.15563 3.10759 1.2937 3.09912 1.40666 3.06098C1.49034 3.03132 1.59912 2.93811 1.61167 2.8576C1.62422 2.77709 1.55728 2.65421 1.49034 2.59912C1.37319 2.50591 1.22257 2.45082 1.08869 2.37879C0.946434 2.30675 0.795816 2.2432 0.657748 2.16269C0.155685 1.87456 -0.0409552 1.46354 0.0469058 0.912702C0.118031 0.467791 0.448556 0.154234 0.988274 0.0483028C1.55728 -0.0661028 2.10536 0.0271166 2.65763 0.281351C2.55304 0.552535 2.45263 0.80677 2.3564 1.04829C2.08026 0.97626 1.82505 0.908464 1.57401 0.844906C1.51544 0.827957 1.4485 0.823719 1.38574 0.832193C1.24349 0.849142 1.06777 0.874567 1.06777 1.03982C1.06777 1.14151 1.17655 1.27287 1.27696 1.33643C1.48197 1.46778 1.71208 1.55676 1.92964 1.66693C2.50283 1.9593 2.71621 2.31523 2.64927 2.87031C2.58651 3.4042 2.24761 3.76013 1.65351 3.88725C1.15981 3.99318 0.670301 3.95081 0.193341 3.78555C0.0427219 3.73471 -0.00748589 3.64996 0.000881828 3.49318C0.00924955 3.26014 0.000881828 3.02709 0.000881828 2.8237Z" transform="translate(21.6758 15.9175)" fill="#8C8D8F"/>
<path d="M0.407624 1.31851C0.428543 1.10665 0.436911 0.911736 0.470382 0.716823C0.566611 0.161744 1.17327 -0.160287 1.67952 0.0812362C1.8929 0.18293 1.79667 0.394793 1.7883 0.555808C1.77993 0.721061 1.64186 0.636315 1.55819 0.632078C1.2946 0.610892 1.18164 0.704111 1.16909 0.971058C1.16491 1.08123 1.16909 1.19563 1.16909 1.32699C1.25695 1.33122 1.32808 1.3397 1.40338 1.3397C1.80922 1.34394 2.21087 1.34393 2.6167 1.34393C2.75896 1.34393 2.86773 1.38631 2.87192 1.55156C2.8761 2.37782 2.8761 3.20409 2.8761 4.03035C2.8761 4.05154 2.88029 4.07696 2.86774 4.09391C2.71293 4.29306 2.49955 4.18713 2.3071 4.1956C2.16903 4.20408 2.13974 4.10662 2.14393 3.98374C2.14811 3.39053 2.14393 2.79731 2.14393 2.2041C2.14393 2.12783 2.14393 2.05156 2.14393 1.96257C1.81758 1.96257 1.50798 1.96257 1.18164 1.96257C1.17745 2.03884 1.17327 2.11511 1.17327 2.18715C1.16909 2.78036 1.1649 3.37358 1.17327 3.96679C1.17327 4.12781 1.1147 4.19136 0.955709 4.20408C0.457829 4.24221 0.432726 4.22526 0.432726 3.72951C0.432726 3.14477 0.432726 2.56002 0.432726 1.97952C0.294659 1.94986 0.152409 1.94986 0.0519961 1.8863C-0.00239407 1.85241 0.00179183 1.7041 0.00179183 1.61088C-0.00657589 1.37783 -0.00239406 1.37783 0.407624 1.31851Z" transform="translate(44.7607 26.7319)" fill="#A1A2A4"/>
<path d="M1.78714 2.94999C1.96287 3.41608 1.83735 3.61523 1.37294 3.63218C0.73281 3.65337 0.477592 3.42032 0.439937 2.77626C0.423202 2.53897 0.43157 2.29745 0.427386 2.05593C0.427386 1.82288 0.427386 1.59407 0.427386 1.36525C0.289319 1.33559 0.155436 1.3356 0.0592071 1.27627C0.0090008 1.24238 0.00481592 1.11102 0.000632061 1.02204C-0.0035518 0.780516 0.000632581 0.780516 0.427386 0.691534C0.427386 0.534756 0.43157 0.373742 0.427386 0.212726C0.423202 0.0898461 0.477594 0.0262875 0.598926 0.0220502C0.611478 0.0220502 0.628213 0.0178114 0.640765 0.0178114C1.13028 -0.0330355 1.16375 -0.00337428 1.16375 0.492383C1.16375 0.560179 1.16375 0.627974 1.16375 0.729668C1.66581 0.729668 2.14277 0.729668 2.61973 0.729668C3.07995 0.729668 3.07995 0.72967 3.07995 1.2C3.07995 1.91186 3.07577 2.62372 3.08414 3.33981C3.08832 3.52625 3.01301 3.58557 2.84147 3.59405C2.35196 3.61947 2.34359 3.61523 2.34359 3.11524C2.34359 2.5305 2.34359 1.94576 2.34359 1.34831C1.94194 1.34831 1.5654 1.34831 1.16793 1.34831C1.16793 1.81017 1.15956 2.26779 1.17211 2.72117C1.18048 2.94151 1.33528 3.04321 1.54866 3.00931C1.62815 3.00083 1.69928 2.97541 1.78714 2.94999Z" transform="translate(41.2139 27.3462)" fill="#A1A2A4"/>
<path d="M1.75834 3.03884C1.92152 2.50919 2.08887 1.98377 2.25204 1.45411C2.37756 1.05157 2.51144 0.649034 2.6244 0.242259C2.67461 0.0685318 2.76665 0.00921141 2.93819 0.00497416C3.45699 -0.0119748 3.46536 -0.00350084 3.30637 0.483782C2.95911 1.52614 2.61185 2.56851 2.27296 3.61087C2.2102 3.80578 2.10979 3.87358 1.91315 3.87781C1.23118 3.89476 1.23118 3.899 1.01362 3.2507C0.695644 2.29732 0.377671 1.3397 0.0638817 0.382087C-0.0532664 0.0303961 -0.0323478 0.00497261 0.32328 0.000735366C0.762586 -0.00350188 0.762586 -0.00350084 0.89647 0.420224C1.1726 1.28886 1.44455 2.16173 1.72069 3.03037C1.73324 3.03884 1.74579 3.03884 1.75834 3.03884Z" transform="translate(18.333 27.0581)" fill="#A1A2A4"/>
<path d="M0.778198 0.614587C0.778198 0.936618 0.778198 1.23323 0.778198 1.55949C1.11709 1.55949 1.44343 1.55949 1.76977 1.55949C2.00407 1.55949 2.0208 1.58068 2.0208 1.8561C2.0208 2.12305 1.9957 2.14847 1.76559 2.15271C1.4518 2.15695 1.13801 2.15694 0.824221 2.16118C0.811669 2.16118 0.799117 2.17389 0.765646 2.19084C0.765646 2.49592 0.757279 2.80948 0.774014 3.12728C0.774014 3.16965 0.882794 3.24168 0.941368 3.24168C1.297 3.25439 1.65262 3.25863 2.00825 3.24592C2.23836 3.23744 2.25092 3.37304 2.25092 3.54252C2.25092 3.80947 2.22163 3.85184 2.00407 3.85184C1.43925 3.85184 0.874426 3.85184 0.309605 3.85184C0.0627576 3.85184 0.00418386 3.78828 0 3.53829C0 2.46626 0 1.39424 0 0.322219C0 0.067984 0.0585735 0.00866255 0.305421 0.0044253C0.870242 0.000188059 1.43506 0.008661 1.99988 0.000186507C2.16724 -0.00405074 2.23 0.0637457 2.22581 0.220524C2.22581 0.271371 2.22163 0.31798 2.22581 0.368827C2.23837 0.546792 2.16306 0.623062 1.98315 0.614587C1.66099 0.606113 1.34302 0.614589 1.02086 0.618826C0.945552 0.614589 0.870243 0.614587 0.778198 0.614587Z" transform="translate(15.7314 27.0801)" fill="#A1A2A4"/>
<path d="M1.34393 0C1.57822 0.0593214 1.8167 0.101694 2.04681 0.177965C2.24764 0.245761 2.36479 0.67796 2.23091 0.843213C2.20999 0.868636 2.12213 0.860161 2.07192 0.847449C1.85436 0.78389 1.64098 0.677959 1.41924 0.648298C1.12218 0.605926 0.92554 0.733044 0.875333 0.927958C0.812576 1.15253 0.908805 1.33897 1.18494 1.48304C1.39832 1.59744 1.62425 1.69914 1.84181 1.8093C2.26856 2.02117 2.51541 2.35167 2.4903 2.84743C2.4652 3.39403 2.1807 3.75844 1.66608 3.91945C1.18494 4.07199 0.703796 4.05081 0.243572 3.822C0.0385625 3.7203 -0.0744017 3.33047 0.055298 3.14827C0.0804011 3.11437 0.189181 3.11438 0.243572 3.13556C0.461132 3.20759 0.666141 3.32624 0.883702 3.37285C1.04687 3.40675 1.23515 3.38556 1.39413 3.33048C1.73721 3.21183 1.80415 2.80506 1.52383 2.57624C1.39413 2.47031 1.23933 2.40676 1.08871 2.32625C0.954828 2.25422 0.812578 2.19489 0.678694 2.11862C0.210102 1.85591 0.00927449 1.43219 0.101319 0.919483C0.184997 0.466097 0.54481 0.135592 1.04687 0.0635587C1.1431 0.0508469 1.23933 0.0466107 1.33974 0.0381362C1.33556 0.0211873 1.33974 0.00847449 1.34393 0Z" transform="translate(23.3535 26.9824)" fill="#A1A2A4"/>
<path d="M2.23448 0.867723C2.08805 0.799927 1.98763 0.736367 1.87885 0.702469C1.69476 0.651622 1.50231 0.600777 1.31403 0.588066C1.11321 0.575354 0.941668 0.660098 0.87891 0.876198C0.82452 1.07111 0.904014 1.24484 1.10484 1.37619C1.20525 1.43975 1.31403 1.4906 1.41863 1.54145C1.54414 1.605 1.66966 1.66009 1.79518 1.72365C2.37673 2.03297 2.57337 2.41432 2.46459 3.00753C2.37673 3.49058 1.95835 3.85498 1.39353 3.93125C1.00861 3.9821 0.627878 3.95667 0.27225 3.78295C0.046322 3.67278 -0.0750094 3.31685 0.0505064 3.10075C0.0714257 3.06685 0.192757 3.06262 0.251331 3.07956C0.468892 3.1516 0.673902 3.266 0.895646 3.31261C1.05882 3.34651 1.24709 3.32109 1.40608 3.266C1.74079 3.14736 1.80354 2.74906 1.53159 2.52025C1.42281 2.42703 1.28474 2.36347 1.15923 2.29144C1.00443 2.21093 0.845439 2.14313 0.690636 2.05839C0.222044 1.79992 0.0212199 1.39738 0.100713 0.884673C0.171839 0.42705 0.493997 0.0753589 0.99606 0.0160375C1.2973 -0.0220977 1.61945 0.0117987 1.92069 0.0753573C2.25958 0.147391 2.29306 0.236374 2.26795 0.588066C2.26377 0.67281 2.25122 0.74908 2.23448 0.867723Z" transform="translate(26.1943 27.0347)" fill="#A1A2A4"/>
<path d="M2.70557 1.02252C2.60516 0.958956 2.52148 0.903871 2.43362 0.848786C1.70563 0.416587 0.990186 0.75133 0.873038 1.59878C0.835383 1.87844 0.839566 2.17504 0.877221 2.45894C0.97345 3.1369 1.51317 3.47588 2.16167 3.27673C2.31229 3.23012 2.45454 3.14537 2.5926 3.0691C2.7223 2.99707 2.78088 3.02249 2.79761 3.17503C2.84364 3.59028 2.77251 3.73011 2.38341 3.85723C1.72654 4.06909 1.0906 4.05638 0.538329 3.5691C0.266378 3.32758 0.12831 3.00554 0.0613681 2.64962C-0.0306768 2.1581 -0.026493 1.66657 0.124126 1.18777C0.450467 0.16659 1.61777 -0.303743 2.55495 0.208964C2.81435 0.35303 2.88129 0.666586 2.70557 1.02252Z" transform="translate(33.0156 27.0024)" fill="#A1A2A4"/>
<path d="M0 0C0.338893 0 0.656865 0 0.995758 0C0.995758 0.991515 0.995758 1.97456 0.995758 2.98726C1.48945 2.98726 1.95805 2.98726 2.44338 2.98726C2.44338 3.27115 2.44338 3.52539 2.44338 3.80505C1.63171 3.80505 0.82422 3.80505 0 3.80505C0 2.53811 0 1.27965 0 0Z" transform="translate(27.9902 15.9785)" fill="#8C8D8F"/>
<path d="M0.772272 1.71184C0.747169 2.13557 0.977279 2.4237 1.3873 2.41522C1.67598 2.41099 1.96467 2.34743 2.24499 2.2754C2.40398 2.23726 2.44581 2.27963 2.45836 2.4237C2.48347 2.71607 2.43326 2.80081 2.15295 2.88132C1.73874 2.99573 1.31617 3.02115 0.893605 2.91946C0.537977 2.83471 0.270209 2.62709 0.144693 2.27963C-0.0728675 1.66523 -0.0645028 1.05507 0.303677 0.499989C0.592363 0.0593152 1.19902 -0.1017 1.78895 0.0635529C2.24917 0.194908 2.52112 0.567784 2.56296 1.1271C2.56714 1.16947 2.57133 1.21185 2.57551 1.25422C2.60062 1.61015 2.53368 1.68218 2.1906 1.68642C1.73038 1.69065 1.27015 1.69489 0.809928 1.69489C0.797376 1.69489 0.784824 1.70337 0.772272 1.71184ZM1.83916 1.18219C1.88518 0.79236 1.70945 0.555074 1.37056 0.525414C1.02748 0.495753 0.789008 0.754225 0.772272 1.18219C1.1279 1.18219 1.48353 1.18219 1.83916 1.18219Z" transform="translate(55.6436 28.0083)" fill="#A1A2A4"/>
<path d="M2.40461 2.28825C2.53013 2.64418 2.459 2.80519 2.10337 2.89841C1.72264 3.00011 1.33354 3.01706 0.944445 2.94079C0.450749 2.84333 0.153696 2.53401 0.0616511 2.04249C-0.055497 1.42809 -0.0429469 0.826402 0.434013 0.343356C0.802193 -0.025284 1.50508 -0.105792 1.97786 0.144205C2.40461 0.368779 2.63891 0.915383 2.5636 1.47046C2.5385 1.6569 2.41716 1.6908 2.26654 1.6908C1.83561 1.6908 1.40467 1.69504 0.969547 1.69504C0.902605 1.69504 0.835664 1.69504 0.768722 1.69504C0.747803 2.16114 0.973732 2.43232 1.40467 2.42384C1.73101 2.41113 2.05735 2.33486 2.40461 2.28825ZM1.84397 1.19081C1.86071 0.745895 1.67244 0.534033 1.30844 0.529796C0.9821 0.525559 0.718515 0.864537 0.781273 1.19081C1.13272 1.19081 1.47998 1.19081 1.84397 1.19081Z" transform="translate(36.1865 28.0034)" fill="#A1A2A4"/>
<path d="M1.78331 2.61539C1.46533 2.92047 1.14317 3.01369 0.779179 2.97556C0.339874 2.92895 0.0470036 2.64929 0.005165 2.22556C-0.0366736 1.78913 0.176704 1.44591 0.607642 1.33998C0.900512 1.26794 1.2143 1.26371 1.51554 1.22981C1.55738 1.22557 1.59922 1.22557 1.63687 1.22134C1.74565 0.784899 1.54483 0.517954 1.11808 0.568801C0.875412 0.598462 0.632744 0.69168 0.402632 0.7849C0.231093 0.852696 0.17252 0.806085 0.147417 0.640832C0.113946 0.395072 0.172519 0.272192 0.402632 0.174736C0.833569 -0.0032287 1.27706 -0.0498379 1.7331 0.0560932C2.11383 0.145075 2.34394 0.399312 2.36486 0.823036C2.38997 1.47133 2.3816 2.11963 2.37323 2.77217C2.37323 2.82302 2.28537 2.88657 2.2268 2.92471C2.18914 2.94589 2.13057 2.92895 2.08455 2.93318C1.90464 2.9459 1.74147 2.93318 1.78331 2.61539ZM1.64942 1.67048C1.41094 1.70015 1.18083 1.70862 0.96327 1.75947C0.783364 1.80184 0.695502 1.95438 0.716421 2.14929C0.741524 2.33997 0.871227 2.45014 1.08042 2.46285C1.4737 2.48403 1.70381 2.18743 1.64942 1.67048Z" transform="translate(50.7119 28.0073)" fill="#A1A2A4"/>
<path d="M0.782382 3.24256C1.16311 3.24256 1.51037 3.25104 1.85763 3.23833C2.02499 3.23409 2.0752 3.30612 2.08775 3.45866C2.11703 3.81883 2.07101 3.87391 1.71538 3.87391C1.24679 3.87391 0.782382 3.87391 0.313789 3.87391C0.0711256 3.87391 0.00418284 3.81035 0.00418284 3.56035C0.00418284 2.45867 0.00418386 1.35699 0 0.255304C0 0.0900511 0.058573 0.0307307 0.213376 0.018019C0.744726 -0.0328279 0.774014 -0.00740496 0.774014 0.518013C0.774014 1.3358 0.778197 2.15783 0.778197 2.97562C0.782381 3.05612 0.782382 3.13239 0.782382 3.24256Z" transform="translate(29.2871 27.0537)" fill="#A1A2A4"/>
<path d="M1.16541 1.3402C1.16541 1.78511 1.15704 2.19612 1.16959 2.6029C1.17796 2.98425 1.33695 3.08594 1.70094 2.98001C1.72605 2.97154 1.75533 2.9673 1.77625 2.95883C1.98126 3.33594 1.84319 3.60713 1.44154 3.63255C1.36623 3.63679 1.28674 3.63679 1.21143 3.63255C0.742835 3.61984 0.470887 3.36137 0.449967 2.88679C0.433232 2.46307 0.441598 2.03935 0.437414 1.61986C0.437414 1.53511 0.437414 1.45461 0.437414 1.3741C0.0148439 1.2724 -0.0102551 1.25122 0.00229645 0.988507C0.0106642 0.763933 0.0148439 0.763934 0.437414 0.700375C0.437414 0.547834 0.445781 0.391057 0.437414 0.230042C0.429046 0.0817383 0.495992 0.0351286 0.629875 0.0181796C1.12357 -0.0326674 1.15704 -0.00724547 1.16122 0.501224C1.16122 0.564783 1.16541 0.628342 1.16959 0.730036C1.32439 0.730036 1.47501 0.734274 1.62563 0.730036C1.7637 0.721562 1.82646 0.776646 1.84319 0.920712C1.88503 1.25545 1.82646 1.33596 1.49593 1.3402C1.3997 1.3402 1.29511 1.3402 1.16541 1.3402Z" transform="translate(53.4805 27.3418)" fill="#A1A2A4"/>
<path d="M2.06638 2.05474C2.25047 2.71575 2.04547 2.85982 1.47646 2.95304C0.597851 3.09711 0.0413997 2.60135 0.00374499 1.69458C-0.0129905 1.30051 0.0204774 0.914926 0.225486 0.571709C0.551828 0.0166298 1.41789 -0.174046 1.96179 0.177646C2.10822 0.270865 2.18772 0.690353 2.06638 0.808996C2.0371 0.838657 1.94087 0.825944 1.88648 0.804757C1.74423 0.749673 1.61453 0.656454 1.4681 0.622556C1.15431 0.546286 0.869801 0.703065 0.811227 1.02086C0.761021 1.30052 0.748473 1.59712 0.794495 1.87678C0.865621 2.31322 1.25472 2.48694 1.65219 2.29627C1.79444 2.22423 1.91995 2.13949 2.06638 2.05474Z" transform="translate(48.2324 28.0127)" fill="#A1A2A4"/>
<path d="M0.635947 0.468289C0.73636 0.362358 0.803301 0.281849 0.878611 0.209815C0.924633 0.167443 0.970655 0.125071 1.02505 0.0911731C1.1924 -0.014758 1.57313 -0.0401809 1.61079 0.0784619C1.66936 0.269138 1.64844 0.485237 1.64844 0.692862C1.64844 0.709811 1.54803 0.747946 1.49782 0.739471C1.06688 0.658963 0.740544 0.934385 0.740544 1.38353C0.740544 1.81149 0.732175 2.24369 0.744727 2.67166C0.74891 2.84962 0.690337 2.92589 0.510431 2.93436C0.00836823 2.95979 0 2.95979 0 2.44708C0 1.74793 0 1.05303 0 0.353883C0 0.0784619 0.0251032 0.0530379 0.29287 0.0488007C0.581557 0.0445635 0.619211 0.0742237 0.627579 0.336933C0.627579 0.366594 0.627579 0.396256 0.635947 0.468289Z" transform="translate(39.3789 28.002)" fill="#A1A2A4"/>
<path d="M2.46011 3.81052C2.24673 3.88255 2.12958 3.81899 2.03335 3.63679C1.79069 3.19188 1.52292 2.76392 1.27608 2.32325C1.20914 2.20037 1.12964 2.15799 0.995758 2.16223C0.753094 2.17494 0.510431 2.16647 0.251032 2.16647C0.251032 2.72578 0.251032 3.26391 0.251032 3.81899C0.158987 3.81899 0.087861 3.81899 0 3.81899C0 2.55629 0 1.29783 0 0.00123487C0.552269 0.0308956 1.10872 -0.0707975 1.64844 0.119879C2.01662 0.246996 2.21326 0.522417 2.25092 0.903769C2.28857 1.32326 2.19234 1.6919 1.81161 1.92918C1.70701 1.99698 1.58987 2.03935 1.46017 2.10291C1.79488 2.6707 2.12122 3.23002 2.46011 3.81052ZM0.263583 0.238521C0.263583 0.835972 0.263583 1.38258 0.263583 1.95884C0.615027 1.94189 0.949736 1.9546 1.27608 1.908C1.71957 1.84867 1.96223 1.54783 1.96641 1.11563C1.97478 0.628348 1.78651 0.374112 1.30536 0.297842C0.970656 0.246995 0.619211 0.25547 0.263583 0.238521Z" transform="translate(37.4033 15.9644)" fill="#8C8D8F"/>
<path d="M0.276134 0.224573C0.276134 0.720331 0.276134 1.18219 0.276134 1.66947C0.832587 1.66947 1.38067 1.66947 1.94131 1.66947C1.9455 1.75846 1.94968 1.82625 1.95386 1.92371C1.38904 1.92371 0.836771 1.92371 0.276134 1.92371C0.276134 2.47455 0.276134 2.99997 0.276134 3.55081C0.870242 3.55081 1.4518 3.55081 2.05009 3.55081C2.05846 3.63979 2.06264 3.70335 2.06683 3.79233C1.37231 3.79233 0.694521 3.79233 0 3.79233C0 2.53811 0 1.27541 0 0C0.673601 0 1.35139 0 2.04591 0C2.04591 0.0677959 2.04591 0.139829 2.04591 0.228811C1.46435 0.224574 0.882793 0.224573 0.276134 0.224573Z" transform="translate(57.8799 15.9956)" fill="#8C8D8F"/>
<path d="M3.12952 3.80229C2.94543 3.87008 2.83247 3.82348 2.76553 3.62009C2.65257 3.28534 2.51031 2.96331 2.39317 2.63281C2.34714 2.50569 2.2802 2.46332 2.1505 2.46756C1.7614 2.47603 1.36812 2.48027 0.979019 2.46756C0.832584 2.46332 0.769827 2.52264 0.723805 2.654C0.606657 2.97603 0.464408 3.29382 0.355628 3.62009C0.29287 3.80229 0.205009 3.87432 0 3.80653C0.0125516 3.75568 0.0209193 3.70483 0.0418386 3.65822C0.502063 2.48874 0.96647 1.31503 1.43088 0.149784C1.45598 0.0862252 1.51037 0.0226665 1.56895 0.00148032C1.59823 -0.0112314 1.69028 0.0608018 1.71119 0.107411C2.18397 1.31926 2.65257 2.53112 3.12116 3.7472C3.12534 3.75992 3.12534 3.7811 3.12952 3.80229ZM1.57731 0.450629C1.3472 1.05232 1.12964 1.62434 0.903713 2.21756C1.36394 2.21756 1.78232 2.21756 2.22999 2.21756C2.01243 1.62434 1.79906 1.05232 1.57731 0.450629Z" transform="translate(51.4111 15.9771)" fill="#8C8D8F"/>
<path d="M2.02917 0C2.02917 0.0805076 2.02917 0.148304 2.02917 0.237286C1.72793 0.237286 1.43507 0.237286 1.14638 0.237286C0.853508 0.237286 0.564823 0.237286 0.255217 0.237286C0.255217 0.716095 0.255217 1.17796 0.255217 1.66948C0.807487 1.66948 1.35976 1.66948 1.92876 1.66948C1.92876 1.76693 1.92876 1.83896 1.92876 1.92795C1.37231 1.92795 0.824221 1.92795 0.2594 1.92795C0.2594 2.47031 0.2594 2.9915 0.2594 3.54657C0.840956 3.54657 1.43088 3.54657 2.02917 3.54657C2.03336 3.64403 2.03754 3.71183 2.04172 3.79657C1.35557 3.79657 0.686153 3.79657 0 3.79657C0 2.53387 0 1.27541 0 0C0.669418 0 1.33884 0 2.02917 0Z" transform="translate(34.4873 15.9873)" fill="#8C8D8F"/>
<path d="M2.79806 0.21403C2.7604 0.294538 2.72693 0.366572 2.70601 0.408944C2.43824 0.349623 2.1914 0.273352 1.93618 0.243692C1.16217 0.163184 0.542955 0.620807 0.363049 1.38775C0.266821 1.803 0.271006 2.21401 0.379786 2.62079C0.576427 3.37502 1.16635 3.75213 2.01149 3.67162C2.2165 3.65044 2.42151 3.6123 2.63907 3.58264C2.69346 3.71823 2.67672 3.83264 2.50519 3.84535C2.1119 3.87077 1.71025 3.93433 1.32534 3.88772C0.756332 3.81569 0.371417 3.45129 0.166408 2.90892C-0.0344177 2.36655 -0.0511532 1.803 0.10365 1.24792C0.308659 0.514876 0.869298 0.0657274 1.62239 0.0106432C2.0868 -0.027492 2.44661 0.0360662 2.79806 0.21403Z" transform="translate(30.9658 15.9214)" fill="#8C8D8F"/>
<path d="M2.81782 0.151395C2.75088 0.291224 2.72159 0.35902 2.70067 0.409867C2.43291 0.350546 2.18606 0.274276 1.93503 0.244615C1.15265 0.164107 0.52925 0.630204 0.353528 1.40562C0.261483 1.80392 0.269853 2.20646 0.366082 2.60052C0.554356 3.36746 1.14846 3.75729 2.00197 3.67678C2.21535 3.6556 2.42454 3.61746 2.63791 3.58356C2.70486 3.75305 2.63791 3.84204 2.47056 3.85475C2.0982 3.87593 1.71747 3.93949 1.35347 3.89288C0.738445 3.81661 0.336794 3.42679 0.140153 2.83781C-0.0313857 2.3251 -0.0439363 1.79545 0.0941311 1.27427C0.315876 0.439528 0.985291 -0.0435181 1.85972 0.00309157C2.16096 0.0158033 2.46638 0.0920737 2.81782 0.151395Z" transform="translate(48.4297 15.9248)" fill="#8C8D8F"/>
<path d="M1.94968 1.84744C1.94968 1.9449 1.94968 2.00846 1.94968 2.0932C1.39322 2.0932 0.83677 2.0932 0.259397 2.0932C0.259397 2.66947 0.259397 3.22454 0.259397 3.80081C0.163169 3.80505 0.0920449 3.80928 0 3.81776C0 2.53811 0 1.27541 0 0C0.677785 0 1.35138 0 2.03754 0C2.04172 0.0762704 2.04591 0.144066 2.05009 0.233048C1.45598 0.233048 0.874427 0.233048 0.271951 0.233048C0.271951 0.779653 0.271951 1.30083 0.271951 1.85168C0.82422 1.84744 1.37649 1.84744 1.94968 1.84744Z" transform="translate(44.6543 15.9873)" fill="#8C8D8F"/>
<path d="M0 0.241523C0 0.144067 0 0.0847449 0 0C0.89953 0 1.79487 0 2.71114 0C2.71532 0.0635587 2.71951 0.135592 2.72369 0.233048C2.30949 0.233048 1.90784 0.233048 1.48527 0.233048C1.48527 1.43219 1.48527 2.61014 1.48527 3.79657C1.38904 3.79657 1.31791 3.79657 1.22587 3.79657C1.22587 2.61014 1.22587 1.43219 1.22587 0.237286C0.811666 0.241523 0.418386 0.241523 0 0.241523Z" transform="translate(54.5908 15.9873)" fill="#8C8D8F"/>
<path d="M0 0.241523C0 0.148304 0 0.0805077 0 0C0.895346 0 1.79069 0 2.69859 0C2.70277 0.0720332 2.70696 0.13983 2.71114 0.228812C2.30531 0.228812 1.91202 0.228812 1.48527 0.228812C1.48527 1.42795 1.48527 2.61014 1.48527 3.80081C1.38067 3.80081 1.30955 3.80081 1.21332 3.80081C1.21332 2.61438 1.21332 1.44066 1.21332 0.241523C0.799117 0.241523 0.405834 0.241523 0 0.241523Z" transform="translate(40.04 15.9873)" fill="#8C8D8F"/>
<path d="M0 0C0.087861 0 0.154801 0 0.238478 0C0.238478 1.27117 0.238478 2.53387 0.238478 3.80928C0.158985 3.80928 0.087861 3.80928 0 3.80928C0 2.53811 0 1.27965 0 0Z" transform="translate(47.3193 15.9785)" fill="#8C8D8F"/>
<path d="M0 0C0.0836772 0 0.150618 0 0.234295 0C0.234295 1.26694 0.234295 2.5254 0.234295 3.80505C0.158986 3.80928 0.0878611 3.81352 0 3.81776C0 2.54235 0 1.27541 0 0Z" transform="translate(43.3203 15.9829)" fill="#8C8D8F"/>
<path d="M0.385043 0.771723C0.0921727 0.767486 -0.00405397 0.665791 0.000129891 0.373421C0.00431375 0.0810514 0.113096 -0.00793022 0.451989 0.000544275C0.753227 0.00901877 0.841086 0.0980004 0.836902 0.394608C0.832718 0.68274 0.719752 0.775961 0.385043 0.771723Z" transform="translate(43.5127 26.8975)" fill="#A1A2A4"/>
<path d="M0.405962 0.76708C0.0963565 0.76708 -0.00405917 0.665384 0.000124688 0.373014C0.00430855 0.0891189 0.108907 -0.00410002 0.431064 0.000137229C0.723934 0.00437447 0.828531 0.10607 0.828531 0.385728C0.824347 0.673861 0.719752 0.771317 0.405962 0.76708Z" transform="translate(46.8633 26.8979)" fill="#A1A2A4"/>
<path d="M7.39807 0.00801958C7.2349 0.626657 6.99224 1.12242 6.36466 1.29614C6.27261 1.32157 6.1722 1.32157 6.07597 1.3258C5.38145 1.33851 4.68275 1.33004 3.98823 1.36394C3.02594 1.41478 2.42346 1.91054 2.26866 2.88511C2.17243 3.49527 2.08457 4.11391 2.05528 4.72831C2.01763 5.49101 2.42346 5.92745 3.18074 5.95287C4.24763 5.99101 5.31033 5.98677 6.37721 5.99948C6.46089 5.99948 6.54038 5.99948 6.62406 5.99948C6.57804 6.59694 6.12618 7.31727 5.28104 7.31303C4.38988 7.30879 3.49453 7.33422 2.60755 7.28761C1.82935 7.24947 1.13065 6.96558 0.570013 6.38931C0.105604 5.9105 -0.0408309 5.31305 0.00937538 4.67746C0.0595817 3.99103 0.134891 3.30036 0.272959 2.62664C0.553277 1.23682 1.45281 0.444455 2.79164 0.16056C3.27279 0.0588661 3.77067 0.0207309 4.26018 0.0122564C5.2141 -0.00892979 6.16802 0.00378208 7.12612 0.00378208C7.20143 0.00801932 7.28092 0.00801958 7.39807 0.00801958Z" transform="translate(4.74316 10.1953)" fill="#A1A2A4"/>
</svg>
