<svg width="14" height="16" viewBox="0 0 14 16" fill="none" xmlns="http://www.w3.org/2000/svg">
<path fill-rule="evenodd" clip-rule="evenodd" d="M7.01367 8.24951C9.25586 8.24951 11.0742 6.40283 11.0742 4.12476C11.0742 1.84668 9.25586 0 7.01367 0C4.77148 0 2.95312 1.84668 2.95312 4.12476C2.95312 6.40283 4.77148 8.24951 7.01367 8.24951ZM0 11.593C0.378906 10.7285 1.66699 8.92456 3.7832 8.62451C4.12207 8.56201 4.36816 8.68701 4.67578 8.90576C4.9834 9.12451 5.99805 9.62451 7.16699 9.59326C8.33594 9.56201 9.25879 9.03076 9.41309 8.90576L9.45703 8.86792C9.60547 8.73804 9.82324 8.54834 10.5205 8.71826C11.2891 8.90576 13.0732 9.59326 13.9961 11.468C14.0205 11.843 13.9238 12.1035 13.873 12.1868C13.124 13.4785 10.7354 16.0491 7.16699 15.9993C2.86523 15.939 0.90918 13.2627 0.197266 12.2876L0.123047 12.1868C0.0556641 11.981 0.0253906 11.9165 0.0117188 11.8484C0 11.7925 0 11.7341 0 11.593Z" fill="url(#paint0_linear)"/>
<defs>
<linearGradient id="paint0_linear" x2="1" gradientUnits="userSpaceOnUse" gradientTransform="translate(14) scale(14 16) rotate(90)">
<stop stop-color="#A5A5A5"/>
<stop offset="1" stop-color="#A5A5A5"/>
</linearGradient>
</defs>
</svg>
