<svg width="14" height="12" viewBox="0 0 14 12" fill="none" xmlns="http://www.w3.org/2000/svg">
<path d="M13.9761 6.81022C13.7285 4.36232 11.4798 2.57182 8.96856 2.57182H5.24989V0.429054C5.24989 0.26449 5.15364 0.114496 5.00227 0.0424988C4.85002 -0.0286411 4.67065 -0.00978476 4.53941 0.0939252L0.164497 3.52235C0.0603737 3.60464 0 3.7272 0 3.85748C0 3.98776 0.0603738 4.11033 0.163622 4.19261L4.53853 7.62104C4.61815 7.68275 4.71528 7.71446 4.8124 7.71446C4.87715 7.71446 4.9419 7.70075 5.00227 7.67247C5.15364 7.60047 5.24989 7.45048 5.24989 7.28591V5.14314H9.06131C10.2058 5.14314 11.2488 5.94882 11.3634 7.06392C11.4955 8.34615 10.4692 9.42868 9.18731 9.42868H5.68738C5.44589 9.42868 5.24989 9.62067 5.24989 9.85723V11.5714C5.24989 11.808 5.44589 12 5.68738 12H9.18731C11.9986 12 14.2587 9.61981 13.9761 6.81022Z" fill="#646464"/>
</svg>
