<svg width="14" height="12" viewBox="0 0 14 12" fill="none" xmlns="http://www.w3.org/2000/svg">
<path d="M0.0239134 6.81022C0.271534 4.36232 2.52024 2.57182 5.03144 2.57182H8.75011V0.429054C8.75011 0.26449 8.84636 0.114496 8.99773 0.0424988C9.14998 -0.0286411 9.32935 -0.00978476 9.46059 0.0939252L13.8355 3.52235C13.9396 3.60464 14 3.7272 14 3.85748C14 3.98776 13.9396 4.11033 13.8364 4.19261L9.46147 7.62104C9.38185 7.68275 9.28472 7.71446 9.1876 7.71446C9.12285 7.71446 9.0581 7.70075 8.99773 7.67247C8.84636 7.60047 8.75011 7.45048 8.75011 7.28591V5.14314H4.93869C3.79421 5.14314 2.75123 5.94882 2.63661 7.06392C2.50449 8.34615 3.53084 9.42868 4.81269 9.42868H8.31262C8.55411 9.42868 8.75011 9.62067 8.75011 9.85723V11.5714C8.75011 11.808 8.55411 12 8.31262 12H4.81269C2.00137 12 -0.258705 9.61981 0.0239134 6.81022Z" fill="#646464"/>
</svg>
