<svg width="14" height="16" viewBox="0 0 14 16" fill="none" xmlns="http://www.w3.org/2000/svg">
<rect width="14" height="16" fill="black" fill-opacity="0"/>
<path d="M9.86223 5.51688L8.68653 5.47095L8.43164 12.886L9.60734 12.9317L9.86223 5.51688Z" fill="#5C68C9" fill-opacity="0.7"/>
<path d="M7.58857 5.4939H6.41211V12.9089H7.58857V5.4939Z" fill="#5C68C9" fill-opacity="0.7"/>
<path d="M5.56731 12.886L5.31242 5.47095L4.13672 5.51692L4.39164 12.9319L5.56731 12.886Z" fill="#5C68C9" fill-opacity="0.7"/>
<path d="M0 2.40234V3.65557H1.22589L2.19841 15.4284C2.22508 15.7519 2.47941 16 2.78429 16H11.1959C11.5008 16 11.7553 15.7517 11.7818 15.4281L12.7543 3.65557H14V2.40234H0ZM10.6571 14.7468H3.32295L2.40687 3.65557H11.5734L10.6571 14.7468Z" fill="#5C68C9" fill-opacity="0.7"/>
<path d="M8.92021 0H5.07706C4.53647 0 4.09668 0.468493 4.09668 1.04436V3.02867H5.27314V1.25323H8.72413V3.02867H9.90059V1.04436C9.90059 0.468493 9.4608 0 8.92021 0Z" fill="#5C68C9" fill-opacity="0.7"/>
</svg>
