<svg width="14" height="16" viewBox="0 0 14 16" fill="none" xmlns="http://www.w3.org/2000/svg">
<path d="M1.43059 0.0459375L0.254894 0L0 7.41512L1.1757 7.46087L1.43059 0.0459375Z" transform="translate(8.43164 5.47046)" fill="#D8847D"/>
<path d="M1.17646 0H0V7.41516H1.17646V0Z" transform="translate(6.41211 5.49341)" fill="#D8847D"/>
<path d="M1.43059 7.41516L1.1757 0L0 0.045969L0.254923 7.46109L1.43059 7.41516Z" transform="translate(4.1377 5.47021)" fill="#D8847D"/>
<path d="M0 0V1.25325H1.22589L2.19841 13.0262C2.22508 13.3497 2.47941 13.5979 2.78429 13.5979H11.1959C11.5008 13.5979 11.7553 13.3496 11.7818 13.026L12.7543 1.25325H14V0H0ZM10.6571 12.3447H3.32295L2.40687 1.25325H11.5734L10.6571 12.3447Z" transform="translate(0 2.4021)" fill="#D8847D"/>
<path d="M4.82353 0H0.980383C0.439794 0 0 0.4685 0 1.04437V3.02872H1.17646V1.25325H4.62746V3.02872H5.80392V1.04437C5.80392 0.4685 5.36412 0 4.82353 0Z" transform="translate(4.09766)" fill="#D8847D"/>
</svg>
