<svg width="38" height="37" viewBox="0 0 38 37" fill="none" xmlns="http://www.w3.org/2000/svg">
<path d="M0.691487 1.38834C1.07339 1.38834 1.38297 1.07755 1.38297 0.694171C1.38297 0.310791 1.07339 0 0.691487 0C0.309589 0 0 0.310791 0 0.694171C0 1.07755 0.309589 1.38834 0.691487 1.38834Z" transform="translate(30.4399 16.7642)" fill="url(#paint0_linear)"/>
<path d="M0.691487 1.38834C1.07339 1.38834 1.38297 1.07755 1.38297 0.694171C1.38297 0.310791 1.07339 0 0.691487 0C0.309589 0 0 0.310791 0 0.694171C0 1.07755 0.309589 1.38834 0.691487 1.38834Z" transform="translate(5.54639 16.7642)" fill="url(#paint1_linear)"/>
<path d="M0.691487 1.38834C1.07339 1.38834 1.38297 1.07755 1.38297 0.694171C1.38297 0.310791 1.07339 0 0.691487 0C0.309589 0 0 0.310791 0 0.694171C0 1.07755 0.309589 1.38834 0.691487 1.38834Z" transform="translate(7.62109 18.8467)" fill="url(#paint2_linear)"/>
<path d="M0.691487 1.38834C1.07339 1.38834 1.38297 1.07755 1.38297 0.694171C1.38297 0.310791 1.07339 0 0.691487 0C0.309589 0 0 0.310791 0 0.694171C0 1.07755 0.309589 1.38834 0.691487 1.38834Z" transform="translate(11.77 18.8467)" fill="url(#paint3_linear)"/>
<path d="M0.691487 1.38834C1.07339 1.38834 1.38297 1.07755 1.38297 0.694171C1.38297 0.310791 1.07339 0 0.691487 0C0.309589 0 0 0.310791 0 0.694171C0 1.07755 0.309589 1.38834 0.691487 1.38834Z" transform="translate(9.69531 20.9292)" fill="url(#paint4_linear)"/>
<path d="M0.691487 1.38834C1.07339 1.38834 1.38297 1.07755 1.38297 0.694171C1.38297 0.310791 1.07339 0 0.691487 0C0.309589 0 0 0.310791 0 0.694171C0 1.07755 0.309589 1.38834 0.691487 1.38834Z" transform="translate(13.8442 20.9292)" fill="url(#paint5_linear)"/>
<path d="M0.691487 1.38834C1.07339 1.38834 1.38297 1.07755 1.38297 0.694171C1.38297 0.310791 1.07339 0 0.691487 0C0.309589 0 0 0.310791 0 0.694171C0 1.07755 0.309589 1.38834 0.691487 1.38834Z" transform="translate(15.9189 23.0117)" fill="url(#paint6_linear)"/>
<path d="M0.691487 1.38834C1.07339 1.38834 1.38297 1.07755 1.38297 0.694171C1.38297 0.310791 1.07339 0 0.691487 0C0.309589 0 0 0.310791 0 0.694171C0 1.07755 0.309589 1.38834 0.691487 1.38834Z" transform="translate(20.0679 23.0117)" fill="url(#paint7_linear)"/>
<path d="M0.691487 1.38834C1.07339 1.38834 1.38297 1.07755 1.38297 0.694171C1.38297 0.310791 1.07339 0 0.691487 0C0.309589 0 0 0.310791 0 0.694171C0 1.07755 0.309589 1.38834 0.691487 1.38834Z" transform="translate(22.1421 20.9292)" fill="url(#paint8_linear)"/>
<path d="M0.691487 1.38834C1.07339 1.38834 1.38297 1.07755 1.38297 0.694171C1.38297 0.310791 1.07339 0 0.691487 0C0.309589 0 0 0.310791 0 0.694171C0 1.07755 0.309589 1.38834 0.691487 1.38834Z" transform="translate(17.9932 25.0942)" fill="url(#paint9_linear)"/>
<path d="M0.691487 1.38834C1.07339 1.38834 1.38297 1.07755 1.38297 0.694171C1.38297 0.310791 1.07339 0 0.691487 0C0.309589 0 0 0.310791 0 0.694171C0 1.07755 0.309589 1.38834 0.691487 1.38834Z" transform="translate(24.2168 18.8467)" fill="url(#paint10_linear)"/>
<path d="M0.691487 1.38834C1.07339 1.38834 1.38297 1.07755 1.38297 0.694171C1.38297 0.310791 1.07339 0 0.691487 0C0.309589 0 0 0.310791 0 0.694171C0 1.07755 0.309589 1.38834 0.691487 1.38834Z" transform="translate(28.3657 18.8467)" fill="url(#paint11_linear)"/>
<path d="M0.691487 1.38834C1.07339 1.38834 1.38297 1.07755 1.38297 0.694171C1.38297 0.310791 1.07339 0 0.691487 0C0.309589 0 0 0.310791 0 0.694171C0 1.07755 0.309589 1.38834 0.691487 1.38834Z" transform="translate(26.291 20.9292)" fill="url(#paint12_linear)"/>
<path d="M31.5035 22.1926L37.9993 18.467L31.3223 14.6609L37.9993 10.8311L19 0L0 10.8311L6.677 14.6609L0 18.467L6.677 22.2968L0 26.1029L19 37L38 26.1029L31.323 22.2968L31.3721 22.2683C31.4205 22.2503 31.4606 22.2211 31.5035 22.1926ZM19 1.5959L35.2057 10.8346L29.9248 13.864L19.0007 20.1296L2.7943 10.8346L19 1.5959ZM7.69556 15.6765C7.80758 15.9076 8.03923 16.0701 8.31237 16.0701C8.49907 16.0701 8.66641 15.9944 8.79088 15.8736L10.355 16.7705C9.98854 16.7878 9.69534 17.0863 9.69534 17.4584C9.69534 17.8416 10.0051 18.1526 10.3868 18.1526C10.7685 18.1526 11.0783 17.8416 11.0783 17.4584C11.0783 17.3383 11.0403 17.2314 10.987 17.1328L18.1301 21.2298C18.0499 21.343 17.9932 21.4742 17.9932 21.6234C17.9932 22.0066 18.303 22.3176 18.6847 22.3176C19.0664 22.3176 19.3762 22.0066 19.3762 21.6234C19.3762 21.588 19.3616 21.5582 19.3561 21.5242L26.3069 17.5375C26.3477 17.8818 26.6285 18.1519 26.9825 18.1519C27.3642 18.1519 27.674 17.8409 27.674 17.4577C27.674 17.2321 27.5599 17.0405 27.3933 16.9142L28.9159 16.0409C28.963 16.0513 29.0072 16.0694 29.057 16.0694C29.364 16.0694 29.615 15.8653 29.7056 15.5876L29.9269 15.4606L35.2057 18.4698L33.8345 19.2563C33.7259 19.0154 33.4867 18.846 33.2066 18.846C32.8249 18.846 32.5151 19.157 32.5151 19.5402C32.5151 19.6902 32.5725 19.8214 32.6527 19.9345L29.9248 21.4992L25.5076 24.0329C25.5615 23.9343 25.6002 23.826 25.6002 23.7052C25.6002 23.3221 25.2905 23.0111 24.9088 23.0111C24.5271 23.0111 24.2173 23.3221 24.2173 23.7052C24.2173 24.078 24.5118 24.3765 24.879 24.3932L23.3142 25.2907C23.1897 25.1699 23.0217 25.0936 22.8343 25.0936C22.4526 25.0936 22.1428 25.4046 22.1428 25.7878C22.1428 25.8433 22.1622 25.8926 22.1746 25.9446L19.0007 27.7648L15.1858 25.5767C15.0959 25.2984 14.8442 25.0936 14.5364 25.0936C14.486 25.0936 14.441 25.1123 14.394 25.1227L12.872 24.2502C13.0387 24.1231 13.1535 23.9322 13.1535 23.7059C13.1535 23.3228 12.8437 23.0118 12.462 23.0118C12.1079 23.0118 11.8265 23.2832 11.7864 23.6275L4.83419 19.6409C4.83903 19.6069 4.85424 19.5763 4.85424 19.5409C4.85424 19.1577 4.54446 18.8467 4.16275 18.8467C3.99749 18.8467 3.85228 18.9127 3.73334 19.0099L2.79361 18.4712L7.69556 15.6765ZM35.205 26.1064L18.9993 35.4013L2.7943 26.1064L8.07242 23.0971L19 29.3641L29.9269 23.0971L35.205 26.1064Z" fill="url(#paint13_linear)"/>
<defs>
<linearGradient id="paint0_linear" x2="1" gradientUnits="userSpaceOnUse" gradientTransform="translate(1.38297) scale(1.38297 1.38834) rotate(90)">
<stop stop-color="#4BB9F9"/>
<stop offset="1" stop-color="#53E1E3"/>
</linearGradient>
<linearGradient id="paint1_linear" x2="1" gradientUnits="userSpaceOnUse" gradientTransform="translate(1.38297) scale(1.38297 1.38834) rotate(90)">
<stop stop-color="#4BB9F9"/>
<stop offset="1" stop-color="#53E1E3"/>
</linearGradient>
<linearGradient id="paint2_linear" x2="1" gradientUnits="userSpaceOnUse" gradientTransform="translate(1.38297) scale(1.38297 1.38834) rotate(90)">
<stop stop-color="#4BB9F9"/>
<stop offset="1" stop-color="#53E1E3"/>
</linearGradient>
<linearGradient id="paint3_linear" x2="1" gradientUnits="userSpaceOnUse" gradientTransform="translate(1.38297) scale(1.38297 1.38834) rotate(90)">
<stop stop-color="#4BB9F9"/>
<stop offset="1" stop-color="#53E1E3"/>
</linearGradient>
<linearGradient id="paint4_linear" x2="1" gradientUnits="userSpaceOnUse" gradientTransform="translate(1.38297) scale(1.38297 1.38834) rotate(90)">
<stop stop-color="#4BB9F9"/>
<stop offset="1" stop-color="#53E1E3"/>
</linearGradient>
<linearGradient id="paint5_linear" x2="1" gradientUnits="userSpaceOnUse" gradientTransform="translate(1.38297) scale(1.38297 1.38834) rotate(90)">
<stop stop-color="#4BB9F9"/>
<stop offset="1" stop-color="#53E1E3"/>
</linearGradient>
<linearGradient id="paint6_linear" x2="1" gradientUnits="userSpaceOnUse" gradientTransform="translate(1.38297) scale(1.38297 1.38834) rotate(90)">
<stop stop-color="#4BB9F9"/>
<stop offset="1" stop-color="#53E1E3"/>
</linearGradient>
<linearGradient id="paint7_linear" x2="1" gradientUnits="userSpaceOnUse" gradientTransform="translate(1.38297) scale(1.38297 1.38834) rotate(90)">
<stop stop-color="#4BB9F9"/>
<stop offset="1" stop-color="#53E1E3"/>
</linearGradient>
<linearGradient id="paint8_linear" x2="1" gradientUnits="userSpaceOnUse" gradientTransform="translate(1.38297) scale(1.38297 1.38834) rotate(90)">
<stop stop-color="#4BB9F9"/>
<stop offset="1" stop-color="#53E1E3"/>
</linearGradient>
<linearGradient id="paint9_linear" x2="1" gradientUnits="userSpaceOnUse" gradientTransform="translate(1.38297) scale(1.38297 1.38834) rotate(90)">
<stop stop-color="#4BB9F9"/>
<stop offset="1" stop-color="#53E1E3"/>
</linearGradient>
<linearGradient id="paint10_linear" x2="1" gradientUnits="userSpaceOnUse" gradientTransform="translate(1.38297) scale(1.38297 1.38834) rotate(90)">
<stop stop-color="#4BB9F9"/>
<stop offset="1" stop-color="#53E1E3"/>
</linearGradient>
<linearGradient id="paint11_linear" x2="1" gradientUnits="userSpaceOnUse" gradientTransform="translate(1.38297) scale(1.38297 1.38834) rotate(90)">
<stop stop-color="#4BB9F9"/>
<stop offset="1" stop-color="#53E1E3"/>
</linearGradient>
<linearGradient id="paint12_linear" x2="1" gradientUnits="userSpaceOnUse" gradientTransform="translate(1.38297) scale(1.38297 1.38834) rotate(90)">
<stop stop-color="#4BB9F9"/>
<stop offset="1" stop-color="#53E1E3"/>
</linearGradient>
<linearGradient id="paint13_linear" x2="1" gradientUnits="userSpaceOnUse" gradientTransform="translate(38) scale(38 37) rotate(90)">
<stop stop-color="#4BB9F9"/>
<stop offset="1" stop-color="#53E1E3"/>
</linearGradient>
</defs>
</svg>
