<svg width="153" height="130" viewBox="0 0 153 130" fill="none" xmlns="http://www.w3.org/2000/svg">
<rect width="152.971" height="130" fill="black" fill-opacity="0" transform="translate(0.0292969)"/>
<rect width="32" height="32" fill="black" fill-opacity="0" transform="translate(82 98)"/>
<path d="M98.0625 98C89.2689 98 82 105.144 82 113.938C82 122.731 89.2689 130 98.0625 130C106.856 130 114 122.731 114 113.938C114 105.144 106.856 98 98.0625 98Z" fill="#FEE8A1"/>
<path d="M98.0625 101.75C91.3499 101.75 85.75 107.225 85.75 113.938C85.75 120.65 91.3499 126.25 98.0625 126.25C104.775 126.25 110.25 120.65 110.25 113.938C110.25 107.225 104.775 101.75 98.0625 101.75Z" fill="#FE8B68" fill-opacity="0.5"/>
<path d="M99.9375 113H99V109.25H99.9375C100.463 109.25 100.875 109.662 100.875 110.188C100.875 111.425 102.75 111.425 102.75 110.188C102.75 108.631 101.494 107.375 99.9375 107.375H99V106.438C99 105.819 98.5312 105.5 98.0625 105.5C97.5938 105.5 97.125 105.819 97.125 106.438V107.375H96.0625C94.5061 107.375 93.25 108.631 93.25 110.188V112.062C93.25 113.619 94.5061 114.875 96.0625 114.875H97.125V118.75H96.0625C95.5374 118.75 95.125 118.338 95.125 117.812C95.125 116.575 93.25 116.575 93.25 117.812C93.25 119.369 94.5061 120.625 96.0625 120.625H97.125V121.562C97.125 122.181 97.5938 122.5 98.0625 122.5C98.5312 122.5 99 122.181 99 121.562V120.625H99.9375C101.494 120.625 102.75 119.369 102.75 117.812V115.812C102.75 114.256 101.494 113 99.9375 113ZM97.125 113H96.0625C95.5374 113 95.125 112.588 95.125 112.062V110.188C95.125 109.662 95.5374 109.25 96.0625 109.25H97.125V113ZM100.875 117.812C100.875 118.338 100.463 118.75 99.9375 118.75H99V114.875H99.9375C100.463 114.875 100.875 115.287 100.875 115.812V117.812Z" fill="#FEE8A1"/>
<path fill-rule="evenodd" clip-rule="evenodd" d="M38.4734 59.4639C33.7654 63.7556 30.2781 69.6096 26.7973 75.626C25.5452 77.79 24.6818 80.7661 24.1501 84.2649C23.6213 87.7454 23.4348 91.6451 23.4755 95.5901C23.557 103.482 24.5459 111.43 25.431 116.319L22.479 116.853C21.5695 111.83 20.5592 103.711 20.4757 95.6211C20.4339 91.5747 20.6235 87.5039 21.1842 83.8143C21.742 80.143 22.6814 76.7493 24.2005 74.1236C27.6476 68.1657 31.3475 61.9002 36.4524 57.2468C41.6289 52.5281 48.2268 49.4811 57.3657 49.8601C62.4536 50.0711 66.8128 51.3975 70.4529 53.3961C71.8803 46.2775 75.4166 38.5061 84.1425 32.6193C91.8484 27.4206 97.033 26.1747 109.569 23.1623C110.395 22.9636 111.254 22.7573 112.148 22.5416L112.851 25.4579C112.021 25.6584 111.222 25.8506 110.452 26.0357C97.7373 29.0942 93.0666 30.2176 85.8203 35.1062C77.4822 40.7315 74.3559 48.2122 73.1881 55.1129C74.9315 56.3548 76.4701 57.7553 77.8053 59.2467C82.2587 64.2209 84.4995 70.2646 84.4995 74.8748C84.4995 79.5775 80.6525 82.5762 76.6054 81.4732C72.6206 80.3872 69.5001 75.6726 69.5001 67.3342C69.5001 67.0083 69.499 66.6699 69.4979 66.3198C69.4893 63.6262 69.4785 60.2437 69.9404 56.5636C66.5088 54.4801 62.2885 53.0669 57.2414 52.8576C48.9502 52.5137 43.1097 55.2376 38.4734 59.4639ZM72.7483 58.549C72.4881 61.4315 72.4939 64.1268 72.4988 66.4354C72.4995 66.742 72.5001 67.0417 72.5001 67.3342C72.5001 75.1613 75.3793 78.0296 77.3942 78.5787C79.3468 79.1109 81.4995 77.7971 81.4995 74.8748C81.4995 71.11 79.6074 65.7571 75.5702 61.2478C74.7225 60.301 73.7824 59.3939 72.7483 58.549Z" fill="#EDF1F6"/>
<path fill-rule="evenodd" clip-rule="evenodd" d="M16.7955 43.0847C15.1853 42.808 13.7432 43.1262 12.4366 44.1715L10.5625 41.8289C12.5892 40.2075 14.9138 39.7173 17.3036 40.128C19.6353 40.5288 21.9784 41.7732 24.2201 43.5157C28.7043 47.0013 33.1549 52.772 36.8069 59.2644C41.4991 67.606 43.1376 80.3543 43.2704 90.689C43.2831 91.6813 43.282 92.6551 43.2682 93.6045C47.0191 90.9462 52.6765 88.4309 59.2424 88.0031C67.3663 87.4737 76.7865 90.1485 85.5901 99.47L83.409 101.53C75.2126 92.8513 66.6607 90.5261 59.4375 90.9967C52.1803 91.4696 46.1687 94.7734 43.1318 97.548C42.9966 99.9714 42.7742 102.139 42.4886 103.924C42.2238 105.58 41.8914 106.994 41.4842 107.99C41.2885 108.47 41.019 108.997 40.6239 109.393C40.4161 109.601 40.1176 109.829 39.7185 109.949C39.2909 110.079 38.8464 110.054 38.4425 109.893C37.3627 109.461 36.4777 108.692 35.938 107.636C35.4029 106.588 35.2558 105.357 35.4626 104.056C35.8352 101.713 37.3639 99.0257 40.1939 96.2066C40.2665 94.4908 40.2953 92.6498 40.2706 90.7275C40.1394 80.5065 38.5 68.3936 34.1922 60.7352C30.6441 54.4276 26.4281 49.0318 22.379 45.8843C20.354 44.3102 18.4638 43.3714 16.7955 43.0847ZM39.8127 101.321C38.9821 102.58 38.5627 103.663 38.4254 104.527C38.2988 105.324 38.4155 105.891 38.6095 106.271C38.666 106.381 38.7332 106.484 38.8116 106.579C39.0554 105.886 39.3047 104.836 39.5263 103.451C39.6307 102.798 39.7267 102.086 39.8127 101.321Z" fill="#EDF1F6"/>
<path fill-rule="evenodd" clip-rule="evenodd" d="M12.1248 46.9824L7.75195 41.5163L9.31369 40.2669C11.8209 38.2611 14.7339 37.6567 17.6429 38.1567C20.4169 38.6334 23.062 40.0816 25.4481 41.9364C30.2223 45.6474 34.8294 51.668 38.5506 58.2836C43.3979 66.901 45.0688 79.7165 45.2607 90.0221C49.0028 87.9974 53.7721 86.355 59.113 86.007C67.8373 85.4386 77.8363 88.3464 87.0447 98.0965L88.4179 99.5505L83.3288 104.357L81.9556 102.903C74.164 94.653 66.1909 92.5607 59.5681 92.9922C53.2614 93.4031 47.977 96.1214 45.0778 98.5078C44.9375 100.646 44.7284 102.588 44.4641 104.24C44.1917 105.943 43.8307 107.536 43.3362 108.747C43.1066 109.309 42.7157 110.129 42.0394 110.806C41.6776 111.168 41.1051 111.619 40.2986 111.863C39.4257 112.128 38.5151 112.075 37.7003 111.749C36.1998 111.149 34.9311 110.059 34.1576 108.545C33.3949 107.052 33.2279 105.378 33.488 103.742C33.9227 101.008 35.5629 98.1577 38.2252 95.3599C38.2745 93.9016 38.2919 92.3569 38.2713 90.7529C38.1411 80.6074 36.5012 68.9183 32.4496 61.7154C28.9709 55.531 24.9113 50.3851 21.1521 47.4631C19.2717 46.0014 17.6834 45.2663 16.4573 45.0555C15.3678 44.8683 14.5138 45.0712 13.6866 45.733L12.1248 46.9824ZM40.1945 96.2063C37.3645 99.0255 35.8357 101.713 35.4632 104.056C35.2564 105.357 35.4035 106.588 35.9386 107.635C36.4783 108.692 37.3632 109.46 38.443 109.892C38.643 109.972 38.853 110.019 39.0659 110.03C39.283 110.041 39.5032 110.015 39.7191 109.949C39.7299 109.946 39.7406 109.943 39.7512 109.939C40.1342 109.816 40.4223 109.595 40.6245 109.392C41.0196 108.997 41.2891 108.469 41.4848 107.99C41.892 106.993 42.2244 105.579 42.4892 103.924C42.7748 102.139 42.9972 99.9712 43.1323 97.5477C46.1693 94.7731 52.1809 91.4693 59.4381 90.9965C66.6613 90.5258 75.2132 92.8511 83.4096 101.53L85.5906 99.4697C85.1245 98.9761 84.6565 98.5011 84.1871 98.0443C75.793 89.874 66.9367 87.5015 59.243 88.0028C53.7619 88.3599 48.914 90.1717 45.2796 92.3071C44.5603 92.7297 43.8885 93.165 43.2687 93.6043C43.2802 92.815 43.2829 92.009 43.2762 91.1895C43.2748 91.0231 43.2731 90.8562 43.2709 90.6887C43.1382 80.3541 41.4996 67.6057 36.8075 59.2641C33.1555 52.7717 28.7049 47.0011 24.2207 43.5154C21.979 41.7729 19.6359 40.5285 17.3042 40.1278C15.5603 39.8281 13.8512 40.0081 12.2672 40.7573C11.6805 41.0348 11.1109 41.3904 10.5631 41.8286L12.4372 44.1712C13.7438 43.1259 15.1859 42.8077 16.7961 43.0844C18.4644 43.3712 20.3546 44.31 22.3795 45.884C26.4287 49.0315 30.6447 54.4273 34.1928 60.7349C38.5006 68.3933 40.1399 80.5062 40.2712 90.7272C40.2959 92.6495 40.267 94.4905 40.1945 96.2063ZM38.7572 103.327C38.9875 102.723 39.3311 102.051 39.8133 101.321C39.7273 102.086 39.6313 102.798 39.5269 103.45C39.4565 103.89 39.3834 104.296 39.3086 104.667C39.1978 105.217 39.0833 105.691 38.9684 106.087C38.9163 106.267 38.8641 106.431 38.8122 106.579C38.7338 106.484 38.6666 106.381 38.6101 106.27C38.4161 105.891 38.2994 105.323 38.426 104.527C38.4836 104.165 38.5908 103.764 38.7572 103.327Z" fill="white"/>
<rect width="36" height="36" fill="black" fill-opacity="0" transform="translate(117)"/>
<path d="M135.07 0C125.177 0 117 8.03672 117 17.9297C117 27.8227 125.177 36 135.07 36C144.963 36 153 27.8227 153 17.9297C153 8.03672 144.963 0 135.07 0Z" fill="#FEE8A1"/>
<path d="M135.07 4.21875C127.519 4.21875 121.219 10.3781 121.219 17.9297C121.219 25.4813 127.519 31.7812 135.07 31.7812C142.622 31.7812 148.781 25.4813 148.781 17.9297C148.781 10.3781 142.622 4.21875 135.07 4.21875Z" fill="#FE8B68" fill-opacity="0.5"/>
<path d="M137.18 16.875H136.125V12.6562H137.18C137.77 12.6562 138.234 13.1202 138.234 13.7109C138.234 15.1031 140.344 15.1031 140.344 13.7109C140.344 11.9601 138.931 10.5469 137.18 10.5469H136.125V9.49219C136.125 8.79602 135.598 8.4375 135.07 8.4375C134.543 8.4375 134.016 8.79602 134.016 9.49219V10.5469H132.82C131.069 10.5469 129.656 11.9601 129.656 13.7109V15.8203C129.656 17.5712 131.069 18.9844 132.82 18.9844H134.016V23.3438H132.82C132.23 23.3438 131.766 22.8798 131.766 22.2891C131.766 20.8969 129.656 20.8969 129.656 22.2891C129.656 24.0399 131.069 25.4531 132.82 25.4531H134.016V26.5078C134.016 27.204 134.543 27.5625 135.07 27.5625C135.598 27.5625 136.125 27.204 136.125 26.5078V25.4531H137.18C138.931 25.4531 140.344 24.0399 140.344 22.2891V20.0391C140.344 18.2882 138.931 16.875 137.18 16.875ZM134.016 16.875H132.82C132.23 16.875 131.766 16.411 131.766 15.8203V13.7109C131.766 13.1202 132.23 12.6562 132.82 12.6562H134.016V16.875ZM138.234 22.2891C138.234 22.8798 137.77 23.3438 137.18 23.3438H136.125V18.9844H137.18C137.77 18.9844 138.234 19.4484 138.234 20.0391V22.2891Z" fill="#FEE8A1"/>
</svg>
