<svg width="6" height="6" viewBox="0 0 6 6" fill="none" xmlns="http://www.w3.org/2000/svg">
<path d="M3.03656 3.29703L0.66057 5.87686C0.509429 6.04105 0.264379 6.04105 0.11331 5.87686C-0.0377701 5.71281 -0.0377701 5.44674 0.11331 5.28271L2.21569 2.99996L0.113371 0.717286C-0.037709 0.553173 -0.037709 0.287131 0.113371 0.123085C0.264452 -0.0410283 0.50949 -0.0410283 0.660631 0.123085L3.03662 2.70295C3.11216 2.78501 3.14989 2.89245 3.14989 2.99994C3.14989 3.10749 3.11209 3.21501 3.03656 3.29703Z" transform="translate(0 6) scale(1 -1)" fill="white"/>
<path d="M3.03656 3.29703L0.66057 5.87686C0.509429 6.04105 0.264379 6.04105 0.11331 5.87686C-0.0377701 5.71281 -0.0377701 5.44674 0.11331 5.28271L2.21569 2.99996L0.113371 0.717286C-0.037709 0.553173 -0.037709 0.287131 0.113371 0.123085C0.264452 -0.0410283 0.50949 -0.0410283 0.660631 0.123085L3.03662 2.70295C3.11216 2.78501 3.14989 2.89245 3.14989 2.99994C3.14989 3.10749 3.11209 3.21501 3.03656 3.29703Z" transform="translate(2.85059 6) scale(1 -1)" fill="white"/>
</svg>
