<svg width="11" height="8" viewBox="0 0 11 8" fill="none" xmlns="http://www.w3.org/2000/svg">
<path fill-rule="evenodd" clip-rule="evenodd" d="M9.61133 0.243805C9.2666 -0.0812683 8.6748 -0.0812683 8.33008 0.243805L4.2334 4.08499L2.46289 2.40323C2.11816 2.07816 1.52637 2.07816 1.18066 2.40323L0 3.75003L3.59668 7.25626C3.94141 7.58133 4.5332 7.58133 4.87793 7.25626L5.59277 6.58279C5.61816 6.55923 5.6416 6.53433 5.66309 6.50845L11 1.57901L9.61133 0.243805Z" fill="#32BA7C"/>
<path fill-rule="evenodd" clip-rule="evenodd" d="M8.46688 0.389703L4.23251 4.35999L2.32568 2.54874C2.3256 2.54867 2.32575 2.54881 2.32568 2.54874C2.06024 2.29869 1.59406 2.29624 1.32426 2.54282L0.275437 3.73923L3.73502 7.11181C4.0029 7.36316 4.47342 7.36281 4.74072 7.11075L5.45673 6.43618C5.4756 6.41867 5.4931 6.4001 5.5092 6.3807L5.51766 6.37052L10.7084 1.57609L9.47412 0.389313C9.4739 0.38911 9.47433 0.389516 9.47412 0.389313C9.20633 0.137504 8.73434 0.137488 8.46688 0.389703ZM9.61133 0.243805C9.2666 -0.0812683 8.6748 -0.0812683 8.33008 0.243805L4.2334 4.08499L2.46289 2.40323C2.11816 2.07816 1.52637 2.07816 1.18066 2.40323L0 3.75003L3.59668 7.25626C3.94141 7.58133 4.5332 7.58133 4.87793 7.25626L5.59277 6.58279C5.61816 6.55923 5.6416 6.53433 5.66309 6.50845L11 1.57901L9.61133 0.243805Z" fill="white"/>
</svg>
