<svg width="60" height="60" viewBox="0 0 60 60" fill="none" xmlns="http://www.w3.org/2000/svg">
<path d="M18.6667 35H17.3333C16.5974 35 16 35.6721 16 36.5001C16 37.3281 16.5974 38 17.3333 38H18.6667C19.4026 38 20 37.3279 20 36.4999C20 35.6719 19.4026 35 18.6667 35Z" fill="#A5A5A5"/>
<path d="M5.02416 35.0448C4.3743 34.9073 3.77289 34.6462 3.28955 34.2895C2.76593 33.9008 1.91467 33.9049 1.39105 34.2935C0.867433 34.6841 0.870077 35.3159 1.39646 35.7026C2.20203 36.2985 3.20358 36.7329 4.2911 36.9622C4.41457 36.988 4.53818 37 4.65901 37C5.24166 37 5.78139 36.715 5.94792 36.2765C6.15196 35.7463 5.73835 35.1943 5.02416 35.0448Z" fill="#A5A5A5"/>
<path d="M3 29.7568V27.2432C3 26.557 2.32794 26 1.49993 26C0.671917 26 0 26.557 0 27.2432V29.7568C0 30.443 0.672057 31 1.50007 31C2.32808 31 3 30.443 3 29.7568Z" fill="#A5A5A5"/>
<path d="M1.39537 9C2.16559 9 2.79073 8.44122 2.79073 7.75276V6.60784C2.79073 6.26115 2.84371 5.91938 2.94705 5.59012C3.15635 4.92657 2.72664 4.23812 1.98428 4.05104C1.24755 3.85402 0.471707 4.2456 0.262408 4.91161C0.0893443 5.46291 0 6.0342 0 6.60784V7.75276C0 8.44122 0.625149 9 1.39537 9Z" fill="#A5A5A5"/>
<path d="M1.5 16C2.32797 16 3 15.443 3 14.7568V12.2432C3 11.557 2.32797 11 1.5 11C0.672026 11 0 11.557 0 12.2432V14.7568C0 15.443 0.672026 16 1.5 16Z" fill="#A5A5A5"/>
<path d="M1.5 24C2.32797 24 3 23.443 3 22.7568V20.2432C3 19.557 2.32797 19 1.5 19C0.672026 19 0 19.557 0 20.2432V22.7568C0 23.443 0.672026 24 1.5 24Z" fill="#A5A5A5"/>
<path d="M7.75184 0H6.651C6.05448 0 5.46533 0.094401 4.89864 0.277734C4.23718 0.494401 3.85771 1.26667 4.04996 2.00273C4.20968 2.60833 4.70897 3 5.24815 3C5.36552 3 5.48276 2.98333 5.60012 2.9444C5.93957 2.83333 6.29154 2.77773 6.651 2.77773H7.75184C8.44326 2.77773 9 2.15547 9 1.3888C9 0.622135 8.4408 0 7.75184 0Z" fill="#A5A5A5"/>
<path d="M36.0076 6C36.0988 6 36.1921 5.98386 36.2853 5.94351C36.8109 5.73368 37.1143 4.98856 36.9596 4.2756C36.7256 3.18876 36.2853 2.19081 35.6883 1.38908C35.2996 0.867156 34.6709 0.86993 34.2861 1.3998C33.9013 1.92701 33.9053 2.77982 34.294 3.30174C34.651 3.78596 34.9168 4.38316 35.0556 5.03144C35.1827 5.61805 35.5773 6 36.0076 6Z" fill="#A5A5A5"/>
<path d="M36.5 9C35.672 9 35 9.55697 35 10.2432V12.7568C35 13.443 35.672 14 36.5 14C37.328 14 38 13.443 38 12.7568V10.2432C38 9.5544 37.328 9 36.5 9Z" fill="#A5A5A5"/>
<path d="M12.7568 35H10.2432C9.55697 35 9 35.6721 9 36.5001C9 37.3281 9.55697 38 10.2432 38H12.7568C13.443 38 14 37.3279 14 36.4999C14 35.6719 13.443 35 12.7568 35Z" fill="#A5A5A5"/>
<path d="M29.7568 0H27.2432C26.557 0 26 0.672026 26 1.5C26 2.32797 26.557 3 27.2432 3H29.7568C30.443 3 31 2.32797 31 1.5C31 0.672026 30.443 0 29.7568 0Z" fill="#A5A5A5"/>
<path d="M14.7568 0H12.2432C11.557 0 11 0.672026 11 1.5C11 2.32797 11.557 3 12.2432 3H14.7568C15.443 3 16 2.32797 16 1.5C16 0.672026 15.443 0 14.7568 0Z" fill="#A5A5A5"/>
<path d="M22.7568 0H20.2432C19.5545 0 19 0.672026 19 1.5C19 2.32797 19.557 3 20.2432 3H22.7544C23.443 3 24 2.32797 24 1.5C24 0.672026 23.443 0 22.7568 0Z" fill="#A5A5A5"/>
<path d="M36.3534 16C35.7772 16 35.2964 16.2396 35 16.5826C35.922 16.739 36.8012 17.082 37.5192 17.6292L38 18V17.261C38 16.5649 37.2623 16 36.3534 16Z" fill="#A5A5A5"/>
<path d="M53.8334 23H41.8774C43.9938 25.442 45.2 28.4932 45.2 31.7566C45.2 39.169 39.169 45.2 31.7566 45.2H26.7C25.3088 45.2 24.0384 44.719 23.005 43.9396C23.005 43.9494 23 43.9568 23 43.9667V53.8334C23 57.2324 25.7676 60 29.1666 60H53.8333C57.2324 60 60 57.2324 60 53.8334V29.1666C60 25.7676 57.2324 23 53.8334 23Z" fill="#A5A5A5"/>
<path d="M38.7809 23.2349L34.9516 19.4058C34.4105 18.8647 33.5335 18.8647 32.9925 19.4058C32.7307 19.6652 32.5849 20.0135 32.5849 20.384C32.5849 20.7546 32.7281 21.1029 32.9901 21.3623C33.2322 21.6045 33.3532 21.9206 33.3532 22.2368C33.3532 22.5531 33.2322 22.8692 32.9925 23.1114C32.5107 23.5931 31.7276 23.5931 31.2458 23.1114L30.0105 21.8761C29.4867 21.3524 28.5751 21.3524 28.0514 21.8761C27.5104 22.4171 27.5104 23.2941 28.0514 23.8351L29.2867 25.0704C29.5263 25.31 29.6474 25.6262 29.6474 25.9425C29.6474 26.2587 29.5264 26.5748 29.2867 26.817C28.805 27.2987 28.0218 27.2987 27.54 26.817L25.6871 24.9642C25.1633 24.4404 24.2517 24.4404 23.728 24.9642C23.187 25.5052 23.187 26.3821 23.728 26.9232L26.8162 30.0112C27.0558 30.2508 27.177 30.567 27.177 30.8833C27.177 31.1995 27.0559 31.5157 26.8162 31.7578C26.3345 32.2395 25.5513 32.2395 25.0695 31.7578L22.3643 29.0527C21.8405 28.529 20.9289 28.529 20.4052 29.0527C20.1434 29.3146 20 29.6629 20 30.031C20 30.3991 20.1433 30.7499 20.4052 31.0093L26.8162 37.42C27.0558 37.6621 27.177 37.9783 27.177 38.2945C27.177 38.6108 27.0559 38.9269 26.8162 39.169C26.3345 39.6508 25.5513 39.6508 25.0695 39.169L22.2359 36.3354V38.2944C22.2359 40.3375 23.8985 42 25.9417 42H31.0062C37.0689 42 42 37.0691 42 31.0067C42.0001 28.0719 40.8562 25.3101 38.7809 23.2349Z" fill="#A5A5A5"/>
</svg>
