<svg width="179" height="44" viewBox="0 0 179 44" fill="none" xmlns="http://www.w3.org/2000/svg">
<g opacity="0.7">
<path d="M13.4319 9.61577C13.4319 12.4253 12.2016 14.6995 9.3365 14.6995C6.46898 14.6995 5.23041 12.4253 5.23041 9.61577V0.0113911H0V9.61577C0 15.1681 3.64091 19.6668 9.30691 19.6668C14.9672 19.6668 18.6631 15.169 18.6631 9.61577V0H13.4204L13.4319 9.61577Z" transform="translate(39.7456 18.5479)" fill="#2BA9E0"/>
<path d="M5.21397 0H0V25.028H5.21397V0Z" transform="translate(105.673 12.6914)" fill="#2BA9E0"/>
<path d="M0 0.899091H1.48759V4.86322H2.57986V0.899091H4.06581V0H0V0.899091Z" transform="translate(114.738 12.7158)" fill="#2BA9E0"/>
<path d="M3.80528 0L2.70808 3.34493H2.69411L1.53444 0H0V4.86322H1.01994V1.45075H1.0331L2.24701 4.86322H3.09107L4.30663 1.41413H4.31813V4.86322H5.34054V0H3.80528Z" transform="translate(119.374 12.7158)" fill="#2BA9E0"/>
<path d="M5.67176 3.75099C5.61505 3.86571 5.6134 3.93081 5.41287 3.92918C5.24931 3.92267 5.22959 3.75099 5.22959 3.75099L4.67236 0.401174H0V19.518H5.23616V9.16993C5.23616 8.32292 7.55961 4.27091 12.0602 5.30995C14.3343 5.84045 15.2992 6.78755 15.2992 6.78755C15.2992 6.78755 15.2992 3.096 15.2992 0.965037C14.4568 0.5338 13.879 0.32469 13.1204 0.153009C8.62722 -0.864059 5.79093 3.5134 5.67176 3.75099Z" transform="translate(22.3623 18.187)" fill="#2BA9E0"/>
<path d="M10.3211 0C4.62141 0 0 4.53043 0 10.1202C0 10.1202 0 23.9548 0 25.8132H5.25014V18.9346L5.25343 16.3577C5.25343 16.3577 5.26082 16.1535 5.45068 16.1486C5.61916 16.1486 5.65615 16.2593 5.69889 16.3577C6.09503 17.3276 8.28121 21.0191 13.1278 19.8613C17.4657 18.662 20.6455 14.7581 20.6455 10.1202C20.6447 4.53043 16.0241 0 10.3211 0ZM10.3269 15.2422C7.43879 15.2422 5.10302 12.9509 5.10302 10.1202C5.10302 7.29279 7.43879 4.99666 10.3269 4.99666C13.2133 4.99666 15.5523 7.29279 15.5523 10.1202C15.5532 12.9509 13.2141 15.2422 10.3269 15.2422Z" transform="translate(60.2676 18.187)" fill="#2BA9E0"/>
<path d="M10.3244 0C4.62222 0 0 4.53043 0 10.1202C0 14.7573 3.18148 18.662 7.5218 19.8613C12.3684 21.02 14.5529 17.3284 14.9474 16.3577C14.991 16.2593 15.028 16.1486 15.1973 16.1486C15.3871 16.1535 15.3937 16.3577 15.3937 16.3577L15.3978 19.5245H20.6488V10.1202C20.648 4.53043 16.0274 0 10.3244 0ZM10.3219 15.2422C7.43469 15.2422 5.0948 12.9509 5.0948 10.1202C5.0948 7.29279 7.43551 4.99666 10.3219 4.99666C13.2059 4.99666 15.5458 7.29279 15.5458 10.1202C15.5458 12.9509 13.2059 15.2422 10.3219 15.2422Z" transform="translate(82.9072 18.187)" fill="#2BA9E0"/>
<path d="M6.39172 0H0V24.993H5.95777C13.7828 24.993 20.0028 23.4943 20.0028 12.4969C20.002 1.39379 14.1313 0 6.39172 0ZM7.4355 20.7108L5.27315 20.6562V4.33434H7.37962C12.2048 4.33434 14.7264 4.99665 14.7264 12.4961C14.7264 20.3145 11.872 20.7108 7.4355 20.7108Z" transform="translate(0 12.6792)" fill="#2BA9E0"/>
<path d="M5.99475 11.8696C9.30556 11.8696 11.9895 9.21249 11.9895 5.9348C11.9895 2.6571 9.30556 0 5.99475 0C2.68394 0 0 2.6571 0 5.9348C0 9.21249 2.68394 11.8696 5.99475 11.8696Z" transform="translate(155.192 23.2847)" fill="#2BA9E0"/>
<path d="M1.55746 9.2008C3.33435 11.0372 4.42908 13.5246 4.42908 16.2682C4.42908 19.7425 2.67602 22.8092 0 24.6562C4.94604 23.1468 9.03569 19.4675 10.8676 15.0111C13.4007 8.84686 11.0427 4.20659 7.08374 0C7.20374 0.544335 7.27194 1.1082 7.27194 1.68915C7.27194 5.2554 4.85646 8.26347 1.55746 9.2008Z" transform="translate(167.082 12.9512)" fill="#2BA9E0"/>
<path d="M4.58606 9.08038C7.11888 9.08038 9.17213 7.04767 9.17213 4.54019C9.17213 2.03271 7.11888 0 4.58606 0C2.05325 0 0 2.03271 0 4.54019C0 7.04767 2.05325 9.08038 4.58606 9.08038Z" transform="translate(161.871 10.0981)" fill="#2BA9E0"/>
<path d="M7.93185 35.8008C6.41713 34.0222 5.50402 31.7268 5.50402 29.2183C5.50402 23.9857 9.47697 19.675 14.5973 19.0721C13.7195 17.8117 13.2025 16.2845 13.2025 14.6385C13.2025 10.3204 16.7391 6.82087 21.1007 6.82087C21.4607 6.82087 21.8141 6.84609 22.161 6.89328C19.5778 4.68584 16.9996 2.44747 14.9646 0C16.0043 10.7175 5.10378 6.82331 1.07494 16.7003C-1.62902 23.3275 0.808658 31.521 7.93185 35.8008Z" transform="translate(145.356)" fill="#2BA9E0"/>
</g>
</svg>
