<svg width="11" height="8" viewBox="0 0 11 8" fill="none" xmlns="http://www.w3.org/2000/svg">
<path d="M1.05578 2.46592C1.19493 2.55681 1.61437 2.82674 2.31414 3.27559C3.01392 3.72444 3.55 4.07004 3.9224 4.31242C3.96332 4.33898 4.05024 4.39674 4.18322 4.48575C4.31622 4.57483 4.42673 4.64681 4.51466 4.70172C4.60266 4.75661 4.70905 4.81818 4.83392 4.88634C4.95875 4.95444 5.07642 5.00567 5.18691 5.03958C5.29742 5.07377 5.39971 5.09071 5.49382 5.09071H5.49999H5.50618C5.60029 5.09071 5.70263 5.07375 5.81314 5.03958C5.92358 5.00567 6.04136 4.95438 6.16608 4.88634C6.29087 4.8181 6.39725 4.75659 6.48525 4.70172C6.57325 4.64681 6.68367 4.57483 6.81672 4.48575C6.94967 4.39666 7.0367 4.33898 7.07762 4.31242C7.45404 4.07004 8.41172 3.45448 9.95035 2.4658C10.2491 2.2727 10.4986 2.0397 10.6991 1.76695C10.8998 1.49433 11 1.20833 11 0.909119C11 0.659083 10.9027 0.445047 10.7083 0.267032C10.5139 0.0889775 10.2837 0 10.0178 0H0.9821C0.667017 0 0.42454 0.0984704 0.254711 0.295411C0.0849036 0.492392 0 0.738607 0 1.03404C0 1.27267 0.112574 1.53127 0.337615 1.80966C0.562634 2.08808 0.802102 2.30685 1.05578 2.46592Z" fill="#646464"/>
<path d="M10.3861 0.494302C9.04395 1.33514 8.02485 1.98861 7.32926 2.45457C7.096 2.6136 6.90678 2.73775 6.76146 2.8267C6.61614 2.91572 6.42288 3.00663 6.18139 3.09939C5.93999 3.19229 5.71501 3.2386 5.50627 3.2386H5.50001H5.49384C5.28514 3.2386 5.06003 3.19229 4.81863 3.09939C4.57723 3.00663 4.38384 2.91572 4.23856 2.8267C4.09333 2.73775 3.90404 2.6136 3.67081 2.45457C3.11832 2.0796 2.10141 1.42609 0.62004 0.494302C0.386721 0.350457 0.180063 0.185577 0 0V4.51127C0 4.76142 0.0961267 4.97534 0.288487 5.15337C0.480805 5.33147 0.71206 5.42049 0.982165 5.42049H10.0179C10.2879 5.42049 10.5192 5.33147 10.7115 5.15337C10.9039 4.97528 11 4.76144 11 4.51127V0C10.824 0.181736 10.6194 0.346616 10.3861 0.494302Z" transform="translate(0 2.57959)" fill="#646464"/>
</svg>
