<svg width="62" height="62" viewBox="0 0 62 62" fill="none" xmlns="http://www.w3.org/2000/svg">
<circle cx="31" cy="31" r="31" fill="#6FBFF6" fill-opacity="0.3"/>
<path d="M19.9374 0C30.9482 0 39.8747 8.92655 39.8747 19.9374C39.8747 30.9465 30.9482 39.8747 19.9374 39.8747C8.92655 39.8747 3.60431e-09 30.9463 3.60431e-09 19.9374C-0.000207119 8.92634 8.92634 0 19.9374 0Z" transform="translate(11 11)" fill="#26A6D1"/>
<path d="M10.8749 0C16.8798 0 21.7499 4.86841 21.7499 10.8749C21.7499 16.8815 16.8796 21.7499 10.8749 21.7499C4.87027 21.7499 0 16.8815 0 10.8749C0 4.86841 4.87006 0 10.8749 0Z" transform="translate(20.0625 20.0625)" fill="#484848"/>
<path fill-rule="evenodd" clip-rule="evenodd" d="M9.0625 4.53125C9.0625 2.02808 7.03418 0 4.53125 0C2.14551 0 0.191406 1.84253 0.0136719 4.18262C0.00488281 4.29761 0 4.41382 0 4.53125C0 7.03418 2.02832 9.0625 4.53125 9.0625C7.03418 9.0625 9.0625 7.03418 9.0625 4.53125Z" transform="translate(34.5625 20.0625)" fill="white"/>
</svg>
