<svg width="26" height="26" viewBox="0 0 26 26" fill="none" xmlns="http://www.w3.org/2000/svg">
<path d="M22.4964 0H3.50358C1.56864 0 0 1.56857 0 3.50355V22.4963C0 24.4313 1.56858 25.9999 3.50358 25.9999H12.8707L12.8867 16.7089H10.4729C10.1592 16.7089 9.9046 16.4553 9.90339 16.1416L9.89181 13.1467C9.8906 12.8313 10.146 12.575 10.4614 12.575H12.8708V9.68121C12.8708 6.32299 14.9218 4.49442 17.9176 4.49442H20.3758C20.6903 4.49442 20.9454 4.7494 20.9454 5.06398V7.58926C20.9454 7.90371 20.6905 8.15863 20.3761 8.15882L18.8675 8.15952C17.2384 8.15952 16.9229 8.93369 16.9229 10.0698V12.5751H20.5028C20.8439 12.5751 21.1085 12.8729 21.0683 13.2117L20.7134 16.2065C20.6794 16.4931 20.4364 16.7091 20.1478 16.7091H16.9388L16.9229 26H22.4965C24.4314 26 26 24.4314 26 22.4965V3.50355C25.9999 1.56857 24.4314 0 22.4964 0Z" fill="white"/>
</svg>
