<svg width="29" height="29" viewBox="0 0 29 29" fill="none" xmlns="http://www.w3.org/2000/svg">
<rect width="28.6803" height="28.7982" fill="black" fill-opacity="0"/>
<rect width="28.6803" height="28.7982" fill="black" fill-opacity="0"/>
<rect width="28.6803" height="28.7982" fill="black" fill-opacity="0"/>
<path d="M14.3402 0C6.43303 0 0 6.45946 0 14.3991C0 22.3381 6.43303 28.7982 14.3402 28.7982C22.2467 28.7982 28.6803 22.3381 28.6803 14.3991C28.6803 6.45946 22.2479 0 14.3402 0ZM17.9064 14.906H15.5734C15.5734 18.6487 15.5734 23.2557 15.5734 23.2557H12.1163C12.1163 23.2557 12.1163 18.6934 12.1163 14.906H10.473V11.955H12.1163V10.0462C12.1163 8.67912 12.7632 6.54298 15.6052 6.54298L18.1669 6.55284V9.41746C18.1669 9.41746 16.6102 9.41746 16.3076 9.41746C16.0049 9.41746 15.5746 9.56942 15.5746 10.2213V11.9555H18.2085L17.9064 14.906Z" fill="#496AB2"/>
</svg>
