<svg width="98" height="34" viewBox="0 0 98 34" fill="none" xmlns="http://www.w3.org/2000/svg">
<path d="M0 7.04024C0 3.15202 2.25128 0 5.02837 0H92.9716C95.7487 0 98 3.15202 98 7.04024V26.9598C98 30.848 95.7487 34 92.9716 34H5.02837C2.25128 34 0 30.848 0 26.9598V7.04024Z" fill="#41D18F"/>
<path d="M5.73939 5.65205L1.24854 10.0746C0.962869 10.3561 0.4997 10.3561 0.214167 10.0746C-0.0713891 9.79339 -0.0713891 9.33727 0.214167 9.05607L4.18787 5.14278L0.214283 1.22963C-0.0712736 0.948296 -0.0712736 0.492225 0.214283 0.211003C0.499839 -0.0703342 0.962984 -0.0703342 1.24866 0.211003L5.7395 4.63363C5.88228 4.77431 5.95359 4.95849 5.95359 5.14276C5.95359 5.32712 5.88214 5.51144 5.73939 5.65205Z" transform="translate(74.3164 21.7144) scale(1 -1)" fill="white"/>
<path d="M5.73939 5.65205L1.24854 10.0746C0.962869 10.3561 0.4997 10.3561 0.214167 10.0746C-0.0713891 9.79339 -0.0713891 9.33727 0.214167 9.05607L4.18787 5.14278L0.214283 1.22963C-0.0712736 0.948296 -0.0712736 0.492225 0.214283 0.211003C0.499839 -0.0703342 0.962984 -0.0703342 1.24866 0.211003L5.7395 4.63363C5.88228 4.77431 5.95359 4.95849 5.95359 5.14276C5.95359 5.32712 5.88214 5.51144 5.73939 5.65205Z" transform="translate(79.7051 21.7142) scale(1 -1)" fill="white"/>
<path d="M8.31733 0.365227V2.31919H2.47149V6.22713H7.40534V8.19022H2.47149V13.5682H0V0.365227H8.31733Z" transform="translate(17.6094 9.14282)" fill="white"/>
<path d="M12.5129 4.20011V13.5682H10.2603V4.20011H12.5129ZM12.8503 1.47004C12.8503 1.66483 12.8108 1.84744 12.7318 2.01788C12.6527 2.18832 12.5463 2.33745 12.4126 2.46528C12.2849 2.59311 12.1329 2.6966 11.9566 2.77573C11.7803 2.84877 11.5918 2.8853 11.3912 2.8853C11.1966 2.8853 11.0112 2.84877 10.8348 2.77573C10.6646 2.6966 10.5157 2.59311 10.388 2.46528C10.2603 2.33745 10.1569 2.18832 10.0779 2.01788C10.0049 1.84744 9.96846 1.66483 9.96846 1.47004C9.96846 1.26917 10.0049 1.08046 10.0779 0.903937C10.1569 0.727411 10.2603 0.575233 10.388 0.447404C10.5157 0.319574 10.6646 0.219136 10.8348 0.146091C11.0112 0.0669586 11.1966 0.0273922 11.3912 0.0273922C11.5918 0.0273922 11.7803 0.0669586 11.9566 0.146091C12.1329 0.219136 12.2849 0.319574 12.4126 0.447404C12.5463 0.575233 12.6527 0.727411 12.7318 0.903937C12.8108 1.08046 12.8503 1.26917 12.8503 1.47004Z" transform="translate(17.6094 9.14282)" fill="white"/>
<path d="M15.0662 13.5682V4.20011H16.4433C16.7351 4.20011 16.9266 4.33707 17.0178 4.61099L17.1729 5.35058C17.3614 5.15579 17.559 4.97927 17.7657 4.821C17.9785 4.66274 18.2004 4.52578 18.4314 4.41012C18.6685 4.29446 18.9209 4.2062 19.1884 4.14533C19.4559 4.08446 19.7477 4.05402 20.0639 4.05402C20.5746 4.05402 21.0276 4.14229 21.4227 4.31881C21.8179 4.48925 22.1463 4.73274 22.4077 5.04927C22.6752 5.35971 22.8758 5.73407 23.0096 6.17234C23.1494 6.60453 23.2194 7.08237 23.2194 7.60586V13.5682H20.9668V7.60586C20.9668 7.03367 20.833 6.59235 20.5655 6.28191C20.304 5.96538 19.9088 5.80711 19.3799 5.80711C18.9908 5.80711 18.626 5.89538 18.2855 6.0719C17.945 6.24843 17.6228 6.48887 17.3188 6.79323V13.5682H15.0662Z" transform="translate(17.6094 9.14282)" fill="white"/>
<path d="M27.8315 4.20011V13.5682H25.5788V4.20011H27.8315ZM28.1689 1.47004C28.1689 1.66483 28.1294 1.84744 28.0503 2.01788C27.9713 2.18832 27.8649 2.33745 27.7311 2.46528C27.6035 2.59311 27.4515 2.6966 27.2751 2.77573C27.0988 2.84877 26.9104 2.8853 26.7097 2.8853C26.5152 2.8853 26.3297 2.84877 26.1534 2.77573C25.9832 2.6966 25.8342 2.59311 25.7065 2.46528C25.5788 2.33745 25.4755 2.18832 25.3964 2.01788C25.3235 1.84744 25.287 1.66483 25.287 1.47004C25.287 1.26917 25.3235 1.08046 25.3964 0.903937C25.4755 0.727411 25.5788 0.575233 25.7065 0.447404C25.8342 0.319574 25.9832 0.219136 26.1534 0.146091C26.3297 0.0669586 26.5152 0.0273922 26.7097 0.0273922C26.9104 0.0273922 27.0988 0.0669586 27.2751 0.146091C27.4515 0.219136 27.6035 0.319574 27.7311 0.447404C27.8649 0.575233 27.9713 0.727411 28.0503 0.903937C28.1294 1.08046 28.1689 1.26917 28.1689 1.47004Z" transform="translate(17.6094 9.14282)" fill="white"/>
<path d="M35.9388 6.02625C35.878 6.12364 35.8141 6.19365 35.7472 6.23626C35.6804 6.27278 35.5952 6.29104 35.4919 6.29104C35.3824 6.29104 35.2639 6.26061 35.1362 6.19973C35.0146 6.13886 34.8717 6.0719 34.7076 5.99886C34.5434 5.91973 34.3549 5.84972 34.1421 5.78885C33.9354 5.72798 33.6892 5.69755 33.4034 5.69755C32.9596 5.69755 32.61 5.7919 32.3546 5.9806C32.0993 6.1693 31.9716 6.41583 31.9716 6.72018C31.9716 6.92106 32.0354 7.0915 32.1631 7.2315C32.2969 7.36542 32.4702 7.48412 32.683 7.5876C32.9018 7.69108 33.1481 7.78543 33.4217 7.87065C33.6953 7.94978 33.9749 8.03805 34.2607 8.13544C34.5464 8.23283 34.8261 8.34544 35.0997 8.47327C35.3733 8.59502 35.6165 8.75328 35.8293 8.94807C36.0482 9.13677 36.2215 9.36504 36.3491 9.63287C36.4829 9.9007 36.5498 10.2233 36.5498 10.6007C36.5498 11.0512 36.4677 11.4681 36.3035 11.8516C36.1394 12.229 35.8992 12.5577 35.5831 12.8377C35.2669 13.1117 34.8748 13.3278 34.4066 13.486C33.9445 13.6382 33.4125 13.7143 32.8106 13.7143C32.4884 13.7143 32.1722 13.6839 31.8622 13.623C31.5582 13.5682 31.2633 13.4891 30.9775 13.3856C30.6979 13.2821 30.4364 13.1604 30.1932 13.0204C29.9561 12.8804 29.7464 12.7282 29.564 12.5638L30.0838 11.7055C30.1507 11.6021 30.2297 11.5229 30.3209 11.4681C30.4121 11.4134 30.5276 11.386 30.6675 11.386C30.8073 11.386 30.938 11.4255 31.0596 11.5047C31.1873 11.5838 31.3332 11.669 31.4974 11.7603C31.6615 11.8516 31.853 11.9368 32.0719 12.016C32.2969 12.0951 32.5796 12.1347 32.9201 12.1347C33.1876 12.1347 33.4156 12.1042 33.6041 12.0434C33.7986 11.9764 33.9567 11.8912 34.0783 11.7877C34.206 11.6842 34.2972 11.5655 34.3519 11.4316C34.4127 11.2916 34.4431 11.1486 34.4431 11.0025C34.4431 10.7833 34.3762 10.6038 34.2425 10.4638C34.1148 10.3238 33.9415 10.202 33.7226 10.0985C33.5098 9.99506 33.2636 9.90375 32.9839 9.82462C32.7103 9.7394 32.4276 9.64809 32.1358 9.55069C31.85 9.4533 31.5673 9.34069 31.2876 9.21286C31.014 9.07894 30.7678 8.91155 30.5489 8.71067C30.3361 8.5098 30.1628 8.26327 30.0291 7.97109C29.9014 7.6789 29.8375 7.32585 29.8375 6.91193C29.8375 6.52844 29.9135 6.16321 30.0655 5.81625C30.2175 5.46928 30.4395 5.16797 30.7313 4.91231C31.0292 4.65056 31.397 4.4436 31.8348 4.29142C32.2786 4.13316 32.7893 4.05402 33.3669 4.05402C34.0114 4.05402 34.5981 4.16055 35.1271 4.3736C35.656 4.58665 36.0968 4.86665 36.4495 5.21362L35.9388 6.02625Z" transform="translate(17.6094 9.14282)" fill="white"/>
<path d="M38.3468 13.5682V0H40.5994V5.21362C40.9642 4.86665 41.3655 4.58665 41.8033 4.3736C42.241 4.16055 42.7548 4.05402 43.3445 4.05402C43.8552 4.05402 44.3082 4.14229 44.7034 4.31881C45.0986 4.48925 45.4269 4.73274 45.6883 5.04927C45.9558 5.35971 46.1565 5.73407 46.2902 6.17234C46.4301 6.60453 46.5 7.08237 46.5 7.60586V13.5682H44.2474V7.60586C44.2474 7.03367 44.1136 6.59235 43.8461 6.28191C43.5847 5.96538 43.1895 5.80711 42.6605 5.80711C42.2714 5.80711 41.9066 5.89538 41.5661 6.0719C41.2257 6.24843 40.9034 6.48887 40.5994 6.79323V13.5682H38.3468Z" transform="translate(17.6094 9.14282)" fill="white"/>
</svg>
