<svg width="62" height="62" viewBox="0 0 62 62" fill="none" xmlns="http://www.w3.org/2000/svg">
<circle cx="31" cy="31" r="31" fill="#6FBFF6" fill-opacity="0.3"/>
<path d="M0.466068 17.557C0.466068 17.557 1.82276 19.6465 4.66625 21.4151C4.66625 21.4151 2.60687 3.16891 16.0251 0C12.5873 13.2273 20.398 16.9575 23.2452 9.96933C28 16.6245 24.3898 22.4307 24.3898 22.4307C26.3395 22.7252 27.9772 20.4922 27.9772 20.4922C27.9918 20.7673 28 21.0443 28 21.3232C28.0001 29.4289 21.7321 36 14 36C6.26802 36 0 29.4289 0 21.3231C0 20.0211 0.162577 18.759 0.466068 17.557Z" transform="translate(17 12)" fill="#FE8B68"/>
<path d="M0 10.2839C0 13.8388 2.74893 16.7206 6.13985 16.7206C9.53077 16.7206 12.2797 13.8388 12.2797 10.2839C12.2797 8.38118 11.4922 6.67132 10.2402 5.49295C7.86636 8.87393 4.48349 3.74527 7.11987 0C7.11987 0 0 0.935366 0 10.2839Z" transform="translate(24.8604 31.2793)" fill="#FEE8A1"/>
<path d="M0.466068 17.557C0.466068 17.557 1.82276 19.6465 4.66625 21.4151C4.66625 21.4151 2.60687 3.16891 16.0251 0C12.5873 13.2273 20.398 16.9575 23.2452 9.96933C28 16.6245 24.3898 22.4307 24.3898 22.4307C26.3395 22.7252 27.9772 20.4922 27.9772 20.4922C27.9918 20.7673 28 21.0443 28 21.3232C28.0001 29.4289 21.7321 36 14 36C6.26802 36 0 29.4289 0 21.3231C0 20.0211 0.162577 18.759 0.466068 17.557Z" transform="translate(17 12)" fill="#FE8B68"/>
<path d="M0 10.2839C0 13.8388 2.74893 16.7206 6.13985 16.7206C9.53077 16.7206 12.2797 13.8388 12.2797 10.2839C12.2797 8.38118 11.4922 6.67132 10.2402 5.49295C7.86636 8.87393 4.48349 3.74527 7.11987 0C7.11987 0 0 0.935366 0 10.2839Z" transform="translate(24.8604 31.2793)" fill="#FEE8A1"/>
</svg>
