<svg width="16" height="20" viewBox="0 0 16 20" fill="none" xmlns="http://www.w3.org/2000/svg">
<path d="M0.266325 9.75391C0.266325 9.75391 1.04158 10.9147 2.66643 11.8973C2.66643 11.8973 1.48964 1.76051 9.15719 0C7.19273 7.34848 11.656 9.42086 13.283 5.53852C16 9.23582 13.937 12.4615 13.937 12.4615C15.0511 12.6251 15.987 11.3846 15.987 11.3846C15.9953 11.5374 16 11.6912 16 11.8462C16 16.3494 12.4183 20 8.00002 20C3.58172 20 0 16.3494 0 11.8462C0 11.1228 0.0929013 10.4216 0.266325 9.75391Z" fill="#FE8B68"/>
<path d="M0 5.71328C0 7.6882 1.57082 9.28922 3.50848 9.28922C5.44615 9.28922 7.01697 7.6882 7.01697 5.71328C7.01697 4.65621 6.56698 3.70629 5.85156 3.05164C4.49506 4.92996 2.56199 2.0807 4.0685 0C4.0685 0 0 0.519648 0 5.71328Z" transform="translate(4.49219 10.7107)" fill="#FEE8A1"/>
</svg>
