<svg width="13" height="15" viewBox="0 0 13 15" fill="none" xmlns="http://www.w3.org/2000/svg">
<rect width="12.033" height="15" fill="black" fill-opacity="0"/>
<path d="M0.200293 7.31543C0.200293 7.31543 0.783332 8.18605 2.00533 8.92298C2.00533 8.92298 1.1203 1.32038 6.88679 0C5.40939 5.51136 8.76607 7.06564 9.98965 4.15389C12.033 6.92687 10.4815 9.34614 10.4815 9.34614C11.3194 9.46884 12.0232 8.53843 12.0232 8.53843C12.0295 8.65304 12.033 8.76844 12.033 8.88466C12.033 12.2621 9.33936 15 6.01652 15C2.69368 15 0 12.2621 0 8.88463C0 8.34211 0.0698677 7.81623 0.200293 7.31543Z" fill="#FE8B68"/>
<path d="M3.37793 12.3177C3.37793 13.7989 4.55929 14.9996 6.01655 14.9996C7.47381 14.9996 8.65517 13.7989 8.65517 12.3177C8.65517 11.5249 8.31675 10.8124 7.7787 10.3214C6.75852 11.7302 5.30472 9.59324 6.43772 8.03271C6.43772 8.03271 3.37793 8.42245 3.37793 12.3177Z" fill="#FEE8A1"/>
</svg>
