<svg width="12" height="15" viewBox="0 0 12 15" fill="none" xmlns="http://www.w3.org/2000/svg">
<rect width="12" height="15" fill="black" fill-opacity="0"/>
<path d="M0.199744 7.31543C0.199744 7.31543 0.781183 8.18605 1.99983 8.92298C1.99983 8.92298 1.11723 1.32038 6.8679 0C5.39455 5.51136 8.74203 7.06564 9.96225 4.15389C12 6.92687 10.4528 9.34614 10.4528 9.34614C11.2884 9.46884 11.9902 8.53843 11.9902 8.53843C11.9965 8.65304 12 8.76844 12 8.88466C12 12.2621 9.31375 15 6.00002 15C2.6863 15 0 12.2621 0 8.88463C0 8.34211 0.0696761 7.81623 0.199744 7.31543Z" fill="#A5A5A5"/>
<path d="M3.36914 12.3177C3.36914 13.7989 4.54725 14.9996 6.00051 14.9996C7.45376 14.9996 8.63187 13.7989 8.63187 12.3177C8.63187 11.5249 8.29439 10.8124 7.75782 10.3214C6.74044 11.7302 5.29064 9.59324 6.42052 8.03271C6.42052 8.03271 3.36914 8.42245 3.36914 12.3177Z" fill="#CCCCCC"/>
</svg>
