<svg width="16" height="16" viewBox="0 0 16 16" fill="none" xmlns="http://www.w3.org/2000/svg">
<path d="M13.6567 2.34311C12.1458 0.832155 10.1367 0 7.99994 0C5.86308 0 3.85413 0.832115 2.34314 2.34311C0.832151 3.85415 0 5.86315 0 7.99998C0 10.1369 0.832151 12.1459 2.34318 13.6569C3.85417 15.1679 5.86312 16 7.99998 16C10.1368 16 12.1458 15.1679 13.6568 13.6569C15.1678 12.1459 16 10.1369 16 7.99998C15.9999 5.86315 15.1677 3.85415 13.6567 2.34311ZM3.10302 7.99998C3.10302 5.2998 5.29977 3.10304 7.99994 3.10304C10.7001 3.10304 12.8969 5.2998 12.8969 7.99998C12.8969 10.7002 10.7001 12.897 7.99994 12.897C5.29977 12.897 3.10302 10.7002 3.10302 7.99998ZM15.2726 7.99998L13.6241 8.00002C13.6241 4.89879 11.1011 2.37576 7.99994 2.37576C7.81594 2.37576 7.63402 2.38493 7.45451 2.40228V0.747305C7.6351 0.734005 7.81702 0.727275 7.99994 0.727275C9.94255 0.727275 11.7689 1.48375 13.1425 2.85738C14.5162 4.23104 15.2726 6.0574 15.2726 7.99998Z" fill="#646464"/>
</svg>
