<svg width="31" height="21" viewBox="0 0 31 21" fill="none" xmlns="http://www.w3.org/2000/svg">
<path d="M0.00595026 9.70285C-0.0774128 13.7462 2.7075 17.6047 6.53843 18.8631C10.1469 20.0755 14.5836 19.1685 16.9848 16.0782C18.7379 13.9129 19.1363 11.0262 18.9465 8.32925C15.8562 8.3016 12.7659 8.31081 9.68025 8.31542C9.67523 9.41632 9.68025 10.513 9.68486 11.6139C11.5352 11.665 13.3859 11.6416 15.2363 11.6788C14.7692 13.2795 13.7051 14.7691 12.0902 15.3472C8.97229 16.7213 4.99391 14.9262 4.01282 11.6554C2.82856 8.5232 4.76728 4.74338 7.96817 3.83225C9.95296 3.13393 11.9977 3.92022 13.6959 4.95199C14.5564 4.14685 15.3615 3.28641 16.1524 2.41675C14.2229 0.802275 11.7434 -0.18761 9.19432 0.0298044C4.19295 0.0892895 -0.183816 4.70651 0.00595026 9.70285Z" transform="translate(0 0.849609)" fill="#DC4E41"/>
<path d="M2.78994 0C2.78072 0.920764 2.77109 1.84614 2.76648 2.76648C1.84111 2.7757 0.920764 2.78031 0 2.78491C0 3.70568 0 4.62141 0 5.54218C0.920764 5.54678 1.84613 5.55139 2.76648 5.56103C2.77569 6.48179 2.77569 7.40213 2.78491 8.32751C3.70107 8.32751 4.62183 8.3229 5.54217 8.32751C5.5472 7.40213 5.55139 6.48179 5.56103 5.55642C6.48137 5.55181 7.40674 5.5472 8.32751 5.54259C8.32751 4.62183 8.32751 3.7061 8.32751 2.78533C7.40716 2.78072 6.48179 2.77611 5.56103 2.7669C5.556 1.84614 5.5472 0.920763 5.54217 0.00041868C4.62183 -2.30134e-07 3.70567 0 2.78994 0Z" transform="translate(22.1709 6.38791)" fill="#DC4E41"/>
<path d="M0.0059508 9.70327C-0.183815 4.70693 4.19254 0.0897085 9.1939 0.0298044C11.743 -0.18761 14.2229 0.802275 16.152 2.41675C15.3607 3.28683 14.5555 4.14685 13.6955 4.95199C11.9972 3.92022 9.95254 3.13393 7.96775 3.83225C4.76644 4.7438 2.82773 8.52362 4.0124 11.6554C4.99349 14.9262 8.97188 16.7213 12.0898 15.3472C13.7043 14.7691 14.7688 13.2795 15.2358 11.6788C13.3855 11.642 11.5348 11.665 9.68444 11.6139C9.67983 10.513 9.67523 9.41632 9.67983 8.31542C12.7655 8.31081 15.8558 8.3016 18.9461 8.32925C19.1359 11.0266 18.7379 13.9133 16.9844 16.0782C14.5832 19.1685 10.1469 20.0755 6.53801 18.8631C2.70792 17.6052 -0.0774122 13.7466 0.0059508 9.70327Z" transform="translate(0 0.848618)" fill="white"/>
<path d="M2.78994 0C3.70609 0 4.62183 0 5.54217 0C5.5472 0.920764 5.556 1.84614 5.56103 2.76648C6.48137 2.7757 7.40674 2.78031 8.32751 2.78491C8.32751 3.70568 8.32751 4.62141 8.32751 5.54218C7.40716 5.54678 6.48179 5.55139 5.56103 5.556C5.55181 6.48137 5.5472 7.40172 5.54217 8.32709C4.62183 8.32248 3.70065 8.32709 2.78491 8.32709C2.77611 7.40172 2.77611 6.48137 2.76648 5.56061C1.84613 5.55097 0.920764 5.54678 0 5.54176C0 4.62099 0 3.70526 0 2.78449C0.920764 2.77988 1.84153 2.77528 2.76648 2.76606C2.77109 1.84614 2.7803 0.920764 2.78994 0Z" transform="translate(22.1709 6.38791)" fill="white"/>
</svg>
