<svg width="64" height="14" viewBox="0 0 64 14" fill="none" xmlns="http://www.w3.org/2000/svg">
<rect width="472.58" height="100.706" fill="black" fill-opacity="0" transform="translate(0 0.288086) scale(0.134681)"/>
<path d="M53.0421 3.8616L53.5772 1.11308C53.0196 0.841776 50.9971 0.288086 49.2191 0.288086C46.8028 0.288086 44.6457 0.952514 43.0876 2.20053C41.3701 3.60026 40.291 5.67106 40.291 8.29112C40.291 10.1249 41.0303 11.6033 42.1296 12.4704C43.2872 13.3973 44.8454 13.8513 46.6626 13.8513C48.4002 13.8513 50.1177 13.4371 51.2618 13.0828L52.6528 5.86375H49.3234L48.3666 10.8326C48.1063 10.9311 47.7676 10.9909 47.1483 10.9909C45.4107 10.9909 44.0523 10.1427 44.0523 8.05304C44.0523 6.21811 44.851 4.79955 45.9896 3.99117C46.777 3.46295 47.8607 3.16727 49.0789 3.16727C50.2769 3.16727 52.4633 3.62462 53.0421 3.86271V3.8616ZM63.6472 6.68432L56.0776 2.1363L54.1706 12.0119L63.6472 6.68432Z" fill="#2998D5"/>
<path d="M28.3808 5.2216L30.5537 10.6101C30.6054 10.6986 30.6347 10.7982 30.6389 10.9002C30.6281 10.9949 30.5947 11.0856 30.5413 11.1649C30.3479 11.5347 30.067 11.8531 29.7225 12.0929C29.4585 12.2839 29.16 12.4234 28.843 12.5037L29.1795 13.7573C29.7693 13.6631 30.3176 13.3988 30.7556 12.9976C31.4634 12.3952 32.0131 11.4185 32.8309 9.22478L34.3262 5.2216H32.7153L31.7865 8.35549C31.6743 8.74196 31.5622 9.17606 31.469 9.5127H31.432C31.3468 9.18049 31.2245 8.72867 31.1022 8.36767L30.0276 5.22049H28.3808V5.2216ZM25.913 9.02988C25.9138 9.14028 25.8971 9.25012 25.8636 9.35545C25.7796 9.59506 25.621 9.8023 25.4104 9.94751C25.1999 10.0927 24.9482 10.1684 24.6914 10.1638C24.2146 10.1638 23.8366 9.89807 23.8366 9.32001C23.8366 8.42747 24.8462 8.19824 25.913 8.2226V9.02988ZM27.378 7.55928C27.378 6.28136 26.8283 5.08761 24.9236 5.08761C23.9835 5.08761 23.214 5.3412 22.7743 5.60586L23.067 6.57039C23.5514 6.28719 24.1038 6.13729 24.6667 6.1363C25.7166 6.1363 25.8759 6.77525 25.8759 7.16062V7.25697C23.6773 7.24478 22.3469 7.99227 22.3469 9.47173C22.3469 10.3632 23.0199 11.2192 24.2157 11.2192C24.5497 11.2282 24.8814 11.1624 25.1859 11.0266C25.4904 10.8908 25.7597 10.6886 25.9735 10.4351H26.0105L26.1081 11.0863H27.4644C27.3994 10.6189 27.3705 10.1472 27.378 9.67548V7.55928ZM17.4997 4.112C17.7855 4.05832 18.0761 4.03419 18.3669 4.04003C19.4045 4.04003 20.0405 4.52174 20.0405 5.42647C20.0405 6.37881 19.3563 6.92143 18.2334 6.92143C17.9877 6.93078 17.7417 6.9107 17.5009 6.86163L17.4997 4.112ZM16.01 11.0885H17.4997V8.03102C17.7421 8.06762 17.9872 8.08355 18.2323 8.07864C19.2946 8.07864 20.2346 7.8018 20.8336 7.21045C21.298 6.77636 21.5426 6.1374 21.5426 5.36556C21.5512 5.02589 21.4834 4.68857 21.3439 4.37794C21.2044 4.06732 20.9968 3.79115 20.736 3.56939C20.211 3.1353 19.4045 2.90496 18.3063 2.90496C17.5373 2.89407 16.7689 2.9504 16.01 3.07328V11.0885ZM11.4792 6.17395C12.5057 6.17395 12.9207 7.22264 12.9207 8.13844C12.9207 9.32001 12.3228 10.1517 11.4624 10.1517C10.5471 10.1517 9.98506 9.29565 9.98506 8.15837C9.98955 7.18609 10.4169 6.17395 11.4792 6.17395ZM11.5163 5.08871C9.72145 5.08871 8.43927 6.27029 8.43927 8.19935C8.43927 10.0819 9.73379 11.2258 11.4187 11.2258C12.9331 11.2258 14.4721 10.2613 14.4721 8.103C14.471 6.31791 13.2864 5.08871 11.5163 5.08871ZM7.02249 6.60804H4.116V7.77743H5.57429V9.80283C5.37911 9.89917 4.97527 9.97116 4.43907 9.97116C2.7239 9.97116 1.57073 8.87374 1.57073 7.02995C1.57073 5.13633 2.80466 4.112 4.56247 4.112C5.20335 4.09395 5.84058 4.21334 6.4302 4.46194L6.76 3.26818C6.38084 3.08768 5.58776 2.88281 4.57368 2.88281C1.85678 2.88281 0.000260067 4.53392 0.000260067 7.10193C-0.0120793 8.33223 0.415312 9.40528 1.14782 10.0919C1.93306 10.8272 2.97966 11.1771 4.37177 11.1771C5.27496 11.1703 6.17073 11.0153 7.02249 10.7186V6.60804Z" fill="#231F20"/>
</svg>
