<svg width="24" height="25" viewBox="0 0 24 25" fill="none" xmlns="http://www.w3.org/2000/svg">
<rect width="14.7061" height="18.9957" fill="black" fill-opacity="0" transform="translate(0 10.5762) rotate(-45)"/>
<path d="M18.2691 8.52113C18.2637 7.88395 17.7428 7.36306 17.1057 7.35766C16.4685 7.35225 15.9564 7.86438 15.9618 8.50156L15.9578 8.0316C15.9524 7.39442 15.4315 6.87353 14.7943 6.86813C14.1571 6.86272 13.645 7.37486 13.6504 8.01203L13.6466 7.56972C13.6413 6.94418 13.1505 6.40733 12.5252 6.37974C11.8687 6.35078 11.3338 6.87113 11.339 7.52209L11.2929 2.08544C11.2872 1.41294 10.7071 0.869879 10.0222 0.925969C9.42514 0.97488 8.9807 1.48965 8.98575 2.08964L9.04683 9.29183C9.04807 9.43833 8.8711 9.50892 8.76726 9.40384C7.4972 8.11889 6.69489 7.76537 6.59871 7.71764C6.16277 7.50135 5.44082 7.51837 5.04136 8.13974C4.72101 8.61574 4.83505 9.26597 5.30016 9.61757C6.22573 10.3173 7.03476 11.1525 7.62019 12.1747C8.02731 12.8855 7.82189 13.1965 8.35348 14.1076C8.6386 14.5962 8.96697 14.9403 9.22902 15.171C9.5198 15.4269 9.69183 15.7911 9.69508 16.1753L9.70803 17.7012C10.0826 17.5755 9.76017 17.6558 16.6197 17.6882C16.7839 17.6896 16.9412 17.7211 17.0867 17.777L17.0735 16.2208C17.0696 15.7635 17.2212 15.3242 17.4892 14.9581C17.9758 14.2935 18.272 13.4796 18.2999 12.5945C18.3062 12.5008 18.3035 12.7566 18.2691 8.52113Z" fill="#F7CF9C"/>
<rect width="8.27034" height="15.1071" fill="black" fill-opacity="0" transform="translate(2.75293 10.7461) rotate(-45)"/>
<path d="M4.86505 8.63398C4.84522 8.84133 4.88613 9.0518 4.9823 9.23913C4.93574 9.03856 4.89656 8.83669 4.86505 8.63398Z" fill="#EAB883"/>
<path d="M8.48157 14.3124C8.73372 14.6939 9.00555 14.9743 9.22923 15.1712C9.52001 15.4271 9.69204 15.7913 9.69529 16.1755L9.70823 17.7014C10.0826 17.5757 9.74878 17.6559 16.6199 17.6884C16.784 17.6898 16.9413 17.7212 17.0869 17.7772L17.0737 16.221C17.0658 15.2915 17.5647 15.0021 17.9218 14.2189C15.1404 16.2296 11.3529 16.2552 8.48157 14.3124Z" fill="#EAB883"/>
<path d="M17.9517 18.936C17.9455 18.2061 17.3489 17.6094 16.6189 17.6032L10.1357 17.5482C9.40575 17.5421 8.8191 18.1287 8.82529 18.8586C8.83148 19.5886 9.42816 20.1853 10.1581 20.1915L16.6413 20.2464C17.3713 20.2526 17.9579 19.666 17.9517 18.936Z" fill="#EFEFEF"/>
<path d="M13.8231 17.5795L10.1357 17.5482C9.40575 17.5421 8.8191 18.1287 8.82529 18.8586C8.83148 19.5886 9.42816 20.1853 10.1581 20.1915L13.8455 20.2227C12.8687 19.6009 12.8556 18.1855 13.8231 17.5795Z" fill="#DDDDDD"/>
</svg>
