<svg width="29" height="29" viewBox="0 0 29 29" fill="none" xmlns="http://www.w3.org/2000/svg">
<rect width="29" height="29" fill="black" fill-opacity="0"/>
<rect width="29" height="29" fill="black" fill-opacity="0"/>
<rect width="29" height="29" fill="black" fill-opacity="0"/>
<path d="M14.5 0C14.0308 0 13.6504 0.380398 13.6504 0.849609C13.6504 1.31882 14.0308 1.69922 14.5 1.69922C21.5584 1.69922 27.3008 7.44162 27.3008 14.5C27.3008 21.5584 21.5584 27.3008 14.5 27.3008C7.44162 27.3008 1.69922 21.5584 1.69922 14.5C1.69922 11.0813 3.13619 7.78061 5.60838 5.37882V6.85352C5.60838 7.32273 5.98878 7.70312 6.45799 7.70312C6.92721 7.70312 7.30664 7.32273 7.30664 6.85352V3.45508C7.30664 2.98587 6.92721 2.60547 6.45799 2.60547H3.03027C2.56106 2.60547 2.18066 2.98587 2.18066 3.45508C2.18066 3.92429 2.56106 4.29902 3.03027 4.29902H4.27705C1.52975 7.04168 0 10.7096 0 14.5C0 22.4716 6.52551 29 14.5 29C22.4716 29 29 22.4745 29 14.5C29 6.5284 22.4745 0 14.5 0Z" fill="#74A2F9"/>
<rect width="18.6914" height="18.6914" fill="black" fill-opacity="0" transform="translate(5.1543 5.15527)"/>
<rect width="18.6914" height="18.6914" fill="black" fill-opacity="0" transform="translate(5.1543 5.15527)"/>
<path d="M14.5 5.15527C9.34712 5.15527 5.1543 9.34946 5.1543 14.501C5.1543 19.6542 9.34882 23.8467 14.5 23.8467C19.6529 23.8467 23.8457 19.6525 23.8457 14.501C23.8457 9.34776 19.6512 5.15527 14.5 5.15527ZM20.4716 19.271L19.9069 18.7063C19.5752 18.3745 19.0372 18.3745 18.7054 18.7063C18.3736 19.0381 18.3736 19.576 18.7054 19.9078L19.2701 20.4725C18.1699 21.3531 16.8223 21.9364 15.3496 22.1V21.2979C15.3496 20.8286 14.9692 20.4482 14.5 20.4482C14.0308 20.4482 13.6504 20.8286 13.6504 21.2979V22.1C12.1777 21.9364 10.8301 21.3531 9.72995 20.4725L10.2947 19.9078C10.6265 19.576 10.6265 19.0381 10.2947 18.7063C9.96292 18.3745 9.42494 18.3745 9.09314 18.7063L8.52844 19.271C7.64784 18.1708 7.0645 16.8232 6.90098 15.3506H7.70312C8.17234 15.3506 8.55273 14.9702 8.55273 14.501C8.55273 14.0318 8.17234 13.6514 7.70312 13.6514H6.90098C7.06456 12.1787 7.64784 10.8311 8.52844 9.73093L9.09314 10.2956C9.42489 10.6274 9.96292 10.6274 10.2947 10.2956C10.6265 9.96384 10.6265 9.42592 10.2947 9.09412L9.72995 8.52941C10.8301 7.64882 12.1777 7.06554 13.6504 6.90196V7.7041C13.6504 8.17331 14.0308 8.55371 14.5 8.55371C14.9692 8.55371 15.3496 8.17331 15.3496 7.7041V6.90196C16.8223 7.06554 18.1699 7.64882 19.27 8.52941L18.7053 9.09412C18.3735 9.42592 18.3735 9.96384 18.7053 10.2956C19.0371 10.6274 19.5751 10.6274 19.9069 10.2956L20.4715 9.73093C21.3522 10.8311 21.9355 12.1787 22.099 13.6514H21.2969C20.8277 13.6514 20.4473 14.0318 20.4473 14.501C20.4473 14.9702 20.8277 15.3449 21.2969 15.3449H22.099C21.9354 16.8176 21.3522 18.1708 20.4716 19.271Z" fill="#74A2F9"/>
<rect width="3.39847" height="6.79685" fill="black" fill-opacity="0" transform="translate(13.6523 10.252)"/>
<rect width="3.39847" height="6.79685" fill="black" fill-opacity="0" transform="translate(13.6523 10.252)"/>
<path d="M16.802 15.5984L15.3516 14.1481V11.1016C15.3516 10.6324 14.9712 10.252 14.502 10.252C14.0327 10.252 13.6523 10.6324 13.6523 11.1016V14.5C13.6523 14.7253 13.7419 14.9414 13.9012 15.1007L15.6004 16.7999C15.9322 17.1317 16.4702 17.1317 16.802 16.7999C17.1338 16.4681 17.1338 15.9302 16.802 15.5984Z" fill="#74A2F9"/>
</svg>
