<svg width="16" height="16" viewBox="0 0 16 16" fill="none" xmlns="http://www.w3.org/2000/svg">
<path d="M2.66667 0C1.19644 0 0 1.19644 0 2.66667C0 4.13689 1.19644 5.33333 2.66667 5.33333C4.13689 5.33333 5.33333 4.13689 5.33333 2.66667C5.33333 1.19644 4.13689 0 2.66667 0Z" transform="translate(5.33398 5.33334)" fill="url(#paint0_linear)" fill-opacity="0.5"/>
<path d="M15.1763 6.22222H14.5784C14.4258 5.656 14.2015 5.11407 13.9087 4.60533L14.3313 4.18281C14.4868 4.02726 14.5724 3.82015 14.5724 3.6003C14.5724 3.38015 14.4868 3.17333 14.3313 3.01748L12.9822 1.66844C12.6711 1.35763 12.1286 1.35704 11.8169 1.66844L11.3944 2.09096C10.8859 1.79852 10.344 1.57422 9.77778 1.42163V0.823704C9.77778 0.369481 9.4083 0 8.95407 0H7.04593C6.5917 0 6.22222 0.369481 6.22222 0.823704V1.42163C5.656 1.57422 5.11407 1.79852 4.60533 2.09126L4.18281 1.66874C3.87141 1.35704 3.32859 1.35763 3.01748 1.66874L1.66844 3.01778C1.51289 3.17333 1.42726 3.38044 1.42726 3.60059C1.42726 3.82044 1.51289 4.02726 1.66844 4.18311L2.09096 4.60563C1.79852 5.11407 1.57393 5.656 1.42163 6.22222H0.823704C0.369481 6.22222 0 6.5917 0 7.04593V8.95348C0 9.408 0.369481 9.77778 0.823704 9.77778H1.42163C1.57422 10.344 1.79852 10.8859 2.09126 11.3947L1.66874 11.8172C1.51319 11.9727 1.42756 12.1799 1.42756 12.3997C1.42756 12.6199 1.51319 12.8267 1.66874 12.9825L3.01778 14.3316C3.32889 14.643 3.8717 14.6433 4.18311 14.3316L4.60563 13.909C5.11437 14.2015 5.6563 14.4261 6.22252 14.5787V15.1763C6.22222 15.6302 6.5917 16 7.04593 16H8.95378C9.408 16 9.77748 15.6302 9.77748 15.176V14.5784C10.3437 14.4258 10.8856 14.2015 11.3944 13.9087L11.8169 14.3313C12.1286 14.643 12.6708 14.6424 12.9822 14.3313L14.3313 12.9822C14.4868 12.8267 14.5724 12.6196 14.5724 12.3994C14.5724 12.1796 14.4868 11.9727 14.3313 11.8169L13.9087 11.3944C14.2012 10.8856 14.4258 10.3437 14.5784 9.77748H15.1763C15.6305 9.77748 16 9.4077 16 8.95348V7.04593C16 6.5917 15.6305 6.22222 15.1763 6.22222ZM11.5556 8C11.5556 9.96059 9.96059 11.5556 8 11.5556C6.03941 11.5556 4.44444 9.96059 4.44444 8C4.44444 6.03941 6.03941 4.44444 8 4.44444C9.96059 4.44444 11.5556 6.03941 11.5556 8Z" fill="url(#paint1_linear)" fill-opacity="0.5"/>
<defs>
<linearGradient id="paint0_linear" x2="1" gradientUnits="userSpaceOnUse" gradientTransform="translate(5.33333) scale(5.33333) rotate(90)">
<stop stop-color="#5C68CA"/>
<stop offset="1" stop-color="#4485E5"/>
</linearGradient>
<linearGradient id="paint1_linear" x2="1" gradientUnits="userSpaceOnUse" gradientTransform="translate(16) scale(16) rotate(90)">
<stop stop-color="#5C68CA"/>
<stop offset="1" stop-color="#4485E5"/>
</linearGradient>
</defs>
</svg>
