<svg width="29" height="29" viewBox="0 0 29 29" fill="none" xmlns="http://www.w3.org/2000/svg">
<g opacity="0.8">
<rect width="28.6802" height="28.7983" fill="black" fill-opacity="0"/>
<rect width="28.6802" height="28.7983" fill="black" fill-opacity="0"/>
<rect width="28.6802" height="28.7983" fill="black" fill-opacity="0"/>
<rect width="28.6802" height="28.7983" fill="black" fill-opacity="0"/>
<path fill-rule="evenodd" clip-rule="evenodd" d="M14.3403 0C6.43311 0 0 6.45947 0 14.3989C0 22.3379 6.43311 28.7983 14.3403 28.7983C22.2466 28.7983 28.6802 22.3379 28.6802 14.3989C28.6802 6.45947 22.248 0 14.3403 0ZM22.4956 12.7188V19.4238C22.4956 21.1699 21.0815 22.5894 19.3438 22.5894H9.33691C7.59814 22.5894 6.18457 21.1699 6.18457 19.4238V12.7188V9.37549C6.18457 7.62988 7.59814 6.21045 9.33691 6.21045H19.3428C21.0815 6.21045 22.4956 7.62988 22.4956 9.37549V12.7188ZM20.6084 8.45654V10.873L17.8525 10.8823L17.8433 8.10596L20.2485 8.09814L20.6084 8.09717V8.45654ZM17.2114 14.3994C17.2114 15.9888 15.9214 17.2817 14.3394 17.2817C12.7568 17.2817 11.4678 15.9883 11.4697 14.3984C11.4702 13.771 11.6729 13.1914 12.0127 12.7183C12.5356 11.9922 13.3828 11.5166 14.3413 11.5166C15.2988 11.5166 16.147 11.9927 16.6685 12.7188C17.0068 13.1924 17.2114 13.7715 17.2114 14.3994ZM14.3394 18.8789C16.7998 18.8789 18.8003 16.8687 18.8003 14.3994C18.8003 13.8057 18.6812 13.2378 18.4688 12.7192H20.9048V19.4238C20.9048 20.2905 20.2031 20.9922 19.3418 20.9922H9.33545C8.47314 20.9922 7.77246 20.2905 7.77246 19.4238V12.7192H10.207C9.99707 13.2378 9.87891 13.8057 9.87891 14.3994C9.87891 16.8687 11.8794 18.8789 14.3394 18.8789Z" fill="#8BA4CB"/>
</g>
</svg>
