<svg width="40" height="40" viewBox="0 0 40 40" fill="none" xmlns="http://www.w3.org/2000/svg">
<path fill-rule="evenodd" clip-rule="evenodd" d="M35.0215 21.501V18.54L21.4805 5H18.5625L5.02148 18.54V21.501L18.5205 35H21.5225L35.0215 21.501ZM17.958 37L20.0215 39.0635L22.085 37H37.0215V22.0625L39.0635 20.0205L37.0215 17.9785V3H22.043L20.0215 0.978516L18 3H3.02148V17.9785L0.979492 20.0205L3.02148 22.0625V37H17.958ZM15.958 35L5.02148 24.0625V35H15.958ZM5.02148 15.9785L16 5H5.02148V15.9785ZM24.043 5L35.0215 15.9785V5H24.043ZM35.0215 24.0625V35H24.085L35.0215 24.0625Z" fill="#538CF8" fill-opacity="0.8"/>
</svg>
