<svg width="16" height="16" viewBox="0 0 16 16" fill="none" xmlns="http://www.w3.org/2000/svg">
<path d="M8 0C3.58318 0 0 3.58318 0 8C0 12.4168 3.58318 16 8 16C12.4168 16 16 12.4168 16 8C16 3.58318 12.4168 0 8 0Z" fill="#646464"/>
<path d="M0.0731261 1.36015C0.102377 1.41865 0.131627 1.47715 0.160877 1.52102C0.190128 1.5649 0.234004 1.60878 0.263254 1.65265C0.30713 1.69653 0.351005 1.7404 0.409506 1.78428C0.453382 1.81353 0.511883 1.8574 0.585009 1.87203C0.64351 1.90128 0.702011 1.9159 0.775137 1.93053C0.848263 1.94516 0.906764 1.94516 0.965265 1.94516C1.02377 1.94516 1.09689 1.94516 1.15539 1.93053C1.21389 1.9159 1.27239 1.90128 1.31627 1.87203H1.3309C1.3894 1.84278 1.4479 1.81353 1.5064 1.76965C1.55027 1.7404 1.59415 1.69653 1.63803 1.65265L1.65265 1.63803C1.69653 1.59415 1.72578 1.55027 1.75503 1.5064C1.78428 1.46252 1.81353 1.41865 1.82815 1.36015C1.82815 1.34552 1.82815 1.34552 1.84278 1.3309C1.87203 1.2724 1.88665 1.19927 1.90128 1.14077C1.9159 1.08227 1.9159 1.00914 1.9159 0.95064C1.9159 0.892139 1.9159 0.819013 1.90128 0.760512C1.88665 0.702011 1.87203 0.64351 1.84278 0.570384C1.7989 0.468007 1.7404 0.380256 1.66728 0.30713C1.65265 0.292505 1.65265 0.292505 1.63803 0.277879C1.59415 0.234004 1.55027 0.204753 1.49177 0.160878C1.43327 0.131627 1.3894 0.102377 1.3309 0.0731261C1.27239 0.0438757 1.21389 0.0292505 1.15539 0.0146253C1.08227 5.55729e-08 1.02377 0 0.965265 0C0.906764 0 0.833638 5.55729e-08 0.775137 0.0146253C0.716636 0.0292505 0.658135 0.0438757 0.599634 0.0731261H0.585009C0.526508 0.102377 0.468008 0.131627 0.424132 0.160878C0.365631 0.204753 0.321755 0.234004 0.27788 0.277879C0.234004 0.321755 0.190128 0.365631 0.160877 0.409507C0.131627 0.453382 0.102377 0.511883 0.0731261 0.570384C0.0438757 0.628885 0.0292502 0.687386 0.014625 0.745887C-2.23381e-07 0.819013 0 0.877514 0 0.936015C0 0.994516 -2.23381e-07 1.06764 0.014625 1.12614C0.0292502 1.24314 0.0585009 1.30165 0.0731261 1.36015Z" transform="translate(7.01953 3.86107)" fill="white"/>
<path d="M2.63254 3.96344H2.29616V0.380256C2.29616 0.175503 2.13528 0 1.9159 0H0.380256C0.175503 0 0 0.160877 0 0.380256V1.17002C0 1.37477 0.160877 1.55027 0.380256 1.55027H0.687385V3.97806H0.380256C0.175503 3.97806 0 4.13894 0 4.35832V5.14808C0 5.35283 0.160877 5.52834 0.380256 5.52834H2.63254C2.83729 5.52834 3.0128 5.36746 3.0128 5.14808V4.35832C3.0128 4.13894 2.83729 3.96344 2.63254 3.96344Z" transform="translate(6.49316 6.6106)" fill="white"/>
</svg>
