<svg width="35" height="36" viewBox="0 0 35 36" fill="none" xmlns="http://www.w3.org/2000/svg">
<rect width="35" height="36" fill="black" fill-opacity="0"/>
<rect width="35" height="36" fill="black" fill-opacity="0"/>
<rect width="35" height="36" fill="black" fill-opacity="0"/>
<path d="M34.0749 0H0.92511C0.4163 0 0 0.414764 0 0.921698C0 1.42863 0.4163 1.8434 0.92511 1.8434H2.92181V35.0553C2.92181 35.3932 3.10683 35.7081 3.40749 35.8694C3.70815 36.0307 4.07048 36.0154 4.35573 35.8233L8.37225 33.1581L12.4042 35.831C12.7126 36.0384 13.1211 36.0384 13.4295 35.831L17.446 33.1658L21.478 35.8387C21.7863 36.0461 22.1949 36.0461 22.5033 35.8387L26.5198 33.1735L30.5518 35.8464C30.7059 35.9462 30.8833 36 31.0606 36C31.207 36 31.3612 35.9616 31.5 35.8925C31.8007 35.7312 31.9857 35.4163 31.9857 35.0783L31.9703 1.86644H34.0749C34.5837 1.86644 35 1.45167 35 0.944741C35 0.437807 34.5837 0 34.0749 0ZM30.1432 33.3348L27.0363 31.2763C26.728 31.0689 26.3194 31.0689 26.011 31.2763L21.9945 33.9492L17.9626 31.2763C17.6542 31.0689 17.2456 31.0689 16.9372 31.2763L12.9207 33.9415L8.88877 31.2763C8.5804 31.0689 8.17181 31.0689 7.86344 31.2763L4.77203 33.3271V1.83572H30.1355L30.1432 33.3348Z" fill="#538CF8" fill-opacity="0.8"/>
<path d="M9.02863 14.7164H18.7192C19.228 14.7164 19.6443 14.3017 19.6443 13.7947C19.6443 13.2878 19.228 12.873 18.7192 12.873H9.02863C8.51982 12.873 8.10352 13.2878 8.10352 13.7947C8.10352 14.3017 8.51211 14.7164 9.02863 14.7164Z" fill="#538CF8" fill-opacity="0.8"/>
<path d="M9.02863 17.9196H16.2907C16.7996 17.9196 17.2158 17.5048 17.2158 16.9979C17.2158 16.4909 16.7996 16.0762 16.2907 16.0762H9.02863C8.51982 16.0762 8.10352 16.4909 8.10352 16.9979C8.10352 17.5048 8.51211 17.9196 9.02863 17.9196Z" fill="#538CF8" fill-opacity="0.8"/>
<path d="M23.5589 14.7164H25.9796C26.4884 14.7164 26.9047 14.3017 26.9047 13.7947C26.9047 13.2878 26.4884 12.873 25.9796 12.873H23.5589C23.0501 12.873 22.6338 13.2878 22.6338 13.7947C22.6338 14.3017 23.0424 14.7164 23.5589 14.7164Z" fill="#538CF8" fill-opacity="0.8"/>
<path d="M23.5589 17.9196H25.9796C26.4884 17.9196 26.9047 17.5048 26.9047 16.9979C26.9047 16.4909 26.4884 16.0762 25.9796 16.0762H23.5589C23.0501 16.0762 22.6338 16.4909 22.6338 16.9979C22.6338 17.5048 23.0424 17.9196 23.5589 17.9196Z" fill="#538CF8" fill-opacity="0.8"/>
<path d="M9.02863 7.31996H18.7192C19.228 7.31996 19.6443 6.90519 19.6443 6.39826C19.6443 5.89133 19.228 5.47656 18.7192 5.47656H9.02863C8.51982 5.47656 8.10352 5.89133 8.10352 6.39826C8.10352 6.90519 8.51211 7.31996 9.02863 7.31996Z" fill="#538CF8" fill-opacity="0.8"/>
<path d="M9.02863 10.5153H16.2907C16.7996 10.5153 17.2158 10.1005 17.2158 9.59357C17.2158 9.08664 16.7996 8.67188 16.2907 8.67188H9.02863C8.51982 8.67188 8.10352 9.08664 8.10352 9.59357C8.10352 10.1005 8.51211 10.5153 9.02863 10.5153Z" fill="#538CF8" fill-opacity="0.8"/>
<path d="M23.5589 7.31996H25.9796C26.4884 7.31996 26.9047 6.90519 26.9047 6.39826C26.9047 5.89133 26.4884 5.47656 25.9796 5.47656H23.5589C23.0501 5.47656 22.6338 5.89133 22.6338 6.39826C22.6338 6.90519 23.0424 7.31996 23.5589 7.31996Z" fill="#538CF8" fill-opacity="0.8"/>
<path d="M23.5589 10.5153H25.9796C26.4884 10.5153 26.9047 10.1005 26.9047 9.59357C26.9047 9.08664 26.4884 8.67188 25.9796 8.67188H23.5589C23.0501 8.67188 22.6338 9.08664 22.6338 9.59357C22.6338 10.1005 23.0424 10.5153 23.5589 10.5153Z" fill="#538CF8" fill-opacity="0.8"/>
<path d="M9.02863 22.2057H18.7192C19.228 22.2057 19.6443 21.7909 19.6443 21.284C19.6443 20.7771 19.228 20.3623 18.7192 20.3623H9.02863C8.51982 20.3623 8.10352 20.7771 8.10352 21.284C8.10352 21.7909 8.51211 22.2057 9.02863 22.2057Z" fill="#538CF8" fill-opacity="0.8"/>
<path d="M9.02863 25.4H16.2907C16.7996 25.4 17.2158 24.9853 17.2158 24.4783C17.2158 23.9714 16.7996 23.5566 16.2907 23.5566H9.02863C8.51982 23.5566 8.10352 23.9714 8.10352 24.4783C8.10352 24.9853 8.51211 25.4 9.02863 25.4Z" fill="#538CF8" fill-opacity="0.8"/>
<path d="M23.5589 22.2057H25.9796C26.4884 22.2057 26.9047 21.7909 26.9047 21.284C26.9047 20.7771 26.4884 20.3623 25.9796 20.3623H23.5589C23.0501 20.3623 22.6338 20.7771 22.6338 21.284C22.6338 21.7909 23.0424 22.2057 23.5589 22.2057Z" fill="#538CF8" fill-opacity="0.8"/>
<path d="M23.5589 25.4H25.9796C26.4884 25.4 26.9047 24.9853 26.9047 24.4783C26.9047 23.9714 26.4884 23.5566 25.9796 23.5566H23.5589C23.0501 23.5566 22.6338 23.9714 22.6338 24.4783C22.6338 24.9853 23.0424 25.4 23.5589 25.4Z" fill="#538CF8" fill-opacity="0.8"/>
</svg>
