<svg width="11" height="14" viewBox="0 0 11 14" fill="none" xmlns="http://www.w3.org/2000/svg">
<path d="M8.70385 0H8.3109V10.0571C8.3109 10.7253 7.78883 11.2691 7.1475 11.2691H3.16606H0V11.6419C0 12.0688 0.332604 12.4153 0.742395 12.4153H4.72242H8.70244C9.11224 12.4153 9.44483 12.0688 9.44483 11.6419V0.773401C9.44484 0.346495 9.11364 0 8.70385 0Z" transform="translate(1.55566 1.58459)" fill="white"/>
<path d="M4.72102 12.4153H8.70104C9.11083 12.4153 9.44344 12.0689 9.44344 11.642V1.58481V0.773401C9.44344 0.346495 9.11083 0 8.70104 0H4.72102H3.39762V0.255851C3.40041 0.282167 3.40183 0.309945 3.40183 0.337723V2.02341V2.45617C3.40183 3.05705 2.93309 3.54536 2.3563 3.54536H1.94089H0.322781C0.30173 3.54536 0.279275 3.5439 0.258224 3.54244H0V11.642C0 12.0689 0.332604 12.4153 0.742395 12.4153H1.55636H4.72102ZM4.87118 9.78666H2.2763C2.08264 9.78666 1.92546 9.6229 1.92546 9.42116C1.92546 9.21939 2.08264 9.05566 2.2763 9.05566H4.87258C5.06625 9.05566 5.22343 9.21939 5.22343 9.42116C5.22343 9.6229 5.06485 9.78666 4.87118 9.78666ZM7.46746 7.92116H2.2763C2.08264 7.92116 1.92546 7.7574 1.92546 7.55566C1.92546 7.35388 2.08264 7.19015 2.2763 7.19015H7.46746C7.66113 7.19015 7.81831 7.35388 7.81831 7.55566C7.81831 7.7574 7.66113 7.92116 7.46746 7.92116ZM2.2763 5.20912H7.46746C7.66113 5.20912 7.81831 5.37287 7.81831 5.57462C7.81831 5.77638 7.66113 5.94013 7.46746 5.94013H2.2763C2.08264 5.94013 1.92546 5.77638 1.92546 5.57462C1.92546 5.37287 2.08264 5.20912 2.2763 5.20912Z" fill="white"/>
<path d="M0.313715 3.09506H2.34723C2.34864 3.09506 2.35144 3.09506 2.35285 3.09506C2.69247 3.09214 2.96753 2.80559 2.97034 2.45178C2.97034 2.45032 2.97034 2.4474 2.97034 2.44593V0.326027C2.97034 0.130118 2.81597 0 2.65599 0C2.57881 0 2.50162 0.0292401 2.43706 0.0964923L0.0919787 2.5395C-0.104496 2.74418 0.0344396 3.09506 0.313715 3.09506Z" transform="translate(0.00878906 0.0115967)" fill="white"/>
</svg>
