<svg width="44" height="20" viewBox="0 0 44 20" fill="none" xmlns="http://www.w3.org/2000/svg">
<rect width="44" height="20" rx="1" fill="#3B75FF"/>
<path d="M20.745 10.505V13.305C20.3817 13.565 19.995 13.76 19.585 13.89C19.175 14.0167 18.7283 14.08 18.245 14.08C17.665 14.08 17.14 13.99 16.67 13.81C16.2033 13.63 15.805 13.3783 15.475 13.055C15.145 12.7317 14.89 12.345 14.71 11.895C14.5333 11.445 14.445 10.95 14.445 10.41C14.445 9.86667 14.53 9.37 14.7 8.92C14.8733 8.46667 15.12 8.08 15.44 7.76C15.76 7.43667 16.1467 7.18667 16.6 7.01C17.0567 6.83 17.5683 6.74 18.135 6.74C18.4217 6.74 18.6867 6.76167 18.93 6.805C19.1767 6.84833 19.405 6.91 19.615 6.99C19.825 7.07 20.0183 7.16667 20.195 7.28C20.375 7.39 20.5417 7.515 20.695 7.655L20.39 8.135C20.3433 8.21167 20.2817 8.26 20.205 8.28C20.1283 8.3 20.045 8.28167 19.955 8.225C19.8683 8.175 19.7717 8.11667 19.665 8.05C19.5617 7.98333 19.4367 7.92167 19.29 7.865C19.1467 7.80833 18.9783 7.76 18.785 7.72C18.5917 7.68 18.3633 7.66 18.1 7.66C17.7067 7.66 17.3517 7.725 17.035 7.855C16.7183 7.98167 16.4483 8.165 16.225 8.405C16.0017 8.645 15.83 8.935 15.71 9.275C15.59 9.61167 15.53 9.99 15.53 10.41C15.53 10.85 15.5933 11.245 15.72 11.595C15.8467 11.9417 16.025 12.2367 16.255 12.48C16.4883 12.72 16.77 12.9033 17.1 13.03C17.4333 13.1567 17.805 13.22 18.215 13.22C18.375 13.22 18.5233 13.2117 18.66 13.195C18.8 13.175 18.9333 13.1483 19.06 13.115C19.1867 13.0817 19.3083 13.04 19.425 12.99C19.545 12.94 19.6633 12.885 19.78 12.825V11.32H18.72C18.6533 11.32 18.5983 11.3 18.555 11.26C18.515 11.22 18.495 11.17 18.495 11.11V10.505H20.745ZM28.8699 10.41C28.8699 10.9467 28.7833 11.44 28.6099 11.89C28.4399 12.3367 28.1983 12.7233 27.8849 13.05C27.5716 13.3733 27.1966 13.625 26.7599 13.805C26.3233 13.985 25.8383 14.075 25.3049 14.075C24.7749 14.075 24.2899 13.985 23.8499 13.805C23.4133 13.625 23.0383 13.3733 22.7249 13.05C22.4149 12.7233 22.1733 12.3367 21.9999 11.89C21.8266 11.44 21.7399 10.9467 21.7399 10.41C21.7399 9.87667 21.8266 9.385 21.9999 8.935C22.1733 8.485 22.4149 8.09833 22.7249 7.775C23.0383 7.44833 23.4133 7.195 23.8499 7.015C24.2899 6.83167 24.7749 6.74 25.3049 6.74C25.8383 6.74 26.3233 6.83167 26.7599 7.015C27.1966 7.195 27.5716 7.44833 27.8849 7.775C28.1983 8.09833 28.4399 8.485 28.6099 8.935C28.7833 9.385 28.8699 9.87667 28.8699 10.41ZM27.7799 10.41C27.7799 9.98333 27.7216 9.6 27.6049 9.26C27.4883 8.92 27.3216 8.63167 27.1049 8.395C26.8916 8.15833 26.6316 7.97667 26.3249 7.85C26.0216 7.72333 25.6816 7.66 25.3049 7.66C24.9283 7.66 24.5866 7.72333 24.2799 7.85C23.9766 7.97667 23.7166 8.15833 23.4999 8.395C23.2833 8.63167 23.1166 8.92 22.9999 9.26C22.8833 9.6 22.8249 9.98333 22.8249 10.41C22.8249 10.84 22.8833 11.225 22.9999 11.565C23.1166 11.9017 23.2833 12.1883 23.4999 12.425C23.7166 12.6617 23.9766 12.8433 24.2799 12.97C24.5866 13.0933 24.9283 13.155 25.3049 13.155C25.6816 13.155 26.0216 13.0933 26.3249 12.97C26.6316 12.8433 26.8916 12.6617 27.1049 12.425C27.3216 12.1883 27.4883 11.9017 27.6049 11.565C27.7216 11.225 27.7799 10.84 27.7799 10.41Z" fill="white"/>
</svg>
