<svg width="26" height="30" viewBox="0 0 26 30" fill="none" xmlns="http://www.w3.org/2000/svg">
<path d="M11.11 9.5225L9.7255 5.902C9.62583 5.655 9.52617 5.343 9.4265 4.966C9.37883 5.15233 9.329 5.32567 9.277 5.486C9.22933 5.64633 9.18167 5.78933 9.134 5.915L7.756 9.5225H11.11ZM13.8465 13H12.7805C12.6592 13 12.5595 12.9697 12.4815 12.909C12.4035 12.8483 12.3472 12.7703 12.3125 12.675L11.487 10.5105H7.3725L6.547 12.675C6.51667 12.7573 6.46033 12.8332 6.378 12.9025C6.29567 12.9675 6.196 13 6.079 13H5.013L8.731 3.666H10.1285L13.8465 13ZM18.3008 10.0685C17.7852 10.0858 17.3475 10.127 16.9878 10.192C16.6282 10.2527 16.3357 10.335 16.1103 10.439C15.885 10.543 15.7225 10.6665 15.6228 10.8095C15.5232 10.9482 15.4733 11.1042 15.4733 11.2775C15.4733 11.4422 15.4993 11.5852 15.5513 11.7065C15.6077 11.8235 15.6813 11.921 15.7723 11.999C15.8677 12.0727 15.9782 12.1268 16.1038 12.1615C16.2295 12.1962 16.366 12.2135 16.5133 12.2135C16.7083 12.2135 16.886 12.194 17.0463 12.155C17.211 12.116 17.3648 12.0618 17.5078 11.9925C17.6508 11.9188 17.7873 11.83 17.9173 11.726C18.0473 11.622 18.1752 11.5028 18.3008 11.3685V10.0685ZM14.5828 7.319C14.9512 6.968 15.3498 6.70583 15.7788 6.5325C16.2122 6.35917 16.6867 6.2725 17.2023 6.2725C17.5793 6.2725 17.913 6.33533 18.2033 6.461C18.4937 6.58233 18.7385 6.7535 18.9378 6.9745C19.1372 7.1955 19.2867 7.45983 19.3863 7.7675C19.4903 8.07517 19.5423 8.41533 19.5423 8.788V13H18.9768C18.8512 13 18.7558 12.9805 18.6908 12.9415C18.6258 12.8982 18.5738 12.8202 18.5348 12.7075L18.3983 12.129C18.2293 12.285 18.0625 12.4237 17.8978 12.545C17.7332 12.662 17.5598 12.7638 17.3778 12.8505C17.2002 12.9328 17.0095 12.9957 16.8058 13.039C16.6022 13.0823 16.3768 13.104 16.1298 13.104C15.8698 13.104 15.625 13.0693 15.3953 13C15.17 12.9263 14.9728 12.8158 14.8038 12.6685C14.6348 12.5212 14.5005 12.337 14.4008 12.116C14.3055 11.895 14.2578 11.6372 14.2578 11.3425C14.2578 11.0825 14.3272 10.8333 14.4658 10.595C14.6088 10.3523 14.8385 10.1357 15.1548 9.945C15.4755 9.75433 15.8915 9.59833 16.4028 9.477C16.9185 9.35567 17.5512 9.28633 18.3008 9.269V8.788C18.3008 8.28967 18.1947 7.917 17.9823 7.67C17.77 7.423 17.458 7.2995 17.0463 7.2995C16.769 7.2995 16.535 7.33417 16.3443 7.4035C16.158 7.47283 15.9955 7.55083 15.8568 7.6375C15.7225 7.71983 15.6033 7.79567 15.4993 7.865C15.3997 7.93433 15.2957 7.969 15.1873 7.969C15.1007 7.969 15.0248 7.94517 14.9598 7.8975C14.8992 7.84983 14.8493 7.7935 14.8103 7.7285L14.5828 7.319Z" fill="#3B3A40"/>
<path d="M0 19H25.5" stroke="#BAC4D6" stroke-width="1.5"/>
<path d="M0 24H25.5" stroke="#BAC4D6" stroke-width="1.5"/>
<path d="M0 29H15.5" stroke="#BAC4D6" stroke-width="1.5"/>
</svg>
