<svg width="26" height="29" viewBox="0 0 26 29" fill="none" xmlns="http://www.w3.org/2000/svg">
<path d="M6.11 9.5225L4.7255 5.902C4.62583 5.655 4.52617 5.343 4.4265 4.966C4.37883 5.15233 4.329 5.32567 4.277 5.486C4.22933 5.64633 4.18167 5.78933 4.134 5.915L2.756 9.5225H6.11ZM8.8465 13H7.7805C7.65917 13 7.5595 12.9697 7.4815 12.909C7.4035 12.8483 7.34717 12.7703 7.3125 12.675L6.487 10.5105H2.3725L1.547 12.675C1.51667 12.7573 1.46033 12.8332 1.378 12.9025C1.29567 12.9675 1.196 13 1.079 13H0.013L3.731 3.666H5.1285L8.8465 13Z" fill="#3B75FF"/>
<path d="M13 7.5H25.5" stroke="#3B75FF" stroke-width="1.5"/>
<path d="M13 12.5H25.5" stroke="#3B75FF" stroke-width="1.5"/>
<path d="M0 17.5H25.5" stroke="#3B75FF" stroke-width="1.5"/>
<path d="M0 22.5H25.5" stroke="#3B75FF" stroke-width="1.5"/>
<path d="M0 28H15.5" stroke="#3B75FF" stroke-width="1.5"/>
</svg>
