<svg width="187" height="38" viewBox="0 0 187 38" fill="none" xmlns="http://www.w3.org/2000/svg">
<g opacity="0.7">
<path d="M13.6199 0V15.8798C13.6199 17.3004 13.7193 18.6195 12.4766 19.5834C11.3333 20.5474 9.39473 20.8518 7.30701 20.8518C4.12573 20.8518 0.745617 20.0908 0.745617 20.0908L0 22.1201C0 22.1201 4.72222 23.1348 8.15204 23.1855C11.0351 23.2363 13.5702 22.5767 14.962 20.9532C16.1052 19.6342 16.4532 18.1121 16.4035 15.5247V0H13.6199Z" transform="translate(44.2397 7.50879)" fill="#3B3A40"/>
<path d="M19.038 1.7757C16.9503 0.608811 14.4152 0 11.5322 0C8.69883 0 6.16374 0.608811 4.02632 1.7757C1.34211 3.24699 0 5.42856 0 8.16821C0 10.9079 1.34211 13.0894 4.02632 14.5607C6.16374 15.7276 8.64912 16.3364 11.5322 16.3364C14.3655 16.3364 16.9006 15.7276 18.9883 14.5607C21.6725 13.0894 23.0146 10.9079 23.0146 8.16821C23.0146 5.37783 21.6725 3.24699 19.038 1.7757ZM17.3976 12.9372C15.7573 13.9012 13.8187 14.3578 11.5322 14.3578C9.1959 14.3578 7.2076 13.9012 5.61696 12.988C3.67836 11.8718 2.73392 10.2991 2.73392 8.16821C2.73392 6.08811 3.72807 4.46461 5.61696 3.34846C7.2076 2.43524 9.1959 1.97864 11.5322 1.97864C13.8187 1.97864 15.807 2.43524 17.4474 3.34846C19.3362 4.46461 20.3304 6.08811 20.3304 8.16821C20.2807 10.1976 19.3362 11.8211 17.3976 12.9372Z" transform="translate(62.0347 14.5093)" fill="#3B3A40"/>
<path d="M19.038 1.7757C16.9503 0.608811 14.4152 0 11.5322 0C8.69882 0 6.16373 0.608811 4.02631 1.7757C1.3421 3.24699 0 5.42856 0 8.16821C0 10.9079 1.3421 13.0894 4.02631 14.5607C6.16373 15.7276 8.64911 16.3364 11.5322 16.3364C14.3655 16.3364 16.9006 15.7276 18.9883 14.5607C21.6725 13.0894 23.0146 10.9079 23.0146 8.16821C23.0146 5.37783 21.6725 3.24699 19.038 1.7757ZM17.3976 12.9372C15.7573 13.9012 13.8187 14.3578 11.5322 14.3578C9.1959 14.3578 7.20759 13.9012 5.61695 12.988C3.67835 11.8718 2.73392 10.2991 2.73392 8.16821C2.73392 6.08811 3.72806 4.46461 5.61695 3.34846C7.20759 2.43524 9.1959 1.97864 11.5322 1.97864C13.8187 1.97864 15.807 2.43524 17.4473 3.34846C19.3362 4.46461 20.3304 6.08811 20.3304 8.16821C20.2807 10.1976 19.3362 11.8211 17.3976 12.9372Z" transform="translate(86.4912 14.5093)" fill="#3B3A40"/>
<path d="M28.2339 1.36983C26.7427 0.456611 24.8041 0 22.5175 0C19.5848 0 17.2485 0.913217 15.4591 2.73965C13.769 0.913217 11.383 0 8.45029 0C6.06432 0 4.12572 0.507343 2.6345 1.47129C2.6345 1.11615 2.6345 0.202938 2.6345 0.202938H0V15.9813H2.6345V5.22563C2.83333 4.46461 3.3304 3.75434 4.12572 3.14553C5.21929 2.38451 6.6111 1.97864 8.35087 1.97864C9.8918 1.97864 11.1842 2.28304 12.2778 2.94259C13.5702 3.7036 14.1667 4.71828 14.1667 6.13884V16.0828H16.7515V6.08811C16.7515 4.66755 17.3479 3.65287 18.6403 2.89185C19.7339 2.28304 21.076 1.9279 22.6169 1.9279C24.1579 1.9279 25.5 2.23231 26.5935 2.89185C27.8859 3.65287 28.4824 4.66755 28.4824 6.08811V16.032H31.1169V6.44325C31.0672 4.21094 30.0731 2.48598 28.2339 1.36983Z" transform="translate(111.047 14.5093)" fill="#3B3A40"/>
<path d="M0 0V23.0333H2.6345V0H0Z" transform="translate(144.202 7.5083)" fill="#3B3A40"/>
<path d="M0 0V17.8077H2.6345V0H0Z" transform="translate(176.213 7.5083)" fill="#3B3A40"/>
<path d="M20.3801 0.253671C20.3801 0.253671 20.3801 2.43525 20.3801 2.94259C18.1433 1.01469 15.1608 0 11.4824 0C8.54969 0 6.01461 0.558078 3.92689 1.72497C1.3421 3.19626 0 5.3271 0 8.16821C0 10.9586 1.34209 13.1402 4.0263 14.5607C6.11402 15.7276 8.64911 16.2857 11.5819 16.2857C13.0234 16.2857 14.4649 16.1335 15.7573 15.7783C17.5965 15.271 19.1374 14.5607 20.3304 13.5968C20.3304 14.1549 20.3304 16.032 20.3304 16.032H22.9649V0.253671H20.3801ZM2.78361 8.21895C2.78361 6.13884 3.77777 4.51535 5.66666 3.39919C7.2573 2.48598 9.29531 2.02937 11.6316 2.02937C14.5146 2.02937 16.7514 2.73965 18.3421 4.16021C19.7339 5.42856 20.4298 7.05206 20.4298 9.0307C20.4298 9.0307 20.4298 10.7557 20.4298 10.9079C19.3362 12.1762 17.6959 13.1402 15.6082 13.7997C14.3655 14.2056 13.0234 14.4085 11.6316 14.4085C9.2456 14.4085 7.2573 13.9519 5.66666 13.0894C3.72806 11.9225 2.78361 10.3498 2.78361 8.21895Z" transform="translate(148.924 14.4585)" fill="#3B3A40"/>
<path d="M2.08771 0C0.248529 0 0 0.96395 0 1.57276C0 2.18157 0.298236 3.14552 2.08771 3.14552C3.92689 3.14552 4.17543 2.13084 4.17543 1.57276C4.17543 1.01468 3.87718 0 2.08771 0Z" transform="translate(175.468 27.5483)" fill="#3B3A40"/>
<path d="M5.56724 2.89185C5.56724 4.46461 4.5731 5.7837 2.78363 5.7837C0.994154 5.7837 0 4.46461 0 2.89185C0 1.31909 0.994154 0 2.78363 0C4.5731 0 5.56724 1.31909 5.56724 2.89185ZM0.596482 2.89185C0.596482 4.21094 1.39181 5.22563 2.78363 5.22563C4.17544 5.22563 4.97076 4.21094 4.97076 2.89185C4.97076 1.57276 4.17544 0.558076 2.78363 0.558076C1.39181 0.558076 0.596482 1.57276 0.596482 2.89185ZM3.3304 3.24699C4.42396 3.04405 4.32455 1.36983 3.08186 1.36983H1.73976V4.31241H2.28655V3.29773H2.78363L3.57894 4.31241H4.17543V4.21094L3.3304 3.24699ZM3.08186 1.87717C3.72806 1.87717 3.72806 2.84112 3.08186 2.84112H2.28655V1.87717H3.08186Z" transform="translate(181.433 7.45752)" fill="#3B3A40"/>
<path d="M6.66081 19.1268L5.96491 18.4165C3.72807 16.1335 3.08187 12.9372 3.87719 10.0454C1.64035 9.53804 0 7.50867 0 5.07342C0 2.28304 2.23684 0 4.97076 0C7.45613 0 9.49415 1.82643 9.89181 4.26168C12.576 3.60213 15.5088 4.36314 17.5965 6.49398L17.8947 6.79839L14.2164 10.5527L13.9181 10.2483C12.7251 9.0307 10.7865 9.0307 9.59356 10.2483C8.40058 11.4659 8.40058 13.4446 9.59356 14.6622L10.2895 15.3725L13.9678 19.1268L17.845 23.0841L14.1667 26.8384L10.2895 22.8811L6.66081 19.1268Z" fill="#7AC143"/>
<path d="M0 14.9159L3.87719 10.9586L7.55555 7.20426L8.25146 6.49399C10.4386 4.26168 13.6199 3.5514 16.4035 4.36315C16.7514 1.87717 18.8392 0 21.3245 0C24.0585 0 26.2953 2.28304 26.2953 5.07342C26.2953 7.66087 24.4064 9.79171 21.9707 10.0961C22.7661 12.9372 22.0702 16.1335 19.883 18.3658L19.5848 18.6702L16.0058 14.9159L16.3041 14.6115C17.4971 13.3938 17.4971 11.4152 16.3041 10.1976C15.1111 8.97996 13.1725 8.97996 11.9795 10.1976L11.2836 10.9079L7.60526 14.6622L3.72807 18.6195L0 14.9159Z" transform="translate(10.7866 0.0507812)" fill="#F9A541"/>
<path d="M8.5497 22.4245C5.71637 23.287 2.53508 22.6275 0.298245 20.3444L0 20.04L3.67836 16.2857L3.97661 16.5901C5.16959 17.8077 7.10818 17.8077 8.30116 16.5901C9.49414 15.3725 9.49414 13.3938 8.30116 12.1762L7.60526 11.4659L3.9269 7.71161L0.0497068 3.75433L3.72807 0L7.60526 3.95727L11.2836 7.71161L12.0292 8.47262C14.1169 10.6035 14.8626 13.6475 14.2164 16.4379C16.652 16.793 18.4912 18.9239 18.4912 21.4606C18.4912 24.251 16.2544 26.534 13.5205 26.534C11.0351 26.4833 8.99707 24.7076 8.5497 22.4245Z" transform="translate(18.7891 11.4658)" fill="#F44321"/>
<path d="M25.8976 3.75433L22.0205 7.71161L18.3421 11.4659L17.6462 12.1762C15.5088 14.3578 12.5263 15.0681 9.8421 14.4085C9.34502 16.6916 7.35672 18.3658 4.97076 18.3658C2.23684 18.3658 0 16.0828 0 13.2924C0 10.9079 1.64035 8.87849 3.82748 8.37115C3.13158 5.53003 3.82748 2.48598 5.96491 0.304405L6.26315 0L9.94151 3.75433L9.64327 4.05874C8.45029 5.27636 8.45029 7.255 9.64327 8.47262C10.8362 9.69024 12.7748 9.69024 13.9678 8.47262L14.6637 7.76234L18.3421 4.00801L22.2193 0.0507335L25.8976 3.75433Z" transform="translate(0 19.5835)" fill="#5091CD"/>
</g>
</svg>
