<svg width="29" height="29" viewBox="0 0 29 29" fill="none" xmlns="http://www.w3.org/2000/svg">
<g opacity="0.8">
<rect width="28.8813" height="29" fill="black" fill-opacity="0"/>
<rect width="28.8813" height="29" fill="black" fill-opacity="0"/>
<path fill-rule="evenodd" clip-rule="evenodd" d="M28.8813 14.5C28.8813 22.5083 22.416 29 14.4409 29C6.46533 29 0 22.5083 0 14.5C0 6.4917 6.46533 0 14.4409 0C22.416 0 28.8813 6.4917 28.8813 14.5ZM23.0679 21.645V15.667C23.0679 12.4658 21.3652 10.9756 19.0942 10.9756C17.2603 10.9756 16.4419 11.9893 15.9834 12.6978V11.2207H12.5312C12.5776 12.1982 12.5312 21.6445 12.5312 21.6445H15.9829V15.8228C15.9829 15.5103 16.0063 15.2007 16.0977 14.978C16.3477 14.3545 16.9141 13.7109 17.8682 13.7109C19.1177 13.7109 19.6162 14.667 19.6162 16.0674V21.645H23.0679ZM15.9834 12.6978V12.7319H15.9604L15.9722 12.7148L15.9834 12.6978ZM6.9668 7.99658C6.9668 6.97412 7.73926 6.1958 8.91992 6.1958C10.1011 6.1958 10.8267 6.97412 10.8496 7.99658C10.8496 8.99756 10.1011 9.79834 8.89697 9.79834H8.875C7.7168 9.79834 6.9668 8.99756 6.9668 7.99658ZM10.6226 21.645H7.17188V11.2207H10.6226V21.645Z" fill="#8BA4CB"/>
</g>
</svg>
