<svg width="29" height="29" viewBox="0 0 29 29" fill="none" xmlns="http://www.w3.org/2000/svg">
<rect width="28.8809" height="29" fill="black" fill-opacity="0"/>
<rect width="28.8809" height="29" fill="black" fill-opacity="0"/>
<path fill-rule="evenodd" clip-rule="evenodd" d="M28.8809 14.5C28.8809 22.5078 22.416 29 14.4414 29C6.46484 29 0 22.5078 0 14.5C0 6.49219 6.46484 0 14.4414 0C22.416 0 28.8809 6.49219 28.8809 14.5ZM23.0684 21.6445V15.666C23.0684 12.4648 21.3652 10.9756 19.0938 10.9756C17.2598 10.9756 16.4414 11.9883 15.9844 12.6973V11.2197H12.5312C12.5781 12.1982 12.5312 21.6445 12.5312 21.6445H15.9824V15.8223C15.9824 15.5098 16.0059 15.2002 16.0977 14.9775C16.3477 14.3545 16.9141 13.71 17.8672 13.71C19.1172 13.71 19.6152 14.667 19.6152 16.0674V21.6445H23.0684ZM6.9668 7.99609C6.9668 6.97363 7.74023 6.19531 8.91992 6.19531C10.1016 6.19531 10.8262 6.97363 10.8496 7.99609C10.8496 8.99707 10.1016 9.79785 8.89648 9.79785H8.875C7.7168 9.79785 6.9668 8.99707 6.9668 7.99609ZM10.623 21.6445H7.17188V11.2197H10.623V21.6445Z" fill="#41A1CC"/>
</svg>
