<svg width="12" height="16" viewBox="0 0 12 16" fill="none" xmlns="http://www.w3.org/2000/svg">
<path d="M11.1487 6.46146H10.8445V5.00233C10.8445 2.30355 8.75469 0.0491111 6.14268 0.000986167C6.07131 -0.000328722 5.92869 -0.000328722 5.85736 0.000986167C3.24527 0.0491111 1.15549 2.30355 1.15549 5.00233V6.46146H0.851245C0.382416 6.46146 0 6.95724 0 7.56955V14.888C0 15.4996 0.382416 16 0.851277 16H11.1487C11.6176 16 12 15.4996 12 14.888V7.56955C12 6.95728 11.6176 6.46146 11.1487 6.46146ZM6.96473 11.2213V13.4327C6.96473 13.6859 6.75787 13.9002 6.51059 13.9002H5.48947C5.24216 13.9002 5.0353 13.6859 5.0353 13.4327V11.2213C4.79546 10.9794 4.65584 10.6448 4.65584 10.2748C4.65584 9.57348 5.18481 8.97086 5.85739 8.94302C5.92866 8.94006 6.07143 8.94006 6.14271 8.94302C6.81529 8.97086 7.34426 9.57348 7.34426 10.2748C7.3442 10.6448 7.20457 10.9794 6.96473 11.2213ZM8.83941 6.46146H6.14268H5.85736H3.16062V5.00233C3.16062 3.39472 4.43547 2.06546 6 2.06546C7.56453 2.06546 8.83944 3.39472 8.83944 5.00233V6.46146H8.83941Z" transform="translate(12) scale(-1 1)" fill="#5C68C9"/>
</svg>
