<svg width="9" height="9" viewBox="0 0 9 9" fill="none" xmlns="http://www.w3.org/2000/svg">
<path d="M4.55508 4.94555L0.990907 8.81528C0.764183 9.06157 0.396588 9.06157 0.169974 8.81528C-0.0566581 8.56921 -0.0566581 8.17011 0.169974 7.92406L3.32371 4.49994L0.170066 1.07593C-0.0565664 0.829759 -0.0565664 0.430697 0.170066 0.184627C0.396699 -0.0615424 0.764275 -0.0615424 0.990999 0.184627L4.55517 4.05442C4.66848 4.17752 4.72508 4.33868 4.72508 4.49992C4.72508 4.66123 4.66837 4.82251 4.55508 4.94555Z" transform="translate(0 9) scale(1 -1)" fill="#5C68C9"/>
<path d="M4.55508 4.94555L0.990907 8.81528C0.764183 9.06157 0.396588 9.06157 0.169974 8.81528C-0.0566581 8.56921 -0.0566581 8.17011 0.169974 7.92406L3.32371 4.49994L0.170066 1.07593C-0.0565664 0.829759 -0.0565664 0.430697 0.170066 0.184627C0.396699 -0.0615424 0.764275 -0.0615424 0.990999 0.184627L4.55517 4.05442C4.66848 4.17752 4.72508 4.33868 4.72508 4.49992C4.72508 4.66123 4.66837 4.82251 4.55508 4.94555Z" transform="translate(4.27539 9) scale(1 -1)" fill="#5C68C9"/>
</svg>
