<svg width="326" height="25" viewBox="0 0 326 25" fill="none" xmlns="http://www.w3.org/2000/svg">
<path d="M48.175 19V5.05H42.85V1.5H57.35V5.05H52.025V19H48.175ZM58.4217 19V5.6H62.2217V8.3C63.0883 6.25 64.5133 5.26667 66.4967 5.35V9.325H66.2967C64.9967 9.325 63.9883 9.725 63.2717 10.525C62.5717 11.3083 62.2217 12.4833 62.2217 14.05V19H58.4217ZM73.3209 19.25C71.8876 19.25 70.7709 18.8083 69.9709 17.925C69.1709 17.0417 68.7709 15.825 68.7709 14.275V5.6H72.5709V13.075C72.5709 13.9583 72.7709 14.6333 73.1709 15.1C73.5709 15.5667 74.1376 15.8 74.8709 15.8C75.6042 15.8 76.1792 15.5667 76.5959 15.1C77.0292 14.6333 77.2459 13.9583 77.2459 13.075V5.6H81.0459V19H77.2459V17.1C76.1292 18.5333 74.8209 19.25 73.3209 19.25ZM89.1471 19.25C87.0304 19.25 85.1137 18.575 83.3971 17.225L85.0221 14.725C86.4887 15.7917 87.8971 16.325 89.2471 16.325C90.3137 16.325 90.8471 15.975 90.8471 15.275C90.8471 15.1917 90.8304 15.1083 90.7971 15.025C90.7804 14.9417 90.7387 14.8667 90.6721 14.8C90.6054 14.7333 90.5304 14.675 90.4471 14.625C90.3804 14.5583 90.2804 14.5 90.1471 14.45C90.0304 14.3833 89.9221 14.3333 89.8221 14.3C89.7387 14.25 89.6137 14.2 89.4471 14.15C89.2804 14.0833 89.1387 14.0333 89.0221 14C88.9054 13.9667 88.7471 13.925 88.5471 13.875C88.3471 13.8083 88.1887 13.7583 88.0721 13.725C87.5054 13.5583 87.0221 13.3917 86.6221 13.225C86.2387 13.0417 85.8304 12.8 85.3971 12.5C84.9637 12.1833 84.6304 11.7917 84.3971 11.325C84.1804 10.8417 84.0721 10.2833 84.0721 9.65C84.0721 8.33333 84.5387 7.3 85.4721 6.55C86.4054 5.78333 87.5721 5.4 88.9721 5.4C90.7721 5.4 92.4387 5.91667 93.9721 6.95L92.5221 9.575C91.1054 8.74167 89.8971 8.325 88.8971 8.325C87.9637 8.325 87.4971 8.65 87.4971 9.3C87.4971 9.75 88.2637 10.2333 89.7971 10.75C89.9804 10.8167 90.1221 10.8667 90.2221 10.9C90.6721 11.05 91.0554 11.1917 91.3721 11.325C91.6887 11.4583 92.0471 11.6417 92.4471 11.875C92.8471 12.1083 93.1637 12.3583 93.3971 12.625C93.6471 12.875 93.8554 13.2 94.0221 13.6C94.1887 14 94.2721 14.4417 94.2721 14.925C94.2721 16.3583 93.7971 17.4417 92.8471 18.175C91.9137 18.8917 90.6804 19.25 89.1471 19.25ZM101.277 19.225C100.027 19.225 99.0601 18.925 98.3768 18.325C97.7101 17.7083 97.3768 16.6667 97.3768 15.2V8.85H95.7768V5.6H97.3768V2.175H101.177V5.6H104.327V8.85H101.177V14.575C101.177 15.4417 101.585 15.875 102.402 15.875C103.068 15.875 103.693 15.7167 104.277 15.4V18.45C103.41 18.9667 102.41 19.225 101.277 19.225ZM113.523 19L121.023 1.375H124.573L132.073 19H128.048L126.448 15.075H119.048L117.448 19H113.523ZM120.423 11.675H125.073L122.748 6L120.423 11.675ZM140.064 19.3C138.064 19.3 136.397 18.625 135.064 17.275C133.747 15.925 133.089 14.275 133.089 12.325C133.089 10.3917 133.756 8.75 135.089 7.4C136.422 6.03333 138.097 5.35 140.114 5.35C142.264 5.35 144.039 6.13333 145.439 7.7L143.214 9.95C142.281 9.06667 141.239 8.625 140.089 8.625C139.156 8.625 138.381 8.98333 137.764 9.7C137.147 10.4167 136.839 11.2917 136.839 12.325C136.839 13.375 137.147 14.2583 137.764 14.975C138.397 15.675 139.222 16.025 140.239 16.025C141.289 16.025 142.314 15.55 143.314 14.6L145.539 16.85C144.806 17.65 144.022 18.2583 143.189 18.675C142.356 19.0917 141.314 19.3 140.064 19.3ZM152.546 19.225C151.296 19.225 150.33 18.925 149.646 18.325C148.98 17.7083 148.646 16.6667 148.646 15.2V8.85H147.046V5.6H148.646V2.175H152.446V5.6H155.596V8.85H152.446V14.575C152.446 15.4417 152.855 15.875 153.671 15.875C154.338 15.875 154.963 15.7167 155.546 15.4V18.45C154.68 18.9667 153.68 19.225 152.546 19.225ZM158.472 4.125V0.75H162.472V4.125H158.472ZM158.572 19V5.6H162.372V19H158.572ZM170.016 19.1L164.741 5.6H168.766L171.766 14.575L174.791 5.6H178.741L173.466 19.1H170.016ZM181.006 4.125V0.75H185.006V4.125H181.006ZM181.106 19V5.6H184.906V19H181.106ZM193 19.225C191.75 19.225 190.784 18.925 190.1 18.325C189.434 17.7083 189.1 16.6667 189.1 15.2V8.85H187.5V5.6H189.1V2.175H192.9V5.6H196.05V8.85H192.9V14.575C192.9 15.4417 193.309 15.875 194.125 15.875C194.792 15.875 195.417 15.7167 196 15.4V18.45C195.134 18.9667 194.134 19.225 193 19.225ZM202.051 23.075C200.851 23.075 199.726 22.7667 198.676 22.15L199.951 19.4C200.535 19.75 201.076 19.925 201.576 19.925C202.176 19.925 202.618 19.6333 202.901 19.05L197.651 5.6H201.676L204.726 14.725L207.651 5.6H211.601L206.451 19.325C205.935 20.7083 205.351 21.675 204.701 22.225C204.051 22.7917 203.168 23.075 202.051 23.075Z" fill="white"/>
<path d="M221.737 19V1.5H228.887C230.953 1.5 232.587 2.05833 233.787 3.175C234.987 4.29167 235.587 5.76667 235.587 7.6C235.587 9.55 234.92 11.0667 233.587 12.15C232.253 13.2167 230.562 13.75 228.512 13.75H225.587V19H221.737ZM225.587 10.325H228.637C229.587 10.325 230.328 10.075 230.862 9.575C231.412 9.075 231.687 8.425 231.687 7.625C231.687 6.775 231.412 6.125 230.862 5.675C230.312 5.20833 229.545 4.975 228.562 4.975H225.587V10.325ZM241.592 19.25C240.275 19.25 239.175 18.8833 238.292 18.15C237.425 17.4167 236.992 16.4 236.992 15.1C236.992 13.6833 237.475 12.6167 238.442 11.9C239.425 11.1833 240.742 10.825 242.392 10.825C243.508 10.825 244.6 11.0083 245.667 11.375V11.15C245.667 9.51667 244.708 8.7 242.792 8.7C241.642 8.7 240.408 8.94167 239.092 9.425L238.142 6.525C239.775 5.80833 241.508 5.45 243.342 5.45C245.358 5.45 246.867 5.95 247.867 6.95C248.833 7.91667 249.317 9.34167 249.317 11.225V19H245.642V17.55C244.625 18.6833 243.275 19.25 241.592 19.25ZM242.742 16.625C243.625 16.625 244.342 16.4083 244.892 15.975C245.442 15.525 245.717 14.9583 245.717 14.275V13.6C245 13.2667 244.192 13.1 243.292 13.1C242.458 13.1 241.808 13.2667 241.342 13.6C240.892 13.9167 240.667 14.3833 240.667 15C240.667 15.5 240.858 15.9 241.242 16.2C241.625 16.4833 242.125 16.625 242.742 16.625ZM252.587 19V5.6H256.387V8.3C257.253 6.25 258.678 5.26667 260.662 5.35V9.325H260.462C259.162 9.325 258.153 9.725 257.437 10.525C256.737 11.3083 256.387 12.4833 256.387 14.05V19H252.587ZM267.561 19.225C266.311 19.225 265.344 18.925 264.661 18.325C263.994 17.7083 263.661 16.6667 263.661 15.2V8.85H262.061V5.6H263.661V2.175H267.461V5.6H270.611V8.85H267.461V14.575C267.461 15.4417 267.869 15.875 268.686 15.875C269.353 15.875 269.978 15.7167 270.561 15.4V18.45C269.694 18.9667 268.694 19.225 267.561 19.225ZM273.412 19V5.6H277.212V7.5C278.329 6.06667 279.637 5.35 281.137 5.35C282.57 5.35 283.687 5.79167 284.487 6.675C285.287 7.55833 285.687 8.775 285.687 10.325V19H281.887V11.525C281.887 10.6417 281.687 9.96667 281.287 9.5C280.887 9.03333 280.32 8.8 279.587 8.8C278.854 8.8 278.27 9.03333 277.837 9.5C277.42 9.96667 277.212 10.6417 277.212 11.525V19H273.412ZM295.338 19.3C293.305 19.3 291.63 18.6583 290.313 17.375C288.996 16.075 288.338 14.3917 288.338 12.325C288.338 10.375 288.963 8.725 290.213 7.375C291.463 6.025 293.046 5.35 294.963 5.35C297.08 5.35 298.696 6.05 299.813 7.45C300.93 8.85 301.488 10.575 301.488 12.625C301.488 12.825 301.471 13.1583 301.438 13.625H292.113C292.296 14.475 292.671 15.125 293.238 15.575C293.805 16.025 294.521 16.25 295.388 16.25C296.571 16.25 297.655 15.7917 298.638 14.875L300.813 16.8C299.463 18.4667 297.638 19.3 295.338 19.3ZM292.063 11.25H297.788C297.671 10.3833 297.363 9.69167 296.863 9.175C296.38 8.65833 295.746 8.4 294.963 8.4C294.196 8.4 293.555 8.65833 293.038 9.175C292.538 9.675 292.213 10.3667 292.063 11.25ZM304.32 19V5.6H308.12V8.3C308.987 6.25 310.412 5.26667 312.395 5.35V9.325H312.195C310.895 9.325 309.887 9.725 309.17 10.525C308.47 11.3083 308.12 12.4833 308.12 14.05V19H304.32ZM319.469 19.25C317.353 19.25 315.436 18.575 313.719 17.225L315.344 14.725C316.811 15.7917 318.219 16.325 319.569 16.325C320.636 16.325 321.169 15.975 321.169 15.275C321.169 15.1917 321.153 15.1083 321.119 15.025C321.103 14.9417 321.061 14.8667 320.994 14.8C320.928 14.7333 320.853 14.675 320.769 14.625C320.703 14.5583 320.603 14.5 320.469 14.45C320.353 14.3833 320.244 14.3333 320.144 14.3C320.061 14.25 319.936 14.2 319.769 14.15C319.603 14.0833 319.461 14.0333 319.344 14C319.228 13.9667 319.069 13.925 318.869 13.875C318.669 13.8083 318.511 13.7583 318.394 13.725C317.828 13.5583 317.344 13.3917 316.944 13.225C316.561 13.0417 316.153 12.8 315.719 12.5C315.286 12.1833 314.953 11.7917 314.719 11.325C314.503 10.8417 314.394 10.2833 314.394 9.65C314.394 8.33333 314.861 7.3 315.794 6.55C316.728 5.78333 317.894 5.4 319.294 5.4C321.094 5.4 322.761 5.91667 324.294 6.95L322.844 9.575C321.428 8.74167 320.219 8.325 319.219 8.325C318.286 8.325 317.819 8.65 317.819 9.3C317.819 9.75 318.586 10.2333 320.119 10.75C320.303 10.8167 320.444 10.8667 320.544 10.9C320.994 11.05 321.378 11.1917 321.694 11.325C322.011 11.4583 322.369 11.6417 322.769 11.875C323.169 12.1083 323.486 12.3583 323.719 12.625C323.969 12.875 324.178 13.2 324.344 13.6C324.511 14 324.594 14.4417 324.594 14.925C324.594 16.3583 324.119 17.4417 323.169 18.175C322.236 18.8917 321.003 19.25 319.469 19.25Z" fill="white" fill-opacity="0.7"/>
<path fill-rule="evenodd" clip-rule="evenodd" d="M27.1544 0.617647C26.323 -0.205882 24.8978 -0.205882 24.0665 0.617647L14.1995 10.3474L9.93348 6.08823C9.10213 5.2647 7.67695 5.2647 6.8456 6.08823L4 9.5L12.6651 18.3823C13.4964 19.2059 14.9216 19.2059 15.753 18.3823L17.475 16.6765C17.5373 16.6148 17.5949 16.5499 17.6478 16.4821L30.5 4L27.1544 0.617647Z" fill="white" fill-opacity="0.3"/>
<path fill-rule="evenodd" clip-rule="evenodd" d="M23.1544 0.617647C22.323 -0.205882 20.8978 -0.205882 20.0665 0.617647L10.1995 10.3474L5.93348 6.08823C5.10213 5.2647 3.67695 5.2647 2.8456 6.08823L0 9.5L8.66507 18.3823C9.49643 19.2059 10.9216 19.2059 11.753 18.3823L13.475 16.6765C13.5373 16.6148 13.5949 16.5499 13.6478 16.4821L26.5 4L23.1544 0.617647Z" fill="white" fill-opacity="0.3"/>
<path fill-rule="evenodd" clip-rule="evenodd" d="M31.1544 0.617647C30.323 -0.205882 28.8978 -0.205882 28.0665 0.617647L18.1995 10.3474L13.9335 6.08823C13.1021 5.2647 11.6769 5.2647 10.8456 6.08823L8 9.5L16.6651 18.3823C17.4964 19.2059 18.9216 19.2059 19.753 18.3823L21.475 16.6765C21.5373 16.6148 21.5949 16.5499 21.6478 16.4821L34.5 4L31.1544 0.617647Z" fill="white"/>
</svg>
