<svg width="279" height="25" viewBox="0 0 279 25" fill="none" xmlns="http://www.w3.org/2000/svg">
<rect width="279" height="25" fill="black" fill-opacity="0"/>
<rect width="279" height="25" fill="black" fill-opacity="0"/>
<path d="M48.175 19V5.05H42.85V1.5H57.35V5.05H52.025V19H48.175ZM58.4217 19V5.6H62.2217V8.3C63.0883 6.25 64.5133 5.26667 66.4967 5.35V9.325H66.2967C64.9967 9.325 63.9883 9.725 63.2717 10.525C62.5717 11.3083 62.2217 12.4833 62.2217 14.05V19H58.4217ZM73.3209 19.25C71.8876 19.25 70.7709 18.8083 69.9709 17.925C69.1709 17.0417 68.7709 15.825 68.7709 14.275V5.6H72.5709V13.075C72.5709 13.9583 72.7709 14.6333 73.1709 15.1C73.5709 15.5667 74.1376 15.8 74.8709 15.8C75.6042 15.8 76.1792 15.5667 76.5959 15.1C77.0292 14.6333 77.2459 13.9583 77.2459 13.075V5.6H81.0459V19H77.2459V17.1C76.1292 18.5333 74.8209 19.25 73.3209 19.25ZM89.1471 19.25C87.0304 19.25 85.1137 18.575 83.3971 17.225L85.0221 14.725C86.4887 15.7917 87.8971 16.325 89.2471 16.325C90.3137 16.325 90.8471 15.975 90.8471 15.275C90.8471 15.1917 90.8304 15.1083 90.7971 15.025C90.7804 14.9417 90.7387 14.8667 90.6721 14.8C90.6054 14.7333 90.5304 14.675 90.4471 14.625C90.3804 14.5583 90.2804 14.5 90.1471 14.45C90.0304 14.3833 89.9221 14.3333 89.8221 14.3C89.7387 14.25 89.6137 14.2 89.4471 14.15C89.2804 14.0833 89.1387 14.0333 89.0221 14C88.9054 13.9667 88.7471 13.925 88.5471 13.875C88.3471 13.8083 88.1887 13.7583 88.0721 13.725C87.5054 13.5583 87.0221 13.3917 86.6221 13.225C86.2387 13.0417 85.8304 12.8 85.3971 12.5C84.9637 12.1833 84.6304 11.7917 84.3971 11.325C84.1804 10.8417 84.0721 10.2833 84.0721 9.65C84.0721 8.33333 84.5387 7.3 85.4721 6.55C86.4054 5.78333 87.5721 5.4 88.9721 5.4C90.7721 5.4 92.4387 5.91667 93.9721 6.95L92.5221 9.575C91.1054 8.74167 89.8971 8.325 88.8971 8.325C87.9637 8.325 87.4971 8.65 87.4971 9.3C87.4971 9.75 88.2637 10.2333 89.7971 10.75C89.9804 10.8167 90.1221 10.8667 90.2221 10.9C90.6721 11.05 91.0554 11.1917 91.3721 11.325C91.6887 11.4583 92.0471 11.6417 92.4471 11.875C92.8471 12.1083 93.1637 12.3583 93.3971 12.625C93.6471 12.875 93.8554 13.2 94.0221 13.6C94.1887 14 94.2721 14.4417 94.2721 14.925C94.2721 16.3583 93.7971 17.4417 92.8471 18.175C91.9137 18.8917 90.6804 19.25 89.1471 19.25ZM101.277 19.225C100.027 19.225 99.0601 18.925 98.3768 18.325C97.7101 17.7083 97.3768 16.6667 97.3768 15.2V8.85H95.7768V5.6H97.3768V2.175H101.177V5.6H104.327V8.85H101.177V14.575C101.177 15.4417 101.585 15.875 102.402 15.875C103.068 15.875 103.693 15.7167 104.277 15.4V18.45C103.41 18.9667 102.41 19.225 101.277 19.225ZM113.523 19L121.023 1.375H124.573L132.073 19H128.048L126.448 15.075H119.048L117.448 19H113.523ZM120.423 11.675H125.073L122.748 6L120.423 11.675ZM140.064 19.3C138.064 19.3 136.397 18.625 135.064 17.275C133.747 15.925 133.089 14.275 133.089 12.325C133.089 10.3917 133.756 8.75 135.089 7.4C136.422 6.03333 138.097 5.35 140.114 5.35C142.264 5.35 144.039 6.13333 145.439 7.7L143.214 9.95C142.281 9.06667 141.239 8.625 140.089 8.625C139.156 8.625 138.381 8.98333 137.764 9.7C137.147 10.4167 136.839 11.2917 136.839 12.325C136.839 13.375 137.147 14.2583 137.764 14.975C138.397 15.675 139.222 16.025 140.239 16.025C141.289 16.025 142.314 15.55 143.314 14.6L145.539 16.85C144.806 17.65 144.022 18.2583 143.189 18.675C142.356 19.0917 141.314 19.3 140.064 19.3ZM152.546 19.225C151.296 19.225 150.33 18.925 149.646 18.325C148.98 17.7083 148.646 16.6667 148.646 15.2V8.85H147.046V5.6H148.646V2.175H152.446V5.6H155.596V8.85H152.446V14.575C152.446 15.4417 152.855 15.875 153.671 15.875C154.338 15.875 154.963 15.7167 155.546 15.4V18.45C154.68 18.9667 153.68 19.225 152.546 19.225ZM158.472 4.125V0.75H162.472V4.125H158.472ZM158.572 19V5.6H162.372V19H158.572ZM170.016 19.1L164.741 5.6H168.766L171.766 14.575L174.791 5.6H178.741L173.466 19.1H170.016ZM181.006 4.125V0.75H185.006V4.125H181.006ZM181.106 19V5.6H184.906V19H181.106ZM193 19.225C191.75 19.225 190.784 18.925 190.1 18.325C189.434 17.7083 189.1 16.6667 189.1 15.2V8.85H187.5V5.6H189.1V2.175H192.9V5.6H196.05V8.85H192.9V14.575C192.9 15.4417 193.309 15.875 194.125 15.875C194.792 15.875 195.417 15.7167 196 15.4V18.45C195.134 18.9667 194.134 19.225 193 19.225ZM202.051 23.075C200.851 23.075 199.726 22.7667 198.676 22.15L199.951 19.4C200.535 19.75 201.076 19.925 201.576 19.925C202.176 19.925 202.618 19.6333 202.901 19.05L197.651 5.6H201.676L204.726 14.725L207.651 5.6H211.601L206.451 19.325C205.935 20.7083 205.351 21.675 204.701 22.225C204.051 22.7917 203.168 23.075 202.051 23.075Z" fill="white"/>
<path d="M221.737 19V1.5H229.862C231.878 1.5 233.403 2.01667 234.437 3.05C235.237 3.85 235.637 4.85833 235.637 6.075C235.637 7.725 234.87 8.98333 233.337 9.85C234.42 10.2667 235.237 10.8167 235.787 11.5C236.337 12.1667 236.612 13.0667 236.612 14.2C236.612 15.7667 236.028 16.9583 234.862 17.775C233.695 18.5917 232.095 19 230.062 19H221.737ZM225.487 8.575H229.037C230.887 8.575 231.812 7.94167 231.812 6.675C231.812 6.09167 231.595 5.65 231.162 5.35C230.728 5.03333 230.103 4.875 229.287 4.875H225.487V8.575ZM225.487 15.625H230.062C231.878 15.625 232.787 14.975 232.787 13.675C232.787 12.4083 231.837 11.775 229.937 11.775H225.487V15.625ZM239.554 19V0.75H243.354V19H239.554ZM258.673 17.275C257.289 18.625 255.564 19.3 253.498 19.3C251.431 19.3 249.706 18.6333 248.323 17.3C246.956 15.95 246.273 14.2917 246.273 12.325C246.273 10.375 246.964 8.725 248.348 7.375C249.748 6.025 251.481 5.35 253.548 5.35C255.614 5.35 257.331 6.025 258.698 7.375C260.081 8.70833 260.773 10.3583 260.773 12.325C260.773 14.275 260.073 15.925 258.673 17.275ZM253.548 16.025C254.598 16.025 255.439 15.675 256.073 14.975C256.706 14.2583 257.023 13.375 257.023 12.325C257.023 11.3083 256.689 10.4417 256.023 9.725C255.373 8.99167 254.531 8.625 253.498 8.625C252.448 8.625 251.606 8.98333 250.973 9.7C250.339 10.4 250.023 11.275 250.023 12.325C250.023 13.3417 250.348 14.2167 250.998 14.95C251.664 15.6667 252.514 16.025 253.548 16.025ZM269.524 23.05C267.341 23.05 265.366 22.5833 263.599 21.65L264.899 18.8C266.349 19.6167 267.858 20.025 269.424 20.025C271.974 20.025 273.249 18.8083 273.249 16.375V15.725C272.649 16.4583 272.008 17.0083 271.324 17.375C270.658 17.725 269.841 17.9 268.874 17.9C267.224 17.9 265.816 17.3333 264.649 16.2C263.499 15.0667 262.924 13.5333 262.924 11.6C262.924 9.68333 263.508 8.16667 264.674 7.05C265.841 5.91667 267.241 5.35 268.874 5.35C270.541 5.35 271.983 6.01667 273.199 7.35V5.6H276.999V15.975C276.999 18.3583 276.433 20.1167 275.299 21.25C274.099 22.45 272.174 23.05 269.524 23.05ZM267.649 13.9C268.266 14.4667 269.041 14.75 269.974 14.75C270.908 14.75 271.683 14.4583 272.299 13.875C272.933 13.2917 273.249 12.5333 273.249 11.6C273.249 10.7 272.933 9.95833 272.299 9.375C271.683 8.79167 270.908 8.5 269.974 8.5C269.041 8.5 268.266 8.79167 267.649 9.375C267.033 9.95833 266.724 10.7167 266.724 11.65C266.724 12.5667 267.033 13.3167 267.649 13.9Z" fill="white" fill-opacity="0.7"/>
<rect width="26.5" height="19" fill="black" fill-opacity="0" transform="translate(4)"/>
<path fill-rule="evenodd" clip-rule="evenodd" d="M27.1543 0.617649C26.3223 -0.205883 24.8984 -0.205883 24.0664 0.617649L14.1992 10.3473L9.93359 6.08823C9.10156 5.2647 7.67773 5.2647 6.8457 6.08823L4 9.5L12.666 18.3823C13.4961 19.2059 14.9219 19.2059 15.7539 18.3823L17.4746 16.6765C17.5371 16.6154 17.5938 16.551 17.6465 16.4839L30.5 4L27.1543 0.617649Z" fill="white" fill-opacity="0.3"/>
<rect width="26.5" height="19" fill="black" fill-opacity="0"/>
<path fill-rule="evenodd" clip-rule="evenodd" d="M23.1543 0.617649C22.3223 -0.205883 20.8984 -0.205883 20.0664 0.617649L10.1992 10.3473L5.93359 6.08823C5.10156 5.2647 3.67773 5.2647 2.8457 6.08823L0 9.5L8.66602 18.3823C9.49609 19.2059 10.9219 19.2059 11.7539 18.3823L13.4746 16.6765C13.5371 16.6154 13.5938 16.551 13.6465 16.4839L26.5 4L23.1543 0.617649Z" fill="white" fill-opacity="0.3"/>
<rect width="26.5" height="19" fill="black" fill-opacity="0" transform="translate(8)"/>
<path fill-rule="evenodd" clip-rule="evenodd" d="M31.1543 0.617649C30.3223 -0.205883 28.8984 -0.205883 28.0664 0.617649L18.1992 10.3473L13.9336 6.08823C13.1016 5.2647 11.6777 5.2647 10.8457 6.08823L8 9.5L16.666 18.3823C17.4961 19.2059 18.9219 19.2059 19.7539 18.3823L21.4746 16.6765C21.5371 16.6154 21.5938 16.551 21.6465 16.4839L34.5 4L31.1543 0.617649Z" fill="white"/>
</svg>
