<svg width="213" height="25" viewBox="0 0 213 25" fill="none" xmlns="http://www.w3.org/2000/svg">
<path d="M6.175 18V4.05H0.85V0.5H15.35V4.05H10.025V18H6.175ZM16.4217 18V4.6H20.2217V7.3C21.0883 5.25 22.5133 4.26667 24.4967 4.35V8.325H24.2967C22.9967 8.325 21.9883 8.725 21.2717 9.525C20.5717 10.3083 20.2217 11.4833 20.2217 13.05V18H16.4217ZM31.3209 18.25C29.8876 18.25 28.7709 17.8083 27.9709 16.925C27.1709 16.0417 26.7709 14.825 26.7709 13.275V4.6H30.5709V12.075C30.5709 12.9583 30.7709 13.6333 31.1709 14.1C31.5709 14.5667 32.1376 14.8 32.8709 14.8C33.6042 14.8 34.1792 14.5667 34.5959 14.1C35.0292 13.6333 35.2459 12.9583 35.2459 12.075V4.6H39.0459V18H35.2459V16.1C34.1292 17.5333 32.8209 18.25 31.3209 18.25ZM47.1471 18.25C45.0304 18.25 43.1137 17.575 41.3971 16.225L43.0221 13.725C44.4887 14.7917 45.8971 15.325 47.2471 15.325C48.3137 15.325 48.8471 14.975 48.8471 14.275C48.8471 14.1917 48.8304 14.1083 48.7971 14.025C48.7804 13.9417 48.7387 13.8667 48.6721 13.8C48.6054 13.7333 48.5304 13.675 48.4471 13.625C48.3804 13.5583 48.2804 13.5 48.1471 13.45C48.0304 13.3833 47.9221 13.3333 47.8221 13.3C47.7387 13.25 47.6137 13.2 47.4471 13.15C47.2804 13.0833 47.1387 13.0333 47.0221 13C46.9054 12.9667 46.7471 12.925 46.5471 12.875C46.3471 12.8083 46.1887 12.7583 46.0721 12.725C45.5054 12.5583 45.0221 12.3917 44.6221 12.225C44.2387 12.0417 43.8304 11.8 43.3971 11.5C42.9637 11.1833 42.6304 10.7917 42.3971 10.325C42.1804 9.84167 42.0721 9.28333 42.0721 8.65C42.0721 7.33333 42.5387 6.3 43.4721 5.55C44.4054 4.78333 45.5721 4.4 46.9721 4.4C48.7721 4.4 50.4387 4.91667 51.9721 5.95L50.5221 8.575C49.1054 7.74167 47.8971 7.325 46.8971 7.325C45.9637 7.325 45.4971 7.65 45.4971 8.3C45.4971 8.75 46.2637 9.23333 47.7971 9.75C47.9804 9.81667 48.1221 9.86667 48.2221 9.9C48.6721 10.05 49.0554 10.1917 49.3721 10.325C49.6887 10.4583 50.0471 10.6417 50.4471 10.875C50.8471 11.1083 51.1637 11.3583 51.3971 11.625C51.6471 11.875 51.8554 12.2 52.0221 12.6C52.1887 13 52.2721 13.4417 52.2721 13.925C52.2721 15.3583 51.7971 16.4417 50.8471 17.175C49.9137 17.8917 48.6804 18.25 47.1471 18.25ZM59.2768 18.225C58.0268 18.225 57.0601 17.925 56.3768 17.325C55.7101 16.7083 55.3768 15.6667 55.3768 14.2V7.85H53.7768V4.6H55.3768V1.175H59.1768V4.6H62.3268V7.85H59.1768V13.575C59.1768 14.4417 59.5851 14.875 60.4018 14.875C61.0684 14.875 61.6934 14.7167 62.2768 14.4V17.45C61.4101 17.9667 60.4101 18.225 59.2768 18.225ZM71.5229 18L79.0229 0.375H82.5729L90.0729 18H86.0479L84.4479 14.075H77.0479L75.4479 18H71.5229ZM78.4229 10.675H83.0729L80.7479 5L78.4229 10.675ZM98.0641 18.3C96.0641 18.3 94.3974 17.625 93.0641 16.275C91.7474 14.925 91.0891 13.275 91.0891 11.325C91.0891 9.39167 91.7557 7.75 93.0891 6.4C94.4224 5.03333 96.0974 4.35 98.1141 4.35C100.264 4.35 102.039 5.13333 103.439 6.7L101.214 8.95C100.281 8.06667 99.2391 7.625 98.0891 7.625C97.1557 7.625 96.3807 7.98333 95.7641 8.7C95.1474 9.41667 94.8391 10.2917 94.8391 11.325C94.8391 12.375 95.1474 13.2583 95.7641 13.975C96.3974 14.675 97.2224 15.025 98.2391 15.025C99.2891 15.025 100.314 14.55 101.314 13.6L103.539 15.85C102.806 16.65 102.022 17.2583 101.189 17.675C100.356 18.0917 99.3141 18.3 98.0641 18.3ZM110.546 18.225C109.296 18.225 108.33 17.925 107.646 17.325C106.98 16.7083 106.646 15.6667 106.646 14.2V7.85H105.046V4.6H106.646V1.175H110.446V4.6H113.596V7.85H110.446V13.575C110.446 14.4417 110.855 14.875 111.671 14.875C112.338 14.875 112.963 14.7167 113.546 14.4V17.45C112.68 17.9667 111.68 18.225 110.546 18.225ZM116.472 3.125V-0.25H120.472V3.125H116.472ZM116.572 18V4.6H120.372V18H116.572ZM128.016 18.1L122.741 4.6H126.766L129.766 13.575L132.791 4.6H136.741L131.466 18.1H128.016ZM139.006 3.125V-0.25H143.006V3.125H139.006ZM139.106 18V4.6H142.906V18H139.106ZM151 18.225C149.75 18.225 148.784 17.925 148.1 17.325C147.434 16.7083 147.1 15.6667 147.1 14.2V7.85H145.5V4.6H147.1V1.175H150.9V4.6H154.05V7.85H150.9V13.575C150.9 14.4417 151.309 14.875 152.125 14.875C152.792 14.875 153.417 14.7167 154 14.4V17.45C153.134 17.9667 152.134 18.225 151 18.225ZM160.051 22.075C158.851 22.075 157.726 21.7667 156.676 21.15L157.951 18.4C158.535 18.75 159.076 18.925 159.576 18.925C160.176 18.925 160.618 18.6333 160.901 18.05L155.651 4.6H159.676L162.726 13.725L165.651 4.6H169.601L164.451 18.325C163.935 19.7083 163.351 20.675 162.701 21.225C162.051 21.7917 161.168 22.075 160.051 22.075Z" transform="translate(42 1)" fill="white"/>
<path fill-rule="evenodd" clip-rule="evenodd" d="M23.1543 0.617649C22.3232 -0.205883 20.8979 -0.205883 20.0664 0.617649L10.1997 10.3473L5.93359 6.08823C5.10205 5.2647 3.67676 5.2647 2.8457 6.08823L0 9.5L8.66504 18.3823C9.49658 19.2059 10.9214 19.2059 11.7529 18.3823L13.4751 16.6765C13.5371 16.6149 13.5947 16.55 13.6475 16.4823L26.5 4L23.1543 0.617649Z" transform="translate(4)" fill="white" fill-opacity="0.3"/>
<path fill-rule="evenodd" clip-rule="evenodd" d="M23.1543 0.617649C22.3232 -0.205883 20.8979 -0.205883 20.0664 0.617649L10.1997 10.3473L5.93359 6.08823C5.10205 5.2647 3.67676 5.2647 2.8457 6.08823L0 9.5L8.66504 18.3823C9.49658 19.2059 10.9214 19.2059 11.7529 18.3823L13.4751 16.6765C13.5371 16.6149 13.5947 16.55 13.6475 16.4823L26.5 4L23.1543 0.617649Z" fill="white" fill-opacity="0.3"/>
<path fill-rule="evenodd" clip-rule="evenodd" d="M23.1543 0.617649C22.3232 -0.205883 20.8979 -0.205883 20.0664 0.617649L10.1997 10.3473L5.93359 6.08823C5.10205 5.2647 3.67676 5.2647 2.8457 6.08823L0 9.5L8.66504 18.3823C9.49658 19.2059 10.9214 19.2059 11.7529 18.3823L13.4751 16.6765C13.5371 16.6149 13.5947 16.55 13.6475 16.4823L26.5 4L23.1543 0.617649Z" transform="translate(8)" fill="white"/>
</svg>
