<svg width="24" height="13" viewBox="0 0 24 13" fill="none" xmlns="http://www.w3.org/2000/svg">
<path fill-rule="evenodd" clip-rule="evenodd" d="M18.877 0.422241C18.2988 -0.140747 17.3076 -0.140747 16.7305 0.422241L9.87109 7.07996L6.90527 4.16541C6.32715 3.60242 5.33594 3.60242 4.75879 4.16541L2.78027 6.49988L8.80371 12.5775C9.38184 13.141 10.373 13.141 10.9502 12.5775L12.1475 11.41C12.1895 11.3685 12.2295 11.3251 12.2656 11.2797L21.2021 2.73669L18.877 0.422241Z" fill="white" fill-opacity="0.3"/>
<path fill-rule="evenodd" clip-rule="evenodd" d="M16.0967 0.422241C15.5186 -0.140747 14.5273 -0.140747 13.9502 0.422241L7.09082 7.07996L4.125 4.16541C3.54688 3.60242 2.55566 3.60242 1.97852 4.16541L0 6.49988L6.02344 12.5775C6.60156 13.141 7.59277 13.141 8.16992 12.5775L9.36719 11.41C9.40918 11.3685 9.44922 11.3251 9.48535 11.2797L18.4219 2.73669L16.0967 0.422241Z" fill="white" fill-opacity="0.3"/>
<path fill-rule="evenodd" clip-rule="evenodd" d="M20.5811 0.000493332C20.1895 0.000981614 19.7988 0.141607 19.5107 0.422368L12.6514 7.07911L9.68652 4.16504C9.1084 3.60206 8.11719 3.60206 7.54004 4.16504L5.56152 6.49952L11.585 12.5772C12.1631 13.1406 13.1543 13.1406 13.7314 12.5772L14.9287 11.4097C14.9717 11.3677 15.0117 11.3237 15.0479 11.2778L23.9824 2.73682L21.6572 0.422368C21.3672 0.140142 20.9736 -0.00048323 20.5811 0.000493332Z" fill="white"/>
</svg>
