<?xml version="1.0" encoding="utf-8"?>
<!-- Generator: Adobe Illustrator 22.1.0, SVG Export Plug-In . SVG Version: 6.00 Build 0)  -->
<svg version="1.1" id="Слой_1" xmlns="http://www.w3.org/2000/svg" xmlns:xlink="http://www.w3.org/1999/xlink" x="0px" y="0px"
	 viewBox="0 0 17 14" style="enable-background:new 0 0 17 14;" xml:space="preserve">
<style type="text/css">
	.st0{fill:#FFFFFF;}
</style>
<path class="st0" d="M14.3,6.2H5C4.6,6.2,4.3,6.6,4.3,7c0,0.4,0.4,0.8,0.8,0.8h9.2l-1,1c-0.3,0.3-0.3,0.8,0,1.1
	c0.3,0.3,0.8,0.3,1.1,0l2.4-2.3c0,0,0,0,0.1-0.1c0,0,0,0,0,0c0,0,0,0,0,0c0,0,0,0,0,0c0,0,0,0,0,0c0,0,0,0,0,0c0,0,0,0,0,0
	c0,0,0,0,0,0c0,0,0,0,0,0c0,0,0,0,0,0c0,0,0,0,0,0c0,0,0,0,0,0c0,0,0,0,0,0c0,0,0-0.1,0-0.1c0,0,0,0,0,0c0,0,0,0,0,0
	c0,0,0-0.1,0-0.1c0,0,0,0,0,0c0,0,0,0,0,0c0,0,0,0,0,0c0,0,0,0,0,0c0,0,0,0,0,0c0,0,0,0,0,0c0,0,0,0,0,0c0,0,0,0,0,0c0,0,0,0,0,0
	c0,0,0,0,0,0c0,0,0,0,0,0c0,0,0,0,0,0c0,0,0,0-0.1-0.1c0,0,0,0,0,0l-2.4-2.3C14.2,4,14,3.9,13.8,3.9c-0.2,0-0.4,0.1-0.6,0.2
	c-0.3,0.3-0.3,0.8,0,1.1L14.3,6.2z"/>
<path class="st0" d="M0.8,14h10.1c0.4,0,0.8-0.3,0.8-0.8v-3.1c0-0.4-0.4-0.8-0.8-0.8c-0.4,0-0.8,0.3-0.8,0.8v2.3H1.6V1.6h8.5v2.3
	c0,0.4,0.4,0.8,0.8,0.8c0.4,0,0.8-0.3,0.8-0.8V0.8c0-0.4-0.4-0.8-0.8-0.8H0.8C0.4,0,0,0.3,0,0.8v12.4C0,13.7,0.4,14,0.8,14z"/>
</svg>
