<svg width="753" height="464" viewBox="0 0 753 464" fill="none" xmlns="http://www.w3.org/2000/svg">
<g filter="url(#filter0_i)">
<g filter="url(#filter1_i)">
<path d="M0 0H749V417H0V0Z" transform="translate(2)" fill="#FDFDFF"/>
</g>
<g filter="url(#filter2_i)">
<path fill-rule="evenodd" clip-rule="evenodd" d="M748.71 0.289583H0.289861V416.71H748.71V0.289583ZM0 0V417H749V0H0Z" transform="translate(2)" fill="#D9E1EE"/>
</g>
<g opacity="0.3" filter="url(#filter3_d)">
<path d="M0 0H749V113.517H0V0Z" transform="translate(2 77.6084)" fill="#C2DEF9"/>
</g>
<path d="M0 0H749V78H0V0Z" transform="translate(2)" fill="white"/>
<path opacity="0.2" d="M0 386L749 0V386H0Z" transform="translate(2 78)" fill="#C2DEF9"/>
<g filter="url(#filter4_d)">
<path d="M45.2154 22.5889C45.2154 35.0645 35.0936 45.1779 22.6077 45.1779C10.1218 45.1779 0 35.0645 0 22.5889C0 10.1134 10.1218 0 22.6077 0C35.0936 0 45.2154 10.1134 45.2154 22.5889Z" transform="matrix(0.965988 -0.258588 0.25905 0.965864 350.992 24.2515)" fill="#959CB3"/>
<path d="M22.5983 22.5983C35.079 22.5983 45.1966 12.4807 45.1966 0H0C0 12.4807 10.1176 22.5983 22.5983 22.5983Z" transform="translate(367.788 60.0223) scale(1.00048 0.999521) rotate(-60.0023)" fill="#D9E7F8"/>
<path d="M11.0439 0L22.0877 19.1148H0L11.0439 0Z" transform="translate(368.3 27.9326) scale(1.00012 0.999882) rotate(-0.215283)" fill="#D9E7F8"/>
<path fill-rule="evenodd" clip-rule="evenodd" d="M14.0558 0L28.1117 24.3279H0L14.0558 0ZM6.02393 20.8525H22.0877L14.0558 6.95082L6.02393 20.8525Z" transform="translate(365.275 24.469) scale(1.00012 0.999882) rotate(-0.215283)" fill="white"/>
</g>
<path d="M0 2.31667C0 1.03721 1.0382 0 2.31889 0H77.6827C78.9633 0 80.0015 1.03721 80.0015 2.31667C80.0015 3.59613 78.9633 4.63333 77.6827 4.63333H2.31889C1.0382 4.63333 0 3.59613 0 2.31667Z" transform="translate(36.7832 37.0667)" fill="#E0EEFF"/>
<path d="M0 5.79167C0 2.59302 2.5955 0 5.79721 0H226.091C229.293 0 231.889 2.59302 231.889 5.79167C231.889 8.99032 229.293 11.5833 226.091 11.5833H5.79721C2.5955 11.5833 0 8.99032 0 5.79167Z" transform="translate(36.7832 103.092)" fill="#E0EAF7"/>
<path d="M0 2.31667C0 1.03721 1.0382 0 2.31889 0H40.5805C41.8612 0 42.8994 1.03721 42.8994 2.31667C42.8994 3.59613 41.8612 4.63333 40.5805 4.63333H2.31889C1.0382 4.63333 0 3.59613 0 2.31667Z" transform="translate(135.336 37.0667)" fill="#E0EEFF"/>
<path d="M0 2.31667C0 1.03721 1.0382 0 2.31889 0H66.0882C67.3689 0 68.4071 1.03721 68.4071 2.31667C68.4071 3.59613 67.3689 4.63333 66.0882 4.63333H2.31889C1.0382 4.63333 0 3.59613 0 2.31667Z" transform="translate(572.446 37.0667)" fill="#E0EEFF"/>
<path d="M0 2.31667C0 1.03721 1.0382 0 2.31889 0H34.7833C36.064 0 37.1022 1.03721 37.1022 2.31667C37.1022 3.59613 36.064 4.63333 34.7833 4.63333H2.31889C1.0382 4.63333 0 3.59613 0 2.31667Z" transform="translate(517.952 37.0667)" fill="#E0EEFF"/>
<path d="M0 0H747V273H0V0Z" transform="translate(2 191)" fill="#EDF3FC"/>
<path opacity="0.2" d="M0 156L749 0V156H0Z" transform="translate(2 308)" fill="#D2E0F1"/>
<path opacity="0.1" d="M0 324L749 0V324H0Z" transform="translate(2 140)" fill="#5FB1F5"/>
<path opacity="0.05" d="M0 220L749 0V220H0Z" transform="translate(751 244) scale(-1 1)" fill="#5FB1F5"/>
<path d="M0 2.31667C0 1.03721 1.0382 0 2.31889 0H55.6533C56.9339 0 57.9721 1.03721 57.9721 2.31667C57.9721 3.59613 56.9339 4.63333 55.6533 4.63333H2.31889C1.0382 4.63333 0 3.59613 0 2.31667Z" transform="translate(658.245 37.0667)" fill="#E0EEFF"/>
<path d="M0 15.042C0 6.73454 5.18769 0 11.587 0H140.203C146.602 0 151.79 6.73454 151.79 15.042V163.958C151.79 172.265 146.602 179 140.203 179H11.587C5.18769 179 0 172.265 0 163.958V15.042Z" transform="translate(37 156)" fill="white"/>
<path d="M0 15.042C0 6.73454 5.18769 0 11.587 0H140.203C146.602 0 151.79 6.73454 151.79 15.042V163.958C151.79 172.265 146.602 179 140.203 179H11.587C5.18769 179 0 172.265 0 163.958V15.042Z" transform="translate(213.123 156)" fill="white"/>
<path d="M0 15.042C0 6.73454 5.18769 0 11.587 0H140.203C146.602 0 151.79 6.73454 151.79 15.042V163.958C151.79 172.265 146.602 179 140.203 179H11.587C5.18769 179 0 172.265 0 163.958V15.042Z" transform="translate(388.087 156)" fill="white"/>
<path d="M0 15.042C0 6.73454 5.18769 0 11.587 0H140.203C146.602 0 151.79 6.73454 151.79 15.042V163.958C151.79 172.265 146.602 179 140.203 179H11.587C5.18769 179 0 172.265 0 163.958V15.042Z" transform="translate(564.21 156)" fill="white"/>
<path d="M0 2.31667C0 1.03721 1.0382 0 2.31889 0H77.6827C78.9633 0 80.0015 1.03721 80.0015 2.31667C80.0015 3.59613 78.9633 4.63333 77.6827 4.63333H2.31889C1.0382 4.63333 0 3.59613 0 2.31667Z" transform="translate(71.5667 265.258)" fill="#E0EEFF"/>
<path d="M0 2.31667C0 1.03721 1.0382 0 2.31889 0H77.9311C79.2118 0 80.25 1.03721 80.25 2.31667C80.25 3.59613 79.2118 4.63333 77.9311 4.63333H2.31888C1.0382 4.63333 0 3.59613 0 2.31667Z" transform="translate(249 265.258)" fill="#E0EEFF"/>
<path d="M24.8508 13.2701C1.47611 13.3911 2.0784 12.9972 0.0591941 13.6252H0C3.1831 12.6452 3.80928 9.81421 3.88861 9.41504L4.38633 1.96119C4.46109 1.43547 4.85586 0.96891 5.41076 0.846005C10.4203 -0.263516 17.133 -0.247749 21.8707 0.694529C22.3146 0.782935 22.6545 1.14316 22.7181 1.59301L23.2578 9.36046C23.2578 9.36046 23.6808 12.4258 26.9227 13.5473C26.2619 13.3677 25.5676 13.2701 24.8508 13.2701Z" transform="translate(272.804 174)" fill="#E4EAF6"/>
<path d="M2.12095 0H1.69679C0.763496 0 0 0.766679 0 1.70357V4.25898C0 5.196 0.76363 5.96255 1.69679 5.96255H2.12095C3.05424 5.96255 3.81774 5.196 3.81774 4.25898V1.70357C3.81787 0.766679 3.05424 0 2.12095 0Z" transform="translate(305.454 197.952)" fill="#D5DCEC"/>
<path d="M2.12095 0H1.69679C0.763496 0 0 0.766542 0 1.70356C0 3.72531 0 6.43908 0 8.28131C0 9.21834 0.76363 9.98488 1.69679 9.98488H2.12095C3.05424 9.98488 3.81774 9.21834 3.81774 8.28131C3.81774 3.94929 3.81774 5.51957 3.81774 1.70356C3.81787 0.766677 3.05424 0 2.12095 0Z" transform="translate(305.453 209.972)" fill="#D5DCEC"/>
<path d="M2.12095 1.70357H1.69679C0.763496 1.70357 0 0.937021 0 0C0 1.68941 0 3.02157 0 4.55574C0 5.49276 0.76363 6.2593 1.69679 6.2593H2.12095C3.05424 6.2593 3.81774 5.49276 3.81774 4.55574C3.81774 3.03828 3.81774 1.51921 3.81774 0C3.81787 0.937021 3.05424 1.70357 2.12095 1.70357Z" transform="translate(305.453 213.698)" fill="#C7CFE2"/>
<path d="M2.40377 0.355103C1.58793 0.355103 0.800541 0.230583 0.0591961 0H0C3.1831 0.980011 3.80928 3.81102 3.88861 4.21019C4.02136 6.16766 4.3725 11.5858 4.4023 11.7368C4.57962 12.63 5.42834 12.7883 5.41452 12.7802C10.4208 13.8882 17.145 13.8707 21.8706 12.9308C22.3145 12.8424 22.6543 12.4822 22.7179 12.0324L23.2577 4.26491C23.2577 4.26491 23.6806 1.19954 26.9225 0.0780262C25.109 0.570862 25.9361 0.258881 2.40377 0.355103Z" transform="translate(272.804 229.376)" fill="#E4EAF6"/>
<path d="M30.3836 43.0161H7.93654C3.56028 43.0161 0 39.4416 0 35.0479V7.96825C0 3.57464 3.56028 0 7.93654 0H30.3836C34.7599 0 38.32 3.57451 38.32 7.96825V35.0479C38.3202 39.4416 34.7599 43.0161 30.3836 43.0161Z" transform="translate(267.271 186.992)" fill="#D9E4F9"/>
<path d="M4.11867 0C1.84766 0 0 1.85504 0 4.13513V31.2148C0 33.4949 1.84766 35.35 4.11867 35.35H26.5657C28.8368 35.35 30.6844 33.4949 30.6844 31.2148V4.13513C30.6844 1.85504 28.8368 0 26.5657 0H4.11867Z" transform="translate(271.089 190.826)" fill="#C0C6DE"/>
<path d="M0 2.31667C0 1.03721 1.0382 0 2.31889 0H77.9311C79.2118 0 80.25 1.03721 80.25 2.31667C80.25 3.59613 79.2118 4.63333 77.9311 4.63333H2.31888C1.0382 4.63333 0 3.59613 0 2.31667Z" transform="translate(424.185 265.258)" fill="#E0EEFF"/>
<path d="M24.8508 13.2701C1.47611 13.3911 2.0784 12.9972 0.0591941 13.6252H0C3.1831 12.6452 3.80928 9.81421 3.88861 9.41504L4.38633 1.96119C4.46109 1.43547 4.85586 0.96891 5.41076 0.846005C10.4203 -0.263516 17.133 -0.247749 21.8707 0.694529C22.3146 0.782935 22.6545 1.14316 22.7181 1.59301L23.2578 9.36046C23.2578 9.36046 23.6808 12.4258 26.9227 13.5473C26.2619 13.3677 25.5676 13.2701 24.8508 13.2701Z" transform="translate(451.533 174)" fill="#959CB3"/>
<path d="M2.12095 0H1.69679C0.763496 0 0 0.766679 0 1.70357V4.25898C0 5.196 0.76363 5.96255 1.69679 5.96255H2.12095C3.05424 5.96255 3.81774 5.196 3.81774 4.25898V1.70357C3.81787 0.766679 3.05424 0 2.12095 0Z" transform="translate(484.183 197.952)" fill="#D5DCEC"/>
<path d="M2.12095 0H1.69679C0.763496 0 0 0.766542 0 1.70356C0 3.72531 0 6.43908 0 8.28131C0 9.21834 0.76363 9.98488 1.69679 9.98488H2.12095C3.05424 9.98488 3.81774 9.21834 3.81774 8.28131C3.81774 3.94929 3.81774 5.51957 3.81774 1.70356C3.81787 0.766677 3.05424 0 2.12095 0Z" transform="translate(484.182 209.972)" fill="#D5DCEC"/>
<path d="M2.12095 1.70357H1.69679C0.763496 1.70357 0 0.937021 0 0C0 1.68941 0 3.02157 0 4.55574C0 5.49276 0.76363 6.2593 1.69679 6.2593H2.12095C3.05424 6.2593 3.81774 5.49276 3.81774 4.55574C3.81774 3.03828 3.81774 1.51921 3.81774 0C3.81787 0.937021 3.05424 1.70357 2.12095 1.70357Z" transform="translate(484.182 213.698)" fill="#C7CFE2"/>
<path d="M2.40377 0.355103C1.58793 0.355103 0.800541 0.230583 0.0591961 0H0C3.1831 0.980011 3.80928 3.81102 3.88861 4.21019C4.02136 6.16766 4.3725 11.5858 4.4023 11.7368C4.57962 12.63 5.42834 12.7883 5.41452 12.7802C10.4208 13.8882 17.145 13.8707 21.8706 12.9308C22.3145 12.8424 22.6543 12.4822 22.7179 12.0324L23.2577 4.26491C23.2577 4.26491 23.6806 1.19954 26.9225 0.0780262C25.109 0.570862 25.9361 0.258881 2.40377 0.355103Z" transform="translate(451.533 229.376)" fill="#959CB3"/>
<path d="M30.3836 43.0161H7.93654C3.56028 43.0161 0 39.4416 0 35.0479V7.96825C0 3.57464 3.56028 0 7.93654 0H30.3836C34.7599 0 38.32 3.57451 38.32 7.96825V35.0479C38.3202 39.4416 34.7599 43.0161 30.3836 43.0161Z" transform="translate(446 186.992)" fill="#D9E4F9"/>
<path d="M4.11867 0C1.84766 0 0 1.85504 0 4.13513V31.2148C0 33.4949 1.84766 35.35 4.11867 35.35H26.5657C28.8368 35.35 30.6844 33.4949 30.6844 31.2148V4.13513C30.6844 1.85504 28.8368 0 26.5657 0H4.11867Z" transform="translate(449.818 190.826)" fill="#ECF1F9"/>
<path d="M10.5115 21.1069C16.3168 21.1069 21.0229 16.382 21.0229 10.5535C21.0229 4.72494 16.3168 0 10.5115 0C4.70614 0 0 4.72494 0 10.5535C0 16.382 4.70614 21.1069 10.5115 21.1069Z" transform="translate(454.6 197.866)" fill="#ECF1F9"/>
<path d="M0 2.31667C0 1.03721 1.0382 0 2.31889 0H77.9311C79.2118 0 80.25 1.03721 80.25 2.31667C80.25 3.59613 79.2118 4.63333 77.9311 4.63333H2.31888C1.0382 4.63333 0 3.59613 0 2.31667Z" transform="translate(600 265.258)" fill="#E0EEFF"/>
<path d="M24.8508 13.2701C1.47611 13.3911 2.0784 12.9972 0.0591941 13.6252H0C3.1831 12.6452 3.80928 9.81421 3.88861 9.41504L4.38633 1.96119C4.46109 1.43547 4.85586 0.96891 5.41076 0.846005C10.4203 -0.263516 17.133 -0.247749 21.8707 0.694529C22.3146 0.782935 22.6545 1.14316 22.7181 1.59301L23.2578 9.36046C23.2578 9.36046 23.6808 12.4258 26.9227 13.5473C26.2619 13.3677 25.5676 13.2701 24.8508 13.2701Z" transform="translate(627.403 174)" fill="#C0C6DE"/>
<path d="M2.12095 0H1.69679C0.763496 0 0 0.766679 0 1.70357V4.25898C0 5.196 0.76363 5.96255 1.69679 5.96255H2.12095C3.05424 5.96255 3.81774 5.196 3.81774 4.25898V1.70357C3.81787 0.766679 3.05424 0 2.12095 0Z" transform="translate(660.052 197.952)" fill="#D5DCEC"/>
<path d="M2.12095 0H1.69679C0.763496 0 0 0.766542 0 1.70356C0 3.72531 0 6.43908 0 8.28131C0 9.21834 0.76363 9.98488 1.69679 9.98488H2.12095C3.05424 9.98488 3.81774 9.21834 3.81774 8.28131C3.81774 3.94929 3.81774 5.51957 3.81774 1.70356C3.81787 0.766677 3.05424 0 2.12095 0Z" transform="translate(660.052 209.972)" fill="#D5DCEC"/>
<path d="M2.12095 1.70357H1.69679C0.763496 1.70357 0 0.937021 0 0C0 1.68941 0 3.02157 0 4.55574C0 5.49276 0.76363 6.2593 1.69679 6.2593H2.12095C3.05424 6.2593 3.81774 5.49276 3.81774 4.55574C3.81774 3.03828 3.81774 1.51921 3.81774 0C3.81787 0.937021 3.05424 1.70357 2.12095 1.70357Z" transform="translate(660.052 213.698)" fill="#C7CFE2"/>
<path d="M2.40377 0.355103C1.58793 0.355103 0.800541 0.230583 0.0591961 0H0C3.1831 0.980011 3.80928 3.81102 3.88861 4.21019C4.02136 6.16766 4.3725 11.5858 4.4023 11.7368C4.57962 12.63 5.42834 12.7883 5.41452 12.7802C10.4208 13.8882 17.145 13.8707 21.8706 12.9308C22.3145 12.8424 22.6543 12.4822 22.7179 12.0324L23.2577 4.26491C23.2577 4.26491 23.6806 1.19954 26.9225 0.0780262C25.109 0.570862 25.9361 0.258881 2.40377 0.355103Z" transform="translate(627.403 229.376)" fill="#C0C6DE"/>
<path d="M30.3836 43.0161H7.93654C3.56028 43.0161 0 39.4416 0 35.0479V7.96825C0 3.57464 3.56028 0 7.93654 0H30.3836C34.7599 0 38.32 3.57451 38.32 7.96825V35.0479C38.3202 39.4416 34.7599 43.0161 30.3836 43.0161Z" transform="translate(621.87 186.992)" fill="#D9E4F9"/>
<path d="M4.11867 0C1.84766 0 0 1.85504 0 4.13513V31.2148C0 33.4949 1.84766 35.35 4.11867 35.35H26.5657C28.8368 35.35 30.6844 33.4949 30.6844 31.2148V4.13513C30.6844 1.85504 28.8368 0 26.5657 0H4.11867Z" transform="translate(625.688 190.826)" fill="#C0C6DE"/>
<path d="M24.8508 13.2701C1.47611 13.3911 2.0784 12.9972 0.0591941 13.6252H0C3.1831 12.6452 3.80928 9.81421 3.88861 9.41504L4.38633 1.96119C4.46109 1.43547 4.85586 0.96891 5.41076 0.846005C10.4203 -0.263516 17.133 -0.247749 21.8707 0.694529C22.3146 0.782935 22.6545 1.14316 22.7181 1.59301L23.2578 9.36046C23.2578 9.36046 23.6808 12.4258 26.9227 13.5473C26.2619 13.3677 25.5676 13.2701 24.8508 13.2701Z" transform="translate(99.533 174)" fill="#C0C6DE"/>
<path d="M2.12095 0H1.69679C0.763496 0 0 0.766679 0 1.70357V4.25898C0 5.196 0.76363 5.96255 1.69679 5.96255H2.12095C3.05424 5.96255 3.81774 5.196 3.81774 4.25898V1.70357C3.81787 0.766679 3.05424 0 2.12095 0Z" transform="translate(132.183 197.952)" fill="#D5DCEC"/>
<path d="M2.12095 0H1.69679C0.763496 0 0 0.766542 0 1.70356C0 3.72531 0 6.43908 0 8.28131C0 9.21834 0.76363 9.98488 1.69679 9.98488H2.12095C3.05424 9.98488 3.81774 9.21834 3.81774 8.28131C3.81774 3.94929 3.81774 5.51957 3.81774 1.70356C3.81787 0.766677 3.05424 0 2.12095 0Z" transform="translate(132.182 209.972)" fill="#D5DCEC"/>
<path d="M2.12095 1.70357H1.69679C0.763496 1.70357 0 0.937021 0 0C0 1.68941 0 3.02157 0 4.55574C0 5.49276 0.76363 6.2593 1.69679 6.2593H2.12095C3.05424 6.2593 3.81774 5.49276 3.81774 4.55574C3.81774 3.03828 3.81774 1.51921 3.81774 0C3.81787 0.937021 3.05424 1.70357 2.12095 1.70357Z" transform="translate(132.182 213.698)" fill="#C7CFE2"/>
<path d="M2.40377 0.355103C1.58793 0.355103 0.800541 0.230583 0.0591961 0H0C3.1831 0.980011 3.80928 3.81102 3.88861 4.21019C4.02136 6.16766 4.3725 11.5858 4.4023 11.7368C4.57962 12.63 5.42834 12.7883 5.41452 12.7802C10.4208 13.8882 17.145 13.8707 21.8706 12.9308C22.3145 12.8424 22.6543 12.4822 22.7179 12.0324L23.2577 4.26491C23.2577 4.26491 23.6806 1.19954 26.9225 0.0780262C25.109 0.570862 25.9361 0.258881 2.40377 0.355103Z" transform="translate(99.533 229.376)" fill="#C0C6DE"/>
<path d="M30.3836 43.0161H7.93654C3.56028 43.0161 0 39.4416 0 35.0479V7.96825C0 3.57464 3.56028 0 7.93654 0H30.3836C34.7599 0 38.32 3.57451 38.32 7.96825V35.0479C38.3202 39.4416 34.7599 43.0161 30.3836 43.0161Z" transform="translate(94 186.992)" fill="#D9E4F9"/>
<path d="M4.11867 0C1.84766 0 0 1.85504 0 4.13513V31.2148C0 33.4949 1.84766 35.35 4.11867 35.35H26.5657C28.8368 35.35 30.6844 33.4949 30.6844 31.2148V4.13513C30.6844 1.85504 28.8368 0 26.5657 0H4.11867Z" transform="translate(97.8179 190.826)" fill="#ECF0FF"/>
<path d="M0 2.31667C0 1.03721 0.890378 0 1.98872 0H66.622C67.7203 0 68.6107 1.03721 68.6107 2.31667C68.6107 3.59613 67.7203 4.63333 66.622 4.63333H1.98872C0.890378 4.63333 0 3.59613 0 2.31667Z" transform="translate(78.0066 277.942) rotate(0.0830258)" fill="#E0EEFF"/>
<path d="M0 2.5C0 1.11929 0.789162 0 1.76264 0H59.2374C60.2108 0 61 1.11929 61 2.5C61 3.88071 60.2108 5 59.2374 5H1.76264C0.78916 5 0 3.88071 0 2.5Z" transform="translate(257.271 278)" fill="#E0EEFF"/>
<path d="M0 2.5C0 1.11929 0.827973 0 1.84933 0H62.1507C63.172 0 64 1.11929 64 2.5C64 3.88071 63.172 5 62.1507 5H1.84933C0.827971 5 0 3.88071 0 2.5Z" transform="translate(432 278)" fill="#E0EEFF"/>
<path d="M0 2.5C0 1.11929 0.827973 0 1.84933 0H62.1507C63.172 0 64 1.11929 64 2.5C64 3.88071 63.172 5 62.1507 5H1.84933C0.827971 5 0 3.88071 0 2.5Z" transform="translate(607.87 278)" fill="#E0EEFF"/>
</g>
<defs>
<filter id="filter0_i" x="2" y="0" width="749" height="464" filterUnits="userSpaceOnUse" color-interpolation-filters="sRGB">
<feFlood flood-opacity="0" result="BackgroundImageFix"/>
<feBlend mode="normal" in="SourceGraphic" in2="BackgroundImageFix" result="shape"/>
<feColorMatrix in="SourceAlpha" type="matrix" values="0 0 0 0 0 0 0 0 0 0 0 0 0 0 0 0 0 0 255 0" result="hardAlpha"/>
<feOffset/>
<feGaussianBlur stdDeviation="10"/>
<feComposite in2="hardAlpha" operator="arithmetic" k2="-1" k3="1"/>
<feColorMatrix type="matrix" values="0 0 0 0 0 0 0 0 0 0 0 0 0 0 0 0 0 0 0.05 0"/>
<feBlend mode="normal" in2="shape" result="effect1_innerShadow"/>
</filter>
<filter id="filter1_i" x="2" y="0" width="749" height="417" filterUnits="userSpaceOnUse" color-interpolation-filters="sRGB">
<feFlood flood-opacity="0" result="BackgroundImageFix"/>
<feBlend mode="normal" in="SourceGraphic" in2="BackgroundImageFix" result="shape"/>
<feColorMatrix in="SourceAlpha" type="matrix" values="0 0 0 0 0 0 0 0 0 0 0 0 0 0 0 0 0 0 255 0" result="hardAlpha"/>
<feOffset/>
<feGaussianBlur stdDeviation="4"/>
<feComposite in2="hardAlpha" operator="arithmetic" k2="-1" k3="1"/>
<feColorMatrix type="matrix" values="0 0 0 0 0 0 0 0 0 0 0 0 0 0 0 0 0 0 0.1 0"/>
<feBlend mode="normal" in2="shape" result="effect1_innerShadow"/>
</filter>
<filter id="filter2_i" x="2" y="0" width="749" height="417" filterUnits="userSpaceOnUse" color-interpolation-filters="sRGB">
<feFlood flood-opacity="0" result="BackgroundImageFix"/>
<feBlend mode="normal" in="SourceGraphic" in2="BackgroundImageFix" result="shape"/>
<feColorMatrix in="SourceAlpha" type="matrix" values="0 0 0 0 0 0 0 0 0 0 0 0 0 0 0 0 0 0 255 0" result="hardAlpha"/>
<feOffset/>
<feGaussianBlur stdDeviation="4"/>
<feComposite in2="hardAlpha" operator="arithmetic" k2="-1" k3="1"/>
<feColorMatrix type="matrix" values="0 0 0 0 0 0 0 0 0 0 0 0 0 0 0 0 0 0 0.1 0"/>
<feBlend mode="normal" in2="shape" result="effect1_innerShadow"/>
</filter>
<filter id="filter3_d" x="0" y="77.6084" width="753" height="117.517" filterUnits="userSpaceOnUse" color-interpolation-filters="sRGB">
<feFlood flood-opacity="0" result="BackgroundImageFix"/>
<feColorMatrix in="SourceAlpha" type="matrix" values="0 0 0 0 0 0 0 0 0 0 0 0 0 0 0 0 0 0 255 0"/>
<feOffset dy="2"/>
<feGaussianBlur stdDeviation="1"/>
<feColorMatrix type="matrix" values="0 0 0 0 0 0 0 0 0 0 0 0 0 0 0 0 0 0 0.1 0"/>
<feBlend mode="normal" in2="BackgroundImageFix" result="effect1_dropShadow"/>
<feBlend mode="normal" in="SourceGraphic" in2="effect1_dropShadow" result="shape"/>
</filter>
<filter id="filter4_d" x="355.068" y="17.6301" width="49.6371" height="49.4216" filterUnits="userSpaceOnUse" color-interpolation-filters="sRGB">
<feFlood flood-opacity="0" result="BackgroundImageFix"/>
<feColorMatrix in="SourceAlpha" type="matrix" values="0 0 0 0 0 0 0 0 0 0 0 0 0 0 0 0 0 0 255 0"/>
<feOffset dx="1" dy="2"/>
<feGaussianBlur stdDeviation="1"/>
<feColorMatrix type="matrix" values="0 0 0 0 0 0 0 0 0 0 0 0 0 0 0 0 0 0 0.1 0"/>
<feBlend mode="normal" in2="BackgroundImageFix" result="effect1_dropShadow"/>
<feBlend mode="normal" in="SourceGraphic" in2="effect1_dropShadow" result="shape"/>
</filter>
</defs>
</svg>
