<svg width="986" height="565" viewBox="0 0 986 565" fill="none" xmlns="http://www.w3.org/2000/svg">
<g filter="url(#filter0_d)">
<path d="M0 30C0 13.4315 13.4315 0 30 0H769C785.569 0 799 13.4315 799 30V519C799 535.569 785.569 549 769 549H30C13.4315 549 0 535.569 0 519V30Z" transform="translate(93 4)" fill="#F4F9FF"/>
</g>
<g filter="url(#filter1_i)">
<path d="M0 0H749V464H0V0Z" transform="translate(118 47)" fill="white"/>
</g>
<g filter="url(#filter2_i)">
<path fill-rule="evenodd" clip-rule="evenodd" d="M748.75 0.25H0.25V463.75H748.75V0.25ZM0 0V464H749V0H0Z" transform="translate(118 47)" fill="#D9E1EE"/>
</g>
<path d="M0 0H985C985 0 918 16.7695 816.5 17.8874C793.503 18.1407 180.5 17.8874 167 17.8874C75 17.8874 0 0 0 0Z" transform="translate(1 547)" fill="url(#paint0_linear)"/>
<path d="M6.70213 3.35263C6.70213 5.20424 5.20181 6.70526 3.35106 6.70526C1.50032 6.70526 0 5.20424 0 3.35263C0 1.50102 1.50032 0 3.35106 0C5.20181 0 6.70213 1.50102 6.70213 3.35263Z" transform="translate(486 21)" fill="#C4C4C4"/>
<path d="M0 2C0 0.895431 0.895431 0 2 0H984C985.105 0 986 0.895431 986 2V5H0V2Z" transform="translate(0 542)" fill="url(#paint1_linear)"/>
<path fill-rule="evenodd" clip-rule="evenodd" d="M984 0.25H2C1.0335 0.25 0.25 1.0335 0.25 2V4.75H985.75V2C985.75 1.0335 984.966 0.25 984 0.25ZM2 0C0.895431 0 0 0.895431 0 2V5H986V2C986 0.895431 985.105 0 984 0H2Z" transform="translate(0 542)" fill="#D9E1EE"/>
<path d="M0 0H184V5C184 5 181.5 7 175 7C168.5 7 16.5 7 11 7C5.5 7 0 5 0 5V0Z" transform="translate(402 542)" fill="url(#paint2_linear)"/>
<path fill-rule="evenodd" clip-rule="evenodd" d="M183.75 0.25H0.25V4.82276C0.273419 4.83081 0.299244 4.83964 0.327417 4.8492C0.486729 4.90327 0.721067 4.98074 1.0197 5.07382C1.61707 5.26002 2.47121 5.50851 3.4964 5.75704C5.54883 6.2546 8.2775 6.75 11 6.75H175C178.224 6.75 180.446 6.25409 181.855 5.76388C182.56 5.5187 183.063 5.27469 183.386 5.0942C183.548 5.00394 183.665 4.92951 183.74 4.8787C183.743 4.8764 183.747 4.87415 183.75 4.87196V0.25ZM184 5V0H0V5C0 5 5.5 7 11 7H175C181.5 7 184 5 184 5Z" transform="translate(402 542)" fill="#D9E1EE"/>
<defs>
<filter id="filter0_d" x="89" y="0" width="807" height="557" filterUnits="userSpaceOnUse" color-interpolation-filters="sRGB">
<feFlood flood-opacity="0" result="BackgroundImageFix"/>
<feColorMatrix in="SourceAlpha" type="matrix" values="0 0 0 0 0 0 0 0 0 0 0 0 0 0 0 0 0 0 255 0"/>
<feOffset/>
<feGaussianBlur stdDeviation="2"/>
<feColorMatrix type="matrix" values="0 0 0 0 0 0 0 0 0 0 0 0 0 0 0 0 0 0 0.1 0"/>
<feBlend mode="normal" in2="BackgroundImageFix" result="effect1_dropShadow"/>
<feBlend mode="normal" in="SourceGraphic" in2="effect1_dropShadow" result="shape"/>
</filter>
<filter id="filter1_i" x="118" y="47" width="749" height="464" filterUnits="userSpaceOnUse" color-interpolation-filters="sRGB">
<feFlood flood-opacity="0" result="BackgroundImageFix"/>
<feBlend mode="normal" in="SourceGraphic" in2="BackgroundImageFix" result="shape"/>
<feColorMatrix in="SourceAlpha" type="matrix" values="0 0 0 0 0 0 0 0 0 0 0 0 0 0 0 0 0 0 255 0" result="hardAlpha"/>
<feOffset/>
<feGaussianBlur stdDeviation="4"/>
<feComposite in2="hardAlpha" operator="arithmetic" k2="-1" k3="1"/>
<feColorMatrix type="matrix" values="0 0 0 0 0 0 0 0 0 0 0 0 0 0 0 0 0 0 0.1 0"/>
<feBlend mode="normal" in2="shape" result="effect1_innerShadow"/>
</filter>
<filter id="filter2_i" x="118" y="47" width="749" height="464" filterUnits="userSpaceOnUse" color-interpolation-filters="sRGB">
<feFlood flood-opacity="0" result="BackgroundImageFix"/>
<feBlend mode="normal" in="SourceGraphic" in2="BackgroundImageFix" result="shape"/>
<feColorMatrix in="SourceAlpha" type="matrix" values="0 0 0 0 0 0 0 0 0 0 0 0 0 0 0 0 0 0 255 0" result="hardAlpha"/>
<feOffset/>
<feGaussianBlur stdDeviation="4"/>
<feComposite in2="hardAlpha" operator="arithmetic" k2="-1" k3="1"/>
<feColorMatrix type="matrix" values="0 0 0 0 0 0 0 0 0 0 0 0 0 0 0 0 0 0 0.1 0"/>
<feBlend mode="normal" in2="shape" result="effect1_innerShadow"/>
</filter>
<linearGradient id="paint0_linear" x2="1" gradientUnits="userSpaceOnUse" gradientTransform="translate(985) scale(985 18) rotate(90)">
<stop stop-color="#D4DCEA"/>
<stop offset="1" stop-color="#A7B3C6"/>
</linearGradient>
<linearGradient id="paint1_linear" x2="1" gradientUnits="userSpaceOnUse" gradientTransform="translate(6.10301e-07 -97217.6) scale(986 194439)">
<stop stop-color="#DEE4EF"/>
<stop offset="0.011122" stop-color="#F3F8FF" stop-opacity="0.878453"/>
<stop offset="0.983" stop-color="#F3F8FF"/>
<stop offset="1" stop-color="#E4EBF6"/>
</linearGradient>
<linearGradient id="paint2_linear" x2="1" gradientUnits="userSpaceOnUse" gradientTransform="translate(0.000334889 -2415.29) scale(184 4836.57)">
<stop stop-color="#E3EBF6"/>
<stop offset="0.0001" stop-color="#D1DAE8"/>
<stop offset="0.0469753" stop-color="#F3F8FF"/>
<stop offset="0.964867" stop-color="#F2F8FF"/>
<stop offset="1" stop-color="#CFD8E6"/>
</linearGradient>
</defs>
</svg>
