<svg width="38" height="30" viewBox="0 0 38 30" fill="none" xmlns="http://www.w3.org/2000/svg">
<rect width="84.491" height="64.8692" fill="black" fill-opacity="0" transform="translate(0.464844 29.7119) scale(0.44363 -0.44363)"/>
<path d="M32.1103 29.3213V29.3959H32.1801C32.1959 29.3959 32.2088 29.3927 32.2181 29.3867C32.2278 29.3807 32.2326 29.3711 32.2326 29.3581C32.2326 29.346 32.2278 29.3368 32.2181 29.3305C32.2088 29.3245 32.1959 29.3213 32.1801 29.3213H32.1103ZM32.1808 29.2689C32.2171 29.2689 32.2451 29.2768 32.2651 29.2927C32.2847 29.3089 32.2947 29.3305 32.2947 29.3581C32.2947 29.3813 32.2866 29.4007 32.2712 29.4156C32.2554 29.4305 32.2329 29.4397 32.204 29.4432L32.2969 29.549H32.2242L32.138 29.4439H32.1103V29.549H32.0495V29.2689H32.1808ZM32.1628 29.6452C32.1959 29.6452 32.2265 29.6389 32.2548 29.6268C32.2834 29.6144 32.3085 29.5976 32.3298 29.5763C32.3513 29.5553 32.368 29.5303 32.3806 29.5017C32.3928 29.4731 32.3989 29.4426 32.3989 29.4099C32.3989 29.3775 32.3928 29.347 32.3806 29.3184C32.368 29.2898 32.3513 29.2647 32.3298 29.2435C32.3085 29.2225 32.2834 29.2057 32.2548 29.1936C32.2265 29.1815 32.1959 29.1755 32.1628 29.1755C32.1293 29.1755 32.0981 29.1815 32.0688 29.1936C32.0395 29.2057 32.0141 29.2225 31.9926 29.2435C31.9713 29.2647 31.9543 29.2898 31.9421 29.3184C31.9298 29.347 31.9237 29.3775 31.9237 29.4099C31.9237 29.4426 31.9298 29.4731 31.9421 29.5017C31.9543 29.5303 31.9713 29.5553 31.9926 29.5763C32.0141 29.5976 32.0395 29.6144 32.0688 29.6268C32.0981 29.6389 32.1293 29.6452 32.1628 29.6452ZM32.1628 29.1082C32.2059 29.1082 32.2461 29.1161 32.2837 29.132C32.3214 29.1479 32.3545 29.1692 32.3825 29.1968C32.4108 29.2241 32.433 29.2562 32.4494 29.2927C32.4655 29.3295 32.4736 29.3686 32.4736 29.4099C32.4736 29.4515 32.4655 29.4906 32.4494 29.5268C32.433 29.5633 32.4108 29.5954 32.3825 29.6227C32.3545 29.65 32.3214 29.6716 32.2837 29.6878C32.2461 29.7037 32.2059 29.7119 32.1628 29.7119C32.1187 29.7119 32.0778 29.7037 32.0395 29.6878C32.0013 29.6716 31.9681 29.65 31.9401 29.6227C31.9121 29.5954 31.8903 29.5633 31.8738 29.5268C31.8578 29.4906 31.8497 29.4515 31.8497 29.4099C31.8497 29.3686 31.8578 29.3295 31.8738 29.2927C31.8903 29.2562 31.9121 29.2241 31.9401 29.1968C31.9681 29.1692 32.0013 29.1479 32.0395 29.132C32.0778 29.1161 32.1187 29.1082 32.1628 29.1082ZM27.5363 26.4417C27.6712 26.4417 27.8639 26.4671 28.0119 26.5242L27.8063 27.1458C27.6647 27.0886 27.5235 27.0696 27.3883 27.0696C26.9514 27.0696 26.7329 27.3487 26.7329 27.8499V29.5496H26.0647V26.5179H26.7268V26.8857C26.8999 26.6192 27.1509 26.4417 27.5363 26.4417ZM25.2236 27.1204H24.1313V28.4905C24.1313 28.7947 24.2404 28.998 24.5747 28.998C24.7481 28.998 24.9665 28.9408 25.1657 28.8265L25.3584 29.3911C25.1464 29.5369 24.8124 29.6258 24.5232 29.6258C23.7326 29.6258 23.4566 29.2073 23.4566 28.5032V27.1204H22.8334V26.5179H23.4566L23.4563 25.5982H24.131L24.1313 26.5179H25.2236V27.1204ZM22.0126 27.2916C21.826 27.1775 21.4469 27.0314 21.055 27.0314C20.6886 27.0314 20.4704 27.1648 20.4704 27.3868C20.4704 27.5898 20.7018 27.6469 20.9907 27.6847L21.3057 27.7292C21.974 27.8245 22.3787 28.1033 22.3787 28.6362C22.3787 29.2133 21.8646 29.6258 20.9778 29.6258C20.4769 29.6258 20.0142 29.4988 19.6477 29.2324L19.9627 28.7188C20.1876 28.89 20.5216 29.0358 20.9843 29.0358C21.4405 29.0358 21.6847 28.9027 21.6847 28.668C21.6847 28.4968 21.5113 28.4015 21.1451 28.3507L20.8301 28.3066C20.1426 28.2113 19.77 27.9067 19.77 27.4122C19.77 26.8094 20.2709 26.4417 21.0486 26.4417C21.537 26.4417 21.9804 26.5497 22.3015 26.7589L22.0126 27.2916ZM16.9106 27.7673C16.9814 27.3297 17.251 27.0314 17.7266 27.0314C18.1571 27.0314 18.4334 27.2979 18.5042 27.7673H16.9106ZM19.1982 28.0338C19.1918 27.0886 18.6004 26.4417 17.7394 26.4417C16.8398 26.4417 16.2102 27.0886 16.2102 28.0338C16.2102 28.998 16.8656 29.6258 17.7845 29.6258C18.2471 29.6258 18.6712 29.5115 19.0438 29.2009L18.7163 28.7125C18.4592 28.9154 18.1313 29.0294 17.8231 29.0294C17.3926 29.0294 17.0007 28.8328 16.9042 28.2875H19.1854C19.1918 28.2049 19.1982 28.1227 19.1982 28.0338ZM29.8613 27.0619C29.7242 27.0619 29.5971 27.0854 29.4797 27.1331C29.3619 27.1807 29.2603 27.2471 29.175 27.3325C29.0894 27.418 29.0219 27.5205 28.973 27.6396C28.9234 27.7587 28.899 27.8902 28.899 28.0338C28.899 28.1773 28.9234 28.3088 28.973 28.4279C29.0219 28.547 29.0894 28.6496 29.175 28.735C29.2603 28.8204 29.3619 28.8868 29.4797 28.9345C29.5971 28.9821 29.7242 29.0056 29.8613 29.0056C29.998 29.0056 30.1255 28.9821 30.2429 28.9345C30.3603 28.8868 30.4627 28.8204 30.5492 28.735C30.6358 28.6496 30.7036 28.547 30.7529 28.4279C30.8021 28.3088 30.8266 28.1773 30.8266 28.0338C30.8266 27.8902 30.8021 27.7587 30.7529 27.6396C30.7036 27.5205 30.6358 27.418 30.5492 27.3325C30.4627 27.2471 30.3603 27.1807 30.2429 27.1331C30.1255 27.0854 29.998 27.0619 29.8613 27.0619ZM29.8613 26.4382C30.0984 26.4382 30.3182 26.4788 30.5202 26.5601C30.7223 26.6414 30.897 26.7532 31.0447 26.8955C31.1921 27.0381 31.3076 27.2064 31.3909 27.4005C31.4746 27.5949 31.5161 27.8057 31.5161 28.0338C31.5161 28.2618 31.4746 28.4727 31.3909 28.6667C31.3076 28.8611 31.1921 29.0294 31.0447 29.172C30.897 29.3143 30.7223 29.4261 30.5202 29.5074C30.3182 29.5887 30.0984 29.6293 29.8613 29.6293C29.6239 29.6293 29.4041 29.5887 29.202 29.5074C29 29.4261 28.8256 29.3143 28.6792 29.172C28.5328 29.0294 28.4179 28.8611 28.3346 28.6667C28.2513 28.4727 28.2094 28.2618 28.2094 28.0338C28.2094 27.8057 28.2513 27.5949 28.3346 27.4005C28.4179 27.2064 28.5328 27.0381 28.6792 26.8955C28.8256 26.7532 29 26.6414 29.202 26.5601C29.4041 26.4788 29.6239 26.4382 29.8613 26.4382ZM13.075 28.0338C13.075 27.5008 13.4283 27.0632 14.0068 27.0632C14.5593 27.0632 14.9322 27.4818 14.9322 28.0338C14.9322 28.5854 14.5593 29.004 14.0068 29.004C13.4283 29.004 13.075 28.5664 13.075 28.0338ZM15.5618 28.0338V26.5179H14.8936V26.8857C14.6815 26.6129 14.3601 26.4417 13.9232 26.4417C13.0622 26.4417 12.3875 27.1077 12.3875 28.0338C12.3875 28.9599 13.0622 29.6258 13.9232 29.6258C14.3601 29.6258 14.6815 29.4543 14.8936 29.1819V29.5496H15.5618V28.0338ZM11.7964 29.5496V27.6469C11.7964 26.9301 11.3337 26.448 10.5882 26.4417C10.1964 26.4353 9.7916 26.556 9.50878 26.9809C9.29675 26.6446 8.96277 26.4417 8.49366 26.4417C8.1658 26.4417 7.8447 26.537 7.59405 26.892V26.5179H6.92578V29.5496H7.60049V27.8689C7.60049 27.3424 7.89585 27.0632 8.35209 27.0632C8.79546 27.0632 9.02036 27.3487 9.02036 27.8626V29.5496H9.69507V27.8689C9.69507 27.3424 10.0036 27.0632 10.447 27.0632C10.9032 27.0632 11.1217 27.3487 11.1217 27.8626V29.5496H11.7964Z" fill="black"/>
<path d="M24.2738 21.3564H14.1387V3.37888H24.2738V21.3564Z" fill="#7673C0"/>
<path d="M14.781 12.3675C14.781 8.72028 16.5111 5.47227 19.2051 3.37871C17.2347 1.8476 14.7489 0.934208 12.0468 0.934208C5.65014 0.934208 0.464844 6.05314 0.464844 12.3675C0.464844 18.6818 5.65014 23.8008 12.0468 23.8008C14.7489 23.8008 17.2347 22.8874 19.2051 21.3563C16.5111 19.2627 14.781 16.0147 14.781 12.3675Z" fill="#EB001B"/>
<rect width="42.243" height="51.5443" fill="black" fill-opacity="0" transform="translate(19.207 23.8008) scale(0.44363 -0.44363)"/>
<path d="M37.5852 19.4521V19.0085H37.4678L37.333 19.3137L37.1979 19.0085H37.0804V19.4521H37.1631V19.1174L37.2899 19.4061H37.3758L37.5025 19.1168V19.4521H37.5852ZM36.8417 19.4521V19.0841H36.9923V19.0091H36.6094V19.0841H36.7596V19.4521H36.8417Z" fill="#00A1DF"/>
<path d="M37.9473 12.3675C37.9473 18.6818 32.7617 23.8008 26.3653 23.8008C23.6632 23.8008 21.1771 22.8874 19.207 21.3563C21.901 19.2627 23.6311 16.0147 23.6311 12.3675C23.6311 8.72028 21.901 5.47227 19.207 3.37871C21.1771 1.8476 23.6632 0.934208 26.3653 0.934208C32.7617 0.934208 37.9473 6.05314 37.9473 12.3675Z" fill="#00A1DF"/>
</svg>
