<svg width="27" height="20" viewBox="0 0 27 20" fill="none" xmlns="http://www.w3.org/2000/svg">
<rect width="25" height="18" fill="black" fill-opacity="0" transform="translate(1 1)"/>
<rect width="25" height="18" fill="black" fill-opacity="0" transform="translate(1 1)"/>
<path d="M23.9847 19H3.01535C1.90449 19 1 18.0848 1 16.9589V3.04109C1 1.91523 1.90449 1 3.01535 1H23.9847C25.0955 1 26 1.91523 26 3.04109V16.9589C26 18.0848 25.0955 19 23.9847 19ZM3.01535 1.81644C2.34867 1.81644 1.80614 2.3659 1.80614 3.04109V16.9589C1.80614 17.6341 2.34867 18.1836 3.01535 18.1836H23.9847C24.6513 18.1836 25.1939 17.6341 25.1939 16.9589V3.04109C25.1939 2.3659 24.6513 1.81644 23.9847 1.81644H3.01535Z" fill="#A5A5A5" stroke="#A5A5A5" stroke-width="0.75"/>
<path d="M13.499 12.0517C12.9629 12.0517 12.4269 11.8712 12.019 11.5112L1.7173 2.4185C1.54962 2.26991 1.53188 2.01273 1.6786 1.84291C1.82532 1.67146 2.08006 1.65513 2.24773 1.80291L12.5486 10.8956C13.0645 11.3503 13.9351 11.3495 14.4495 10.8956L24.7479 1.80373C24.9148 1.65432 25.1687 1.67146 25.317 1.84373C25.4637 2.01355 25.446 2.27073 25.2783 2.41932L14.9791 11.5104C14.5712 11.8712 14.0351 12.0517 13.499 12.0517Z" fill="#A5A5A5" stroke="#A5A5A5" stroke-width="0.75"/>
</svg>
