<svg width="200" height="113" viewBox="0 0 200 113" fill="none" xmlns="http://www.w3.org/2000/svg">
<rect width="197.545" height="110.776" fill="black" fill-opacity="0" transform="translate(2)"/>
<rect width="52.3546" height="52.3745" fill="black" fill-opacity="0" transform="translate(155.849 2) rotate(33.4224)"/>
<path opacity="0.7" d="M146.659 15.9256L156.777 65.3643L199.545 30.8373L146.659 15.9256Z" fill="url(#paint0_linear)"/>
<path d="M199.546 30.8374L150.286 33.6479L142.91 42.4513L153.193 47.8539L199.546 30.8374Z" fill="#659FF4"/>
<rect width="32.1545" height="32.1666" fill="black" fill-opacity="0" transform="translate(78.4385) rotate(11.5465)"/>
<path opacity="0.7" d="M76.3874 10.0398L93.4676 35.9015L109.942 6.43612L76.3874 10.0398Z" fill="url(#paint1_linear)"/>
<path d="M109.943 6.4358L82.5104 19.31L80.3211 26.0153L87.4184 26.7413L109.943 6.4358Z" fill="#659FF4"/>
<path fill-rule="evenodd" clip-rule="evenodd" d="M99.9177 56.5534C89.5544 62.4402 83.553 68.8079 80.086 72.5226C78.5821 74.1339 77.2567 76.3341 76.2093 78.7138C78.0425 80.7087 79.7081 82.762 80.7526 84.7349C81.6702 86.4682 82.2415 88.3772 81.8014 90.2554C81.3465 92.1973 79.9084 93.7167 77.6603 94.8407C76.4944 95.4237 75.311 95.7097 74.1894 95.4791C73.0118 95.2371 72.173 94.4833 71.6392 93.5463C70.6509 91.8115 70.556 89.2182 70.8757 86.6278C71.1536 84.3772 71.7833 81.8476 72.7058 79.3729C71.815 78.4484 70.8846 77.516 69.9532 76.5845C55.9323 63.8016 43.0084 58.7251 29.7821 57.997C26.843 57.8352 24.3185 57.7867 22 57.863L22.0002 54.8643C24.3773 54.7892 26.9636 54.8373 29.947 55.0015C43.9628 55.7731 57.531 61.1911 72.0004 74.3913L72.0258 74.4145L72.174 74.5627C72.7657 75.1543 73.3737 75.7622 73.9829 76.3818C75.0654 74.152 76.385 72.0911 77.8928 70.4756C81.4258 66.6903 87.6742 60.058 98.436 53.9448C107.832 48.6074 120.622 43.6902 138 41.3525L138.5 44.3127C121.437 46.5957 108.985 51.4029 99.9177 56.5534ZM75.0129 81.8742C74.4505 83.6297 74.0518 85.3864 73.8531 86.9954C73.5479 89.4675 73.7654 91.2179 74.2459 92.0613C74.4464 92.4133 74.6312 92.5072 74.7934 92.5406C75.0116 92.5854 75.4845 92.5745 76.3186 92.1575C78.0705 91.2815 78.6949 90.3635 78.8805 89.571C79.0811 88.7149 78.8711 87.5928 78.1013 86.1386C77.3847 84.7851 76.2989 83.3509 75.0129 81.8742Z" fill="#EDF1F6"/>
<path d="M1 20.9999V21.9999H2C7.93859 21.9999 11.7987 22.6519 15.0328 24.279C18.2775 25.9114 21.0022 28.5788 24.5683 32.8581C28.8743 38.0254 32.0745 43.9988 34.3101 50.3948C29.7455 57.284 26.6733 65.4635 24.6355 73.1141C22.8146 79.9507 21.7781 86.522 21.2592 91.6791C20.9996 94.2585 20.8677 96.5026 20.834 98.2664C20.8028 99.8955 20.8482 101.34 21.0347 102.236C21.2828 104.772 21.927 106.525 23.1974 108.235C24.5154 110.008 26.1572 110.845 28.2017 111.484C29.3926 111.856 31.234 111.89 32.5454 111.486C33.8611 111.08 35.029 110.257 36.0448 109.114C38.0198 106.892 39.6391 103.22 40.9208 97.8366C44.3118 83.5943 44.591 66.5544 39.8436 51.2085C42.7348 47.311 46.1489 44.0999 50.1629 41.9648C59.4792 37.0093 66.313 34.1111 71.0345 32.4983C73.3964 31.6915 75.203 31.2156 76.5085 30.9615L77.7428 30.7213L77.2309 29.5728L75.9026 26.5927L75.5788 25.8663L74.7982 26.0183C73.6701 26.2378 72.6548 26.6066 71.3383 27.0849C70.7664 27.2926 70.1377 27.521 69.4182 27.7668C64.3813 29.4873 57.2985 32.5059 47.8148 37.5504C43.9907 39.5845 40.7008 42.3867 37.8745 45.6669C35.5492 39.9108 32.4324 34.4848 28.4094 29.6572C24.4527 24.9092 21.0529 21.8279 16.9859 19.9629C12.9228 18.0998 8.30067 17.5001 2.00001 17.5L1 17.5V18.5V20.9999ZM29.4671 74.4011C31.0696 68.3845 33.2719 62.2922 36.2251 56.8999C39.4264 70.0949 38.9807 84.3982 36.0568 96.6785C34.8385 101.795 33.4577 104.498 32.3078 105.792C31.7616 106.406 31.3358 106.626 31.0729 106.707C30.8241 106.784 30.5628 106.786 30.2345 106.684C29.1868 106.356 28.0776 105.946 27.3026 104.904C26.5102 103.837 26.1582 102.249 25.9496 101.307C25.9426 101.275 25.9359 101.245 25.9293 101.215C25.8774 100.982 25.8005 100.067 25.8331 98.3619C25.8638 96.7546 25.9858 94.6472 26.2341 92.1797C26.7308 87.2431 27.7255 80.9394 29.4671 74.4011Z" fill="#EDF1F6" stroke="white" stroke-width="2"/>
<defs>
<linearGradient id="paint0_linear" x1="185.121" y1="52.694" x2="141.425" y2="23.8568" gradientUnits="userSpaceOnUse">
<stop stop-color="#4E9EF4"/>
<stop offset="1" stop-color="#3D7CF2"/>
</linearGradient>
<linearGradient id="paint1_linear" x1="106.723" y1="22.1939" x2="75.2192" y2="15.7578" gradientUnits="userSpaceOnUse">
<stop stop-color="#4E9EF4"/>
<stop offset="1" stop-color="#3D7CF2"/>
</linearGradient>
</defs>
</svg>
