<svg width="46" height="37" viewBox="0 0 46 37" fill="none" xmlns="http://www.w3.org/2000/svg">
<rect width="104.751" height="86.173" fill="black" fill-opacity="0" transform="translate(0.0410156) scale(0.429369)"/>
<rect width="104.751" height="86.173" fill="black" fill-opacity="0" transform="translate(0.0410156) scale(0.429369)"/>
<path d="M11.1622 32.3591V30.5153C11.1622 29.8085 10.7333 29.3475 9.99798 29.3475C9.63033 29.3475 9.23203 29.4704 8.95629 29.8699C8.74182 29.5319 8.43544 29.3475 7.97587 29.3475C7.66949 29.3475 7.36311 29.4397 7.11801 29.7778V29.409H6.47461V32.3591H7.11801V30.7304C7.11801 30.208 7.39375 29.9621 7.82268 29.9621C8.25161 29.9621 8.46608 30.2387 8.46608 30.7304V32.3591H9.10948V30.7304C9.10948 30.208 9.41586 29.9621 9.81415 29.9621C10.2431 29.9621 10.4576 30.2387 10.4576 30.7304V32.3591H11.1622ZM20.6906 29.409H19.649V28.5178H19.0056V29.409H18.4234V29.9929H19.0056V31.345C19.0056 32.0211 19.2813 32.4206 20.0166 32.4206C20.2923 32.4206 20.5987 32.3284 20.8132 32.2055L20.6294 31.6523C20.4455 31.7753 20.2311 31.806 20.0779 31.806C19.7715 31.806 19.649 31.6216 19.649 31.3143V29.9929H20.6906V29.409ZM26.1442 29.3475C25.7766 29.3475 25.5315 29.5319 25.3783 29.7778V29.409H24.7349V32.3591H25.3783V30.6997C25.3783 30.208 25.5927 29.9314 25.991 29.9314C26.1136 29.9314 26.2668 29.9621 26.3893 29.9929L26.5732 29.3782C26.4506 29.3475 26.2668 29.3475 26.1442 29.3475ZM17.9026 29.6548C17.5962 29.4397 17.1673 29.3475 16.7077 29.3475C15.9724 29.3475 15.4822 29.7163 15.4822 30.3002C15.4822 30.7919 15.8498 31.0685 16.4932 31.1606L16.7996 31.1914C17.1366 31.2528 17.3205 31.345 17.3205 31.4987C17.3205 31.7138 17.0754 31.8675 16.6464 31.8675C16.2175 31.8675 15.8805 31.7138 15.666 31.5601L15.3596 32.0518C15.6967 32.2977 16.1562 32.4206 16.6158 32.4206C17.4737 32.4206 17.9639 32.0211 17.9639 31.468C17.9639 30.9455 17.5656 30.6689 16.9528 30.5768L16.6464 30.546C16.3707 30.5153 16.1562 30.4538 16.1562 30.2694C16.1562 30.0543 16.3707 29.9314 16.7077 29.9314C17.0754 29.9314 17.443 30.0851 17.6268 30.1773L17.9026 29.6548ZM34.9986 29.3475C34.6309 29.3475 34.3858 29.5319 34.2327 29.7778V29.409H33.5893V32.3591H34.2327V30.6997C34.2327 30.208 34.4471 29.9314 34.8454 29.9314C34.968 29.9314 35.1212 29.9621 35.2437 29.9929L35.4275 29.3782C35.305 29.3475 35.1212 29.3475 34.9986 29.3475ZM26.7876 30.8841C26.7876 31.7753 27.4004 32.4206 28.3502 32.4206C28.7791 32.4206 29.0855 32.3284 29.3918 32.0826L29.0855 31.5601C28.8404 31.7445 28.5953 31.8367 28.3195 31.8367C27.7987 31.8367 27.431 31.4679 27.431 30.8841C27.431 30.3309 27.7987 29.9621 28.3195 29.9314C28.5953 29.9314 28.8404 30.0236 29.0855 30.208L29.3918 29.6856C29.0855 29.4397 28.7791 29.3475 28.3502 29.3475C27.4004 29.3475 26.7876 29.9929 26.7876 30.8841ZM32.7314 30.8841V29.409H32.088V29.7778C31.8735 29.5012 31.5671 29.3475 31.1689 29.3475C30.3416 29.3475 29.6982 29.9929 29.6982 30.8841C29.6982 31.7753 30.3416 32.4206 31.1689 32.4206C31.5978 32.4206 31.9042 32.267 32.088 31.9904V32.3591H32.7314V30.8841ZM30.3723 30.8841C30.3723 30.3616 30.7093 29.9314 31.2608 29.9314C31.7816 29.9314 32.1493 30.3309 32.1493 30.8841C32.1493 31.4065 31.7816 31.8367 31.2608 31.8367C30.7093 31.806 30.3723 31.4065 30.3723 30.8841ZM22.6821 29.3475C21.8243 29.3475 21.2115 29.9621 21.2115 30.8841C21.2115 31.806 21.8243 32.4206 22.7128 32.4206C23.1417 32.4206 23.5706 32.2977 23.9076 32.0211L23.6013 31.5601C23.3562 31.7445 23.0498 31.8675 22.7434 31.8675C22.3451 31.8675 21.9468 31.6831 21.8549 31.1606H24.0302C24.0302 31.0685 24.0302 31.007 24.0302 30.9148C24.0608 29.9621 23.5093 29.3475 22.6821 29.3475ZM22.6821 29.9007C23.0804 29.9007 23.3562 30.1465 23.4174 30.6075H21.8855C21.9468 30.208 22.2225 29.9007 22.6821 29.9007ZM38.6445 30.8841V28.2412H38.0011V29.7778C37.7867 29.5012 37.4803 29.3475 37.082 29.3475C36.2548 29.3475 35.6114 29.9929 35.6114 30.8841C35.6114 31.7753 36.2548 32.4206 37.082 32.4206C37.5109 32.4206 37.8173 32.267 38.0011 31.9904V32.3591H38.6445V30.8841ZM36.2854 30.8841C36.2854 30.3616 36.6224 29.9314 37.1739 29.9314C37.6947 29.9314 38.0624 30.3309 38.0624 30.8841C38.0624 31.4065 37.6947 31.8367 37.1739 31.8367C36.6224 31.806 36.2854 31.4065 36.2854 30.8841ZM14.7775 30.8841V29.409H14.1341V29.7778C13.9196 29.5012 13.6133 29.3475 13.215 29.3475C12.3877 29.3475 11.7443 29.9929 11.7443 30.8841C11.7443 31.7753 12.3877 32.4206 13.215 32.4206C13.6439 32.4206 13.9503 32.267 14.1341 31.9904V32.3591H14.7775V30.8841ZM12.3877 30.8841C12.3877 30.3616 12.7248 29.9314 13.2762 29.9314C13.7971 29.9314 14.1648 30.3309 14.1648 30.8841C14.1648 31.4065 13.7971 31.8367 13.2762 31.8367C12.7248 31.806 12.3877 31.4065 12.3877 30.8841Z" fill="black"/>
<path d="M17.6895 7.00781H27.3404V24.4015H17.6895V7.00781Z" fill="#FF5F00"/>
<path d="M18.3019 15.7037C18.3019 12.1697 19.9563 9.03515 22.4993 7.00691C20.6304 5.53182 18.2712 4.64062 15.6977 4.64062C9.60069 4.64062 4.66797 9.5883 4.66797 15.7037C4.66797 21.8192 9.60069 26.7669 15.6977 26.7669C18.2712 26.7669 20.6304 25.8757 22.4993 24.4006C19.9563 22.4031 18.3019 19.2378 18.3019 15.7037Z" fill="#EB001B"/>
<path d="M40.3606 15.7037C40.3606 21.8192 35.4279 26.7669 29.3309 26.7669C26.7573 26.7669 24.3982 25.8757 22.5293 24.4006C25.1029 22.3724 26.7267 19.2378 26.7267 15.7037C26.7267 12.1697 25.0723 9.03515 22.5293 7.00691C24.3982 5.53182 26.7573 4.64062 29.3309 4.64062C35.4279 4.64062 40.3606 9.61903 40.3606 15.7037Z" fill="#F79E1B"/>
</svg>
