<svg width="48" height="31" viewBox="0 0 48 31" fill="none" xmlns="http://www.w3.org/2000/svg">
<rect width="489.111" height="310.397" fill="black" fill-opacity="0" transform="translate(0.505859 30.2451) scale(0.0953616 -0.0953616)"/>
<path d="M47.1483 30.2451H0.505859V0.645118H47.1483V30.2451Z" fill="#16326C"/>
<path d="M26.6198 9.60153L26.5274 9.43662L25.8811 9.31067L26.2047 8.86743L26.1442 8.75948C25.5065 7.7168 24.727 6.76991 23.8278 5.95278C21.5621 3.89131 18.5558 2.63719 15.2572 2.63719C8.20603 2.63719 2.49023 8.37128 2.49023 15.4463C2.49023 22.5182 8.20603 28.2539 15.2572 28.2539C18.5558 28.2539 21.5621 26.9982 23.8278 24.9381C26.4054 22.5946 28.0246 19.2096 28.0246 15.4463C28.0246 13.3396 27.5176 11.3523 26.6198 9.60153Z" fill="#ED192D"/>
<path d="M32.3963 2.63719C29.0976 2.63719 26.0918 3.89131 23.8262 5.95278C24.7254 6.76991 25.5049 7.7168 26.1426 8.75948L26.203 8.86743L25.8795 9.31067L26.5257 9.43662L26.6181 9.60153C27.5159 11.3523 28.0229 13.3396 28.0229 15.4463C28.0229 19.2096 26.4038 22.5946 23.8262 24.9381C26.0918 26.9982 29.0976 28.2539 32.3963 28.2539C39.4473 28.2539 45.164 22.5182 45.164 15.4463C45.164 8.37128 39.4473 2.63719 32.3963 2.63719Z" fill="#F9A91F"/>
<rect width="421.005" height="136.686" fill="black" fill-opacity="0" transform="translate(4.25391 20.7754) scale(0.0953616 -0.0953616)"/>
<path d="M10.206 14.154H11.781L10.5519 20.6484H8.97852L10.206 14.154Z" fill="#16326C"/>
<path d="M5.48191 14.154H9.56865L9.33421 15.3826H6.8197L6.56731 16.7233H8.99026L8.76761 17.9505H6.33589L6.05868 19.4204H8.57209L8.34012 20.6484H4.25391L5.48191 14.154Z" fill="#16326C"/>
<path d="M14.7781 17.3898C14.7867 17.2777 14.791 17.1911 14.791 17.1214C14.791 16.6897 14.5298 16.4357 14.0855 16.4357C13.6111 16.4357 13.2718 16.7755 13.1339 17.3898H14.7781ZM15.5667 20.559C15.0556 20.7048 14.5673 20.7754 14.0444 20.7754C12.3767 20.774 11.5078 19.9569 11.5078 18.3907C11.5078 16.5638 12.6139 15.219 14.1147 15.219C15.3433 15.219 16.1501 15.9722 16.1501 17.1532C16.1501 17.5453 16.096 17.928 15.9667 18.4675H12.9783C12.967 18.5492 12.9634 18.5857 12.9634 18.635C12.9634 19.2521 13.4058 19.5667 14.272 19.5667C14.8052 19.5667 15.2862 19.4623 15.8213 19.2299L15.5667 20.559Z" fill="#16326C"/>
<path d="M32.2743 17.5932C32.2743 16.2572 31.4601 15.2168 29.927 15.2168C28.1595 15.2168 27.0156 16.4813 27.0156 18.3478C27.0156 19.6837 27.692 20.7754 29.3637 20.7754C31.0532 20.7754 32.2743 19.8069 32.2743 17.5932ZM30.6635 17.573C30.6635 18.7753 30.2037 19.49 29.4763 19.49C28.9478 19.5011 28.6273 19.0202 28.6273 18.3077C28.6273 17.4598 29.0945 16.5021 29.849 16.5021C30.4555 16.5021 30.6635 17.0217 30.6635 17.573Z" fill="#16326C"/>
<path d="M32.9036 16.7301C32.9866 16.2722 33.0594 15.8245 33.1077 15.3452H34.5693L34.4386 16.2105H34.4562C34.9122 15.6205 35.3827 15.224 36.2045 15.224C37.1125 15.224 37.5968 16.032 37.5872 17.0697C37.5839 17.4253 37.5417 17.6807 37.444 18.1738L36.9801 20.6484H35.4065L35.871 18.1649C35.922 17.8901 35.9724 17.6364 35.975 17.3616C35.9785 17.0456 35.8089 16.7301 35.377 16.7509C34.7188 16.7509 34.3233 17.422 34.2033 18.2056L33.738 20.6484H32.1641L32.9036 16.7301Z" fill="#16326C"/>
<path d="M38.5686 15.3452H40.1422L39.1431 20.6484H37.5703L38.5686 15.3452Z" fill="#16326C"/>
<path d="M19.8602 20.569C19.5482 20.6916 19.1322 20.7725 18.5262 20.7725C17.2093 20.7725 16.3945 19.6808 16.3945 18.3457C16.3945 16.6001 17.5732 15.2146 19.306 15.2146C19.6866 15.2146 20.2672 15.3467 20.7262 15.5708L20.4449 16.8694C20.129 16.6721 19.7302 16.56 19.3835 16.56C18.5777 16.56 18.006 17.1732 18.006 18.2743C18.006 18.9066 18.4216 19.4262 19.0804 19.4262C19.4698 19.4262 19.747 19.3548 20.0858 19.1924L19.8602 20.569Z" fill="#16326C"/>
<path d="M43.535 20.569C43.2239 20.6916 42.8074 20.7725 42.2011 20.7725C40.8848 20.7725 40.0703 19.6808 40.0703 18.3457C40.0703 16.6001 41.2479 15.2146 42.9812 15.2146C43.3621 15.2146 43.9425 15.3467 44.4017 15.5708L44.1203 16.8694C43.8045 16.6721 43.4054 16.56 43.0587 16.56C42.2535 16.56 41.6809 17.1732 41.6809 18.2743C41.6809 18.9066 42.0974 19.4262 42.7555 19.4262C43.1459 19.4262 43.4227 19.3548 43.7612 19.1924L43.535 20.569Z" fill="#16326C"/>
<path d="M24.3527 15.3452C24.1518 16.9853 23.7974 18.6478 23.5199 20.2915L23.4531 20.6484H25.0455C25.6193 17.4751 25.8118 16.571 27.0147 16.8893L27.5928 15.3881C26.7546 15.0788 26.2145 15.5201 25.7255 16.1477C25.7699 15.8654 25.8523 15.5929 25.8327 15.3452H24.3527Z" fill="#16326C"/>
<path d="M23.1752 19.4659C22.5212 19.5609 22.2217 19.3774 22.2217 19.0204C22.2217 18.7658 22.2824 18.5019 22.3516 18.104L22.6194 16.6283H23.4436L23.6847 15.3451H22.8701L23.1054 14.077H21.5312L20.7749 18.1142C20.6712 18.6745 20.6367 18.9397 20.6367 19.2039C20.6367 20.3135 21.2965 20.7715 22.0921 20.7715C22.367 20.7715 22.6561 20.7363 22.946 20.6876L23.1752 19.4659Z" fill="#16326C"/>
<path d="M16.32 12.8918C16.1812 12.8918 15.4591 12.8918 15.4591 12.8918L15.479 12.4814C15.2158 12.806 14.8655 12.9609 14.3894 12.9609C13.8267 12.9609 13.4395 12.5196 13.4395 11.8782C13.4395 10.9138 14.1117 10.3521 15.2641 10.3521C15.3827 10.3521 15.5333 10.3626 15.6883 10.382C15.7203 10.2511 15.7289 10.1958 15.7289 10.1252C15.7289 9.86317 15.5476 9.76407 15.0627 9.76407C14.5535 9.75939 14.1346 9.88719 13.9624 9.94336C13.9732 9.87755 14.1064 9.05235 14.1064 9.05235C14.6244 8.90019 14.9659 8.8426 15.3502 8.8426C16.2427 8.8426 16.7158 9.24468 16.7144 10.0043C16.716 10.2082 16.6819 10.4581 16.63 10.7893C16.5398 11.3615 16.3465 12.5929 16.32 12.8918ZM15.5639 11.1269C15.455 11.1152 15.4072 11.1111 15.3317 11.1111C14.7433 11.1111 14.4451 11.3123 14.4451 11.7143C14.4451 11.9606 14.5905 12.1175 14.8173 12.1175C15.2407 12.1175 15.5457 11.7135 15.5639 11.1269Z" fill="#16326C"/>
<path d="M13.0074 12.8916H11.9675L12.5633 9.14765L11.2338 12.8916H10.526L10.438 9.1684L9.81183 12.8916H8.83984L9.65218 8.02146H11.1466L11.2371 10.7476L12.1484 8.02146H13.8106L13.0074 12.8916Z" fill="#16326C"/>
<path d="M32.6917 12.8918C32.5529 12.8918 31.8308 12.8918 31.8308 12.8918L31.8504 12.4814C31.5872 12.806 31.2372 12.9609 30.7614 12.9609C30.1978 12.9609 29.8125 12.5196 29.8125 11.8782C29.8125 10.9138 30.4839 10.3521 31.6366 10.3521C31.7541 10.3521 31.9047 10.3626 32.0598 10.382C32.0923 10.2511 32.1003 10.1958 32.1003 10.1252C32.1003 9.86317 31.9193 9.76407 31.4341 9.76407C30.9264 9.75939 30.506 9.88719 30.3333 9.94336C30.3457 9.87755 30.4795 9.05235 30.4795 9.05235C30.9956 8.90019 31.3384 8.8426 31.7221 8.8426C32.615 8.8426 33.0867 9.24468 33.0864 10.0043C33.088 10.2082 33.0547 10.4581 33.0022 10.7893C32.9121 11.3615 32.7179 12.5929 32.6917 12.8918ZM31.9351 11.1269C31.8267 11.1152 31.7786 11.1111 31.7042 11.1111C31.1145 11.1111 30.8168 11.3123 30.8168 11.7143C30.8168 11.9606 30.9619 12.1175 31.1897 12.1175C31.6121 12.1175 31.9171 11.7135 31.9351 11.1269Z" fill="#16326C"/>
<path d="M20.9377 12.8314C20.6533 12.9213 20.431 12.9609 20.1913 12.9609C19.6598 12.9609 19.3696 12.6538 19.3696 12.0907C19.3624 11.9149 19.4463 11.4548 19.5125 11.0351C19.5723 10.6642 19.9632 8.33157 19.9632 8.33157H20.9961L20.8756 8.93115H21.499L21.358 9.88308H20.7322C20.6125 10.6357 20.4406 11.5746 20.439 11.6992C20.439 11.903 20.5482 11.9916 20.7954 11.9916C20.9137 11.9916 21.005 11.9805 21.0754 11.9543L20.9377 12.8314Z" fill="#16326C"/>
<path d="M23.5255 10.4511C23.5321 10.3686 23.635 9.74413 23.0447 9.74413C22.7162 9.74413 22.4806 9.99597 22.3852 10.4511H23.5255ZM24.1061 12.8004C23.7509 12.9083 23.4094 12.9623 23.0466 12.9609C21.8901 12.9596 21.2871 12.3535 21.2871 11.1933C21.2871 9.83962 22.0542 8.84257 23.0949 8.84257C23.9464 8.84257 24.49 9.40014 24.49 10.2754C24.49 10.5665 24.4537 10.8496 24.3632 11.25H22.3061C22.2368 11.8242 22.6031 12.0635 23.2044 12.0635C23.5738 12.0635 23.907 11.9869 24.2777 11.8153L24.1061 12.8004Z" fill="#16326C"/>
<path d="M16.9441 10.1841C16.9441 10.6836 17.1866 11.0295 17.7352 11.2888C18.1558 11.488 18.2215 11.5469 18.2215 11.7259C18.2215 11.9722 18.0356 12.0852 17.6243 12.0852C17.3143 12.0852 17.026 12.0367 16.6933 11.9288C16.6933 11.9288 16.5571 12.8018 16.5508 12.8433C16.7871 12.8937 16.9971 12.9416 17.6317 12.9609C18.7285 12.9609 19.2351 12.5409 19.2351 11.636C19.2351 11.0923 19.0228 10.7722 18.5028 10.5322C18.0668 10.3316 18.0168 10.2874 18.0168 10.1017C18.0168 9.88888 18.1898 9.77788 18.5249 9.77788C18.7288 9.77788 19.0079 9.80034 19.2719 9.83824L19.4202 8.91953C19.1502 8.87582 18.7425 8.8426 18.5051 8.8426C17.3427 8.8426 16.9405 9.45139 16.9441 10.1841Z" fill="#16326C"/>
<path d="M29.1614 8.9478C29.4488 8.9478 29.7191 9.02246 30.0895 9.21011L30.2597 8.15306C30.1069 8.0927 29.5713 7.74078 29.1172 7.74078C28.4224 7.74078 27.8338 8.08661 27.4206 8.65863C26.8165 8.45745 26.5688 8.86286 26.2651 9.266L25.9954 9.32912C26.0155 9.1963 26.0337 9.06482 26.0279 8.93115H25.0729C24.9434 10.1579 24.7125 11.3989 24.5318 12.6247L24.4844 12.8918H25.5239C25.6969 11.7606 25.7923 11.0364 25.8502 10.5466L26.2411 10.3286C26.3004 10.1103 26.483 10.0361 26.8504 10.0458C26.8019 10.3045 26.7757 10.5765 26.7757 10.8571C26.7757 12.1535 27.4741 12.9609 28.5926 12.9609C28.8805 12.9609 29.1285 12.9222 29.5117 12.8176L29.6937 11.7088C29.3489 11.8776 29.0676 11.957 28.8105 11.957C28.2062 11.957 27.8413 11.5109 27.8413 10.7708C27.8413 9.69847 28.3849 8.9478 29.1614 8.9478Z" fill="#16326C"/>
<path d="M36.6572 11.9764C36.3044 11.9764 36.1245 11.7143 36.1245 11.1964C36.1245 10.4171 36.4597 9.86593 36.9313 9.86593C37.2879 9.86593 37.4818 10.1377 37.4818 10.6415C37.4818 11.4271 37.1415 11.9764 36.6572 11.9764ZM37.9574 8.02165L37.7262 9.42787C37.443 9.05377 37.1382 8.78203 36.7341 8.78203C36.21 8.78203 35.7331 9.1805 35.4203 9.76768C34.9842 9.67694 34.5349 9.52414 34.5349 9.52414V9.52832C34.5696 9.19906 34.5845 8.99894 34.5806 8.93115H33.6269C33.4969 10.1579 33.2647 11.3989 33.0851 12.6247L33.0371 12.8918H34.077C34.2166 11.9778 34.3239 11.2182 34.4039 10.6163C34.7589 10.2934 34.9365 10.0126 35.2956 10.0319C35.137 10.4171 35.0438 10.8607 35.0438 11.3159C35.0438 12.3065 35.5425 12.9609 36.2983 12.9609C36.6792 12.9609 36.971 12.8287 37.2568 12.5237L37.2074 12.8909H38.1907L38.9827 8.02165H37.9574Z" fill="#16326C"/>
<rect width="319.065" height="53.0811" fill="black" fill-opacity="0" transform="translate(9.13672 12.6709) scale(0.0953616 -0.0953616)"/>
<path d="M13.3035 12.6016H12.2641L12.8605 8.85768L11.5309 12.6016H10.8223L10.7346 8.87843L10.1091 12.6016H9.13672L9.94933 7.73142H11.4429L11.4849 10.7462L12.4936 7.73142H14.1075L13.3035 12.6016Z" fill="white"/>
<path d="M16.618 12.6023C16.4792 12.6023 15.7565 12.6023 15.7565 12.6023L15.7761 12.1914C15.5141 12.5165 15.1633 12.6709 14.6874 12.6709C14.1242 12.6709 13.7383 12.2287 13.7383 11.5881C13.7383 10.6238 14.41 10.0615 15.5626 10.0615C15.6804 10.0615 15.8316 10.0725 15.9863 10.092C16.0183 9.96246 16.0269 9.90657 16.0269 9.8346C16.0269 9.57313 15.8459 9.47544 15.3605 9.47544C14.8516 9.46935 14.4325 9.59665 14.2605 9.65332C14.2709 9.58695 14.4047 8.76231 14.4047 8.76231C14.9222 8.61072 15.2639 8.55256 15.6484 8.55256C16.5399 8.55256 17.013 8.95464 17.0118 9.71424C17.0138 9.91819 16.9798 10.1694 16.9283 10.4993C16.8376 11.0715 16.6442 12.3029 16.618 12.6023ZM15.8616 10.8391C15.7527 10.8252 15.705 10.8217 15.6302 10.8217C15.041 10.8217 14.7431 11.0236 14.7431 11.4243C14.7431 11.6697 14.8885 11.8275 15.1158 11.8275C15.5386 11.8275 15.8442 11.4243 15.8616 10.8391Z" fill="white"/>
<path d="M30.5566 7.86217L30.3855 8.92007C30.0157 8.73242 29.7461 8.65776 29.4577 8.65776C28.6823 8.65776 28.1381 9.40985 28.1381 10.4826C28.1381 11.2215 28.5036 11.667 29.1079 11.667C29.3641 11.667 29.6463 11.5881 29.9911 11.4188L29.8079 12.5284C29.4249 12.6313 29.1777 12.6709 28.89 12.6709C27.7712 12.6709 27.0742 11.8635 27.0742 10.5679C27.0742 8.82656 28.0371 7.60899 29.4141 7.60899C29.8687 7.60899 30.4041 7.80267 30.5566 7.86217Z" fill="white"/>
<path d="M32.9913 12.6023C32.8525 12.6023 32.1304 12.6023 32.1304 12.6023L32.1497 12.1914C31.8868 12.5165 31.5366 12.6709 31.0602 12.6709C30.4972 12.6709 30.1113 12.2287 30.1113 11.5881C30.1113 10.6238 30.7827 10.0615 31.9351 10.0615C32.0535 10.0615 32.2041 10.0725 32.3582 10.092C32.3905 9.96246 32.3996 9.90657 32.3996 9.8346C32.3996 9.57313 32.2187 9.47544 31.7335 9.47544C31.2257 9.46935 30.8064 9.59665 30.6329 9.65332C30.644 9.58695 30.778 8.76231 30.778 8.76231C31.2949 8.61072 31.6366 8.55256 32.0212 8.55256C32.913 8.55256 33.386 8.95464 33.3849 9.71424C33.3874 9.91819 33.3537 10.1694 33.3011 10.4993C33.2117 11.0715 33.0172 12.3029 32.9913 12.6023ZM32.2341 10.8391C32.1263 10.8252 32.0778 10.8217 32.0038 10.8217C31.4146 10.8217 31.1162 11.0236 31.1162 11.4243C31.1162 11.6697 31.2615 11.8275 31.4883 11.8275C31.9117 11.8275 32.2173 11.4243 32.2341 10.8391Z" fill="white"/>
<path d="M21.2357 12.5414C20.9519 12.6313 20.7293 12.6709 20.4893 12.6709C19.9583 12.6709 19.6684 12.3652 19.6684 11.8006C19.6613 11.6255 19.7445 11.1656 19.8105 10.745C19.8709 10.375 20.2612 8.04146 20.2612 8.04146H21.2942L21.1737 8.64196H21.704L21.5626 9.59304H21.0302C20.9105 10.347 20.7392 11.2852 20.7375 11.4091C20.7375 11.6138 20.8465 11.7038 21.0942 11.7038C21.2117 11.7038 21.3033 11.6913 21.3734 11.6656L21.2357 12.5414Z" fill="white"/>
<path d="M23.8243 10.1625C23.8296 10.0786 23.9335 9.45468 23.343 9.45468C23.0145 9.45468 22.7789 9.70729 22.6835 10.1625H23.8243ZM24.4047 12.5109C24.0497 12.6189 23.7065 12.6715 23.3446 12.6709C22.1881 12.67 21.5859 12.0641 21.5859 10.9033C21.5859 9.54961 22.3525 8.55256 23.3926 8.55256C24.2449 8.55256 24.7884 9.11013 24.7884 9.98675C24.7884 10.2773 24.7508 10.561 24.6615 10.96H22.6046C22.5348 11.5356 22.9014 11.7749 23.5022 11.7749C23.8715 11.7749 24.205 11.6983 24.5768 11.5244L24.4047 12.5109Z" fill="white"/>
<path d="M17.241 9.8941C17.241 10.3955 17.4832 10.7394 18.0326 10.9988C18.4538 11.198 18.5186 11.2569 18.5186 11.4368C18.5186 11.6836 18.333 11.7951 17.922 11.7951C17.6115 11.7951 17.3232 11.7467 16.9909 11.6393C16.9909 11.6393 16.8534 12.5124 16.8477 12.5533C17.0841 12.605 17.2945 12.6521 17.929 12.6709C19.0259 12.6709 19.5326 12.2522 19.5326 11.3469C19.5326 10.8031 19.3205 10.4835 18.7998 10.2433C18.3642 10.0426 18.3143 9.99788 18.3143 9.81242C18.3143 9.59856 18.4869 9.48869 18.8224 9.48869C19.0262 9.48869 19.3053 9.51086 19.569 9.5482L19.7174 8.63091C19.4482 8.58798 19.04 8.55256 18.8025 8.55256C17.6396 8.55256 17.2374 9.16135 17.241 9.8941Z" fill="white"/>
<path d="M36.9554 11.6872C37.4401 11.6872 37.7799 11.1365 37.7799 10.3521C37.7799 9.84983 37.586 9.57589 37.2296 9.57589C36.7574 9.57589 36.4228 10.1271 36.4228 10.9069C36.4228 11.4257 36.6021 11.6872 36.9554 11.6872ZM38.4891 12.6023H37.5057L37.5545 12.2328C37.269 12.5386 36.9775 12.6709 36.596 12.6709C35.8414 12.6709 35.3418 12.0178 35.3418 11.0278C35.3418 9.71006 36.1161 8.5991 37.0327 8.5991C37.4357 8.5991 37.7413 8.76373 38.0246 9.13925L38.2549 7.73211H39.281L38.4891 12.6023Z" fill="white"/>
<path d="M33.9229 8.64127C33.7938 9.86656 33.5627 11.1087 33.3814 12.3359L33.334 12.6016H34.3731C34.7452 10.179 34.8348 9.70661 35.4182 9.76526C35.5103 9.26996 35.6841 8.83494 35.8124 8.61775C35.378 8.52559 35.1349 8.77274 34.8161 9.24176C34.8414 9.03839 34.8867 8.84188 34.8782 8.64127H33.9229Z" fill="white"/>
<path d="M25.3712 8.64127C25.2402 9.86656 25.0096 11.1087 24.8281 12.3359L24.7812 12.6016H25.8209C26.1924 10.179 26.2823 9.70661 26.8649 9.76526C26.9575 9.26996 27.131 8.83494 27.2593 8.61775C26.8246 8.52559 26.5813 8.77274 26.2633 9.24176C26.2887 9.03839 26.3347 8.84188 26.3256 8.64127H25.3712Z" fill="white"/>
<path d="M39.2126 12.2723H39.2473C39.2605 12.2723 39.2752 12.2737 39.2865 12.2668C39.2973 12.2607 39.3019 12.2474 39.3019 12.2358C39.3019 12.2253 39.2958 12.2142 39.2873 12.2081C39.2763 12.2018 39.2583 12.2031 39.2465 12.2031H39.2126V12.2723ZM39.2126 12.4267H39.1486V12.1555H39.2638C39.2881 12.1555 39.3121 12.1561 39.3334 12.1688C39.3552 12.1823 39.3673 12.2095 39.3673 12.2363C39.3673 12.2668 39.3499 12.2953 39.321 12.3069L39.3706 12.4267H39.3009L39.2598 12.3193H39.2126V12.4267ZM39.2534 12.5277C39.3841 12.5277 39.4898 12.4211 39.4898 12.2916C39.4898 12.1611 39.3841 12.0559 39.2534 12.0559C39.1243 12.0559 39.019 12.1611 39.019 12.2916C39.019 12.4211 39.1243 12.5277 39.2534 12.5277ZM38.9453 12.2916C38.9453 12.1196 39.0838 11.9812 39.2534 11.9812C39.4255 11.9812 39.5632 12.1196 39.5632 12.2916C39.5632 12.4619 39.4255 12.6016 39.2534 12.6016C39.0838 12.6016 38.9453 12.4619 38.9453 12.2916Z" fill="white"/>
<path d="M43.3253 23.136H43.1582V23.0453H43.5915V23.136H43.4241V23.5898H43.3253V23.136Z" fill="#F9A91F"/>
<path d="M43.7168 23.0453H43.8707L44.0136 23.4127L44.1529 23.0453H44.3073V23.5898H44.2078V23.1726H44.2053L44.0522 23.5898H43.9714L43.8183 23.1726H43.8158V23.5898H43.7168V23.0453Z" fill="#F9A91F"/>
</svg>
