<svg width="65" height="20" viewBox="0 0 65 20" fill="none" xmlns="http://www.w3.org/2000/svg">
<rect width="124.654" height="37.4743" fill="black" fill-opacity="0" transform="translate(0.876953 19.7803) scale(0.514413 -0.514413)"/>
<path d="M60.6314 15.2406C60.4227 15.2406 60.2377 15.2719 60.0753 15.3341C59.9133 15.3971 59.7736 15.4859 59.6562 15.6018C59.5393 15.7177 59.4429 15.8556 59.3683 16.0155C59.2938 16.1754 59.2419 16.3509 59.2119 16.5421H61.9888C61.9258 16.1305 61.7767 15.8104 61.5423 15.5828C61.3075 15.3548 61.0033 15.2406 60.6314 15.2406ZM64.2793 19.6365V19.3159H64.1944L64.0967 19.5362L63.9995 19.3159H63.9147V19.6365H63.9742V19.3945L64.0659 19.6031H64.128L64.2193 19.3941V19.6365H64.2793ZM63.7424 19.6365V19.3704H63.8508V19.3163H63.5745V19.3704H63.6829V19.6365H63.7424ZM60.6537 14.2149C61.026 14.2149 61.3679 14.2818 61.6785 14.4158C61.9896 14.5504 62.2565 14.7398 62.4776 14.9843C62.6996 15.2288 62.8722 15.521 62.9973 15.8611C63.122 16.2012 63.1846 16.5776 63.1846 16.9891C63.1846 17.0627 63.1824 17.1359 63.179 17.2095C63.1751 17.2831 63.1696 17.3529 63.1623 17.4193H59.2068C59.2436 17.6583 59.3126 17.8621 59.4133 18.0313C59.514 18.2009 59.6348 18.3397 59.7766 18.4479C59.918 18.5566 60.0761 18.6366 60.2514 18.6878C60.4262 18.7394 60.6091 18.7647 60.7989 18.7647C61.0671 18.7647 61.3362 18.7165 61.6061 18.6188C61.8761 18.5215 62.1229 18.3845 62.3469 18.2081L62.9275 19.0299C62.5997 19.3057 62.2523 19.4986 61.8855 19.609C61.5187 19.7194 61.1323 19.7744 60.7261 19.7744C60.3242 19.7744 59.9553 19.7079 59.6203 19.576C59.2848 19.4436 58.996 19.2558 58.7539 19.0134C58.5118 18.7707 58.3237 18.478 58.1896 18.1362C58.0555 17.794 57.9887 17.4138 57.9887 16.9942C57.9887 16.5827 58.0534 16.2058 58.1841 15.8641C58.3147 15.5219 58.4968 15.2288 58.7316 14.9843C58.9664 14.7398 59.2466 14.5504 59.5723 14.4158C59.8987 14.2818 60.2591 14.2149 60.6537 14.2149ZM54.0551 15.3015C53.8018 15.3015 53.5756 15.3464 53.376 15.4365C53.1767 15.5265 53.0083 15.6479 52.8708 15.8006C52.7328 15.9529 52.6266 16.1322 52.552 16.3382C52.4775 16.5442 52.4402 16.7629 52.4402 16.9942C52.4402 17.226 52.4775 17.4451 52.552 17.6511C52.6266 17.8571 52.7328 18.0364 52.8708 18.1887C53.0083 18.3414 53.1767 18.4623 53.376 18.5528C53.5756 18.6429 53.8018 18.6878 54.0551 18.6878C54.2971 18.6878 54.5169 18.6446 54.7144 18.5579C54.912 18.4721 55.0812 18.3532 55.2226 18.2022C55.3644 18.0521 55.4741 17.8736 55.5525 17.6676C55.6305 17.4616 55.6699 17.2374 55.6699 16.9942C55.6699 16.7519 55.6305 16.5273 55.5525 16.3217C55.4741 16.1157 55.3644 15.9377 55.2226 15.7867C55.0812 15.6361 54.912 15.5177 54.7144 15.4305C54.5169 15.3447 54.2971 15.3015 54.0551 15.3015ZM53.9154 14.2149C54.2993 14.2149 54.6288 14.2856 54.9043 14.4273C55.1797 14.569 55.4107 14.7572 55.5975 14.9928V11.6941H56.765V19.6365H55.5975V19.002C55.4107 19.2376 55.1797 19.425 54.9043 19.565C54.6288 19.7046 54.2993 19.7744 53.9154 19.7744C53.5392 19.7744 53.1891 19.7058 52.8652 19.5675C52.5409 19.4296 52.2581 19.2376 52.016 18.991C51.7735 18.7449 51.5833 18.4518 51.4462 18.1117C51.3078 17.7716 51.2392 17.399 51.2392 16.9942C51.2392 16.5903 51.3078 16.2177 51.4462 15.8776C51.5833 15.5375 51.7735 15.2444 52.016 14.9978C52.2581 14.7517 52.5409 14.5597 52.8652 14.4218C53.1891 14.2835 53.5392 14.2149 53.9154 14.2149ZM47.5181 15.3015C47.2795 15.3015 47.058 15.3426 46.8527 15.4255C46.6484 15.5079 46.471 15.6238 46.3223 15.7727C46.1732 15.9216 46.0562 16.1001 45.9701 16.3078C45.8848 16.5159 45.8416 16.7447 45.8416 16.9942C45.8416 17.2446 45.8848 17.4739 45.9701 17.6815C46.0562 17.8892 46.1732 18.0677 46.3223 18.2166C46.471 18.365 46.6484 18.4809 46.8527 18.5638C47.058 18.6463 47.2795 18.6878 47.5181 18.6878C47.7563 18.6878 47.9778 18.6463 48.1826 18.5638C48.3875 18.4809 48.5653 18.365 48.7161 18.2166C48.8673 18.0677 48.9851 17.8892 49.0713 17.6815C49.157 17.4739 49.1998 17.2446 49.1998 16.9942C49.1998 16.7447 49.157 16.5159 49.0713 16.3078C48.9851 16.1001 48.8673 15.9216 48.7161 15.7727C48.5653 15.6238 48.3875 15.5079 48.1826 15.4255C47.9778 15.3426 47.7563 15.3015 47.5181 15.3015ZM47.5181 14.2149C47.9316 14.2149 48.3142 14.2856 48.6659 14.4273C49.0181 14.569 49.3223 14.7635 49.5794 15.0118C49.8365 15.2597 50.0374 15.5532 50.1831 15.8911C50.3284 16.2299 50.4008 16.5975 50.4008 16.9942C50.4008 17.3918 50.3284 17.7594 50.1831 18.0977C50.0374 18.4361 49.8365 18.7292 49.5794 18.9775C49.3223 19.2253 49.0181 19.4203 48.6659 19.562C48.3142 19.7037 47.9316 19.7744 47.5181 19.7744C47.1047 19.7744 46.7216 19.7037 46.3699 19.562C46.0177 19.4203 45.7139 19.2253 45.459 18.9775C45.2036 18.7292 45.0039 18.4361 44.8583 18.0977C44.7135 17.7594 44.6406 17.3918 44.6406 16.9942C44.6406 16.5975 44.7135 16.2299 44.8583 15.8911C45.0039 15.5532 45.2036 15.2597 45.459 15.0118C45.7139 14.7635 46.0177 14.569 46.3699 14.4273C46.7216 14.2856 47.1047 14.2149 47.5181 14.2149ZM40.6179 11.7711C40.964 11.7711 41.2995 11.8079 41.6234 11.8815C41.9478 11.9551 42.2494 12.0616 42.5288 12.2016C42.8077 12.3412 43.0618 12.5113 43.2884 12.7117C43.5155 12.9122 43.7062 13.1372 43.8583 13.3872L42.8025 14.0821C42.5639 13.7366 42.258 13.4646 41.8831 13.2662C41.5086 13.0674 41.0874 12.9685 40.6179 12.9685C40.219 12.9685 39.8505 13.0366 39.5116 13.1723C39.1727 13.3085 38.8805 13.4997 38.6341 13.7459C38.3886 13.9925 38.1958 14.2885 38.0561 14.6341C37.9164 14.9797 37.8466 15.3603 37.8466 15.7757C37.8466 16.1914 37.9164 16.5717 38.0561 16.9172C38.1958 17.2628 38.3886 17.5589 38.6341 17.8055C38.8805 18.0521 39.1727 18.2428 39.5116 18.379C39.8505 18.5148 40.219 18.5829 40.6179 18.5829C41.0832 18.5829 41.5013 18.4856 41.8719 18.2906C42.243 18.096 42.551 17.8237 42.797 17.4747L43.8253 18.2191C43.6573 18.4615 43.4611 18.6785 43.2357 18.8696C43.0103 19.0612 42.761 19.2245 42.4868 19.3607C42.213 19.4969 41.9186 19.6009 41.6042 19.6724C41.2892 19.7439 40.9606 19.7803 40.6179 19.7803C40.018 19.7803 39.4666 19.6796 38.964 19.4791C38.461 19.2791 38.0291 19.0003 37.6679 18.6438C37.3063 18.2872 37.0253 17.8643 36.8243 17.3753C36.6229 16.8859 36.5227 16.353 36.5227 15.7757C36.5227 15.1983 36.6229 14.6654 36.8243 14.176C37.0253 13.6871 37.3063 13.2641 37.6679 12.9076C38.0291 12.551 38.461 12.2727 38.964 12.0722C39.4666 11.8717 40.018 11.7711 40.6179 11.7711ZM33.0248 15.2406C32.8161 15.2406 32.631 15.2719 32.4691 15.3341C32.3071 15.3971 32.167 15.4859 32.05 15.6018C31.9326 15.7177 31.8367 15.8556 31.7621 16.0155C31.6876 16.1754 31.6357 16.3509 31.6057 16.5421H34.383C34.3191 16.1305 34.1705 15.8104 33.9357 15.5828C33.7013 15.3548 33.3975 15.2406 33.0248 15.2406ZM33.0475 14.2149C33.4198 14.2149 33.7613 14.2818 34.0728 14.4158C34.3838 14.5504 34.6499 14.7398 34.8718 14.9843C35.0929 15.2288 35.2665 15.521 35.3911 15.8611C35.5158 16.2012 35.5784 16.5776 35.5784 16.9891C35.5784 17.0627 35.5767 17.1359 35.5728 17.2095C35.5689 17.2831 35.5634 17.3529 35.5557 17.4193H31.6002C31.6374 17.6583 31.7064 17.8621 31.8067 18.0313C31.9074 18.2009 32.0286 18.3397 32.17 18.4479C32.3118 18.5566 32.4699 18.6366 32.6452 18.6878C32.82 18.7394 33.0025 18.7647 33.1923 18.7647C33.4609 18.7647 33.73 18.7165 33.9999 18.6188C34.2703 18.5215 34.5167 18.3845 34.7403 18.2081L35.3213 19.0299C34.9935 19.3057 34.6465 19.4986 34.2793 19.609C33.9121 19.7194 33.5261 19.7744 33.1199 19.7744C32.7176 19.7744 32.3487 19.7079 32.0136 19.576C31.6781 19.4436 31.3898 19.2558 31.1477 19.0134C30.9052 18.7707 30.7175 18.478 30.5834 18.1362C30.4493 17.794 30.3821 17.4138 30.3821 16.9942C30.3821 16.5827 30.4472 16.2058 30.5779 15.8641C30.7081 15.5219 30.8906 15.2288 31.1254 14.9843C31.3598 14.7398 31.64 14.5504 31.9661 14.4158C32.2921 14.2818 32.6524 14.2149 33.0475 14.2149ZM29.125 14.2149C29.3036 14.2149 29.4647 14.2268 29.6083 14.2509C29.7518 14.2742 29.8902 14.3122 30.0243 14.3634L29.7454 15.5054C29.622 15.4428 29.4785 15.395 29.3148 15.362C29.1511 15.3286 28.9982 15.3121 28.8568 15.3121C28.6704 15.3121 28.4994 15.3434 28.3426 15.406C28.1862 15.4686 28.0521 15.5604 27.9403 15.6822C27.8285 15.8032 27.7411 15.952 27.6777 16.1284C27.6142 16.3048 27.583 16.5053 27.583 16.7299V19.6365H26.415V14.3528H27.5718V14.9484C27.7505 14.6946 27.972 14.5089 28.2364 14.3913C28.5011 14.2737 28.7972 14.2149 29.125 14.2149ZM24.8623 17.3973C24.8623 17.8165 24.7912 18.1768 24.6498 18.478C24.5084 18.7795 24.322 19.0261 24.0911 19.2173C23.8601 19.4089 23.5958 19.5493 23.2976 19.6394C22.9998 19.7291 22.6943 19.7744 22.3811 19.7744C22.0688 19.7744 21.7628 19.7291 21.4651 19.6394C21.1669 19.5493 20.9016 19.4089 20.669 19.2173C20.4363 19.0261 20.25 18.7795 20.1103 18.478C19.9706 18.1768 19.9008 17.8165 19.9008 17.3973V14.3528H21.0739V17.2924C21.0739 17.5462 21.1077 17.7623 21.1746 17.9404C21.2414 18.1189 21.334 18.2631 21.4509 18.3735C21.5683 18.4835 21.7071 18.5638 21.8674 18.6133C22.0276 18.6628 22.199 18.6878 22.3811 18.6878C22.564 18.6878 22.735 18.6628 22.8957 18.6133C23.0555 18.5638 23.1943 18.4835 23.3117 18.3735C23.4291 18.2631 23.5212 18.1189 23.5881 17.9404C23.6553 17.7623 23.6887 17.5462 23.6887 17.2924V14.3528H24.8623V17.3973ZM16.8725 14.2149C17.2748 14.2149 17.6492 14.2856 17.9954 14.4273C18.3421 14.569 18.6343 14.7792 18.8729 15.0588L18.124 15.8472C17.9342 15.6708 17.7366 15.5354 17.5318 15.442C17.327 15.3485 17.0961 15.3015 16.839 15.3015C16.6154 15.3015 16.4067 15.3426 16.2135 15.4255C16.0194 15.5079 15.8519 15.6238 15.7105 15.7727C15.5691 15.9216 15.4581 16.1001 15.378 16.3078C15.2979 16.5159 15.2576 16.7447 15.2576 16.9942C15.2576 17.2446 15.2979 17.4739 15.378 17.6815C15.4581 17.8892 15.5691 18.0677 15.7105 18.2166C15.8519 18.365 16.0194 18.4809 16.2135 18.5638C16.4067 18.6463 16.6154 18.6878 16.839 18.6878C17.0961 18.6878 17.3365 18.6353 17.5597 18.5304C17.7834 18.4259 17.9809 18.2944 18.1518 18.1362L18.8729 18.9305C18.627 19.2097 18.3326 19.4203 17.9899 19.562C17.6475 19.7037 17.2748 19.7744 16.8725 19.7744C16.4479 19.7744 16.0622 19.7037 15.7161 19.562C15.3699 19.4203 15.0734 19.2253 14.8279 18.9775C14.5819 18.7292 14.3917 18.4361 14.258 18.0977C14.1239 17.7594 14.0566 17.3918 14.0566 16.9942C14.0566 16.5975 14.1239 16.2299 14.258 15.8911C14.3917 15.5532 14.5819 15.2597 14.8279 15.0118C15.0734 14.7635 15.3699 14.569 15.7161 14.4273C16.0622 14.2856 16.4479 14.2149 16.8725 14.2149ZM10.6654 15.2406C10.4568 15.2406 10.2717 15.2719 10.1093 15.3341C9.94734 15.3971 9.80767 15.4859 9.69027 15.6018C9.5733 15.7177 9.47732 15.8556 9.40277 16.0155C9.32822 16.1754 9.27595 16.3509 9.24639 16.5421H12.0232C11.9598 16.1305 11.8107 15.8104 11.5759 15.5828C11.3415 15.3548 11.0378 15.2406 10.6654 15.2406ZM10.6877 14.2149C11.06 14.2149 11.4019 14.2818 11.713 14.4158C12.0241 14.5504 12.2901 14.7398 12.5121 14.9843C12.7336 15.2288 12.9067 15.521 13.0318 15.8611C13.156 16.2012 13.2186 16.5776 13.2186 16.9891C13.2186 17.0627 13.2169 17.1359 13.213 17.2095C13.2092 17.2831 13.204 17.3529 13.1963 17.4193H9.24082C9.27809 17.6583 9.34665 17.8621 9.44733 18.0313C9.54759 18.2009 9.66885 18.3397 9.81024 18.4479C9.95205 18.5566 10.1102 18.6366 10.2854 18.6878C10.4602 18.7394 10.6432 18.7647 10.833 18.7647C11.1012 18.7647 11.3702 18.7165 11.6402 18.6188C11.9105 18.5215 12.1569 18.3845 12.3805 18.2081L12.9615 19.0299C12.6338 19.3057 12.2867 19.4986 11.9199 19.609C11.5528 19.7194 11.1663 19.7744 10.7605 19.7744C10.3582 19.7744 9.98933 19.7079 9.65385 19.576C9.3188 19.4436 9.03045 19.2558 8.78794 19.0134C8.54586 18.7707 8.35777 18.478 8.22367 18.1362C8.08956 17.794 8.02272 17.4138 8.02272 16.9942C8.02272 16.5827 8.08785 16.2058 8.2181 15.8641C8.34835 15.5219 8.5313 15.2288 8.76566 14.9843C9.00045 14.7398 9.28067 14.5504 9.60672 14.4158C9.93235 14.2818 10.2927 14.2149 10.6877 14.2149ZM6.42501 13.6245C6.08953 13.4147 5.73948 13.2523 5.37444 13.1364C5.0094 13.0209 4.62764 12.9626 4.22918 12.9626C3.96825 12.9626 3.73003 12.9896 3.51409 13.0429C3.29772 13.0958 3.11263 13.1732 2.95796 13.2743C2.80328 13.3758 2.68331 13.4968 2.59762 13.638C2.51193 13.7797 2.46909 13.9392 2.46909 14.1155C2.46909 14.2771 2.50636 14.415 2.58091 14.5292C2.65546 14.6434 2.76258 14.7398 2.90225 14.8185C3.04193 14.8976 3.21246 14.9632 3.4134 15.0148C3.61435 15.0664 3.84186 15.1104 4.09508 15.1471L4.63707 15.2186C4.9537 15.2626 5.26262 15.3307 5.56425 15.4229C5.86631 15.5147 6.13538 15.6433 6.37189 15.8087C6.60839 15.974 6.7982 16.1821 6.94173 16.4317C7.08526 16.6821 7.15681 16.9858 7.15681 17.3419C7.15681 17.7353 7.07284 18.0834 6.90531 18.3845C6.73779 18.6861 6.5107 18.9398 6.22364 19.1454C5.937 19.3514 5.60452 19.5079 5.22662 19.6145C4.8483 19.7211 4.44684 19.7744 4.02224 19.7744C3.75788 19.7744 3.48324 19.7524 3.19832 19.7079C2.9134 19.664 2.6319 19.5988 2.35469 19.5125C2.07705 19.4258 1.81184 19.3184 1.55819 19.1898C1.30498 19.0612 1.0779 18.9102 0.876953 18.7372L1.5642 17.7446C1.6983 17.8659 1.85897 17.9785 2.04749 18.0812C2.23558 18.184 2.43738 18.2741 2.65333 18.3511C2.86969 18.4285 3.09378 18.4885 3.32686 18.5304C3.55951 18.5727 3.78959 18.5939 4.01667 18.5939C4.27374 18.5939 4.51325 18.5685 4.73476 18.5169C4.95627 18.4653 5.14908 18.39 5.31318 18.2906C5.47685 18.1916 5.60624 18.0711 5.70135 17.9294C5.79647 17.7877 5.84403 17.6291 5.84403 17.4527C5.84403 17.1507 5.69364 16.9211 5.39415 16.7629C5.09423 16.6047 4.65764 16.4871 4.08394 16.4097L3.4751 16.3268C3.18418 16.2866 2.90012 16.2206 2.62291 16.1284C2.34527 16.0371 2.09762 15.9072 1.87997 15.7397C1.66188 15.5722 1.48664 15.3633 1.35468 15.1112C1.22228 14.8595 1.15588 14.5533 1.15588 14.1925C1.15588 13.8064 1.23728 13.4638 1.39924 13.1639C1.56119 12.8644 1.78185 12.6128 2.0612 12.4085C2.34055 12.2042 2.66746 12.049 3.04193 11.9424C3.41597 11.8358 3.81572 11.7825 4.24032 11.7825C4.81016 11.7825 5.32517 11.8569 5.7849 12.0058C6.24506 12.1547 6.67266 12.3577 7.0677 12.6149L6.42501 13.6245Z" fill="#F79E1B"/>
<path d="M60.4164 4.2448C60.1537 4.2448 59.9189 4.29175 59.7124 4.3848C59.5055 4.47827 59.3311 4.60432 59.188 4.76251C59.0453 4.92112 58.9348 5.1068 58.8577 5.32039C58.7805 5.53399 58.7415 5.76112 58.7415 6.00136C58.7415 6.2416 58.7805 6.46831 58.8577 6.68191C58.9348 6.8955 59.0453 7.08161 59.188 7.23979C59.3311 7.3984 59.5055 7.52402 59.7124 7.6175C59.9189 7.71055 60.1537 7.7575 60.4164 7.7575C60.6679 7.7575 60.8954 7.71266 61.1006 7.623C61.3054 7.53333 61.4807 7.41067 61.628 7.25417C61.7746 7.09768 61.8885 6.91284 61.9695 6.69925C62.0509 6.48565 62.0916 6.25302 62.0916 6.00136C62.0916 5.74928 62.0509 5.51665 61.9695 5.30305C61.8885 5.08945 61.7746 4.90462 61.628 4.74812C61.4807 4.59205 61.3054 4.46897 61.1006 4.3793C60.8954 4.28963 60.6679 4.2448 60.4164 4.2448ZM64.581 8.48076V8.56705H64.6615C64.6799 8.56705 64.6949 8.56324 64.7056 8.55605C64.7168 8.54928 64.7223 8.53829 64.7223 8.52348C64.7223 8.5091 64.7168 8.49853 64.7056 8.49134C64.6949 8.48415 64.6799 8.48076 64.6615 8.48076H64.581ZM64.6624 8.41986C64.7048 8.41986 64.7369 8.42916 64.76 8.44777C64.7828 8.46638 64.7939 8.49134 64.7939 8.52348C64.7939 8.55013 64.7849 8.57212 64.7669 8.58946C64.7485 8.60681 64.7228 8.6178 64.6893 8.62161L64.7965 8.74385H64.7129L64.6131 8.62246H64.581V8.74385H64.5111V8.41986H64.6624ZM64.6418 8.85466C64.6799 8.85466 64.7155 8.84747 64.7481 8.83351C64.781 8.81913 64.8097 8.79968 64.8346 8.77557C64.8594 8.75104 64.8792 8.72227 64.8933 8.68928C64.9074 8.65587 64.9143 8.62076 64.9143 8.58312C64.9143 8.54548 64.9074 8.51037 64.8933 8.47738C64.8792 8.44439 64.8594 8.41563 64.8346 8.3911C64.8097 8.36656 64.781 8.34711 64.7481 8.33315C64.7155 8.31919 64.6799 8.31242 64.6418 8.31242C64.6032 8.31242 64.5668 8.31919 64.533 8.33315C64.4995 8.34711 64.47 8.36656 64.4451 8.3911C64.4207 8.41563 64.401 8.44439 64.3869 8.47738C64.3727 8.51037 64.3659 8.54548 64.3659 8.58312C64.3659 8.62076 64.3727 8.65587 64.3869 8.68928C64.401 8.72227 64.4207 8.75104 64.4451 8.77557C64.47 8.79968 64.4995 8.81913 64.533 8.83351C64.5668 8.84747 64.6032 8.85466 64.6418 8.85466ZM64.6418 8.2346C64.6915 8.2346 64.7378 8.2439 64.7815 8.26209C64.8252 8.28028 64.8633 8.30523 64.8959 8.33653C64.9284 8.36826 64.9541 8.40548 64.9726 8.44777C64.9914 8.49007 65.0008 8.53533 65.0008 8.58312C65.0008 8.63091 64.9914 8.67617 64.9726 8.71804C64.9541 8.76034 64.9284 8.79714 64.8959 8.82886C64.8633 8.86016 64.8252 8.88554 64.7815 8.90373C64.7378 8.92234 64.6915 8.93164 64.6418 8.93164C64.5908 8.93164 64.5437 8.92234 64.4995 8.90373C64.4554 8.88554 64.4168 8.86016 64.3847 8.82886C64.3526 8.79714 64.3269 8.76034 64.308 8.71804C64.2896 8.67617 64.2802 8.63091 64.2802 8.58312C64.2802 8.53533 64.2896 8.49007 64.308 8.44777C64.3269 8.40548 64.3526 8.36826 64.3847 8.33653C64.4168 8.30523 64.4554 8.28028 64.4995 8.26209C64.5437 8.2439 64.5908 8.2346 64.6418 8.2346ZM60.2716 3.11761C60.6696 3.11761 61.0115 3.1912 61.2977 3.33797C61.5835 3.48516 61.823 3.68015 62.0162 3.92419V0.503279H63.2275V8.74131H62.0162V8.0836C61.823 8.32765 61.5835 8.52221 61.2977 8.66687C61.0115 8.81237 60.6696 8.88469 60.2716 8.88469C59.8812 8.88469 59.5183 8.81321 59.182 8.67025C58.8461 8.52687 58.5522 8.32765 58.3015 8.07218C58.05 7.81671 57.8534 7.5126 57.7103 7.15985C57.5676 6.80668 57.4956 6.42052 57.4956 6.00136C57.4956 5.58178 57.5676 5.19562 57.7103 4.84244C57.8534 4.49012 58.05 4.18558 58.3015 3.93054C58.5522 3.67465 58.8461 3.47543 59.182 3.33205C59.5183 3.18951 59.8812 3.11761 60.2716 3.11761ZM56.2959 3.11761C56.4814 3.11761 56.6485 3.1303 56.7972 3.15483C56.9459 3.17978 57.0898 3.21869 57.2291 3.27199L56.939 4.45628C56.8118 4.39157 56.6631 4.34208 56.4934 4.30782C56.3229 4.27356 56.1644 4.25622 56.0179 4.25622C55.8246 4.25622 55.6468 4.28879 55.4849 4.3535C55.3225 4.41864 55.1832 4.5138 55.0675 4.63985C54.9514 4.76547 54.8606 4.91985 54.795 5.10299C54.7295 5.28613 54.6965 5.49381 54.6965 5.72644V8.74131H53.4853V3.26099H54.6854V3.87851C54.8705 3.61543 55.1001 3.42298 55.3747 3.30075C55.649 3.17894 55.9562 3.11761 56.2959 3.11761ZM48.8897 4.2448C48.627 4.2448 48.3922 4.29175 48.1853 4.3848C47.9788 4.47827 47.8039 4.60432 47.6608 4.76251C47.5182 4.92112 47.4081 5.1068 47.3305 5.32039C47.2538 5.53399 47.2148 5.76112 47.2148 6.00136C47.2148 6.2416 47.2538 6.46831 47.3305 6.68191C47.4081 6.8955 47.5182 7.08161 47.6608 7.23979C47.8039 7.3984 47.9788 7.52402 48.1853 7.6175C48.3922 7.71055 48.627 7.7575 48.8897 7.7575C49.1407 7.7575 49.3687 7.71266 49.5735 7.623C49.7783 7.53333 49.9539 7.41067 50.1009 7.25417C50.2479 7.09768 50.3614 6.91284 50.4428 6.69925C50.5242 6.48565 50.5645 6.25302 50.5645 6.00136C50.5645 5.74928 50.5242 5.51665 50.4428 5.30305C50.3614 5.08945 50.2479 4.90462 50.1009 4.74812C49.9539 4.59205 49.7783 4.46897 49.5735 4.3793C49.3687 4.28963 49.1407 4.2448 48.8897 4.2448ZM51.7003 8.74131H50.4891V8.0836C50.2958 8.32765 50.0563 8.52221 49.7706 8.66687C49.4843 8.81237 49.1429 8.88469 48.7448 8.88469C48.3545 8.88469 47.9912 8.81321 47.6553 8.67025C47.3194 8.52687 47.0254 8.32765 46.7744 8.07218C46.5233 7.81671 46.3262 7.5126 46.1831 7.15985C46.0404 6.80668 45.9689 6.42052 45.9689 6.00136C45.9689 5.58178 46.0404 5.19562 46.1831 4.84244C46.3262 4.49012 46.5233 4.18558 46.7744 3.93054C47.0254 3.67465 47.3194 3.47543 47.6553 3.33205C47.9912 3.18951 48.3545 3.11761 48.7448 3.11761C49.1429 3.11761 49.4843 3.1912 49.7706 3.33797C50.0563 3.48516 50.2958 3.68015 50.4891 3.92419V3.26099H51.7003V8.74131ZM43.1698 3.11761C43.5871 3.11761 43.9753 3.1912 44.3343 3.33797C44.6938 3.48516 44.9967 3.70341 45.2439 3.99314L44.4676 4.81157C44.2705 4.628 44.0661 4.488 43.8536 4.39072C43.6406 4.29386 43.4016 4.2448 43.1346 4.2448C42.9033 4.2448 42.6869 4.28752 42.486 4.3738C42.2846 4.45924 42.1111 4.57936 41.9641 4.73417C41.8176 4.88855 41.7023 5.07338 41.6196 5.28867C41.5361 5.50438 41.4949 5.74166 41.4949 6.00136C41.4949 6.26064 41.5361 6.49792 41.6196 6.71363C41.7023 6.92892 41.8176 7.11375 41.9641 7.26855C42.1111 7.42294 42.2846 7.54306 42.486 7.62849C42.6869 7.71478 42.9033 7.7575 43.1346 7.7575C43.4016 7.7575 43.6505 7.70294 43.8823 7.59466C44.1141 7.48596 44.3189 7.34934 44.4967 7.18523L45.2439 8.00916C44.9894 8.29931 44.6839 8.51756 44.3287 8.66433C43.9731 8.8111 43.5871 8.88469 43.1698 8.88469C42.7293 8.88469 42.3291 8.8111 41.9701 8.66433C41.6106 8.51756 41.3034 8.31538 41.0485 8.05822C40.7936 7.80022 40.5965 7.49611 40.4577 7.14547C40.3184 6.79441 40.249 6.4129 40.249 6.00136C40.249 5.5894 40.3184 5.20788 40.4577 4.85683C40.5965 4.50619 40.7936 4.20208 41.0485 3.9445C41.3034 3.68691 41.6106 3.48516 41.9701 3.33797C42.3291 3.1912 42.7293 3.11761 43.1698 3.11761ZM39.0262 3.11761C39.2117 3.11761 39.3788 3.1303 39.5275 3.15483C39.6762 3.17978 39.8201 3.21869 39.9589 3.27199L39.6693 4.45628C39.542 4.39157 39.3934 4.34208 39.2229 4.30782C39.0532 4.27356 38.8947 4.25622 38.7481 4.25622C38.5545 4.25622 38.3771 4.28879 38.2147 4.3535C38.0523 4.41864 37.9135 4.5138 37.7974 4.63985C37.6817 4.76547 37.5909 4.91985 37.5249 5.10299C37.4593 5.28613 37.4268 5.49381 37.4268 5.72644V8.74131H36.2155V3.26099H37.4148V3.87851C37.6003 3.61543 37.8304 3.42298 38.1046 3.30075C38.3788 3.17894 38.686 3.11761 39.0262 3.11761ZM32.1821 4.1822C31.9657 4.1822 31.7733 4.21435 31.6054 4.27906C31.437 4.3442 31.2922 4.4364 31.1705 4.55652C31.0488 4.67707 30.9494 4.8196 30.8723 4.98583C30.7947 5.15163 30.7407 5.33393 30.7099 5.53187H33.5904C33.5244 5.1051 33.3702 4.77308 33.1264 4.53664C32.883 4.30021 32.5681 4.1822 32.1821 4.1822ZM32.2052 3.11761C32.5912 3.11761 32.946 3.18739 33.2686 3.32655C33.5912 3.4657 33.8676 3.66238 34.0972 3.91574C34.3269 4.16951 34.5068 4.47278 34.6362 4.82553C34.7656 5.17828 34.8303 5.56825 34.8303 5.99544C34.8303 6.07157 34.8286 6.14813 34.8243 6.22426C34.8209 6.30082 34.8149 6.37314 34.8076 6.44166H30.7043C30.7424 6.68952 30.814 6.90142 30.9185 7.07695C31.0227 7.25206 31.1482 7.39629 31.2952 7.5088C31.4421 7.62088 31.6062 7.70421 31.7879 7.7575C31.9695 7.81121 32.1585 7.83744 32.3556 7.83744C32.6341 7.83744 32.913 7.78711 33.1932 7.68602C33.4734 7.58493 33.7292 7.44281 33.961 7.25967L34.5638 8.11194C34.2236 8.39829 33.8633 8.59877 33.4828 8.71297C33.1024 8.82759 32.7013 8.88469 32.2806 8.88469C31.8633 8.88469 31.4807 8.81575 31.1328 8.67871C30.7853 8.54125 30.4858 8.34711 30.2347 8.09544C29.9837 7.84336 29.7883 7.5401 29.6495 7.18523C29.5102 6.83079 29.4408 6.43574 29.4408 6.00136C29.4408 5.57417 29.5081 5.18293 29.6435 4.82806C29.7789 4.47362 29.9682 4.16951 30.2116 3.91574C30.455 3.66238 30.7454 3.4657 31.0839 3.32655C31.422 3.18739 31.7956 3.11761 32.2052 3.11761ZM28.4789 4.34758H26.3516V6.73351C26.3516 6.91623 26.3752 7.07272 26.4215 7.20257C26.4678 7.332 26.5307 7.43816 26.61 7.52022C26.6888 7.60227 26.7818 7.66233 26.8876 7.7004C26.9939 7.73846 27.1092 7.7575 27.233 7.7575C27.4219 7.7575 27.6143 7.72155 27.8092 7.6488C28.0046 7.57605 28.185 7.48849 28.3512 7.38571L28.832 8.34076C28.6079 8.48965 28.356 8.6178 28.0762 8.72439C27.796 8.83098 27.4802 8.88469 27.1284 8.88469C26.4986 8.88469 26.0089 8.71212 25.6593 8.36699C25.3096 8.02143 25.1348 7.48511 25.1348 6.75635V4.34758H24.0277V3.26099H25.1348V1.60171H26.3516V3.26099H28.4789V4.34758ZM22.7299 4.63392C22.6451 4.58444 22.5405 4.53157 22.4171 4.47658C22.2933 4.42117 22.1562 4.37084 22.0054 4.32474C21.8546 4.27906 21.6956 4.24142 21.5277 4.21054C21.3593 4.18009 21.1883 4.16486 21.0144 4.16486C20.6823 4.16486 20.4244 4.22492 20.2406 4.34504C20.0572 4.46474 19.9655 4.6225 19.9655 4.81707C19.9655 4.91223 19.9895 4.99217 20.0379 5.05689C20.0863 5.12245 20.151 5.17532 20.232 5.21761C20.3134 5.25949 20.4098 5.2929 20.5221 5.31743C20.6339 5.34239 20.7539 5.36438 20.8811 5.38299L21.4548 5.46927C22.0615 5.55683 22.5345 5.73109 22.8747 5.99248C23.2149 6.25387 23.385 6.61931 23.385 7.08795C23.385 7.35145 23.3276 7.59254 23.2136 7.81206C23.1001 8.03115 22.9356 8.22022 22.7213 8.37798C22.5067 8.53659 22.2419 8.65925 21.9274 8.74723C21.6125 8.83521 21.256 8.87877 20.858 8.87877C20.7149 8.87877 20.5487 8.87031 20.3597 8.85297C20.1703 8.83563 19.9694 8.80137 19.7569 8.75019C19.5443 8.69859 19.328 8.62711 19.1078 8.53575C18.8875 8.44397 18.6772 8.32384 18.4762 8.17538L19.0383 7.27701C19.1386 7.35357 19.2479 7.42463 19.3657 7.49146C19.4835 7.55828 19.6168 7.6175 19.7654 7.66868C19.9141 7.72028 20.0786 7.76173 20.2582 7.79176C20.4381 7.82221 20.6416 7.83744 20.8696 7.83744C21.2869 7.83744 21.6018 7.77738 21.8143 7.65768C22.0268 7.53756 22.1331 7.37429 22.1331 7.16831C22.1331 7.01224 22.0555 6.88324 21.9013 6.78215C21.7466 6.68106 21.5032 6.60746 21.1712 6.56179L20.5915 6.48734C19.9732 6.4036 19.5049 6.22553 19.1862 5.95272C18.8674 5.67991 18.708 5.32251 18.708 4.87967C18.708 4.60897 18.7611 4.36492 18.8674 4.14752C18.9736 3.93054 19.1262 3.74613 19.325 3.59555C19.5242 3.44498 19.7646 3.32866 20.0465 3.24661C20.3289 3.16455 20.6476 3.12353 21.0028 3.12353C21.4394 3.12353 21.8507 3.17428 22.2376 3.27537C22.6237 3.37604 22.9617 3.51815 23.2513 3.70129L22.7299 4.63392ZM14.3558 4.2448C14.0931 4.2448 13.8583 4.29175 13.6518 4.3848C13.4453 4.47827 13.2705 4.60432 13.1274 4.76251C12.9843 4.92112 12.8742 5.1068 12.797 5.32039C12.7195 5.53399 12.6814 5.76112 12.6814 6.00136C12.6814 6.2416 12.7195 6.46831 12.797 6.68191C12.8742 6.8955 12.9843 7.08161 13.1274 7.23979C13.2705 7.3984 13.4453 7.52402 13.6518 7.6175C13.8583 7.71055 14.0931 7.7575 14.3558 7.7575C14.6068 7.7575 14.8352 7.71266 15.0396 7.623C15.2448 7.53333 15.4205 7.41067 15.5674 7.25417C15.714 7.09768 15.8279 6.91284 15.9093 6.69925C15.9903 6.48565 16.0306 6.25302 16.0306 6.00136C16.0306 5.74928 15.9903 5.51665 15.9093 5.30305C15.8279 5.08945 15.714 4.90462 15.5674 4.74812C15.4205 4.59205 15.2448 4.46897 15.0396 4.3793C14.8352 4.28963 14.6068 4.2448 14.3558 4.2448ZM17.1664 8.74131H15.9552V8.0836C15.7624 8.32765 15.5224 8.52221 15.2371 8.66687C14.9509 8.81237 14.609 8.88469 14.2109 8.88469C13.8206 8.88469 13.4577 8.81321 13.1214 8.67025C12.7855 8.52687 12.4916 8.32765 12.2405 8.07218C11.9894 7.81671 11.7923 7.5126 11.6496 7.15985C11.5065 6.80668 11.435 6.42052 11.435 6.00136C11.435 5.58178 11.5065 5.19562 11.6496 4.84244C11.7923 4.49012 11.9894 4.18558 12.2405 3.93054C12.4916 3.67465 12.7855 3.47543 13.1214 3.33205C13.4577 3.18951 13.8206 3.11761 14.2109 3.11761C14.609 3.11761 14.9509 3.1912 15.2371 3.33797C15.5224 3.48516 15.7624 3.68015 15.9552 3.92419V3.26099H17.1664V8.74131ZM10.2704 8.74131H8.96066V2.15114L6.59045 7.95756H5.21125L2.84104 2.21374V8.74131H1.53125V0.7321H3.54199L5.90106 6.45308L8.25971 0.7321H10.2704V8.74131Z" fill="#EB001B"/>
</svg>
