<svg width="96" height="35" viewBox="0 0 96 35" fill="none" xmlns="http://www.w3.org/2000/svg">
<path fill-rule="evenodd" clip-rule="evenodd" d="M95.9949 20.4316C95.9819 20.2945 95.9499 20.1599 95.8999 20.0316C95.5799 19.1906 94.1229 19.9746 93.6259 20.1856C92.7309 20.5646 91.7059 21.0656 90.7159 20.7776C90.4409 20.6976 90.5219 20.4626 90.7159 20.3416C90.8119 20.2816 93.3579 18.8266 94.1069 15.5996C95.3049 10.4386 91.6269 9.00259 90.1769 8.82959C88.6999 8.65159 87.0539 8.88259 86.3609 9.16459C84.3949 9.96259 83.8819 11.7376 83.7469 12.8006C83.5599 14.2626 83.5399 16.8146 83.3599 17.9636C83.2419 18.7186 82.6859 19.8666 81.5879 19.7576C79.4719 19.5476 78.4999 18.7256 78.5679 17.3776C78.6149 16.4296 78.6009 16.2406 78.8969 14.1376C79.1489 12.3376 79.3099 11.9076 79.3099 11.4966C79.3099 10.3166 77.7419 10.0786 77.2179 10.6096C76.8129 11.0196 76.7109 11.8566 76.6099 13.2696C76.5149 14.5976 76.3139 16.3256 76.0529 17.3796C75.6489 19.0196 75.4869 19.1406 75.1169 19.6096C74.3499 20.5856 72.9319 20.2826 72.2399 19.6176C71.8329 19.2266 71.7779 18.8786 71.8569 17.7286C71.9359 16.5786 72.1219 14.5756 72.3829 12.4866C72.6109 10.6596 72.4529 10.3846 71.8989 9.87159C71.3829 9.39559 69.4039 9.46559 68.4889 9.46559C67.0709 9.46559 67.1559 10.1476 67.0629 12.4736C67.0219 13.4896 66.9749 15.0296 66.8749 16.2236C66.7119 18.1636 63.0479 19.6246 61.3629 19.5366C59.6169 19.4466 59.4489 16.1506 59.3379 15.3836C59.2279 14.6176 59.1829 8.00259 59.3719 7.77859C59.5059 7.62059 60.5569 7.50059 61.7549 7.26359C64.4069 6.73859 64.7879 6.39359 64.7919 5.55359C64.7939 5.14359 64.7679 4.56659 64.3159 4.41159C64.0519 4.32159 63.3659 4.21759 62.4539 4.10959C59.8279 3.79659 59.4579 3.89259 59.4439 3.55559C59.4179 2.96559 59.4739 1.83259 59.4269 1.38559C59.3119 0.287586 58.0389 -0.0814138 56.6049 0.0145862C56.3209 0.0325862 55.9299 0.125586 55.8989 0.509586C55.8679 0.892586 55.8699 1.18859 55.8239 1.83859C55.7229 3.28159 55.6939 3.43859 55.1409 3.43559C54.6479 3.43259 50.5469 3.06559 49.7589 3.32159C48.9709 3.57759 49.0019 4.11959 48.9389 4.39159C48.8759 4.66259 49.0179 6.29159 49.0969 6.99459C49.1749 7.69759 49.3269 8.65259 49.4219 8.79659C49.5169 8.94059 49.8129 9.34759 50.6359 9.24359C53.4329 8.88959 55.2989 8.46259 55.6769 8.36659C56.0549 8.27059 56.0989 8.22259 56.1029 8.52659C56.1049 8.69759 56.1749 12.1516 56.1869 13.1766C56.2069 14.9306 56.5009 20.0126 51.8259 20.8006C49.8799 21.1276 48.0559 20.5546 47.2279 19.6306C46.7579 19.1066 46.9879 19.0386 47.1959 18.6966C47.5109 18.1786 50.1379 15.0566 47.9359 11.8206C46.6379 9.91059 43.5239 9.75959 42.3939 10.2556C41.5179 10.6386 40.8099 11.8296 40.6729 13.2796C40.2509 17.7576 42.7849 20.5266 42.8829 20.6976C43.0009 20.9026 42.5579 21.5616 41.0099 21.7906C38.9349 22.0986 35.7479 19.5676 35.8299 19.2376C35.8699 19.0796 37.2809 16.7426 37.3149 14.4846C37.3269 13.7156 37.0759 12.7046 36.5549 11.6816C36.0349 10.6596 34.3979 9.08159 32.6249 9.42759C28.4519 10.2416 28.9279 14.4086 29.2179 15.5466C29.8179 17.8986 31.2219 19.9746 31.4519 20.3896C31.7639 20.9536 22.6249 24.6216 22.2699 21.1876C21.9179 17.7856 26.9149 10.4476 26.5219 7.59959C26.1679 5.03559 24.4619 4.49859 22.9789 4.47159C21.5369 4.44559 21.1559 4.67859 20.6689 4.96559C20.3869 5.13059 19.9839 5.45759 19.4229 4.91759C19.0499 4.55759 18.8039 4.30659 18.4099 3.98759C18.2099 3.82459 17.8899 3.61959 17.3529 3.54059C16.8179 3.46059 16.1229 3.54059 15.6829 3.73159C15.2409 3.92359 14.8939 4.25859 14.5309 4.57859C14.1689 4.89759 13.2489 5.94059 12.3909 5.55659C12.0209 5.38959 10.7609 4.75259 9.85093 4.35459C8.09693 3.58459 5.56593 4.83059 4.65493 6.47159C3.29993 8.91159 0.622934 18.5026 0.217934 19.7676C-0.692066 22.6076 1.36893 24.9226 4.14893 24.7896C5.32393 24.7336 6.10593 24.2986 6.84893 22.9306C7.27693 22.1406 11.3069 11.4786 11.6069 10.9676C11.8239 10.5976 12.5489 10.1076 13.1639 10.4276C13.7789 10.7466 13.9009 11.4126 13.8099 12.0396C13.6629 13.0546 10.8209 19.5596 10.7119 20.2956C10.5259 21.5466 11.1139 22.2426 12.3959 22.3106C13.2749 22.3576 14.1509 22.0366 14.8459 20.7096C15.2359 19.9666 19.7159 10.8736 20.1129 10.2676C20.5489 9.60059 20.8999 9.38159 21.3429 9.40459C21.6879 9.42259 22.2389 9.51259 22.1009 10.5576C21.9659 11.5826 18.3619 18.2556 17.9839 19.8886C17.4109 22.3666 18.9799 25.6996 23.1809 25.8536C25.2699 25.9296 30.1029 25.0076 32.8259 22.9176C33.8139 22.1586 33.5529 22.0936 34.1689 22.6456C35.0539 23.4406 36.6989 24.5596 38.3189 24.5596C41.9989 24.5596 44.6839 22.2336 44.8069 22.1496C44.826 22.1364 44.8493 22.1306 44.8723 22.1334C44.8953 22.1362 44.9165 22.1473 44.9319 22.1646C45.1549 22.4096 47.4359 23.6966 49.0329 23.7496C50.3386 23.8071 51.6402 23.565 52.8379 23.0419C54.0356 22.5188 55.0978 21.7285 55.9429 20.7316C56.4107 20.1777 56.8467 19.5978 57.2489 18.9946C57.2602 18.9772 57.2753 18.9627 57.293 18.9521C57.3108 18.9415 57.3308 18.9352 57.3515 18.9337C57.3721 18.9321 57.3928 18.9354 57.412 18.9432C57.4311 18.951 57.4482 18.9631 57.4619 18.9786C57.6899 19.2316 59.4059 22.4246 62.8139 21.9846C64.7149 21.7386 67.5429 20.1146 67.7409 19.8956C67.7511 19.8846 67.7639 19.8763 67.7782 19.8717C67.7925 19.8671 67.8077 19.8663 67.8224 19.8693C67.8371 19.8724 67.8508 19.8791 67.8621 19.889C67.8734 19.8988 67.8819 19.9114 67.8869 19.9256C67.9869 20.2036 68.4219 21.7706 70.1649 23.0166C71.5939 24.0386 74.3439 24.2436 75.5649 23.5636C76.5749 23.0006 76.9819 22.6406 77.6899 21.9236C77.9939 21.6146 78.4579 21.3016 79.2929 21.4816C80.2269 21.6816 82.6959 22.1246 82.8529 22.2006C83.0299 22.2856 83.0579 22.6126 83.0049 22.9526C82.9209 23.4896 82.7209 25.3716 82.5149 27.1276C82.3109 28.8846 81.6549 34.7456 83.2069 34.9626C84.1449 35.0946 84.9589 34.1956 85.1739 33.3176C85.7139 31.1176 85.8119 28.6396 86.1669 26.5146C86.5909 23.9856 86.7589 23.2756 86.9109 22.9946C87.0369 22.7596 87.0379 22.8146 88.7849 22.9646C89.9969 23.0696 90.9779 23.2406 92.4379 23.0346C93.6459 22.8626 96.1279 21.9356 95.9949 20.4316ZM35.5429 14.7466C35.4849 15.5746 35.2749 16.0996 34.8419 16.8616C34.5719 17.3366 34.2919 16.9816 34.1289 16.7466C33.8959 16.4086 32.7009 13.4726 33.6129 12.8666C33.8699 12.6966 34.3789 12.5976 34.7479 12.8066C35.1159 13.0166 35.3379 13.3186 35.4399 13.6566C35.5429 14.0006 35.5819 14.1926 35.5429 14.7466ZM46.8659 15.1726C46.7589 16.1266 46.3599 16.6656 46.2129 16.8656C45.9529 17.2196 45.8479 17.3586 45.5989 17.1016C45.3969 16.8936 44.6399 15.3356 44.5299 14.3086C44.4719 13.7556 44.6229 12.9666 45.0809 12.7806C45.5629 12.5856 46.0519 12.6746 46.3949 13.1286C46.9349 13.8426 46.9419 14.4956 46.8659 15.1726ZM87.9559 19.3506C87.3889 19.5866 87.1409 19.4426 87.1739 18.4926C87.1809 18.2876 88.0939 13.5206 89.8379 12.6556C90.3329 12.4106 90.8339 12.4226 91.1809 12.8136C91.8389 13.5536 91.6659 14.6946 91.1719 15.7356C90.4549 17.2456 88.7369 19.0266 87.9569 19.3506" fill="#8898AA"/>
</svg>
