<svg width="19" height="19" viewBox="0 0 19 19" fill="none" xmlns="http://www.w3.org/2000/svg">
<path d="M2.35296 2.42538C3.65246 2.42538 4.70591 1.88244 4.70591 1.21269C4.70591 0.54294 3.65246 0 2.35296 0C1.05346 0 0 0.54294 0 1.21269C0 1.88244 1.05346 2.42538 2.35296 2.42538Z" transform="translate(16.1699 8.12012) rotate(-115.384)" fill="#FE8B68"/>
<path d="M4.13728 5.23533C3.94965 6.46025 1.35872 6.46025 1.02085 5.27365C0.0930501 2.58953 0 0.546274 0 0.546274C0 0.546274 2.06089 -0.483108 2.5454 0.284241C3.26624 0.644634 4.13728 5.23533 4.13728 5.23533Z" transform="translate(3.39062 12.8408)" fill="#FE8B68"/>
<path d="M0 0L1.4293 0.0144923L6.52373 10.7513L5.63093 11.8675L0.56287 5.36605L0 0Z" transform="translate(12.4766)" fill="#FEE8A1"/>
<path d="M2.07233 1.83107L0.972298 2.3531C0.867802 2.40291 0.754752 2.41431 0.649006 2.39349C0.377161 1.81919 0.158794 1.2147 0 0.586527C0.0310167 0.561214 0.0657053 0.539574 0.103285 0.521644L1.20332 0L2.07233 1.83107Z" transform="translate(0 11.4963)" fill="#FE8B68"/>
<path d="M4.08326 0L6.55049 5.19984L3.32015 6.73251C2.57548 7.08583 1.6858 6.76872 1.33247 6.0241L0.14446 3.52034C-0.208872 2.77568 0.108209 1.88603 0.852882 1.53271L4.08326 0Z" transform="translate(0.473633 7.84131)" fill="#FEE8A1"/>
<path d="M14.4615 11.8675C10.3931 10.4174 4.70803 13.1599 4.70803 13.1599C3.01567 13.9628 1.61277 13.096 1.15893 12.1395L0.206204 10.1316C-0.247639 9.17503 -0.0317727 7.54017 1.66059 6.7372C1.66059 6.7372 7.38054 4.06839 8.83063 0L14.4615 11.8675Z" transform="translate(3.64648)" fill="#FE8B68"/>
</svg>
