<svg width="15" height="15" viewBox="0 0 15 15" fill="none" xmlns="http://www.w3.org/2000/svg">
<rect width="14.2887" height="14.25" fill="black" fill-opacity="0" transform="translate(0.101562)"/>
<rect width="11.2584" height="12.1284" fill="black" fill-opacity="0" transform="translate(2.65234 2.12158)"/>
<path d="M13.1521 3.71612C12.7331 2.83555 12.0245 2.29628 11.5694 2.51161C11.1144 2.72695 11.0851 3.61535 11.5041 4.49592C11.923 5.37649 12.6316 5.91577 13.0867 5.70043C13.5418 5.4851 13.5711 4.59669 13.1521 3.71612Z" fill="#FE8B68"/>
<path d="M5.76385 13.5574C5.62273 14.476 3.67419 14.476 3.42009 13.5861C2.72232 11.573 2.65234 10.0406 2.65234 10.0406C2.65234 10.0406 4.20226 9.26853 4.56665 9.84404C5.10877 10.1143 5.76385 13.5574 5.76385 13.5574Z" fill="#FE8B68"/>
<path d="M9.48438 0L10.5593 0.0108692L14.3907 8.06347L13.7192 8.9006L9.90769 4.02454L9.48438 0Z" fill="#FEE8A1"/>
<path d="M1.6601 9.99586L0.832797 10.3874C0.754209 10.4247 0.669187 10.4333 0.589659 10.4177C0.385213 9.98696 0.220987 9.53358 0.101562 9.06245C0.124889 9.04347 0.150977 9.02724 0.17924 9.01379L1.00654 8.62256L1.6601 9.99586Z" fill="#FE8B68"/>
<path d="M3.52886 5.88086L5.38437 9.78073L2.95496 10.9302C2.39492 11.1952 1.72583 10.9574 1.4601 10.3989L0.56665 8.52111C0.300924 7.96262 0.539387 7.29538 1.09943 7.03039L3.52886 5.88086Z" fill="#FEE8A1"/>
<path d="M13.7187 8.90059C10.659 7.81305 6.38351 9.86988 6.38351 9.86988C5.11075 10.4721 4.05568 9.82198 3.71436 9.10461L2.99785 7.59866C2.65653 6.88126 2.81888 5.65512 4.09164 5.05289C4.09164 5.05289 8.39341 3.05129 9.48396 0L13.7187 8.90059Z" fill="#FE8B68"/>
</svg>
