<svg width="15" height="15" viewBox="0 0 15 15" fill="none" xmlns="http://www.w3.org/2000/svg">
<rect width="14.2503" height="14.2498" fill="black" fill-opacity="0"/>
<rect width="11.2281" height="12.1284" fill="black" fill-opacity="0" transform="translate(2.54297 2.12109)"/>
<path d="M13.0149 3.71562C12.5971 2.83505 11.8904 2.29577 11.4366 2.51111C10.9827 2.72645 10.9535 3.61486 11.3714 4.49543C11.7892 5.376 12.4958 5.91528 12.9497 5.69994C13.4035 5.4846 13.4327 4.5962 13.0149 3.71562Z" fill="#A5A5A5"/>
<path d="M5.64594 13.5569C5.50521 14.4756 3.56201 14.4756 3.30861 13.5856C2.61276 11.5725 2.54297 10.0401 2.54297 10.0401C2.54297 10.0401 4.08864 9.26804 4.45202 9.84355C4.99265 10.1138 5.64594 13.5569 5.64594 13.5569Z" fill="#A5A5A5"/>
<path d="M9.35742 0L10.4294 0.0108692L14.2502 8.06347L13.5806 8.9006L9.77958 4.02454L9.35742 0Z" fill="#CCCCCC"/>
<path d="M1.55425 9.99586L0.729225 10.3874C0.650853 10.4247 0.566065 10.4333 0.486755 10.4177C0.282871 9.98695 0.119096 9.53358 0 9.06245C0.0232625 9.04347 0.0492791 9.02724 0.0774636 9.01379L0.902492 8.62256L1.55425 9.99586Z" fill="#A5A5A5"/>
<path d="M3.4189 5.88086L5.26932 9.78074L2.84656 10.9302C2.28806 11.1952 1.6208 10.9574 1.3558 10.3989L0.46479 8.52111C0.199791 7.96262 0.437602 7.29538 0.996108 7.03039L3.4189 5.88086Z" fill="#CCCCCC"/>
<path d="M13.5815 8.9006C10.5302 7.81306 6.26638 9.86989 6.26638 9.86989C4.99711 10.4721 3.94493 9.82199 3.60455 9.10462L2.89 7.59867C2.54962 6.88127 2.71152 5.65513 3.98079 5.0529C3.98079 5.0529 8.27077 3.05129 9.35833 0L13.5815 8.9006Z" fill="#A5A5A5"/>
</svg>
