<svg width="132" height="30" viewBox="0 0 132 30" fill="none" xmlns="http://www.w3.org/2000/svg">
<rect width="131.741" height="29.2422" fill="black" fill-opacity="0"/>
<path d="M51.3965 12.5488C51.2871 12.5488 51.1914 12.6354 51.1094 12.8086C50.763 13.4831 50.3939 14.0938 50.002 14.6406C49.6191 15.1875 49.2318 15.6523 48.8398 16.0352C48.4479 16.418 48.0605 16.7142 47.6777 16.9238C47.2949 17.1243 46.9349 17.2246 46.5977 17.2246C46.2695 17.2246 45.9642 17.1562 45.6816 17.0195C45.4082 16.8737 45.1074 16.6048 44.7793 16.2129C44.4603 15.821 44.0911 15.2786 43.6719 14.5859C43.2617 13.8932 42.7559 12.9909 42.1543 11.8789C42.054 11.6966 41.9492 11.5645 41.8398 11.4824C41.7396 11.3913 41.6484 11.3457 41.5664 11.3457C41.4479 11.3457 41.3385 11.4733 41.2383 11.7285C41.138 11.9746 41.0514 12.3255 40.9785 12.7812C40.9056 13.2279 40.8464 13.7702 40.8008 14.4082C40.7643 15.0371 40.7461 15.7344 40.7461 16.5C40.7461 16.9557 40.7689 17.4115 40.8145 17.8672C40.8691 18.3229 40.8965 18.7923 40.8965 19.2754C40.8965 19.4395 40.8509 19.5944 40.7598 19.7402C40.6686 19.877 40.5456 19.9954 40.3906 20.0957C40.2448 20.2051 40.0671 20.2917 39.8574 20.3555C39.6569 20.4193 39.4427 20.4512 39.2148 20.4512C38.7591 20.4512 38.431 20.1777 38.2305 19.6309C38.0299 19.084 37.9297 18.209 37.9297 17.0059C37.9297 15.4837 38.0117 14.1029 38.1758 12.8633C38.349 11.6146 38.5905 10.5482 38.9004 9.66406C39.2194 8.77083 39.5931 8.08268 40.0215 7.59961C40.459 7.10742 40.9466 6.86133 41.4844 6.86133C41.9583 6.86133 42.4095 7.13477 42.8379 7.68164C43.2754 8.2194 43.7448 9.0944 44.2461 10.3066C44.4466 10.7988 44.6608 11.2591 44.8887 11.6875C45.1257 12.1159 45.3581 12.4896 45.5859 12.8086C45.8229 13.1185 46.0508 13.3646 46.2695 13.5469C46.4883 13.7201 46.6842 13.8066 46.8574 13.8066C47.0306 13.8066 47.1947 13.7702 47.3496 13.6973C47.5137 13.6152 47.696 13.4466 47.8965 13.1914C48.1061 12.9271 48.3477 12.5443 48.6211 12.043C48.9036 11.5417 49.25 10.8717 49.6602 10.0332C49.8789 9.5957 50.0749 9.23112 50.248 8.93945C50.4212 8.64779 50.5944 8.41536 50.7676 8.24219C50.9408 8.0599 51.123 7.93229 51.3145 7.85938C51.5059 7.77734 51.7201 7.73633 51.957 7.73633C52.2396 7.73633 52.5176 7.88672 52.791 8.1875C53.0645 8.48828 53.3288 8.88932 53.584 9.39062C53.8483 9.89193 54.1035 10.4753 54.3496 11.1406C54.5957 11.806 54.8327 12.5033 55.0605 13.2324C55.2975 13.9616 55.5254 14.7044 55.7441 15.4609C55.972 16.2083 56.1908 16.9193 56.4004 17.5938C56.4551 17.7943 56.4915 17.9355 56.5098 18.0176C56.5371 18.0905 56.5508 18.1816 56.5508 18.291C56.5508 18.446 56.5007 18.6009 56.4004 18.7559C56.3092 18.9017 56.1862 19.0339 56.0312 19.1523C55.8763 19.2708 55.6986 19.3665 55.498 19.4395C55.3066 19.5124 55.1152 19.5488 54.9238 19.5488C54.6686 19.5488 54.4681 19.5215 54.3223 19.4668C54.1855 19.403 54.0762 19.2936 53.9941 19.1387C53.9486 19.0566 53.8711 18.8379 53.7617 18.4824C53.6523 18.127 53.5202 17.7077 53.3652 17.2246C53.2194 16.7324 53.0553 16.2129 52.873 15.666C52.6999 15.1191 52.5221 14.6178 52.3398 14.1621C52.1667 13.6973 51.998 13.3145 51.834 13.0137C51.6699 12.7038 51.5241 12.5488 51.3965 12.5488Z" fill="#8898AA"/>
<path d="M70.0509 17.0059C70.3153 16.778 70.575 16.6641 70.8302 16.6641C70.9761 16.6641 71.1082 16.7005 71.2267 16.7734C71.3452 16.8464 71.4774 16.9603 71.6232 17.1152C71.7599 17.3249 71.8556 17.498 71.9103 17.6348C71.9741 17.7624 72.006 17.89 72.006 18.0176C72.006 18.291 71.8693 18.5508 71.5959 18.7969C71.1584 19.1615 70.6844 19.4896 70.174 19.7812C69.6636 20.0638 69.1304 20.3053 68.5744 20.5059C68.0184 20.7064 67.4442 20.8568 66.8517 20.957C66.2593 21.0664 65.6714 21.1211 65.088 21.1211C64.3498 21.1211 63.6571 21.0254 63.0099 20.834C62.3628 20.6517 61.784 20.3874 61.2736 20.041C60.7723 19.6947 60.3485 19.2799 60.0021 18.7969C59.6558 18.3047 59.4097 17.7533 59.2638 17.1426C59.1818 16.8874 59.1043 16.7233 59.0314 16.6504C58.9676 16.5684 58.8582 16.5273 58.7033 16.5273C58.366 16.5273 58.1063 16.4453 57.924 16.2812C57.7417 16.1172 57.6505 15.8802 57.6505 15.5703C57.6505 15.4427 57.6597 15.3607 57.6779 15.3242L57.7052 15.0508C57.7508 14.7227 57.8374 14.4857 57.965 14.3398C58.1017 14.194 58.3114 14.1211 58.5939 14.1211H58.799C59.1818 14.1211 59.4507 13.9434 59.6056 13.5879C59.8882 12.959 60.2482 12.3848 60.6857 11.8652C61.1232 11.3457 61.6154 10.9036 62.1623 10.5391C62.7091 10.1654 63.2925 9.87826 63.9123 9.67773C64.5412 9.4681 65.1792 9.36328 65.8263 9.36328C66.5008 9.36328 67.1297 9.46354 67.713 9.66406C68.3055 9.85547 68.8205 10.1243 69.258 10.4707C69.6955 10.8171 70.0373 11.2227 70.2834 11.6875C70.5386 12.1523 70.6662 12.6536 70.6662 13.1914C70.6662 13.5651 70.5933 13.9069 70.4474 14.2168C70.3016 14.5267 70.092 14.8001 69.8185 15.0371C69.5451 15.265 69.2124 15.4518 68.8205 15.5977C68.4377 15.7435 68.0002 15.8392 67.508 15.8848L62.7638 16.3633C62.5815 16.3633 62.4311 16.4089 62.3127 16.5C62.2033 16.5911 62.1486 16.7142 62.1486 16.8691C62.1486 17.1061 62.2352 17.334 62.4084 17.5527C62.5907 17.7715 62.8276 17.9674 63.1193 18.1406C63.4201 18.3047 63.7619 18.4368 64.1447 18.5371C64.5366 18.6374 64.9377 18.6875 65.3478 18.6875C65.7397 18.6875 66.1408 18.651 66.5509 18.5781C66.9702 18.4961 67.3804 18.3822 67.7814 18.2363C68.1916 18.0905 68.588 17.9173 68.9709 17.7168C69.3537 17.5072 69.7137 17.2702 70.0509 17.0059ZM67.0021 13.4785C67.1388 13.4512 67.2573 13.3874 67.3576 13.2871C67.4578 13.1777 67.508 13.0456 67.508 12.8906C67.508 12.7539 67.4578 12.6263 67.3576 12.5078C67.2573 12.3893 67.1206 12.2845 66.9474 12.1934C66.7742 12.0931 66.5737 12.0156 66.3459 11.9609C66.118 11.9062 65.8765 11.8789 65.6213 11.8789C65.2476 11.8789 64.8647 11.9336 64.4728 12.043C64.0809 12.1523 63.7254 12.2982 63.4064 12.4805C63.0874 12.6536 62.8276 12.8496 62.6271 13.0684C62.4266 13.278 62.3263 13.4876 62.3263 13.6973C62.3263 13.9069 62.4539 14.0117 62.7091 14.0117C62.8641 14.0117 63.1147 13.9935 63.4611 13.957C63.8074 13.9206 64.1903 13.8796 64.6095 13.834C65.0288 13.7793 65.4526 13.7201 65.881 13.6562C66.3094 13.5924 66.6831 13.5332 67.0021 13.4785Z" fill="#8898AA"/>
<path d="M81.1312 9.77344C80.7939 9.77344 80.4977 9.86458 80.2425 10.0469C79.9873 10.2201 79.7685 10.4661 79.5863 10.7852C79.404 11.0951 79.2536 11.4642 79.1351 11.8926C79.0166 12.3118 78.9209 12.7721 78.848 13.2734C78.7751 13.7747 78.7249 14.2988 78.6976 14.8457C78.6702 15.3926 78.6566 15.944 78.6566 16.5C78.6566 17.2292 78.6839 17.9492 78.7386 18.6602C78.8024 19.362 78.8343 20.0137 78.8343 20.6152C78.8343 21.0072 78.6885 21.3125 78.3968 21.5312C78.1051 21.7591 77.6904 21.873 77.1527 21.873C77.0524 21.873 76.9385 21.8639 76.8109 21.8457C76.6833 21.8275 76.5602 21.791 76.4417 21.7363C76.3323 21.6816 76.2321 21.6042 76.1409 21.5039C76.0589 21.4128 76.0133 21.2852 76.0042 21.1211C75.9222 20.319 75.8037 19.4987 75.6488 18.6602C75.4938 17.8216 75.2978 16.9876 75.0609 16.1582C74.833 15.3197 74.555 14.4902 74.2269 13.6699C73.9079 12.8496 73.5387 12.0475 73.1195 11.2637C73.0465 11.127 72.9827 10.9993 72.928 10.8809C72.8825 10.7624 72.8597 10.6484 72.8597 10.5391C72.8597 10.4023 72.9189 10.2565 73.0374 10.1016C73.165 9.9375 73.32 9.78711 73.5023 9.65039C73.6937 9.51367 73.8988 9.4043 74.1175 9.32227C74.3454 9.23112 74.5641 9.18555 74.7738 9.18555C75.1201 9.18555 75.4254 9.42708 75.6898 9.91016C75.9541 10.3841 76.2002 11.1452 76.428 12.1934C76.4736 12.3757 76.5101 12.5033 76.5374 12.5762C76.5648 12.6491 76.6012 12.6855 76.6468 12.6855C76.7471 12.6855 76.8109 12.5306 76.8382 12.2207C76.9476 11.3548 77.1344 10.612 77.3988 9.99219C77.6631 9.36328 77.9912 8.84831 78.3831 8.44727C78.7842 8.03711 79.2399 7.73633 79.7503 7.54492C80.2698 7.35352 80.8395 7.25781 81.4593 7.25781C81.8148 7.25781 82.1748 7.28971 82.5394 7.35352C82.904 7.41732 83.2321 7.51302 83.5238 7.64062C83.8154 7.76823 84.0524 7.92318 84.2347 8.10547C84.417 8.28776 84.5081 8.49284 84.5081 8.7207C84.5081 8.88477 84.4717 9.08073 84.3988 9.30859C84.3349 9.52734 84.2484 9.74154 84.139 9.95117C84.0296 10.1517 83.902 10.3249 83.7562 10.4707C83.6195 10.6074 83.4782 10.6758 83.3323 10.6758C83.1683 10.6758 83.0088 10.6302 82.8538 10.5391C82.6989 10.4388 82.5303 10.334 82.348 10.2246C82.1748 10.1152 81.9879 10.015 81.7874 9.92383C81.596 9.82357 81.3773 9.77344 81.1312 9.77344Z" fill="#8898AA"/>
<path d="M89.313 8.7207C89.7869 8.7207 90.2472 8.78906 90.6938 8.92578C91.1404 9.0625 91.5324 9.24935 91.8696 9.48633C92.216 9.71419 92.494 9.97852 92.7036 10.2793C92.9132 10.571 93.018 10.8717 93.018 11.1816C93.018 11.3822 92.977 11.5781 92.895 11.7695C92.813 11.9518 92.7036 12.1159 92.5669 12.2617C92.4302 12.3984 92.2752 12.5124 92.102 12.6035C91.9289 12.6855 91.7466 12.7266 91.5552 12.7266C91.3455 12.7266 91.1541 12.6491 90.9809 12.4941C90.8078 12.3301 90.6209 12.1523 90.4204 11.9609C90.229 11.7604 90.0102 11.5827 89.7641 11.4277C89.5272 11.2637 89.2401 11.1816 88.9028 11.1816C88.5747 11.1816 88.2785 11.2591 88.0141 11.4141C87.7498 11.569 87.5265 11.7878 87.3442 12.0703C87.171 12.3438 87.0343 12.6719 86.9341 13.0547C86.8429 13.4284 86.7973 13.8385 86.7973 14.2852C86.7973 15.5612 87.0389 16.5365 87.522 17.2109C88.005 17.8763 88.6977 18.209 89.6001 18.209C90.0285 18.209 90.393 18.1406 90.6938 18.0039C91.0037 17.8672 91.2726 17.7168 91.5005 17.5527C91.7374 17.3887 91.9516 17.2383 92.143 17.1016C92.3345 16.9648 92.5304 16.8965 92.7309 16.8965C92.8403 16.8965 92.9497 16.9329 93.0591 17.0059C93.1684 17.0697 93.2641 17.1562 93.3462 17.2656C93.4373 17.3659 93.5102 17.4798 93.5649 17.6074C93.6287 17.735 93.6606 17.8626 93.6606 17.9902C93.6606 18.291 93.5102 18.6009 93.2095 18.9199C92.9178 19.2389 92.5395 19.5306 92.0747 19.7949C91.6098 20.0501 91.0903 20.2598 90.5161 20.4238C89.951 20.5879 89.3996 20.6699 88.8618 20.6699C88.1417 20.6699 87.4809 20.5286 86.8794 20.2461C86.2778 19.9727 85.7583 19.5898 85.3208 19.0977C84.8833 18.5964 84.5415 17.9993 84.2954 17.3066C84.0584 16.6139 83.9399 15.8483 83.9399 15.0098C83.9399 14.0983 84.0721 13.2598 84.3364 12.4941C84.6098 11.7285 84.9835 11.0677 85.4575 10.5117C85.9406 9.94661 86.5102 9.50911 87.1665 9.19922C87.8227 8.88021 88.5382 8.7207 89.313 8.7207Z" fill="#8898AA"/>
<path d="M97.7135 15.1602C97.7135 16.3815 97.9004 17.3249 98.2741 17.9902C98.6478 18.6556 99.1901 18.9883 99.901 18.9883C100.348 18.9883 100.758 18.8561 101.131 18.5918C101.514 18.3275 101.842 17.9583 102.116 17.4844C102.389 17.0104 102.599 16.4499 102.745 15.8027C102.9 15.1465 102.977 14.4355 102.977 13.6699C102.977 13.2051 102.959 12.804 102.923 12.4668C102.886 12.1204 102.845 11.8151 102.799 11.5508C102.763 11.2773 102.727 11.0358 102.69 10.8262C102.654 10.6165 102.635 10.416 102.635 10.2246C102.635 9.93294 102.758 9.72331 103.005 9.5957C103.251 9.45898 103.643 9.39062 104.18 9.39062C104.864 9.39062 105.393 9.54557 105.766 9.85547C106.149 10.1654 106.34 10.6165 106.34 11.209C106.34 12.8223 106.181 14.2715 105.862 15.5566C105.552 16.8418 105.101 17.9355 104.508 18.8379C103.925 19.7311 103.214 20.4193 102.376 20.9023C101.537 21.3854 100.598 21.627 99.5592 21.627C98.8209 21.627 98.1373 21.472 97.5084 21.1621C96.8886 20.8613 96.3509 20.4375 95.8952 19.8906C95.4485 19.3346 95.0976 18.6784 94.8424 17.9219C94.5872 17.1562 94.4596 16.3177 94.4596 15.4062C94.4596 15.0599 94.4687 14.6908 94.487 14.2988C94.5052 13.9069 94.5325 13.4876 94.569 13.041C94.6054 12.5853 94.651 12.0931 94.7057 11.5645C94.7695 11.0358 94.8379 10.4616 94.9108 9.8418C94.9381 9.57747 95.0612 9.36784 95.2799 9.21289C95.5078 9.04883 95.7949 8.9668 96.1413 8.9668C96.4511 8.9668 96.7428 8.9987 97.0163 9.0625C97.2897 9.1263 97.5221 9.21289 97.7135 9.32227C97.914 9.43164 98.069 9.55924 98.1784 9.70508C98.2968 9.85091 98.3561 10.0059 98.3561 10.1699C98.3561 10.334 98.3196 10.5938 98.2467 10.9492C98.1829 11.2956 98.11 11.6966 98.028 12.1523C97.9551 12.599 97.8821 13.0866 97.8092 13.6152C97.7454 14.1348 97.7135 14.6497 97.7135 15.1602Z" fill="#8898AA"/>
<path d="M116.245 9.77344C115.908 9.77344 115.611 9.86458 115.356 10.0469C115.101 10.2201 114.882 10.4661 114.7 10.7852C114.518 11.0951 114.367 11.4642 114.249 11.8926C114.13 12.3118 114.035 12.7721 113.962 13.2734C113.889 13.7747 113.839 14.2988 113.811 14.8457C113.784 15.3926 113.77 15.944 113.77 16.5C113.77 17.2292 113.798 17.9492 113.852 18.6602C113.916 19.362 113.948 20.0137 113.948 20.6152C113.948 21.0072 113.802 21.3125 113.511 21.5312C113.219 21.7591 112.804 21.873 112.266 21.873C112.166 21.873 112.052 21.8639 111.925 21.8457C111.797 21.8275 111.674 21.791 111.555 21.7363C111.446 21.6816 111.346 21.6042 111.255 21.5039C111.173 21.4128 111.127 21.2852 111.118 21.1211C111.036 20.319 110.917 19.4987 110.762 18.6602C110.608 17.8216 110.412 16.9876 110.175 16.1582C109.947 15.3197 109.669 14.4902 109.341 13.6699C109.022 12.8496 108.652 12.0475 108.233 11.2637C108.16 11.127 108.096 10.9993 108.042 10.8809C107.996 10.7624 107.973 10.6484 107.973 10.5391C107.973 10.4023 108.033 10.2565 108.151 10.1016C108.279 9.9375 108.434 9.78711 108.616 9.65039C108.807 9.51367 109.012 9.4043 109.231 9.32227C109.459 9.23112 109.678 9.18555 109.887 9.18555C110.234 9.18555 110.539 9.42708 110.804 9.91016C111.068 10.3841 111.314 11.1452 111.542 12.1934C111.587 12.3757 111.624 12.5033 111.651 12.5762C111.679 12.6491 111.715 12.6855 111.761 12.6855C111.861 12.6855 111.925 12.5306 111.952 12.2207C112.061 11.3548 112.248 10.612 112.512 9.99219C112.777 9.36328 113.105 8.84831 113.497 8.44727C113.898 8.03711 114.354 7.73633 114.864 7.54492C115.384 7.35352 115.953 7.25781 116.573 7.25781C116.929 7.25781 117.289 7.28971 117.653 7.35352C118.018 7.41732 118.346 7.51302 118.637 7.64062C118.929 7.76823 119.166 7.92318 119.348 8.10547C119.531 8.28776 119.622 8.49284 119.622 8.7207C119.622 8.88477 119.585 9.08073 119.512 9.30859C119.449 9.52734 119.362 9.74154 119.253 9.95117C119.143 10.1517 119.016 10.3249 118.87 10.4707C118.733 10.6074 118.592 10.6758 118.446 10.6758C118.282 10.6758 118.123 10.6302 117.968 10.5391C117.813 10.4388 117.644 10.334 117.462 10.2246C117.289 10.1152 117.102 10.015 116.901 9.92383C116.71 9.82357 116.491 9.77344 116.245 9.77344Z" fill="#8898AA"/>
<path d="M125.302 20.3691C124.755 20.3691 124.208 20.237 123.661 19.9727C123.114 19.6992 122.59 19.3301 122.089 18.8652C121.588 18.4004 121.123 17.8535 120.694 17.2246C120.266 16.5866 119.892 15.903 119.573 15.1738C119.254 14.4355 119.004 13.6654 118.821 12.8633C118.639 12.0612 118.548 11.2591 118.548 10.457C118.548 9.83724 118.675 9.39518 118.931 9.13086C119.186 8.85742 119.601 8.7207 120.175 8.7207C120.895 8.7207 121.296 9.01693 121.378 9.60938C121.542 10.8672 121.77 12.002 122.061 13.0137C122.353 14.0254 122.695 14.8867 123.087 15.5977C123.488 16.3086 123.93 16.8555 124.413 17.2383C124.905 17.6211 125.425 17.8125 125.972 17.8125C126.364 17.8125 126.733 17.7168 127.079 17.5254C127.425 17.3249 127.726 17.0469 127.981 16.6914C128.073 16.5547 128.132 16.4225 128.159 16.2949C128.196 16.1673 128.223 16.0215 128.241 15.8574C128.287 15.2103 128.337 14.5768 128.392 13.957C128.455 13.3281 128.515 12.6992 128.569 12.0703C128.588 11.7969 128.624 11.5736 128.679 11.4004C128.733 11.2272 128.815 11.0905 128.925 10.9902C129.034 10.89 129.175 10.8216 129.349 10.7852C129.531 10.7487 129.759 10.7305 130.032 10.7305C130.342 10.7305 130.606 10.776 130.825 10.8672C131.044 10.9492 131.222 11.0905 131.358 11.291C131.495 11.4824 131.591 11.7376 131.645 12.0566C131.709 12.3665 131.741 12.7539 131.741 13.2188C131.741 13.6198 131.709 13.9707 131.645 14.2715C131.591 14.5632 131.522 14.8411 131.44 15.1055C131.367 15.3607 131.295 15.6159 131.222 15.8711C131.158 16.1172 131.117 16.3906 131.099 16.6914C131.053 17.4479 131.012 18.1042 130.976 18.6602C130.939 19.207 130.907 19.6764 130.88 20.0684C130.862 20.4603 130.843 20.7975 130.825 21.0801C130.816 21.3626 130.807 21.6133 130.798 21.832C130.789 22.0599 130.784 22.2741 130.784 22.4746C130.784 22.6751 130.784 22.8939 130.784 23.1309C130.784 23.5592 130.802 24.0241 130.839 24.5254C130.875 25.0358 130.912 25.5234 130.948 25.9883C130.994 26.4531 131.035 26.8633 131.071 27.2188C131.108 27.5742 131.126 27.8203 131.126 27.957C131.126 28.1302 131.071 28.2943 130.962 28.4492C130.853 28.6042 130.707 28.7409 130.524 28.8594C130.342 28.9779 130.128 29.069 129.882 29.1328C129.636 29.2057 129.376 29.2422 129.103 29.2422C128.866 29.2422 128.674 29.1602 128.528 28.9961C128.392 28.8411 128.314 28.6315 128.296 28.3672C128.269 28.0208 128.246 27.597 128.228 27.0957C128.209 26.6035 128.191 26.0749 128.173 25.5098C128.155 24.9538 128.141 24.3841 128.132 23.8008C128.132 23.2266 128.127 22.6888 128.118 22.1875C128.109 21.6953 128.104 21.2624 128.104 20.8887C128.104 20.515 128.104 20.2461 128.104 20.082C128.104 19.918 128.086 19.804 128.05 19.7402C128.013 19.6673 127.945 19.6309 127.845 19.6309C127.79 19.6309 127.717 19.6491 127.626 19.6855C127.535 19.7129 127.43 19.763 127.311 19.8359C126.992 20.0273 126.669 20.1641 126.341 20.2461C126.013 20.3281 125.666 20.3691 125.302 20.3691Z" fill="#8898AA"/>
<rect width="27" height="27" fill="black" fill-opacity="0"/>
<rect width="27" height="27" fill="black" fill-opacity="0"/>
<rect width="27" height="27" fill="black" fill-opacity="0"/>
<path d="M13.5 0C6.075 0 0 6.075 0 13.5C0 20.925 6.075 27 13.5 27C20.925 27 27 20.925 27 13.5C27 6.075 20.925 0 13.5 0ZM13.5 24.57C12.015 24.57 10.53 24.3 9.18 23.76C8.37 21.735 8.37 20.25 10.665 20.925C10.665 20.925 15.93 22.95 21.465 21.06C19.575 23.22 16.74 24.57 13.5 24.57ZM23.085 19.035C21.87 19.575 20.25 20.385 17.685 20.385C15.12 20.385 12.96 19.3051 10.125 18.495C7.56 17.685 6.615 16.47 4.995 16.47C4.05 16.47 3.645 17.4151 3.375 18.0901C2.7 16.74 2.295 15.12 2.295 13.5C2.295 12.42 2.43 11.34 2.7 10.395C4.455 8.235 7.02 6.885 10.8 9.855C10.8 9.855 19.17 16.2 24.03 16.605C23.895 17.415 23.49 18.225 23.085 19.035ZM14.04 7.56C10.26 3.915 7.155 4.995 5.805 5.535C6.75 4.59 7.965 3.78 9.315 3.24C13.095 3.105 17.28 3.78 19.575 7.155C19.575 7.155 22.815 12.825 24.03 10.26C24.3 11.205 24.4349 12.285 24.4349 13.365C24.4349 13.7699 24.4349 14.175 24.4349 14.58C21.735 14.31 17.955 11.205 14.04 7.56Z" fill="#8898AA"/>
</svg>
