<svg width="24" height="41" viewBox="0 0 24 41" fill="none" xmlns="http://www.w3.org/2000/svg">
<path fill-rule="evenodd" clip-rule="evenodd" d="M17.7793 0H20.9897C22.6499 0 24 1.34717 24 3.00293V33.3525V33.5527V36.7158V37.9971C24 39.6528 22.6499 41 20.9897 41H3.01025C1.3501 41 0 39.6528 0 37.9971V36.7158V5.08496V4.94482V3.00293C0 1.34717 1.3501 0 3.01025 0H6.2207H17.7793ZM2.2041 4.94482V5.08496V35.1152H3.41113H4.30762H21.7959V33.5527V33.3525V4.00293C21.7959 3.00952 20.9858 2.20117 19.9897 2.20117H19.6221L19.5 3.5C19 5 18.6235 5.24414 16.6553 5.24414H7.34424C6 5.24414 5 5 4.5 3.5L4.20996 2.20117H4C3.00391 2.20117 2.2041 3.00952 2.2041 4.00293V4.94482ZM4.30762 37.3164H3.33105H2.23242C2.38379 38.158 3.12354 38.7988 4.01025 38.7988H20.9897C21.8428 38.7988 21.8262 38.2061 21.8037 37.4119C21.7998 37.2788 21.7959 37.1399 21.7959 36.9971V37.3164H4.30762ZM16.478 3.04297C16.7661 3.04297 17 2.80957 17 2.52246V1.20117H6.97803V2.52246C6.97803 2.80957 7.2124 3.04297 7.5 3.04297H16.478Z" fill="#27AE60"/>
</svg>
