<svg width="39" height="39" viewBox="0 0 39 39" fill="none" xmlns="http://www.w3.org/2000/svg">
<path d="M38.421 9.72163L38.4222 9.71931L38.4437 9.69494C38.5233 9.6047 38.5872 9.48929 38.6428 9.35286L38.6439 9.35013C38.6571 9.31881 38.6661 9.28872 38.6808 9.23935L38.6811 9.23849L38.6814 9.2374C38.7111 9.13973 38.7295 9.03859 38.7356 8.93239L38.7359 8.92719L38.736 8.92719C38.7385 8.89498 38.7407 8.87551 38.7423 8.86128C38.7444 8.84268 38.7455 8.83303 38.745 8.81556L38.7449 8.80914H38.745C38.745 8.79275 38.746 8.77853 38.747 8.76778C38.7478 8.75943 38.7488 8.7509 38.7494 8.74631L38.7496 8.74428C38.7496 8.74416 38.7496 8.74405 38.7497 8.74393C38.7421 8.62942 38.7191 8.51775 38.6839 8.41161L38.6808 8.40588C38.6761 8.39681 38.6696 8.38331 38.6636 8.36652M38.421 9.72163L29.0735 12.6693L34.3 9.56583L34.8966 9.21158L34.2111 9.1039C29.5092 8.36527 24.5334 9.40498 24.3018 9.45548C10.49 11.962 0.686609 24.4665 2.44764 37.3743C2.5397 38.0558 2.13346 38.6415 1.61412 38.7372C1.56194 38.7458 1.51167 38.75 1.46198 38.75C1.00703 38.75 0.562772 38.3631 0.479341 37.7523C-1.45523 23.5708 9.06992 9.81525 23.969 7.11488L23.969 7.11508L23.9787 7.11291C24.2009 7.06341 29.0306 6.03003 33.9347 6.6798L34.5782 6.76505L34.1582 6.2702L30.7712 2.27941L30.5806 2.44117L30.7712 2.2794C30.3694 1.80595 30.3778 1.03661 30.787 0.575635C31.1791 0.134656 31.7901 0.142392 32.173 0.593799L32.1731 0.593858L38.4405 7.97652C38.4425 7.98078 38.4449 7.98568 38.4475 7.99063C38.4542 8.00359 38.4647 8.02205 38.4801 8.04187L38.6775 7.88837L38.4792 8.04065C38.5575 8.14259 38.6203 8.24947 38.6636 8.36652M38.421 9.72163C38.3537 9.7934 38.2793 9.85456 38.1984 9.90373C38.1981 9.90393 38.1978 9.90413 38.1974 9.90432L29.9618 14.7945C29.9616 14.7946 29.9615 14.7947 29.9613 14.7948C29.4932 15.0688 28.8995 14.8778 28.6372 14.2887L28.637 14.2884C28.367 13.684 28.5838 12.9608 29.0733 12.6694L38.421 9.72163ZM38.6636 8.36652C38.6633 8.36554 38.6629 8.36455 38.6626 8.36355L38.8987 8.28142L38.6641 8.3678C38.6639 8.36737 38.6638 8.36695 38.6636 8.36652ZM38.4564 7.99532L38.647 7.83353L38.4532 7.99144L38.4564 7.99532Z" transform="translate(0 39) scale(1 -1)" fill="#5C68C9" stroke="#F6F9FD" stroke-width="0.5"/>
</svg>
