<svg width="159" height="49" viewBox="0 0 159 49" fill="none" xmlns="http://www.w3.org/2000/svg">
<g opacity="0.7">
<path d="M17.3765 15.736L27.376 0H3.3233L0 5.24418L17.3765 15.736Z" transform="translate(20.624 4.73438)" fill="url(#paint0_linear)"/>
<path opacity="0.15" d="M0 2.69175L1.70184 0L17.3765 13.1836L0 2.69175Z" transform="translate(20.626 7.28662)" fill="black"/>
<path d="M16.1001 26.8469V3.19028L10.9112 0L0 16.9524L16.1001 26.8469Z" transform="translate(27.1899 22.1533)" fill="url(#paint1_linear)"/>
<path opacity="0.15" d="M0 16.9514L2.69541 18.6066L10.9112 0L0 16.9514Z" transform="translate(27.1899 22.1533)" fill="black"/>
<path d="M0 0V23.6571L5.56512 26.8469L33.4465 20.4673L0 0Z" transform="translate(4.55078)" fill="url(#paint2_linear)"/>
<path d="M9.99904 6.49766L0 21.9673H24.0512L38.1034 0L9.99904 6.49766Z" transform="translate(0 22.1533)" fill="url(#paint3_linear)"/>
<path d="M0.00186921 19.3632H2.60381L3.90479 3.44458H1.24022V0.372645H8.39557L13.2892 12.8167C13.6602 13.9028 13.8154 14.6472 13.8154 14.6472H13.877C13.877 14.6472 14.0322 13.9028 14.435 12.8167L19.2978 0.372645H26.4522V3.44458H23.8203L25.0895 19.3632H27.6915V22.4043H18.6772V19.3632H21.124L20.3193 8.25612C20.2576 7.47901 20.4127 6.20754 20.4127 6.20754H20.3193C20.3193 6.20754 20.0707 7.41628 19.7931 8.16249L15.5799 18.308H12.1106L7.89836 8.16249C7.61891 7.41628 7.40302 6.20754 7.40302 6.20754H7.27872C7.27872 6.20754 7.43386 7.47713 7.37218 8.25612L6.56748 19.3632H9.04512V22.4043H0V19.3632H0.00186921ZM40.6143 0C47.1182 0 52.0118 4.9342 52.0118 11.2344C52.0118 17.72 47.1182 22.7769 40.6143 22.7769C34.1085 22.7769 29.2149 17.72 29.2149 11.2344C29.2149 4.93327 34.1085 0 40.6143 0ZM40.6143 19.2078C44.5789 19.2078 47.8322 15.7642 47.8322 11.2335C47.8322 6.88822 44.5798 3.56724 40.6143 3.56724C36.6487 3.56724 33.3963 6.88915 33.3963 11.2335C33.3963 15.7651 36.6497 19.2078 40.6143 19.2078ZM54.0296 19.3632H56.6605V3.44458H54.0296V0.372645H63.5383C65.3066 0.372645 66.6991 0.466276 68.1235 0.898837C72.3974 2.17124 75.248 5.95755 75.248 11.387C75.248 16.6003 72.6143 20.3547 68.4338 21.7517C66.9449 22.2779 65.3982 22.4014 63.5691 22.4014H54.0296V19.3632ZM63.3841 19.1469C64.7766 19.1469 65.8926 19.0224 66.9767 18.5861C69.4861 17.5618 71.0656 14.987 71.0656 11.388C71.0656 7.66346 69.3936 5.12052 66.8216 4.12713C65.7075 3.69269 64.6841 3.63183 63.3841 3.63183H60.7186V19.1469H63.3841ZM77.5798 19.3632H79.5322L85.0763 11.2335L79.6855 3.44458H77.7331V0.372645H86.0361V3.44458H83.8678L86.9035 8.00707C87.3081 8.50143 87.524 8.93774 87.524 8.93774H87.5848C87.5848 8.9677 87.7997 8.53233 88.1736 8.00707L91.1148 3.44458H89.0082V0.372645H97V3.44458H95.0794L89.5045 11.5425L94.9859 19.3632H96.9374V22.4043H88.6044V19.3632H90.7727L87.7063 14.7399C87.3044 14.2137 87.0876 13.7792 87.0876 13.7792H87.0259C86.9642 13.7792 86.7773 14.2146 86.438 14.7399L83.4959 19.3632H85.6314V22.4043H77.5807L77.5798 19.3632Z" transform="translate(62 12)" fill="black"/>
</g>
<defs>
<linearGradient id="paint0_linear" x2="1" gradientUnits="userSpaceOnUse" gradientTransform="translate(13.3599 13.9047) scale(26.7089 15.3525) rotate(-131.906)">
<stop stop-color="#80C3E6"/>
<stop offset="1" stop-color="#3380C2"/>
</linearGradient>
<linearGradient id="paint1_linear" x2="1" gradientUnits="userSpaceOnUse" gradientTransform="translate(17.2659 28.8627) scale(14.3108 23.8632) rotate(-158.717)">
<stop stop-color="#F38649"/>
<stop offset="0.1849" stop-color="#F28147"/>
<stop offset="0.4091" stop-color="#EF7242"/>
<stop offset="0.6537" stop-color="#EA5A3A"/>
<stop offset="0.911" stop-color="#E4382E"/>
<stop offset="1" stop-color="#E12A29"/>
</linearGradient>
<linearGradient id="paint2_linear" x2="1" gradientUnits="userSpaceOnUse" gradientTransform="translate(-11.2039 11.1562) scale(32.1319 25.7917) rotate(-37.442)">
<stop stop-color="#42AB4A"/>
<stop offset="1" stop-color="#ADD155"/>
</linearGradient>
<linearGradient id="paint3_linear" x2="1" gradientUnits="userSpaceOnUse" gradientTransform="translate(-19.6253 21.327) scale(60.2961 34.7618) rotate(-69.8847)">
<stop stop-color="#42AB4A"/>
<stop offset="1" stop-color="#ADD155"/>
</linearGradient>
</defs>
</svg>
