<svg width="65" height="24" viewBox="0 0 65 24" fill="none" xmlns="http://www.w3.org/2000/svg">
<path d="M0 4.96958C0 2.22496 1.4932 0 3.33514 0H61.6649C63.5068 0 65 2.22496 65 4.96958V19.0304C65 21.775 63.5068 24 61.6649 24H3.33515C1.4932 24 0 21.775 0 19.0304V4.96958Z" fill="#41D18F"/>
<path d="M4.04843 3.84654L0.880691 6.85633C0.679185 7.04789 0.352477 7.04789 0.151069 6.85633C-0.0503562 6.66494 -0.0503562 6.35453 0.151069 6.16316L2.95402 3.49995L0.15115 0.836834C-0.0502747 0.645368 -0.0502747 0.334987 0.15115 0.143599C0.352575 -0.0478663 0.679266 -0.0478663 0.880772 0.143599L4.04851 3.15344C4.14922 3.24918 4.19952 3.37453 4.19952 3.49993C4.19952 3.6254 4.14912 3.75084 4.04843 3.84654Z" transform="translate(46 16) scale(1 -1)" fill="white"/>
<path d="M4.04843 3.84654L0.880691 6.85633C0.679185 7.04789 0.352477 7.04789 0.151069 6.85633C-0.0503562 6.66494 -0.0503562 6.35453 0.151069 6.16316L2.95402 3.49995L0.15115 0.836834C-0.0502747 0.645368 -0.0502747 0.334987 0.15115 0.143599C0.352575 -0.0478663 0.679266 -0.0478663 0.880772 0.143599L4.04851 3.15344C4.14922 3.24918 4.19952 3.37453 4.19952 3.49993C4.19952 3.6254 4.14912 3.75084 4.04843 3.84654Z" transform="translate(49.8008 16) scale(1 -1)" fill="white"/>
<path d="M0.874604 0C0.949039 0 1.01107 0.00410386 1.06069 0.0123117C1.11031 0.0164158 1.15373 0.0287278 1.19095 0.0492476C1.2323 0.0656638 1.27159 0.0923396 1.30881 0.129275C1.34602 0.162107 1.38737 0.207251 1.43286 0.264706L6.14084 6.21751C6.1243 6.07387 6.11189 5.93434 6.10362 5.79891C6.09949 5.65937 6.09742 5.5301 6.09742 5.41108V0H7.5675V8.9015H6.7053C6.57297 8.9015 6.46339 8.88099 6.37655 8.83995C6.28971 8.79891 6.20494 8.72503 6.12223 8.61833L1.43286 2.69015C1.44527 2.82148 1.45354 2.9528 1.45767 3.08413C1.46594 3.21135 1.47008 3.32832 1.47008 3.43502V8.9015H0V0H0.874604Z" transform="translate(11 7)" fill="white"/>
<path d="M11.9202 2.487C12.3213 2.487 12.6893 2.55062 13.0243 2.67784C13.3634 2.80506 13.6549 2.99179 13.8989 3.23803C14.1429 3.48016 14.3331 3.77975 14.4695 4.1368C14.606 4.48974 14.6742 4.89398 14.6742 5.34952C14.6742 5.46443 14.668 5.56088 14.6556 5.63885C14.6474 5.71272 14.6288 5.77223 14.5998 5.81737C14.575 5.85841 14.5398 5.88919 14.4944 5.90971C14.4489 5.92613 14.391 5.93434 14.3207 5.93434H10.3881C10.4335 6.58276 10.6093 7.05882 10.9153 7.36252C11.2213 7.66621 11.6266 7.81806 12.1311 7.81806C12.3792 7.81806 12.5921 7.78933 12.77 7.73188C12.9519 7.67442 13.1091 7.61081 13.2414 7.54104C13.3778 7.47127 13.4957 7.40766 13.5949 7.3502C13.6983 7.29275 13.7976 7.26402 13.8927 7.26402C13.9547 7.26402 14.0085 7.27633 14.054 7.30096C14.0994 7.32558 14.1387 7.36047 14.1718 7.40561L14.6184 7.95964C14.4489 8.15664 14.2586 8.32284 14.0478 8.45828C13.8369 8.5896 13.6156 8.69631 13.384 8.77839C13.1566 8.85636 12.923 8.91176 12.6831 8.9446C12.4474 8.97743 12.2179 8.99384 11.9946 8.99384C11.5521 8.99384 11.1407 8.92203 10.7602 8.77839C10.3798 8.63064 10.049 8.41518 9.76777 8.13201C9.48658 7.84473 9.26534 7.49179 9.10406 7.07319C8.94279 6.65048 8.86215 6.16211 8.86215 5.60807C8.86215 5.17716 8.93245 4.77291 9.07305 4.39535C9.21365 4.01368 9.41421 3.68331 9.67473 3.40424C9.93938 3.12107 10.2599 2.8974 10.6362 2.73324C11.0166 2.56908 11.4446 2.487 11.9202 2.487ZM11.9512 3.57661C11.5046 3.57661 11.1551 3.70178 10.9029 3.95212C10.6506 4.20246 10.4894 4.55746 10.4191 5.0171H13.2972C13.2972 4.82011 13.2703 4.63543 13.2166 4.46306C13.1628 4.28659 13.0801 4.1327 12.9685 4.00137C12.8568 3.87004 12.7162 3.76744 12.5467 3.69357C12.3771 3.6156 12.1786 3.57661 11.9512 3.57661Z" transform="translate(11 7)" fill="white"/>
<path d="M17.0488 5.64501L14.9584 2.5855H16.4347C16.5463 2.5855 16.629 2.60192 16.6828 2.63475C16.7366 2.66348 16.7841 2.71272 16.8255 2.78249L18.1591 4.89398C18.1798 4.82421 18.2046 4.75445 18.2335 4.68468C18.2666 4.61491 18.3059 4.54514 18.3514 4.47538L19.4245 2.81327C19.4741 2.73529 19.5258 2.67784 19.5795 2.6409C19.6333 2.60397 19.6995 2.5855 19.778 2.5855H21.1861L19.0895 5.57729L21.2729 8.9015H19.7966C19.685 8.9015 19.594 8.87278 19.5237 8.81532C19.4576 8.75787 19.4017 8.6922 19.3562 8.61833L18.004 6.42066C17.9668 6.5684 17.9151 6.69152 17.8489 6.79001L16.658 8.61833C16.6125 8.6881 16.5567 8.75376 16.4905 8.81532C16.4244 8.87278 16.3417 8.9015 16.2424 8.9015H14.8716L17.0488 5.64501Z" transform="translate(11 7)" fill="white"/>
<path d="M24.3314 9C23.7814 9 23.3576 8.8461 23.0598 8.5383C22.7621 8.2264 22.6132 7.79754 22.6132 7.25171V3.72435H21.9681C21.8854 3.72435 21.8131 3.69767 21.751 3.64432C21.6931 3.59097 21.6642 3.51094 21.6642 3.40424V2.80096L22.6877 2.63475L23.0102 0.911081C23.0268 0.829001 23.064 0.76539 23.1219 0.720246C23.1839 0.675103 23.2604 0.652531 23.3514 0.652531H24.1453V2.6409H25.8201V3.72435H24.1453V7.14706C24.1453 7.34405 24.195 7.49795 24.2942 7.60876C24.3935 7.71956 24.5258 7.77497 24.6912 7.77497C24.7863 7.77497 24.8649 7.76471 24.9269 7.74419C24.9931 7.71956 25.0489 7.69494 25.0944 7.67032C25.144 7.64569 25.1874 7.62312 25.2246 7.6026C25.2619 7.57798 25.2991 7.56566 25.3363 7.56566C25.3818 7.56566 25.419 7.57798 25.4479 7.6026C25.4769 7.62312 25.5079 7.65595 25.541 7.70109L26 8.43981C25.7767 8.62449 25.5203 8.76402 25.2308 8.85841C24.9414 8.9528 24.6416 9 24.3314 9Z" transform="translate(11 7)" fill="white"/>
</svg>
