<svg width="118" height="20" viewBox="0 0 118 20" fill="none" xmlns="http://www.w3.org/2000/svg">
<path d="M11.552 19L4.71195 7.88796H4.63995L4.73595 19H0.751953V2.00796H5.43195L12.248 13.096H12.32L12.224 2.00796H16.208V19H11.552Z" fill="#8898AA"/>
<path d="M32.1689 12.976C32.1689 13.952 31.9929 14.84 31.6409 15.64C31.2889 16.424 30.8089 17.096 30.2009 17.656C29.5929 18.2 28.8889 18.624 28.0889 18.928C27.2889 19.232 26.4329 19.384 25.5209 19.384C24.6249 19.384 23.7689 19.232 22.9529 18.928C22.1529 18.624 21.4489 18.2 20.8409 17.656C20.2489 17.096 19.7769 16.424 19.4249 15.64C19.0729 14.84 18.8969 13.952 18.8969 12.976C18.8969 12 19.0729 11.12 19.4249 10.336C19.7769 9.55196 20.2489 8.88796 20.8409 8.34396C21.4489 7.79996 22.1529 7.38396 22.9529 7.09596C23.7689 6.80796 24.6249 6.66396 25.5209 6.66396C26.4329 6.66396 27.2889 6.80796 28.0889 7.09596C28.8889 7.38396 29.5929 7.79996 30.2009 8.34396C30.8089 8.88796 31.2889 9.55196 31.6409 10.336C31.9929 11.12 32.1689 12 32.1689 12.976ZM28.3769 12.976C28.3769 12.592 28.3129 12.216 28.1849 11.848C28.0569 11.48 27.8729 11.16 27.6329 10.888C27.3929 10.6 27.0969 10.368 26.7449 10.192C26.3929 10.016 25.9849 9.92796 25.5209 9.92796C25.0569 9.92796 24.6489 10.016 24.2969 10.192C23.9449 10.368 23.6489 10.6 23.4089 10.888C23.1849 11.16 23.0089 11.48 22.8809 11.848C22.7689 12.216 22.7129 12.592 22.7129 12.976C22.7129 13.36 22.7689 13.736 22.8809 14.104C23.0089 14.472 23.1929 14.808 23.4329 15.112C23.6729 15.4 23.9689 15.632 24.3209 15.808C24.6729 15.984 25.0809 16.072 25.5449 16.072C26.0089 16.072 26.4169 15.984 26.7689 15.808C27.1209 15.632 27.4169 15.4 27.6569 15.112C27.8969 14.808 28.0729 14.472 28.1849 14.104C28.3129 13.736 28.3769 13.36 28.3769 12.976Z" fill="#8898AA"/>
<path d="M47.981 12.976C47.981 13.808 47.853 14.608 47.597 15.376C47.341 16.144 46.965 16.824 46.469 17.416C45.989 17.992 45.397 18.456 44.693 18.808C43.989 19.16 43.189 19.336 42.293 19.336C41.493 19.336 40.733 19.176 40.013 18.856C39.309 18.52 38.765 18.048 38.381 17.44H38.333V19H34.709V0.855957H38.645V8.31996H38.693C39.029 7.91996 39.501 7.55196 40.109 7.21596C40.717 6.87996 41.461 6.71196 42.341 6.71196C43.205 6.71196 43.981 6.87996 44.669 7.21596C45.373 7.55196 45.965 8.00796 46.445 8.58396C46.941 9.15996 47.317 9.83196 47.573 10.6C47.845 11.352 47.981 12.144 47.981 12.976ZM44.189 12.976C44.189 12.592 44.125 12.216 43.997 11.848C43.885 11.48 43.709 11.16 43.469 10.888C43.229 10.6 42.933 10.368 42.581 10.192C42.229 10.016 41.821 9.92796 41.357 9.92796C40.909 9.92796 40.509 10.016 40.157 10.192C39.805 10.368 39.501 10.6 39.245 10.888C39.005 11.176 38.813 11.504 38.669 11.872C38.541 12.24 38.477 12.616 38.477 13C38.477 13.384 38.541 13.76 38.669 14.128C38.813 14.496 39.005 14.824 39.245 15.112C39.501 15.4 39.805 15.632 40.157 15.808C40.509 15.984 40.909 16.072 41.357 16.072C41.821 16.072 42.229 15.984 42.581 15.808C42.933 15.632 43.229 15.4 43.469 15.112C43.709 14.824 43.885 14.496 43.997 14.128C44.125 13.744 44.189 13.36 44.189 12.976Z" fill="#8898AA"/>
<path d="M58.7133 11.656C58.7133 11.032 58.5133 10.496 58.1133 10.048C57.7293 9.59996 57.1453 9.37596 56.3613 9.37596C55.9773 9.37596 55.6253 9.43996 55.3053 9.56796C54.9853 9.67996 54.7053 9.83996 54.4653 10.048C54.2253 10.256 54.0333 10.504 53.8893 10.792C53.7453 11.064 53.6653 11.352 53.6493 11.656H58.7133ZM62.3373 13.168C62.3373 13.328 62.3373 13.488 62.3373 13.648C62.3373 13.808 62.3293 13.96 62.3133 14.104H53.6493C53.6813 14.44 53.7773 14.744 53.9373 15.016C54.1133 15.288 54.3293 15.528 54.5853 15.736C54.8573 15.928 55.1533 16.08 55.4733 16.192C55.8093 16.304 56.1533 16.36 56.5053 16.36C57.1293 16.36 57.6573 16.248 58.0893 16.024C58.5213 15.784 58.8733 15.48 59.1453 15.112L61.8813 16.84C61.3213 17.656 60.5773 18.288 59.6493 18.736C58.7373 19.168 57.6733 19.384 56.4573 19.384C55.5613 19.384 54.7133 19.248 53.9133 18.976C53.1133 18.688 52.4093 18.28 51.8013 17.752C51.2093 17.208 50.7373 16.544 50.3853 15.76C50.0493 14.976 49.8813 14.08 49.8813 13.072C49.8813 12.096 50.0493 11.216 50.3853 10.432C50.7213 9.63196 51.1773 8.95996 51.7533 8.41596C52.3293 7.85596 53.0093 7.42396 53.7933 7.11996C54.5773 6.81596 55.4253 6.66396 56.3373 6.66396C57.2173 6.66396 58.0253 6.81596 58.7613 7.11996C59.4973 7.40796 60.1293 7.83196 60.6573 8.39196C61.1853 8.95196 61.5933 9.63196 61.8813 10.432C62.1853 11.232 62.3373 12.144 62.3373 13.168Z" fill="#8898AA"/>
<path d="M64.8261 19V0.855957H68.8101V19H64.8261Z" fill="#8898AA"/>
<path d="M78.1426 19V2.00796H82.2706V15.424H88.8466V19H78.1426Z" fill="#8898AA"/>
<path d="M90.7754 19V2.00796H94.9034V15.424H101.479V19H90.7754Z" fill="#8898AA"/>
<path d="M117.634 16.648C116.882 17.512 115.954 18.2 114.85 18.712C113.746 19.208 112.474 19.456 111.034 19.456C109.722 19.456 108.506 19.24 107.386 18.808C106.282 18.376 105.322 17.768 104.506 16.984C103.69 16.184 103.05 15.232 102.586 14.128C102.122 13.024 101.89 11.808 101.89 10.48C101.89 9.11996 102.122 7.88796 102.586 6.78396C103.066 5.67996 103.722 4.74396 104.554 3.97596C105.386 3.19196 106.362 2.59196 107.482 2.17596C108.602 1.75996 109.81 1.55196 111.106 1.55196C112.306 1.55196 113.482 1.76796 114.634 2.19996C115.802 2.61596 116.746 3.23196 117.466 4.04796L114.682 6.83196C114.298 6.30396 113.794 5.91196 113.17 5.65596C112.546 5.39996 111.906 5.27196 111.25 5.27196C110.53 5.27196 109.866 5.40796 109.258 5.67996C108.666 5.93596 108.154 6.29596 107.722 6.75996C107.29 7.22396 106.954 7.77596 106.714 8.41596C106.474 9.03996 106.354 9.72796 106.354 10.48C106.354 11.248 106.474 11.952 106.714 12.592C106.954 13.232 107.282 13.784 107.698 14.248C108.13 14.696 108.642 15.048 109.234 15.304C109.826 15.56 110.474 15.688 111.178 15.688C111.994 15.688 112.706 15.528 113.314 15.208C113.922 14.888 114.41 14.472 114.778 13.96L117.634 16.648Z" fill="#8898AA"/>
</svg>
