<svg width="38" height="38" viewBox="0 0 38 38" fill="none" xmlns="http://www.w3.org/2000/svg">
<path d="M37.5225 5.40252C36.3671 2.17154 33.3091 0.0110533 29.8759 0C26.4263 0.00397601 23.353 2.17838 22.2031 5.42861H6.78995C3.0418 5.43306 0.00445592 8.4685 0 12.2143V31.2143C0.00445592 34.9601 3.0418 37.9955 6.78995 38H25.8019C29.55 37.9955 32.5874 34.9601 32.5918 31.2143V15.8108C36.8294 14.2973 39.0369 9.63737 37.5225 5.40252ZM29.8759 31.2143C29.8759 33.4629 28.0519 35.2857 25.8019 35.2857H6.78995C4.53995 35.2857 2.71596 33.4629 2.71596 31.2143V12.2143C2.71596 9.96571 4.53995 8.14287 6.78995 8.14287H21.7279C21.7323 12.6382 25.3777 16.2813 29.8759 16.2857V31.2143H29.8759ZM29.8759 13.5715C26.8759 13.5715 24.4439 11.141 24.4439 8.14287C24.4439 5.14472 26.8759 2.71426 29.8759 2.71426C32.876 2.71426 35.3079 5.14472 35.3079 8.14287C35.3079 11.141 32.8759 13.5715 29.8759 13.5715Z" fill="url(#paint0_linear)" fill-opacity="0.6"/>
<defs>
<linearGradient id="paint0_linear" x2="1" gradientUnits="userSpaceOnUse" gradientTransform="translate(38) scale(38) rotate(90)">
<stop stop-color="#EC1C1D"/>
<stop offset="1" stop-color="#EC5A1C"/>
</linearGradient>
</defs>
</svg>
