<svg width="349" height="42" viewBox="0 0 349 42" fill="none" xmlns="http://www.w3.org/2000/svg">
<rect width="348.75" height="41.85" fill="black" fill-opacity="0" transform="translate(0.0253906 0.0751953)"/>
<path d="M0.0253906 10.164C0.0253906 4.59209 4.54302 0.0751953 10.1158 0.0751953H338.685C344.258 0.0751953 348.775 4.59209 348.775 10.164V31.8364C348.775 37.4083 344.258 41.9252 338.685 41.9252H10.1158C4.54302 41.9252 0.0253906 37.4083 0.0253906 31.8364V10.164Z" fill="#F6F9FD"/>
<path fill-rule="evenodd" clip-rule="evenodd" d="M338.685 1.08407H10.1158C5.1003 1.08407 1.03443 5.14927 1.03443 10.164V31.8364C1.03443 36.8511 5.1003 40.9163 10.1158 40.9163H338.685C343.7 40.9163 347.766 36.8511 347.766 31.8364V10.164C347.766 5.14927 343.7 1.08407 338.685 1.08407ZM10.1158 0.0751953C4.54302 0.0751953 0.0253906 4.59209 0.0253906 10.164V31.8364C0.0253906 37.4083 4.54302 41.9252 10.1158 41.9252H338.685C344.258 41.9252 348.775 37.4083 348.775 31.8364V10.164C348.775 4.59209 344.258 0.0751953 338.685 0.0751953H10.1158Z" fill="#D8E9FB"/>
<rect width="292.174" height="25.575" fill="black" fill-opacity="0" transform="translate(26.7627 7.82495)"/>
<path d="M72.875 13.6373C72.875 11.2831 74.7837 9.37476 77.1382 9.37476H174.012C176.366 9.37476 178.275 11.2831 178.275 13.6373C178.275 15.9914 176.366 17.8998 174.012 17.8998H77.1382C74.7837 17.8998 72.875 15.9914 72.875 13.6373Z" fill="#D8E9FB"/>
<path d="M280.187 13.6373C280.187 11.2831 282.095 9.37476 284.45 9.37476H292.906C295.261 9.37476 297.17 11.2831 297.17 13.6373C297.17 15.9914 295.261 17.8998 292.906 17.8998H284.45C282.095 17.8998 280.187 15.9914 280.187 13.6373Z" fill="#D8E9FB"/>
<path d="M301.954 13.6373C301.954 11.2831 303.863 9.37476 306.217 9.37476H314.674C317.028 9.37476 318.937 11.2831 318.937 13.6373C318.937 15.9914 317.028 17.8998 314.674 17.8998H306.217C303.863 17.8998 301.954 15.9914 301.954 13.6373Z" fill="#D8E9FB"/>
<path d="M280.187 29.1375C280.187 26.7834 282.095 24.875 284.45 24.875H292.906C295.261 24.875 297.17 26.7834 297.17 29.1375C297.17 31.4916 295.261 33.4 292.906 33.4H284.45C282.095 33.4 280.187 31.4916 280.187 29.1375Z" fill="#D8E9FB"/>
<path d="M301.954 29.1375C301.954 26.7834 303.863 24.875 306.217 24.875H314.674C317.028 24.875 318.937 26.7834 318.937 29.1375C318.937 31.4916 317.028 33.4 314.674 33.4H306.217C303.863 33.4 301.954 31.4916 301.954 29.1375Z" fill="#D8E9FB"/>
<path d="M72.875 29.9124C72.875 28.6283 73.9161 27.5874 75.2004 27.5874H129.062C130.346 27.5874 131.388 28.6283 131.388 29.9124C131.388 31.1965 130.346 32.2374 129.062 32.2374H75.2004C73.9161 32.2374 72.875 31.1965 72.875 29.9124Z" fill="#D8E9FB"/>
<path d="M143.787 29.9124C143.787 28.6283 144.828 27.5874 146.112 27.5874H205.012C206.296 27.5874 207.337 28.6283 207.337 29.9124C207.337 31.1965 206.296 32.2374 205.012 32.2374H146.112C144.828 32.2374 143.787 31.1965 143.787 29.9124Z" fill="#D8E9FB"/>
<path d="M26.7627 13.6375C26.7627 10.4273 29.3655 7.82495 32.5762 7.82495H49.6242C52.8349 7.82495 55.4377 10.4273 55.4377 13.6375C55.4377 16.8476 52.8349 19.45 49.6242 19.45H32.5762C29.3655 19.45 26.7627 16.8476 26.7627 13.6375Z" fill="#4E9EF4" fill-opacity="0.3"/>
<path d="M53.4996 13.6373C53.4996 15.9914 51.5912 17.8998 49.2371 17.8998C46.883 17.8998 44.9746 15.9914 44.9746 13.6373C44.9746 11.2831 46.883 9.37476 49.2371 9.37476C51.5912 9.37476 53.4996 11.2831 53.4996 13.6373Z" fill="white" fill-opacity="0.8"/>
</svg>
