<svg width="147" height="147" viewBox="0 0 147 147" fill="none" xmlns="http://www.w3.org/2000/svg">
<path d="M146.869 73.5C146.869 113.856 114.166 146.571 73.825 146.571C33.4841 146.571 0.78125 113.856 0.78125 73.5C0.78125 33.1438 33.4841 0.428589 73.825 0.428589C114.166 0.428589 146.869 33.1438 146.869 73.5Z" fill="#6FBFF6" fill-opacity="0.3"/>
<path d="M73.9247 120.702C99.9763 120.702 121.095 99.5687 121.095 73.5C121.095 47.4314 99.9763 26.2985 73.9247 26.2985C47.873 26.2985 26.7539 47.4314 26.7539 73.5C26.7539 99.5687 47.873 120.702 73.9247 120.702Z" fill="#FFCB6F"/>
<path d="M27.5407 63.356C23.1948 59.0072 23.1948 51.9568 27.5407 47.6082L35.4096 39.7342L43.2785 47.6082C47.6243 51.9568 47.6243 59.0074 43.2785 63.356C38.9325 67.7049 31.8865 67.7049 27.5407 63.356Z" fill="#2BA5F7"/>
<path d="M33.1353 63.356C28.7895 59.0074 28.7895 51.9568 33.1353 47.6082L38.207 42.5332L35.4095 39.7344L27.5406 47.6084C23.1948 51.9572 23.1948 59.0076 27.5406 63.3562C30.4312 66.2487 34.5159 67.2146 38.2068 66.2593C36.3489 65.7781 34.5904 64.8122 33.1353 63.356Z" fill="#2197D8"/>
<path d="M88.4694 81.8433C87.5455 82.1241 87.0238 83.1014 87.3044 84.0257C87.585 84.9503 88.5626 85.472 89.4854 85.1914C94.0136 83.8149 98.8083 84.894 102.312 88.0778C102.647 88.3823 103.067 88.5323 103.487 88.5323C103.962 88.5323 104.436 88.3391 104.781 87.959C105.431 87.2438 105.377 86.1373 104.662 85.4875C100.24 81.4677 94.1859 80.106 88.4694 81.8433Z" fill="#4D4D4D"/>
<path d="M60.5403 84.0256C60.8209 83.1012 60.2994 82.1241 59.3755 81.8433C53.659 80.1058 47.605 81.4677 43.1823 85.4873C42.4675 86.1369 42.4144 87.2434 43.0633 87.9588C43.4084 88.3391 43.8825 88.5321 44.3582 88.5321C44.7774 88.5321 45.1983 88.3818 45.5332 88.0776C49.0362 84.8939 53.8309 83.8149 58.3594 85.1912C59.2829 85.4718 60.2597 84.9501 60.5403 84.0256Z" fill="#4D4D4D"/>
<path d="M73.9214 92.3886C73.9212 92.3886 73.9215 92.3886 73.9214 92.3886C68.2075 92.3886 62.851 94.9704 58.8403 99.6577C58.2123 100.392 58.2976 101.496 59.0313 102.124C59.7647 102.753 60.8683 102.667 61.4964 101.933C64.8325 98.0348 69.2452 95.8875 73.9217 95.8875C78.5981 95.8875 83.0106 98.0346 86.3467 101.933C86.6923 102.337 87.1824 102.545 87.6754 102.545C88.0778 102.545 88.4822 102.407 88.8118 102.124C89.5453 101.496 89.6308 100.392 89.0028 99.6577C84.9913 94.9702 79.6354 92.3886 73.9214 92.3886Z" fill="#4D4D4D"/>
</svg>
