<svg width="52" height="26" viewBox="0 0 52 26" fill="none" xmlns="http://www.w3.org/2000/svg">
<g opacity="0.8">
<path d="M1.77749 0.154212C1.9689 0 2.22412 0 2.44743 0H6.11614C6.88178 0 7.64743 0.092527 8.31736 0.431793C9.08301 0.801901 9.62534 1.6038 9.59344 2.43654C9.59344 2.6216 9.62534 2.83749 9.52963 3.02255C8.9873 2.86834 8.41307 2.71413 7.83884 2.71413C6.81798 2.68328 5.79712 2.71413 4.80817 2.71413C4.55295 2.71413 4.20203 2.71413 4.04252 2.96086C3.91491 3.26929 3.91491 3.60855 3.85111 3.94782C3.7235 4.74972 3.5959 5.55162 3.43639 6.38436C3.40449 6.60026 3.40449 6.78531 3.37258 7.00121C3.30878 7.27879 3.21308 7.58721 3.18117 7.86479C3.05357 8.79006 2.86216 9.77702 2.73455 10.764H0.341913C0.150502 10.7948 -0.0728107 10.5789 0.0228948 10.3939C0.533324 7.18626 1.07565 4.0095 1.58608 0.801901C1.61798 0.586004 1.58608 0.308423 1.77749 0.154212Z" transform="translate(0.360352)" fill="#7F8081"/>
<path d="M1.35138 0.0308425C1.47899 1.17195e-07 1.6066 0 1.7342 0H4.63727C5.2753 0.0308423 5.94524 0.215896 6.39187 0.678531C6.71089 1.0178 6.80659 1.48043 6.80659 1.91222C6.74279 2.68328 6.58328 3.45434 6.07285 4.07119C5.62622 4.59551 4.95629 4.90393 4.28635 4.99646C3.71212 5.08898 3.13788 5.0273 2.59555 5.05814C2.40414 5.05814 2.27653 5.21235 2.24463 5.39741C2.14893 6.01426 2.05322 6.6311 1.95752 7.21711C1.92562 7.40216 1.76611 7.61806 1.54279 7.58721H0.139114C0.0115068 7.58721 -0.0203955 7.433 0.0115063 7.30963C0.394328 4.99646 0.77715 2.65244 1.15997 0.339266C1.12807 0.215896 1.22378 0.0925271 1.35138 0.0308425ZM2.85077 1.78886L2.56365 3.54687C3.10598 3.54687 3.71212 3.6394 4.19064 3.36181C4.57347 3.17676 4.70107 2.74497 4.73298 2.37486C4.76488 2.06644 4.63727 1.72717 4.35015 1.6038C3.93543 1.44959 3.4888 1.48043 3.07408 1.51127C2.88267 1.51127 2.85077 1.66549 2.85077 1.78886Z" transform="translate(15.4941 2.83691)" fill="#7F8081"/>
<path d="M1.79975 0.28525C2.5335 -0.0540161 3.36294 -0.0848583 4.12858 0.16188C4.3838 0.254407 4.57521 0.439461 4.76662 0.624515C4.86233 0.470304 4.83043 0.254407 4.98993 0.131038C5.46846 0.100196 5.91508 0.131038 6.39361 0.100196C6.55312 0.0693532 6.71263 0.223565 6.68073 0.377777C6.42551 1.85821 6.2022 3.36948 5.94699 4.84992C5.91509 5.03497 5.75558 5.18918 5.56417 5.15834C5.11754 5.15834 4.67092 5.18918 4.22429 5.15834C4.03288 5.03497 4.16049 4.78823 4.12858 4.60318C3.68196 4.94244 3.17153 5.22002 2.5973 5.28171C1.89546 5.37423 1.09791 5.22002 0.619386 4.6957C0.0451534 4.1097 -0.114355 3.24611 0.0770562 2.47506C0.268467 1.58063 0.906504 0.717042 1.79975 0.28525ZM3.23534 1.39557C2.27828 1.45726 1.57644 2.53674 1.95926 3.40033C2.24638 3.98633 3.04392 4.07886 3.58625 3.86296C4.3519 3.61622 4.79852 2.66011 4.4476 1.91989C4.22429 1.4881 3.68196 1.33389 3.23534 1.39557Z" transform="translate(21.9043 5.23486)" fill="#7F8081"/>
<path d="M0.0381593 0.383816C-0.0256443 0.260447 -0.0256439 0.04455 0.165767 0.0137077C0.612392 -0.0171346 1.05902 0.0137077 1.50564 0.0137077C1.69705 -0.0171346 1.88846 0.106235 1.92037 0.291289C2.20748 1.12403 2.4308 1.98762 2.71791 2.82036C2.81362 2.75868 2.87742 2.66615 2.94122 2.60446C3.51546 1.80256 4.05779 1.00066 4.63202 0.198762C4.79153 -0.0171345 5.07864 0.0445502 5.30196 0.0445502C5.68478 0.0445502 6.0357 0.0137079 6.41852 0.0753926C6.57803 0.137077 6.54613 0.352973 6.45042 0.476343C4.95104 2.57362 3.45165 4.64006 1.95227 6.73734C1.82466 6.95323 1.53754 6.89155 1.34613 6.92239C0.963311 6.92239 0.548589 6.95323 0.165767 6.89155C0.0381598 6.82986 0.0381583 6.64481 0.101962 6.55228C0.548587 5.90459 1.02712 5.28775 1.47374 4.64006C1.02712 3.19047 0.516686 1.80256 0.0381593 0.383816Z" transform="translate(29.2793 5.35303)" fill="#7F8081"/>
<path d="M0.638036 0.246739C0.797545 5.96046e-08 1.11656 0 1.40368 0C2.42454 0.0308423 3.4454 0 4.43435 0C5.00858 0 5.58282 0.154212 6.12515 0.308423H6.18895V0.40095C6.02944 1.35706 5.64662 2.31317 4.91288 2.99171C4.27484 3.60855 3.38159 3.91698 2.48834 4.0095C1.8503 4.10203 1.18037 4.04034 0.542331 4.07119C0.35092 4.07119 0.159509 4.16371 0 4.25624C0 4.04035 0.0319017 3.85529 0.0638036 3.63939C0.191411 2.83749 0.319018 2.03559 0.478527 1.20285C0.478527 0.894428 0.478527 0.555162 0.638036 0.246739Z" transform="translate(3.76465 2.68311)" fill="#505050"/>
<path d="M1.34831 0.0308422C2.27346 -0.0308425 3.23052 0.0308423 4.15567 0C4.85751 0 5.65506 0.0925269 6.22929 0.52432C6.67591 0.894428 6.83542 1.48043 6.80352 2.03559C6.73972 2.89918 6.4526 3.82445 5.71886 4.41045C5.01702 4.99646 4.02806 5.08898 3.13481 5.05814C2.8796 5.08898 2.56058 4.96562 2.33727 5.18151C2.20966 5.33572 2.20966 5.55162 2.17776 5.70583C2.08205 6.26099 2.01825 6.847 1.89064 7.40216C1.85874 7.58721 1.63543 7.55637 1.50782 7.55637H0.167946C-0.0553668 7.55637 0.00843684 7.27879 0.00843684 7.15542C0.359357 4.96562 0.710275 2.77581 1.0931 0.586004C1.06119 0.431793 1.0612 0.123369 1.34831 0.0308422ZM2.81579 1.72717C2.72009 2.34402 2.59248 2.96086 2.52868 3.54687C3.07101 3.54687 3.61334 3.60855 4.12377 3.39266C4.6342 3.11508 4.76181 2.46739 4.6342 1.94307C4.41089 1.48043 3.83665 1.48043 3.39003 1.48043C3.16672 1.54212 2.81579 1.44959 2.81579 1.72717Z" transform="translate(35.8164 2.80566)" fill="#B2B2B2"/>
<path d="M1.19149 0.038553C1.4467 -0.0231317 1.73382 0.00771052 1.98903 0.00771052C2.27615 0.00771052 2.59516 -0.0231317 2.88228 0.038553C2.88228 0.13108 2.91418 0.223607 2.91418 0.316134C2.53136 2.62931 2.14854 4.94248 1.79762 7.22482C1.76572 7.37903 1.63811 7.59492 1.4467 7.56408H0.170626C0.0111168 7.56408 -0.020785 7.34819 0.0111168 7.22482C0.234429 5.83691 0.457744 4.44901 0.681057 3.09194C0.840566 2.07415 1.00008 1.05635 1.19149 0.038553Z" transform="translate(49.0859 2.83057)" fill="#B2B2B2"/>
<path d="M7.0225 0C7.69244 0.308423 8.04336 1.0178 8.04336 1.69633C8.07526 2.55991 7.82005 3.4235 7.37342 4.13287C6.79919 5.05814 5.65073 5.55162 4.56606 5.6133C4.24705 5.64415 3.89613 5.64415 3.57711 5.67499C3.3538 5.70583 3.22619 5.92173 3.19429 6.10678C3.06668 6.847 2.93907 7.61806 2.84337 8.35827C2.81147 8.54333 2.81146 8.75922 2.62005 8.91343C2.46054 9.0368 2.26913 9.00596 2.07772 9.03681H0.291222C0.131713 9.06765 -0.0277957 8.91343 0.00410606 8.75922C0.0360079 8.38912 0.131713 8.04985 0.163615 7.67974C0.291222 6.69279 0.482633 5.70583 0.642142 4.68803C0.674044 4.41045 0.769749 4.10203 0.833553 3.82445C0.993062 3.73192 1.18447 3.6394 1.37588 3.6394C2.01392 3.6394 2.68386 3.67024 3.32189 3.57771C4.21514 3.48518 5.07649 3.17676 5.74643 2.55991C6.51207 1.91222 6.8949 0.92527 7.0225 0Z" transform="translate(2.89844 3.11523)" fill="#B2B2B2"/>
<path d="M0.673196 1.15486C1.47074 0.106221 3.00203 -0.29473 4.2462 0.22959C4.46951 0.322117 4.59712 0.507172 4.75663 0.661383C4.78853 0.507172 4.85234 0.322117 4.88424 0.167906C5.39467 0.0753788 5.90509 0.137063 6.38362 0.137063C6.57503 0.106221 6.67074 0.322117 6.60693 0.476329C6.38362 1.92592 6.12841 3.40635 5.90509 4.85594C5.90509 5.04099 5.74558 5.19521 5.55417 5.19521C5.07565 5.19521 4.56522 5.22605 4.08669 5.16436C4.05479 4.97931 4.08669 4.8251 4.11859 4.64004C3.89528 4.76341 3.70387 4.94847 3.48056 5.041C2.74681 5.4111 1.85357 5.44194 1.11982 5.10268C0.577493 4.85594 0.194671 4.30078 0.0670636 3.74562C-0.124347 2.82035 0.0989635 1.86423 0.673196 1.15486ZM3.16154 1.37076C2.39589 1.43244 1.82166 2.11097 1.82166 2.85119C1.78976 3.2213 2.01307 3.62225 2.36399 3.8073C2.87442 4.05404 3.51246 3.96151 3.95908 3.62225C4.31 3.34467 4.53332 2.94372 4.56522 2.51192C4.59712 2.14182 4.43761 1.77171 4.11859 1.58665C3.83148 1.37076 3.48056 1.30907 3.16154 1.37076Z" transform="translate(42.2041 5.26025)" fill="#B2B2B2"/>
<path d="M51.9999 0H0V1.32622H51.9999V0Z" transform="translate(0 16.2236)" fill="#B2B2B2"/>
<path d="M0 0H0.925152L1.94601 3.26929L2.96687 0H3.89202L2.39264 4.78056H1.46748L0 0Z" transform="translate(0.0644531 21.1904)" fill="#B2B2B2"/>
<path d="M0 0H3.28589V0.832744H0.957054V1.88138H2.36073V2.59076H0.957054V3.94782H3.28589V4.78056H0V0Z" transform="translate(7.81641 21.1885)" fill="#B2B2B2"/>
<path d="M0 0H1.30797C2.00981 0 2.52024 0.0616847 2.77546 0.154212C3.03067 0.246739 3.25398 0.431794 3.41349 0.678533C3.573 0.925271 3.63681 1.20285 3.63681 1.51127C3.63681 1.78886 3.573 2.0356 3.44539 2.22065C3.31779 2.4057 3.06257 2.55991 2.74355 2.71413L3.63681 4.81141H2.67975L1.8503 2.89918H0.957054V4.81141H0V0ZM0.988956 0.832744V2.12812H1.7546C2.04172 2.12812 2.26503 2.0356 2.48834 1.88138C2.61595 1.78886 2.67975 1.63465 2.67975 1.44959C2.67975 1.26454 2.61595 1.14117 2.45644 1.0178C2.29693 0.894429 2.07362 0.832744 1.7546 0.832744H0.988956Z" transform="translate(15.1221 21.1885)" fill="#B2B2B2"/>
<path d="M0 0H0.957054V4.78056H0V0Z" transform="translate(22.9043 21.1885)" fill="#B2B2B2"/>
<path d="M0 0H2.99877V0.832744H0.957054V2.06644H2.13742V2.89918H0.957054V4.78056H0V0Z" transform="translate(28.2334 21.1885)" fill="#B2B2B2"/>
<path d="M0 0H0.957054V4.78056H0V0Z" transform="translate(35.2832 21.1885)" fill="#B2B2B2"/>
<path d="M0 0H3.28589V0.832744H0.957054V1.88138H2.36073V2.59076H0.957054V3.94782H3.28589V4.78056H0V0Z" transform="translate(40.6123 21.1885)" fill="#B2B2B2"/>
<path d="M0 0H1.7865C2.20122 0 2.58405 0.092527 2.93497 0.308423C3.28589 0.52432 3.5092 0.801902 3.70061 1.17201C3.86012 1.54212 3.95582 1.94307 3.95582 2.37486C3.95582 2.80665 3.89202 3.17676 3.73251 3.51603C3.573 3.85529 3.38159 4.13287 3.15828 4.31793C2.99877 4.47214 2.77546 4.56467 2.48834 4.65719C2.23313 4.74972 1.94601 4.78056 1.62699 4.78056H0V0ZM0.957054 0.801903V3.91698H1.62699C1.8503 3.91698 2.07361 3.85529 2.26503 3.73192C2.45644 3.60856 2.58404 3.45434 2.67975 3.23845C2.83926 2.96086 2.90306 2.65244 2.90306 2.31318C2.90306 1.85054 2.77546 1.48043 2.48834 1.20285C2.20123 0.925271 1.8503 0.801903 1.43558 0.801903H0.957054Z" transform="translate(47.9492 21.1885)" fill="#B2B2B2"/>
</g>
</svg>
