<svg width="74" height="38" viewBox="0 0 74 38" fill="none" xmlns="http://www.w3.org/2000/svg">
<g opacity="0.8">
<path d="M2.52951 0.225386C2.8019 0 3.16509 0 3.48289 0H8.70374C9.79331 0 10.8829 0.135232 11.8363 0.631082C12.9258 1.17201 13.6976 2.34402 13.6522 3.5611C13.6522 3.83157 13.6976 4.14711 13.5614 4.41757C12.7896 4.19219 11.9725 3.9668 11.1553 3.9668C9.70251 3.92172 8.24975 3.9668 6.84239 3.9668C6.4792 3.9668 5.97982 3.9668 5.75282 4.32742C5.57123 4.77819 5.57123 5.27404 5.48043 5.76989C5.29884 6.9419 5.11724 8.11391 4.89025 9.331C4.84485 9.64654 4.84485 9.917 4.79945 10.2325C4.70865 10.6382 4.57246 11.089 4.52706 11.4947C4.34546 12.847 4.07307 14.2895 3.89147 15.732H0.486568C0.214176 15.777 -0.103615 15.4615 0.032581 15.191C0.758961 10.503 1.53074 5.86004 2.25712 1.17201C2.30252 0.856468 2.25712 0.450773 2.52951 0.225386Z" transform="translate(0.512207)" fill="#253C81"/>
<path d="M1.92312 0.0450774C2.10472 1.71284e-07 2.28631 0 2.46791 0H6.59919C7.50717 0.0450773 8.46054 0.315541 9.09612 0.9917C9.55011 1.48755 9.68631 2.16371 9.68631 2.79479C9.59551 3.92172 9.36852 5.04865 8.64214 5.9502C8.00655 6.71651 7.05318 7.16729 6.09981 7.30252C5.28263 7.43775 4.46545 7.3476 3.69367 7.39267C3.42128 7.39267 3.23969 7.61806 3.19429 7.88852C3.05809 8.79007 2.9219 9.69161 2.7857 10.5481C2.7403 10.8185 2.51331 11.1341 2.19552 11.089H0.19797C0.016375 11.089 -0.0290244 10.8636 0.0163743 10.6833C0.561159 7.30252 1.10595 3.87665 1.65073 0.49585C1.60533 0.315541 1.74153 0.135232 1.92312 0.0450774ZM4.05686 2.61448L3.64827 5.18389C4.42005 5.18389 5.28263 5.31912 5.96361 4.91342C6.5084 4.64296 6.68999 4.01188 6.73539 3.47095C6.78079 3.02018 6.59919 2.52433 6.19061 2.34402C5.60042 2.11863 4.96484 2.16371 4.37466 2.20879C4.10226 2.20879 4.05686 2.43417 4.05686 2.61448Z" transform="translate(22.0474 4.14697)" fill="#253C81"/>
<path d="M2.56119 0.416903C3.60536 -0.0789466 4.78573 -0.124024 5.8753 0.236595C6.23849 0.371826 6.51088 0.64229 6.78327 0.912754C6.91947 0.687367 6.87407 0.371826 7.10107 0.191517C7.78205 0.14644 8.41763 0.191517 9.09861 0.14644C9.3256 0.101362 9.5526 0.326749 9.5072 0.552136C9.14401 2.71584 8.82622 4.92463 8.46303 7.08834C8.41763 7.3588 8.19063 7.58419 7.91824 7.53911C7.28266 7.53911 6.64708 7.58419 6.01149 7.53911C5.7391 7.3588 5.9207 6.99819 5.8753 6.72772C5.23971 7.22357 4.51334 7.62927 3.69616 7.71942C2.69739 7.85465 1.56242 7.62927 0.881434 6.86295C0.0642568 6.00649 -0.162736 4.74432 0.109657 3.61739C0.382049 2.31015 1.29003 1.04799 2.56119 0.416903ZM4.60413 2.03969C3.24217 2.12984 2.2434 3.70754 2.78818 4.96971C3.19677 5.82618 4.33174 5.96141 5.10352 5.64587C6.19309 5.28525 6.82867 3.88785 6.32928 2.806C6.01149 2.17492 5.23972 1.94953 4.60413 2.03969Z" transform="translate(31.1704 7.65186)" fill="#253C81"/>
<path d="M0.0543036 0.560962C-0.0364939 0.380653 -0.0364932 0.0651116 0.235899 0.0200343C0.871482 -0.0250429 1.50706 0.0200343 2.14265 0.0200343C2.41504 -0.0250429 2.68743 0.155266 2.73283 0.42573C3.14142 1.64282 3.45921 2.90498 3.8678 4.12207C4.004 4.03191 4.09479 3.89668 4.18559 3.80652C5.00277 2.63452 5.77455 1.46251 6.59172 0.290498C6.81872 -0.0250427 7.22731 0.0651118 7.5451 0.0651118C8.08988 0.0651118 8.58927 0.0200347 9.13405 0.110189C9.36105 0.200344 9.31565 0.515884 9.17945 0.696193C7.04571 3.76145 4.91197 6.78163 2.77823 9.84688C2.59663 10.1624 2.18804 10.0723 1.91565 10.1173C1.37087 10.1173 0.780684 10.1624 0.235899 10.0723C0.0543043 9.98211 0.0543022 9.71165 0.1451 9.57642C0.780682 8.62979 1.46166 7.72825 2.09725 6.78163C1.46166 4.66299 0.735285 2.63452 0.0543036 0.560962Z" transform="translate(41.6675 7.82324)" fill="#253C81"/>
<path d="M0.907975 0.360618C1.13497 8.06044e-08 1.58896 0 1.99755 0C3.45031 0.0450773 4.90307 0 6.31043 0C7.1276 0 7.94478 0.225386 8.71656 0.450773H8.80736V0.586005C8.58036 1.9834 8.03558 3.3808 6.99141 4.37249C6.08343 5.27404 4.81227 5.72481 3.5411 5.86005C2.63313 5.99528 1.67975 5.90512 0.771779 5.9502C0.499386 5.9502 0.226994 6.08543 0 6.22066C0 5.90512 0.0453987 5.63466 0.0907974 5.31912C0.272392 4.14711 0.453987 2.9751 0.680981 1.75801C0.680981 1.30724 0.680981 0.811391 0.907975 0.360618Z" transform="translate(5.35693 3.92188)" fill="#222E64"/>
<path d="M1.91875 0.045077C3.23532 -0.0450775 4.59728 0.0450773 5.91384 0C6.91262 0 8.04758 0.135232 8.86476 0.766314C9.50034 1.30724 9.72734 2.16371 9.68194 2.9751C9.59114 4.23726 9.18255 5.58958 8.13838 6.44605C7.13961 7.30252 5.73225 7.43775 4.46108 7.39267C4.09789 7.43775 3.6439 7.25744 3.32611 7.57298C3.14452 7.79837 3.14452 8.11391 3.09912 8.3393C2.96292 9.15069 2.87212 10.0072 2.69053 10.8185C2.64513 11.089 2.32734 11.0439 2.14575 11.0439H0.239C-0.0787912 11.0439 0.0120063 10.6382 0.0120063 10.4579C0.511392 7.25744 1.01078 4.05695 1.55556 0.856468C1.51016 0.631082 1.51016 0.180309 1.91875 0.045077ZM4.00709 2.52433C3.8709 3.42587 3.6893 4.32742 3.5985 5.18389C4.37028 5.18389 5.14206 5.27404 5.86844 4.9585C6.59482 4.5528 6.77642 3.60618 6.59482 2.83987C6.27703 2.16371 5.45986 2.16371 4.82427 2.16371C4.50648 2.25386 4.00709 2.11863 4.00709 2.52433Z" transform="translate(50.9712 4.10205)" fill="#1A9BD6"/>
<path d="M1.69558 0.0563467C2.05877 -0.0338079 2.46736 0.0112692 2.83055 0.0112692C3.23914 0.0112692 3.69312 -0.0338079 4.10171 0.0563467C4.10171 0.191578 4.14711 0.32681 4.14711 0.462042C3.60232 3.84284 3.05754 7.22363 2.55815 10.5594C2.51275 10.7847 2.33116 11.1003 2.05876 11.0552H0.242814C0.0158201 11.0552 -0.0295787 10.7397 0.0158201 10.5594C0.333611 8.53087 0.651405 6.5024 0.969197 4.519C1.19619 3.03145 1.42319 1.5439 1.69558 0.0563467Z" transform="translate(69.853 4.13574)" fill="#1A9BD6"/>
<path d="M9.99357 0C10.9469 0.450773 11.4463 1.48755 11.4463 2.47925C11.4917 3.74141 11.1285 5.00358 10.493 6.04035C9.67578 7.39267 8.04142 8.11391 6.49786 8.20406C6.04388 8.24914 5.54449 8.24914 5.0905 8.29422C4.77271 8.3393 4.59112 8.65484 4.54572 8.9253C4.36412 10.0072 4.18253 11.1341 4.04633 12.2159C4.00093 12.4864 4.00093 12.8019 3.72854 13.0273C3.50155 13.2076 3.22915 13.1626 2.95676 13.2076H0.414432C0.187438 13.2527 -0.0395555 13.0273 0.00584324 12.8019C0.051242 12.261 0.187438 11.7652 0.232837 11.2242C0.414432 9.78177 0.686825 8.33929 0.913818 6.85174C0.959217 6.44605 1.09541 5.99528 1.18621 5.58958C1.4132 5.45435 1.6856 5.31912 1.95799 5.31912C2.86596 5.31912 3.81934 5.3642 4.72731 5.22896C5.99848 5.09373 7.22424 4.64296 8.17762 3.74141C9.26719 2.79479 9.81197 1.35232 9.99357 0Z" transform="translate(4.12549 4.55273)" fill="#1A9BD6"/>
<path d="M0.95801 1.68787C2.09298 0.155246 4.27212 -0.430759 6.04268 0.335555C6.36047 0.470787 6.54206 0.741251 6.76905 0.966637C6.81445 0.741251 6.90525 0.470787 6.95065 0.245401C7.67703 0.110169 8.40341 0.200323 9.08439 0.200323C9.35678 0.155246 9.49298 0.470787 9.40218 0.696173C9.08439 2.81481 8.7212 4.97851 8.40341 7.09715C8.40341 7.36761 8.17641 7.593 7.90402 7.593C7.22304 7.593 6.49666 7.63807 5.81568 7.54792C5.77028 7.27745 5.81568 7.05207 5.86108 6.7816C5.54329 6.96191 5.27089 7.23238 4.9531 7.36761C3.90893 7.90854 2.63777 7.95361 1.5936 7.45776C0.821818 7.09715 0.277032 6.28576 0.0954368 5.47436C-0.176956 4.12205 0.140833 2.72465 0.95801 1.68787ZM4.49911 2.00341C3.40954 2.09357 2.59237 3.08527 2.59237 4.16712C2.54697 4.70805 2.86476 5.29405 3.36415 5.56452C4.09053 5.92514 4.9985 5.7899 5.63408 5.29405C6.13347 4.88836 6.45126 4.30236 6.49666 3.67127C6.54206 3.13035 6.31506 2.58942 5.86108 2.31896C5.45249 2.00341 4.9531 1.91326 4.49911 2.00341Z" transform="translate(60.0581 7.68848)" fill="#1A9BD6"/>
<path d="M74 0H0V1.93832H74V0Z" transform="translate(0 23.7109)" fill="#1A9BD6"/>
<path d="M0 0H1.31656L2.76932 4.77819L4.22208 0H5.53865L3.40491 6.98698H2.08834L0 0Z" transform="translate(0.0908203 30.9678)" fill="#1A9BD6"/>
<path d="M0 0H4.67607V1.21709H1.36196V2.74972H3.35951V3.78649H1.36196V5.76989H4.67607V6.98698H0V0Z" transform="translate(11.1226 30.9678)" fill="#1A9BD6"/>
<path d="M0 0H1.86135C2.86012 0 3.5865 0.0901545 3.94969 0.225386C4.31288 0.360618 4.63067 0.631084 4.85767 0.991702C5.08466 1.35232 5.17546 1.75801 5.17546 2.20879C5.17546 2.61448 5.08466 2.9751 4.90306 3.24557C4.72147 3.51603 4.35828 3.74141 3.90429 3.9668L5.17546 7.03206H3.81349L2.63313 4.23726H1.36196V7.03206H0V0ZM1.40736 1.21709V3.11033H2.49693C2.90552 3.11033 3.22331 2.9751 3.5411 2.74972C3.7227 2.61448 3.81349 2.3891 3.81349 2.11863C3.81349 1.84817 3.7227 1.66786 3.4957 1.48755C3.26871 1.30724 2.95092 1.21709 2.49693 1.21709H1.40736Z" transform="translate(21.519 30.9678)" fill="#1A9BD6"/>
<path d="M0 0H1.36196V6.98698H0V0Z" transform="translate(32.5962 30.9678)" fill="#1A9BD6"/>
<path d="M0 0H4.26748V1.21709H1.36196V3.02018H3.04171V4.23726H1.36196V6.98698H0V0Z" transform="translate(40.1777 30.9678)" fill="#1A9BD6"/>
<path d="M0 0H1.36196V6.98698H0V0Z" transform="translate(50.2109 30.9678)" fill="#1A9BD6"/>
<path d="M0 0H4.67607V1.21709H1.36196V2.74972H3.3595V3.78649H1.36196V5.76989H4.67607V6.98698H0V0Z" transform="translate(57.793 30.9678)" fill="#1A9BD6"/>
<path d="M0 0H2.54233C3.13251 0 3.6773 0.135232 4.17668 0.450773C4.67607 0.766314 4.99386 1.17201 5.26625 1.71294C5.49324 2.25387 5.62944 2.83987 5.62944 3.47095C5.62944 4.10203 5.53865 4.64296 5.31165 5.13881C5.08466 5.63466 4.81226 6.04035 4.49447 6.31082C4.26748 6.5362 3.94969 6.67144 3.5411 6.80667C3.17791 6.9419 2.76932 6.98698 2.31533 6.98698H0V0ZM1.36196 1.17201V5.72482H2.31533C2.63312 5.72482 2.95091 5.63466 3.22331 5.45435C3.4957 5.27404 3.6773 5.04865 3.81349 4.73311C4.04049 4.32742 4.13128 3.87665 4.13128 3.3808C4.13128 2.70464 3.94969 2.16371 3.5411 1.75801C3.13252 1.35232 2.63313 1.17201 2.04294 1.17201H1.36196Z" transform="translate(68.2344 30.9678)" fill="#1A9BD6"/>
</g>
</svg>
