<svg width="110" height="27" viewBox="0 0 110 27" fill="none" xmlns="http://www.w3.org/2000/svg">
<g opacity="0.8">
<rect width="110" height="27.0001" fill="black" fill-opacity="0"/>
<path d="M3.78623 0.338987C4.19395 0 4.73758 0 5.21326 0H13.0279C14.6588 0 16.2897 0.203392 17.7168 0.949163C19.3476 1.76273 20.5029 3.52546 20.4349 5.35599C20.4349 5.76278 20.5029 6.23736 20.299 6.64414C19.1438 6.30516 17.9206 5.96617 16.6975 5.96617C14.5229 5.89837 12.3484 5.96617 10.2418 5.96617C9.69821 5.96617 8.95072 5.96617 8.61095 6.50855C8.33913 7.18652 8.33913 7.93229 8.20322 8.67806C7.93141 10.4408 7.65959 12.2035 7.31982 14.0341C7.25187 14.5086 7.25187 14.9154 7.18392 15.39C7.04801 16.0002 6.84415 16.6782 6.77619 17.2883C6.50438 19.3223 6.09666 21.4918 5.82484 23.6613H0.728306C0.320583 23.7291 -0.155093 23.2545 0.048768 22.8477C1.13603 15.7968 2.29124 8.81366 3.3785 1.76273C3.44646 1.28815 3.3785 0.677974 3.78623 0.338987Z" fill="#253C81"/>
<path d="M35.1129 6.3051C35.3848 6.2373 35.6566 6.2373 35.9284 6.2373H42.1122C43.4713 6.3051 44.8983 6.71189 45.8496 7.72885C46.5292 8.47462 46.733 9.49158 46.733 10.4407C46.5971 12.1357 46.2574 13.8306 45.1701 15.1866C44.2188 16.3391 42.7917 17.0171 41.3647 17.2205C40.1415 17.4239 38.9184 17.2883 37.7631 17.3561C37.3554 17.3561 37.0836 17.6951 37.0157 18.1018C36.8118 19.4578 36.6079 20.8137 36.4041 22.1019C36.3361 22.5087 35.9963 22.9833 35.5207 22.9155H32.5307C32.2589 22.9155 32.1909 22.5765 32.2589 22.3053C33.0743 17.2205 33.8898 12.0679 34.7052 6.98308C34.6373 6.71189 34.8411 6.4407 35.1129 6.3051ZM38.3068 10.1696L37.6952 14.034C38.8504 14.034 40.1415 14.2374 41.1608 13.6272C41.9763 13.2204 42.2481 12.2713 42.3161 11.4577C42.384 10.7797 42.1122 10.034 41.5006 9.76277C40.6172 9.42378 39.6659 9.49158 38.7825 9.55938C38.3747 9.55938 38.3068 9.89836 38.3068 10.1696Z" fill="#253C81"/>
<path d="M49.7223 12.1353C51.2853 11.3896 53.052 11.3218 54.6829 11.8641C55.2266 12.0675 55.6343 12.4743 56.042 12.8811C56.2459 12.5421 56.1779 12.0675 56.5177 11.7963C57.537 11.7286 58.4884 11.7963 59.5077 11.7285C59.8474 11.6608 60.1872 11.9997 60.1192 12.3387C59.5756 15.593 59.0999 18.9151 58.5563 22.1693C58.4884 22.5761 58.1486 22.9151 57.7409 22.8473C56.7895 22.8473 55.8382 22.9151 54.8868 22.8473C54.4791 22.5761 54.7509 22.0338 54.6829 21.627C53.7316 22.3727 52.6443 22.9829 51.4212 23.1185C49.9262 23.3219 48.2273 22.9829 47.208 21.8304C45.9849 20.5422 45.6451 18.6439 46.0528 16.9489C46.4605 14.9828 47.8196 13.0845 49.7223 12.1353ZM52.7802 14.576C50.7416 14.7116 49.2466 17.0845 50.0621 18.9829C50.6737 20.271 52.3725 20.4744 53.5277 19.9998C55.1586 19.4575 56.11 17.3557 55.3625 15.7286C54.8868 14.7794 53.7316 14.4404 52.7802 14.576Z" fill="#253C81"/>
<path d="M61.6848 12.6103C61.5489 12.3391 61.5489 11.8645 61.9566 11.7967C62.908 11.7289 63.8593 11.7967 64.8107 11.7967C65.2184 11.7289 65.6261 12.0001 65.6941 12.4069C66.3057 14.2374 66.7813 16.1358 67.3929 17.9663C67.5968 17.8307 67.7327 17.6273 67.8686 17.4917C69.0918 15.729 70.247 13.9663 71.4701 12.2035C71.8099 11.7289 72.4215 11.8645 72.8972 11.8645C73.7126 11.8645 74.4601 11.7967 75.2756 11.9323C75.6153 12.0679 75.5474 12.5425 75.3435 12.8137C72.1497 17.4239 68.9559 21.9663 65.762 26.5766C65.4902 27.0511 64.8786 26.9155 64.4709 26.9833C63.6555 26.9833 62.7721 27.0511 61.9566 26.9156C61.6848 26.78 61.6848 26.3732 61.8207 26.1698C62.7721 24.746 63.7914 23.3901 64.7427 21.9663C63.7914 18.7799 62.7041 15.729 61.6848 12.6103Z" fill="#253C81"/>
<path d="M8.61103 6.4413C8.9508 5.89893 9.63034 5.89893 10.2419 5.89893C12.4164 5.96672 14.591 5.89893 16.6975 5.89893C17.9207 5.89893 19.1439 6.23791 20.2991 6.5769H20.435V6.78029C20.0952 8.88201 19.2798 10.9837 17.7168 12.4753C16.3578 13.8312 14.4551 14.5092 12.5524 14.7126C11.1933 14.916 9.76624 14.7804 8.40717 14.8482C7.99944 14.8482 7.59172 15.0516 7.25195 15.255C7.25195 14.7804 7.31991 14.3736 7.38786 13.899C7.65968 12.1363 7.93149 10.3736 8.27126 8.54302C8.27126 7.86505 8.27126 7.11928 8.61103 6.4413Z" fill="#222E64"/>
<path d="M78.3994 6.23723C80.37 6.10164 82.4086 6.23723 84.3793 6.16943C85.8743 6.16943 87.5731 6.37283 88.7963 7.32199C89.7477 8.13556 90.0874 9.42371 90.0195 10.6441C89.8836 12.5424 89.272 14.5763 87.709 15.8645C86.2141 17.1526 84.1075 17.356 82.2048 17.2882C81.6612 17.356 80.9816 17.0848 80.5059 17.5594C80.2341 17.8984 80.2341 18.373 80.1662 18.712C79.9623 19.9323 79.8264 21.2205 79.5546 22.4408C79.4866 22.8476 79.011 22.7798 78.7391 22.7798H75.8851C75.4094 22.7798 75.5453 22.1696 75.5453 21.8984C76.2928 17.0848 77.0403 12.2712 77.8557 7.45758C77.7878 7.1186 77.7878 6.44062 78.3994 6.23723ZM81.5252 9.96609C81.3214 11.322 81.0496 12.678 80.9137 13.9661C82.0689 13.9661 83.2241 14.1017 84.3114 13.6271C85.3986 13.017 85.6704 11.5932 85.3986 10.4407C84.9229 9.42371 83.6998 9.42371 82.7484 9.42371C82.2727 9.5593 81.5252 9.35591 81.5252 9.96609Z" fill="#1A9BD6"/>
<path d="M106.331 6.30496C106.875 6.16937 107.486 6.23716 108.03 6.23716C108.641 6.23716 109.321 6.16937 109.932 6.30496C109.932 6.50835 110 6.71175 110 6.91514C109.185 11.9999 108.37 17.0847 107.622 22.1018C107.554 22.4407 107.282 22.9153 106.875 22.8475H104.156C103.817 22.8475 103.749 22.3729 103.817 22.1018C104.292 19.0509 104.768 16 105.244 13.0169C105.583 10.7796 105.923 8.54228 106.331 6.30496Z" fill="#1A9BD6"/>
<path d="M20.3668 6.84766C21.7938 7.52563 22.5413 9.08497 22.5413 10.5765C22.6093 12.4748 22.0656 14.3732 21.1143 15.9325C19.8911 17.9664 17.4448 19.0512 15.1343 19.1868C14.4548 19.2546 13.7073 19.2546 13.0278 19.3224C12.5521 19.3902 12.2803 19.8648 12.2123 20.2715C11.9405 21.8987 11.6687 23.5936 11.4648 25.2207C11.3969 25.6275 11.3969 26.1021 10.9892 26.4411C10.6494 26.7123 10.2417 26.6445 9.83395 26.7123H6.02853C5.68876 26.7801 5.349 26.4411 5.41695 26.1021C5.4849 25.2885 5.68876 24.5428 5.75672 23.7292C6.02853 21.5597 6.43626 19.3902 6.77603 17.1529C6.84398 16.5427 7.04784 15.8647 7.18375 15.2545C7.52352 15.0511 7.93124 14.8477 8.33896 14.8477C9.69804 14.8477 11.1251 14.9155 12.4841 14.7122C14.3869 14.5088 16.2216 13.8308 17.6486 12.4748C19.2795 11.0511 20.095 8.88158 20.3668 6.84766Z" fill="#1A9BD6"/>
<path d="M90.5648 14.1021C92.2637 11.797 95.5255 10.9156 98.1757 12.0682C98.6513 12.2716 98.9231 12.6783 99.2629 13.0173C99.3309 12.6783 99.4668 12.2716 99.5347 11.9326C100.622 11.7292 101.709 11.8648 102.729 11.8648C103.136 11.797 103.34 12.2716 103.204 12.6105C102.729 15.797 102.185 19.0513 101.709 22.2378C101.709 22.6446 101.369 22.9835 100.962 22.9835C99.9425 22.9835 98.8552 23.0513 97.8359 22.9157C97.7679 22.509 97.8359 22.17 97.9038 21.7632C97.4282 22.0344 97.0204 22.4412 96.5448 22.6446C94.9818 23.4581 93.0791 23.5259 91.5162 22.7801C90.361 22.2378 89.5455 21.0174 89.2737 19.7971C88.866 17.7631 89.3417 15.6614 90.5648 14.1021ZM95.8652 14.5767C94.2343 14.7123 93.0112 16.2038 93.0112 17.8309C92.9432 18.6445 93.4189 19.5259 94.1664 19.9327C95.2536 20.475 96.6127 20.2716 97.5641 19.5259C98.3116 18.9157 98.7872 18.0343 98.8552 17.0852C98.9232 16.2716 98.5834 15.458 97.9038 15.0512C97.2923 14.5767 96.5448 14.4411 95.8652 14.5767Z" fill="#1A9BD6"/>
</g>
</svg>
