<svg width="48" height="25" viewBox="0 0 48 25" fill="none" xmlns="http://www.w3.org/2000/svg">
<rect width="47.5239" height="24.2301" fill="black" fill-opacity="0" transform="translate(0.189453 0.142578)"/>
<rect width="47.5239" height="16.3555" fill="black" fill-opacity="0" transform="translate(0.189453 0.142578)"/>
<path d="M2.14207 0.286294C2.317 0.142578 2.55025 0.142578 2.75434 0.142578H6.10725C6.80699 0.142578 7.50673 0.228808 8.119 0.544982C8.81873 0.8899 9.31438 1.63722 9.28523 2.41329C9.28523 2.58575 9.31438 2.78695 9.22691 2.95941C8.73127 2.81569 8.20646 2.67198 7.68166 2.67198C6.74868 2.64323 5.81569 2.67198 4.91186 2.67198C4.67862 2.67198 4.3579 2.67198 4.21213 2.90192C4.0955 3.18935 4.0955 3.50553 4.03719 3.8217C3.92057 4.56902 3.80395 5.31634 3.65817 6.09241C3.62901 6.29361 3.62901 6.46607 3.59986 6.66727C3.54154 6.92596 3.45408 7.21339 3.42492 7.47208C3.3083 8.33438 3.13336 9.25416 3.01674 10.1739H0.83006C0.655125 10.2027 0.451035 10.0015 0.538502 9.82902C1.00499 6.83973 1.50064 3.87919 1.96713 0.8899C1.99629 0.688698 1.96713 0.43001 2.14207 0.286294Z" fill="#253C81"/>
<path d="M15.5847 2.81585C15.7013 2.78711 15.8179 2.78711 15.9345 2.78711H18.5877C19.1708 2.81585 19.7831 2.98831 20.1913 3.41946C20.4828 3.73563 20.5703 4.16678 20.5703 4.56918C20.512 5.28776 20.3662 6.00634 19.8997 6.5812C19.4915 7.06984 18.8793 7.35727 18.267 7.4435C17.7422 7.52973 17.2174 7.47224 16.7217 7.50099C16.5468 7.50099 16.4302 7.6447 16.401 7.81716C16.3136 8.39202 16.2261 8.96689 16.1386 9.51301C16.1095 9.68546 15.9637 9.88667 15.7596 9.85792H14.4767C14.3601 9.85792 14.331 9.71421 14.3601 9.59924C14.71 7.4435 15.0599 5.25902 15.4097 3.10328C15.3806 2.98831 15.468 2.87334 15.5847 2.81585ZM16.955 4.45421L16.6926 6.09257C17.1882 6.09257 17.7422 6.1788 18.1795 5.92011C18.5294 5.74765 18.646 5.34525 18.6752 5.00033C18.7043 4.7129 18.5877 4.39673 18.3253 4.28175C17.9463 4.13804 17.5381 4.16678 17.1591 4.19552C16.9841 4.19552 16.955 4.33924 16.955 4.45421Z" fill="#253C81"/>
<path d="M21.8538 5.28732C22.5244 4.97114 23.2824 4.9424 23.9822 5.17235C24.2154 5.25858 24.3904 5.43104 24.5653 5.60349C24.6528 5.45978 24.6236 5.25858 24.7694 5.1436C25.2067 5.11486 25.6149 5.1436 26.0522 5.11486C26.198 5.08612 26.3438 5.22983 26.3146 5.37355C26.0814 6.75322 25.8773 8.16163 25.6441 9.54131C25.6149 9.71376 25.4691 9.85748 25.2942 9.82874C24.886 9.82874 24.4778 9.85748 24.0697 9.82874C23.8947 9.71376 24.0113 9.48382 23.9822 9.31136C23.574 9.62753 23.1075 9.88622 22.5827 9.94371C21.9413 10.0299 21.2124 9.88622 20.7751 9.39759C20.2503 8.85147 20.1045 8.04666 20.2794 7.32808C20.4543 6.49453 21.0375 5.68972 21.8538 5.28732ZM23.1658 6.32207C22.2912 6.37956 21.6497 7.38557 21.9996 8.19038C22.262 8.7365 22.9909 8.82273 23.4865 8.62152C24.1863 8.39158 24.5945 7.50054 24.2737 6.81071C24.0697 6.4083 23.574 6.26459 23.1658 6.32207Z" fill="#253C81"/>
<path d="M26.9841 5.48855C26.9258 5.37358 26.9258 5.17238 27.1007 5.14363C27.5089 5.11489 27.9171 5.14363 28.3253 5.14363C28.5002 5.11489 28.6751 5.22986 28.7043 5.40232C28.9667 6.17839 29.1708 6.9832 29.4332 7.75926C29.5206 7.70177 29.579 7.61554 29.6373 7.55806C30.1621 6.81074 30.6577 6.06341 31.1825 5.31609C31.3283 5.11489 31.5907 5.17238 31.7948 5.17238C32.1447 5.17238 32.4654 5.14363 32.8152 5.20112C32.961 5.25861 32.9319 5.45981 32.8444 5.57478C31.4741 7.52932 30.1038 9.45511 28.7334 11.4096C28.6168 11.6108 28.3544 11.5534 28.1795 11.5821C27.8296 11.5821 27.4506 11.6108 27.1007 11.5534C26.9841 11.4959 26.9841 11.3234 27.0424 11.2372C27.4506 10.6336 27.8879 10.0587 28.2961 9.45511C27.8879 8.10418 27.4214 6.81074 26.9841 5.48855Z" fill="#253C81"/>
<path d="M4.21397 2.87252C4.35975 2.64258 4.65131 2.64258 4.91371 2.64258C5.8467 2.67132 6.77968 2.64258 7.68351 2.64258C8.20831 2.64258 8.73312 2.78629 9.22876 2.93001H9.28707V3.01624C9.1413 3.90728 8.79143 4.79831 8.12084 5.43066C7.53773 6.00553 6.72137 6.29296 5.90501 6.37919C5.32189 6.46542 4.70962 6.40793 4.12651 6.43667C3.95157 6.43667 3.77664 6.5229 3.63086 6.60913C3.63086 6.40793 3.66002 6.23547 3.68917 6.03427C3.80579 5.28695 3.92242 4.53963 4.0682 3.76356C4.0682 3.47613 4.0682 3.15995 4.21397 2.87252Z" fill="#222E64"/>
<path d="M34.1561 2.78656C35.0016 2.72907 35.8763 2.78656 36.7218 2.75781C37.3632 2.75781 38.0921 2.84404 38.6169 3.24645C39.0251 3.59136 39.1709 4.13748 39.1417 4.65486C39.0834 5.45967 38.821 6.32196 38.1504 6.86808C37.509 7.4142 36.6052 7.50043 35.7888 7.47169C35.5556 7.50043 35.264 7.38546 35.0599 7.58666C34.9433 7.73038 34.9433 7.93158 34.9141 8.07529C34.8267 8.59267 34.7683 9.13879 34.6517 9.65617C34.6226 9.82863 34.4185 9.79988 34.3019 9.79988H33.0773C32.8732 9.79988 32.9315 9.54119 32.9315 9.42622C33.2523 7.38546 33.573 5.3447 33.9228 3.30393C33.8937 3.16022 33.8937 2.87278 34.1561 2.78656ZM35.4972 4.36743C35.4098 4.94229 35.2932 5.51715 35.2348 6.06327C35.7305 6.06327 36.2261 6.12076 36.6926 5.91956C37.1591 5.66087 37.2757 5.05726 37.1591 4.56863C36.955 4.13748 36.4302 4.13748 36.022 4.13748C35.818 4.19497 35.4972 4.10874 35.4972 4.36743Z" fill="#1A9BD6"/>
<path d="M46.1378 2.8162C46.371 2.75872 46.6334 2.78746 46.8666 2.78746C47.129 2.78746 47.4206 2.75872 47.683 2.8162C47.683 2.90243 47.7122 2.98866 47.7122 3.07489C47.3623 5.23063 47.0124 7.38636 46.6917 9.51336C46.6626 9.65707 46.5459 9.85827 46.371 9.82953H45.2048C45.059 9.82953 45.0298 9.62833 45.059 9.51336C45.2631 8.21991 45.4672 6.92647 45.6713 5.66177C45.817 4.71325 45.9628 3.76473 46.1378 2.8162Z" fill="#1A9BD6"/>
<path d="M9.25591 3.0459C9.86818 3.33333 10.1889 3.99442 10.1889 4.62677C10.218 5.43158 9.9848 6.23639 9.57662 6.89748C9.05182 7.75978 8.00221 8.21967 7.01092 8.27715C6.71936 8.30589 6.39864 8.30589 6.10709 8.33464C5.903 8.36338 5.78637 8.56458 5.75722 8.73704C5.6406 9.42688 5.52397 10.1455 5.4365 10.8353C5.40735 11.0078 5.40735 11.209 5.23241 11.3527C5.08664 11.4676 4.9117 11.4389 4.73677 11.4676H3.10404C2.95827 11.4964 2.81249 11.3527 2.84164 11.209C2.8708 10.864 2.95827 10.5479 2.98742 10.2029C3.10405 9.28316 3.27898 8.36338 3.42476 7.41486C3.45391 7.15617 3.54138 6.86874 3.59969 6.61005C3.74547 6.52382 3.92041 6.43759 4.09534 6.43759C4.67846 6.43759 5.29073 6.46633 5.87384 6.3801C6.6902 6.29387 7.47741 6.00644 8.08968 5.43158C8.78942 4.82797 9.13929 3.90819 9.25591 3.0459Z" fill="#1A9BD6"/>
<path d="M39.375 6.12118C40.1039 5.14391 41.5034 4.77025 42.6405 5.25889C42.8446 5.34512 42.9612 5.51757 43.107 5.66129C43.1361 5.51757 43.1944 5.34512 43.2236 5.2014C43.6901 5.11517 44.1566 5.17266 44.5939 5.17266C44.7688 5.14391 44.8563 5.34512 44.798 5.48883C44.5939 6.83976 44.3606 8.21943 44.1566 9.57036C44.1566 9.74282 44.0108 9.88653 43.8358 9.88653C43.3985 9.88653 42.932 9.91528 42.4947 9.85779C42.4655 9.68533 42.4947 9.54161 42.5238 9.36916C42.3197 9.48413 42.1448 9.65659 41.9407 9.74282C41.2701 10.0877 40.4538 10.1165 39.7832 9.8003C39.2875 9.57036 38.9377 9.05298 38.8211 8.5356C38.6461 7.67331 38.8502 6.78227 39.375 6.12118ZM41.6492 6.32238C40.9494 6.37987 40.4246 7.01222 40.4246 7.70205C40.3955 8.04697 40.5996 8.42063 40.9203 8.59309C41.3868 8.82304 41.9699 8.73681 42.3781 8.42063C42.6988 8.16194 42.9029 7.78828 42.932 7.38588C42.9612 7.04096 42.8154 6.69604 42.5238 6.52358C42.2614 6.32238 41.9407 6.2649 41.6492 6.32238Z" fill="#1A9BD6"/>
<path d="M47.7133 15.2617H0.189453V16.4977H47.7133V15.2617Z" fill="#1A9BD6"/>
<rect width="47.3784" height="4.48393" fill="black" fill-opacity="0" transform="translate(0.248047 19.8887)"/>
<path d="M0.248047 19.8896H1.09356L2.02655 22.9364L2.95953 19.8896H3.80505L2.43473 24.3448H1.58921L0.248047 19.8896Z" fill="#1A9BD6"/>
<path d="M7.33203 19.8887H10.3351V20.6647H8.2067V21.642H9.48956V22.3031H8.2067V23.5678H10.3351V24.3439H7.33203V19.8887Z" fill="#1A9BD6"/>
<path d="M14.0098 19.8887H15.2052C15.8466 19.8887 16.3131 19.9462 16.5463 20.0324C16.7796 20.1186 16.9837 20.2911 17.1294 20.521C17.2752 20.751 17.3335 21.0097 17.3335 21.2971C17.3335 21.5558 17.2752 21.7857 17.1586 21.9582C17.042 22.1306 16.8087 22.2744 16.5172 22.4181L17.3335 24.3726H16.4588L15.7008 22.5905H14.8844V24.3726H14.0098V19.8887ZM14.9136 20.6647V21.8719H15.6133C15.8757 21.8719 16.0798 21.7857 16.2839 21.642C16.4005 21.5558 16.4588 21.4121 16.4588 21.2396C16.4588 21.0671 16.4005 20.9522 16.2548 20.8372C16.109 20.7222 15.9049 20.6647 15.6133 20.6647H14.9136Z" fill="#1A9BD6"/>
<path d="M21.123 19.8887H21.9977V24.3439H21.123V19.8887Z" fill="#1A9BD6"/>
<path d="M25.9922 19.8887H28.7328V20.6647H26.8669V21.8145H27.9456V22.5905H26.8669V24.3439H25.9922V19.8887Z" fill="#1A9BD6"/>
<path d="M32.4355 19.8887H33.3102V24.3439H32.4355V19.8887Z" fill="#1A9BD6"/>
<path d="M37.3047 19.8887H40.3077V20.6647H38.1794V21.642H39.4622V22.3031H38.1794V23.5678H40.3077V24.3439H37.3047V19.8887Z" fill="#1A9BD6"/>
<path d="M44.0117 19.8887H45.6444C46.0235 19.8887 46.3733 19.9749 46.694 20.1761C47.0148 20.3773 47.2188 20.636 47.3938 20.9809C47.5396 21.3258 47.627 21.6995 47.627 22.1019C47.627 22.5043 47.5687 22.8492 47.4229 23.1654C47.2772 23.4816 47.1022 23.7403 46.8981 23.9127C46.7524 24.0564 46.5483 24.1427 46.2859 24.2289C46.0526 24.3151 45.7902 24.3439 45.4987 24.3439H44.0117V19.8887ZM44.8864 20.636V23.5391H45.4987C45.7027 23.5391 45.9068 23.4816 46.0818 23.3666C46.2567 23.2516 46.3733 23.1079 46.4608 22.9067C46.6066 22.648 46.6649 22.3606 46.6649 22.0444C46.6649 21.6133 46.5483 21.2683 46.2859 21.0097C46.0235 20.751 45.7028 20.636 45.3237 20.636H44.8864Z" fill="#1A9BD6"/>
</svg>
