<svg width="72" height="29" viewBox="0 0 72 29" fill="none" xmlns="http://www.w3.org/2000/svg">
<g opacity="0.8">
<path fill-rule="evenodd" clip-rule="evenodd" d="M1.83351 1.57595L2.54132 1.78799C2.49353 1.98453 2.41887 2.1488 2.31733 2.28081C2.21578 2.41341 2.08868 2.51346 1.936 2.58094C1.785 2.64724 1.59255 2.68039 1.35865 2.68039C1.07433 2.68039 0.841852 2.64014 0.661225 2.55963C0.48227 2.47675 0.327084 2.33231 0.195676 2.12631C0.0652229 1.9203 0 1.65628 0 1.33425C0 0.905659 0.114681 0.576521 0.344049 0.346836C0.575089 0.115967 0.900626 0.000532483 1.32066 0.000532483C1.64977 0.000532483 1.90841 0.0668339 2.09656 0.199436C2.28579 0.332038 2.42616 0.534492 2.51767 0.806799L1.80447 0.96308C1.78034 0.883755 1.75431 0.826334 1.72635 0.790815C1.68155 0.72925 1.6266 0.682484 1.56149 0.650518C1.49614 0.617367 1.42297 0.600792 1.34198 0.600792C1.1592 0.600792 1.01895 0.673606 0.921232 0.819231C0.847524 0.928154 0.810669 1.09864 0.810669 1.33069C0.810669 1.61839 0.854869 1.81552 0.943271 1.92208C1.03191 2.02863 1.15592 2.08191 1.31528 2.08191C1.46998 2.08191 1.58646 2.03929 1.6647 1.95404C1.74474 1.8688 1.80257 1.74448 1.83817 1.5811L1.83351 1.57595ZM2.83018 1.34082C2.83018 0.918149 2.94905 0.589012 3.18678 0.353407C3.42427 0.117802 3.75518 0 4.17951 0C4.61459 0 4.94998 0.116026 5.18568 0.34808C5.4215 0.578949 5.53941 0.903113 5.53941 1.32057C5.53941 1.62343 5.48768 1.87182 5.38423 2.06575C5.28268 2.25873 5.13455 2.40968 4.93983 2.51861C4.7463 2.62587 4.50498 2.6795 4.21588 2.6795C3.922 2.6795 3.6783 2.63333 3.48478 2.54098C3.29364 2.44864 3.13773 2.30135 3.01708 2.09913C2.89761 1.89786 2.83788 1.64568 2.83788 1.34259L2.83018 1.34082ZM3.63745 1.34437C3.63745 1.60579 3.68619 1.79368 3.78367 1.90805C3.88163 2.0223 4.01483 2.07942 4.18327 2.07942C4.35649 2.07942 4.49089 2.02307 4.58646 1.91035C4.68083 1.79764 4.72802 1.59679 4.72802 1.30779C4.72802 1.06389 4.67784 0.886124 4.5775 0.774478C4.47834 0.660819 4.34395 0.60399 4.17431 0.60399C4.01065 0.60399 3.87984 0.660819 3.78188 0.774478C3.68272 0.886953 3.63315 1.07579 3.63315 1.34099L3.63745 1.34437ZM5.9675 0.044043H7.02976L7.44011 1.61999L7.84814 0.044043H8.90717V2.63404H8.24774V0.65922L7.73704 2.63404H7.14032L6.63141 0.65922V2.63404H5.9684V0.0442205L5.9675 0.044043ZM9.41662 0.044043H10.7593C11.0516 0.044043 11.2703 0.112947 11.4152 0.250759C11.5615 0.388452 11.6347 0.584276 11.6347 0.838232C11.6347 1.09953 11.555 1.30358 11.3956 1.45039C11.2375 1.5972 10.9957 1.67061 10.6703 1.67061H10.228V2.63209H9.4168V0.0412003L9.41662 0.044043ZM10.228 1.14813H10.4258C10.5815 1.14813 10.6908 1.12167 10.7538 1.06875C10.8168 1.01464 10.8484 0.945794 10.8484 0.862207C10.8484 0.78087 10.821 0.711964 10.7663 0.65549C10.7117 0.598661 10.609 0.570247 10.4581 0.570247H10.2273V1.14742L10.228 1.14813ZM12.0588 0.044043H12.8652V1.99649H14.1249V2.63404H12.057V0.0442205L12.0588 0.044043ZM14.5281 0.044043H15.3363V2.63404H14.5263V0.0442205L14.5281 0.044043ZM17.5224 2.20658H16.6014L16.4742 2.63422H15.6481L16.6301 0.0449304H17.5099L18.4919 2.63599H17.6479L17.5189 2.20977L17.5224 2.20658ZM17.3522 1.64663L17.0619 0.715695L16.7734 1.64663H17.3486H17.3522ZM18.7571 0.044043H19.5115L20.4953 1.47685V0.044043H21.2568V2.63404H20.4953L19.5169 1.21189V2.6344H18.7571V0.0438641V0.044043ZM21.6116 0.044043H24.0666V0.683728H23.2423V2.63404H22.4359V0.684083H21.6116V0.044398V0.044043Z" transform="translate(46.8516 14.7612)" fill="#909193"/>
<path fill-rule="evenodd" clip-rule="evenodd" d="M38.9613 17.7812L41.3003 17.0506L40.5431 15.3786C39.9797 16.0658 39.4249 16.9574 38.9608 17.7796L38.9613 17.7812ZM38.1645 10.127L33.5778 0L0 1.88958L9.30229 27.0455L27.2091 21.4517C26.073 19.8292 25.6537 17.9004 26.969 16.9577C28.4437 15.9028 30.6604 17.1229 32.085 18.8579C33.4522 16.5812 37.2869 11.3263 38.165 10.1275L38.1645 10.127Z" transform="translate(0 0.977539)" fill="#909193"/>
<path fill-rule="evenodd" clip-rule="evenodd" d="M26.1271 4.75697C27.5326 4.75697 28.672 3.69196 28.672 2.37813C28.672 1.06431 27.5313 0 26.1264 0C24.7205 0 23.5813 1.06502 23.5813 2.37902C23.5813 3.6932 24.7205 4.75804 26.1266 4.75804L26.1271 4.75697ZM24.0449 5.78878H28.2094V16.5654H24.0449V5.78914V5.78878ZM21.9887 8.93393C22.0173 8.95116 22.0424 8.93695 22.0424 8.90303V6.17309C22.0424 6.13828 22.0173 6.09673 21.9869 6.08039C21.9869 6.08039 21.4403 5.72751 19.7738 5.6293C19.6842 5.58047 18.2328 5.57318 17.8314 5.6293C11.7746 6.11058 11.5506 10.4531 11.5506 10.6516V11.7056C11.5506 11.8344 11.5506 16.2743 17.8314 16.6675C18.4442 16.7133 19.6466 16.6675 19.7738 16.6675C21.2199 16.6675 22.2216 16.2354 22.2216 16.2354C22.2521 16.2216 22.279 16.1839 22.279 16.1495V13.5939C22.279 13.5591 22.2557 13.5467 22.2252 13.5646C22.2252 13.5646 21.7754 13.9234 19.7989 14.1134C19.238 14.1756 18.9728 14.1471 18.7703 14.1134C15.9678 13.6463 15.8334 11.6111 15.8334 11.6111C15.8298 11.5774 15.8262 11.5223 15.8262 11.4886V10.7125C15.8262 10.6788 15.8298 10.6237 15.8334 10.59C15.8334 10.59 16.0215 8.40915 18.7686 8.17828H19.7953C21.0085 8.33989 21.9815 8.93482 21.9815 8.93482L21.9887 8.93393ZM0 16.5224C0 16.5569 0.0274166 16.5846 0.0621802 16.5846H4.11876C4.15317 16.5846 4.18112 16.5569 4.18112 16.5237V13.3957C4.18112 13.3627 4.2089 13.3364 4.24384 13.3377C4.24384 13.3377 10.7194 13.8017 10.7194 9.49352C10.7194 6.09406 6.6565 5.72147 5.319 5.78363C5.29212 5.78541 0.0628966 5.78363 0.0628966 5.78363C0.0288498 5.78363 0.000179095 5.81293 0.000179095 5.84614V16.523L0 16.5224ZM4.10945 10.9478V8.13015H5.10182C5.10182 8.13015 6.54612 8.19479 6.65901 9.16817C6.68589 9.24454 6.67872 9.72049 6.65901 9.74712C6.47444 10.8922 5.22009 10.9484 5.22009 10.9484L4.11267 10.9466L4.10945 10.9478Z" transform="translate(6.4082 3.53711)" fill="#FEFEFE"/>
<path fill-rule="evenodd" clip-rule="evenodd" d="M5.2836 17.1504C5.62228 17.1504 5.88121 17.1504 6.30913 16.9621C7.78801 16.1917 12.7649 4.14568 18.0144 0.440401C18.0449 0.416604 18.0884 0.382151 18.1135 0.346811C18.1472 0.297973 18.1484 0.24807 18.1484 0.24807C18.1484 0.24807 18.1484 0.00121657 17.37 0.00121657C12.6967 -0.124874 7.83693 9.58407 5.28342 13.4254C5.25117 13.468 5.07556 13.4254 5.07556 13.4254C5.07556 13.4254 3.36426 11.4239 1.87695 10.6567C1.84649 10.6407 1.67626 10.5892 1.50065 10.6017C1.38417 10.6017 0.692482 10.7384 0.369934 11.0776C-0.00995675 11.4754 -0.0027886 11.6992 0.000795269 12.184C0.0025872 12.2231 0.027675 12.3847 0.0742653 12.4664C0.438028 13.0968 2.09915 15.3594 3.45923 16.6078C3.67068 16.757 3.99144 17.153 5.28521 17.153L5.2836 17.1504Z" transform="translate(27.3662 8.15527)" fill="#909193"/>
<path fill-rule="evenodd" clip-rule="evenodd" d="M0 0.135858H3.8885C4.65545 0.135858 5.27379 0.238861 5.74351 0.444867C6.21742 0.651111 6.60842 0.947097 6.91651 1.33283C7.22472 1.71761 7.44812 2.16591 7.5867 2.67773C7.72527 3.18919 7.79456 3.73085 7.79456 4.30269C7.79456 5.19894 7.69063 5.89569 7.48276 6.39295C7.27872 6.88547 6.99368 7.29985 6.62765 7.63609C6.26174 7.9676 5.86883 8.1884 5.44892 8.29851C4.8749 8.45005 4.35482 8.52583 3.88868 8.52583H0.000180462V0.133016L0 0.135858ZM2.61766 2.03698V6.62417H3.25774C3.80487 6.62417 4.19396 6.56498 4.42501 6.44658C4.65605 6.32464 4.83679 6.11508 4.96725 5.81791C5.0977 5.516 5.16293 5.0294 5.16293 4.3581C5.16293 3.46896 5.01617 2.86041 4.72265 2.53246C4.42997 2.20451 3.94447 2.04053 3.26616 2.04053H2.61336L2.61766 2.03698ZM8.5065 5.75397L10.9955 5.59947C11.0493 6.00083 11.1586 6.30628 11.3234 6.51584C11.5922 6.85563 11.9775 7.02553 12.4792 7.02553C12.8531 7.02553 13.1398 6.9397 13.3393 6.76802C13.5424 6.5928 13.644 6.39034 13.644 6.16066C13.644 5.944 13.5472 5.74983 13.3537 5.57816C13.1602 5.40649 12.7134 5.24488 12.0133 5.09333C10.8653 4.8376 10.0464 4.49781 9.55657 4.07396C9.06319 3.65129 8.8165 3.11141 8.8165 2.45432C8.8165 2.02336 8.94194 1.61727 9.19281 1.23604C9.44607 0.851256 9.82536 0.549943 10.3307 0.332097C10.8396 0.110699 11.5349 0 12.4165 0C13.4976 0 14.3213 0.200679 14.8876 0.602036C15.4562 0.999842 15.7949 1.63384 15.9036 2.50404L13.4361 2.64789C13.3704 2.27022 13.2312 1.99554 13.0186 1.82387C12.8095 1.6522 12.5204 1.56636 12.1513 1.56636C11.8467 1.56636 11.6173 1.63148 11.4632 1.76171C11.3079 1.88839 11.2302 2.0429 11.2302 2.22522C11.2302 2.35901 11.2936 2.47918 11.4202 2.58574C11.5432 2.69703 11.8359 2.80062 12.2982 2.89652C13.4427 3.1416 14.2612 3.39023 14.7539 3.64241C15.2509 3.89104 15.611 4.20064 15.8344 4.57121C16.0626 4.94179 16.1767 5.35617 16.1767 5.81436C16.1767 6.35305 16.0262 6.84971 15.7251 7.30435C15.4241 7.75898 15.0042 8.10452 14.4654 8.34095C13.9278 8.57182 13.249 8.68726 12.4289 8.68726C10.9881 8.68726 9.99022 8.41258 9.43507 7.86323C8.87957 7.31388 8.56539 6.61535 8.49252 5.76765L8.5065 5.75397ZM16.8551 5.75397L19.3441 5.59947C19.3979 6.00083 19.5072 6.30628 19.672 6.51584C19.9408 6.85563 20.3261 7.02553 20.8278 7.02553C21.2018 7.02553 21.4885 6.9397 21.688 6.76802C21.8923 6.5928 21.9944 6.39034 21.9944 6.16066C21.9944 5.944 21.8976 5.74983 21.7041 5.57816C21.5106 5.40649 21.0638 5.24488 20.3637 5.09333C19.2157 4.8376 18.3968 4.49781 17.907 4.07396C17.4136 3.65129 17.1669 3.11141 17.1669 2.45432C17.1669 2.02336 17.2918 1.61727 17.5414 1.23604C17.7959 0.851256 18.1752 0.549943 18.6793 0.332097C19.187 0.110699 19.8823 0 20.7651 0C21.8463 0 22.67 0.200679 23.2362 0.602036C23.806 0.999842 24.1447 1.63384 24.2522 2.50404L21.7865 2.64612C21.7196 2.26844 21.5805 1.99376 21.369 1.82209C21.1611 1.65042 20.872 1.56458 20.5017 1.56458C20.1971 1.56458 19.9677 1.6297 19.8136 1.75993C19.6583 1.88662 19.5807 2.04171 19.5807 2.22522C19.5807 2.35901 19.644 2.47918 19.7706 2.58574C19.8936 2.69703 20.1863 2.80062 20.6486 2.89652C21.7931 3.14041 22.612 3.38845 23.1054 3.64063C23.6012 3.88926 23.9613 4.19886 24.1859 4.56944C24.4129 4.94001 24.5264 5.35439 24.5264 5.81258C24.5264 6.35127 24.3765 6.84794 24.0766 7.30257C23.7756 7.75721 23.3551 8.10292 22.8151 8.33971C22.2775 8.57176 21.599 8.68779 20.7795 8.68779C19.3387 8.68779 18.3406 8.41252 17.7851 7.86199C17.2308 7.31264 16.9166 6.61411 16.8426 5.76641L16.8551 5.75397Z" transform="translate(46.7607 4.80908)" fill="#909193"/>
</g>
</svg>
