<?xml version="1.0" encoding="utf-8"?>
<!-- Generator: Adobe Illustrator 22.1.0, SVG Export Plug-In . SVG Version: 6.00 Build 0)  -->
<svg version="1.1" id="Слой_1" xmlns="http://www.w3.org/2000/svg" xmlns:xlink="http://www.w3.org/1999/xlink" x="0px" y="0px"
	 viewBox="0 0 290 580" style="enable-background:new 0 0 290 580;" xml:space="preserve">
<style type="text/css">
	.st0{fill:#F4F9FF;}
	.st1{fill:none;stroke:#BFC6D1;stroke-opacity:0.4;}
	.st2{fill:#EDF4FF;}
	.st3{fill:#C4C4C4;}
	.st4{fill:#FFFFFF;}
</style>
<g>
	<path class="st0" d="M48,0h194c26.5,0,48,21.5,48,47.9v484.2c0,26.5-21.5,47.9-48,47.9H48c-26.5,0-48-21.5-48-47.9V47.9
		C0,21.5,21.5,0,48,0z"/>
	<path class="st1" d="M48,0.5h194c26.2,0,47.5,21.2,47.5,47.4v484.2c0,26.2-21.3,47.4-47.5,47.4H48c-26.2,0-47.5-21.2-47.5-47.4
		V47.9C0.5,21.7,21.8,0.5,48,0.5z"/>
	<path class="st2" d="M93,21c1.7,0,3,1.3,3,3c0,1.7-1.3,3-3,3s-3-1.3-3-3C90,22.3,91.3,21,93,21z"/>
	<path class="st3" d="M177.5,27c1.9,0,3.5-1.6,3.5-3.5s-1.6-3.5-3.5-3.5s-3.5,1.6-3.5,3.5S175.6,27,177.5,27z"/>
	<path class="st3" d="M93,25c0.6,0,1-0.4,1-1c0-0.6-0.4-1-1-1c-0.6,0-1,0.4-1,1C92,24.5,92.4,25,93,25z"/>
	<path class="st4" d="M217.5,17c-0.8,0-1.5,0.7-1.5,1.5V22c0,8.8-7.2,16-16,16H90c-8.8,0-16-7.2-16-16v-3.5c0-0.8-0.7-1.5-1.5-1.5
		H47c-16.6,0-30,13.4-30,29.9v485.2c0,16.6,13.4,29.9,30,29.9h195c16.6,0,30-13.4,30-29.9V46.9c0-16.6-13.4-29.9-30-29.9H217.5z"/>
	<g>
		<path class="st2" d="M120.6,23.6c0-2.2,1.8-4.1,4.1-4.1h34.2c2.2,0,4.1,1.8,4.1,4.1s-1.8,4.1-4.1,4.1h-34.2
			C122.4,27.7,120.6,25.8,120.6,23.6z"/>
	</g>
</g>
</svg>
