<svg width="255" height="547" viewBox="0 0 255 547" fill="none" xmlns="http://www.w3.org/2000/svg">
<mask id="mask0" mask-type="alpha" maskUnits="userSpaceOnUse" x="0" y="0" width="255" height="547">
<path d="M200.5 0C199.7 0 199 0.698795 199 1.49742V4.99139C199 13.7762 191.8 20.9639 183 20.9639H73C64.2 20.9639 57 13.7762 57 4.99139V1.49742C57 0.698795 56.3 0 55.5 0H30C13.4 0 0 13.3769 0 29.9484V515.112C0 531.683 13.4 545.06 30 545.06H225C241.6 545.06 255 531.683 255 515.112V29.9484C255 13.3769 241.6 0 225 0H200.5Z" transform="translate(0 0.970703)" fill="white"/>
</mask>
<g mask="url(#mask0)">
<path d="M0 0H283.483V570.238H0V0Z" transform="translate(-17 -6.23853)" fill="url(#paint0_linear)"/>
</g>
<mask id="mask1" mask-type="alpha" maskUnits="userSpaceOnUse" x="0" y="0" width="255" height="547">
<path d="M200.5 0C199.7 0 199 0.698795 199 1.49742V4.99139C199 13.7762 191.8 20.9639 183 20.9639H73C64.2 20.9639 57 13.7762 57 4.99139V1.49742C57 0.698795 56.3 0 55.5 0H30C13.4 0 0 13.3769 0 29.9484V515.112C0 531.683 13.4 545.06 30 545.06H225C241.6 545.06 255 531.683 255 515.112V29.9484C255 13.3769 241.6 0 225 0H200.5Z" transform="translate(0 0.970703)" fill="white"/>
</mask>
<g mask="url(#mask1)">
<g filter="url(#filter0_d)">
<path d="M93.6797 187.097C145.418 187.097 187.359 145.214 187.359 93.5484C187.359 41.883 145.418 0 93.6797 0C41.9418 0 0 41.883 0 93.5484C0 145.214 41.9418 187.097 93.6797 187.097Z" transform="translate(33.5059 103.579)" fill="#FCFCFC"/>
<path d="M25.6595 3.94219C25.0381 3.94219 24.4511 4.06424 23.8883 4.24147C22.1059 1.68241 19.1487 0 15.7905 0C12.4323 0 9.47519 1.68241 7.69272 4.24147C7.12991 4.06424 6.54295 3.94219 5.92159 3.94219C2.65121 3.94219 0 6.58968 0 9.85547H31.581C31.581 6.58968 28.9298 3.94219 25.6595 3.94219Z" transform="translate(147.63 124.81)" fill="#ACDDEE"/>
<path d="M20.6794 3.17699C20.1788 3.17699 19.7057 3.27529 19.2519 3.41817C17.8153 1.35609 15.4323 0 12.7258 0C10.0193 0 7.63636 1.35572 6.1997 3.41817C5.7463 3.27529 5.27314 3.17699 4.77218 3.17699C2.1367 3.17699 0 5.31033 0 7.94248H25.4505C25.4516 5.31033 23.3149 3.17699 20.6794 3.17699Z" transform="translate(123.815 152.546)" fill="#ACDDEE"/>
<path d="M0 15.0887C0 9.25544 4.73558 4.52687 10.5767 4.52687C11.4582 4.52687 12.3013 4.66609 13.1199 4.8689C15.8798 1.89253 19.7928 0 24.1752 0C32.52 0 39.2847 6.75522 39.2847 15.0883H0V15.0887Z" transform="translate(90.2461 120.713)" fill="#ACDDEE"/>
<path d="M0 11.4867C0 7.04609 3.54044 3.44594 7.90789 3.44594C8.56694 3.44594 9.19708 3.55191 9.80929 3.70649C11.8728 1.4405 14.7985 0 18.0751 0C24.3139 0 29.3719 5.14297 29.3719 11.4867H0Z" transform="translate(112.344 129.631)" fill="#ACDDEE"/>
<path d="M0 5.74373C0 3.52341 1.7704 1.72334 3.95394 1.72334C4.28365 1.72334 4.59872 1.77633 4.90465 1.85343C5.93622 0.720617 7.39924 0 9.03753 0C12.1571 0 14.6858 2.57148 14.6858 5.74336H0V5.74373Z" transform="translate(107.054 148.648)" fill="#ACDDEE"/>
<path d="M117.875 23.0074C117.875 15.2995 116.922 7.81677 115.161 0.650821L114.096 0C79.573 0 47.7366 23.0074 7.11762 23.0074C-25.9766 23.0074 64.0972 26.7822 117.771 27.0815C117.83 25.7295 117.875 24.3737 117.875 23.0074Z" transform="translate(102.991 174.12)" fill="#D7EFF7"/>
<path d="M0 23.0074C0 15.2995 0.952533 7.81677 2.71305 0.650821L3.77866 0C38.3015 0 40.5139 23.0074 81.1329 23.0074C114.227 23.0074 53.7773 26.7822 0.103194 27.0815C0.0450102 25.7295 0 24.3737 0 23.0074Z" transform="translate(33.8574 174.12)" fill="#D7EFF7"/>
<path d="M1.25004 15.9288C0.559517 15.9288 0 15.3704 0 14.6816V1.24719C0 0.55837 0.559151 0 1.25004 0C1.94093 0 2.50008 0.55837 2.50008 1.24719V14.6816C2.50008 15.3704 1.94093 15.9288 1.25004 15.9288Z" transform="translate(93.7617 184.165)" fill="#D4ECFC"/>
<path d="M17.7252 33.2798C17.7252 40.072 13.7574 43.4814 8.86261 43.4814C3.96785 43.4814 0 40.072 0 33.2798C0 26.4877 5.42903 0 8.86261 0C12.2962 0 17.7252 26.4877 17.7252 33.2798Z" transform="translate(86.1494 148.648)" fill="#D4ECFC"/>
<path d="M2.21757 0C1.53766 0 0.778713 1.05023 0 2.76918C2.80124 7.00553 6.42511 27.9366 6.42511 33.7505C6.42511 39.4306 3.89576 42.6285 0.537559 43.3308C1.08244 43.4251 1.64196 43.481 2.21757 43.481C7.11234 43.481 11.0806 40.0716 11.0806 33.2795C11.0806 26.4874 5.65116 0 2.21757 0Z" transform="translate(92.7939 148.648)" fill="#C8E7FC"/>
<path d="M93.6797 93.5484C145.418 93.5484 187.359 51.6654 187.359 0H0C0 51.6654 41.9418 93.5484 93.6797 93.5484Z" transform="translate(33.5059 197.128)" fill="#D3EDF6"/>
<path d="M4.8119 3.62718C-19.101 7.01246 53.8876 20.7312 53.8876 20.7312C53.8876 20.7312 160.965 30.7847 164.115 30.7847C164.635 30.7847 165.717 30.9539 167.104 31.1834C171.647 21.7507 174.646 11.4392 175.788 0.575169C129.96 9.69468 78.9733 -6.87107 4.8119 3.62718Z" transform="translate(44.5527 206.435)" fill="#C9E9F4"/>
<path d="M92.5775 81.2324C135.169 81.2324 171.098 52.8387 182.479 13.9796C109.334 13.6624 66.5624 -6.34238 0 2.05871C6.92571 46.8994 45.7351 81.2324 92.5775 81.2324Z" transform="translate(34.6084 209.444)" fill="#ADDEEE"/>
<path d="M0 1.36014C6.43975 19.4069 18.2719 34.8855 33.5597 45.887L157.571 32.8896C164.41 25.3809 170.028 16.7478 174.148 7.31289C118.601 5.96412 40.5253 -3.45687 0 1.36014Z" transform="translate(38.9307 227.167)" fill="#96D4E9"/>
<path d="M75.014 53.4563C112.379 53.4563 144.613 31.6007 159.646 0C103.336 0 48.2063 0.0445887 0 15.9442C17.0859 38.7177 44.3248 53.4563 75.014 53.4563Z" transform="translate(52.1719 237.22)" fill="#7BC9E3"/>
<path d="M1.8209 23.204C0.814945 23.204 0 22.3902 0 21.3871V1.81689C0 0.813433 0.814945 0 1.8209 0C2.82723 0 3.6418 0.813798 3.6418 1.81689V21.3871C3.6418 22.3902 2.82686 23.204 1.8209 23.204Z" transform="translate(163.423 181.78)" fill="#D4ECFC"/>
<path d="M25.8212 48.4796C25.8212 58.3738 20.0409 63.3403 12.9106 63.3403C5.78033 63.3403 0 58.3738 0 48.4796C0 38.5854 7.90862 0 12.9106 0C17.9126 0 25.8212 38.5854 25.8212 48.4796Z" transform="translate(152.332 130.042)" fill="#D4ECFC"/>
<path d="M3.23049 0C2.2399 0 1.1344 1.53003 0 4.03427C4.08056 10.2055 9.35992 40.6965 9.35992 49.1655C9.35992 57.4398 5.67531 62.0982 0.783109 63.1214C1.57683 63.2584 2.39213 63.3403 3.23049 63.3403C10.3608 63.3403 16.1411 58.3738 16.1411 48.4796C16.1411 38.5854 8.23247 0 3.23049 0Z" transform="translate(162.013 130.042)" fill="#C8E7FC"/>
<path d="M1.605 20.4549C0.717968 20.4549 0 19.7376 0 18.8533V1.60165C0 0.717324 0.718334 0 1.605 0C2.49166 0 3.21 0.717324 3.21 1.60165V18.8533C3.21036 19.738 2.49203 20.4549 1.605 20.4549Z" transform="translate(72.8867 180.857)" fill="#D4ECFC"/>
<path d="M22.762 42.7355C22.762 51.4575 17.6667 55.8356 11.381 55.8356C5.0953 55.8356 0 51.4575 0 42.7355C0 34.0136 6.97182 0 11.381 0C15.7902 0 22.762 34.0136 22.762 42.7355Z" transform="translate(63.1104 135.249)" fill="#D4ECFC"/>
<path d="M2.84772 0C1.97459 0 1.0001 1.34841 0 3.5563C3.59716 8.99636 8.25077 35.8743 8.25077 43.3403C8.25077 50.6342 5.00272 54.7404 0.690522 55.6426C1.39019 55.7636 2.10889 55.8356 2.84808 55.8356C9.13377 55.8356 14.2291 51.4578 14.2291 42.7355C14.2291 34.0132 7.25688 0 2.84772 0Z" transform="translate(71.6445 135.249)" fill="#C8E7FC"/>
<path d="M17.3739 0.00402024C17.3523 0.00402024 17.3318 0 17.3103 0C13.6289 0 10.3871 1.84429 8.433 4.64965C7.81603 4.45524 7.17235 4.3215 6.49134 4.3215C2.90626 4.3215 0 7.22369 0 10.8037H24.4358C22.3247 7.03659 19.9688 3.42621 17.3739 0.00402024Z" transform="translate(184.537 140.716)" fill="#ACDDEE"/>
</g>
<path d="M0 5.73478C0 2.56755 2.56884 0 5.73766 0H192.212C195.381 0 197.949 2.56755 197.949 5.73478C197.949 8.90202 195.381 11.4696 192.212 11.4696H5.73766C2.56884 11.4696 0 8.90202 0 5.73478Z" transform="translate(28.6182 334.603)" fill="#D7EFF7"/>
<path d="M0 5.73478C0 2.56755 2.56885 0 5.73768 0H192.212C195.381 0 197.95 2.56755 197.95 5.73478C197.95 8.90202 195.381 11.4696 192.212 11.4696H5.73768C2.56885 11.4696 0 8.90202 0 5.73478Z" transform="translate(29.0166 356.546) rotate(0.0829881)" fill="#D7EFF7"/>
<path d="M0 8.13464C0 3.642 3.64712 0 8.14607 0H82.2753C86.7742 0 90.4213 3.642 90.4213 8.13464V45.554C90.4213 50.0466 86.7742 53.6886 82.2753 53.6886H8.14607C3.64712 53.6886 0 50.0466 0 45.554V8.13464Z" transform="translate(28.6182 393.986)" fill="#FFECEB"/>
<path d="M0 8.13464C0 3.642 3.64712 0 8.14607 0H80.6461C85.145 0 88.7921 3.642 88.7921 8.13464V45.554C88.7921 50.0466 85.145 53.6886 80.6461 53.6886H8.14607C3.64712 53.6886 0 50.0466 0 45.554V8.13464Z" transform="translate(137.775 393.986)" fill="#FFECEB"/>
<path d="M0 8.13464C0 3.642 3.64712 0 8.14607 0H189.803C194.302 0 197.949 3.642 197.949 8.13464V45.554C197.949 50.0466 194.302 53.6886 189.803 53.6886H8.14607C3.64712 53.6886 0 50.0466 0 45.554V8.13464Z" transform="translate(28.6182 464.757)" fill="#FFECEB"/>
<path d="M0 8.13464C0 3.642 3.64712 0 8.14607 0H82.2753C86.7742 0 90.4213 3.642 90.4213 8.13464V45.554C90.4213 50.0466 86.7742 53.6886 82.2753 53.6886H8.14607C3.64712 53.6886 0 50.0466 0 45.554V8.13464Z" transform="translate(28.6182 393.986)" fill="#D7EFF7"/>
<path d="M0 8.13464C0 3.642 3.64712 0 8.14607 0H80.6461C85.145 0 88.7921 3.642 88.7921 8.13464V45.554C88.7921 50.0466 85.145 53.6886 80.6461 53.6886H8.14607C3.64712 53.6886 0 50.0466 0 45.554V8.13464Z" transform="translate(137.775 393.986)" fill="#D7EFF7"/>
<path d="M0 8.13464C0 3.642 3.64712 0 8.14607 0H189.803C194.302 0 197.949 3.642 197.949 8.13464V45.554C197.949 50.0466 194.302 53.6886 189.803 53.6886H8.14607C3.64712 53.6886 0 50.0466 0 45.554V8.13464Z" transform="translate(28.6182 464.757)" fill="#D7EFF7"/>
<rect width="258" height="354" transform="translate(-2 192)" fill="url(#paint1_linear)"/>
<g filter="url(#filter1_d)">
<path d="M0 25.5C0 11.4167 11.4097 0 25.4844 0H207.516C221.59 0 233 11.4167 233 25.5C233 39.5833 221.59 51 207.516 51H25.4844C11.4097 51 0 39.5833 0 25.5Z" transform="translate(11 32)" fill="white"/>
</g>
<path d="M0 2.18571C0 0.978578 0.977978 0 2.18438 0H53.1531C54.3595 0 55.3375 0.978578 55.3375 2.18571V11.6571C55.3375 12.8643 54.3595 13.8429 53.1531 13.8429H2.18438C0.977978 13.8429 0 12.8643 0 11.6571V2.18571Z" transform="translate(67.0654 38.5571)" fill="#D4ECFC" fill-opacity="0.3"/>
<path d="M2.72683 0.1071C3.06662 0.1071 3.37243 0.1564 3.64427 0.255C3.9195 0.3502 4.15395 0.4845 4.34763 0.6579C4.54132 0.8279 4.68913 1.0285 4.79106 1.2597C4.8964 1.4909 4.94907 1.7408 4.94907 2.0094C4.94907 2.244 4.92188 2.4514 4.86752 2.6316C4.81655 2.8084 4.74009 2.9631 4.63816 3.0957C4.53962 3.2283 4.41729 3.3405 4.27118 3.4323C4.12847 3.5241 3.96537 3.6006 3.78188 3.6618C4.22361 3.8012 4.55321 4.0137 4.77067 4.2993C4.98814 4.5849 5.09687 4.9436 5.09687 5.3754C5.09687 5.7426 5.02892 6.0673 4.893 6.3495C4.75708 6.6317 4.5736 6.8697 4.34254 7.0635C4.11148 7.2539 3.84304 7.3984 3.53723 7.497C3.23482 7.5956 2.91371 7.6449 2.57392 7.6449C2.20355 7.6449 1.88075 7.6024 1.60552 7.5174C1.33028 7.4324 1.09073 7.3066 0.886856 7.14C0.682981 6.9734 0.509688 6.7694 0.366975 6.528C0.224263 6.2866 0.101937 6.0078 0 5.6916L0.555559 5.4621C0.650701 5.4213 0.747542 5.4009 0.846081 5.4009C0.934427 5.4009 1.01258 5.4196 1.08054 5.457C1.15189 5.4944 1.20626 5.5488 1.24364 5.6202C1.3048 5.7392 1.37106 5.8565 1.44242 5.9721C1.51717 6.0877 1.60552 6.1914 1.70745 6.2832C1.80939 6.3716 1.92832 6.4447 2.06423 6.5025C2.20355 6.5569 2.36835 6.5841 2.55863 6.5841C2.7727 6.5841 2.95959 6.5501 3.11929 6.4821C3.27899 6.4107 3.41151 6.3189 3.51684 6.2067C3.62558 6.0945 3.70543 5.9704 3.7564 5.8344C3.81076 5.695 3.83795 5.5556 3.83795 5.4162C3.83795 5.2394 3.81926 5.0796 3.78188 4.9368C3.7445 4.7906 3.66635 4.6665 3.54742 4.5645C3.4285 4.4625 3.2569 4.3826 3.03264 4.3248C2.81178 4.267 2.51446 4.2381 2.14069 4.2381V3.3405C2.4499 3.3371 2.70644 3.3082 2.91032 3.2538C3.11419 3.1994 3.27559 3.1246 3.39452 3.0294C3.51684 2.9308 3.60179 2.8135 3.64936 2.6775C3.69693 2.5415 3.72072 2.3919 3.72072 2.2287C3.72072 1.8785 3.62558 1.615 3.43529 1.4382C3.24501 1.258 2.98507 1.1679 2.65547 1.1679C2.35646 1.1679 2.10841 1.2478 1.91133 1.4076C1.71425 1.564 1.57663 1.7663 1.49848 2.0145C1.45771 2.1437 1.40164 2.2372 1.33028 2.295C1.25893 2.3494 1.16549 2.3766 1.04996 2.3766C0.99559 2.3766 0.937825 2.3715 0.876663 2.3613L0.214069 2.244C0.265038 1.8904 0.363577 1.581 0.509688 1.3158C0.655798 1.0472 0.837587 0.8245 1.05505 0.6477C1.27592 0.4675 1.52736 0.3332 1.80939 0.2448C2.09482 0.153 2.40063 0.1071 2.72683 0.1071Z" transform="translate(68.252 41.1938)" fill="#484848"/>
<path d="M6.82551 6.6198H8.3189V2.3205C8.3189 2.1539 8.32399 1.9788 8.33419 1.7952L7.27404 2.6826C7.22986 2.72 7.18399 2.7455 7.13642 2.7591C7.09225 2.7727 7.04808 2.7795 7.0039 2.7795C6.93594 2.7795 6.87308 2.7659 6.81532 2.7387C6.76095 2.7081 6.72018 2.6741 6.69299 2.6367L6.29544 2.091L8.54316 0.1785H9.57782V6.6198H10.903V7.5633H6.82551V6.6198Z" transform="translate(68.252 41.1938)" fill="#484848"/>
<path d="M16.4084 0.7242C16.4084 0.9044 16.3507 1.0506 16.2351 1.1628C16.123 1.275 15.9344 1.3311 15.6694 1.3311H13.6408L13.3758 2.8713C13.7088 2.8033 14.0129 2.7693 14.2881 2.7693C14.6755 2.7693 15.0153 2.8271 15.3075 2.9427C15.6031 3.0583 15.8512 3.2181 16.0517 3.4221C16.2521 3.6261 16.4033 3.8658 16.5053 4.1412C16.6072 4.4132 16.6582 4.7073 16.6582 5.0235C16.6582 5.4145 16.5885 5.7715 16.4492 6.0945C16.3133 6.4175 16.123 6.6946 15.8784 6.9258C15.6337 7.1536 15.3432 7.3304 15.0068 7.4562C14.6738 7.582 14.3102 7.6449 13.9161 7.6449C13.685 7.6449 13.4658 7.6211 13.2586 7.5735C13.0513 7.5259 12.8559 7.463 12.6724 7.3848C12.4923 7.3032 12.3241 7.2114 12.1678 7.1094C12.0149 7.004 11.8773 6.8935 11.755 6.7779L12.1423 6.2424C12.2239 6.1268 12.3326 6.069 12.4685 6.069C12.5535 6.069 12.6384 6.0962 12.7234 6.1506C12.8117 6.205 12.9137 6.2645 13.0292 6.3291C13.1447 6.3937 13.279 6.4532 13.4319 6.5076C13.5848 6.562 13.77 6.5892 13.9874 6.5892C14.2185 6.5892 14.4224 6.5518 14.599 6.477C14.7757 6.4022 14.9218 6.2985 15.0374 6.1659C15.1563 6.0299 15.2446 5.8701 15.3024 5.6865C15.3636 5.4995 15.3942 5.2972 15.3942 5.0796C15.3942 4.6784 15.2769 4.3656 15.0425 4.1412C14.8114 3.9134 14.4699 3.7995 14.018 3.7995C13.6612 3.7995 13.3027 3.8641 12.9426 3.9933L12.1576 3.7689L12.7693 0.1887H16.4084V0.7242Z" transform="translate(68.252 41.1938)" fill="#484848"/>
<path d="M22.5444 7.5633H21.4027L19.3232 2.3307H20.3681C20.4598 2.3307 20.5363 2.3528 20.5974 2.397C20.662 2.4412 20.7062 2.4973 20.7299 2.5653L21.7391 5.3601C21.7969 5.5233 21.8445 5.6831 21.8818 5.8395C21.9226 5.9959 21.9583 6.1523 21.9889 6.3087C22.0195 6.1523 22.0534 5.9959 22.0908 5.8395C22.1316 5.6831 22.1826 5.5233 22.2437 5.3601L23.2784 2.5653C23.3022 2.4973 23.3446 2.4412 23.4058 2.397C23.467 2.3528 23.54 2.3307 23.625 2.3307H24.6189L22.5444 7.5633Z" transform="translate(68.252 41.1938)" fill="#484848"/>
<path d="M26.7005 2.3307V7.5633H25.4415V2.3307H26.7005ZM26.889 0.8058C26.889 0.9146 26.867 1.0166 26.8228 1.1118C26.7786 1.207 26.7191 1.2903 26.6444 1.3617C26.573 1.4331 26.4881 1.4909 26.3895 1.5351C26.291 1.5759 26.1857 1.5963 26.0735 1.5963C25.9648 1.5963 25.8612 1.5759 25.7626 1.5351C25.6675 1.4909 25.5842 1.4331 25.5129 1.3617C25.4415 1.2903 25.3838 1.207 25.3396 1.1118C25.2988 1.0166 25.2784 0.9146 25.2784 0.8058C25.2784 0.6936 25.2988 0.5882 25.3396 0.4896C25.3838 0.391 25.4415 0.306 25.5129 0.2346C25.5842 0.1632 25.6675 0.1071 25.7626 0.0663001C25.8612 0.0221 25.9648 0 26.0735 0C26.1857 0 26.291 0.0221 26.3895 0.0663001C26.4881 0.1071 26.573 0.1632 26.6444 0.2346C26.7191 0.306 26.7786 0.391 26.8228 0.4896C26.867 0.5882 26.889 0.6936 26.889 0.8058Z" transform="translate(68.252 41.1938)" fill="#484848"/>
<path d="M31.2314 3.3507C31.1974 3.4051 31.1618 3.4442 31.1244 3.468C31.087 3.4884 31.0394 3.4986 30.9817 3.4986C30.9205 3.4986 30.8542 3.4816 30.7829 3.4476C30.7149 3.4136 30.6351 3.3762 30.5433 3.3354C30.4516 3.2912 30.3463 3.2521 30.2273 3.2181C30.1118 3.1841 29.9742 3.1671 29.8145 3.1671C29.5664 3.1671 29.3711 3.2198 29.2283 3.3252C29.0856 3.4306 29.0143 3.5683 29.0143 3.7383C29.0143 3.8505 29.05 3.9457 29.1213 4.0239C29.1961 4.0987 29.2929 4.165 29.4118 4.2228C29.5342 4.2806 29.6718 4.3333 29.8247 4.3809C29.9776 4.4251 30.1339 4.4744 30.2936 4.5288C30.4533 4.5832 30.6096 4.6461 30.7625 4.7175C30.9154 4.7855 31.0513 4.8739 31.1703 4.9827C31.2926 5.0881 31.3894 5.2156 31.4608 5.3652C31.5355 5.5148 31.5729 5.695 31.5729 5.9058C31.5729 6.1574 31.527 6.3903 31.4353 6.6045C31.3435 6.8153 31.2093 6.9989 31.0326 7.1553C30.8559 7.3083 30.6368 7.429 30.3751 7.5174C30.1169 7.6024 29.8196 7.6449 29.4832 7.6449C29.3031 7.6449 29.1264 7.6279 28.9531 7.5939C28.7832 7.5633 28.6184 7.5191 28.4587 7.4613C28.3024 7.4035 28.1563 7.3355 28.0204 7.2573C27.8879 7.1791 27.7706 7.0941 27.6687 7.0023L27.9592 6.5229C27.9966 6.4651 28.0408 6.4209 28.0917 6.3903C28.1427 6.3597 28.2073 6.3444 28.2854 6.3444C28.3636 6.3444 28.4366 6.3665 28.5046 6.4107C28.5759 6.4549 28.6575 6.5025 28.7492 6.5535C28.841 6.6045 28.948 6.6521 29.0703 6.6963C29.1961 6.7405 29.3541 6.7626 29.5444 6.7626C29.6939 6.7626 29.8213 6.7456 29.9266 6.7116C30.0354 6.6742 30.1237 6.6266 30.1917 6.5688C30.263 6.511 30.314 6.4447 30.3446 6.3699C30.3785 6.2917 30.3955 6.2118 30.3955 6.1302C30.3955 6.0078 30.3582 5.9075 30.2834 5.8293C30.212 5.7511 30.1152 5.6831 29.9929 5.6253C29.874 5.5675 29.7363 5.5165 29.58 5.4723C29.4271 5.4247 29.2691 5.3737 29.106 5.3193C28.9463 5.2649 28.7883 5.202 28.632 5.1306C28.4791 5.0558 28.3415 4.9623 28.2192 4.8501C28.1002 4.7379 28.0034 4.6002 27.9286 4.437C27.8573 4.2738 27.8216 4.0766 27.8216 3.8454C27.8216 3.6312 27.8641 3.4272 27.949 3.2334C28.034 3.0396 28.158 2.8713 28.3211 2.7285C28.4876 2.5823 28.6932 2.4667 28.9378 2.3817C29.1859 2.2933 29.4713 2.2491 29.7941 2.2491C30.1543 2.2491 30.4822 2.3086 30.7778 2.4276C31.0734 2.5466 31.3198 2.703 31.5168 2.8968L31.2314 3.3507Z" transform="translate(68.252 41.1938)" fill="#484848"/>
<path d="M33.9177 2.3307V7.5633H32.6588V2.3307H33.9177ZM34.1063 0.8058C34.1063 0.9146 34.0842 1.0166 34.04 1.1118C33.9959 1.207 33.9364 1.2903 33.8616 1.3617C33.7903 1.4331 33.7053 1.4909 33.6068 1.5351C33.5083 1.5759 33.4029 1.5963 33.2908 1.5963C33.1821 1.5963 33.0784 1.5759 32.9799 1.5351C32.8847 1.4909 32.8015 1.4331 32.7301 1.3617C32.6588 1.2903 32.601 1.207 32.5568 1.1118C32.5161 1.0166 32.4957 0.9146 32.4957 0.8058C32.4957 0.6936 32.5161 0.5882 32.5568 0.4896C32.601 0.391 32.6588 0.306 32.7301 0.2346C32.8015 0.1632 32.8847 0.1071 32.9799 0.0663001C33.0784 0.0221 33.1821 0 33.2908 0C33.4029 0 33.5083 0.0221 33.6068 0.0663001C33.7053 0.1071 33.7903 0.1632 33.8616 0.2346C33.9364 0.306 33.9959 0.391 34.04 0.4896C34.0842 0.5882 34.1063 0.6936 34.1063 0.8058Z" transform="translate(68.252 41.1938)" fill="#484848"/>
<path d="M37.0623 7.6449C36.6104 7.6449 36.2621 7.5174 36.0175 7.2624C35.7728 7.004 35.6505 6.6487 35.6505 6.1965V3.2742H35.1204C35.0525 3.2742 34.993 3.2521 34.942 3.2079C34.8945 3.1637 34.8707 3.0974 34.8707 3.009V2.5092L35.7117 2.3715L35.9767 0.9435C35.9903 0.8755 36.0209 0.8228 36.0684 0.785399C36.1194 0.748 36.1823 0.7293 36.257 0.7293H36.9094V2.3766H38.2856V3.2742H36.9094V6.1098C36.9094 6.273 36.9502 6.4005 37.0317 6.4923C37.1133 6.5841 37.222 6.63 37.3579 6.63C37.4361 6.63 37.5007 6.6215 37.5516 6.6045C37.606 6.5841 37.6519 6.5637 37.6892 6.5433C37.73 6.5229 37.7657 6.5042 37.7963 6.4872C37.8269 6.4668 37.8574 6.4566 37.888 6.4566C37.9254 6.4566 37.956 6.4668 37.9798 6.4872C38.0035 6.5042 38.029 6.5314 38.0562 6.5688L38.4334 7.1808C38.2499 7.3338 38.0392 7.4494 37.8014 7.5276C37.5635 7.6058 37.3172 7.6449 37.0623 7.6449Z" transform="translate(68.252 41.1938)" fill="#484848"/>
<path d="M41.5192 2.2491C41.91 2.2491 42.2634 2.312 42.5794 2.4378C42.8988 2.5636 43.1706 2.7421 43.3949 2.9733C43.6191 3.2045 43.7924 3.4867 43.9148 3.8199C44.0371 4.1531 44.0982 4.5254 44.0982 4.9368C44.0982 5.3516 44.0371 5.7256 43.9148 6.0588C43.7924 6.392 43.6191 6.6759 43.3949 6.9105C43.1706 7.1451 42.8988 7.3253 42.5794 7.4511C42.2634 7.5769 41.91 7.6398 41.5192 7.6398C41.1285 7.6398 40.7734 7.5769 40.454 7.4511C40.1346 7.3253 39.861 7.1451 39.6334 6.9105C39.4091 6.6759 39.2341 6.392 39.1084 6.0588C38.9861 5.7256 38.9249 5.3516 38.9249 4.9368C38.9249 4.5254 38.9861 4.1531 39.1084 3.8199C39.2341 3.4867 39.4091 3.2045 39.6334 2.9733C39.861 2.7421 40.1346 2.5636 40.454 2.4378C40.7734 2.312 41.1285 2.2491 41.5192 2.2491ZM41.5192 6.6708C41.9542 6.6708 42.2753 6.5246 42.4825 6.2322C42.6932 5.9398 42.7985 5.5114 42.7985 4.947C42.7985 4.3826 42.6932 3.9525 42.4825 3.6567C42.2753 3.3609 41.9542 3.213 41.5192 3.213C41.0775 3.213 40.7513 3.3626 40.5406 3.6618C40.33 3.9576 40.2246 4.386 40.2246 4.947C40.2246 5.508 40.33 5.9364 40.5406 6.2322C40.7513 6.5246 41.0775 6.6708 41.5192 6.6708Z" transform="translate(68.252 41.1938)" fill="#484848"/>
<path d="M45.0805 7.5633V2.3307H45.8195C45.9487 2.3307 46.0387 2.3545 46.0897 2.4021C46.1407 2.4497 46.1746 2.5313 46.1916 2.6469L46.2681 3.2793C46.455 2.9563 46.6741 2.7013 46.9256 2.5143C47.177 2.3273 47.459 2.2338 47.7717 2.2338C48.0299 2.2338 48.244 2.2933 48.4139 2.4123L48.2508 3.3558C48.2406 3.417 48.2185 3.4612 48.1845 3.4884C48.1505 3.5122 48.1047 3.5241 48.0469 3.5241C47.9959 3.5241 47.9263 3.5122 47.8379 3.4884C47.7496 3.4646 47.6323 3.4527 47.4862 3.4527C47.2246 3.4527 47.0003 3.5258 46.8134 3.672C46.6266 3.8148 46.4686 4.0256 46.3394 4.3044V7.5633H45.0805Z" transform="translate(68.252 41.1938)" fill="#484848"/>
<path d="M52.3456 3.3507C52.3116 3.4051 52.276 3.4442 52.2386 3.468C52.2012 3.4884 52.1536 3.4986 52.0959 3.4986C52.0347 3.4986 51.9685 3.4816 51.8971 3.4476C51.8291 3.4136 51.7493 3.3762 51.6575 3.3354C51.5658 3.2912 51.4605 3.2521 51.3415 3.2181C51.226 3.1841 51.0884 3.1671 50.9287 3.1671C50.6806 3.1671 50.4853 3.2198 50.3425 3.3252C50.1998 3.4306 50.1285 3.5683 50.1285 3.7383C50.1285 3.8505 50.1642 3.9457 50.2355 4.0239C50.3103 4.0987 50.4071 4.165 50.526 4.2228C50.6484 4.2806 50.786 4.3333 50.9389 4.3809C51.0918 4.4251 51.2481 4.4744 51.4078 4.5288C51.5675 4.5832 51.7238 4.6461 51.8767 4.7175C52.0296 4.7855 52.1655 4.8739 52.2845 4.9827C52.4068 5.0881 52.5036 5.2156 52.575 5.3652C52.6497 5.5148 52.6871 5.695 52.6871 5.9058C52.6871 6.1574 52.6412 6.3903 52.5495 6.6045C52.4578 6.8153 52.3235 6.9989 52.1468 7.1553C51.9702 7.3083 51.751 7.429 51.4893 7.5174C51.2311 7.6024 50.9338 7.6449 50.5974 7.6449C50.4173 7.6449 50.2406 7.6279 50.0673 7.5939C49.8974 7.5633 49.7326 7.5191 49.5729 7.4613C49.4166 7.4035 49.2705 7.3355 49.1346 7.2573C49.0021 7.1791 48.8848 7.0941 48.7829 7.0023L49.0734 6.5229C49.1108 6.4651 49.155 6.4209 49.2059 6.3903C49.2569 6.3597 49.3215 6.3444 49.3996 6.3444C49.4778 6.3444 49.5508 6.3665 49.6188 6.4107C49.6902 6.4549 49.7717 6.5025 49.8634 6.5535C49.9552 6.6045 50.0622 6.6521 50.1846 6.6963C50.3103 6.7405 50.4683 6.7626 50.6586 6.7626C50.8081 6.7626 50.9355 6.7456 51.0408 6.7116C51.1496 6.6742 51.2379 6.6266 51.3059 6.5688C51.3772 6.511 51.4282 6.4447 51.4588 6.3699C51.4927 6.2917 51.5097 6.2118 51.5097 6.1302C51.5097 6.0078 51.4724 5.9075 51.3976 5.8293C51.3263 5.7511 51.2294 5.6831 51.1071 5.6253C50.9882 5.5675 50.8505 5.5165 50.6942 5.4723C50.5413 5.4247 50.3833 5.3737 50.2202 5.3193C50.0605 5.2649 49.9025 5.202 49.7462 5.1306C49.5933 5.0558 49.4557 4.9623 49.3334 4.8501C49.2144 4.7379 49.1176 4.6002 49.0429 4.437C48.9715 4.2738 48.9358 4.0766 48.9358 3.8454C48.9358 3.6312 48.9783 3.4272 49.0632 3.2334C49.1482 3.0396 49.2722 2.8713 49.4353 2.7285C49.6018 2.5823 49.8074 2.4667 50.052 2.3817C50.3001 2.2933 50.5855 2.2491 50.9083 2.2491C51.2685 2.2491 51.5964 2.3086 51.892 2.4276C52.1876 2.5466 52.434 2.703 52.6311 2.8968L52.3456 3.3507Z" transform="translate(68.252 41.1938)" fill="#484848"/>
<path d="M59.317 3.3507C59.2864 3.3881 59.2558 3.4187 59.2252 3.4425C59.198 3.4629 59.1573 3.4731 59.1029 3.4731C59.0485 3.4731 58.9908 3.4527 58.9296 3.4119C58.8718 3.3677 58.7971 3.3218 58.7053 3.2742C58.617 3.2232 58.5082 3.1773 58.3791 3.1365C58.2534 3.0923 58.0971 3.0702 57.9102 3.0702C57.6656 3.0702 57.4498 3.1144 57.2629 3.2028C57.076 3.2912 56.9197 3.417 56.794 3.5802C56.6717 3.7434 56.5782 3.9423 56.5137 4.1769C56.4491 4.4115 56.4168 4.675 56.4168 4.9674C56.4168 5.27 56.4508 5.5403 56.5188 5.7783C56.5867 6.0129 56.6836 6.2118 56.8093 6.375C56.935 6.5348 57.0879 6.6572 57.268 6.7422C57.4481 6.8238 57.6486 6.8646 57.8694 6.8646C58.0835 6.8646 58.2602 6.8391 58.3995 6.7881C58.5388 6.7337 58.6544 6.6759 58.7461 6.6147C58.8378 6.5535 58.9143 6.4974 58.9755 6.4464C59.0366 6.392 59.0995 6.3648 59.1641 6.3648C59.2456 6.3648 59.3085 6.3954 59.3526 6.4566L59.6381 6.8238C59.5191 6.97 59.3849 7.0941 59.2354 7.1961C59.0893 7.2981 58.933 7.3814 58.7665 7.446C58.6 7.5106 58.425 7.5582 58.2415 7.5888C58.0614 7.6194 57.8779 7.6347 57.6911 7.6347C57.3682 7.6347 57.0658 7.5752 56.7838 7.4562C56.5052 7.3372 56.2622 7.1638 56.055 6.936C55.8511 6.7082 55.6897 6.4294 55.5707 6.0996C55.4518 5.7664 55.3924 5.389 55.3924 4.9674C55.3924 4.5832 55.445 4.2279 55.5504 3.9015C55.6591 3.5751 55.8171 3.2946 56.0244 3.06C56.235 2.822 56.4933 2.6367 56.7991 2.5041C57.1049 2.3681 57.4549 2.3001 57.8491 2.3001C58.2194 2.3001 58.5456 2.3596 58.8277 2.4786C59.1097 2.5976 59.3611 2.7659 59.582 2.9835L59.317 3.3507Z" transform="translate(68.252 41.1938)" fill="#484848"/>
<path d="M64.8727 2.3817V7.5633H64.2764C64.1405 7.5633 64.0521 7.497 64.0113 7.3644L63.94 6.8442C63.8279 6.9632 63.7106 7.072 63.5883 7.1706C63.466 7.2692 63.3351 7.3542 63.1958 7.4256C63.0565 7.4936 62.9087 7.5463 62.7524 7.5837C62.5961 7.6245 62.4279 7.6449 62.2478 7.6449C61.9624 7.6449 61.7109 7.5973 61.4935 7.5021C61.2794 7.4069 61.0993 7.2743 60.9532 7.1043C60.8071 6.9309 60.6967 6.7235 60.6219 6.4821C60.5472 6.2407 60.5098 5.9738 60.5098 5.6814V2.3817H61.5088V5.6814C61.5088 6.052 61.5937 6.341 61.7636 6.5484C61.9335 6.7524 62.1935 6.8544 62.5434 6.8544C62.7983 6.8544 63.0361 6.7949 63.257 6.6759C63.4779 6.5535 63.6851 6.3869 63.8788 6.1761V2.3817H64.8727Z" transform="translate(68.252 41.1938)" fill="#484848"/>
<path d="M67.1978 3.3762C67.3643 3.0362 67.5648 2.7693 67.7993 2.5755C68.0337 2.3817 68.3158 2.2848 68.6453 2.2848C68.7575 2.2848 68.8628 2.2984 68.9614 2.3256C69.0633 2.3494 69.1516 2.3868 69.2264 2.4378L69.1601 3.1875C69.1364 3.2793 69.0803 3.3252 68.9919 3.3252C68.9444 3.3252 68.873 3.3167 68.7779 3.2997C68.6827 3.2793 68.5808 3.2691 68.4721 3.2691C68.3124 3.2691 68.1713 3.2929 68.049 3.3405C67.9267 3.3847 67.8163 3.4527 67.7177 3.5445C67.6226 3.6329 67.5376 3.7434 67.4629 3.876C67.3881 4.0052 67.3185 4.1531 67.2539 4.3197V7.5633H66.26V2.3817H66.8309C66.9396 2.3817 67.0126 2.4021 67.05 2.4429C67.0908 2.4803 67.1197 2.5483 67.1367 2.6469L67.1978 3.3762Z" transform="translate(68.252 41.1938)" fill="#484848"/>
<path d="M70.9309 3.3762C71.0974 3.0362 71.2979 2.7693 71.5323 2.5755C71.7668 2.3817 72.0488 2.2848 72.3784 2.2848C72.4905 2.2848 72.5959 2.2984 72.6944 2.3256C72.7964 2.3494 72.8847 2.3868 72.9595 2.4378L72.8932 3.1875C72.8694 3.2793 72.8133 3.3252 72.725 3.3252C72.6774 3.3252 72.6061 3.3167 72.5109 3.2997C72.4158 3.2793 72.3139 3.2691 72.2051 3.2691C72.0454 3.2691 71.9044 3.2929 71.7821 3.3405C71.6598 3.3847 71.5493 3.4527 71.4508 3.5445C71.3556 3.6329 71.2707 3.7434 71.1959 3.876C71.1212 4.0052 71.0515 4.1531 70.987 4.3197V7.5633H69.9931V2.3817H70.5639C70.6727 2.3817 70.7457 2.4021 70.7831 2.4429C70.8239 2.4803 70.8528 2.5483 70.8697 2.6469L70.9309 3.3762Z" transform="translate(68.252 41.1938)" fill="#484848"/>
<path d="M76.9672 4.3962C76.9672 4.199 76.9383 4.0171 76.8805 3.8505C76.8262 3.6839 76.7446 3.5394 76.6359 3.417C76.5272 3.2946 76.3946 3.1994 76.2383 3.1314C76.082 3.0634 75.9019 3.0294 75.6981 3.0294C75.2801 3.0294 74.9505 3.1501 74.7093 3.3915C74.4714 3.6329 74.3202 3.9678 74.2557 4.3962H76.9672ZM77.7878 6.8238C77.6655 6.9666 77.5245 7.0907 77.3648 7.1961C77.205 7.2981 77.0351 7.3814 76.8551 7.446C76.675 7.5106 76.4881 7.5582 76.2944 7.5888C76.1041 7.6194 75.9155 7.6347 75.7287 7.6347C75.3719 7.6347 75.0406 7.5752 74.7348 7.4562C74.4323 7.3338 74.169 7.157 73.9447 6.9258C73.7239 6.6912 73.5506 6.4022 73.4249 6.0588C73.3025 5.712 73.2414 5.3142 73.2414 4.8654C73.2414 4.505 73.2974 4.1701 73.4096 3.8607C73.5217 3.5479 73.6814 3.2759 73.8887 3.0447C74.0993 2.8135 74.3559 2.6316 74.6583 2.499C74.9607 2.3664 75.3005 2.3001 75.6777 2.3001C75.9937 2.3001 76.2842 2.3528 76.5492 2.4582C76.8177 2.5602 77.0487 2.7098 77.2424 2.907C77.4361 3.1042 77.5873 3.3473 77.696 3.6363C77.8082 3.9253 77.8642 4.2551 77.8642 4.6257C77.8642 4.7787 77.8473 4.8824 77.8133 4.9368C77.7793 4.9878 77.7164 5.0133 77.6247 5.0133H74.2302C74.2404 5.3227 74.2845 5.593 74.3627 5.8242C74.4408 6.052 74.5479 6.2424 74.6838 6.3954C74.8231 6.5484 74.9879 6.6623 75.1782 6.7371C75.3685 6.8119 75.5808 6.8493 75.8153 6.8493C76.0362 6.8493 76.2264 6.8238 76.3862 6.7728C76.5492 6.7218 76.6886 6.6674 76.8041 6.6096C76.923 6.5484 77.0216 6.4923 77.0997 6.4413C77.1813 6.3903 77.2526 6.3648 77.3138 6.3648C77.3953 6.3648 77.4582 6.3954 77.5024 6.4566L77.7878 6.8238Z" transform="translate(68.252 41.1938)" fill="#484848"/>
<path d="M79.8652 3.1008C79.9774 2.9818 80.0946 2.873 80.2169 2.7744C80.3393 2.6758 80.4684 2.5925 80.6043 2.5245C80.7436 2.4531 80.8914 2.3987 81.0477 2.3613C81.2074 2.3205 81.3773 2.3001 81.5574 2.3001C81.8428 2.3001 82.0926 2.3477 82.3066 2.4429C82.5241 2.5381 82.7059 2.6724 82.852 2.8458C82.9981 3.0158 83.1086 3.2215 83.1833 3.4629C83.2581 3.7043 83.2954 3.9712 83.2954 4.2636V7.5633H82.2965V4.2636C82.2965 3.893 82.2115 3.6057 82.0416 3.4017C81.8717 3.1943 81.6118 3.0906 81.2618 3.0906C81.0069 3.0906 80.7674 3.1518 80.5431 3.2742C80.3223 3.3932 80.1167 3.5564 79.9264 3.7638V7.5633H78.9325V2.3817H79.5288C79.6682 2.3817 79.7548 2.448 79.7888 2.5806L79.8652 3.1008Z" transform="translate(68.252 41.1938)" fill="#484848"/>
<path d="M86.1878 7.6449C85.7698 7.6449 85.447 7.5276 85.2194 7.293C84.9951 7.0584 84.883 6.7235 84.883 6.2883V3.1875H84.2815C84.2238 3.1875 84.1745 3.1705 84.1337 3.1365C84.0963 3.0991 84.0777 3.0447 84.0777 2.9733V2.5704L84.9186 2.4531L85.1429 0.9078C85.1565 0.85 85.182 0.8058 85.2194 0.7752C85.2601 0.7412 85.3111 0.7242 85.3723 0.7242H85.8769V2.4633H87.3447V3.1875H85.8769V6.222C85.8769 6.426 85.9261 6.579 86.0247 6.681C86.1266 6.7796 86.2557 6.8289 86.412 6.8289C86.5038 6.8289 86.5819 6.817 86.6465 6.7932C86.7144 6.7694 86.7722 6.7439 86.8198 6.7167C86.8673 6.6861 86.9081 6.6589 86.9421 6.6351C86.9761 6.6113 87.0067 6.5994 87.0338 6.5994C87.0678 6.5994 87.0933 6.6079 87.1103 6.6249C87.1307 6.6385 87.1511 6.6623 87.1715 6.6963L87.4671 7.1757C87.304 7.3253 87.1103 7.4409 86.886 7.5225C86.6618 7.6041 86.429 7.6449 86.1878 7.6449Z" transform="translate(68.252 41.1938)" fill="#484848"/>
<path d="M89.2796 0.0356998V7.5633H88.2806V0.0356998H89.2796Z" transform="translate(68.252 41.1938)" fill="#484848"/>
<path d="M95.2252 2.3817L92.3505 9.0678C92.3199 9.1426 92.2792 9.2004 92.2282 9.2412C92.1772 9.282 92.1025 9.3024 92.0039 9.3024H91.2649L92.2129 7.2369L90.0875 2.3817H90.954C91.0389 2.3817 91.1052 2.4021 91.1528 2.4429C91.2003 2.4837 91.2343 2.5296 91.2547 2.5806L92.5697 5.6916C92.5969 5.7698 92.6224 5.8497 92.6461 5.9313C92.6733 6.0095 92.6954 6.0877 92.7124 6.1659C92.7362 6.0843 92.7617 6.0044 92.7888 5.9262C92.816 5.8446 92.8449 5.7647 92.8755 5.6865L94.1446 2.5806C94.1684 2.5228 94.2058 2.4752 94.2567 2.4378C94.3077 2.4004 94.3655 2.3817 94.43 2.3817H95.2252Z" transform="translate(68.252 41.1938)" fill="#484848"/>
<path d="M102.561 2.3817L100.461 7.5633H99.5642L97.4643 2.3817H98.2849C98.363 2.3817 98.4276 2.4004 98.4785 2.4378C98.5295 2.4752 98.5635 2.5228 98.5805 2.5806L99.819 5.763C99.8632 5.8956 99.9006 6.0282 99.9312 6.1608C99.9651 6.29 99.9957 6.4192 100.023 6.5484C100.05 6.4192 100.081 6.29 100.115 6.1608C100.149 6.0316 100.189 5.899 100.237 5.763L101.491 2.5806C101.511 2.5228 101.547 2.4752 101.598 2.4378C101.649 2.4004 101.71 2.3817 101.781 2.3817H102.561Z" transform="translate(68.252 41.1938)" fill="#484848"/>
<path d="M104.391 2.3817V7.5633H103.398V2.3817H104.391ZM104.58 0.7803C104.58 0.8721 104.561 0.960499 104.524 1.0455C104.487 1.1271 104.436 1.2002 104.371 1.2648C104.31 1.326 104.237 1.3753 104.152 1.4127C104.067 1.4467 103.979 1.4637 103.887 1.4637C103.795 1.4637 103.709 1.4467 103.627 1.4127C103.545 1.3753 103.472 1.326 103.408 1.2648C103.347 1.2002 103.297 1.1271 103.26 1.0455C103.226 0.960499 103.209 0.8721 103.209 0.7803C103.209 0.6851 103.226 0.5967 103.26 0.5151C103.297 0.4301 103.347 0.357 103.408 0.2958C103.472 0.2312 103.545 0.181899 103.627 0.1479C103.709 0.1105 103.795 0.0918001 103.887 0.0918001C103.979 0.0918001 104.067 0.1105 104.152 0.1479C104.237 0.181899 104.31 0.2312 104.371 0.2958C104.436 0.357 104.487 0.4301 104.524 0.5151C104.561 0.5967 104.58 0.6851 104.58 0.7803Z" transform="translate(68.252 41.1938)" fill="#484848"/>
<path d="M109.261 4.3962C109.261 4.199 109.232 4.0171 109.174 3.8505C109.12 3.6839 109.038 3.5394 108.929 3.417C108.821 3.2946 108.688 3.1994 108.532 3.1314C108.376 3.0634 108.195 3.0294 107.992 3.0294C107.574 3.0294 107.244 3.1501 107.003 3.3915C106.765 3.6329 106.614 3.9678 106.549 4.3962H109.261ZM110.081 6.8238C109.959 6.9666 109.818 7.0907 109.658 7.1961C109.499 7.2981 109.329 7.3814 109.149 7.446C108.968 7.5106 108.782 7.5582 108.588 7.5888C108.398 7.6194 108.209 7.6347 108.022 7.6347C107.665 7.6347 107.334 7.5752 107.028 7.4562C106.726 7.3338 106.462 7.157 106.238 6.9258C106.017 6.6912 105.844 6.4022 105.718 6.0588C105.596 5.712 105.535 5.3142 105.535 4.8654C105.535 4.505 105.591 4.1701 105.703 3.8607C105.815 3.5479 105.975 3.2759 106.182 3.0447C106.393 2.8135 106.649 2.6316 106.952 2.499C107.254 2.3664 107.594 2.3001 107.971 2.3001C108.287 2.3001 108.578 2.3528 108.843 2.4582C109.111 2.5602 109.342 2.7098 109.536 2.907C109.73 3.1042 109.881 3.3473 109.99 3.6363C110.102 3.9253 110.158 4.2551 110.158 4.6257C110.158 4.7787 110.141 4.8824 110.107 4.9368C110.073 4.9878 110.01 5.0133 109.918 5.0133H106.524C106.534 5.3227 106.578 5.593 106.656 5.8242C106.734 6.052 106.841 6.2424 106.977 6.3954C107.117 6.5484 107.281 6.6623 107.472 6.7371C107.662 6.8119 107.874 6.8493 108.109 6.8493C108.33 6.8493 108.52 6.8238 108.68 6.7728C108.843 6.7218 108.982 6.6674 109.098 6.6096C109.216 6.5484 109.315 6.4923 109.393 6.4413C109.475 6.3903 109.546 6.3648 109.607 6.3648C109.689 6.3648 109.752 6.3954 109.796 6.4566L110.081 6.8238Z" transform="translate(68.252 41.1938)" fill="#484848"/>
<path d="M118.368 2.3817L116.701 7.5633H115.906C115.811 7.5633 115.747 7.5004 115.713 7.3746L114.622 3.9984C114.595 3.9134 114.571 3.8301 114.551 3.7485C114.53 3.6635 114.512 3.5785 114.495 3.4935C114.464 3.6703 114.421 3.842 114.367 4.0086L113.261 7.3746C113.227 7.5004 113.154 7.5633 113.042 7.5633H112.288L110.616 2.3817H111.401C111.479 2.3817 111.543 2.4004 111.594 2.4378C111.649 2.4752 111.684 2.5228 111.701 2.5806L112.634 5.763C112.665 5.8922 112.692 6.018 112.716 6.1404C112.74 6.2628 112.762 6.3852 112.782 6.5076C112.813 6.3852 112.845 6.2628 112.879 6.1404C112.916 6.018 112.954 5.8922 112.991 5.763L114.026 2.5602C114.043 2.5024 114.075 2.4565 114.122 2.4225C114.17 2.3851 114.228 2.3664 114.296 2.3664H114.729C114.804 2.3664 114.865 2.3851 114.912 2.4225C114.963 2.4565 114.997 2.5024 115.014 2.5602L116.024 5.763C116.061 5.8922 116.097 6.0197 116.131 6.1455C116.165 6.2679 116.195 6.392 116.222 6.5178C116.243 6.3954 116.267 6.273 116.294 6.1506C116.321 6.0248 116.351 5.8956 116.385 5.763L117.333 2.5806C117.35 2.5228 117.384 2.4752 117.435 2.4378C117.49 2.4004 117.551 2.3817 117.619 2.3817H118.368Z" transform="translate(68.252 41.1938)" fill="#484848"/>
<path d="M120.25 2.3817V7.5633H119.256V2.3817H120.25ZM120.438 0.7803C120.438 0.8721 120.419 0.960499 120.382 1.0455C120.345 1.1271 120.294 1.2002 120.229 1.2648C120.168 1.326 120.095 1.3753 120.01 1.4127C119.925 1.4467 119.837 1.4637 119.745 1.4637C119.653 1.4637 119.567 1.4467 119.485 1.4127C119.403 1.3753 119.33 1.326 119.266 1.2648C119.205 1.2002 119.155 1.1271 119.118 1.0455C119.084 0.960499 119.067 0.8721 119.067 0.7803C119.067 0.6851 119.084 0.5967 119.118 0.5151C119.155 0.4301 119.205 0.357 119.266 0.2958C119.33 0.2312 119.403 0.181899 119.485 0.1479C119.567 0.1105 119.653 0.0918001 119.745 0.0918001C119.837 0.0918001 119.925 0.1105 120.01 0.1479C120.095 0.181899 120.168 0.2312 120.229 0.2958C120.294 0.357 120.345 0.4301 120.382 0.5151C120.419 0.5967 120.438 0.6851 120.438 0.7803Z" transform="translate(68.252 41.1938)" fill="#484848"/>
<path d="M122.621 3.1008C122.733 2.9818 122.851 2.873 122.973 2.7744C123.095 2.6758 123.224 2.5925 123.36 2.5245C123.5 2.4531 123.647 2.3987 123.804 2.3613C123.963 2.3205 124.133 2.3001 124.313 2.3001C124.599 2.3001 124.849 2.3477 125.063 2.4429C125.28 2.5381 125.462 2.6724 125.608 2.8458C125.754 3.0158 125.865 3.2215 125.939 3.4629C126.014 3.7043 126.051 3.9712 126.051 4.2636V7.5633H125.052V4.2636C125.052 3.893 124.968 3.6057 124.798 3.4017C124.628 3.1943 124.368 3.0906 124.018 3.0906C123.763 3.0906 123.523 3.1518 123.299 3.2742C123.078 3.3932 122.873 3.5564 122.682 3.7638V7.5633H121.689V2.3817H122.285C122.424 2.3817 122.511 2.448 122.545 2.5806L122.621 3.1008Z" transform="translate(68.252 41.1938)" fill="#484848"/>
<path d="M129.212 4.9776C129.389 4.9776 129.544 4.9538 129.676 4.9062C129.812 4.8586 129.924 4.7923 130.012 4.7073C130.104 4.6189 130.172 4.5135 130.216 4.3911C130.264 4.2687 130.288 4.1344 130.288 3.9882C130.288 3.689 130.196 3.451 130.012 3.2742C129.832 3.094 129.566 3.0039 129.212 3.0039C128.862 3.0039 128.596 3.094 128.412 3.2742C128.232 3.451 128.142 3.689 128.142 3.9882C128.142 4.1344 128.164 4.2687 128.208 4.3911C128.256 4.5101 128.324 4.6138 128.412 4.7022C128.504 4.7872 128.616 4.8552 128.748 4.9062C128.884 4.9538 129.039 4.9776 129.212 4.9776ZM130.797 7.8336C130.797 7.7112 130.763 7.6143 130.695 7.5429C130.627 7.4681 130.534 7.4103 130.415 7.3695C130.3 7.3253 130.164 7.2947 130.007 7.2777C129.851 7.2573 129.686 7.242 129.513 7.2318C129.343 7.2216 129.168 7.2131 128.988 7.2063C128.808 7.1961 128.635 7.1791 128.468 7.1553C128.291 7.2437 128.145 7.3508 128.03 7.4766C127.918 7.6024 127.862 7.7503 127.862 7.9203C127.862 8.0291 127.889 8.1311 127.943 8.2263C128.001 8.3215 128.088 8.4031 128.203 8.4711C128.322 8.5425 128.47 8.5969 128.646 8.6343C128.827 8.6751 129.041 8.6955 129.289 8.6955C129.533 8.6955 129.749 8.6734 129.936 8.6292C130.123 8.5884 130.279 8.5289 130.405 8.4507C130.534 8.3759 130.631 8.2858 130.695 8.1804C130.763 8.075 130.797 7.9594 130.797 7.8336ZM131.807 2.5755V2.9478C131.807 3.0702 131.73 3.1467 131.577 3.1773L131.022 3.2589C131.069 3.3643 131.107 3.4765 131.134 3.5955C131.161 3.7111 131.175 3.8335 131.175 3.9627C131.175 4.2177 131.125 4.4489 131.027 4.6563C130.928 4.8603 130.792 5.0354 130.619 5.1816C130.446 5.3278 130.238 5.44 129.997 5.5182C129.759 5.5964 129.498 5.6355 129.212 5.6355C128.978 5.6355 128.759 5.61 128.555 5.559C128.453 5.6202 128.375 5.6882 128.32 5.763C128.269 5.8344 128.244 5.9058 128.244 5.9772C128.244 6.0962 128.293 6.1846 128.392 6.2424C128.494 6.3002 128.624 6.3427 128.784 6.3699C128.947 6.3937 129.132 6.409 129.34 6.4158C129.55 6.4226 129.763 6.4345 129.977 6.4515C130.194 6.4651 130.407 6.4923 130.614 6.5331C130.825 6.5705 131.01 6.6334 131.169 6.7218C131.333 6.8068 131.463 6.9258 131.562 7.0788C131.664 7.2284 131.715 7.4239 131.715 7.6653C131.715 7.8897 131.659 8.1073 131.547 8.3181C131.438 8.5289 131.278 8.7159 131.067 8.8791C130.857 9.0423 130.6 9.1732 130.298 9.2718C129.995 9.3704 129.652 9.4197 129.268 9.4197C128.884 9.4197 128.55 9.3823 128.264 9.3075C127.982 9.2327 127.746 9.1324 127.556 9.0066C127.369 8.8808 127.228 8.7346 127.133 8.568C127.041 8.4014 126.995 8.228 126.995 8.0478C126.995 7.7962 127.073 7.5837 127.23 7.4103C127.386 7.2335 127.602 7.0958 127.877 6.9972C127.727 6.9292 127.608 6.8374 127.52 6.7218C127.432 6.6028 127.388 6.4464 127.388 6.2526C127.388 6.1778 127.401 6.1013 127.428 6.0231C127.455 5.9415 127.496 5.8616 127.551 5.7834C127.608 5.7018 127.678 5.6253 127.76 5.5539C127.845 5.4825 127.941 5.4179 128.05 5.3601C127.795 5.2173 127.595 5.0286 127.449 4.794C127.303 4.556 127.23 4.2789 127.23 3.9627C127.23 3.7077 127.279 3.4782 127.377 3.2742C127.476 3.0702 127.612 2.8951 127.785 2.7489C127.962 2.6027 128.171 2.4905 128.412 2.4123C128.657 2.3341 128.923 2.295 129.212 2.295C129.661 2.295 130.046 2.3885 130.369 2.5755H131.807Z" transform="translate(68.252 41.1938)" fill="#484848"/>
<path d="M136.918 7.6449C136.5 7.6449 136.177 7.5276 135.949 7.293C135.725 7.0584 135.613 6.7235 135.613 6.2883V3.1875H135.011C134.954 3.1875 134.904 3.1705 134.864 3.1365C134.826 3.0991 134.807 3.0447 134.807 2.9733V2.5704L135.648 2.4531L135.873 0.9078C135.886 0.85 135.912 0.8058 135.949 0.7752C135.99 0.7412 136.041 0.7242 136.102 0.7242H136.607V2.4633H138.075V3.1875H136.607V6.222C136.607 6.426 136.656 6.579 136.754 6.681C136.856 6.7796 136.986 6.8289 137.142 6.8289C137.234 6.8289 137.312 6.817 137.376 6.7932C137.444 6.7694 137.502 6.7439 137.55 6.7167C137.597 6.6861 137.638 6.6589 137.672 6.6351C137.706 6.6113 137.736 6.5994 137.764 6.5994C137.798 6.5994 137.823 6.6079 137.84 6.6249C137.861 6.6385 137.881 6.6623 137.901 6.6963L138.197 7.1757C138.034 7.3253 137.84 7.4409 137.616 7.5225C137.392 7.6041 137.159 7.6449 136.918 7.6449Z" transform="translate(68.252 41.1938)" fill="#484848"/>
<path d="M139.984 3.0396C140.201 2.8186 140.441 2.6401 140.703 2.5041C140.968 2.3681 141.272 2.3001 141.615 2.3001C141.9 2.3001 142.15 2.3477 142.364 2.4429C142.582 2.5381 142.763 2.6724 142.91 2.8458C143.056 3.0158 143.166 3.2215 143.241 3.4629C143.316 3.7043 143.353 3.9712 143.353 4.2636V7.5633H142.354V4.2636C142.354 3.893 142.269 3.6057 142.099 3.4017C141.929 3.1943 141.669 3.0906 141.319 3.0906C141.064 3.0906 140.825 3.1518 140.601 3.2742C140.38 3.3932 140.174 3.5564 139.984 3.7638V7.5633H138.99V0.0356998H139.984V3.0396Z" transform="translate(68.252 41.1938)" fill="#484848"/>
<path d="M145.734 2.3817V7.5633H144.74V2.3817H145.734ZM145.922 0.7803C145.922 0.8721 145.904 0.960499 145.866 1.0455C145.829 1.1271 145.778 1.2002 145.714 1.2648C145.652 1.326 145.579 1.3753 145.494 1.4127C145.409 1.4467 145.321 1.4637 145.229 1.4637C145.138 1.4637 145.051 1.4467 144.969 1.4127C144.888 1.3753 144.815 1.326 144.75 1.2648C144.689 1.2002 144.64 1.1271 144.602 1.0455C144.568 0.960499 144.551 0.8721 144.551 0.7803C144.551 0.6851 144.568 0.5967 144.602 0.5151C144.64 0.4301 144.689 0.357 144.75 0.2958C144.815 0.2312 144.888 0.181899 144.969 0.1479C145.051 0.1105 145.138 0.0918001 145.229 0.0918001C145.321 0.0918001 145.409 0.1105 145.494 0.1479C145.579 0.181899 145.652 0.2312 145.714 0.2958C145.778 0.357 145.829 0.4301 145.866 0.5151C145.904 0.5967 145.922 0.6851 145.922 0.7803Z" transform="translate(68.252 41.1938)" fill="#484848"/>
<path d="M150.226 3.2742C150.199 3.3184 150.17 3.3507 150.139 3.3711C150.109 3.3881 150.07 3.3966 150.022 3.3966C149.968 3.3966 149.907 3.3779 149.839 3.3405C149.774 3.3031 149.694 3.2623 149.599 3.2181C149.507 3.1739 149.399 3.1331 149.273 3.0957C149.147 3.0583 148.998 3.0396 148.824 3.0396C148.682 3.0396 148.551 3.0583 148.432 3.0957C148.316 3.1297 148.218 3.179 148.136 3.2436C148.055 3.3048 147.992 3.3796 147.948 3.468C147.903 3.553 147.881 3.6448 147.881 3.7434C147.881 3.8726 147.919 3.9797 147.993 4.0647C148.072 4.1497 148.172 4.2228 148.294 4.284C148.42 4.3452 148.561 4.4013 148.717 4.4523C148.877 4.4999 149.038 4.5509 149.201 4.6053C149.368 4.6597 149.529 4.7226 149.686 4.794C149.845 4.862 149.986 4.9487 150.109 5.0541C150.234 5.1561 150.335 5.2802 150.409 5.4264C150.488 5.5726 150.527 5.7511 150.527 5.9619C150.527 6.2033 150.482 6.4277 150.394 6.6351C150.309 6.8391 150.182 7.0159 150.012 7.1655C149.845 7.3151 149.638 7.4324 149.39 7.5174C149.142 7.6024 148.858 7.6449 148.539 7.6449C148.182 7.6449 147.852 7.5854 147.55 7.4664C147.248 7.3474 146.995 7.1961 146.791 7.0125L147.025 6.63C147.052 6.5824 147.086 6.5467 147.127 6.5229C147.168 6.4957 147.222 6.4821 147.29 6.4821C147.355 6.4821 147.421 6.5059 147.489 6.5535C147.557 6.6011 147.638 6.6538 147.734 6.7116C147.829 6.766 147.944 6.817 148.08 6.8646C148.216 6.9088 148.386 6.9309 148.59 6.9309C148.76 6.9309 148.908 6.9105 149.033 6.8697C149.159 6.8255 149.263 6.7677 149.344 6.6963C149.429 6.6215 149.492 6.5365 149.533 6.4413C149.574 6.3461 149.594 6.2458 149.594 6.1404C149.594 6.0044 149.555 5.8922 149.477 5.8038C149.402 5.712 149.302 5.6338 149.176 5.5692C149.054 5.5046 148.913 5.4485 148.753 5.4009C148.593 5.3533 148.43 5.3023 148.264 5.2479C148.097 5.1935 147.934 5.1306 147.774 5.0592C147.615 4.9878 147.472 4.8977 147.346 4.7889C147.224 4.6801 147.124 4.5475 147.045 4.3911C146.971 4.2347 146.933 4.0443 146.933 3.8199C146.933 3.6193 146.974 3.4272 147.056 3.2436C147.141 3.06 147.261 2.8985 147.418 2.7591C147.577 2.6197 147.773 2.5092 148.004 2.4276C148.238 2.3426 148.505 2.3001 148.804 2.3001C149.147 2.3001 149.456 2.3545 149.732 2.4633C150.01 2.5721 150.248 2.7217 150.445 2.9121L150.226 3.2742Z" transform="translate(68.252 41.1938)" fill="#484848"/>
<path d="M1.23344 18.674C1.39654 18.8882 1.57154 19.0378 1.75842 19.1228C1.94871 19.2078 2.16108 19.2503 2.39553 19.2503C2.85085 19.2503 3.20254 19.0871 3.45058 18.7607C3.70203 18.4309 3.82775 17.9515 3.82775 17.3225C3.82775 16.9927 3.79887 16.7122 3.74111 16.481C3.68674 16.2464 3.60519 16.056 3.49646 15.9098C3.39112 15.7602 3.2603 15.6514 3.104 15.5834C2.94769 15.512 2.771 15.4763 2.57392 15.4763C2.2851 15.4763 2.03365 15.5409 1.81958 15.6701C1.60891 15.7993 1.41353 15.9829 1.23344 16.2209V18.674ZM1.18248 15.5426C1.29121 15.4134 1.40674 15.2961 1.52906 15.1907C1.65479 15.0819 1.789 14.9901 1.93172 14.9153C2.07443 14.8371 2.22564 14.7776 2.38534 14.7368C2.54844 14.6926 2.72173 14.6705 2.90522 14.6705C3.20084 14.6705 3.46757 14.7283 3.70543 14.8439C3.94668 14.9595 4.15225 15.1295 4.32215 15.3539C4.49205 15.5783 4.62287 15.8554 4.71461 16.1852C4.80975 16.515 4.85732 16.8941 4.85732 17.3225C4.85732 17.7067 4.80465 18.0637 4.69932 18.3935C4.59738 18.7199 4.44957 19.0038 4.25589 19.2452C4.06561 19.4866 3.83115 19.677 3.55252 19.8164C3.27729 19.9524 2.96638 20.0204 2.61979 20.0204C2.31058 20.0204 2.04555 19.9694 1.82468 19.8674C1.60382 19.7654 1.40674 19.6226 1.23344 19.439V21.6881H0.239553V14.7674H0.835888C0.975202 14.7674 1.06185 14.8337 1.09583 14.9663L1.18248 15.5426Z" transform="translate(68.252 41.1938)" fill="#484848"/>
<path d="M8.75643 17.6489C8.35208 17.6625 8.00889 17.6948 7.72686 17.7458C7.44484 17.7934 7.21548 17.858 7.03878 17.9396C6.86209 18.0212 6.73467 18.1181 6.65652 18.2303C6.57837 18.3391 6.53929 18.4615 6.53929 18.5975C6.53929 18.7267 6.55968 18.8389 6.60045 18.9341C6.64463 19.0259 6.70239 19.1024 6.77375 19.1636C6.8485 19.2214 6.93515 19.2639 7.03369 19.2911C7.13223 19.3183 7.23926 19.3319 7.35479 19.3319C7.5077 19.3319 7.64701 19.3166 7.77273 19.286C7.90185 19.2554 8.02248 19.2129 8.13461 19.1585C8.24674 19.1007 8.35378 19.031 8.45572 18.9494C8.55765 18.8678 8.65789 18.7743 8.75643 18.6689V17.6489ZM5.84102 15.4916C6.12984 15.2162 6.44245 15.0105 6.77884 14.8745C7.11864 14.7385 7.49071 14.6705 7.89506 14.6705C8.19068 14.6705 8.45232 14.7198 8.67998 14.8184C8.90764 14.9136 9.09962 15.0479 9.25593 15.2213C9.41223 15.3947 9.52946 15.6021 9.60761 15.8435C9.68916 16.0849 9.72993 16.3518 9.72993 16.6442V19.949H9.28651C9.18797 19.949 9.11321 19.9337 9.06224 19.9031C9.01128 19.8691 8.9705 19.8079 8.93992 19.7195L8.83288 19.2656C8.70037 19.388 8.56955 19.4968 8.44042 19.592C8.3113 19.6838 8.17539 19.7637 8.03267 19.8317C7.89336 19.8963 7.74385 19.9456 7.58415 19.9796C7.42445 20.0136 7.24776 20.0306 7.05407 20.0306C6.8502 20.0306 6.65822 20.0034 6.47813 19.949C6.30144 19.8912 6.14683 19.8045 6.01431 19.6889C5.88179 19.5733 5.77646 19.4288 5.69831 19.2554C5.62355 19.082 5.58617 18.8797 5.58617 18.6485C5.58617 18.4445 5.64054 18.249 5.74927 18.062C5.86141 17.8716 6.0415 17.7016 6.28954 17.552C6.54099 17.4024 6.86719 17.28 7.26814 17.1848C7.6725 17.0896 8.16859 17.0352 8.75643 17.0216V16.6442C8.75643 16.2532 8.67318 15.9608 8.50668 15.767C8.34019 15.5732 8.09554 15.4763 7.77273 15.4763C7.55527 15.4763 7.37178 15.5035 7.22227 15.5579C7.07616 15.6123 6.94874 15.6735 6.84001 15.7415C6.73467 15.8061 6.64123 15.8656 6.55968 15.92C6.48153 15.9744 6.39998 16.0016 6.31503 16.0016C6.24707 16.0016 6.18761 15.9829 6.13664 15.9455C6.08907 15.9081 6.04999 15.8639 6.01941 15.8129L5.84102 15.4916Z" transform="translate(68.252 41.1938)" fill="#484848"/>
<path d="M12.88 17.3633C13.0567 17.3633 13.2113 17.3395 13.3439 17.2919C13.4798 17.2443 13.5919 17.178 13.6803 17.093C13.772 17.0046 13.84 16.8992 13.8841 16.7768C13.9317 16.6544 13.9555 16.5201 13.9555 16.3739C13.9555 16.0747 13.8637 15.8367 13.6803 15.6599C13.5002 15.4797 13.2334 15.3896 12.88 15.3896C12.5301 15.3896 12.2633 15.4797 12.0798 15.6599C11.8997 15.8367 11.8097 16.0747 11.8097 16.3739C11.8097 16.5201 11.8318 16.6544 11.876 16.7768C11.9235 16.8958 11.9915 16.9995 12.0798 17.0879C12.1716 17.1729 12.2837 17.2409 12.4162 17.2919C12.5521 17.3395 12.7067 17.3633 12.88 17.3633ZM14.4652 20.2193C14.4652 20.0969 14.4312 20 14.3632 19.9286C14.2953 19.8538 14.2018 19.796 14.0829 19.7552C13.9674 19.711 13.8315 19.6804 13.6752 19.6634C13.5189 19.643 13.3541 19.6277 13.1808 19.6175C13.0109 19.6073 12.8359 19.5988 12.6558 19.592C12.4757 19.5818 12.3024 19.5648 12.1359 19.541C11.9592 19.6294 11.8131 19.7365 11.6976 19.8623C11.5854 19.9881 11.5294 20.136 11.5294 20.306C11.5294 20.4148 11.5566 20.5168 11.6109 20.612C11.6687 20.7072 11.7553 20.7888 11.8709 20.8568C11.9898 20.9282 12.1376 20.9826 12.3143 21.02C12.4944 21.0608 12.7084 21.0812 12.9565 21.0812C13.2011 21.0812 13.4169 21.0591 13.6038 21.0149C13.7907 20.9741 13.947 20.9146 14.0727 20.8364C14.2018 20.7616 14.2987 20.6715 14.3632 20.5661C14.4312 20.4607 14.4652 20.3451 14.4652 20.2193ZM15.4744 14.9612V15.3335C15.4744 15.4559 15.3979 15.5324 15.245 15.563L14.6894 15.6446C14.737 15.75 14.7744 15.8622 14.8016 15.9812C14.8287 16.0968 14.8423 16.2192 14.8423 16.3484C14.8423 16.6034 14.7931 16.8346 14.6945 17.042C14.596 17.246 14.4601 17.4211 14.2868 17.5673C14.1135 17.7135 13.9062 17.8257 13.665 17.9039C13.4271 17.9821 13.1655 18.0212 12.88 18.0212C12.6456 18.0212 12.4264 17.9957 12.2225 17.9447C12.1206 18.0059 12.0425 18.0739 11.9881 18.1487C11.9371 18.2201 11.9116 18.2915 11.9116 18.3629C11.9116 18.4819 11.9609 18.5703 12.0594 18.6281C12.1614 18.6859 12.2922 18.7284 12.4519 18.7556C12.615 18.7794 12.8002 18.7947 13.0075 18.8015C13.2181 18.8083 13.4305 18.8202 13.6446 18.8372C13.862 18.8508 14.0744 18.878 14.2817 18.9188C14.4924 18.9562 14.6775 19.0191 14.8372 19.1075C15.0003 19.1925 15.1312 19.3115 15.2297 19.4645C15.3316 19.6141 15.3826 19.8096 15.3826 20.051C15.3826 20.2754 15.3265 20.493 15.2144 20.7038C15.1057 20.9146 14.946 21.1016 14.7353 21.2648C14.5246 21.428 14.2681 21.5589 13.9657 21.6575C13.6633 21.7561 13.3201 21.8054 12.9361 21.8054C12.5521 21.8054 12.2174 21.768 11.932 21.6932C11.65 21.6184 11.4138 21.5181 11.2236 21.3923C11.0367 21.2665 10.8957 21.1203 10.8005 20.9537C10.7088 20.7871 10.6629 20.6137 10.6629 20.4335C10.6629 20.1819 10.7411 19.9694 10.8974 19.796C11.0537 19.6192 11.2694 19.4815 11.5447 19.3829C11.3952 19.3149 11.2762 19.2231 11.1879 19.1075C11.0995 18.9885 11.0554 18.8321 11.0554 18.6383C11.0554 18.5635 11.069 18.487 11.0961 18.4088C11.1233 18.3272 11.1641 18.2473 11.2185 18.1691C11.2762 18.0875 11.3459 18.011 11.4274 17.9396C11.5124 17.8682 11.6092 17.8036 11.718 17.7458C11.4631 17.603 11.2626 17.4143 11.1165 17.1797C10.9704 16.9417 10.8974 16.6646 10.8974 16.3484C10.8974 16.0934 10.9466 15.8639 11.0452 15.6599C11.1437 15.4559 11.2796 15.2808 11.4529 15.1346C11.6296 14.9884 11.8386 14.8762 12.0798 14.798C12.3245 14.7198 12.5912 14.6807 12.88 14.6807C13.3286 14.6807 13.7142 14.7742 14.037 14.9612H15.4744Z" transform="translate(68.252 41.1938)" fill="#484848"/>
<path d="M19.7369 16.7819C19.7369 16.5847 19.708 16.4028 19.6502 16.2362C19.5958 16.0696 19.5143 15.9251 19.4056 15.8027C19.2968 15.6803 19.1643 15.5851 19.008 15.5171C18.8517 15.4491 18.6716 15.4151 18.4677 15.4151C18.0498 15.4151 17.7202 15.5358 17.4789 15.7772C17.2411 16.0186 17.0899 16.3535 17.0253 16.7819H19.7369ZM20.5574 19.2095C20.4351 19.3523 20.2941 19.4764 20.1344 19.5818C19.9747 19.6838 19.8048 19.7671 19.6247 19.8317C19.4446 19.8963 19.2577 19.9439 19.0641 19.9745C18.8738 20.0051 18.6852 20.0204 18.4983 20.0204C18.1415 20.0204 17.8102 19.9609 17.5044 19.8419C17.202 19.7195 16.9387 19.5427 16.7144 19.3115C16.4935 19.0769 16.3202 18.7879 16.1945 18.4445C16.0722 18.0977 16.011 17.6999 16.011 17.2511C16.011 16.8907 16.0671 16.5558 16.1792 16.2464C16.2914 15.9336 16.4511 15.6616 16.6583 15.4304C16.869 15.1992 17.1256 15.0173 17.428 14.8847C17.7304 14.7521 18.0702 14.6858 18.4473 14.6858C18.7633 14.6858 19.0539 14.7385 19.3189 14.8439C19.5873 14.9459 19.8184 15.0955 20.0121 15.2927C20.2058 15.4899 20.357 15.733 20.4657 16.022C20.5778 16.311 20.6339 16.6408 20.6339 17.0114C20.6339 17.1644 20.6169 17.2681 20.5829 17.3225C20.549 17.3735 20.4861 17.399 20.3944 17.399H16.9998C17.01 17.7084 17.0542 17.9787 17.1323 18.2099C17.2105 18.4377 17.3175 18.6281 17.4535 18.7811C17.5928 18.9341 17.7576 19.048 17.9478 19.1228C18.1381 19.1976 18.3505 19.235 18.585 19.235C18.8058 19.235 18.9961 19.2095 19.1558 19.1585C19.3189 19.1075 19.4582 19.0531 19.5738 18.9953C19.6927 18.9341 19.7912 18.878 19.8694 18.827C19.9509 18.776 20.0223 18.7505 20.0834 18.7505C20.165 18.7505 20.2279 18.7811 20.272 18.8423L20.5574 19.2095Z" transform="translate(68.252 41.1938)" fill="#484848"/>
<path d="M45.1437 22.5857C45.1437 35.0595 35.038 45.1714 22.5719 45.1714C10.1058 45.1714 0 35.0595 0 22.5857C0 10.112 10.1058 0 22.5719 0C35.038 0 45.1437 10.112 45.1437 22.5857Z" transform="translate(14.6406 34.9143)" fill="#6FBFF6" fill-opacity="0.3"/>
<path fill-rule="evenodd" clip-rule="evenodd" d="M6.99825 0.177629C6.74724 -0.0592098 6.31634 -0.0592098 6.06534 0.177629L3.08244 2.97621L1.79329 1.75092C1.54229 1.51408 1.11139 1.51408 0.859671 1.75092L0 2.73217L2.61883 5.2867C2.86984 5.52354 3.30074 5.52354 3.55174 5.2867L4.07224 4.79604C4.09073 4.77887 4.10779 4.76073 4.12343 4.74187L8.00937 1.15042L6.99825 0.177629Z" transform="translate(67.7939 69.8857)" fill="#32BA7C"/>
<path fill-rule="evenodd" clip-rule="evenodd" d="M6.16494 0.283927L3.08179 3.17656L1.69338 1.85694C1.69333 1.85688 1.69344 1.85699 1.69338 1.85694C1.50011 1.67476 1.16068 1.67298 0.964228 1.85263L0.200552 2.7243L2.71956 5.18146C2.91461 5.36459 3.25721 5.36433 3.45183 5.18069L3.97318 4.68922C3.98692 4.67646 3.99966 4.66293 4.01139 4.6488L4.01755 4.64138L7.79705 1.14829L6.89834 0.283643C6.89818 0.283495 6.8985 0.28379 6.89834 0.283643C6.70336 0.100181 6.35969 0.10017 6.16494 0.283927ZM6.99825 0.177629C6.74724 -0.0592098 6.31634 -0.0592098 6.06534 0.177629L3.08244 2.97621L1.79329 1.75092C1.54229 1.51408 1.11139 1.51408 0.859671 1.75092L0 2.73217L2.61883 5.2867C2.86984 5.52354 3.30074 5.52354 3.55174 5.2867L4.07224 4.79604C4.09073 4.77887 4.10779 4.76073 4.12343 4.74187L8.00937 1.15042L6.99825 0.177629Z" transform="translate(67.7939 69.8857)" fill="white"/>
<path d="M0.709922 4.46614C0.826422 4.61914 0.95263 4.726 1.08855 4.78671C1.22446 4.84743 1.37252 4.87779 1.5327 4.87779C1.86279 4.87779 2.11642 4.76 2.29359 4.52443C2.4732 4.28886 2.563 3.93307 2.563 3.45707C2.563 3.0175 2.48412 2.69571 2.32636 2.49171C2.1686 2.28529 1.94531 2.18207 1.65648 2.18207C1.45261 2.18207 1.27543 2.22821 1.12495 2.3205C0.976901 2.41279 0.838557 2.54393 0.709922 2.71393V4.46614ZM0.709922 2.18571C0.862828 2.01571 1.03636 1.8785 1.23053 1.77407C1.4247 1.66964 1.64556 1.61743 1.89312 1.61743C2.10914 1.61743 2.3033 1.65993 2.47563 1.74493C2.65038 1.8275 2.79843 1.94771 2.91978 2.10557C3.04114 2.261 3.13458 2.45043 3.20011 2.67386C3.26564 2.89729 3.29841 3.14986 3.29841 3.43157C3.29841 3.73029 3.26079 4.00229 3.18555 4.24757C3.11273 4.49286 3.00716 4.70293 2.86881 4.87779C2.7329 5.05264 2.56664 5.18864 2.37005 5.28579C2.17345 5.3805 1.95259 5.42786 1.70745 5.42786C1.58853 5.42786 1.47931 5.41571 1.3798 5.39143C1.28029 5.36957 1.18806 5.33679 1.10311 5.29307C1.02059 5.24936 0.944135 5.19593 0.87375 5.13279C0.803365 5.06964 0.73662 4.998 0.673516 4.91786L0.64075 5.2275C0.621333 5.32707 0.560656 5.37686 0.458719 5.37686H0V0H0.709922V2.18571Z" transform="translate(78.4863 69.6089)" fill="#939393"/>
<path d="M7.22192 1.67571L5.16861 6.4515C5.14676 6.50493 5.11764 6.54621 5.08123 6.57536C5.04483 6.6045 4.99143 6.61907 4.92104 6.61907H4.39315L5.07031 5.14371L3.55217 1.67571H4.17108C4.23175 1.67571 4.27908 1.69029 4.31306 1.71943C4.34704 1.74857 4.37131 1.78136 4.38587 1.81779L5.32515 4.03993C5.34457 4.09579 5.36277 4.15286 5.37976 4.21114C5.39918 4.267 5.41496 4.32286 5.42709 4.37871C5.44408 4.32043 5.46228 4.26336 5.4817 4.2075C5.50112 4.14921 5.52175 4.09214 5.54359 4.03629L6.45011 1.81779C6.4671 1.7765 6.49379 1.7425 6.5302 1.71579C6.56661 1.68907 6.60787 1.67571 6.65398 1.67571H7.22192Z" transform="translate(78.4863 69.6089)" fill="#939393"/>
<path d="M1.61644 5.27486V1.00543H0V0.174857H4.13575V1.00543H2.51931V5.27486H1.61644Z" transform="translate(88.4727 69.7108)" fill="#32BA7C"/>
<path d="M4.45738 5.27486V1.428H5.33841V2.295C5.61024 1.63929 6.06411 1.326 6.7 1.35514V2.28771H6.64903C6.25099 2.28771 5.93304 2.41886 5.69519 2.68114C5.45733 2.93857 5.33841 3.315 5.33841 3.81043V5.27486H4.45738Z" transform="translate(88.4727 69.7108)" fill="#32BA7C"/>
<path d="M8.79035 5.355C8.36318 5.355 8.02824 5.22143 7.78553 4.95429C7.54283 4.68714 7.42147 4.32771 7.42147 3.876V1.428H8.3025V3.61371C8.3025 3.91486 8.37289 4.148 8.51366 4.31314C8.65928 4.47343 8.86316 4.55357 9.12528 4.55357C9.38255 4.55357 9.59128 4.46857 9.75147 4.29857C9.91166 4.12857 9.99175 3.89543 9.99175 3.59914V1.428H10.8728V5.27486H9.99175V4.67743C9.68594 5.12914 9.28547 5.355 8.79035 5.355Z" transform="translate(88.4727 69.7108)" fill="#32BA7C"/>
<path d="M13.2983 5.34771C12.6964 5.34771 12.1527 5.15586 11.6673 4.77214L12.0605 4.17471C12.4779 4.49043 12.8978 4.64829 13.3201 4.64829C13.5094 4.64829 13.6551 4.61186 13.757 4.539C13.8638 4.46129 13.9172 4.35443 13.9172 4.21843C13.9172 4.15043 13.8978 4.09214 13.8589 4.04357C13.825 3.99014 13.7619 3.94157 13.6696 3.89786C13.5774 3.85414 13.4997 3.82257 13.4366 3.80314C13.3735 3.78371 13.2692 3.75214 13.1235 3.70843L13.058 3.68657C12.9221 3.64771 12.8056 3.61129 12.7085 3.57729C12.6163 3.53843 12.5119 3.48743 12.3954 3.42429C12.2789 3.36114 12.1843 3.29314 12.1114 3.22029C12.0386 3.14257 11.978 3.04543 11.9294 2.92886C11.8809 2.81229 11.8566 2.68114 11.8566 2.53543C11.8566 2.18086 11.9852 1.89671 12.2425 1.683C12.5046 1.46929 12.8323 1.36243 13.2255 1.36243C13.7255 1.36243 14.1963 1.50814 14.638 1.79957L14.2885 2.42614C13.8905 2.18329 13.5289 2.06186 13.2036 2.06186C13.0337 2.06186 12.9003 2.09829 12.8032 2.17114C12.7109 2.244 12.6648 2.34114 12.6648 2.46257C12.6648 2.54514 12.7061 2.62043 12.7886 2.68843C12.876 2.75643 12.9609 2.80743 13.0434 2.84143C13.1308 2.87057 13.2692 2.91671 13.4585 2.97986C13.4682 2.98471 13.4803 2.98957 13.4949 2.99443C13.5094 2.99929 13.5216 3.00171 13.5313 3.00171C13.7012 3.05514 13.8444 3.10857 13.9609 3.162C14.0774 3.21057 14.1987 3.27857 14.3249 3.366C14.456 3.45343 14.5555 3.56271 14.6235 3.69386C14.6914 3.82014 14.7254 3.96829 14.7254 4.13829C14.7254 4.52686 14.5919 4.82557 14.3249 5.03443C14.058 5.24329 13.7158 5.34771 13.2983 5.34771Z" transform="translate(88.4727 69.7108)" fill="#32BA7C"/>
<path d="M16.8387 5.34043C16.1009 5.34043 15.7319 4.964 15.7319 4.21114V2.18571H15.2441V1.428H15.7319V0.371571H16.613V1.428H17.6469V2.18571H16.613V4.07271C16.613 4.39329 16.7707 4.55357 17.0863 4.55357C17.2756 4.55357 17.4576 4.50986 17.6323 4.42243V5.14371C17.3993 5.27486 17.1348 5.34043 16.8387 5.34043Z" transform="translate(88.4727 69.7108)" fill="#32BA7C"/>
<path d="M20.3844 5.27486L22.627 0.138429H23.4571L25.6997 5.27486H24.7531L24.2362 4.04357H21.8261L21.3018 5.27486H20.3844ZM22.1537 3.24943H23.9085L23.0275 1.20943L22.1537 3.24943Z" transform="translate(88.4727 69.7108)" fill="#32BA7C"/>
<path d="M28.0635 5.36229C27.4956 5.36229 27.0223 5.168 26.6437 4.77943C26.2651 4.39086 26.0757 3.91729 26.0757 3.35871C26.0757 2.805 26.2651 2.33143 26.6437 1.938C27.0272 1.54457 27.5029 1.34786 28.0708 1.34786C28.6921 1.34786 29.2043 1.56886 29.6072 2.01086L29.0611 2.601C28.7552 2.28043 28.4227 2.12014 28.0635 2.12014C27.748 2.12014 27.4835 2.24157 27.2699 2.48443C27.0611 2.72243 26.9568 3.01386 26.9568 3.35871C26.9568 3.70843 27.0636 4.00229 27.2772 4.24029C27.4956 4.47829 27.7723 4.59729 28.1072 4.59729C28.4616 4.59729 28.7941 4.437 29.1047 4.11643L29.6363 4.641C29.4275 4.87414 29.1994 5.05386 28.9518 5.18014C28.7091 5.30157 28.413 5.36229 28.0635 5.36229Z" transform="translate(88.4727 69.7108)" fill="#32BA7C"/>
<path d="M31.7354 5.34043C30.9975 5.34043 30.6286 4.964 30.6286 4.21114V2.18571H30.1408V1.428H30.6286V0.371571H31.5097V1.428H32.5436V2.18571H31.5097V4.07271C31.5097 4.39329 31.6674 4.55357 31.9829 4.55357C32.1723 4.55357 32.3543 4.50986 32.529 4.42243V5.14371C32.296 5.27486 32.0315 5.34043 31.7354 5.34043Z" transform="translate(88.4727 69.7108)" fill="#32BA7C"/>
<path d="M33.4476 0.837857V0H34.3942V0.837857H33.4476ZM33.484 5.27486V1.428H34.3651V5.27486H33.484Z" transform="translate(88.4727 69.7108)" fill="#32BA7C"/>
<path d="M36.7324 5.304L35.1524 1.428H36.099L37.1329 4.25486L38.1741 1.428H39.0988L37.5261 5.304H36.7324Z" transform="translate(88.4727 69.7108)" fill="#32BA7C"/>
<path d="M39.8614 0.837857V0H40.8079V0.837857H39.8614ZM39.8978 5.27486V1.428H40.7788V5.27486H39.8978Z" transform="translate(88.4727 69.7108)" fill="#32BA7C"/>
<path d="M43.219 5.34043C42.4812 5.34043 42.1122 4.964 42.1122 4.21114V2.18571H41.6244V1.428H42.1122V0.371571H42.9933V1.428H44.0272V2.18571H42.9933V4.07271C42.9933 4.39329 43.151 4.55357 43.4666 4.55357C43.6559 4.55357 43.8379 4.50986 44.0126 4.42243V5.14371C43.7797 5.27486 43.5151 5.34043 43.219 5.34043Z" transform="translate(88.4727 69.7108)" fill="#32BA7C"/>
<path d="M45.703 6.46243C45.3827 6.46243 45.0793 6.38472 44.7929 6.22929L45.0914 5.57357C45.271 5.67071 45.4433 5.71929 45.6084 5.71929C45.7346 5.71929 45.839 5.68529 45.9215 5.61729C46.004 5.55414 46.0817 5.44 46.1545 5.27486L44.5526 1.428H45.4919L46.5841 4.284L47.5816 1.428H48.499L46.97 5.38414C46.8146 5.77757 46.6423 6.05443 46.453 6.21471C46.2637 6.37986 46.0137 6.46243 45.703 6.46243Z" transform="translate(88.4727 69.7108)" fill="#32BA7C"/>
<path d="M14.5169 0C22.5342 0 29.0338 6.50363 29.0338 14.5258C29.0338 22.5468 22.5342 29.0516 14.5169 29.0516C6.49965 29.0516 2.62439e-09 22.5466 2.62439e-09 14.5258C-0.000150808 6.50348 6.4995 0 14.5169 0Z" transform="translate(22.6504 42.9286)" fill="#26A6D1"/>
<path d="M7.91832 0C12.2906 0 15.8366 3.54698 15.8366 7.92318C15.8366 12.2994 12.2905 15.8464 7.91832 15.8464C3.54617 15.8464 0 12.2994 0 7.92318C0 3.54698 3.54602 0 7.91832 0Z" transform="translate(29.249 49.5312)" fill="#484848"/>
<path fill-rule="evenodd" clip-rule="evenodd" d="M6.59863 3.30134C6.59863 1.47769 5.12176 0 3.29932 0C1.5622 0 0.139368 1.34233 0.00995483 3.04725C0.0035553 3.13111 0 3.21587 0 3.30134C0 5.12499 1.47687 6.60259 3.29932 6.60259C5.12176 6.60259 6.59863 5.12499 6.59863 3.30134Z" transform="translate(39.8066 49.5312)" fill="white"/>
</g>
<defs>
<filter id="filter0_d" x="29.5059" y="100.579" width="195.36" height="195.097" filterUnits="userSpaceOnUse" color-interpolation-filters="sRGB">
<feFlood flood-opacity="0" result="BackgroundImageFix"/>
<feColorMatrix in="SourceAlpha" type="matrix" values="0 0 0 0 0 0 0 0 0 0 0 0 0 0 0 0 0 0 255 0"/>
<feOffset dy="1"/>
<feGaussianBlur stdDeviation="2"/>
<feColorMatrix type="matrix" values="0 0 0 0 0 0 0 0 0 0 0 0 0 0 0 0 0 0 0.15 0"/>
<feBlend mode="normal" in2="BackgroundImageFix" result="effect1_dropShadow"/>
<feBlend mode="normal" in="SourceGraphic" in2="effect1_dropShadow" result="shape"/>
</filter>
<filter id="filter1_d" x="8" y="29" width="239" height="57" filterUnits="userSpaceOnUse" color-interpolation-filters="sRGB">
<feFlood flood-opacity="0" result="BackgroundImageFix"/>
<feColorMatrix in="SourceAlpha" type="matrix" values="0 0 0 0 0 0 0 0 0 0 0 0 0 0 0 0 0 0 255 0"/>
<feOffset/>
<feGaussianBlur stdDeviation="1.5"/>
<feColorMatrix type="matrix" values="0 0 0 0 0 0 0 0 0 0 0 0 0 0 0 0 0 0 0.2 0"/>
<feBlend mode="normal" in2="BackgroundImageFix" result="effect1_dropShadow"/>
<feBlend mode="normal" in="SourceGraphic" in2="effect1_dropShadow" result="shape"/>
</filter>
<linearGradient id="paint0_linear" x2="1" gradientUnits="userSpaceOnUse" gradientTransform="translate(283.483) scale(283.483 570.238) rotate(90)">
<stop stop-color="#26A6D1"/>
<stop offset="0.649341" stop-color="white"/>
</linearGradient>
<linearGradient id="paint1_linear" x2="1" gradientUnits="userSpaceOnUse" gradientTransform="translate(258) scale(258 354) rotate(90)">
<stop stop-color="white" stop-opacity="0"/>
<stop offset="1" stop-color="white"/>
</linearGradient>
</defs>
</svg>
