<svg width="255" height="547" viewBox="0 0 255 547" fill="none" xmlns="http://www.w3.org/2000/svg">
<rect width="255" height="545.06" fill="black" fill-opacity="0" transform="translate(0 0.970703)"/>
<rect width="255" height="545.06" fill="black" fill-opacity="0" transform="translate(0 0.970703)"/>
<rect width="255" height="545.06" fill="black" fill-opacity="0" transform="translate(0 0.970703)"/>
<mask id="mask0" mask-type="alpha" maskUnits="userSpaceOnUse" x="0" y="0" width="255" height="547">
<path d="M200.5 0.970703C199.7 0.970703 199 1.6695 199 2.46812V5.9621C199 14.747 191.8 21.9346 183 21.9346H73C64.2 21.9346 57 14.747 57 5.9621V2.46812C57 1.6695 56.3 0.970703 55.5 0.970703H30C13.4 0.970703 0 14.3476 0 30.9191V516.083C0 532.654 13.4 546.031 30 546.031H225C241.6 546.031 255 532.654 255 516.083V30.9191C255 14.3476 241.6 0.970703 225 0.970703H200.5Z" fill="white"/>
</mask>
<g mask="url(#mask0)">
<path d="M-17 -6.23853H266.483V564H-17V-6.23853Z" fill="url(#paint0_linear)"/>
</g>
<mask id="mask1" mask-type="alpha" maskUnits="userSpaceOnUse" x="0" y="0" width="255" height="547">
<path d="M200.5 0.970703C199.7 0.970703 199 1.6695 199 2.46812V5.9621C199 14.747 191.8 21.9346 183 21.9346H73C64.2 21.9346 57 14.747 57 5.9621V2.46812C57 1.6695 56.3 0.970703 55.5 0.970703H30C13.4 0.970703 0 14.3476 0 30.9191V516.083C0 532.654 13.4 546.031 30 546.031H225C241.6 546.031 255 532.654 255 516.083V30.9191C255 14.3476 241.6 0.970703 225 0.970703H200.5Z" fill="white"/>
</mask>
<g mask="url(#mask1)">
<g filter="url(#filter0_d)">
<rect width="187.36" height="187.097" fill="black" fill-opacity="0" transform="translate(33.5059 103.579)"/>
<rect width="187.36" height="187.097" fill="black" fill-opacity="0" transform="translate(33.5059 103.579)"/>
<rect width="187.359" height="187.097" fill="black" fill-opacity="0" transform="translate(33.5059 103.579)"/>
<path d="M127.186 290.676C178.923 290.676 220.865 248.793 220.865 197.128C220.865 145.462 178.923 103.579 127.186 103.579C75.4477 103.579 33.5059 145.462 33.5059 197.128C33.5059 248.793 75.4477 290.676 127.186 290.676Z" fill="#FCFCFC"/>
<rect width="31.581" height="9.85547" fill="black" fill-opacity="0" transform="translate(147.63 124.81)"/>
<path d="M173.289 128.752C172.668 128.752 172.081 128.874 171.518 129.051C169.736 126.492 166.779 124.81 163.42 124.81C160.062 124.81 157.105 126.492 155.323 129.051C154.76 128.874 154.173 128.752 153.551 128.752C150.281 128.752 147.63 131.399 147.63 134.665H179.211C179.211 131.399 176.56 128.752 173.289 128.752Z" fill="#FFE2D9"/>
<rect width="25.4505" height="7.94248" fill="black" fill-opacity="0" transform="translate(123.815 152.546)"/>
<path d="M144.495 155.723C143.994 155.723 143.521 155.821 143.067 155.964C141.631 153.902 139.248 152.546 136.541 152.546C133.835 152.546 131.452 153.902 130.015 155.964C129.562 155.821 129.089 155.723 128.588 155.723C125.952 155.723 123.815 157.856 123.815 160.488H149.266C149.267 157.856 147.13 155.723 144.495 155.723Z" fill="#FFE2D9"/>
<rect width="39.2847" height="15.0887" fill="black" fill-opacity="0" transform="translate(90.2461 120.713)"/>
<path d="M90.2461 135.802C90.2461 129.969 94.9817 125.24 100.823 125.24C101.704 125.24 102.547 125.379 103.366 125.582C106.126 122.606 110.039 120.713 114.421 120.713C122.766 120.713 129.531 127.468 129.531 135.801H90.2461V135.802Z" fill="#FFE2D9"/>
<rect width="29.3719" height="11.4867" fill="black" fill-opacity="0" transform="translate(112.344 129.631)"/>
<path d="M112.344 141.118C112.344 136.677 115.884 133.077 120.252 133.077C120.911 133.077 121.541 133.183 122.153 133.337C124.217 131.071 127.142 129.631 130.419 129.631C136.658 129.631 141.716 134.774 141.716 141.118H112.344Z" fill="#FFE2D9"/>
<rect width="14.6858" height="5.74373" fill="black" fill-opacity="0" transform="translate(107.054 148.648)"/>
<path d="M107.054 154.391C107.054 152.171 108.824 150.371 111.008 150.371C111.337 150.371 111.652 150.424 111.958 150.501C112.99 149.368 114.453 148.648 116.091 148.648C119.211 148.648 121.739 151.219 121.739 154.391H107.054V154.391Z" fill="#FFE2D9"/>
<rect width="117.875" height="27.0815" fill="black" fill-opacity="0" transform="translate(102.991 174.12)"/>
<path d="M220.866 197.128C220.866 189.42 219.913 181.937 218.153 174.771L217.087 174.12C182.564 174.12 150.728 197.128 110.109 197.128C77.0146 197.128 167.088 200.902 220.763 201.202C220.821 199.85 220.866 198.494 220.866 197.128Z" fill="#FFE2D9"/>
<rect width="90.5678" height="27.0815" fill="black" fill-opacity="0" transform="translate(33.8574 174.12)"/>
<path d="M33.8574 197.128C33.8574 189.42 34.81 181.937 36.5705 174.771L37.6361 174.12C72.1589 174.12 74.3713 197.128 114.99 197.128C148.085 197.128 87.6347 200.902 33.9606 201.202C33.9024 199.85 33.8574 198.494 33.8574 197.128Z" fill="#FFE2D9"/>
<rect width="17.7252" height="51.4457" fill="black" fill-opacity="0" transform="translate(86.1494 148.648)"/>
<rect width="2.50008" height="15.9288" fill="black" fill-opacity="0" transform="translate(93.7617 184.165)"/>
<rect width="2.50008" height="15.9288" fill="black" fill-opacity="0" transform="translate(93.7617 184.165)"/>
<path d="M95.0118 200.094C94.3212 200.094 93.7617 199.535 93.7617 198.846V185.412C93.7617 184.723 94.3209 184.165 95.0118 184.165C95.7026 184.165 96.2618 184.723 96.2618 185.412V198.846C96.2618 199.535 95.7026 200.094 95.0118 200.094Z" fill="#D4ECFC"/>
<rect width="17.7252" height="43.4814" fill="black" fill-opacity="0" transform="translate(86.1494 148.648)"/>
<path d="M103.875 181.928C103.875 188.72 99.9068 192.129 95.012 192.129C90.1173 192.129 86.1494 188.72 86.1494 181.928C86.1494 175.136 91.5784 148.648 95.012 148.648C98.4456 148.648 103.875 175.136 103.875 181.928Z" fill="#D4ECFC"/>
<rect width="11.0806" height="43.481" fill="black" fill-opacity="0" transform="translate(92.7939 148.648)"/>
<path d="M95.0115 148.648C94.3316 148.648 93.5727 149.698 92.7939 151.417C95.5952 155.653 99.2191 176.585 99.2191 182.398C99.2191 188.079 96.6897 191.276 93.3315 191.979C93.8764 192.073 94.4359 192.129 95.0115 192.129C99.9063 192.129 103.875 188.72 103.875 181.927C103.875 175.135 98.4451 148.648 95.0115 148.648Z" fill="#C8E7FC"/>
<rect width="187.359" height="93.5484" fill="black" fill-opacity="0" transform="translate(33.5059 197.128)"/>
<path d="M127.186 290.676C178.924 290.676 220.865 248.793 220.865 197.128H33.5059C33.5059 248.793 75.4477 290.676 127.186 290.676Z" fill="#FFE2D9"/>
<rect width="175.788" height="31.1834" fill="black" fill-opacity="0" transform="translate(44.5527 206.435)"/>
<path d="M49.3646 210.062C25.4518 213.447 98.4404 227.166 98.4404 227.166C98.4404 227.166 205.518 237.22 208.667 237.22C209.188 237.22 210.269 237.389 211.657 237.618C216.199 228.186 219.198 217.874 220.341 207.01C174.513 216.13 123.526 199.564 49.3646 210.062Z" fill="#FFDDD2"/>
<rect width="182.479" height="81.2324" fill="black" fill-opacity="0" transform="translate(34.6084 209.444)"/>
<path d="M127.186 290.676C169.778 290.676 205.707 262.282 217.087 223.423C143.943 223.106 101.171 203.101 34.6084 211.502C41.5341 256.343 80.3435 290.676 127.186 290.676Z" fill="#FED6CA"/>
<rect width="174.148" height="45.887" fill="black" fill-opacity="0" transform="translate(38.9307 227.167)"/>
<path d="M38.9307 228.527C45.3704 246.573 57.2026 262.052 72.4903 273.053L196.501 260.056C203.341 252.547 208.958 243.914 213.078 234.479C157.532 233.131 79.4559 223.71 38.9307 228.527Z" fill="#FECEC0"/>
<rect width="159.646" height="53.4563" fill="black" fill-opacity="0" transform="translate(52.1719 237.22)"/>
<path d="M127.186 290.676C164.551 290.676 196.784 268.82 211.818 237.22C155.508 237.22 100.378 237.264 52.1719 253.164C69.2578 275.937 96.4967 290.676 127.186 290.676Z" fill="#FFC4B2"/>
<rect width="25.8216" height="74.9425" fill="black" fill-opacity="0" transform="translate(152.332 130.042)"/>
<rect width="3.6418" height="23.204" fill="black" fill-opacity="0" transform="translate(163.423 181.78)"/>
<rect width="3.6418" height="23.204" fill="black" fill-opacity="0" transform="translate(163.423 181.78)"/>
<path d="M165.244 204.984C164.238 204.984 163.423 204.17 163.423 203.167V183.597C163.423 182.594 164.238 181.78 165.244 181.78C166.25 181.78 167.065 182.594 167.065 183.597V203.167C167.065 204.17 166.25 204.984 165.244 204.984Z" fill="#D4ECFC"/>
<rect width="25.8212" height="63.3403" fill="black" fill-opacity="0" transform="translate(152.332 130.042)"/>
<path d="M178.153 178.521C178.153 188.416 172.373 193.382 165.243 193.382C158.112 193.382 152.332 188.416 152.332 178.521C152.332 168.627 160.241 130.042 165.243 130.042C170.245 130.042 178.153 168.627 178.153 178.521Z" fill="#D4ECFC"/>
<rect width="16.1411" height="63.3403" fill="black" fill-opacity="0" transform="translate(162.013 130.042)"/>
<path d="M165.243 130.042C164.253 130.042 163.147 131.572 162.013 134.076C166.093 140.247 171.373 170.738 171.373 179.207C171.373 187.482 167.688 192.14 162.796 193.163C163.59 193.3 164.405 193.382 165.243 193.382C172.373 193.382 178.154 188.416 178.154 178.521C178.154 168.627 170.245 130.042 165.243 130.042Z" fill="#C8E7FC"/>
<rect width="22.7632" height="66.0627" fill="black" fill-opacity="0" transform="translate(63.1104 135.249)"/>
<rect width="3.21" height="20.4549" fill="black" fill-opacity="0" transform="translate(72.8867 180.857)"/>
<rect width="3.21" height="20.4549" fill="black" fill-opacity="0" transform="translate(72.8867 180.857)"/>
<path d="M74.4917 201.312C73.6047 201.312 72.8867 200.594 72.8867 199.71V182.458C72.8867 181.574 73.6051 180.857 74.4917 180.857C75.3784 180.857 76.0967 181.574 76.0967 182.458V199.71C76.0971 200.595 75.3787 201.312 74.4917 201.312Z" fill="#D4ECFC"/>
<rect width="22.762" height="55.8356" fill="black" fill-opacity="0" transform="translate(63.1104 135.249)"/>
<path d="M85.8723 177.985C85.8723 186.706 80.777 191.085 74.4913 191.085C68.2056 191.085 63.1104 186.706 63.1104 177.985C63.1104 169.263 70.0822 135.249 74.4913 135.249C78.9005 135.249 85.8723 169.263 85.8723 177.985Z" fill="#D4ECFC"/>
<rect width="14.2291" height="55.8356" fill="black" fill-opacity="0" transform="translate(71.6445 135.249)"/>
<path d="M74.4922 135.249C73.6191 135.249 72.6446 136.597 71.6445 138.805C75.2417 144.245 79.8953 171.123 79.8953 178.589C79.8953 185.883 76.6472 189.989 72.3351 190.892C73.0347 191.013 73.7534 191.085 74.4926 191.085C80.7783 191.085 85.8736 186.707 85.8736 177.985C85.8736 169.262 78.9014 135.249 74.4922 135.249Z" fill="#C8E7FC"/>
<rect width="24.4358" height="10.8037" fill="black" fill-opacity="0" transform="translate(184.537 140.716)"/>
<path d="M201.911 140.72C201.889 140.72 201.869 140.716 201.847 140.716C198.166 140.716 194.924 142.56 192.97 145.365C192.353 145.171 191.709 145.037 191.028 145.037C187.443 145.037 184.537 147.939 184.537 151.519H208.973C206.862 147.752 204.506 144.142 201.911 140.72Z" fill="#FFE2D9"/>
</g>
<path d="M28.6182 340.338C28.6182 337.171 31.187 334.603 34.3558 334.603H220.83C223.999 334.603 226.568 337.171 226.568 340.338C226.568 343.505 223.999 346.073 220.83 346.073H34.3558C31.187 346.073 28.6182 343.505 28.6182 340.338Z" fill="#FFECEB"/>
<path d="M29.0083 362.281C29.0129 359.113 31.5854 356.55 34.7543 356.554L221.229 356.825C224.398 356.829 226.963 359.4 226.958 362.568C226.953 365.735 224.381 368.299 221.212 368.294L34.7377 368.024C31.5688 368.019 29.0037 365.448 29.0083 362.281Z" fill="#FFECEB"/>
<path d="M28.6182 402.121C28.6182 397.628 32.2653 393.986 36.7642 393.986H110.893C115.392 393.986 119.04 397.628 119.04 402.121V439.54C119.04 444.033 115.392 447.675 110.893 447.675H36.7642C32.2653 447.675 28.6182 444.033 28.6182 439.54V402.121Z" fill="#FFECEB"/>
<path d="M137.775 402.121C137.775 397.628 141.423 393.986 145.921 393.986H218.421C222.92 393.986 226.568 397.628 226.568 402.121V439.54C226.568 444.033 222.92 447.675 218.421 447.675H145.921C141.423 447.675 137.775 444.033 137.775 439.54V402.121Z" fill="#FFECEB"/>
<path d="M28.6182 472.892C28.6182 468.399 32.2653 464.757 36.7642 464.757H218.422C222.92 464.757 226.568 468.399 226.568 472.892V510.311C226.568 514.804 222.92 518.446 218.422 518.446H36.7642C32.2653 518.446 28.6182 514.804 28.6182 510.311V472.892Z" fill="#FFECEB"/>
<path d="M28.6182 402.121C28.6182 397.628 32.2653 393.986 36.7642 393.986H110.893C115.392 393.986 119.04 397.628 119.04 402.121V439.54C119.04 444.033 115.392 447.675 110.893 447.675H36.7642C32.2653 447.675 28.6182 444.033 28.6182 439.54V402.121Z" fill="#FFECEB"/>
<path d="M137.775 402.121C137.775 397.628 141.423 393.986 145.921 393.986H218.421C222.92 393.986 226.568 397.628 226.568 402.121V439.54C226.568 444.033 222.92 447.675 218.421 447.675H145.921C141.423 447.675 137.775 444.033 137.775 439.54V402.121Z" fill="#FFECEB"/>
<path d="M28.6182 472.892C28.6182 468.399 32.2653 464.757 36.7642 464.757H218.422C222.92 464.757 226.568 468.399 226.568 472.892V510.311C226.568 514.804 222.92 518.446 218.422 518.446H36.7642C32.2653 518.446 28.6182 514.804 28.6182 510.311V472.892Z" fill="#FFECEB"/>
<rect x="-2" y="192" width="258" height="354" fill="url(#paint1_linear)"/>
</g>
<rect width="233" height="50.9688" fill="black" fill-opacity="0" transform="translate(11 32)"/>
<g filter="url(#filter1_d)">
<path d="M11 57.4844C11 43.4097 22.4097 32 36.4844 32H218.516C232.59 32 244 43.4097 244 57.4844C244 71.559 232.59 82.9688 218.516 82.9688H36.4844C22.4097 82.9688 11 71.559 11 57.4844Z" fill="white"/>
</g>
<path d="M67.0654 40.7375C67.0654 39.5311 68.0434 38.5531 69.2498 38.5531H138.422C139.628 38.5531 140.606 39.5311 140.606 40.7375V50.2031C140.606 51.4095 139.628 52.3875 138.422 52.3875H69.2498C68.0434 52.3875 67.0654 51.4095 67.0654 50.2031V40.7375Z" fill="#D4ECFC" fill-opacity="0.3"/>
<path d="M70.8619 41.2953C71.2017 41.2953 71.5126 41.3463 71.7946 41.4482C72.0766 41.5467 72.3179 41.6877 72.5183 41.8712C72.7188 42.0547 72.8751 42.2756 72.9873 42.5338C73.0994 42.7921 73.1555 43.0792 73.1555 43.3952C73.1555 43.667 73.1147 43.9185 73.0331 44.1495C72.955 44.3806 72.8479 44.6015 72.712 44.8121C72.5795 45.0228 72.4232 45.2267 72.2431 45.4238C72.063 45.6208 71.8744 45.8213 71.6774 46.0252L70.0158 47.7224C70.1789 47.6749 70.3386 47.6392 70.4949 47.6154C70.6512 47.5882 70.8007 47.5746 70.9434 47.5746H72.8344C72.9703 47.5746 73.0773 47.6137 73.1555 47.6919C73.237 47.7666 73.2778 47.8669 73.2778 47.9926V48.7469H68.2217V48.329C68.2217 48.244 68.2387 48.1557 68.2726 48.0639C68.31 47.9722 68.3678 47.8872 68.4459 47.8091L70.6835 45.5665C70.8704 45.3762 71.0369 45.1944 71.183 45.0211C71.3325 44.8478 71.4565 44.6762 71.555 44.5063C71.657 44.3364 71.7334 44.1648 71.7844 43.9915C71.8388 43.8148 71.8659 43.6297 71.8659 43.436C71.8659 43.2593 71.8405 43.1047 71.7895 42.9722C71.7385 42.8362 71.6655 42.7224 71.5703 42.6307C71.4752 42.5389 71.3614 42.471 71.2288 42.4268C71.0997 42.3792 70.9536 42.3554 70.7905 42.3554C70.4881 42.3554 70.2383 42.4319 70.0413 42.5848C69.8476 42.7377 69.7117 42.9433 69.6335 43.2015C69.5961 43.3306 69.5401 43.4241 69.4653 43.4818C69.3906 43.5362 69.2954 43.5634 69.1799 43.5634C69.1289 43.5634 69.0729 43.5583 69.0117 43.5481L68.3491 43.4309C68.4001 43.0775 68.4986 42.7683 68.6447 42.5032C68.7908 42.2348 68.9726 42.0122 69.1901 41.8356C69.411 41.6555 69.6624 41.5212 69.9444 41.4329C70.2298 41.3412 70.5357 41.2953 70.8619 41.2953Z" fill="#3B75FF"/>
<path d="M79.2929 41.3768V41.9222C79.2929 42.0853 79.2742 42.2178 79.2368 42.3198C79.2028 42.4183 79.1689 42.5015 79.1349 42.5695L76.3469 48.3188C76.2891 48.4377 76.2076 48.5396 76.1022 48.6246C75.9969 48.7061 75.8542 48.7469 75.6741 48.7469H74.7618L77.616 43.1149C77.7349 42.8838 77.8675 42.685 78.0136 42.5185H74.4865C74.4084 42.5185 74.3404 42.4897 74.2827 42.4319C74.2249 42.3741 74.196 42.3062 74.196 42.228V41.3768H79.2929Z" fill="#3B75FF"/>
<path d="M87.1771 41.3768V41.9222C87.1771 42.0853 87.1584 42.2178 87.1211 42.3198C87.0871 42.4183 87.0531 42.5015 87.0191 42.5695L84.2311 48.3188C84.1734 48.4377 84.0918 48.5396 83.9865 48.6246C83.8811 48.7061 83.7384 48.7469 83.5583 48.7469H82.646L85.5002 43.1149C85.6192 42.8838 85.7517 42.685 85.8978 42.5185H82.3708C82.2926 42.5185 82.2247 42.4897 82.1669 42.4319C82.1091 42.3741 82.0802 42.3062 82.0802 42.228V41.3768H87.1771Z" fill="#3B75FF"/>
<path d="M93.1616 45.0619C93.1616 45.7041 93.092 46.263 92.9527 46.7388C92.8168 47.2111 92.6265 47.6018 92.3818 47.911C92.1406 48.2202 91.8534 48.4513 91.5205 48.6042C91.1909 48.7537 90.8341 48.8285 90.4501 48.8285C90.0661 48.8285 89.7094 48.7537 89.3798 48.6042C89.0536 48.4513 88.7698 48.2202 88.5286 47.911C88.2873 47.6018 88.0987 47.2111 87.9628 46.7388C87.8269 46.263 87.759 45.7041 87.759 45.0619C87.759 44.4163 87.8269 43.8573 87.9628 43.385C88.0987 42.9127 88.2873 42.5219 88.5286 42.2127C88.7698 41.9035 89.0536 41.6742 89.3798 41.5246C89.7094 41.3717 90.0661 41.2953 90.4501 41.2953C90.8341 41.2953 91.1909 41.3717 91.5205 41.5246C91.8534 41.6742 92.1406 41.9035 92.3818 42.2127C92.6265 42.5219 92.8168 42.9127 92.9527 43.385C93.092 43.8573 93.1616 44.4163 93.1616 45.0619ZM91.8619 45.0619C91.8619 44.5284 91.8229 44.0867 91.7447 43.7367C91.6666 43.3867 91.5612 43.1081 91.4287 42.9008C91.2996 42.6935 91.1501 42.5491 90.9802 42.4676C90.8103 42.3826 90.6336 42.3401 90.4501 42.3401C90.27 42.3401 90.095 42.3826 89.9251 42.4676C89.7586 42.5491 89.6108 42.6935 89.4817 42.9008C89.3526 43.1081 89.2489 43.3867 89.1708 43.7367C89.096 44.0867 89.0587 44.5284 89.0587 45.0619C89.0587 45.5954 89.096 46.0371 89.1708 46.3871C89.2489 46.7371 89.3526 47.0157 89.4817 47.223C89.6108 47.4302 89.7586 47.5763 89.9251 47.6613C90.095 47.7428 90.27 47.7836 90.4501 47.7836C90.6336 47.7836 90.8103 47.7428 90.9802 47.6613C91.1501 47.5763 91.2996 47.4302 91.4287 47.223C91.5612 47.0157 91.6666 46.7371 91.7447 46.3871C91.8229 46.0371 91.8619 45.5954 91.8619 45.0619Z" fill="#3B75FF"/>
<path d="M99.0748 45.0619C99.0748 45.7041 99.0052 46.263 98.8658 46.7388C98.7299 47.2111 98.5396 47.6018 98.295 47.911C98.0537 48.2202 97.7666 48.4513 97.4336 48.6042C97.104 48.7537 96.7472 48.8285 96.3633 48.8285C95.9793 48.8285 95.6225 48.7537 95.2929 48.6042C94.9667 48.4513 94.683 48.2202 94.4418 47.911C94.2005 47.6018 94.0119 47.2111 93.876 46.7388C93.7401 46.263 93.6721 45.7041 93.6721 45.0619C93.6721 44.4163 93.7401 43.8573 93.876 43.385C94.0119 42.9127 94.2005 42.5219 94.4418 42.2127C94.683 41.9035 94.9667 41.6742 95.2929 41.5246C95.6225 41.3717 95.9793 41.2953 96.3633 41.2953C96.7472 41.2953 97.104 41.3717 97.4336 41.5246C97.7666 41.6742 98.0537 41.9035 98.295 42.2127C98.5396 42.5219 98.7299 42.9127 98.8658 43.385C99.0052 43.8573 99.0748 44.4163 99.0748 45.0619ZM97.7751 45.0619C97.7751 44.5284 97.736 44.0867 97.6579 43.7367C97.5797 43.3867 97.4744 43.1081 97.3419 42.9008C97.2128 42.6935 97.0632 42.5491 96.8934 42.4676C96.7235 42.3826 96.5468 42.3401 96.3633 42.3401C96.1832 42.3401 96.0082 42.3826 95.8383 42.4676C95.6718 42.5491 95.524 42.6935 95.3949 42.9008C95.2658 43.1081 95.1621 43.3867 95.084 43.7367C95.0092 44.0867 94.9718 44.5284 94.9718 45.0619C94.9718 45.5954 95.0092 46.0371 95.084 46.3871C95.1621 46.7371 95.2658 47.0157 95.3949 47.223C95.524 47.4302 95.6718 47.5763 95.8383 47.6613C96.0082 47.7428 96.1832 47.7836 96.3633 47.7836C96.5468 47.7836 96.7235 47.7428 96.8934 47.6613C97.0632 47.5763 97.2128 47.4302 97.3419 47.223C97.4744 47.0157 97.5797 46.7371 97.6579 46.3871C97.736 46.0371 97.7751 45.5954 97.7751 45.0619Z" fill="#3B75FF"/>
<path d="M105.884 43.5684V48.7468H104.89V46.5908C104.445 46.7063 104.028 46.7777 103.641 46.8049C103.254 46.8287 102.916 46.7947 102.627 46.7029C102.338 46.6078 102.11 46.4464 101.944 46.2187C101.781 45.9877 101.699 45.6751 101.699 45.2809V43.5684H102.698V45.128C102.698 45.3659 102.744 45.5561 102.836 45.6989C102.928 45.8382 103.065 45.9367 103.249 45.9945C103.432 46.0488 103.66 46.0658 103.932 46.0454C104.207 46.0217 104.526 45.969 104.89 45.8874V43.5684H105.884Z" fill="#3B75FF"/>
<path d="M110.706 45.5816C110.706 45.3846 110.677 45.2028 110.62 45.0363C110.565 44.8698 110.484 44.7254 110.375 44.603C110.266 44.4807 110.134 44.3856 109.977 44.3176C109.821 44.2496 109.641 44.2157 109.437 44.2157C109.019 44.2157 108.69 44.3363 108.448 44.5775C108.21 44.8188 108.059 45.1535 107.995 45.5816H110.706ZM111.527 48.0077C111.404 48.1505 111.263 48.2745 111.104 48.3798C110.944 48.4818 110.774 48.565 110.594 48.6296C110.414 48.6941 110.227 48.7417 110.033 48.7723C109.843 48.8029 109.655 48.8181 109.468 48.8181C109.111 48.8181 108.78 48.7587 108.474 48.6398C108.171 48.5174 107.908 48.3407 107.684 48.1097C107.463 47.8752 107.29 47.5864 107.164 47.2432C107.042 46.8966 106.98 46.4991 106.98 46.0505C106.98 45.6904 107.036 45.3557 107.149 45.0465C107.261 44.7339 107.42 44.462 107.628 44.231C107.838 43.9999 108.095 43.8181 108.397 43.6856C108.7 43.5531 109.04 43.4868 109.417 43.4868C109.733 43.4868 110.023 43.5395 110.288 43.6448C110.557 43.7468 110.788 43.8963 110.981 44.0933C111.175 44.2904 111.326 44.5334 111.435 44.8222C111.547 45.111 111.603 45.4406 111.603 45.811C111.603 45.9639 111.586 46.0675 111.552 46.1219C111.518 46.1729 111.455 46.1984 111.364 46.1984H107.969C107.979 46.5076 108.024 46.7777 108.102 47.0088C108.18 47.2364 108.287 47.4267 108.423 47.5796C108.562 47.7325 108.727 47.8463 108.917 47.9211C109.107 47.9959 109.32 48.0332 109.554 48.0332C109.775 48.0332 109.965 48.0077 110.125 47.9568C110.288 47.9058 110.428 47.8514 110.543 47.7937C110.662 47.7325 110.761 47.6764 110.839 47.6255C110.92 47.5745 110.992 47.549 111.053 47.549C111.134 47.549 111.197 47.5796 111.241 47.6408L111.527 48.0077Z" fill="#3B75FF"/>
<path d="M117.274 48.7468H116.28V44.3482H114.736C114.695 45.0006 114.634 45.5646 114.552 46.0404C114.471 46.5127 114.372 46.9153 114.257 47.2483C114.141 47.5779 114.012 47.8463 113.869 48.0536C113.73 48.2575 113.58 48.4172 113.421 48.5327C113.264 48.6449 113.103 48.7196 112.937 48.757C112.77 48.7978 112.604 48.8181 112.437 48.8181C112.128 48.8181 111.973 48.7672 111.973 48.6652V48.0383H112.248C112.364 48.0383 112.48 48.0196 112.595 47.9823C112.714 47.9415 112.83 47.865 112.942 47.7529C113.057 47.6374 113.166 47.4777 113.268 47.2738C113.37 47.0699 113.463 46.8032 113.548 46.4736C113.633 46.1406 113.706 45.7362 113.767 45.2605C113.829 44.7848 113.876 44.2208 113.91 43.5684H117.274V48.7468Z" fill="#3B75FF"/>
<path d="M120.881 43.4868C121.262 43.4868 121.605 43.5497 121.911 43.6754C122.22 43.7977 122.482 43.9761 122.696 44.2106C122.913 44.4416 123.08 44.722 123.195 45.0516C123.311 45.3778 123.368 45.7447 123.368 46.1525C123.368 46.5602 123.311 46.9289 123.195 47.2585C123.08 47.5881 122.913 47.8684 122.696 48.0995C122.482 48.3305 122.22 48.5089 121.911 48.6347C121.605 48.757 121.262 48.8181 120.881 48.8181C120.497 48.8181 120.151 48.757 119.841 48.6347C119.536 48.5089 119.274 48.3305 119.057 48.0995C118.839 47.8684 118.671 47.5881 118.552 47.2585C118.436 46.9289 118.379 46.5602 118.379 46.1525C118.379 45.7447 118.436 45.3778 118.552 45.0516C118.671 44.722 118.839 44.4416 119.057 44.2106C119.274 43.9761 119.536 43.7977 119.841 43.6754C120.151 43.5497 120.497 43.4868 120.881 43.4868ZM120.881 48.0434C121.371 48.0434 121.736 47.8786 121.977 47.549C122.218 47.2194 122.339 46.7556 122.339 46.1576C122.339 45.5595 122.218 45.0957 121.977 44.7661C121.736 44.4331 121.371 44.2666 120.881 44.2666C120.385 44.2666 120.015 44.4331 119.77 44.7661C119.529 45.0957 119.408 45.5595 119.408 46.1576C119.408 46.7556 119.529 47.2194 119.77 47.549C120.015 47.8786 120.385 48.0434 120.881 48.0434Z" fill="#3B75FF"/>
<path d="M126.496 48.0485C126.816 48.0485 127.069 47.9738 127.256 47.8243C127.443 47.6714 127.536 47.4658 127.536 47.2075C127.536 47.0954 127.519 46.9918 127.485 46.8966C127.451 46.7981 127.393 46.7131 127.312 46.6418C127.23 46.5704 127.123 46.5161 126.991 46.4787C126.858 46.4379 126.695 46.4175 126.501 46.4175H125.426V48.0485H126.496ZM125.426 44.231V45.7855H126.379C126.522 45.7855 126.653 45.7651 126.772 45.7243C126.894 45.6836 126.998 45.6275 127.082 45.5561C127.171 45.4814 127.239 45.393 127.286 45.2911C127.337 45.1858 127.363 45.0719 127.363 44.9496C127.363 44.8579 127.346 44.7695 127.312 44.6846C127.281 44.5996 127.227 44.5232 127.149 44.4552C127.074 44.3873 126.974 44.3329 126.848 44.2921C126.722 44.2513 126.566 44.231 126.379 44.231H125.426ZM126.41 43.5684C126.729 43.5684 127.004 43.6006 127.235 43.6652C127.466 43.7264 127.657 43.813 127.806 43.9251C127.956 44.0373 128.064 44.1681 128.132 44.3176C128.204 44.4671 128.239 44.6285 128.239 44.8018C128.239 44.9139 128.224 45.0312 128.194 45.1535C128.163 45.2758 128.11 45.393 128.036 45.5052C127.961 45.6139 127.859 45.7142 127.73 45.8059C127.604 45.8976 127.443 45.969 127.246 46.02C127.626 46.0879 127.922 46.2238 128.132 46.4277C128.346 46.6316 128.454 46.9017 128.454 47.2381C128.454 47.493 128.401 47.7155 128.296 47.9058C128.194 48.0927 128.054 48.249 127.878 48.3747C127.701 48.5004 127.494 48.5939 127.256 48.655C127.018 48.7162 126.766 48.7468 126.501 48.7468H124.478V43.5684H126.41Z" fill="#3B75FF"/>
<path d="M132.985 45.5816C132.985 45.3846 132.956 45.2028 132.898 45.0363C132.844 44.8698 132.763 44.7254 132.654 44.603C132.545 44.4807 132.413 44.3856 132.256 44.3176C132.1 44.2496 131.92 44.2157 131.716 44.2157C131.298 44.2157 130.968 44.3363 130.727 44.5775C130.489 44.8188 130.338 45.1535 130.274 45.5816H132.985ZM133.806 48.0077C133.683 48.1505 133.542 48.2745 133.383 48.3798C133.223 48.4818 133.053 48.565 132.873 48.6296C132.693 48.6941 132.506 48.7417 132.312 48.7723C132.122 48.8029 131.933 48.8181 131.747 48.8181C131.39 48.8181 131.058 48.7587 130.753 48.6398C130.45 48.5174 130.187 48.3407 129.963 48.1097C129.742 47.8752 129.569 47.5864 129.443 47.2432C129.32 46.8966 129.259 46.4991 129.259 46.0505C129.259 45.6904 129.315 45.3557 129.427 45.0465C129.54 44.7339 129.699 44.462 129.907 44.231C130.117 43.9999 130.374 43.8181 130.676 43.6856C130.979 43.5531 131.318 43.4868 131.696 43.4868C132.012 43.4868 132.302 43.5395 132.567 43.6448C132.836 43.7468 133.067 43.8963 133.26 44.0933C133.454 44.2904 133.605 44.5334 133.714 44.8222C133.826 45.111 133.882 45.4406 133.882 45.811C133.882 45.9639 133.865 46.0675 133.831 46.1219C133.797 46.1729 133.734 46.1984 133.643 46.1984H130.248C130.258 46.5076 130.302 46.7777 130.381 47.0088C130.459 47.2364 130.566 47.4267 130.702 47.5796C130.841 47.7325 131.006 47.8463 131.196 47.9211C131.386 47.9959 131.599 48.0332 131.833 48.0332C132.054 48.0332 132.244 48.0077 132.404 47.9568C132.567 47.9058 132.706 47.8514 132.822 47.7937C132.941 47.7325 133.039 47.6764 133.118 47.6255C133.199 47.5745 133.271 47.549 133.332 47.549C133.413 47.549 133.476 47.5796 133.52 47.6408L133.806 48.0077Z" fill="#3B75FF"/>
<path d="M138.08 43.8385C138.131 43.7603 138.199 43.6958 138.284 43.6448C138.369 43.5939 138.459 43.5684 138.554 43.5684H139.334L138.024 45.5256C137.942 45.6547 137.857 45.76 137.769 45.8416C137.681 45.9231 137.572 45.986 137.443 46.0302C137.606 46.0777 137.744 46.1491 137.856 46.2442C137.968 46.336 138.068 46.4566 138.156 46.6061L139.476 48.7468H138.788C138.608 48.7468 138.469 48.7179 138.37 48.6601C138.275 48.599 138.194 48.5123 138.126 48.4002L137.178 46.8355C137.1 46.7063 137.001 46.6095 136.882 46.5449C136.767 46.4804 136.632 46.4481 136.479 46.4481H135.944V48.7519H134.95V43.5684H135.944V45.7804H136.413C136.556 45.7804 136.677 45.7515 136.775 45.6938C136.877 45.636 136.964 45.5511 137.035 45.4389L138.08 43.8385Z" fill="#3B75FF"/>
<path d="M143.673 44.1088C143.867 43.9254 144.105 43.7759 144.387 43.6603C144.669 43.5448 145.007 43.487 145.401 43.487C145.717 43.487 145.996 43.5261 146.237 43.6043C146.478 43.679 146.681 43.7809 146.844 43.9101C147.01 44.0358 147.134 44.1802 147.216 44.3433C147.301 44.5064 147.343 44.6763 147.343 44.853C147.343 44.9549 147.326 45.062 147.292 45.1741C147.262 45.2828 147.211 45.3882 147.139 45.4901C147.068 45.592 146.973 45.6872 146.854 45.7755C146.738 45.8605 146.594 45.9318 146.421 45.9896C146.74 46.0881 146.993 46.2444 147.18 46.4585C147.367 46.6726 147.46 46.9393 147.46 47.2587C147.46 47.5 147.404 47.7174 147.292 47.9111C147.183 48.1048 147.036 48.2696 146.849 48.4055C146.662 48.538 146.446 48.64 146.201 48.7113C145.957 48.7827 145.702 48.8184 145.437 48.8184C145.274 48.8184 145.106 48.8031 144.932 48.7725C144.762 48.7419 144.594 48.6943 144.428 48.6298C144.261 48.5652 144.103 48.482 143.954 48.38C143.804 48.2781 143.67 48.1541 143.551 48.008L143.837 47.641C143.881 47.5798 143.944 47.5492 144.025 47.5492C144.09 47.5492 144.156 47.5764 144.224 47.6308C144.295 47.6818 144.38 47.7378 144.479 47.799C144.581 47.8601 144.701 47.9179 144.841 47.9723C144.983 48.0232 145.16 48.0487 145.371 48.0487C145.551 48.0487 145.71 48.0266 145.85 47.9825C145.992 47.9383 146.111 47.8771 146.207 47.799C146.305 47.7208 146.38 47.6291 146.431 47.5238C146.482 47.4184 146.507 47.3029 146.507 47.1772C146.507 46.9325 146.407 46.7371 146.207 46.591C146.006 46.4449 145.697 46.3719 145.279 46.3719H144.693V45.7093H145.279C145.646 45.7093 145.931 45.6413 146.135 45.5054C146.339 45.3661 146.441 45.1877 146.441 44.9702C146.441 44.8751 146.419 44.785 146.375 44.7001C146.331 44.6117 146.263 44.5353 146.171 44.4707C146.083 44.4028 145.97 44.3501 145.834 44.3127C145.702 44.2753 145.547 44.2567 145.371 44.2567C145.174 44.2567 145.007 44.277 144.871 44.3178C144.735 44.3552 144.62 44.3977 144.525 44.4452C144.429 44.4928 144.35 44.537 144.285 44.5778C144.224 44.6151 144.171 44.6338 144.127 44.6338C144.079 44.6338 144.039 44.6253 144.005 44.6083C143.974 44.588 143.94 44.5489 143.903 44.4911L143.673 44.1088Z" fill="#484848"/>
<path d="M151.362 46.4483C150.957 46.4619 150.614 46.4942 150.332 46.5452C150.05 46.5927 149.821 46.6573 149.644 46.7388C149.467 46.8204 149.34 46.9172 149.262 47.0294C149.184 47.1381 149.145 47.2604 149.145 47.3963C149.145 47.5255 149.165 47.6376 149.206 47.7327C149.25 47.8245 149.308 47.9009 149.379 47.9621C149.454 48.0199 149.54 48.0623 149.639 48.0895C149.738 48.1167 149.845 48.1303 149.96 48.1303C150.113 48.1303 150.252 48.115 150.378 48.0844C150.507 48.0538 150.628 48.0114 150.74 47.957C150.852 47.8992 150.959 47.8296 151.061 47.748C151.163 47.6665 151.263 47.573 151.362 47.4677V46.4483ZM148.446 44.2923C148.735 44.0171 149.048 43.8115 149.384 43.6756C149.724 43.5397 150.096 43.4717 150.5 43.4717C150.796 43.4717 151.058 43.521 151.285 43.6195C151.513 43.7147 151.705 43.8489 151.861 44.0222C152.018 44.1955 152.135 44.4028 152.213 44.644C152.294 44.8853 152.335 45.152 152.335 45.4442V48.747H151.892C151.793 48.747 151.719 48.7317 151.668 48.7011C151.617 48.6672 151.576 48.606 151.545 48.5176L151.438 48.064C151.306 48.1863 151.175 48.2951 151.046 48.3902C150.917 48.482 150.781 48.5618 150.638 48.6298C150.499 48.6943 150.349 48.7436 150.189 48.7776C150.03 48.8116 149.853 48.8286 149.659 48.8286C149.455 48.8286 149.264 48.8014 149.083 48.747C148.907 48.6892 148.752 48.6026 148.62 48.4871C148.487 48.3715 148.382 48.2271 148.304 48.0538C148.229 47.8805 148.191 47.6784 148.191 47.4473C148.191 47.2434 148.246 47.048 148.355 46.8612C148.467 46.6709 148.647 46.501 148.895 46.3515C149.146 46.202 149.472 46.0796 149.873 45.9845C150.278 45.8894 150.774 45.835 151.362 45.8214V45.4442C151.362 45.0535 151.278 44.7612 151.112 44.5676C150.945 44.3739 150.701 44.277 150.378 44.277C150.161 44.277 149.977 44.3042 149.828 44.3586C149.681 44.413 149.554 44.4741 149.445 44.5421C149.34 44.6066 149.247 44.6661 149.165 44.7205C149.087 44.7748 149.005 44.802 148.92 44.802C148.852 44.802 148.793 44.7833 148.742 44.746C148.694 44.7086 148.655 44.6644 148.625 44.6134L148.446 44.2923Z" fill="#484848"/>
<path d="M156.026 48.0793C156.518 48.0793 156.887 47.9247 157.132 47.6155C157.38 47.3029 157.504 46.8612 157.504 46.2903C157.504 45.7229 157.383 45.2828 157.142 44.9702C156.904 44.6542 156.545 44.4962 156.066 44.4962C155.832 44.4962 155.621 44.5336 155.434 44.6083C155.251 44.6797 155.093 44.7867 154.96 44.9294C154.831 45.0722 154.733 45.2488 154.665 45.4595C154.597 45.6668 154.563 45.9063 154.563 46.1782C154.563 46.7796 154.685 47.2468 154.93 47.5798C155.174 47.9128 155.54 48.0793 156.026 48.0793ZM156.377 42.4269C156.041 42.4541 155.75 42.5271 155.506 42.646C155.264 42.7616 155.064 42.9196 154.904 43.1201C154.748 43.3205 154.629 43.5601 154.548 43.8387C154.466 44.1139 154.418 44.4249 154.405 44.7714C154.49 44.6185 154.595 44.4792 154.721 44.3535C154.85 44.2278 154.996 44.1207 155.159 44.0324C155.322 43.9407 155.501 43.871 155.694 43.8234C155.888 43.7759 156.092 43.7521 156.306 43.7521C156.653 43.7521 156.963 43.8132 157.239 43.9356C157.514 44.0579 157.747 44.2295 157.937 44.4503C158.131 44.6712 158.278 44.9379 158.38 45.2505C158.482 45.5598 158.533 45.9046 158.533 46.2852C158.533 46.6726 158.474 47.0226 158.355 47.3352C158.236 47.6444 158.066 47.9094 157.845 48.1303C157.628 48.3511 157.364 48.521 157.055 48.64C156.746 48.7589 156.403 48.8184 156.026 48.8184C155.669 48.8184 155.338 48.7606 155.032 48.6451C154.729 48.5261 154.466 48.3325 154.242 48.064C154.017 47.7956 153.841 47.4439 153.712 47.009C153.586 46.574 153.523 46.0389 153.523 45.4035C153.523 44.8632 153.572 44.3654 153.671 43.9101C153.769 43.4547 153.927 43.0572 154.145 42.7174C154.366 42.3776 154.653 42.1041 155.006 41.8968C155.36 41.6895 155.789 41.5655 156.296 41.5247L158.141 41.3718L158.197 41.8917C158.21 42.0038 158.193 42.099 158.146 42.1771C158.102 42.2553 158.024 42.2978 157.911 42.3046L156.377 42.4269Z" fill="#484848"/>
<path d="M160.642 47.4728C160.806 47.6869 160.981 47.8364 161.167 47.9213C161.358 48.0063 161.57 48.0487 161.805 48.0487C162.26 48.0487 162.612 47.8856 162.86 47.5594C163.111 47.2298 163.237 46.7507 163.237 46.1221C163.237 45.7925 163.208 45.5122 163.15 45.2811C163.096 45.0467 163.014 44.8564 162.906 44.7103C162.8 44.5608 162.669 44.452 162.513 44.3841C162.357 44.3127 162.18 44.277 161.983 44.277C161.694 44.277 161.443 44.3416 161.229 44.4707C161.018 44.5998 160.823 44.7833 160.642 45.0212V47.4728ZM160.592 44.3433C160.7 44.2142 160.816 44.097 160.938 43.9916C161.064 43.8829 161.198 43.7911 161.341 43.7164C161.483 43.6382 161.635 43.5788 161.794 43.538C161.957 43.4938 162.131 43.4717 162.314 43.4717C162.61 43.4717 162.877 43.5295 163.114 43.645C163.356 43.7606 163.561 43.9305 163.731 44.1547C163.901 44.379 164.032 44.6559 164.124 44.9855C164.219 45.3151 164.266 45.694 164.266 46.1221C164.266 46.5061 164.214 46.8629 164.108 47.1925C164.006 47.5187 163.859 47.8024 163.665 48.0436C163.475 48.2849 163.24 48.4752 162.962 48.6145C162.686 48.7504 162.375 48.8184 162.029 48.8184C161.72 48.8184 161.455 48.7674 161.234 48.6655C161.013 48.5635 160.816 48.4208 160.642 48.2373V50.485H159.649V43.5686H160.245C160.384 43.5686 160.471 43.6348 160.505 43.7674L160.592 44.3433Z" fill="#484848"/>
<path d="M167.58 43.487C167.96 43.487 168.303 43.5499 168.609 43.6756C168.918 43.7979 169.18 43.9763 169.394 44.2108C169.612 44.4418 169.778 44.7222 169.894 45.0518C170.009 45.378 170.067 45.7449 170.067 46.1527C170.067 46.5604 170.009 46.9291 169.894 47.2587C169.778 47.5883 169.612 47.8686 169.394 48.0997C169.18 48.3308 168.918 48.5092 168.609 48.6349C168.303 48.7572 167.96 48.8184 167.58 48.8184C167.196 48.8184 166.849 48.7572 166.54 48.6349C166.234 48.5092 165.972 48.3308 165.755 48.0997C165.537 47.8686 165.369 47.5883 165.25 47.2587C165.135 46.9291 165.077 46.5604 165.077 46.1527C165.077 45.7449 165.135 45.378 165.25 45.0518C165.369 44.7222 165.537 44.4418 165.755 44.2108C165.972 43.9763 166.234 43.7979 166.54 43.6756C166.849 43.5499 167.196 43.487 167.58 43.487ZM167.58 48.0436C168.069 48.0436 168.434 47.8788 168.675 47.5492C168.917 47.2196 169.037 46.7558 169.037 46.1578C169.037 45.5598 168.917 45.0959 168.675 44.7663C168.434 44.4333 168.069 44.2669 167.58 44.2669C167.083 44.2669 166.713 44.4333 166.468 44.7663C166.227 45.0959 166.107 45.5598 166.107 46.1578C166.107 46.7558 166.227 47.2196 166.468 47.5492C166.713 47.8788 167.083 48.0436 167.58 48.0436Z" fill="#484848"/>
<path d="M175.539 43.5686V48.747H174.54V46.3617H172.17V48.747H171.176V43.5686H172.17V45.6073H174.54V43.5686H175.539Z" fill="#484848"/>
<path d="M181.426 43.5686V48.747H180.427V45.3627C180.427 45.2947 180.43 45.22 180.437 45.1384C180.444 45.0535 180.454 44.9685 180.467 44.8836C180.433 44.9549 180.399 45.0229 180.365 45.0874C180.335 45.1486 180.303 45.203 180.269 45.2505L177.888 48.4973C177.851 48.5584 177.802 48.6162 177.741 48.6706C177.679 48.7249 177.61 48.7521 177.532 48.7521H176.93V43.5686H177.924V46.958C177.924 47.026 177.921 47.1024 177.914 47.1874C177.907 47.2689 177.897 47.3505 177.883 47.432C177.951 47.2825 178.018 47.1619 178.082 47.0701L180.462 43.8183C180.5 43.7606 180.549 43.7045 180.61 43.6501C180.675 43.5958 180.746 43.5686 180.824 43.5686H181.426Z" fill="#484848"/>
<path d="M183.807 47.4728C183.97 47.6869 184.145 47.8364 184.332 47.9213C184.523 48.0063 184.735 48.0487 184.969 48.0487C185.425 48.0487 185.776 47.8856 186.025 47.5594C186.276 47.2298 186.402 46.7507 186.402 46.1221C186.402 45.7925 186.373 45.5122 186.315 45.2811C186.261 45.0467 186.179 44.8564 186.07 44.7103C185.965 44.5608 185.834 44.452 185.678 44.3841C185.522 44.3127 185.345 44.277 185.148 44.277C184.859 44.277 184.608 44.3416 184.394 44.4707C184.183 44.5998 183.987 44.7833 183.807 45.0212V47.4728ZM183.756 44.3433C183.865 44.2142 183.981 44.097 184.103 43.9916C184.229 43.8829 184.363 43.7911 184.506 43.7164C184.648 43.6382 184.8 43.5788 184.959 43.538C185.122 43.4938 185.296 43.4717 185.479 43.4717C185.775 43.4717 186.042 43.5295 186.279 43.645C186.521 43.7606 186.726 43.9305 186.896 44.1547C187.066 44.379 187.197 44.6559 187.289 44.9855C187.384 45.3151 187.431 45.694 187.431 46.1221C187.431 46.5061 187.379 46.8629 187.273 47.1925C187.171 47.5187 187.024 47.8024 186.83 48.0436C186.64 48.2849 186.405 48.4752 186.126 48.6145C185.851 48.7504 185.54 48.8184 185.194 48.8184C184.885 48.8184 184.619 48.7674 184.399 48.6655C184.178 48.5635 183.981 48.4208 183.807 48.2373V50.485H182.814V43.5686H183.41C183.549 43.5686 183.636 43.6348 183.67 43.7674L183.756 44.3433Z" fill="#484848"/>
<path d="M190.744 43.487C191.125 43.487 191.468 43.5499 191.774 43.6756C192.083 43.7979 192.345 43.9763 192.559 44.2108C192.776 44.4418 192.943 44.7222 193.058 45.0518C193.174 45.378 193.232 45.7449 193.232 46.1527C193.232 46.5604 193.174 46.9291 193.058 47.2587C192.943 47.5883 192.776 47.8686 192.559 48.0997C192.345 48.3308 192.083 48.5092 191.774 48.6349C191.468 48.7572 191.125 48.8184 190.744 48.8184C190.361 48.8184 190.014 48.7572 189.705 48.6349C189.399 48.5092 189.137 48.3308 188.92 48.0997C188.702 47.8686 188.534 47.5883 188.415 47.2587C188.3 46.9291 188.242 46.5604 188.242 46.1527C188.242 45.7449 188.3 45.378 188.415 45.0518C188.534 44.7222 188.702 44.4418 188.92 44.2108C189.137 43.9763 189.399 43.7979 189.705 43.6756C190.014 43.5499 190.361 43.487 190.744 43.487ZM190.744 48.0436C191.234 48.0436 191.599 47.8788 191.84 47.5492C192.082 47.2196 192.202 46.7558 192.202 46.1578C192.202 45.5598 192.082 45.0959 191.84 44.7663C191.599 44.4333 191.234 44.2669 190.744 44.2669C190.248 44.2669 189.878 44.4333 189.633 44.7663C189.392 45.0959 189.271 45.5598 189.271 46.1578C189.271 46.7558 189.392 47.2196 189.633 47.5492C189.878 47.8788 190.248 48.0436 190.744 48.0436Z" fill="#484848"/>
<path d="M196.36 48.0487C196.679 48.0487 196.932 47.974 197.119 47.8245C197.306 47.6716 197.399 47.466 197.399 47.2077C197.399 47.0956 197.382 46.992 197.348 46.8968C197.314 46.7983 197.257 46.7134 197.175 46.642C197.094 46.5706 196.986 46.5163 196.854 46.4789C196.721 46.4381 196.558 46.4177 196.365 46.4177H195.289V48.0487H196.36ZM195.289 44.2312V45.7857H196.242C196.385 45.7857 196.516 45.7653 196.635 45.7246C196.757 45.6838 196.861 45.6277 196.946 45.5564C197.034 45.4816 197.102 45.3933 197.15 45.2913C197.201 45.186 197.226 45.0722 197.226 44.9498C197.226 44.8581 197.209 44.7697 197.175 44.6848C197.144 44.5998 197.09 44.5234 197.012 44.4554C196.937 44.3875 196.837 44.3331 196.711 44.2923C196.586 44.2516 196.429 44.2312 196.242 44.2312H195.289ZM196.273 43.5686C196.592 43.5686 196.868 43.6009 197.099 43.6654C197.33 43.7266 197.52 43.8132 197.669 43.9254C197.819 44.0375 197.928 44.1683 197.996 44.3178C198.067 44.4673 198.103 44.6287 198.103 44.802C198.103 44.9142 198.087 45.0314 198.057 45.1537C198.026 45.276 197.974 45.3933 197.899 45.5054C197.824 45.6141 197.722 45.7144 197.593 45.8061C197.467 45.8979 197.306 45.9692 197.109 46.0202C197.489 46.0881 197.785 46.2241 197.996 46.4279C198.21 46.6318 198.317 46.9019 198.317 47.2383C198.317 47.4932 198.264 47.7157 198.159 47.906C198.057 48.0929 197.918 48.2492 197.741 48.3749C197.564 48.5007 197.357 48.5941 197.119 48.6553C196.881 48.7164 196.63 48.747 196.365 48.747H194.341V43.5686H196.273Z" fill="#484848"/>
<path d="M202.201 46.4483C201.797 46.4619 201.454 46.4942 201.171 46.5452C200.889 46.5927 200.66 46.6573 200.483 46.7388C200.307 46.8204 200.179 46.9172 200.101 47.0294C200.023 47.1381 199.984 47.2604 199.984 47.3963C199.984 47.5255 200.004 47.6376 200.045 47.7327C200.089 47.8245 200.147 47.9009 200.218 47.9621C200.293 48.0199 200.38 48.0623 200.478 48.0895C200.577 48.1167 200.684 48.1303 200.799 48.1303C200.952 48.1303 201.092 48.115 201.217 48.0844C201.346 48.0538 201.467 48.0114 201.579 47.957C201.691 47.8992 201.798 47.8296 201.9 47.748C202.002 47.6665 202.103 47.573 202.201 47.4677V46.4483ZM199.286 44.2923C199.574 44.0171 199.887 43.8115 200.223 43.6756C200.563 43.5397 200.935 43.4717 201.34 43.4717C201.635 43.4717 201.897 43.521 202.125 43.6195C202.352 43.7147 202.544 43.8489 202.701 44.0222C202.857 44.1955 202.974 44.4028 203.052 44.644C203.134 44.8853 203.175 45.152 203.175 45.4442V48.747H202.731C202.633 48.747 202.558 48.7317 202.507 48.7011C202.456 48.6672 202.415 48.606 202.385 48.5176L202.278 48.064C202.145 48.1863 202.014 48.2951 201.885 48.3902C201.756 48.482 201.62 48.5618 201.477 48.6298C201.338 48.6943 201.188 48.7436 201.029 48.7776C200.869 48.8116 200.692 48.8286 200.499 48.8286C200.295 48.8286 200.103 48.8014 199.923 48.747C199.746 48.6892 199.591 48.6026 199.459 48.4871C199.326 48.3715 199.221 48.2271 199.143 48.0538C199.068 47.8805 199.031 47.6784 199.031 47.4473C199.031 47.2434 199.085 47.048 199.194 46.8612C199.306 46.6709 199.486 46.501 199.734 46.3515C199.986 46.202 200.312 46.0796 200.713 45.9845C201.117 45.8894 201.613 45.835 202.201 45.8214V45.4442C202.201 45.0535 202.118 44.7612 201.951 44.5676C201.785 44.3739 201.54 44.277 201.217 44.277C201 44.277 200.816 44.3042 200.667 44.3586C200.521 44.413 200.393 44.4741 200.285 44.5421C200.179 44.6066 200.086 44.6661 200.004 44.7205C199.926 44.7748 199.845 44.802 199.76 44.802C199.692 44.802 199.632 44.7833 199.581 44.746C199.534 44.7086 199.495 44.6644 199.464 44.6134L199.286 44.2923Z" fill="#484848"/>
<path d="M209.108 48.747H208.114V44.3484H206.569C206.529 45.0008 206.467 45.5649 206.386 46.0406C206.304 46.5129 206.206 46.9155 206.09 47.2485C205.975 47.5781 205.846 47.8466 205.703 48.0538C205.564 48.2577 205.414 48.4174 205.254 48.5329C205.098 48.6451 204.937 48.7198 204.77 48.7572C204.604 48.798 204.437 48.8184 204.271 48.8184C203.961 48.8184 203.807 48.7674 203.807 48.6655V48.0385H204.082C204.198 48.0385 204.313 48.0199 204.429 47.9825C204.548 47.9417 204.663 47.8652 204.775 47.7531C204.891 47.6376 204.999 47.4779 205.101 47.274C205.203 47.0701 205.297 46.8034 205.382 46.4738C205.467 46.1408 205.54 45.7365 205.601 45.2607C205.662 44.785 205.71 44.221 205.744 43.5686H209.108V48.747Z" fill="#484848"/>
<path d="M215.003 43.5686V48.747H214.004V45.3627C214.004 45.2947 214.008 45.22 214.014 45.1384C214.021 45.0535 214.031 44.9685 214.045 44.8836C214.011 44.9549 213.977 45.0229 213.943 45.0874C213.913 45.1486 213.88 45.203 213.846 45.2505L211.466 48.4973C211.429 48.5584 211.379 48.6162 211.318 48.6706C211.257 48.7249 211.187 48.7521 211.109 48.7521H210.508V43.5686H211.502V46.958C211.502 47.026 211.498 47.1024 211.492 47.1874C211.485 47.2689 211.475 47.3505 211.461 47.432C211.529 47.2825 211.595 47.1619 211.66 47.0701L214.04 43.8183C214.077 43.7606 214.127 43.7045 214.188 43.6501C214.252 43.5958 214.324 43.5686 214.402 43.5686H215.003Z" fill="#484848"/>
<path d="M72.8551 55.9467V61.1251H71.8561V58.7398H69.4861V61.1251H68.4922V55.9467H69.4861V57.9855H71.8561V55.9467H72.8551Z" fill="#484848"/>
<path d="M76.453 55.8652C76.8336 55.8652 77.1768 55.928 77.4826 56.0537C77.7918 56.1761 78.0534 56.3545 78.2675 56.5889C78.485 56.82 78.6515 57.1003 78.767 57.4299C78.8825 57.7561 78.9403 58.1231 78.9403 58.5308C78.9403 58.9386 78.8825 59.3072 78.767 59.6368C78.6515 59.9664 78.485 60.2468 78.2675 60.4778C78.0534 60.7089 77.7918 60.8873 77.4826 61.013C77.1768 61.1353 76.8336 61.1965 76.453 61.1965C76.0691 61.1965 75.7225 61.1353 75.4133 61.013C75.1075 60.8873 74.8458 60.7089 74.6283 60.4778C74.4109 60.2468 74.2427 59.9664 74.1238 59.6368C74.0082 59.3072 73.9505 58.9386 73.9505 58.5308C73.9505 58.1231 74.0082 57.7561 74.1238 57.4299C74.2427 57.1003 74.4109 56.82 74.6283 56.5889C74.8458 56.3545 75.1075 56.1761 75.4133 56.0537C75.7225 55.928 76.0691 55.8652 76.453 55.8652ZM76.453 60.4218C76.9423 60.4218 77.3076 60.257 77.5489 59.9274C77.7901 59.5978 77.9107 59.1339 77.9107 58.5359C77.9107 57.9379 77.7901 57.4741 77.5489 57.1445C77.3076 56.8115 76.9423 56.645 76.453 56.645C75.9569 56.645 75.5866 56.8115 75.3419 57.1445C75.1007 57.4741 74.98 57.9379 74.98 58.5359C74.98 59.1339 75.1007 59.5978 75.3419 59.9274C75.5866 60.257 75.9569 60.4218 76.453 60.4218Z" fill="#484848"/>
<path d="M85.8755 55.9314V61.1251H84.9784V57.8325C84.9784 57.7306 84.9835 57.6151 84.9937 57.486C85.0073 57.3568 85.026 57.2379 85.0498 57.1292L83.3168 60.1975C83.2863 60.2553 83.2472 60.3011 83.1996 60.3351C83.152 60.3657 83.096 60.381 83.0314 60.381H82.9193C82.8581 60.381 82.8021 60.3657 82.7511 60.3351C82.7035 60.3011 82.6644 60.2553 82.6339 60.1975L80.8754 57.119C80.8958 57.2277 80.9128 57.3483 80.9264 57.4809C80.94 57.61 80.9468 57.7272 80.9468 57.8325V61.1251H80.0498V55.9314H80.8551C80.923 55.9314 80.991 55.9467 81.0589 55.9773C81.1269 56.0079 81.1847 56.0673 81.2322 56.1557L82.746 58.7143C82.7902 58.7959 82.8309 58.8825 82.8683 58.9742C82.9057 59.066 82.9414 59.1577 82.9754 59.2495C83.0093 59.1577 83.0433 59.066 83.0773 58.9742C83.1147 58.8825 83.1554 58.7959 83.1996 58.7143L84.693 56.1557C84.7406 56.0639 84.7983 56.0045 84.8663 55.9773C84.9343 55.9467 85.0022 55.9314 85.0702 55.9314H85.8755Z" fill="#484848"/>
<path d="M90.6972 57.96C90.6972 57.7629 90.6683 57.5811 90.6106 57.4146C90.5562 57.2481 90.4746 57.1037 90.3659 56.9814C90.2572 56.859 90.1247 56.7639 89.9683 56.6959C89.812 56.628 89.632 56.594 89.4281 56.594C89.0101 56.594 88.6805 56.7146 88.4393 56.9559C88.2014 57.1971 88.0502 57.5318 87.9857 57.96H90.6972ZM91.5178 60.3861C91.3955 60.5288 91.2545 60.6528 91.0948 60.7582C90.9351 60.8601 90.7652 60.9433 90.5851 61.0079C90.405 61.0725 90.2181 61.12 90.0244 61.1506C89.8341 61.1812 89.6455 61.1965 89.4587 61.1965C89.1019 61.1965 88.7706 61.137 88.4648 61.0181C88.1624 60.8958 87.899 60.7191 87.6748 60.488C87.4539 60.2536 87.2806 59.9647 87.1549 59.6216C87.0325 59.275 86.9714 58.8774 86.9714 58.4289C86.9714 58.0687 87.0275 57.734 87.1396 57.4248C87.2517 57.1122 87.4114 56.8404 87.6187 56.6093C87.8294 56.3782 88.0859 56.1965 88.3883 56.0639C88.6907 55.9314 89.0305 55.8652 89.4077 55.8652C89.7237 55.8652 90.0142 55.9178 90.2793 56.0232C90.5477 56.1251 90.7788 56.2746 90.9724 56.4717C91.1661 56.6688 91.3173 56.9117 91.4261 57.2005C91.5382 57.4894 91.5943 57.819 91.5943 58.1893C91.5943 58.3422 91.5773 58.4459 91.5433 58.5002C91.5093 58.5512 91.4464 58.5767 91.3547 58.5767H87.9602C87.9704 58.8859 88.0145 59.156 88.0927 59.3871C88.1709 59.6148 88.2779 59.805 88.4138 59.9579C88.5531 60.1109 88.7179 60.2247 88.9082 60.2994C89.0985 60.3742 89.3109 60.4116 89.5453 60.4116C89.7662 60.4116 89.9565 60.3861 90.1162 60.3351C90.2793 60.2841 90.4186 60.2298 90.5341 60.172C90.653 60.1109 90.7516 60.0548 90.8297 60.0038C90.9113 59.9528 90.9826 59.9274 91.0438 59.9274C91.1253 59.9274 91.1882 59.9579 91.2324 60.0191L91.5178 60.3861Z" fill="#484848"/>
<path d="M93.6564 59.8509C93.8195 60.065 93.9945 60.2145 94.1814 60.2994C94.3717 60.3844 94.584 60.4269 94.8185 60.4269C95.2738 60.4269 95.6255 60.2638 95.8736 59.9376C96.125 59.608 96.2507 59.1289 96.2507 58.5002C96.2507 58.1706 96.2218 57.8903 96.1641 57.6593C96.1097 57.4248 96.0282 57.2345 95.9194 57.0884C95.8141 56.9389 95.6833 56.8302 95.527 56.7622C95.3707 56.6908 95.194 56.6552 94.9969 56.6552C94.7081 56.6552 94.4566 56.7197 94.2426 56.8489C94.0319 56.978 93.8365 57.1615 93.6564 57.3993V59.8509ZM93.6054 56.7214C93.7142 56.5923 93.8297 56.4751 93.952 56.3697C94.0778 56.261 94.212 56.1693 94.3547 56.0945C94.4974 56.0164 94.6486 55.9569 94.8083 55.9161C94.9714 55.8719 95.1447 55.8499 95.3282 55.8499C95.6238 55.8499 95.8905 55.9076 96.1284 56.0232C96.3697 56.1387 96.5752 56.3086 96.7451 56.5328C96.915 56.7571 97.0458 57.034 97.1376 57.3636C97.2327 57.6932 97.2803 58.0721 97.2803 58.5002C97.2803 58.8842 97.2276 59.241 97.1223 59.5706C97.0204 59.8968 96.8725 60.1805 96.6789 60.4218C96.4886 60.663 96.2541 60.8533 95.9755 60.9926C95.7003 61.1285 95.3894 61.1965 95.0428 61.1965C94.7336 61.1965 94.4685 61.1455 94.2477 61.0436C94.0268 60.9416 93.8297 60.7989 93.6564 60.6154V62.8632H92.6625V55.9467H93.2589C93.3982 55.9467 93.4848 56.013 93.5188 56.1455L93.6054 56.7214Z" fill="#484848"/>
<path d="M100.639 56.487C100.832 56.3035 101.07 56.154 101.352 56.0384C101.634 55.9229 101.972 55.8652 102.366 55.8652C102.683 55.8652 102.961 55.9042 103.202 55.9824C103.444 56.0571 103.646 56.1591 103.809 56.2882C103.975 56.4139 104.099 56.5583 104.181 56.7214C104.266 56.8845 104.308 57.0544 104.308 57.2311C104.308 57.3331 104.291 57.4401 104.257 57.5522C104.227 57.661 104.176 57.7663 104.105 57.8682C104.033 57.9702 103.938 58.0653 103.819 58.1537C103.704 58.2386 103.559 58.31 103.386 58.3677C103.705 58.4663 103.958 58.6226 104.145 58.8366C104.332 59.0507 104.426 59.3174 104.426 59.6368C104.426 59.8781 104.37 60.0956 104.257 60.2892C104.149 60.4829 104.001 60.6477 103.814 60.7836C103.627 60.9162 103.411 61.0181 103.167 61.0895C102.922 61.1608 102.667 61.1965 102.402 61.1965C102.239 61.1965 102.071 61.1812 101.898 61.1506C101.728 61.12 101.559 61.0725 101.393 61.0079C101.226 60.9433 101.068 60.8601 100.919 60.7582C100.769 60.6562 100.635 60.5322 100.516 60.3861L100.802 60.0191C100.846 59.9579 100.909 59.9274 100.99 59.9274C101.055 59.9274 101.121 59.9545 101.189 60.0089C101.26 60.0599 101.345 60.1159 101.444 60.1771C101.546 60.2383 101.667 60.296 101.806 60.3504C101.949 60.4014 102.125 60.4269 102.336 60.4269C102.516 60.4269 102.676 60.4048 102.815 60.3606C102.958 60.3164 103.077 60.2553 103.172 60.1771C103.27 60.099 103.345 60.0072 103.396 59.9019C103.447 59.7965 103.473 59.681 103.473 59.5553C103.473 59.3106 103.372 59.1153 103.172 58.9692C102.971 58.823 102.662 58.75 102.244 58.75H101.658V58.0874H102.244C102.611 58.0874 102.897 58.0194 103.1 57.8835C103.304 57.7442 103.406 57.5658 103.406 57.3483C103.406 57.2532 103.384 57.1632 103.34 57.0782C103.296 56.9899 103.228 56.9134 103.136 56.8489C103.048 56.7809 102.936 56.7282 102.8 56.6908C102.667 56.6535 102.513 56.6348 102.336 56.6348C102.139 56.6348 101.972 56.6552 101.836 56.6959C101.701 56.7333 101.585 56.7758 101.49 56.8234C101.395 56.8709 101.315 56.9151 101.25 56.9559C101.189 56.9933 101.136 57.012 101.092 57.012C101.045 57.012 101.004 57.0035 100.97 56.9865C100.939 56.9661 100.905 56.927 100.868 56.8692L100.639 56.487Z" fill="#484848"/>
<path d="M108.327 58.8264C107.923 58.84 107.579 58.8723 107.297 58.9233C107.015 58.9708 106.786 59.0354 106.609 59.117C106.433 59.1985 106.305 59.2954 106.227 59.4075C106.149 59.5162 106.11 59.6385 106.11 59.7745C106.11 59.9036 106.13 60.0157 106.171 60.1109C106.215 60.2026 106.273 60.279 106.344 60.3402C106.419 60.398 106.506 60.4404 106.604 60.4676C106.703 60.4948 106.81 60.5084 106.925 60.5084C107.078 60.5084 107.218 60.4931 107.343 60.4625C107.472 60.432 107.593 60.3895 107.705 60.3351C107.817 60.2773 107.924 60.2077 108.026 60.1261C108.128 60.0446 108.228 59.9511 108.327 59.8458V58.8264ZM105.412 56.6705C105.7 56.3952 106.013 56.1897 106.349 56.0537C106.689 55.9178 107.061 55.8499 107.466 55.8499C107.761 55.8499 108.023 55.8991 108.251 55.9977C108.478 56.0928 108.67 56.227 108.826 56.4003C108.983 56.5736 109.1 56.7809 109.178 57.0221C109.26 57.2634 109.3 57.5301 109.3 57.8224V61.1251H108.857C108.759 61.1251 108.684 61.1098 108.633 61.0793C108.582 61.0453 108.541 60.9841 108.51 60.8958L108.403 60.4421C108.271 60.5645 108.14 60.6732 108.011 60.7683C107.882 60.8601 107.746 60.9399 107.603 61.0079C107.464 61.0725 107.314 61.1217 107.155 61.1557C106.995 61.1897 106.818 61.2067 106.625 61.2067C106.421 61.2067 106.229 61.1795 106.049 61.1251C105.872 61.0674 105.717 60.9807 105.585 60.8652C105.452 60.7497 105.347 60.6052 105.269 60.432C105.194 60.2587 105.157 60.0565 105.157 59.8254C105.157 59.6216 105.211 59.4262 105.32 59.2393C105.432 59.049 105.612 58.8791 105.86 58.7296C106.112 58.5801 106.438 58.4578 106.839 58.3626C107.243 58.2675 107.739 58.2131 108.327 58.1995V57.8224C108.327 57.4316 108.244 57.1394 108.077 56.9457C107.911 56.752 107.666 56.6552 107.343 56.6552C107.126 56.6552 106.942 56.6824 106.793 56.7367C106.647 56.7911 106.519 56.8522 106.411 56.9202C106.305 56.9848 106.212 57.0442 106.13 57.0986C106.052 57.153 105.971 57.1801 105.886 57.1801C105.818 57.1801 105.758 57.1615 105.707 57.1241C105.66 57.0867 105.621 57.0425 105.59 56.9916L105.412 56.6705Z" fill="#484848"/>
<path d="M117.572 61.1251H116.573V56.701H114.203V61.1251H113.209V55.9467H117.572V61.1251Z" fill="#484848"/>
<path d="M121.17 55.8652C121.551 55.8652 121.894 55.928 122.2 56.0537C122.509 56.1761 122.771 56.3545 122.985 56.5889C123.202 56.82 123.369 57.1003 123.484 57.4299C123.6 57.7561 123.657 58.1231 123.657 58.5308C123.657 58.9386 123.6 59.3072 123.484 59.6368C123.369 59.9664 123.202 60.2468 122.985 60.4778C122.771 60.7089 122.509 60.8873 122.2 61.013C121.894 61.1353 121.551 61.1965 121.17 61.1965C120.786 61.1965 120.44 61.1353 120.13 61.013C119.825 60.8873 119.563 60.7089 119.345 60.4778C119.128 60.2468 118.96 59.9664 118.841 59.6368C118.725 59.3072 118.668 58.9386 118.668 58.5308C118.668 58.1231 118.725 57.7561 118.841 57.4299C118.96 57.1003 119.128 56.82 119.345 56.5889C119.563 56.3545 119.825 56.1761 120.13 56.0537C120.44 55.928 120.786 55.8652 121.17 55.8652ZM121.17 60.4218C121.659 60.4218 122.025 60.257 122.266 59.9274C122.507 59.5978 122.628 59.1339 122.628 58.5359C122.628 57.9379 122.507 57.4741 122.266 57.1445C122.025 56.8115 121.659 56.645 121.17 56.645C120.674 56.645 120.304 56.8115 120.059 57.1445C119.818 57.4741 119.697 57.9379 119.697 58.5359C119.697 59.1339 119.818 59.5978 120.059 59.9274C120.304 60.257 120.674 60.4218 121.17 60.4218Z" fill="#484848"/>
<path d="M128.396 56.9151C128.365 56.9525 128.335 56.9831 128.304 57.0069C128.277 57.0272 128.236 57.0374 128.182 57.0374C128.127 57.0374 128.07 57.017 128.008 56.9763C127.951 56.9321 127.876 56.8862 127.784 56.8387C127.696 56.7877 127.587 56.7418 127.458 56.701C127.332 56.6569 127.176 56.6348 126.989 56.6348C126.744 56.6348 126.529 56.679 126.342 56.7673C126.155 56.8556 125.999 56.9814 125.873 57.1445C125.751 57.3076 125.657 57.5063 125.593 57.7408C125.528 57.9753 125.496 58.2386 125.496 58.5308C125.496 58.8332 125.53 59.1034 125.598 59.3412C125.666 59.5757 125.762 59.7745 125.888 59.9376C126.014 60.0973 126.167 60.2196 126.347 60.3045C126.527 60.3861 126.727 60.4269 126.948 60.4269C127.162 60.4269 127.339 60.4014 127.478 60.3504C127.618 60.296 127.733 60.2383 127.825 60.1771C127.917 60.1159 127.993 60.0599 128.054 60.0089C128.116 59.9545 128.178 59.9274 128.243 59.9274C128.324 59.9274 128.387 59.9579 128.432 60.0191L128.717 60.3861C128.598 60.5322 128.464 60.6562 128.314 60.7582C128.168 60.8601 128.012 60.9433 127.845 61.0079C127.679 61.0725 127.504 61.12 127.32 61.1506C127.14 61.1812 126.957 61.1965 126.77 61.1965C126.447 61.1965 126.145 61.137 125.863 61.0181C125.584 60.8992 125.341 60.7259 125.134 60.4982C124.93 60.2706 124.769 59.9919 124.65 59.6623C124.531 59.3293 124.471 58.9522 124.471 58.5308C124.471 58.1469 124.524 57.7918 124.629 57.4656C124.738 57.1394 124.896 56.859 125.103 56.6246C125.314 56.3867 125.572 56.2015 125.878 56.069C126.184 55.9331 126.534 55.8652 126.928 55.8652C127.298 55.8652 127.625 55.9246 127.907 56.0435C128.189 56.1625 128.44 56.3307 128.661 56.5481L128.396 56.9151Z" fill="#484848"/>
<path d="M134.247 61.1251H133.253V56.7265H131.709C131.668 57.3789 131.607 57.943 131.525 58.4187C131.444 58.891 131.345 59.2937 131.23 59.6266C131.114 59.9562 130.985 60.2247 130.842 60.432C130.703 60.6358 130.554 60.7955 130.394 60.9111C130.238 61.0232 130.076 61.0979 129.91 61.1353C129.743 61.1761 129.577 61.1965 129.41 61.1965C129.101 61.1965 128.946 61.1455 128.946 61.0436V60.4167H129.222C129.337 60.4167 129.453 60.398 129.568 60.3606C129.687 60.3198 129.803 60.2434 129.915 60.1312C130.03 60.0157 130.139 59.856 130.241 59.6521C130.343 59.4483 130.436 59.1815 130.521 58.8519C130.606 58.5189 130.679 58.1146 130.741 57.6389C130.802 57.1632 130.849 56.5991 130.883 55.9467H134.247V61.1251Z" fill="#484848"/>
<path d="M139.078 57.96C139.078 57.7629 139.049 57.5811 138.991 57.4146C138.937 57.2481 138.855 57.1037 138.746 56.9814C138.638 56.859 138.505 56.7639 138.349 56.6959C138.193 56.628 138.012 56.594 137.809 56.594C137.391 56.594 137.061 56.7146 136.82 56.9559C136.582 57.1971 136.431 57.5318 136.366 57.96H139.078ZM139.898 60.3861C139.776 60.5288 139.635 60.6528 139.475 60.7582C139.316 60.8601 139.146 60.9433 138.966 61.0079C138.785 61.0725 138.599 61.12 138.405 61.1506C138.215 61.1812 138.026 61.1965 137.839 61.1965C137.482 61.1965 137.151 61.137 136.845 61.0181C136.543 60.8958 136.28 60.7191 136.055 60.488C135.834 60.2536 135.661 59.9647 135.535 59.6216C135.413 59.275 135.352 58.8774 135.352 58.4289C135.352 58.0687 135.408 57.734 135.52 57.4248C135.632 57.1122 135.792 56.8404 135.999 56.6093C136.21 56.3782 136.466 56.1965 136.769 56.0639C137.071 55.9314 137.411 55.8652 137.788 55.8652C138.104 55.8652 138.395 55.9178 138.66 56.0232C138.928 56.1251 139.159 56.2746 139.353 56.4717C139.547 56.6688 139.698 56.9117 139.807 57.2005C139.919 57.4894 139.975 57.819 139.975 58.1893C139.975 58.3422 139.958 58.4459 139.924 58.5002C139.89 58.5512 139.827 58.5767 139.735 58.5767H136.341C136.351 58.8859 136.395 59.156 136.473 59.3871C136.551 59.6148 136.658 59.805 136.794 59.9579C136.934 60.1109 137.098 60.2247 137.289 60.2994C137.479 60.3742 137.691 60.4116 137.926 60.4116C138.147 60.4116 138.337 60.3861 138.497 60.3351C138.66 60.2841 138.799 60.2298 138.915 60.172C139.034 60.1109 139.132 60.0548 139.21 60.0038C139.292 59.9528 139.363 59.9274 139.424 59.9274C139.506 59.9274 139.569 59.9579 139.613 60.0191L139.898 60.3861Z" fill="#484848"/>
<path d="M144.54 60.4014V56.7265H142.991C142.957 57.2294 142.911 57.6779 142.853 58.0721C142.796 58.4663 142.728 58.8128 142.649 59.1119C142.575 59.4075 142.491 59.6623 142.4 59.8764C142.308 60.0871 142.211 60.2621 142.109 60.4014H144.54ZM146.452 60.3708V62.5879C146.452 62.6831 146.425 62.7578 146.37 62.8122C146.319 62.8666 146.251 62.8937 146.166 62.8937H145.55V61.1251H141.319V62.6083C141.319 62.6831 141.297 62.7493 141.253 62.8071C141.209 62.8649 141.139 62.8937 141.044 62.8937H140.412V60.4014H140.58C140.699 60.4014 140.816 60.3827 140.932 60.3453C141.047 60.3079 141.158 60.2332 141.263 60.121C141.372 60.0089 141.474 59.8509 141.569 59.647C141.664 59.4432 141.751 59.1764 141.829 58.8468C141.907 58.5172 141.975 58.1163 142.033 57.644C142.091 57.1683 142.136 56.6025 142.17 55.9467H145.504V60.3708H146.452Z" fill="#484848"/>
<path d="M151.707 55.9467V61.1251H150.708V58.7398H148.338V61.1251H147.344V55.9467H148.338V57.9855H150.708V55.9467H151.707Z" fill="#484848"/>
<path d="M157.594 55.9467V61.1251H156.595V57.7408C156.595 57.6728 156.598 57.5981 156.605 57.5165C156.612 57.4316 156.622 57.3466 156.636 57.2617C156.602 57.3331 156.568 57.401 156.534 57.4656C156.503 57.5267 156.471 57.5811 156.437 57.6287L154.057 60.8754C154.019 60.9365 153.97 60.9943 153.909 61.0487C153.848 61.103 153.778 61.1302 153.7 61.1302H153.098V55.9467H154.092V59.3361C154.092 59.4041 154.089 59.4805 154.082 59.5655C154.075 59.647 154.065 59.7286 154.051 59.8101C154.119 59.6606 154.186 59.54 154.25 59.4483L156.63 56.1965C156.668 56.1387 156.717 56.0826 156.778 56.0283C156.843 55.9739 156.914 55.9467 156.992 55.9467H157.594Z" fill="#484848"/>
<path d="M162.412 57.96C162.412 57.7629 162.383 57.5811 162.325 57.4146C162.271 57.2481 162.189 57.1037 162.081 56.9814C161.972 56.859 161.839 56.7639 161.683 56.6959C161.527 56.628 161.347 56.594 161.143 56.594C160.725 56.594 160.395 56.7146 160.154 56.9559C159.916 57.1971 159.765 57.5318 159.7 57.96H162.412ZM163.232 60.3861C163.11 60.5288 162.969 60.6528 162.809 60.7582C162.65 60.8601 162.48 60.9433 162.3 61.0079C162.12 61.0725 161.933 61.12 161.739 61.1506C161.549 61.1812 161.36 61.1965 161.173 61.1965C160.817 61.1965 160.485 61.137 160.179 61.0181C159.877 60.8958 159.614 60.7191 159.389 60.488C159.169 60.2536 158.995 59.9647 158.869 59.6216C158.747 59.275 158.686 58.8774 158.686 58.4289C158.686 58.0687 158.742 57.734 158.854 57.4248C158.966 57.1122 159.126 56.8404 159.333 56.6093C159.544 56.3782 159.801 56.1965 160.103 56.0639C160.405 55.9314 160.745 55.8652 161.122 55.8652C161.438 55.8652 161.729 55.9178 161.994 56.0232C162.262 56.1251 162.493 56.2746 162.687 56.4717C162.881 56.6688 163.032 56.9117 163.141 57.2005C163.253 57.4894 163.309 57.819 163.309 58.1893C163.309 58.3422 163.292 58.4459 163.258 58.5002C163.224 58.5512 163.161 58.5767 163.069 58.5767H159.675C159.685 58.8859 159.729 59.156 159.807 59.3871C159.885 59.6148 159.993 59.805 160.128 59.9579C160.268 60.1109 160.433 60.2247 160.623 60.2994C160.813 60.3742 161.025 60.4116 161.26 60.4116C161.481 60.4116 161.671 60.3861 161.831 60.3351C161.994 60.2841 162.133 60.2298 162.249 60.172C162.368 60.1109 162.466 60.0548 162.544 60.0038C162.626 59.9528 162.697 59.9274 162.758 59.9274C162.84 59.9274 162.903 59.9579 162.947 60.0191L163.232 60.3861Z" fill="#484848"/>
<path d="M171.283 60.1822C171.391 60.1822 171.476 60.2145 171.538 60.279C171.599 60.3402 171.629 60.4218 171.629 60.5237V61.1251H166.716V60.7836C166.716 60.7157 166.729 60.6443 166.757 60.5696C166.784 60.4914 166.83 60.4218 166.894 60.3606L169.208 58.0415C169.402 57.8478 169.577 57.661 169.733 57.4809C169.89 57.3008 170.022 57.1224 170.131 56.9457C170.24 56.7656 170.323 56.5821 170.381 56.3952C170.442 56.2083 170.472 56.0113 170.472 55.804C170.472 55.6001 170.44 55.4217 170.375 55.2688C170.311 55.1125 170.223 54.9834 170.11 54.8815C169.998 54.7795 169.866 54.7031 169.713 54.6521C169.56 54.6011 169.395 54.5756 169.218 54.5756C169.042 54.5756 168.879 54.6011 168.729 54.6521C168.583 54.7031 168.452 54.7744 168.337 54.8662C168.221 54.9579 168.124 55.0666 168.046 55.1924C167.968 55.3181 167.912 55.454 167.878 55.6001C167.83 55.7292 167.769 55.8159 167.695 55.8601C167.623 55.9042 167.518 55.9144 167.378 55.8906L166.859 55.7989C166.906 55.4591 167 55.1601 167.139 54.9018C167.278 54.6436 167.453 54.4278 167.664 54.2545C167.875 54.0778 168.116 53.9453 168.388 53.857C168.663 53.7686 168.959 53.7245 169.275 53.7245C169.594 53.7245 169.888 53.772 170.156 53.8672C170.428 53.9589 170.663 54.0931 170.86 54.2698C171.057 54.4465 171.211 54.6623 171.323 54.9171C171.436 55.1686 171.492 55.454 171.492 55.7734C171.492 56.0452 171.451 56.2984 171.369 56.5328C171.291 56.7639 171.182 56.9848 171.043 57.1954C170.907 57.4061 170.748 57.6117 170.564 57.8122C170.384 58.0092 170.192 58.2097 169.988 58.4136L168.133 60.3096C168.276 60.2723 168.418 60.2417 168.561 60.2179C168.707 60.1941 168.845 60.1822 168.974 60.1822H171.283Z" fill="#484848"/>
<path d="M175.871 58.4544V55.6001C175.871 55.5016 175.872 55.3979 175.876 55.2892C175.883 55.1771 175.894 55.0615 175.911 54.9426L173.348 58.4544H175.871ZM177.802 58.4544V59.0303C177.802 59.0881 177.784 59.1373 177.746 59.1781C177.709 59.2189 177.656 59.2393 177.588 59.2393H176.742V61.1251H175.871V59.2393H172.66C172.585 59.2393 172.522 59.2189 172.471 59.1781C172.42 59.1339 172.386 59.0796 172.369 59.015L172.267 58.5053L175.804 53.8009H176.742V58.4544H177.802Z" fill="#484848"/>
<path d="M185.244 55.9467V61.1251H184.25V58.9692C183.805 59.0847 183.389 59.156 183.001 59.1832C182.614 59.207 182.276 59.173 181.987 59.0813C181.698 58.9861 181.471 58.8247 181.304 58.5971C181.141 58.366 181.059 58.0534 181.059 57.6593V55.9467H182.058V57.5063C182.058 57.7442 182.104 57.9345 182.196 58.0772C182.288 58.2165 182.425 58.3151 182.609 58.3728C182.792 58.4272 183.02 58.4442 183.292 58.4238C183.567 58.4 183.886 58.3473 184.25 58.2658V55.9467H185.244Z" fill="#484848"/>
<path d="M189.419 58.8264C189.015 58.84 188.672 58.8723 188.389 58.9233C188.107 58.9708 187.878 59.0354 187.701 59.117C187.525 59.1985 187.397 59.2954 187.319 59.4075C187.241 59.5162 187.202 59.6385 187.202 59.7745C187.202 59.9036 187.222 60.0157 187.263 60.1109C187.307 60.2026 187.365 60.279 187.436 60.3402C187.511 60.398 187.598 60.4404 187.696 60.4676C187.795 60.4948 187.902 60.5084 188.017 60.5084C188.17 60.5084 188.31 60.4931 188.435 60.4625C188.564 60.432 188.685 60.3895 188.797 60.3351C188.909 60.2773 189.016 60.2077 189.118 60.1261C189.22 60.0446 189.321 59.9511 189.419 59.8458V58.8264ZM186.504 56.6705C186.792 56.3952 187.105 56.1897 187.441 56.0537C187.781 55.9178 188.153 55.8499 188.558 55.8499C188.853 55.8499 189.115 55.8991 189.343 55.9977C189.57 56.0928 189.762 56.227 189.919 56.4003C190.075 56.5736 190.192 56.7809 190.27 57.0221C190.352 57.2634 190.393 57.5301 190.393 57.8224V61.1251H189.949C189.851 61.1251 189.776 61.1098 189.725 61.0793C189.674 61.0453 189.633 60.9841 189.603 60.8958L189.496 60.4421C189.363 60.5645 189.232 60.6732 189.103 60.7683C188.974 60.8601 188.838 60.9399 188.695 61.0079C188.556 61.0725 188.406 61.1217 188.247 61.1557C188.087 61.1897 187.91 61.2067 187.717 61.2067C187.513 61.2067 187.321 61.1795 187.141 61.1251C186.964 61.0674 186.809 60.9807 186.677 60.8652C186.544 60.7497 186.439 60.6052 186.361 60.432C186.286 60.2587 186.249 60.0565 186.249 59.8254C186.249 59.6216 186.303 59.4262 186.412 59.2393C186.524 59.049 186.704 58.8791 186.952 58.7296C187.204 58.5801 187.53 58.4578 187.931 58.3626C188.335 58.2675 188.831 58.2131 189.419 58.1995V57.8224C189.419 57.4316 189.336 57.1394 189.169 56.9457C189.003 56.752 188.758 56.6552 188.435 56.6552C188.218 56.6552 188.034 56.6824 187.885 56.7367C187.739 56.7911 187.611 56.8522 187.503 56.9202C187.397 56.9848 187.304 57.0442 187.222 57.0986C187.144 57.153 187.063 57.1801 186.978 57.1801C186.91 57.1801 186.85 57.1615 186.799 57.1241C186.752 57.0867 186.713 57.0425 186.682 56.9916L186.504 56.6705Z" fill="#484848"/>
<path d="M195.352 56.9151C195.321 56.9525 195.291 56.9831 195.26 57.0069C195.233 57.0272 195.192 57.0374 195.138 57.0374C195.084 57.0374 195.026 57.017 194.965 56.9763C194.907 56.9321 194.832 56.8862 194.74 56.8387C194.652 56.7877 194.543 56.7418 194.414 56.701C194.289 56.6569 194.132 56.6348 193.945 56.6348C193.701 56.6348 193.485 56.679 193.298 56.7673C193.111 56.8556 192.955 56.9814 192.829 57.1445C192.707 57.3076 192.613 57.5063 192.549 57.7408C192.484 57.9753 192.452 58.2386 192.452 58.5308C192.452 58.8332 192.486 59.1034 192.554 59.3412C192.622 59.5757 192.719 59.7745 192.844 59.9376C192.97 60.0973 193.123 60.2196 193.303 60.3045C193.483 60.3861 193.684 60.4269 193.905 60.4269C194.119 60.4269 194.295 60.4014 194.435 60.3504C194.574 60.296 194.689 60.2383 194.781 60.1771C194.873 60.1159 194.949 60.0599 195.011 60.0089C195.072 59.9545 195.135 59.9274 195.199 59.9274C195.281 59.9274 195.344 59.9579 195.388 60.0191L195.673 60.3861C195.554 60.5322 195.42 60.6562 195.271 60.7582C195.124 60.8601 194.968 60.9433 194.802 61.0079C194.635 61.0725 194.46 61.12 194.277 61.1506C194.097 61.1812 193.913 61.1965 193.726 61.1965C193.403 61.1965 193.101 61.137 192.819 61.0181C192.54 60.8992 192.297 60.7259 192.09 60.4982C191.886 60.2706 191.725 59.9919 191.606 59.6623C191.487 59.3293 191.427 58.9522 191.427 58.5308C191.427 58.1469 191.48 57.7918 191.585 57.4656C191.694 57.1394 191.852 56.859 192.059 56.6246C192.27 56.3867 192.528 56.2015 192.834 56.069C193.14 55.9331 193.49 55.8652 193.884 55.8652C194.255 55.8652 194.581 55.9246 194.863 56.0435C195.145 56.1625 195.396 56.3307 195.617 56.5481L195.352 56.9151Z" fill="#484848"/>
<path d="M199.384 58.8264C198.979 58.84 198.636 58.8723 198.354 58.9233C198.072 58.9708 197.843 59.0354 197.666 59.117C197.49 59.1985 197.362 59.2954 197.284 59.4075C197.206 59.5162 197.167 59.6385 197.167 59.7745C197.167 59.9036 197.187 60.0157 197.228 60.1109C197.272 60.2026 197.33 60.279 197.401 60.3402C197.476 60.398 197.563 60.4404 197.661 60.4676C197.76 60.4948 197.867 60.5084 197.982 60.5084C198.135 60.5084 198.274 60.4931 198.4 60.4625C198.529 60.432 198.65 60.3895 198.762 60.3351C198.874 60.2773 198.981 60.2077 199.083 60.1261C199.185 60.0446 199.285 59.9511 199.384 59.8458V58.8264ZM196.468 56.6705C196.757 56.3952 197.07 56.1897 197.406 56.0537C197.746 55.9178 198.118 55.8499 198.522 55.8499C198.818 55.8499 199.08 55.8991 199.307 55.9977C199.535 56.0928 199.727 56.227 199.883 56.4003C200.04 56.5736 200.157 56.7809 200.235 57.0221C200.317 57.2634 200.357 57.5301 200.357 57.8224V61.1251H199.914C199.815 61.1251 199.741 61.1098 199.69 61.0793C199.639 61.0453 199.598 60.9841 199.567 60.8958L199.46 60.4421C199.328 60.5645 199.197 60.6732 199.068 60.7683C198.939 60.8601 198.803 60.9399 198.66 61.0079C198.521 61.0725 198.371 61.1217 198.212 61.1557C198.052 61.1897 197.875 61.2067 197.681 61.2067C197.478 61.2067 197.286 61.1795 197.106 61.1251C196.929 61.0674 196.774 60.9807 196.642 60.8652C196.509 60.7497 196.404 60.6052 196.326 60.432C196.251 60.2587 196.214 60.0565 196.214 59.8254C196.214 59.6216 196.268 59.4262 196.377 59.2393C196.489 59.049 196.669 58.8791 196.917 58.7296C197.168 58.5801 197.495 58.4578 197.896 58.3626C198.3 58.2675 198.796 58.2131 199.384 58.1995V57.8224C199.384 57.4316 199.301 57.1394 199.134 56.9457C198.968 56.752 198.723 56.6552 198.4 56.6552C198.183 56.6552 197.999 56.6824 197.85 56.7367C197.704 56.7911 197.576 56.8522 197.467 56.9202C197.362 56.9848 197.269 57.0442 197.187 57.0986C197.109 57.153 197.027 57.1801 196.942 57.1801C196.874 57.1801 196.815 57.1615 196.764 57.1241C196.716 57.0867 196.677 57.0425 196.647 56.9916L196.468 56.6705Z" fill="#484848"/>
<path d="M59.7844 57.4844C59.7844 69.9505 49.6786 80.0562 37.2125 80.0562C24.7464 80.0562 14.6406 69.9505 14.6406 57.4844C14.6406 45.0182 24.7464 34.9125 37.2125 34.9125C49.6786 34.9125 59.7844 45.0182 59.7844 57.4844Z" fill="#6FBFF6" fill-opacity="0.3"/>
<rect width="20.3875" height="26.2125" fill="black" fill-opacity="0" transform="translate(27.0186 43.65)"/>
<path d="M27.3579 56.4337C27.3579 56.4337 28.3458 57.9551 30.4162 59.2429C30.4162 59.2429 28.9167 45.9574 38.6868 43.65C36.1837 53.2811 41.8709 55.9972 43.944 50.9089C47.4061 55.7547 44.7774 59.9824 44.7774 59.9824C46.197 60.1968 47.3895 58.5709 47.3895 58.5709C47.4001 58.7712 47.4061 58.9729 47.4061 59.176C47.4061 65.078 42.8422 69.8625 37.2123 69.8625C31.5825 69.8625 27.0186 65.078 27.0186 59.1759C27.0186 58.2279 27.1369 57.3089 27.3579 56.4337Z" fill="#FE8B68"/>
<path d="M32.7422 65.1758C32.7422 67.7642 34.7437 69.8625 37.2128 69.8625C39.6818 69.8625 41.6833 67.7642 41.6833 65.1758C41.6833 63.7904 41.11 62.5454 40.1984 61.6874C38.4699 64.1492 36.0067 60.4149 37.9263 57.6879C37.9263 57.6879 32.7422 58.3689 32.7422 65.1758Z" fill="#FEE8A1"/>
<rect width="20.3875" height="26.2125" fill="black" fill-opacity="0" transform="translate(27.0186 43.65)"/>
<path d="M27.3579 56.4337C27.3579 56.4337 28.3458 57.9551 30.4162 59.2429C30.4162 59.2429 28.9167 45.9574 38.6868 43.65C36.1837 53.2811 41.8709 55.9972 43.944 50.9089C47.4061 55.7547 44.7774 59.9824 44.7774 59.9824C46.197 60.1968 47.3895 58.5709 47.3895 58.5709C47.4001 58.7712 47.4061 58.9729 47.4061 59.176C47.4061 65.078 42.8422 69.8625 37.2123 69.8625C31.5825 69.8625 27.0186 65.078 27.0186 59.1759C27.0186 58.2279 27.1369 57.3089 27.3579 56.4337Z" fill="#FE8B68"/>
<path d="M32.7422 65.1758C32.7422 67.7642 34.7437 69.8625 37.2128 69.8625C39.6818 69.8625 41.6833 67.7642 41.6833 65.1758C41.6833 63.7904 41.11 62.5454 40.1984 61.6874C38.4699 64.1492 36.0067 60.4149 37.9263 57.6879C37.9263 57.6879 32.7422 58.3689 32.7422 65.1758Z" fill="#FEE8A1"/>
<rect width="8.00937" height="5.46094" fill="black" fill-opacity="0" transform="translate(67.7939 69.8625)"/>
<rect width="8.00937" height="5.46094" fill="black" fill-opacity="0" transform="translate(67.7939 69.8625)"/>
<path fill-rule="evenodd" clip-rule="evenodd" d="M74.7922 70.0401C74.5412 69.8034 74.1103 69.8034 73.8593 70.0401L70.8764 72.8369L69.5872 71.6124C69.3362 71.3757 68.9053 71.3757 68.6536 71.6124L67.7939 72.593L70.4128 75.146C70.6638 75.3827 71.0947 75.3827 71.3457 75.146L71.8662 74.6556C71.8847 74.6385 71.9017 74.6204 71.9174 74.6015L75.8033 71.0123L74.7922 70.0401Z" fill="#32BA7C"/>
<path fill-rule="evenodd" clip-rule="evenodd" d="M73.9589 70.1463L70.8757 73.0372L69.4873 71.7183C69.4873 71.7183 69.4874 71.7184 69.4873 71.7183C69.2941 71.5363 68.9546 71.5345 68.7582 71.714L67.9945 72.5852L70.5135 75.0408C70.7086 75.2239 71.0512 75.2236 71.2458 75.0401L71.7671 74.5489C71.7809 74.5361 71.7936 74.5226 71.8053 74.5085L71.8115 74.5011L75.591 71.0101L74.6923 70.146C74.6921 70.1459 74.6924 70.1462 74.6923 70.146C74.4973 69.9627 74.1536 69.9627 73.9589 70.1463ZM74.7922 70.0401C74.5412 69.8034 74.1103 69.8034 73.8593 70.0401L70.8764 72.8369L69.5872 71.6124C69.3362 71.3757 68.9053 71.3757 68.6536 71.6124L67.7939 72.593L70.4128 75.146C70.6638 75.3827 71.0947 75.3827 71.3457 75.146L71.8662 74.6556C71.8847 74.6385 71.9017 74.6204 71.9174 74.6015L75.8033 71.0123L74.7922 70.0401Z" fill="white"/>
<path d="M90.469 74.9594V70.6926H88.8525V69.8625H92.9883V70.6926H91.3719V74.9594H90.469Z" fill="#32BA7C"/>
<path d="M93.3099 74.9594V71.1149H94.1909V71.9813C94.4628 71.326 94.9166 71.0129 95.5525 71.0421V71.9741H95.5016C95.1035 71.9741 94.7856 72.1051 94.5477 72.3672C94.3099 72.6245 94.1909 73.0007 94.1909 73.4958V74.9594H93.3099Z" fill="#32BA7C"/>
<path d="M97.6429 75.0395C97.2157 75.0395 96.8808 74.906 96.6381 74.639C96.3954 74.372 96.274 74.0128 96.274 73.5614V71.1149H97.155V73.2992C97.155 73.6002 97.2254 73.8332 97.3662 73.9982C97.5118 74.1584 97.7157 74.2385 97.9778 74.2385C98.2351 74.2385 98.4438 74.1536 98.604 73.9837C98.7642 73.8138 98.8443 73.5808 98.8443 73.2847V71.1149H99.7253V74.9594H98.8443V74.3623C98.5385 74.8137 98.138 75.0395 97.6429 75.0395Z" fill="#32BA7C"/>
<path d="M102.151 75.0322C101.549 75.0322 101.005 74.8404 100.52 74.457L100.913 73.8599C101.33 74.1754 101.75 74.3332 102.173 74.3332C102.362 74.3332 102.508 74.2968 102.61 74.224C102.716 74.1463 102.77 74.0395 102.77 73.9036C102.77 73.8356 102.75 73.7774 102.711 73.7288C102.678 73.6754 102.614 73.6269 102.522 73.5832C102.43 73.5395 102.352 73.508 102.289 73.4886C102.226 73.4691 102.122 73.4376 101.976 73.3939L101.911 73.3721C101.775 73.3332 101.658 73.2968 101.561 73.2628C101.469 73.224 101.364 73.173 101.248 73.1099C101.131 73.0468 101.037 72.9789 100.964 72.9061C100.891 72.8284 100.83 72.7313 100.782 72.6148C100.733 72.4983 100.709 72.3672 100.709 72.2216C100.709 71.8673 100.838 71.5833 101.095 71.3697C101.357 71.1561 101.685 71.0493 102.078 71.0493C102.578 71.0493 103.049 71.195 103.491 71.4862L103.141 72.1124C102.743 71.8697 102.381 71.7483 102.056 71.7483C101.886 71.7483 101.753 71.7847 101.656 71.8576C101.563 71.9304 101.517 72.0275 101.517 72.1488C101.517 72.2313 101.559 72.3066 101.641 72.3745C101.729 72.4425 101.813 72.4935 101.896 72.5274C101.983 72.5566 102.122 72.6027 102.311 72.6658C102.321 72.6706 102.333 72.6755 102.347 72.6803C102.362 72.6852 102.374 72.6876 102.384 72.6876C102.554 72.741 102.697 72.7944 102.813 72.8478C102.93 72.8963 103.051 72.9643 103.177 73.0517C103.309 73.1391 103.408 73.2483 103.476 73.3793C103.544 73.5055 103.578 73.6536 103.578 73.8235C103.578 74.2118 103.444 74.5104 103.177 74.7191C102.911 74.9278 102.568 75.0322 102.151 75.0322Z" fill="#32BA7C"/>
<path d="M105.691 75.0249C104.953 75.0249 104.584 74.6487 104.584 73.8963V71.8721H104.097V71.1149H104.584V70.0591H105.466V71.1149H106.499V71.8721H105.466V73.758C105.466 74.0783 105.623 74.2385 105.939 74.2385C106.128 74.2385 106.31 74.1948 106.485 74.1075V74.8283C106.252 74.9594 105.987 75.0249 105.691 75.0249Z" fill="#32BA7C"/>
<path d="M109.237 74.9594L111.48 69.8261H112.31L114.552 74.9594H113.606L113.089 73.7288H110.679L110.154 74.9594H109.237ZM111.006 72.9352H112.761L111.88 70.8964L111.006 72.9352Z" fill="#32BA7C"/>
<path d="M116.916 75.0467C116.348 75.0467 115.875 74.8526 115.496 74.4642C115.118 74.0759 114.928 73.6026 114.928 73.0444C114.928 72.491 115.118 72.0177 115.496 71.6246C115.88 71.2314 116.355 71.0348 116.923 71.0348C117.545 71.0348 118.057 71.2556 118.46 71.6974L117.914 72.2872C117.608 71.9668 117.275 71.8066 116.916 71.8066C116.601 71.8066 116.336 71.9279 116.122 72.1707C115.914 72.4085 115.809 72.6998 115.809 73.0444C115.809 73.3939 115.916 73.6876 116.13 73.9254C116.348 74.1633 116.625 74.2822 116.96 74.2822C117.314 74.2822 117.647 74.122 117.957 73.8017L118.489 74.3259C118.28 74.5589 118.052 74.7385 117.804 74.8647C117.562 74.9861 117.266 75.0467 116.916 75.0467Z" fill="#32BA7C"/>
<path d="M120.588 75.0249C119.85 75.0249 119.481 74.6487 119.481 73.8963V71.8721H118.993V71.1149H119.481V70.0591H120.362V71.1149H121.396V71.8721H120.362V73.758C120.362 74.0783 120.52 74.2385 120.835 74.2385C121.025 74.2385 121.207 74.1948 121.382 74.1075V74.8283C121.149 74.9594 120.884 75.0249 120.588 75.0249Z" fill="#32BA7C"/>
<path d="M122.3 70.5251V69.6877H123.247V70.5251H122.3ZM122.337 74.9594V71.1149H123.218V74.9594H122.337Z" fill="#32BA7C"/>
<path d="M125.585 74.9885L124.005 71.1149H124.951L125.985 73.94L127.027 71.1149H127.951L126.379 74.9885H125.585Z" fill="#32BA7C"/>
<path d="M128.714 70.5251V69.6877H129.66V70.5251H128.714ZM128.75 74.9594V71.1149H129.631V74.9594H128.75Z" fill="#32BA7C"/>
<path d="M132.072 75.0249C131.334 75.0249 130.965 74.6487 130.965 73.8963V71.8721H130.477V71.1149H130.965V70.0591H131.846V71.1149H132.88V71.8721H131.846V73.758C131.846 74.0783 132.004 74.2385 132.319 74.2385C132.508 74.2385 132.69 74.1948 132.865 74.1075V74.8283C132.632 74.9594 132.368 75.0249 132.072 75.0249Z" fill="#32BA7C"/>
<path d="M134.556 76.1462C134.235 76.1462 133.932 76.0685 133.645 75.9132L133.944 75.2579C134.124 75.355 134.296 75.4035 134.461 75.4035C134.587 75.4035 134.691 75.3695 134.774 75.3016C134.857 75.2385 134.934 75.1244 135.007 74.9594L133.405 71.1149H134.344L135.437 73.9691L136.434 71.1149H137.352L135.823 75.0686C135.667 75.4618 135.495 75.7385 135.306 75.8987C135.116 76.0637 134.866 76.1462 134.556 76.1462Z" fill="#32BA7C"/>
<path d="M79.1963 74.0493C79.3128 74.2023 79.439 74.309 79.5749 74.3697C79.7108 74.4304 79.8588 74.4607 80.019 74.4607C80.3491 74.4607 80.6027 74.343 80.7799 74.1076C80.9595 73.8722 81.0493 73.5166 81.0493 73.0409C81.0493 72.6016 80.9704 72.28 80.8127 72.0761C80.6549 71.8698 80.4316 71.7667 80.1428 71.7667C79.9389 71.7667 79.7618 71.8128 79.6113 71.905C79.4632 71.9972 79.3249 72.1283 79.1963 72.2982V74.0493ZM79.1963 71.7703C79.3492 71.6004 79.5227 71.4633 79.7169 71.3589C79.911 71.2546 80.1319 71.2024 80.3795 71.2024C80.5955 71.2024 80.7896 71.2448 80.962 71.3298C81.1367 71.4123 81.2848 71.5325 81.4061 71.6902C81.5275 71.8456 81.6209 72.0349 81.6864 72.2582C81.752 72.4814 81.7847 72.7339 81.7847 73.0154C81.7847 73.3139 81.7471 73.5858 81.6719 73.8309C81.5991 74.076 81.4935 74.286 81.3551 74.4607C81.2192 74.6355 81.053 74.7714 80.8564 74.8685C80.6598 74.9631 80.4389 75.0105 80.1938 75.0105C80.0749 75.0105 79.9656 74.9983 79.8661 74.9741C79.7666 74.9522 79.6744 74.9195 79.5894 74.8758C79.5069 74.8321 79.4305 74.7787 79.3601 74.7156C79.2897 74.6525 79.2229 74.5809 79.1598 74.5008L79.1271 74.8102C79.1077 74.9097 79.047 74.9595 78.945 74.9595H78.4863V69.5859H79.1963V71.7703Z" fill="#898989"/>
<path d="M85.7082 71.2606L83.6549 76.0335C83.6331 76.0869 83.604 76.1281 83.5676 76.1573C83.5312 76.1864 83.4778 76.201 83.4074 76.201H82.8795L83.5566 74.7265L82.0385 71.2606H82.6574C82.7181 71.2606 82.7654 71.2752 82.7994 71.3043C82.8334 71.3334 82.8576 71.3662 82.8722 71.4026L83.8115 73.6234C83.8309 73.6792 83.8491 73.7362 83.8661 73.7945C83.8855 73.8503 83.9013 73.9061 83.9134 73.962C83.9304 73.9037 83.9486 73.8467 83.968 73.7909C83.9874 73.7326 84.0081 73.6756 84.0299 73.6198L84.9364 71.4026C84.9534 71.3613 84.9801 71.3274 85.0165 71.3007C85.0529 71.274 85.0942 71.2606 85.1403 71.2606H85.7082Z" fill="#898989"/>
<defs>
<filter id="filter0_d" x="29.5059" y="100.579" width="195.36" height="195.097" filterUnits="userSpaceOnUse" color-interpolation-filters="sRGB">
<feFlood flood-opacity="0" result="BackgroundImageFix"/>
<feColorMatrix in="SourceAlpha" type="matrix" values="0 0 0 0 0 0 0 0 0 0 0 0 0 0 0 0 0 0 255 0"/>
<feOffset dy="1"/>
<feGaussianBlur stdDeviation="2"/>
<feColorMatrix type="matrix" values="0 0 0 0 0 0 0 0 0 0 0 0 0 0 0 0 0 0 0.15 0"/>
<feBlend mode="normal" in2="BackgroundImageFix" result="effect1_dropShadow"/>
<feBlend mode="normal" in="SourceGraphic" in2="effect1_dropShadow" result="shape"/>
</filter>
<filter id="filter1_d" x="8" y="29" width="239" height="56.9688" filterUnits="userSpaceOnUse" color-interpolation-filters="sRGB">
<feFlood flood-opacity="0" result="BackgroundImageFix"/>
<feColorMatrix in="SourceAlpha" type="matrix" values="0 0 0 0 0 0 0 0 0 0 0 0 0 0 0 0 0 0 255 0"/>
<feOffset/>
<feGaussianBlur stdDeviation="1.5"/>
<feColorMatrix type="matrix" values="0 0 0 0 0 0 0 0 0 0 0 0 0 0 0 0 0 0 0.2 0"/>
<feBlend mode="normal" in2="BackgroundImageFix" result="effect1_dropShadow"/>
<feBlend mode="normal" in="SourceGraphic" in2="effect1_dropShadow" result="shape"/>
</filter>
<linearGradient id="paint0_linear" x1="124.742" y1="-6.23853" x2="124.742" y2="564" gradientUnits="userSpaceOnUse">
<stop stop-color="#FD9A93"/>
<stop offset="0.649341" stop-color="white"/>
</linearGradient>
<linearGradient id="paint1_linear" x1="127" y1="192" x2="127" y2="546" gradientUnits="userSpaceOnUse">
<stop stop-color="white" stop-opacity="0"/>
<stop offset="1" stop-color="white"/>
</linearGradient>
</defs>
</svg>
