<svg width="255" height="547" viewBox="0 0 255 547" fill="none" xmlns="http://www.w3.org/2000/svg">
<mask id="mask0" mask-type="alpha" maskUnits="userSpaceOnUse" x="0" y="0" width="255" height="547">
<path d="M200.5 0C199.7 0 199 0.698795 199 1.49742V4.99139C199 13.7762 191.8 20.9639 183 20.9639H73C64.2 20.9639 57 13.7762 57 4.99139V1.49742C57 0.698795 56.3 0 55.5 0H30C13.4 0 0 13.3769 0 29.9484V515.112C0 531.683 13.4 545.06 30 545.06H225C241.6 545.06 255 531.683 255 515.112V29.9484C255 13.3769 241.6 0 225 0H200.5Z" transform="translate(0 0.970703)" fill="white"/>
</mask>
<g mask="url(#mask0)">
<path d="M0 0H283.483V570.238H0V0Z" transform="translate(-17 -6.23853)" fill="url(#paint0_linear)"/>
</g>
<mask id="mask1" mask-type="alpha" maskUnits="userSpaceOnUse" x="0" y="0" width="255" height="547">
<path d="M200.5 0C199.7 0 199 0.698795 199 1.49742V4.99139C199 13.7762 191.8 20.9639 183 20.9639H73C64.2 20.9639 57 13.7762 57 4.99139V1.49742C57 0.698795 56.3 0 55.5 0H30C13.4 0 0 13.3769 0 29.9484V515.112C0 531.683 13.4 545.06 30 545.06H225C241.6 545.06 255 531.683 255 515.112V29.9484C255 13.3769 241.6 0 225 0H200.5Z" transform="translate(0 0.970703)" fill="white"/>
</mask>
<g mask="url(#mask1)">
<g filter="url(#filter0_d)">
<path d="M93.6797 187.097C145.418 187.097 187.359 145.214 187.359 93.5484C187.359 41.883 145.418 0 93.6797 0C41.9418 0 0 41.883 0 93.5484C0 145.214 41.9418 187.097 93.6797 187.097Z" transform="translate(33.5059 103.579)" fill="#FCFCFC"/>
<path d="M25.6595 3.94219C25.0381 3.94219 24.4511 4.06424 23.8883 4.24147C22.1059 1.68241 19.1487 0 15.7905 0C12.4323 0 9.47519 1.68241 7.69272 4.24147C7.12991 4.06424 6.54295 3.94219 5.92159 3.94219C2.65121 3.94219 0 6.58968 0 9.85547H31.581C31.581 6.58968 28.9298 3.94219 25.6595 3.94219Z" transform="translate(147.63 124.81)" fill="#FFE2D9"/>
<path d="M20.6794 3.17699C20.1788 3.17699 19.7057 3.27529 19.2519 3.41817C17.8153 1.35609 15.4323 0 12.7258 0C10.0193 0 7.63636 1.35572 6.1997 3.41817C5.7463 3.27529 5.27314 3.17699 4.77218 3.17699C2.1367 3.17699 0 5.31033 0 7.94248H25.4505C25.4516 5.31033 23.3149 3.17699 20.6794 3.17699Z" transform="translate(123.815 152.546)" fill="#FFE2D9"/>
<path d="M0 15.0887C0 9.25544 4.73558 4.52687 10.5767 4.52687C11.4582 4.52687 12.3013 4.66609 13.1199 4.8689C15.8798 1.89253 19.7928 0 24.1752 0C32.52 0 39.2847 6.75522 39.2847 15.0883H0V15.0887Z" transform="translate(90.2461 120.713)" fill="#FFE2D9"/>
<path d="M0 11.4867C0 7.04609 3.54044 3.44594 7.90789 3.44594C8.56694 3.44594 9.19708 3.55191 9.80929 3.70649C11.8728 1.4405 14.7985 0 18.0751 0C24.3139 0 29.3719 5.14297 29.3719 11.4867H0Z" transform="translate(112.344 129.631)" fill="#FFE2D9"/>
<path d="M0 5.74373C0 3.52341 1.7704 1.72334 3.95394 1.72334C4.28365 1.72334 4.59872 1.77633 4.90465 1.85343C5.93622 0.720617 7.39924 0 9.03753 0C12.1571 0 14.6858 2.57148 14.6858 5.74336H0V5.74373Z" transform="translate(107.054 148.648)" fill="#FFE2D9"/>
<path d="M117.875 23.0074C117.875 15.2995 116.922 7.81677 115.161 0.650821L114.096 0C79.573 0 47.7366 23.0074 7.11762 23.0074C-25.9766 23.0074 64.0972 26.7822 117.771 27.0815C117.83 25.7295 117.875 24.3737 117.875 23.0074Z" transform="translate(102.991 174.12)" fill="#FFE2D9"/>
<path d="M0 23.0074C0 15.2995 0.952533 7.81677 2.71305 0.650821L3.77866 0C38.3015 0 40.5139 23.0074 81.1329 23.0074C114.227 23.0074 53.7773 26.7822 0.103194 27.0815C0.0450102 25.7295 0 24.3737 0 23.0074Z" transform="translate(33.8574 174.12)" fill="#FFE2D9"/>
<path d="M1.25004 15.9288C0.559517 15.9288 0 15.3704 0 14.6816V1.24719C0 0.55837 0.559151 0 1.25004 0C1.94093 0 2.50008 0.55837 2.50008 1.24719V14.6816C2.50008 15.3704 1.94093 15.9288 1.25004 15.9288Z" transform="translate(93.7617 184.165)" fill="#D4ECFC"/>
<path d="M17.7252 33.2798C17.7252 40.072 13.7574 43.4814 8.86261 43.4814C3.96785 43.4814 0 40.072 0 33.2798C0 26.4877 5.42903 0 8.86261 0C12.2962 0 17.7252 26.4877 17.7252 33.2798Z" transform="translate(86.1494 148.648)" fill="#D4ECFC"/>
<path d="M2.21757 0C1.53766 0 0.778713 1.05023 0 2.76918C2.80124 7.00553 6.42511 27.9366 6.42511 33.7505C6.42511 39.4306 3.89576 42.6285 0.537559 43.3308C1.08244 43.4251 1.64196 43.481 2.21757 43.481C7.11234 43.481 11.0806 40.0716 11.0806 33.2795C11.0806 26.4874 5.65116 0 2.21757 0Z" transform="translate(92.7939 148.648)" fill="#C8E7FC"/>
<path d="M93.6797 93.5484C145.418 93.5484 187.359 51.6654 187.359 0H0C0 51.6654 41.9418 93.5484 93.6797 93.5484Z" transform="translate(33.5059 197.128)" fill="#FFE2D9"/>
<path d="M4.8119 3.62718C-19.101 7.01246 53.8876 20.7312 53.8876 20.7312C53.8876 20.7312 160.965 30.7847 164.115 30.7847C164.635 30.7847 165.717 30.9539 167.104 31.1834C171.647 21.7507 174.646 11.4392 175.788 0.575169C129.96 9.69468 78.9733 -6.87107 4.8119 3.62718Z" transform="translate(44.5527 206.435)" fill="#FFDDD2"/>
<path d="M92.5775 81.2324C135.169 81.2324 171.098 52.8387 182.479 13.9796C109.334 13.6624 66.5624 -6.34238 0 2.05871C6.92571 46.8994 45.7351 81.2324 92.5775 81.2324Z" transform="translate(34.6084 209.444)" fill="#FED6CA"/>
<path d="M0 1.36014C6.43975 19.4069 18.2719 34.8855 33.5597 45.887L157.571 32.8896C164.41 25.3809 170.028 16.7478 174.148 7.31289C118.601 5.96412 40.5253 -3.45687 0 1.36014Z" transform="translate(38.9307 227.167)" fill="#FECEC0"/>
<path d="M75.014 53.4563C112.379 53.4563 144.613 31.6007 159.646 0C103.336 0 48.2063 0.0445887 0 15.9442C17.0859 38.7177 44.3248 53.4563 75.014 53.4563Z" transform="translate(52.1719 237.22)" fill="#FFC4B2"/>
<path d="M1.8209 23.204C0.814945 23.204 0 22.3902 0 21.3871V1.81689C0 0.813433 0.814945 0 1.8209 0C2.82723 0 3.6418 0.813798 3.6418 1.81689V21.3871C3.6418 22.3902 2.82686 23.204 1.8209 23.204Z" transform="translate(163.423 181.78)" fill="#D4ECFC"/>
<path d="M25.8212 48.4796C25.8212 58.3738 20.0409 63.3403 12.9106 63.3403C5.78033 63.3403 0 58.3738 0 48.4796C0 38.5854 7.90862 0 12.9106 0C17.9126 0 25.8212 38.5854 25.8212 48.4796Z" transform="translate(152.332 130.042)" fill="#D4ECFC"/>
<path d="M3.23049 0C2.2399 0 1.1344 1.53003 0 4.03427C4.08056 10.2055 9.35992 40.6965 9.35992 49.1655C9.35992 57.4398 5.67531 62.0982 0.783109 63.1214C1.57683 63.2584 2.39213 63.3403 3.23049 63.3403C10.3608 63.3403 16.1411 58.3738 16.1411 48.4796C16.1411 38.5854 8.23247 0 3.23049 0Z" transform="translate(162.013 130.042)" fill="#C8E7FC"/>
<path d="M1.605 20.4549C0.717968 20.4549 0 19.7376 0 18.8533V1.60165C0 0.717324 0.718334 0 1.605 0C2.49166 0 3.21 0.717324 3.21 1.60165V18.8533C3.21036 19.738 2.49203 20.4549 1.605 20.4549Z" transform="translate(72.8867 180.857)" fill="#D4ECFC"/>
<path d="M22.762 42.7355C22.762 51.4575 17.6667 55.8356 11.381 55.8356C5.0953 55.8356 0 51.4575 0 42.7355C0 34.0136 6.97182 0 11.381 0C15.7902 0 22.762 34.0136 22.762 42.7355Z" transform="translate(63.1104 135.249)" fill="#D4ECFC"/>
<path d="M2.84772 0C1.97459 0 1.0001 1.34841 0 3.5563C3.59716 8.99636 8.25077 35.8743 8.25077 43.3403C8.25077 50.6342 5.00272 54.7404 0.690522 55.6426C1.39019 55.7636 2.10889 55.8356 2.84808 55.8356C9.13377 55.8356 14.2291 51.4578 14.2291 42.7355C14.2291 34.0132 7.25688 0 2.84772 0Z" transform="translate(71.6445 135.249)" fill="#C8E7FC"/>
<path d="M17.3739 0.00402024C17.3523 0.00402024 17.3318 0 17.3103 0C13.6289 0 10.3871 1.84429 8.433 4.64965C7.81603 4.45524 7.17235 4.3215 6.49134 4.3215C2.90626 4.3215 0 7.22369 0 10.8037H24.4358C22.3247 7.03659 19.9688 3.42621 17.3739 0.00402024Z" transform="translate(184.537 140.716)" fill="#FFE2D9"/>
</g>
<path d="M0 5.73478C0 2.56755 2.56884 0 5.73766 0H192.212C195.381 0 197.949 2.56755 197.949 5.73478C197.949 8.90202 195.381 11.4696 192.212 11.4696H5.73766C2.56884 11.4696 0 8.90202 0 5.73478Z" transform="translate(28.6182 334.603)" fill="#FFECEB"/>
<path d="M0 5.73478C0 2.56755 2.56885 0 5.73768 0H192.212C195.381 0 197.95 2.56755 197.95 5.73478C197.95 8.90202 195.381 11.4696 192.212 11.4696H5.73768C2.56885 11.4696 0 8.90202 0 5.73478Z" transform="translate(29.0166 356.546) rotate(0.0829881)" fill="#FFECEB"/>
<path d="M0 8.13464C0 3.642 3.64712 0 8.14607 0H82.2753C86.7742 0 90.4213 3.642 90.4213 8.13464V45.554C90.4213 50.0466 86.7742 53.6886 82.2753 53.6886H8.14607C3.64712 53.6886 0 50.0466 0 45.554V8.13464Z" transform="translate(28.6182 393.986)" fill="#FFECEB"/>
<path d="M0 8.13464C0 3.642 3.64712 0 8.14607 0H80.6461C85.145 0 88.7921 3.642 88.7921 8.13464V45.554C88.7921 50.0466 85.145 53.6886 80.6461 53.6886H8.14607C3.64712 53.6886 0 50.0466 0 45.554V8.13464Z" transform="translate(137.775 393.986)" fill="#FFECEB"/>
<path d="M0 8.13464C0 3.642 3.64712 0 8.14607 0H189.803C194.302 0 197.949 3.642 197.949 8.13464V45.554C197.949 50.0466 194.302 53.6886 189.803 53.6886H8.14607C3.64712 53.6886 0 50.0466 0 45.554V8.13464Z" transform="translate(28.6182 464.757)" fill="#FFECEB"/>
<path d="M0 8.13464C0 3.642 3.64712 0 8.14607 0H82.2753C86.7742 0 90.4213 3.642 90.4213 8.13464V45.554C90.4213 50.0466 86.7742 53.6886 82.2753 53.6886H8.14607C3.64712 53.6886 0 50.0466 0 45.554V8.13464Z" transform="translate(28.6182 393.986)" fill="#FFECEB"/>
<path d="M0 8.13464C0 3.642 3.64712 0 8.14607 0H80.6461C85.145 0 88.7921 3.642 88.7921 8.13464V45.554C88.7921 50.0466 85.145 53.6886 80.6461 53.6886H8.14607C3.64712 53.6886 0 50.0466 0 45.554V8.13464Z" transform="translate(137.775 393.986)" fill="#FFECEB"/>
<path d="M0 8.13464C0 3.642 3.64712 0 8.14607 0H189.803C194.302 0 197.949 3.642 197.949 8.13464V45.554C197.949 50.0466 194.302 53.6886 189.803 53.6886H8.14607C3.64712 53.6886 0 50.0466 0 45.554V8.13464Z" transform="translate(28.6182 464.757)" fill="#FFECEB"/>
<rect width="258" height="354" transform="translate(-2 192)" fill="url(#paint1_linear)"/>
<g filter="url(#filter1_d)">
<path d="M0 25.5C0 11.4167 11.4587 0 25.5938 0H208.406C222.541 0 234 11.4167 234 25.5C234 39.5833 222.541 51 208.406 51H25.5938C11.4587 51 0 39.5833 0 25.5Z" transform="translate(11 32)" fill="white"/>
</g>
<path d="M0 2.18571C0 0.978578 0.982175 0 2.19375 0H53.3812C54.5928 0 55.575 0.978578 55.575 2.18571V11.6571C55.575 12.8643 54.5928 13.8429 53.3812 13.8429H2.19375C0.982175 13.8429 0 12.8643 0 11.6571V2.18571Z" transform="translate(67.3066 38.5571)" fill="#D4ECFC" fill-opacity="0.3"/>
<path d="M59.663 3.2385C59.6357 3.2827 59.6066 3.315 59.5759 3.3354C59.5452 3.3524 59.506 3.3609 59.4582 3.3609C59.4036 3.3609 59.3422 3.3422 59.2739 3.3048C59.2091 3.2674 59.1289 3.2266 59.0333 3.1824C58.9412 3.1382 58.832 3.0974 58.7057 3.06C58.5795 3.0226 58.4293 3.0039 58.2553 3.0039C58.112 3.0039 57.9806 3.0226 57.8612 3.06C57.7451 3.094 57.6462 3.1433 57.5643 3.2079C57.4824 3.2691 57.4192 3.3439 57.3749 3.4323C57.3305 3.5173 57.3083 3.6091 57.3083 3.7077C57.3083 3.8369 57.3459 3.944 57.4209 4.029C57.4994 4.114 57.6001 4.1871 57.7229 4.2483C57.8492 4.3095 57.9908 4.3656 58.1478 4.4166C58.3082 4.4642 58.4703 4.5152 58.6341 4.5696C58.8013 4.624 58.9634 4.6869 59.1204 4.7583C59.2808 4.8263 59.4224 4.913 59.5452 5.0184C59.6715 5.1204 59.7722 5.2445 59.8472 5.3907C59.9257 5.5369 59.965 5.7154 59.965 5.9262C59.965 6.1676 59.9206 6.392 59.8319 6.5994C59.7466 6.8034 59.6186 6.9802 59.448 7.1298C59.2808 7.2794 59.0726 7.3967 58.8235 7.4817C58.5744 7.5667 58.2894 7.6092 57.9686 7.6092C57.6103 7.6092 57.2793 7.5497 56.9756 7.4307C56.6719 7.3117 56.4177 7.1604 56.2129 6.9768L56.4484 6.5943C56.4757 6.5467 56.5098 6.511 56.5508 6.4872C56.5917 6.46 56.6463 6.4464 56.7146 6.4464C56.7794 6.4464 56.8459 6.4702 56.9142 6.5178C56.9824 6.5654 57.0643 6.6181 57.1599 6.6759C57.2554 6.7303 57.3715 6.7813 57.508 6.8289C57.6445 6.8731 57.8151 6.8952 58.0198 6.8952C58.1905 6.8952 58.3389 6.8748 58.4652 6.834C58.5914 6.7898 58.6955 6.732 58.7774 6.6606C58.8627 6.5858 58.9259 6.5008 58.9668 6.4056C59.0078 6.3104 59.0282 6.2101 59.0282 6.1047C59.0282 5.9687 58.989 5.8565 58.9105 5.7681C58.8354 5.6763 58.7348 5.5981 58.6085 5.5335C58.4856 5.4689 58.344 5.4128 58.1836 5.3652C58.0232 5.3176 57.8595 5.2666 57.6922 5.2122C57.525 5.1578 57.3612 5.0949 57.2008 5.0235C57.0405 4.9521 56.8971 4.862 56.7709 4.7532C56.648 4.6444 56.5473 4.5118 56.4689 4.3554C56.3938 4.199 56.3562 4.0086 56.3562 3.7842C56.3562 3.5836 56.3972 3.3915 56.4791 3.2079C56.5644 3.0243 56.6855 2.8628 56.8425 2.7234C57.0029 2.584 57.1991 2.4735 57.4312 2.3919C57.6666 2.3069 57.9345 2.2644 58.2348 2.2644C58.5795 2.2644 58.89 2.3188 59.1664 2.4276C59.4463 2.5364 59.6851 2.686 59.8831 2.8764L59.663 3.2385Z" transform="translate(68.498 41.2295)" fill="#484848"/>
<path d="M62.09 2.346V7.5276H61.0918V2.346H62.09ZM62.2794 0.7446C62.2794 0.8364 62.2606 0.9248 62.223 1.0098C62.1855 1.0914 62.1343 1.1645 62.0695 1.2291C62.0081 1.2903 61.9347 1.3396 61.8494 1.377C61.7641 1.411 61.6753 1.428 61.5832 1.428C61.4911 1.428 61.404 1.411 61.3221 1.377C61.2402 1.3396 61.1669 1.2903 61.102 1.2291C61.0406 1.1645 60.9911 1.0914 60.9536 1.0098C60.9195 0.9248 60.9024 0.8364 60.9024 0.7446C60.9024 0.6494 60.9195 0.561 60.9536 0.4794C60.9911 0.3944 61.0406 0.3213 61.102 0.2601C61.1669 0.1955 61.2402 0.1462 61.3221 0.1122C61.404 0.0748 61.4911 0.0561003 61.5832 0.0561003C61.6753 0.0561003 61.7641 0.0748 61.8494 0.1122C61.9347 0.1462 62.0081 0.1955 62.0695 0.2601C62.1343 0.3213 62.1855 0.3944 62.223 0.4794C62.2606 0.561 62.2794 0.6494 62.2794 0.7446Z" transform="translate(68.498 41.2295)" fill="#484848"/>
<path d="M65.3625 4.9419C65.54 4.9419 65.6952 4.9181 65.8283 4.8705C65.9648 4.8229 66.0774 4.7566 66.1662 4.6716C66.2583 4.5832 66.3266 4.4778 66.3709 4.3554C66.4187 4.233 66.4426 4.0987 66.4426 3.9525C66.4426 3.6533 66.3504 3.4153 66.1662 3.2385C65.9853 3.0583 65.7174 2.9682 65.3625 2.9682C65.011 2.9682 64.7432 3.0583 64.5589 3.2385C64.378 3.4153 64.2876 3.6533 64.2876 3.9525C64.2876 4.0987 64.3098 4.233 64.3541 4.3554C64.4019 4.4744 64.4702 4.5781 64.5589 4.6665C64.651 4.7515 64.7636 4.8195 64.8967 4.8705C65.0332 4.9181 65.1885 4.9419 65.3625 4.9419ZM66.9545 7.7979C66.9545 7.6755 66.9203 7.5786 66.8521 7.5072C66.7838 7.4324 66.69 7.3746 66.5705 7.3338C66.4545 7.2896 66.318 7.259 66.161 7.242C66.0041 7.2216 65.8386 7.2063 65.6645 7.1961C65.4939 7.1859 65.3182 7.1774 65.1373 7.1706C64.9564 7.1604 64.7824 7.1434 64.6152 7.1196C64.4377 7.208 64.291 7.3151 64.175 7.4409C64.0624 7.5667 64.0061 7.7146 64.0061 7.8846C64.0061 7.9934 64.0334 8.0954 64.088 8.1906C64.146 8.2858 64.233 8.3674 64.349 8.4354C64.4684 8.5068 64.6169 8.5612 64.7943 8.5986C64.9752 8.6394 65.1902 8.6598 65.4393 8.6598C65.685 8.6598 65.9017 8.6377 66.0894 8.5935C66.2771 8.5527 66.4341 8.4932 66.5603 8.415C66.69 8.3402 66.7872 8.2501 66.8521 8.1447C66.9203 8.0393 66.9545 7.9237 66.9545 7.7979ZM67.968 2.5398V2.9121C67.968 3.0345 67.8912 3.111 67.7376 3.1416L67.1797 3.2232C67.2275 3.3286 67.265 3.4408 67.2923 3.5598C67.3196 3.6754 67.3332 3.7978 67.3332 3.927C67.3332 4.182 67.2838 4.4132 67.1848 4.6206C67.0858 4.8246 66.9493 4.9997 66.7753 5.1459C66.6013 5.2921 66.3931 5.4043 66.1508 5.4825C65.9119 5.5607 65.6492 5.5998 65.3625 5.5998C65.1271 5.5998 64.907 5.5743 64.7022 5.5233C64.5998 5.5845 64.5213 5.6525 64.4667 5.7273C64.4156 5.7987 64.39 5.8701 64.39 5.9415C64.39 6.0605 64.4394 6.1489 64.5384 6.2067C64.6408 6.2645 64.7722 6.307 64.9325 6.3342C65.0964 6.358 65.2823 6.3733 65.4905 6.3801C65.7021 6.3869 65.9154 6.3988 66.1303 6.4158C66.3487 6.4294 66.562 6.4566 66.7702 6.4974C66.9818 6.5348 67.1677 6.5977 67.3281 6.6861C67.4919 6.7711 67.6233 6.8901 67.7223 7.0431C67.8246 7.1927 67.8758 7.3882 67.8758 7.6296C67.8758 7.854 67.8195 8.0716 67.7069 8.2824C67.5977 8.4932 67.4373 8.6802 67.2257 8.8434C67.0142 9.0066 66.7565 9.1375 66.4528 9.2361C66.1491 9.3347 65.8044 9.384 65.4188 9.384C65.0332 9.384 64.6971 9.3466 64.4104 9.2718C64.1272 9.197 63.89 9.0967 63.6989 8.9709C63.5112 8.8451 63.3696 8.6989 63.2741 8.5323C63.1819 8.3657 63.1359 8.1923 63.1359 8.0121C63.1359 7.7605 63.2144 7.548 63.3713 7.3746C63.5283 7.1978 63.745 7.0601 64.0214 6.9615C63.8713 6.8935 63.7518 6.8017 63.6631 6.6861C63.5744 6.5671 63.53 6.4107 63.53 6.2169C63.53 6.1421 63.5437 6.0656 63.571 5.9874C63.5983 5.9058 63.6392 5.8259 63.6938 5.7477C63.7518 5.6661 63.8218 5.5896 63.9037 5.5182C63.989 5.4468 64.0863 5.3822 64.1954 5.3244C63.9395 5.1816 63.7382 4.9929 63.5914 4.7583C63.4447 4.5203 63.3713 4.2432 63.3713 3.927C63.3713 3.672 63.4208 3.4425 63.5198 3.2385C63.6187 3.0345 63.7552 2.8594 63.9293 2.7132C64.1067 2.567 64.3166 2.4548 64.5589 2.3766C64.8046 2.2984 65.0725 2.2593 65.3625 2.2593C65.813 2.2593 66.2003 2.3528 66.5245 2.5398H67.968Z" transform="translate(68.498 41.2295)" fill="#484848"/>
<path d="M69.8206 3.0651C69.9332 2.9461 70.0509 2.8373 70.1738 2.7387C70.2966 2.6401 70.4263 2.5568 70.5628 2.4888C70.7027 2.4174 70.8511 2.363 71.0081 2.3256C71.1685 2.2848 71.3391 2.2644 71.52 2.2644C71.8066 2.2644 72.0574 2.312 72.2724 2.4072C72.4908 2.5024 72.6734 2.6367 72.8201 2.8101C72.9669 2.9801 73.0778 3.1858 73.1529 3.4272C73.2279 3.6686 73.2655 3.9355 73.2655 4.2279V7.5276H72.2622V4.2279C72.2622 3.8573 72.1769 3.57 72.0063 3.366C71.8356 3.1586 71.5746 3.0549 71.2231 3.0549C70.9672 3.0549 70.7266 3.1161 70.5014 3.2385C70.2795 3.3575 70.0731 3.5207 69.882 3.7281V7.5276H68.8838V2.346H69.4827C69.6226 2.346 69.7096 2.4123 69.7438 2.5449L69.8206 3.0651Z" transform="translate(68.498 41.2295)" fill="#484848"/>
<path d="M78.0573 4.3605C78.0573 4.1633 78.0283 3.9814 77.9703 3.8148C77.9157 3.6482 77.8338 3.5037 77.7246 3.3813C77.6154 3.2589 77.4823 3.1637 77.3254 3.0957C77.1684 3.0277 76.9875 2.9937 76.7828 2.9937C76.363 2.9937 76.032 3.1144 75.7897 3.3558C75.5509 3.5972 75.399 3.9321 75.3342 4.3605H78.0573ZM78.8815 6.7881C78.7586 6.9309 78.617 7.055 78.4566 7.1604C78.2962 7.2624 78.1256 7.3457 77.9447 7.4103C77.7639 7.4749 77.5762 7.5225 77.3817 7.5531C77.1906 7.5837 77.0012 7.599 76.8135 7.599C76.4552 7.599 76.1225 7.5395 75.8153 7.4205C75.5116 7.2981 75.2471 7.1213 75.0219 6.8901C74.8001 6.6555 74.6261 6.3665 74.4998 6.0231C74.377 5.6763 74.3155 5.2785 74.3155 4.8297C74.3155 4.4693 74.3718 4.1344 74.4845 3.825C74.5971 3.5122 74.7575 3.2402 74.9656 3.009C75.1772 2.7778 75.4348 2.5959 75.7385 2.4633C76.0423 2.3307 76.3835 2.2644 76.7623 2.2644C77.0797 2.2644 77.3714 2.3171 77.6376 2.4225C77.9072 2.5245 78.1392 2.6741 78.3338 2.8713C78.5283 3.0685 78.6801 3.3116 78.7893 3.6006C78.9019 3.8896 78.9582 4.2194 78.9582 4.59C78.9582 4.743 78.9412 4.8467 78.9071 4.9011C78.8729 4.9521 78.8098 4.9776 78.7177 4.9776H75.3086C75.3188 5.287 75.3632 5.5573 75.4417 5.7885C75.5201 6.0163 75.6276 6.2067 75.7641 6.3597C75.9041 6.5127 76.0696 6.6266 76.2607 6.7014C76.4518 6.7762 76.665 6.8136 76.9005 6.8136C77.1223 6.8136 77.3134 6.7881 77.4738 6.7371C77.6376 6.6861 77.7775 6.6317 77.8935 6.5739C78.013 6.5127 78.1119 6.4566 78.1904 6.4056C78.2723 6.3546 78.344 6.3291 78.4054 6.3291C78.4873 6.3291 78.5505 6.3597 78.5948 6.4209L78.8815 6.7881Z" transform="translate(68.498 41.2295)" fill="#484848"/>
<path d="M83.3839 3.6006C83.2201 3.3864 83.0426 3.2368 82.8515 3.1518C82.6638 3.0668 82.4523 3.0243 82.2168 3.0243C81.7595 3.0243 81.4046 3.1892 81.1521 3.519C80.903 3.8454 80.7784 4.3231 80.7784 4.9521C80.7784 5.2819 80.8057 5.5641 80.8603 5.7987C80.9184 6.0299 81.0003 6.2203 81.106 6.3699C81.2152 6.5161 81.3483 6.6249 81.5053 6.6963C81.6623 6.7643 81.8397 6.7983 82.0377 6.7983C82.3277 6.7983 82.5785 6.7337 82.7901 6.6045C83.0017 6.4753 83.1996 6.2934 83.3839 6.0588V3.6006ZM84.3872 0V7.5276H83.7831C83.6432 7.5276 83.5562 7.4613 83.5221 7.3287L83.4351 6.732C83.2133 6.9938 82.9607 7.2046 82.6775 7.3644C82.3977 7.5208 82.0735 7.599 81.7049 7.599C81.4081 7.599 81.1385 7.5412 80.8962 7.4256C80.6573 7.31 80.4525 7.1417 80.2819 6.9207C80.1113 6.6963 79.9799 6.4192 79.8878 6.0894C79.7956 5.7596 79.7496 5.3805 79.7496 4.9521C79.7496 4.5679 79.8008 4.2109 79.9031 3.8811C80.0055 3.5513 80.154 3.2657 80.3485 3.0243C80.543 2.7829 80.7784 2.5942 81.0549 2.4582C81.3313 2.3188 81.6435 2.2491 81.9916 2.2491C82.3055 2.2491 82.5717 2.3001 82.7901 2.4021C83.0119 2.5041 83.2098 2.6486 83.3839 2.8356V0H84.3872Z" transform="translate(68.498 41.2295)" fill="#484848"/>
<path d="M92.6944 2.346V7.5276H92.0955C91.959 7.5276 91.8703 7.4613 91.8293 7.3287L91.7577 6.8085C91.6451 6.9275 91.5273 7.0363 91.4045 7.1349C91.2816 7.2335 91.1503 7.3185 91.0103 7.3899C90.8704 7.4579 90.722 7.5106 90.565 7.548C90.408 7.5888 90.2391 7.6092 90.0583 7.6092C89.7716 7.6092 89.5191 7.5616 89.3007 7.4664C89.0857 7.3712 88.9048 7.2386 88.7581 7.0686C88.6114 6.8952 88.5005 6.6878 88.4254 6.4464C88.3503 6.205 88.3128 5.9381 88.3128 5.6457V2.346H89.316V5.6457C89.316 6.0163 89.4013 6.3053 89.572 6.5127C89.7426 6.7167 90.0037 6.8187 90.3551 6.8187C90.6111 6.8187 90.85 6.7592 91.0718 6.6402C91.2936 6.5178 91.5017 6.3512 91.6963 6.1404V2.346H92.6944Z" transform="translate(68.498 41.2295)" fill="#484848"/>
<path d="M95.0858 6.2526C95.2496 6.4668 95.4254 6.6164 95.6131 6.7014C95.8042 6.7864 96.0174 6.8289 96.2529 6.8289C96.7102 6.8289 97.0634 6.6657 97.3125 6.3393C97.565 6.0095 97.6913 5.5301 97.6913 4.9011C97.6913 4.5713 97.6623 4.2908 97.6042 4.0596C97.5497 3.825 97.4678 3.6346 97.3586 3.4884C97.2528 3.3388 97.1214 3.23 96.9644 3.162C96.8074 3.0906 96.63 3.0549 96.432 3.0549C96.142 3.0549 95.8895 3.1195 95.6745 3.2487C95.4629 3.3779 95.2667 3.5615 95.0858 3.7995V6.2526ZM95.0346 3.1212C95.1438 2.992 95.2599 2.8747 95.3827 2.7693C95.509 2.6605 95.6438 2.5687 95.7871 2.4939C95.9304 2.4157 96.0823 2.3562 96.2427 2.3154C96.4065 2.2712 96.5805 2.2491 96.7648 2.2491C97.0617 2.2491 97.3295 2.3069 97.5684 2.4225C97.8107 2.5381 98.0172 2.7081 98.1878 2.9325C98.3584 3.1569 98.4898 3.434 98.5819 3.7638C98.6775 4.0936 98.7253 4.4727 98.7253 4.9011C98.7253 5.2853 98.6724 5.6423 98.5666 5.9721C98.4642 6.2985 98.3158 6.5824 98.1212 6.8238C97.9301 7.0652 97.6947 7.2556 97.4149 7.395C97.1384 7.531 96.8262 7.599 96.4781 7.599C96.1676 7.599 95.9014 7.548 95.6796 7.446C95.4578 7.344 95.2599 7.2012 95.0858 7.0176V9.2667H94.0877V2.346H94.6866C94.8265 2.346 94.9135 2.4123 94.9476 2.5449L95.0346 3.1212Z" transform="translate(68.498 41.2295)" fill="#484848"/>
<path d="M103.48 2.346V7.5276H102.482V2.346H103.48ZM103.669 0.7446C103.669 0.8364 103.65 0.9248 103.613 1.0098C103.575 1.0914 103.524 1.1645 103.459 1.2291C103.398 1.2903 103.325 1.3396 103.239 1.377C103.154 1.411 103.065 1.428 102.973 1.428C102.881 1.428 102.794 1.411 102.712 1.377C102.63 1.3396 102.557 1.2903 102.492 1.2291C102.431 1.1645 102.381 1.0914 102.343 1.0098C102.309 0.9248 102.292 0.8364 102.292 0.7446C102.292 0.6494 102.309 0.561 102.343 0.4794C102.381 0.3944 102.431 0.3213 102.492 0.2601C102.557 0.1955 102.63 0.1462 102.712 0.1122C102.794 0.0748 102.881 0.0561003 102.973 0.0561003C103.065 0.0561003 103.154 0.0748 103.239 0.1122C103.325 0.1462 103.398 0.1955 103.459 0.2601C103.524 0.3213 103.575 0.3944 103.613 0.4794C103.65 0.561 103.669 0.6494 103.669 0.7446Z" transform="translate(68.498 41.2295)" fill="#484848"/>
<path d="M105.862 3.0651C105.974 2.9461 106.092 2.8373 106.215 2.7387C106.338 2.6401 106.467 2.5568 106.604 2.4888C106.744 2.4174 106.892 2.363 107.049 2.3256C107.21 2.2848 107.38 2.2644 107.561 2.2644C107.848 2.2644 108.099 2.312 108.314 2.4072C108.532 2.5024 108.715 2.6367 108.861 2.8101C109.008 2.9801 109.119 3.1858 109.194 3.4272C109.269 3.6686 109.307 3.9355 109.307 4.2279V7.5276H108.303V4.2279C108.303 3.8573 108.218 3.57 108.047 3.366C107.877 3.1586 107.616 3.0549 107.264 3.0549C107.008 3.0549 106.768 3.1161 106.543 3.2385C106.321 3.3575 106.114 3.5207 105.923 3.7281V7.5276H104.925V2.346H105.524C105.664 2.346 105.751 2.4123 105.785 2.5449L105.862 3.0651Z" transform="translate(68.498 41.2295)" fill="#484848"/>
<path d="M114.871 7.6092C114.451 7.6092 114.127 7.4919 113.898 7.2573C113.673 7.0227 113.56 6.6878 113.56 6.2526V3.1518H112.956C112.898 3.1518 112.849 3.1348 112.808 3.1008C112.77 3.0634 112.752 3.009 112.752 2.9376V2.5347L113.596 2.4174L113.821 0.8721C113.835 0.8143 113.861 0.7701 113.898 0.7395C113.939 0.7055 113.99 0.6885 114.052 0.6885H114.559V2.4276H116.033V3.1518H114.559V6.1863C114.559 6.3903 114.608 6.5433 114.707 6.6453C114.809 6.7439 114.939 6.7932 115.096 6.7932C115.188 6.7932 115.267 6.7813 115.331 6.7575C115.4 6.7337 115.458 6.7082 115.505 6.681C115.553 6.6504 115.594 6.6232 115.628 6.5994C115.662 6.5756 115.693 6.5637 115.72 6.5637C115.755 6.5637 115.78 6.5722 115.797 6.5892C115.818 6.6028 115.838 6.6266 115.859 6.6606L116.156 7.14C115.992 7.2896 115.797 7.4052 115.572 7.4868C115.347 7.5684 115.113 7.6092 114.871 7.6092Z" transform="translate(68.498 41.2295)" fill="#484848"/>
<path d="M117.95 3.0039C118.169 2.7829 118.409 2.6044 118.672 2.4684C118.938 2.3324 119.244 2.2644 119.588 2.2644C119.875 2.2644 120.126 2.312 120.341 2.4072C120.559 2.5024 120.742 2.6367 120.888 2.8101C121.035 2.9801 121.146 3.1858 121.221 3.4272C121.296 3.6686 121.334 3.9355 121.334 4.2279V7.5276H120.33V4.2279C120.33 3.8573 120.245 3.57 120.075 3.366C119.904 3.1586 119.643 3.0549 119.291 3.0549C119.035 3.0549 118.795 3.1161 118.57 3.2385C118.348 3.3575 118.141 3.5207 117.95 3.7281V7.5276H116.952V0H117.95V3.0039Z" transform="translate(68.498 41.2295)" fill="#484848"/>
<path d="M126.126 4.3605C126.126 4.1633 126.097 3.9814 126.039 3.8148C125.984 3.6482 125.902 3.5037 125.793 3.3813C125.684 3.2589 125.551 3.1637 125.394 3.0957C125.237 3.0277 125.056 2.9937 124.851 2.9937C124.431 2.9937 124.1 3.1144 123.858 3.3558C123.619 3.5972 123.467 3.9321 123.402 4.3605H126.126ZM126.95 6.7881C126.827 6.9309 126.685 7.055 126.525 7.1604C126.364 7.2624 126.194 7.3457 126.013 7.4103C125.832 7.4749 125.644 7.5225 125.45 7.5531C125.259 7.5837 125.069 7.599 124.882 7.599C124.523 7.599 124.191 7.5395 123.884 7.4205C123.58 7.2981 123.315 7.1213 123.09 6.8901C122.868 6.6555 122.694 6.3665 122.568 6.0231C122.445 5.6763 122.384 5.2785 122.384 4.8297C122.384 4.4693 122.44 4.1344 122.553 3.825C122.665 3.5122 122.826 3.2402 123.034 3.009C123.245 2.7778 123.503 2.5959 123.807 2.4633C124.111 2.3307 124.452 2.2644 124.831 2.2644C125.148 2.2644 125.44 2.3171 125.706 2.4225C125.975 2.5245 126.208 2.6741 126.402 2.8713C126.597 3.0685 126.748 3.3116 126.858 3.6006C126.97 3.8896 127.027 4.2194 127.027 4.59C127.027 4.743 127.009 4.8467 126.975 4.9011C126.941 4.9521 126.878 4.9776 126.786 4.9776H123.377C123.387 5.287 123.431 5.5573 123.51 5.7885C123.588 6.0163 123.696 6.2067 123.832 6.3597C123.972 6.5127 124.138 6.6266 124.329 6.7014C124.52 6.7762 124.733 6.8136 124.969 6.8136C125.191 6.8136 125.382 6.7881 125.542 6.7371C125.706 6.6861 125.846 6.6317 125.962 6.5739C126.081 6.5127 126.18 6.4566 126.259 6.4056C126.341 6.3546 126.412 6.3291 126.474 6.3291C126.556 6.3291 126.619 6.3597 126.663 6.4209L126.95 6.7881Z" transform="translate(68.498 41.2295)" fill="#484848"/>
<path d="M131.712 0V7.5276H130.709V0H131.712Z" transform="translate(68.498 41.2295)" fill="#484848"/>
<path d="M135.933 5.2275C135.527 5.2411 135.182 5.2734 134.899 5.3244C134.616 5.372 134.385 5.4366 134.208 5.5182C134.031 5.5998 133.903 5.6967 133.824 5.8089C133.746 5.9177 133.706 6.0401 133.706 6.1761C133.706 6.3053 133.727 6.4175 133.768 6.5127C133.812 6.6045 133.87 6.681 133.942 6.7422C134.017 6.8 134.104 6.8425 134.203 6.8697C134.302 6.8969 134.409 6.9105 134.525 6.9105C134.679 6.9105 134.819 6.8952 134.945 6.8646C135.075 6.834 135.196 6.7915 135.308 6.7371C135.421 6.6793 135.529 6.6096 135.631 6.528C135.733 6.4464 135.834 6.3529 135.933 6.2475V5.2275ZM133.005 3.0702C133.295 2.7948 133.609 2.5891 133.947 2.4531C134.288 2.3171 134.662 2.2491 135.068 2.2491C135.365 2.2491 135.628 2.2984 135.856 2.397C136.085 2.4922 136.278 2.6265 136.435 2.7999C136.592 2.9733 136.709 3.1807 136.788 3.4221C136.87 3.6635 136.911 3.9304 136.911 4.2228V7.5276H136.465C136.366 7.5276 136.291 7.5123 136.24 7.4817C136.189 7.4477 136.148 7.3865 136.117 7.2981L136.01 6.8442C135.877 6.9666 135.745 7.0754 135.616 7.1706C135.486 7.2624 135.349 7.3423 135.206 7.4103C135.066 7.4749 134.916 7.5242 134.756 7.5582C134.595 7.5922 134.418 7.6092 134.223 7.6092C134.019 7.6092 133.826 7.582 133.645 7.5276C133.467 7.4698 133.312 7.3831 133.179 7.2675C133.046 7.1519 132.94 7.0074 132.862 6.834C132.787 6.6606 132.749 6.4583 132.749 6.2271C132.749 6.0231 132.804 5.8276 132.913 5.6406C133.026 5.4502 133.206 5.2802 133.456 5.1306C133.708 4.981 134.036 4.8586 134.438 4.7634C134.844 4.6682 135.343 4.6138 135.933 4.6002V4.2228C135.933 3.8318 135.849 3.5394 135.682 3.3456C135.515 3.1518 135.269 3.0549 134.945 3.0549C134.727 3.0549 134.542 3.0821 134.392 3.1365C134.245 3.1909 134.118 3.2521 134.008 3.3201C133.903 3.3847 133.809 3.4442 133.727 3.4986C133.648 3.553 133.566 3.5802 133.481 3.5802C133.413 3.5802 133.353 3.5615 133.302 3.5241C133.254 3.4867 133.215 3.4425 133.184 3.3915L133.005 3.0702Z" transform="translate(68.498 41.2295)" fill="#484848"/>
<path d="M141.313 3.2385C141.286 3.2827 141.257 3.315 141.226 3.3354C141.195 3.3524 141.156 3.3609 141.108 3.3609C141.054 3.3609 140.992 3.3422 140.924 3.3048C140.859 3.2674 140.779 3.2266 140.683 3.1824C140.591 3.1382 140.482 3.0974 140.356 3.06C140.23 3.0226 140.079 3.0039 139.905 3.0039C139.762 3.0039 139.631 3.0226 139.511 3.06C139.395 3.094 139.296 3.1433 139.214 3.2079C139.132 3.2691 139.069 3.3439 139.025 3.4323C138.981 3.5173 138.958 3.6091 138.958 3.7077C138.958 3.8369 138.996 3.944 139.071 4.029C139.149 4.114 139.25 4.1871 139.373 4.2483C139.499 4.3095 139.641 4.3656 139.798 4.4166C139.958 4.4642 140.12 4.5152 140.284 4.5696C140.451 4.624 140.613 4.6869 140.77 4.7583C140.931 4.8263 141.072 4.913 141.195 5.0184C141.322 5.1204 141.422 5.2445 141.497 5.3907C141.576 5.5369 141.615 5.7154 141.615 5.9262C141.615 6.1676 141.571 6.392 141.482 6.5994C141.397 6.8034 141.269 6.9802 141.098 7.1298C140.931 7.2794 140.723 7.3967 140.474 7.4817C140.224 7.5667 139.939 7.6092 139.619 7.6092C139.26 7.6092 138.929 7.5497 138.626 7.4307C138.322 7.3117 138.068 7.1604 137.863 6.9768L138.098 6.5943C138.126 6.5467 138.16 6.511 138.201 6.4872C138.242 6.46 138.296 6.4464 138.365 6.4464C138.429 6.4464 138.496 6.4702 138.564 6.5178C138.633 6.5654 138.714 6.6181 138.81 6.6759C138.906 6.7303 139.022 6.7813 139.158 6.8289C139.295 6.8731 139.465 6.8952 139.67 6.8952C139.841 6.8952 139.989 6.8748 140.115 6.834C140.242 6.7898 140.346 6.732 140.427 6.6606C140.513 6.5858 140.576 6.5008 140.617 6.4056C140.658 6.3104 140.678 6.2101 140.678 6.1047C140.678 5.9687 140.639 5.8565 140.561 5.7681C140.485 5.6763 140.385 5.5981 140.259 5.5335C140.136 5.4689 139.994 5.4128 139.834 5.3652C139.673 5.3176 139.51 5.2666 139.342 5.2122C139.175 5.1578 139.011 5.0949 138.851 5.0235C138.691 4.9521 138.547 4.862 138.421 4.7532C138.298 4.6444 138.197 4.5118 138.119 4.3554C138.044 4.199 138.006 4.0086 138.006 3.7842C138.006 3.5836 138.047 3.3915 138.129 3.2079C138.214 3.0243 138.336 2.8628 138.493 2.7234C138.653 2.584 138.849 2.4735 139.081 2.3919C139.317 2.3069 139.585 2.2644 139.885 2.2644C140.23 2.2644 140.54 2.3188 140.816 2.4276C141.096 2.5364 141.335 2.686 141.533 2.8764L141.313 3.2385Z" transform="translate(68.498 41.2295)" fill="#484848"/>
<path d="M144.324 7.6092C143.904 7.6092 143.58 7.4919 143.351 7.2573C143.126 7.0227 143.013 6.6878 143.013 6.2526V3.1518H142.409C142.351 3.1518 142.302 3.1348 142.261 3.1008C142.223 3.0634 142.204 3.009 142.204 2.9376V2.5347L143.049 2.4174L143.274 0.8721C143.288 0.8143 143.313 0.7701 143.351 0.7395C143.392 0.7055 143.443 0.6885 143.505 0.6885H144.011V2.4276H145.486V3.1518H144.011V6.1863C144.011 6.3903 144.061 6.5433 144.16 6.6453C144.262 6.7439 144.392 6.7932 144.549 6.7932C144.641 6.7932 144.719 6.7813 144.784 6.7575C144.852 6.7337 144.911 6.7082 144.958 6.681C145.006 6.6504 145.047 6.6232 145.081 6.5994C145.115 6.5756 145.146 6.5637 145.173 6.5637C145.207 6.5637 145.233 6.5722 145.25 6.5892C145.271 6.6028 145.291 6.6266 145.311 6.6606L145.608 7.14C145.445 7.2896 145.25 7.4052 145.025 7.4868C144.8 7.5684 144.566 7.6092 144.324 7.6092Z" transform="translate(68.498 41.2295)" fill="#484848"/>
<path d="M4.5864 18.9698C4.6956 18.9698 4.78091 19.0021 4.84234 19.0667C4.90376 19.1279 4.93448 19.2095 4.93448 19.3115V19.9133H0V19.5716C0 19.5036 0.01365 19.4322 0.04095 19.3574C0.06825 19.2792 0.114319 19.2095 0.179156 19.1483L2.50307 16.8278C2.69758 16.634 2.87333 16.447 3.0303 16.2668C3.18728 16.0866 3.32036 15.9081 3.42956 15.7313C3.53876 15.5511 3.62237 15.3675 3.68038 15.1805C3.74181 14.9935 3.77252 14.7963 3.77252 14.5889C3.77252 14.3849 3.7401 14.2064 3.67526 14.0534C3.61043 13.897 3.5217 13.7678 3.40909 13.6658C3.29648 13.5638 3.16339 13.4873 3.00983 13.4363C2.85626 13.3853 2.69076 13.3598 2.51331 13.3598C2.33586 13.3598 2.17206 13.3853 2.02191 13.4363C1.87517 13.4873 1.74379 13.5587 1.62776 13.6505C1.51174 13.7423 1.41448 13.8511 1.33599 13.9769C1.25751 14.1027 1.2012 14.2387 1.16708 14.3849C1.1193 14.5141 1.05788 14.6008 0.9828 14.645C0.911138 14.6892 0.80535 14.6994 0.665438 14.6756L0.143325 14.5838C0.1911 14.2438 0.284944 13.9446 0.424856 13.6862C0.564769 13.4278 0.740513 13.2119 0.952088 13.0385C1.16366 12.8617 1.40595 12.7291 1.67895 12.6407C1.95536 12.5523 2.25225 12.5081 2.56961 12.5081C2.89039 12.5081 3.18557 12.5557 3.45516 12.6509C3.72816 12.7427 3.96362 12.877 4.16154 13.0538C4.35947 13.2306 4.51474 13.4465 4.62735 13.7015C4.73996 13.9531 4.79627 14.2387 4.79627 14.5583C4.79627 14.8303 4.75532 15.0836 4.67342 15.3182C4.59493 15.5494 4.48573 15.7704 4.34582 15.9812C4.20932 16.192 4.04893 16.3977 3.86466 16.5983C3.68379 16.7955 3.49099 16.9961 3.28624 17.2001L1.42301 19.0973C1.56634 19.0599 1.70966 19.0293 1.85299 19.0055C1.99973 18.9817 2.13793 18.9698 2.26761 18.9698H4.5864Z" transform="translate(68.498 41.2295)" fill="#484848"/>
<path d="M9.19407 17.2409V14.3849C9.19407 14.2863 9.19578 14.1826 9.19919 14.0738C9.20602 13.9616 9.21796 13.846 9.23503 13.727L6.66029 17.2409H9.19407ZM11.1341 17.2409V17.8172C11.1341 17.875 11.1153 17.9243 11.0778 17.9651C11.0402 18.0059 10.9873 18.0263 10.9191 18.0263H10.0694V19.9133H9.19407V18.0263H5.96926C5.89419 18.0263 5.83106 18.0059 5.77987 17.9651C5.72868 17.9209 5.69456 17.8665 5.67749 17.8019L5.57512 17.2919L9.12753 12.5846H10.0694V17.2409H11.1341Z" transform="translate(68.498 41.2295)" fill="#484848"/>
<path d="M15.7052 15.3896C15.9236 15.1686 16.1642 14.9901 16.427 14.8541C16.6931 14.7181 16.9985 14.6501 17.3432 14.6501C17.6299 14.6501 17.8807 14.6977 18.0957 14.7929C18.3141 14.8881 18.4966 15.0224 18.6434 15.1958C18.7901 15.3658 18.901 15.5715 18.9761 15.8129C19.0512 16.0543 19.0887 16.3212 19.0887 16.6136V19.9133H18.0854V16.6136C18.0854 16.243 18.0001 15.9557 17.8295 15.7517C17.6589 15.5443 17.3978 15.4406 17.0463 15.4406C16.7904 15.4406 16.5498 15.5018 16.3246 15.6242C16.1028 15.7432 15.8963 15.9064 15.7052 16.1138V19.9133H14.707V12.3857H15.7052V15.3896Z" transform="translate(68.498 41.2295)" fill="#484848"/>
<path d="M22.6521 14.6501C23.0343 14.6501 23.3789 14.713 23.6861 14.8388C23.9966 14.9612 24.2594 15.1397 24.4743 15.3743C24.6927 15.6055 24.86 15.886 24.976 16.2158C25.092 16.5422 25.15 16.9094 25.15 17.3174C25.15 17.7254 25.092 18.0943 24.976 18.4241C24.86 18.7539 24.6927 19.0344 24.4743 19.2656C24.2594 19.4968 23.9966 19.6753 23.6861 19.8011C23.3789 19.9235 23.0343 19.9847 22.6521 19.9847C22.2665 19.9847 21.9184 19.9235 21.6078 19.8011C21.3007 19.6753 21.038 19.4968 20.8196 19.2656C20.6012 19.0344 20.4322 18.7539 20.3128 18.4241C20.1968 18.0943 20.1388 17.7254 20.1388 17.3174C20.1388 16.9094 20.1968 16.5422 20.3128 16.2158C20.4322 15.886 20.6012 15.6055 20.8196 15.3743C21.038 15.1397 21.3007 14.9612 21.6078 14.8388C21.9184 14.713 22.2665 14.6501 22.6521 14.6501ZM22.6521 19.2095C23.1435 19.2095 23.5103 19.0446 23.7526 18.7148C23.9949 18.385 24.116 17.9209 24.116 17.3225C24.116 16.7241 23.9949 16.26 23.7526 15.9302C23.5103 15.597 23.1435 15.4304 22.6521 15.4304C22.1538 15.4304 21.7819 15.597 21.5362 15.9302C21.2939 16.26 21.1728 16.7241 21.1728 17.3225C21.1728 17.9209 21.2939 18.385 21.5362 18.7148C21.7819 19.0446 22.1538 19.2095 22.6521 19.2095Z" transform="translate(68.498 41.2295)" fill="#484848"/>
<path d="M30.5896 14.7317V19.9133H29.9907C29.8542 19.9133 29.7655 19.847 29.7245 19.7144L29.6528 19.1942C29.5402 19.3132 29.4225 19.422 29.2996 19.5206C29.1768 19.6192 29.0454 19.7042 28.9055 19.7756C28.7656 19.8436 28.6171 19.8963 28.4602 19.9337C28.3032 19.9745 28.1343 19.9949 27.9534 19.9949C27.6668 19.9949 27.4142 19.9473 27.1958 19.8521C26.9809 19.7569 26.8 19.6243 26.6533 19.4543C26.5065 19.2809 26.3956 19.0735 26.3205 18.8321C26.2455 18.5907 26.2079 18.3238 26.2079 18.0314V14.7317H27.2112V18.0314C27.2112 18.402 27.2965 18.691 27.4671 18.8984C27.6378 19.1024 27.8988 19.2044 28.2503 19.2044C28.5062 19.2044 28.7451 19.1449 28.9669 19.0259C29.1887 18.9035 29.3969 18.7369 29.5914 18.5261V14.7317H30.5896Z" transform="translate(68.498 41.2295)" fill="#484848"/>
<path d="M32.9247 15.7262C33.0919 15.3862 33.2932 15.1193 33.5287 14.9255C33.7642 14.7317 34.0474 14.6348 34.3784 14.6348C34.491 14.6348 34.5968 14.6484 34.6958 14.6756C34.7981 14.6994 34.8869 14.7368 34.9619 14.7878L34.8954 15.5375C34.8715 15.6293 34.8152 15.6752 34.7265 15.6752C34.6787 15.6752 34.607 15.6667 34.5115 15.6497C34.4159 15.6293 34.3136 15.6191 34.2044 15.6191C34.044 15.6191 33.9024 15.6429 33.7795 15.6905C33.6567 15.7347 33.5458 15.8027 33.4468 15.8945C33.3512 15.9829 33.2659 16.0934 33.1909 16.226C33.1158 16.3552 33.0458 16.5031 32.981 16.6697V19.9133H31.9828V14.7317H32.5561C32.6653 14.7317 32.7387 14.7521 32.7762 14.7929C32.8172 14.8303 32.8462 14.8983 32.8633 14.9969L32.9247 15.7262Z" transform="translate(68.498 41.2295)" fill="#484848"/>
<path d="M38.7681 15.6242C38.7408 15.6684 38.7118 15.7007 38.681 15.7211C38.6503 15.7381 38.6111 15.7466 38.5633 15.7466C38.5087 15.7466 38.4473 15.7279 38.379 15.6905C38.3142 15.6531 38.234 15.6123 38.1384 15.5681C38.0463 15.5239 37.9371 15.4831 37.8108 15.4457C37.6846 15.4083 37.5344 15.3896 37.3604 15.3896C37.2171 15.3896 37.0857 15.4083 36.9663 15.4457C36.8502 15.4797 36.7513 15.529 36.6694 15.5936C36.5875 15.6548 36.5243 15.7296 36.48 15.818C36.4356 15.903 36.4134 15.9948 36.4134 16.0934C36.4134 16.2226 36.451 16.3297 36.526 16.4147C36.6045 16.4997 36.7052 16.5728 36.828 16.634C36.9543 16.6952 37.0959 16.7513 37.2529 16.8023C37.4133 16.8499 37.5754 16.9009 37.7392 16.9553C37.9064 17.0097 38.0685 17.0726 38.2255 17.144C38.3859 17.212 38.5275 17.2987 38.6503 17.4041C38.7766 17.5061 38.8773 17.6302 38.9523 17.7764C39.0308 17.9226 39.0701 18.1011 39.0701 18.3119C39.0701 18.5533 39.0257 18.7777 38.937 18.9851C38.8517 19.1891 38.7237 19.3659 38.5531 19.5155C38.3859 19.6651 38.1777 19.7824 37.9286 19.8674C37.6795 19.9524 37.3945 19.9949 37.0737 19.9949C36.7154 19.9949 36.3844 19.9354 36.0807 19.8164C35.777 19.6974 35.5228 19.5461 35.318 19.3625L35.5535 18.98C35.5808 18.9324 35.6149 18.8967 35.6559 18.8729C35.6968 18.8457 35.7514 18.8321 35.8197 18.8321C35.8845 18.8321 35.951 18.8559 36.0193 18.9035C36.0875 18.9511 36.1694 19.0038 36.265 19.0616C36.3605 19.116 36.4766 19.167 36.6131 19.2146C36.7496 19.2588 36.9202 19.2809 37.1249 19.2809C37.2956 19.2809 37.444 19.2605 37.5703 19.2197C37.6965 19.1755 37.8006 19.1177 37.8825 19.0463C37.9678 18.9715 38.031 18.8865 38.0719 18.7913C38.1129 18.6961 38.1333 18.5958 38.1333 18.4904C38.1333 18.3544 38.0941 18.2422 38.0156 18.1538C37.9405 18.062 37.8399 17.9838 37.7136 17.9192C37.5907 17.8546 37.4491 17.7985 37.2887 17.7509C37.1283 17.7033 36.9646 17.6523 36.7973 17.5979C36.6301 17.5435 36.4663 17.4806 36.3059 17.4092C36.1455 17.3378 36.0022 17.2477 35.876 17.1389C35.7531 17.0301 35.6524 16.8975 35.574 16.7411C35.4989 16.5847 35.4613 16.3943 35.4613 16.1699C35.4613 15.9693 35.5023 15.7772 35.5842 15.5936C35.6695 15.41 35.7906 15.2485 35.9476 15.1091C36.108 14.9697 36.3042 14.8592 36.5363 14.7776C36.7717 14.6926 37.0396 14.6501 37.3399 14.6501C37.6846 14.6501 37.9951 14.7045 38.2715 14.8133C38.5514 14.9221 38.7902 15.0717 38.9882 15.2621L38.7681 15.6242Z" transform="translate(68.498 41.2295)" fill="#484848"/>
<path d="M2.65151 0.1071C2.99276 0.1071 3.30501 0.1581 3.58824 0.2601C3.87148 0.3587 4.11377 0.4998 4.31511 0.6834C4.51644 0.867 4.67342 1.088 4.78603 1.3464C4.89864 1.6048 4.95495 1.8921 4.95495 2.2083C4.95495 2.4803 4.914 2.7319 4.8321 2.9631C4.75361 3.1943 4.64612 3.4153 4.50962 3.6261C4.37653 3.8369 4.21956 4.0409 4.03869 4.2381C3.85783 4.4353 3.66844 4.6359 3.47051 4.8399L1.8018 6.5382C1.9656 6.4906 2.12599 6.4549 2.28296 6.4311C2.43994 6.4039 2.59009 6.3903 2.73341 6.3903H4.63247C4.76897 6.3903 4.87646 6.4294 4.95495 6.5076C5.03685 6.5824 5.0778 6.6827 5.0778 6.8085V7.5633H0V7.1451C0 7.0601 0.0170625 6.9717 0.0511875 6.8799C0.088725 6.7881 0.146737 6.7031 0.225225 6.6249L2.47236 4.3809C2.66004 4.1905 2.82726 4.0086 2.97399 3.8352C3.12414 3.6618 3.2487 3.4901 3.34766 3.3201C3.45004 3.1501 3.52682 2.9784 3.57801 2.805C3.63261 2.6282 3.65991 2.4429 3.65991 2.2491C3.65991 2.0723 3.63431 1.9176 3.58313 1.785C3.53194 1.649 3.45857 1.5351 3.36302 1.4433C3.26747 1.3515 3.15315 1.2835 3.02006 1.2393C2.89039 1.1917 2.74365 1.1679 2.57985 1.1679C2.27614 1.1679 2.02532 1.2444 1.82739 1.3974C1.63288 1.5504 1.49638 1.7561 1.41789 2.0145C1.38036 2.1437 1.32405 2.2372 1.24897 2.295C1.1739 2.3494 1.07835 2.3766 0.962325 2.3766C0.911137 2.3766 0.854831 2.3715 0.793406 2.3613L0.127969 2.244C0.179156 1.8904 0.278119 1.581 0.424856 1.3158C0.571594 1.0472 0.754162 0.8245 0.972562 0.6477C1.19438 0.4675 1.4469 0.3332 1.73014 0.2448C2.01679 0.153 2.32391 0.1071 2.65151 0.1071Z" transform="translate(68.4668 41.1937)" fill="#3B75FF"/>
<path d="M11.1187 0.1887V0.7344C11.1187 0.8976 11.1 1.0302 11.0624 1.1322C11.0283 1.2308 10.9942 1.3141 10.96 1.3821L8.16009 7.1349C8.10207 7.2539 8.02017 7.3559 7.91439 7.4409C7.8086 7.5225 7.66527 7.5633 7.48441 7.5633H6.56816L9.43466 1.9278C9.55409 1.6966 9.68718 1.4977 9.83392 1.3311H6.29174C6.21326 1.3311 6.14501 1.3022 6.08699 1.2444C6.02898 1.1866 5.99997 1.1186 5.99997 1.0404V0.1887H11.1187Z" transform="translate(68.4668 41.1937)" fill="#3B75FF"/>
<path d="M17.0573 0.1887V0.7344C17.0573 0.8976 17.0385 1.0302 17.001 1.1322C16.9668 1.2308 16.9327 1.3141 16.8986 1.3821L14.0986 7.1349C14.0406 7.2539 13.9587 7.3559 13.8529 7.4409C13.7472 7.5225 13.6038 7.5633 13.423 7.5633H12.5067L15.3732 1.9278C15.4926 1.6966 15.6257 1.4977 15.7725 1.3311H12.2303C12.1518 1.3311 12.0836 1.3022 12.0255 1.2444C11.9675 1.1866 11.9385 1.1186 11.9385 1.0404V0.1887H17.0573Z" transform="translate(68.4668 41.1937)" fill="#3B75FF"/>
<path d="M22.6719 7.5633H21.5253L19.4369 2.3307H20.4862C20.5783 2.3307 20.6551 2.3528 20.7165 2.397C20.7814 2.4412 20.8257 2.4973 20.8496 2.5653L21.8631 5.3601C21.9212 5.5233 21.9689 5.6831 22.0065 5.8395C22.0474 5.9959 22.0832 6.1523 22.114 6.3087C22.1447 6.1523 22.1788 5.9959 22.2163 5.8395C22.2573 5.6831 22.3085 5.5233 22.3699 5.3601L23.409 2.5653C23.4329 2.4973 23.4755 2.4412 23.537 2.397C23.5984 2.3528 23.6718 2.3307 23.7571 2.3307H24.7552L22.6719 7.5633Z" transform="translate(68.4668 41.1937)" fill="#3B75FF"/>
<path d="M26.8458 2.3307V7.5633H25.5814V2.3307H26.8458ZM27.0352 0.8058C27.0352 0.9146 27.013 1.0166 26.9686 1.1118C26.9242 1.207 26.8645 1.2903 26.7895 1.3617C26.7178 1.4331 26.6325 1.4909 26.5335 1.5351C26.4346 1.5759 26.3288 1.5963 26.2162 1.5963C26.107 1.5963 26.0029 1.5759 25.9039 1.5351C25.8084 1.4909 25.7248 1.4331 25.6531 1.3617C25.5814 1.2903 25.5234 1.207 25.4791 1.1118C25.4381 1.0166 25.4176 0.9146 25.4176 0.8058C25.4176 0.6936 25.4381 0.5882 25.4791 0.4896C25.5234 0.391 25.5814 0.306 25.6531 0.2346C25.7248 0.1632 25.8084 0.1071 25.9039 0.0663001C26.0029 0.0221 26.107 0 26.2162 0C26.3288 0 26.4346 0.0221 26.5335 0.0663001C26.6325 0.1071 26.7178 0.1632 26.7895 0.2346C26.8645 0.306 26.9242 0.391 26.9686 0.4896C27.013 0.5882 27.0352 0.6936 27.0352 0.8058Z" transform="translate(68.4668 41.1937)" fill="#3B75FF"/>
<path d="M31.3962 3.3507C31.362 3.4051 31.3262 3.4442 31.2887 3.468C31.2511 3.4884 31.2034 3.4986 31.1454 3.4986C31.0839 3.4986 31.0174 3.4816 30.9457 3.4476C30.8775 3.4136 30.7973 3.3762 30.7051 3.3354C30.613 3.2912 30.5072 3.2521 30.3878 3.2181C30.2718 3.1841 30.1335 3.1671 29.9732 3.1671C29.724 3.1671 29.5278 3.2198 29.3845 3.3252C29.2412 3.4306 29.1695 3.5683 29.1695 3.7383C29.1695 3.8505 29.2053 3.9457 29.277 4.0239C29.3521 4.0987 29.4493 4.165 29.5688 4.2228C29.6916 4.2806 29.8298 4.3333 29.9834 4.3809C30.137 4.4251 30.2939 4.4744 30.4543 4.5288C30.6147 4.5832 30.7717 4.6461 30.9252 4.7175C31.0788 4.7855 31.2153 4.8739 31.3347 4.9827C31.4576 5.0881 31.5549 5.2156 31.6265 5.3652C31.7016 5.5148 31.7391 5.695 31.7391 5.9058C31.7391 6.1574 31.6931 6.3903 31.6009 6.6045C31.5088 6.8153 31.374 6.9989 31.1965 7.1553C31.0191 7.3083 30.799 7.429 30.5362 7.5174C30.2769 7.6024 29.9783 7.6449 29.6404 7.6449C29.4596 7.6449 29.2821 7.6279 29.1081 7.5939C28.9375 7.5633 28.772 7.5191 28.6116 7.4613C28.4546 7.4035 28.3079 7.3355 28.1714 7.2573C28.0383 7.1791 27.9205 7.0941 27.8182 7.0023L28.1099 6.5229C28.1475 6.4651 28.1918 6.4209 28.243 6.3903C28.2942 6.3597 28.359 6.3444 28.4375 6.3444C28.516 6.3444 28.5894 6.3665 28.6576 6.4107C28.7293 6.4549 28.8112 6.5025 28.9033 6.5535C28.9955 6.6045 29.103 6.6521 29.2258 6.6963C29.3521 6.7405 29.5108 6.7626 29.7019 6.7626C29.852 6.7626 29.98 6.7456 30.0858 6.7116C30.195 6.6742 30.2837 6.6266 30.3519 6.5688C30.4236 6.511 30.4748 6.4447 30.5055 6.3699C30.5396 6.2917 30.5567 6.2118 30.5567 6.1302C30.5567 6.0078 30.5192 5.9075 30.4441 5.8293C30.3724 5.7511 30.2752 5.6831 30.1523 5.6253C30.0329 5.5675 29.8947 5.5165 29.7377 5.4723C29.5841 5.4247 29.4255 5.3737 29.2617 5.3193C29.1013 5.2649 28.9426 5.202 28.7856 5.1306C28.632 5.0558 28.4938 4.9623 28.371 4.8501C28.2516 4.7379 28.1543 4.6002 28.0792 4.437C28.0076 4.2738 27.9717 4.0766 27.9717 3.8454C27.9717 3.6312 28.0144 3.4272 28.0997 3.2334C28.185 3.0396 28.3096 2.8713 28.4734 2.7285C28.6406 2.5823 28.847 2.4667 29.0927 2.3817C29.3418 2.2933 29.6285 2.2491 29.9527 2.2491C30.3144 2.2491 30.6437 2.3086 30.9406 2.4276C31.2375 2.5466 31.4849 2.703 31.6828 2.8968L31.3962 3.3507Z" transform="translate(68.4668 41.1937)" fill="#3B75FF"/>
<path d="M34.094 2.3307V7.5633H32.8297V2.3307H34.094ZM34.2834 0.8058C34.2834 0.9146 34.2612 1.0166 34.2168 1.1118C34.1725 1.207 34.1128 1.2903 34.0377 1.3617C33.966 1.4331 33.8807 1.4909 33.7817 1.5351C33.6828 1.5759 33.577 1.5963 33.4644 1.5963C33.3552 1.5963 33.2511 1.5759 33.1521 1.5351C33.0566 1.4909 32.973 1.4331 32.9013 1.3617C32.8297 1.2903 32.7716 1.207 32.7273 1.1118C32.6863 1.0166 32.6659 0.9146 32.6659 0.8058C32.6659 0.6936 32.6863 0.5882 32.7273 0.4896C32.7716 0.391 32.8297 0.306 32.9013 0.2346C32.973 0.1632 33.0566 0.1071 33.1521 0.0663001C33.2511 0.0221 33.3552 0 33.4644 0C33.577 0 33.6828 0.0221 33.7817 0.0663001C33.8807 0.1071 33.966 0.1632 34.0377 0.2346C34.1128 0.306 34.1725 0.391 34.2168 0.4896C34.2612 0.5882 34.2834 0.6936 34.2834 0.8058Z" transform="translate(68.4668 41.1937)" fill="#3B75FF"/>
<path d="M37.2521 7.6449C36.7982 7.6449 36.4485 7.5174 36.2028 7.2624C35.9571 7.004 35.8342 6.6487 35.8342 6.1965V3.2742H35.3019C35.2336 3.2742 35.1739 3.2521 35.1227 3.2079C35.0749 3.1637 35.051 3.0974 35.051 3.009V2.5092L35.8956 2.3715L36.1618 0.9435C36.1755 0.8755 36.2062 0.8228 36.2539 0.7854C36.3051 0.748 36.3683 0.7293 36.4433 0.7293H37.0985V2.3766H38.4806V3.2742H37.0985V6.1098C37.0985 6.273 37.1395 6.4005 37.2214 6.4923C37.3033 6.5841 37.4125 6.63 37.549 6.63C37.6275 6.63 37.6923 6.6215 37.7435 6.6045C37.7981 6.5841 37.8442 6.5637 37.8817 6.5433C37.9227 6.5229 37.9585 6.5042 37.9892 6.4872C38.0199 6.4668 38.0506 6.4566 38.0813 6.4566C38.1189 6.4566 38.1496 6.4668 38.1735 6.4872C38.1974 6.5042 38.223 6.5314 38.2503 6.5688L38.629 7.1808C38.4448 7.3338 38.2332 7.4494 37.9943 7.5276C37.7554 7.6058 37.508 7.6449 37.2521 7.6449Z" transform="translate(68.4668 41.1937)" fill="#3B75FF"/>
<path d="M41.7281 2.2491C42.1206 2.2491 42.4755 2.312 42.7928 2.4378C43.1136 2.5636 43.3866 2.7421 43.6118 2.9733C43.8371 3.2045 44.0111 3.4867 44.1339 3.8199C44.2568 4.1531 44.3182 4.5254 44.3182 4.9368C44.3182 5.3516 44.2568 5.7256 44.1339 6.0588C44.0111 6.392 43.8371 6.6759 43.6118 6.9105C43.3866 7.1451 43.1136 7.3253 42.7928 7.4511C42.4755 7.5769 42.1206 7.6398 41.7281 7.6398C41.3357 7.6398 40.9791 7.5769 40.6583 7.4511C40.3375 7.3253 40.0628 7.1451 39.8342 6.9105C39.609 6.6759 39.4332 6.392 39.307 6.0588C39.1841 5.7256 39.1227 5.3516 39.1227 4.9368C39.1227 4.5254 39.1841 4.1531 39.307 3.8199C39.4332 3.4867 39.609 3.2045 39.8342 2.9733C40.0628 2.7421 40.3375 2.5636 40.6583 2.4378C40.9791 2.312 41.3357 2.2491 41.7281 2.2491ZM41.7281 6.6708C42.1649 6.6708 42.4874 6.5246 42.6956 6.2322C42.9071 5.9398 43.0129 5.5114 43.0129 4.947C43.0129 4.3826 42.9071 3.9525 42.6956 3.6567C42.4874 3.3609 42.1649 3.213 41.7281 3.213C41.2845 3.213 40.9569 3.3626 40.7453 3.6618C40.5338 3.9576 40.428 4.386 40.428 4.947C40.428 5.508 40.5338 5.9364 40.7453 6.2322C40.9569 6.5246 41.2845 6.6708 41.7281 6.6708Z" transform="translate(68.4668 41.1937)" fill="#3B75FF"/>
<path d="M45.3047 7.5633V2.3307H46.0469C46.1766 2.3307 46.267 2.3545 46.3182 2.4021C46.3694 2.4497 46.4035 2.5313 46.4206 2.6469L46.4974 3.2793C46.6851 2.9563 46.9052 2.7013 47.1577 2.5143C47.4102 2.3273 47.6935 2.2338 48.0074 2.2338C48.2668 2.2338 48.4817 2.2933 48.6524 2.4123L48.4886 3.3558C48.4783 3.417 48.4561 3.4612 48.422 3.4884C48.3879 3.5122 48.3418 3.5241 48.2838 3.5241C48.2326 3.5241 48.1627 3.5122 48.0739 3.4884C47.9852 3.4646 47.8675 3.4527 47.7207 3.4527C47.458 3.4527 47.2328 3.5258 47.0451 3.672C46.8574 3.8148 46.6987 4.0256 46.569 4.3044V7.5633H45.3047Z" transform="translate(68.4668 41.1937)" fill="#3B75FF"/>
<path d="M52.601 3.3507C52.5669 3.4051 52.531 3.4442 52.4935 3.468C52.456 3.4884 52.4082 3.4986 52.3502 3.4986C52.2888 3.4986 52.2222 3.4816 52.1505 3.4476C52.0823 3.4136 52.0021 3.3762 51.91 3.3354C51.8178 3.2912 51.712 3.2521 51.5926 3.2181C51.4766 3.1841 51.3384 3.1671 51.178 3.1671C50.9289 3.1671 50.7327 3.2198 50.5893 3.3252C50.446 3.4306 50.3743 3.5683 50.3743 3.7383C50.3743 3.8505 50.4102 3.9457 50.4818 4.0239C50.5569 4.0987 50.6542 4.165 50.7736 4.2228C50.8965 4.2806 51.0347 4.3333 51.1882 4.3809C51.3418 4.4251 51.4988 4.4744 51.6591 4.5288C51.8195 4.5832 51.9765 4.6461 52.1301 4.7175C52.2836 4.7855 52.4201 4.8739 52.5396 4.9827C52.6624 5.0881 52.7597 5.2156 52.8313 5.3652C52.9064 5.5148 52.944 5.695 52.944 5.9058C52.944 6.1574 52.8979 6.3903 52.8057 6.6045C52.7136 6.8153 52.5788 6.9989 52.4014 7.1553C52.2239 7.3083 52.0038 7.429 51.741 7.5174C51.4817 7.6024 51.1831 7.6449 50.8453 7.6449C50.6644 7.6449 50.4869 7.6279 50.3129 7.5939C50.1423 7.5633 49.9768 7.5191 49.8164 7.4613C49.6594 7.4035 49.5127 7.3355 49.3762 7.2573C49.2431 7.1791 49.1254 7.0941 49.023 7.0023L49.3148 6.5229C49.3523 6.4651 49.3967 6.4209 49.4478 6.3903C49.499 6.3597 49.5639 6.3444 49.6424 6.3444C49.7208 6.3444 49.7942 6.3665 49.8625 6.4107C49.9341 6.4549 50.016 6.5025 50.1082 6.5535C50.2003 6.6045 50.3078 6.6521 50.4306 6.6963C50.5569 6.7405 50.7156 6.7626 50.9067 6.7626C51.0568 6.7626 51.1848 6.7456 51.2906 6.7116C51.3998 6.6742 51.4885 6.6266 51.5568 6.5688C51.6284 6.511 51.6796 6.4447 51.7103 6.3699C51.7445 6.2917 51.7615 6.2118 51.7615 6.1302C51.7615 6.0078 51.724 5.9075 51.6489 5.8293C51.5772 5.7511 51.48 5.6831 51.3571 5.6253C51.2377 5.5675 51.0995 5.5165 50.9425 5.4723C50.789 5.4247 50.6303 5.3737 50.4665 5.3193C50.3061 5.2649 50.1474 5.202 49.9904 5.1306C49.8369 5.0558 49.6987 4.9623 49.5758 4.8501C49.4564 4.7379 49.3591 4.6002 49.284 4.437C49.2124 4.2738 49.1766 4.0766 49.1766 3.8454C49.1766 3.6312 49.2192 3.4272 49.3045 3.2334C49.3898 3.0396 49.5144 2.8713 49.6782 2.7285C49.8454 2.5823 50.0519 2.4667 50.2976 2.3817C50.5467 2.2933 50.8333 2.2491 51.1575 2.2491C51.5192 2.2491 51.8485 2.3086 52.1454 2.4276C52.4423 2.5466 52.6897 2.703 52.8876 2.8968L52.601 3.3507Z" transform="translate(68.4668 41.1937)" fill="#3B75FF"/>
<path d="M45.3375 22.5857C45.3375 35.0595 35.1884 45.1714 22.6688 45.1714C10.1491 45.1714 0 35.0595 0 22.5857C0 10.112 10.1491 0 22.6688 0C35.1884 0 45.3375 10.112 45.3375 22.5857Z" transform="translate(14.6562 34.9143)" fill="#6FBFF6" fill-opacity="0.3"/>
<path d="M0.340813 12.7916C0.340813 12.7916 1.33289 14.3139 3.4122 15.6025C3.4122 15.6025 1.90627 2.30878 11.7183 0C9.20444 9.637 14.9161 12.3548 16.9981 7.26337C20.475 12.1121 17.8351 16.3424 17.8351 16.3424C19.2607 16.5569 20.4583 14.9301 20.4583 14.9301C20.469 15.1305 20.475 15.3322 20.475 15.5355C20.475 21.4411 15.8916 26.2286 10.2375 26.2286C4.58349 26.2286 0 21.4411 0 15.5354C0 14.5868 0.118885 13.6672 0.340813 12.7916Z" transform="translate(27.0879 43.6572)" fill="#FE8B68"/>
<path d="M0 7.49256C0 10.0825 2.01015 12.1821 4.48976 12.1821C6.96937 12.1821 8.97953 10.0825 8.97953 7.49256C8.97953 6.10629 8.40369 4.86053 7.48817 4.00201C5.75227 6.46529 3.27855 2.72869 5.20641 0C5.20641 0 0 0.681481 0 7.49256Z" transform="translate(32.835 57.7036)" fill="#FEE8A1"/>
<path d="M0.340813 12.7916C0.340813 12.7916 1.33289 14.3139 3.4122 15.6025C3.4122 15.6025 1.90627 2.30878 11.7183 0C9.20444 9.637 14.9161 12.3548 16.9981 7.26337C20.475 12.1121 17.8351 16.3424 17.8351 16.3424C19.2607 16.5569 20.4583 14.9301 20.4583 14.9301C20.469 15.1305 20.475 15.3322 20.475 15.5355C20.475 21.4411 15.8916 26.2286 10.2375 26.2286C4.58349 26.2286 0 21.4411 0 15.5354C0 14.5868 0.118885 13.6672 0.340813 12.7916Z" transform="translate(27.0879 43.6572)" fill="#FE8B68"/>
<path d="M0 7.49256C0 10.0825 2.01015 12.1821 4.48976 12.1821C6.96937 12.1821 8.97953 10.0825 8.97953 7.49256C8.97953 6.10629 8.40369 4.86053 7.48817 4.00201C5.75227 6.46529 3.27855 2.72869 5.20641 0C5.20641 0 0 0.681481 0 7.49256Z" transform="translate(32.835 57.7036)" fill="#FEE8A1"/>
<path fill-rule="evenodd" clip-rule="evenodd" d="M7.02828 0.177629C6.7762 -0.0592098 6.34345 -0.0592098 6.09137 0.177629L3.09567 2.97621L1.80099 1.75092C1.54891 1.51408 1.11616 1.51408 0.863361 1.75092L0 2.73217L2.63007 5.2867C2.88215 5.52354 3.3149 5.52354 3.56699 5.2867L4.08972 4.79604C4.10828 4.77887 4.12542 4.76073 4.14113 4.74187L8.04375 1.15042L7.02828 0.177629Z" transform="translate(68.0371 69.8857)" fill="#32BA7C"/>
<path fill-rule="evenodd" clip-rule="evenodd" d="M6.1914 0.283927L3.09502 3.17656L1.70065 1.85694C1.7006 1.85688 1.70071 1.85699 1.70065 1.85694C1.50655 1.67476 1.16566 1.67298 0.968366 1.85263L0.201413 2.7243L2.73124 5.18146C2.92712 5.36459 3.27118 5.36433 3.46665 5.18069L3.99024 4.68922C4.00403 4.67646 4.01683 4.66293 4.02861 4.6488L4.03479 4.64138L7.83052 1.14829L6.92795 0.283643C6.92779 0.283495 6.9281 0.28379 6.92795 0.283643C6.73213 0.100181 6.38699 0.10017 6.1914 0.283927ZM7.02828 0.177629C6.7762 -0.0592098 6.34345 -0.0592098 6.09137 0.177629L3.09567 2.97621L1.80099 1.75092C1.54891 1.51408 1.11616 1.51408 0.863361 1.75092L0 2.73217L2.63007 5.2867C2.88215 5.52354 3.3149 5.52354 3.56699 5.2867L4.08972 4.79604C4.10828 4.77887 4.12542 4.76073 4.14113 4.74187L8.04375 1.15042L7.02828 0.177629Z" transform="translate(68.0371 69.8857)" fill="white"/>
<path d="M0.709922 4.46614C0.826422 4.61914 0.95263 4.726 1.08855 4.78671C1.22446 4.84743 1.37252 4.87779 1.5327 4.87779C1.86279 4.87779 2.11642 4.76 2.29359 4.52443C2.4732 4.28886 2.563 3.93307 2.563 3.45707C2.563 3.0175 2.48412 2.69571 2.32636 2.49171C2.1686 2.28529 1.94531 2.18207 1.65648 2.18207C1.45261 2.18207 1.27543 2.22821 1.12495 2.3205C0.976901 2.41279 0.838557 2.54393 0.709922 2.71393V4.46614ZM0.709922 2.18571C0.862828 2.01571 1.03636 1.8785 1.23053 1.77407C1.4247 1.66964 1.64556 1.61743 1.89312 1.61743C2.10914 1.61743 2.3033 1.65993 2.47563 1.74493C2.65038 1.8275 2.79843 1.94771 2.91978 2.10557C3.04114 2.261 3.13458 2.45043 3.20011 2.67386C3.26564 2.89729 3.29841 3.14986 3.29841 3.43157C3.29841 3.73029 3.26079 4.00229 3.18555 4.24757C3.11273 4.49286 3.00716 4.70293 2.86881 4.87779C2.7329 5.05264 2.56664 5.18864 2.37005 5.28579C2.17345 5.3805 1.95259 5.42786 1.70745 5.42786C1.58853 5.42786 1.47931 5.41571 1.3798 5.39143C1.28029 5.36957 1.18806 5.33679 1.10311 5.29307C1.02059 5.24936 0.944135 5.19593 0.87375 5.13279C0.803365 5.06964 0.73662 4.998 0.673516 4.91786L0.64075 5.2275C0.621333 5.32707 0.560656 5.37686 0.458719 5.37686H0V0H0.709922V2.18571Z" transform="translate(78.6924 70)" fill="#898989"/>
<path d="M7.22192 1.67571L5.16861 6.4515C5.14676 6.50493 5.11764 6.54621 5.08123 6.57536C5.04483 6.6045 4.99143 6.61907 4.92104 6.61907H4.39315L5.07031 5.14371L3.55217 1.67571H4.17108C4.23175 1.67571 4.27908 1.69029 4.31306 1.71943C4.34704 1.74857 4.37131 1.78136 4.38587 1.81779L5.32515 4.03993C5.34457 4.09579 5.36277 4.15286 5.37976 4.21114C5.39918 4.267 5.41496 4.32286 5.42709 4.37871C5.44408 4.32043 5.46228 4.26336 5.4817 4.2075C5.50112 4.14921 5.52175 4.09214 5.54359 4.03629L6.45011 1.81779C6.4671 1.7765 6.49379 1.7425 6.5302 1.71579C6.56661 1.68907 6.60787 1.67571 6.65398 1.67571H7.22192Z" transform="translate(78.6924 70)" fill="#898989"/>
<path d="M1.61644 5.27486V1.00543H0V0.174857H4.13575V1.00543H2.51931V5.27486H1.61644Z" transform="translate(88.6787 70.1019)" fill="#32BA7C"/>
<path d="M4.45738 5.27486V1.428H5.33841V2.295C5.61024 1.63929 6.06411 1.326 6.7 1.35514V2.28771H6.64903C6.25099 2.28771 5.93304 2.41886 5.69519 2.68114C5.45733 2.93857 5.33841 3.315 5.33841 3.81043V5.27486H4.45738Z" transform="translate(88.6787 70.1019)" fill="#32BA7C"/>
<path d="M8.79035 5.355C8.36318 5.355 8.02824 5.22143 7.78553 4.95429C7.54283 4.68714 7.42147 4.32771 7.42147 3.876V1.428H8.3025V3.61371C8.3025 3.91486 8.37289 4.148 8.51366 4.31314C8.65928 4.47343 8.86316 4.55357 9.12528 4.55357C9.38255 4.55357 9.59128 4.46857 9.75147 4.29857C9.91166 4.12857 9.99175 3.89543 9.99175 3.59914V1.428H10.8728V5.27486H9.99175V4.67743C9.68594 5.12914 9.28547 5.355 8.79035 5.355Z" transform="translate(88.6787 70.1019)" fill="#32BA7C"/>
<path d="M13.2983 5.34771C12.6964 5.34771 12.1527 5.15586 11.6673 4.77214L12.0605 4.17471C12.4779 4.49043 12.8978 4.64829 13.3201 4.64829C13.5094 4.64829 13.6551 4.61186 13.757 4.539C13.8638 4.46129 13.9172 4.35443 13.9172 4.21843C13.9172 4.15043 13.8978 4.09214 13.8589 4.04357C13.825 3.99014 13.7619 3.94157 13.6696 3.89786C13.5774 3.85414 13.4997 3.82257 13.4366 3.80314C13.3735 3.78371 13.2692 3.75214 13.1235 3.70843L13.058 3.68657C12.9221 3.64771 12.8056 3.61129 12.7085 3.57729C12.6163 3.53843 12.5119 3.48743 12.3954 3.42429C12.2789 3.36114 12.1843 3.29314 12.1114 3.22029C12.0386 3.14257 11.978 3.04543 11.9294 2.92886C11.8809 2.81229 11.8566 2.68114 11.8566 2.53543C11.8566 2.18086 11.9852 1.89671 12.2425 1.683C12.5046 1.46929 12.8323 1.36243 13.2255 1.36243C13.7255 1.36243 14.1963 1.50814 14.638 1.79957L14.2885 2.42614C13.8905 2.18329 13.5289 2.06186 13.2036 2.06186C13.0337 2.06186 12.9003 2.09829 12.8032 2.17114C12.7109 2.244 12.6648 2.34114 12.6648 2.46257C12.6648 2.54514 12.7061 2.62043 12.7886 2.68843C12.876 2.75643 12.9609 2.80743 13.0434 2.84143C13.1308 2.87057 13.2692 2.91671 13.4585 2.97986C13.4682 2.98471 13.4803 2.98957 13.4949 2.99443C13.5094 2.99929 13.5216 3.00171 13.5313 3.00171C13.7012 3.05514 13.8444 3.10857 13.9609 3.162C14.0774 3.21057 14.1987 3.27857 14.3249 3.366C14.456 3.45343 14.5555 3.56271 14.6235 3.69386C14.6914 3.82014 14.7254 3.96829 14.7254 4.13829C14.7254 4.52686 14.5919 4.82557 14.3249 5.03443C14.058 5.24329 13.7158 5.34771 13.2983 5.34771Z" transform="translate(88.6787 70.1019)" fill="#32BA7C"/>
<path d="M16.8387 5.34043C16.1009 5.34043 15.7319 4.964 15.7319 4.21114V2.18571H15.2441V1.428H15.7319V0.371571H16.613V1.428H17.6469V2.18571H16.613V4.07271C16.613 4.39329 16.7707 4.55357 17.0863 4.55357C17.2756 4.55357 17.4576 4.50986 17.6323 4.42243V5.14371C17.3993 5.27486 17.1348 5.34043 16.8387 5.34043Z" transform="translate(88.6787 70.1019)" fill="#32BA7C"/>
<path d="M20.3844 5.27486L22.627 0.138429H23.4571L25.6997 5.27486H24.7531L24.2362 4.04357H21.8261L21.3018 5.27486H20.3844ZM22.1537 3.24943H23.9085L23.0275 1.20943L22.1537 3.24943Z" transform="translate(88.6787 70.1019)" fill="#32BA7C"/>
<path d="M28.0635 5.36229C27.4956 5.36229 27.0223 5.168 26.6437 4.77943C26.2651 4.39086 26.0757 3.91729 26.0757 3.35871C26.0757 2.805 26.2651 2.33143 26.6437 1.938C27.0272 1.54457 27.5029 1.34786 28.0708 1.34786C28.6921 1.34786 29.2043 1.56886 29.6072 2.01086L29.0611 2.601C28.7552 2.28043 28.4227 2.12014 28.0635 2.12014C27.748 2.12014 27.4835 2.24157 27.2699 2.48443C27.0611 2.72243 26.9568 3.01386 26.9568 3.35871C26.9568 3.70843 27.0636 4.00229 27.2772 4.24029C27.4956 4.47829 27.7723 4.59729 28.1072 4.59729C28.4616 4.59729 28.7941 4.437 29.1047 4.11643L29.6363 4.641C29.4275 4.87414 29.1994 5.05386 28.9518 5.18014C28.7091 5.30157 28.413 5.36229 28.0635 5.36229Z" transform="translate(88.6787 70.1019)" fill="#32BA7C"/>
<path d="M31.7354 5.34043C30.9975 5.34043 30.6286 4.964 30.6286 4.21114V2.18571H30.1408V1.428H30.6286V0.371571H31.5097V1.428H32.5436V2.18571H31.5097V4.07271C31.5097 4.39329 31.6674 4.55357 31.9829 4.55357C32.1723 4.55357 32.3543 4.50986 32.529 4.42243V5.14371C32.296 5.27486 32.0315 5.34043 31.7354 5.34043Z" transform="translate(88.6787 70.1019)" fill="#32BA7C"/>
<path d="M33.4476 0.837857V0H34.3942V0.837857H33.4476ZM33.484 5.27486V1.428H34.3651V5.27486H33.484Z" transform="translate(88.6787 70.1019)" fill="#32BA7C"/>
<path d="M36.7324 5.304L35.1524 1.428H36.099L37.1329 4.25486L38.1741 1.428H39.0988L37.5261 5.304H36.7324Z" transform="translate(88.6787 70.1019)" fill="#32BA7C"/>
<path d="M39.8614 0.837857V0H40.8079V0.837857H39.8614ZM39.8978 5.27486V1.428H40.7788V5.27486H39.8978Z" transform="translate(88.6787 70.1019)" fill="#32BA7C"/>
<path d="M43.219 5.34043C42.4812 5.34043 42.1122 4.964 42.1122 4.21114V2.18571H41.6244V1.428H42.1122V0.371571H42.9933V1.428H44.0272V2.18571H42.9933V4.07271C42.9933 4.39329 43.151 4.55357 43.4666 4.55357C43.6559 4.55357 43.8379 4.50986 44.0126 4.42243V5.14371C43.7797 5.27486 43.5151 5.34043 43.219 5.34043Z" transform="translate(88.6787 70.1019)" fill="#32BA7C"/>
<path d="M45.703 6.46243C45.3827 6.46243 45.0793 6.38472 44.7929 6.22929L45.0914 5.57357C45.271 5.67071 45.4433 5.71929 45.6084 5.71929C45.7346 5.71929 45.839 5.68529 45.9215 5.61729C46.004 5.55414 46.0817 5.44 46.1545 5.27486L44.5526 1.428H45.4919L46.5841 4.284L47.5816 1.428H48.499L46.97 5.38414C46.8146 5.77757 46.6423 6.05443 46.453 6.21471C46.2637 6.37986 46.0137 6.46243 45.703 6.46243Z" transform="translate(88.6787 70.1019)" fill="#32BA7C"/>
</g>
<defs>
<filter id="filter0_d" x="29.5059" y="100.579" width="195.36" height="195.097" filterUnits="userSpaceOnUse" color-interpolation-filters="sRGB">
<feFlood flood-opacity="0" result="BackgroundImageFix"/>
<feColorMatrix in="SourceAlpha" type="matrix" values="0 0 0 0 0 0 0 0 0 0 0 0 0 0 0 0 0 0 255 0"/>
<feOffset dy="1"/>
<feGaussianBlur stdDeviation="2"/>
<feColorMatrix type="matrix" values="0 0 0 0 0 0 0 0 0 0 0 0 0 0 0 0 0 0 0.15 0"/>
<feBlend mode="normal" in2="BackgroundImageFix" result="effect1_dropShadow"/>
<feBlend mode="normal" in="SourceGraphic" in2="effect1_dropShadow" result="shape"/>
</filter>
<filter id="filter1_d" x="8" y="29" width="240" height="57" filterUnits="userSpaceOnUse" color-interpolation-filters="sRGB">
<feFlood flood-opacity="0" result="BackgroundImageFix"/>
<feColorMatrix in="SourceAlpha" type="matrix" values="0 0 0 0 0 0 0 0 0 0 0 0 0 0 0 0 0 0 255 0"/>
<feOffset/>
<feGaussianBlur stdDeviation="1.5"/>
<feColorMatrix type="matrix" values="0 0 0 0 0 0 0 0 0 0 0 0 0 0 0 0 0 0 0.2 0"/>
<feBlend mode="normal" in2="BackgroundImageFix" result="effect1_dropShadow"/>
<feBlend mode="normal" in="SourceGraphic" in2="effect1_dropShadow" result="shape"/>
</filter>
<linearGradient id="paint0_linear" x2="1" gradientUnits="userSpaceOnUse" gradientTransform="translate(283.483) scale(283.483 570.238) rotate(90)">
<stop stop-color="#FD9A93"/>
<stop offset="0.649341" stop-color="white"/>
</linearGradient>
<linearGradient id="paint1_linear" x2="1" gradientUnits="userSpaceOnUse" gradientTransform="translate(258) scale(258 354) rotate(90)">
<stop stop-color="white" stop-opacity="0"/>
<stop offset="1" stop-color="white"/>
</linearGradient>
</defs>
</svg>
