<svg width="255" height="547" viewBox="0 0 255 547" fill="none" xmlns="http://www.w3.org/2000/svg">
<rect width="255" height="545.06" fill="black" fill-opacity="0" transform="translate(0 0.970703)"/>
<rect width="255" height="545.06" fill="black" fill-opacity="0" transform="translate(0 0.970703)"/>
<rect width="255" height="545.06" fill="black" fill-opacity="0" transform="translate(0 0.970703)"/>
<mask id="mask0" mask-type="alpha" maskUnits="userSpaceOnUse" x="0" y="0" width="255" height="547">
<path d="M200.5 0.970703C199.7 0.970703 199 1.6695 199 2.46812V5.9621C199 14.747 191.8 21.9346 183 21.9346H73C64.2 21.9346 57 14.747 57 5.9621V2.46812C57 1.6695 56.3 0.970703 55.5 0.970703H30C13.4 0.970703 0 14.3476 0 30.9191V516.083C0 532.654 13.4 546.031 30 546.031H225C241.6 546.031 255 532.654 255 516.083V30.9191C255 14.3476 241.6 0.970703 225 0.970703H200.5Z" fill="white"/>
</mask>
<g mask="url(#mask0)">
<path d="M-17 -6.23853H266.483V564H-17V-6.23853Z" fill="url(#paint0_linear)"/>
</g>
<mask id="mask1" mask-type="alpha" maskUnits="userSpaceOnUse" x="0" y="0" width="255" height="547">
<path d="M200.5 0.970703C199.7 0.970703 199 1.6695 199 2.46812V5.9621C199 14.747 191.8 21.9346 183 21.9346H73C64.2 21.9346 57 14.747 57 5.9621V2.46812C57 1.6695 56.3 0.970703 55.5 0.970703H30C13.4 0.970703 0 14.3476 0 30.9191V516.083C0 532.654 13.4 546.031 30 546.031H225C241.6 546.031 255 532.654 255 516.083V30.9191C255 14.3476 241.6 0.970703 225 0.970703H200.5Z" fill="white"/>
</mask>
<g mask="url(#mask1)">
<g filter="url(#filter0_d)">
<rect width="187.36" height="187.097" fill="black" fill-opacity="0" transform="translate(33.5059 103.579)"/>
<rect width="187.36" height="187.097" fill="black" fill-opacity="0" transform="translate(33.5059 103.579)"/>
<rect width="187.359" height="187.097" fill="black" fill-opacity="0" transform="translate(33.5059 103.579)"/>
<path d="M127.186 290.676C178.923 290.676 220.865 248.793 220.865 197.128C220.865 145.462 178.923 103.579 127.186 103.579C75.4477 103.579 33.5059 145.462 33.5059 197.128C33.5059 248.793 75.4477 290.676 127.186 290.676Z" fill="#FCFCFC"/>
<rect width="31.581" height="9.85547" fill="black" fill-opacity="0" transform="translate(147.63 124.81)"/>
<path d="M173.289 128.752C172.668 128.752 172.081 128.874 171.518 129.051C169.736 126.492 166.779 124.81 163.42 124.81C160.062 124.81 157.105 126.492 155.323 129.051C154.76 128.874 154.173 128.752 153.551 128.752C150.281 128.752 147.63 131.399 147.63 134.665H179.211C179.211 131.399 176.56 128.752 173.289 128.752Z" fill="#ACDDEE"/>
<rect width="25.4505" height="7.94248" fill="black" fill-opacity="0" transform="translate(123.815 152.546)"/>
<path d="M144.495 155.723C143.994 155.723 143.521 155.821 143.067 155.964C141.631 153.902 139.248 152.546 136.541 152.546C133.835 152.546 131.452 153.902 130.015 155.964C129.562 155.821 129.089 155.723 128.588 155.723C125.952 155.723 123.815 157.856 123.815 160.488H149.266C149.267 157.856 147.13 155.723 144.495 155.723Z" fill="#ACDDEE"/>
<rect width="39.2847" height="15.0887" fill="black" fill-opacity="0" transform="translate(90.2461 120.713)"/>
<path d="M90.2461 135.802C90.2461 129.969 94.9817 125.24 100.823 125.24C101.704 125.24 102.547 125.379 103.366 125.582C106.126 122.606 110.039 120.713 114.421 120.713C122.766 120.713 129.531 127.468 129.531 135.801H90.2461V135.802Z" fill="#ACDDEE"/>
<rect width="29.3719" height="11.4867" fill="black" fill-opacity="0" transform="translate(112.344 129.631)"/>
<path d="M112.344 141.118C112.344 136.677 115.884 133.077 120.252 133.077C120.911 133.077 121.541 133.183 122.153 133.337C124.217 131.071 127.142 129.631 130.419 129.631C136.658 129.631 141.716 134.774 141.716 141.118H112.344Z" fill="#ACDDEE"/>
<rect width="14.6858" height="5.74373" fill="black" fill-opacity="0" transform="translate(107.054 148.648)"/>
<path d="M107.054 154.391C107.054 152.171 108.824 150.371 111.008 150.371C111.337 150.371 111.652 150.424 111.958 150.501C112.99 149.368 114.453 148.648 116.091 148.648C119.211 148.648 121.739 151.219 121.739 154.391H107.054V154.391Z" fill="#ACDDEE"/>
<rect width="117.875" height="27.0815" fill="black" fill-opacity="0" transform="translate(102.991 174.12)"/>
<path d="M220.866 197.128C220.866 189.42 219.913 181.937 218.153 174.771L217.087 174.12C182.564 174.12 150.728 197.128 110.109 197.128C77.0146 197.128 167.088 200.902 220.763 201.202C220.821 199.85 220.866 198.494 220.866 197.128Z" fill="#D7EFF7"/>
<rect width="90.5678" height="27.0815" fill="black" fill-opacity="0" transform="translate(33.8574 174.12)"/>
<path d="M33.8574 197.128C33.8574 189.42 34.81 181.937 36.5705 174.771L37.6361 174.12C72.1589 174.12 74.3713 197.128 114.99 197.128C148.085 197.128 87.6347 200.902 33.9606 201.202C33.9024 199.85 33.8574 198.494 33.8574 197.128Z" fill="#D7EFF7"/>
<rect width="17.7252" height="51.4457" fill="black" fill-opacity="0" transform="translate(86.1494 148.648)"/>
<rect width="2.50008" height="15.9288" fill="black" fill-opacity="0" transform="translate(93.7617 184.165)"/>
<rect width="2.50008" height="15.9288" fill="black" fill-opacity="0" transform="translate(93.7617 184.165)"/>
<path d="M95.0118 200.094C94.3212 200.094 93.7617 199.535 93.7617 198.846V185.412C93.7617 184.723 94.3209 184.165 95.0118 184.165C95.7026 184.165 96.2618 184.723 96.2618 185.412V198.846C96.2618 199.535 95.7026 200.094 95.0118 200.094Z" fill="#D4ECFC"/>
<rect width="17.7252" height="43.4814" fill="black" fill-opacity="0" transform="translate(86.1494 148.648)"/>
<path d="M103.875 181.928C103.875 188.72 99.9068 192.129 95.012 192.129C90.1173 192.129 86.1494 188.72 86.1494 181.928C86.1494 175.136 91.5784 148.648 95.012 148.648C98.4456 148.648 103.875 175.136 103.875 181.928Z" fill="#D4ECFC"/>
<rect width="11.0806" height="43.481" fill="black" fill-opacity="0" transform="translate(92.7939 148.648)"/>
<path d="M95.0115 148.648C94.3316 148.648 93.5727 149.698 92.7939 151.417C95.5952 155.653 99.2191 176.585 99.2191 182.398C99.2191 188.079 96.6897 191.276 93.3315 191.979C93.8764 192.073 94.4359 192.129 95.0115 192.129C99.9063 192.129 103.875 188.72 103.875 181.927C103.875 175.135 98.4451 148.648 95.0115 148.648Z" fill="#C8E7FC"/>
<rect width="187.359" height="93.5484" fill="black" fill-opacity="0" transform="translate(33.5059 197.128)"/>
<path d="M127.186 290.676C178.924 290.676 220.865 248.793 220.865 197.128H33.5059C33.5059 248.793 75.4477 290.676 127.186 290.676Z" fill="#D3EDF6"/>
<rect width="175.788" height="31.1834" fill="black" fill-opacity="0" transform="translate(44.5527 206.435)"/>
<path d="M49.3646 210.062C25.4518 213.447 98.4404 227.166 98.4404 227.166C98.4404 227.166 205.518 237.22 208.667 237.22C209.188 237.22 210.269 237.389 211.657 237.618C216.199 228.186 219.198 217.874 220.341 207.01C174.513 216.13 123.526 199.564 49.3646 210.062Z" fill="#C9E9F4"/>
<rect width="182.479" height="81.2324" fill="black" fill-opacity="0" transform="translate(34.6084 209.444)"/>
<path d="M127.186 290.676C169.778 290.676 205.707 262.282 217.087 223.423C143.943 223.106 101.171 203.101 34.6084 211.502C41.5341 256.343 80.3435 290.676 127.186 290.676Z" fill="#ADDEEE"/>
<rect width="174.148" height="45.887" fill="black" fill-opacity="0" transform="translate(38.9307 227.167)"/>
<path d="M38.9307 228.527C45.3704 246.573 57.2026 262.052 72.4903 273.053L196.501 260.056C203.341 252.547 208.958 243.914 213.078 234.479C157.532 233.131 79.4559 223.71 38.9307 228.527Z" fill="#96D4E9"/>
<rect width="159.646" height="53.4563" fill="black" fill-opacity="0" transform="translate(52.1719 237.22)"/>
<path d="M127.186 290.676C164.551 290.676 196.784 268.82 211.818 237.22C155.508 237.22 100.378 237.264 52.1719 253.164C69.2578 275.937 96.4967 290.676 127.186 290.676Z" fill="#7BC9E3"/>
<rect width="25.8216" height="74.9425" fill="black" fill-opacity="0" transform="translate(152.332 130.042)"/>
<rect width="3.6418" height="23.204" fill="black" fill-opacity="0" transform="translate(163.423 181.78)"/>
<rect width="3.6418" height="23.204" fill="black" fill-opacity="0" transform="translate(163.423 181.78)"/>
<path d="M165.244 204.984C164.238 204.984 163.423 204.17 163.423 203.167V183.597C163.423 182.594 164.238 181.78 165.244 181.78C166.25 181.78 167.065 182.594 167.065 183.597V203.167C167.065 204.17 166.25 204.984 165.244 204.984Z" fill="#D4ECFC"/>
<rect width="25.8212" height="63.3403" fill="black" fill-opacity="0" transform="translate(152.332 130.042)"/>
<path d="M178.153 178.521C178.153 188.416 172.373 193.382 165.243 193.382C158.112 193.382 152.332 188.416 152.332 178.521C152.332 168.627 160.241 130.042 165.243 130.042C170.245 130.042 178.153 168.627 178.153 178.521Z" fill="#D4ECFC"/>
<rect width="16.1411" height="63.3403" fill="black" fill-opacity="0" transform="translate(162.013 130.042)"/>
<path d="M165.243 130.042C164.253 130.042 163.147 131.572 162.013 134.076C166.093 140.247 171.373 170.738 171.373 179.207C171.373 187.482 167.688 192.14 162.796 193.163C163.59 193.3 164.405 193.382 165.243 193.382C172.373 193.382 178.154 188.416 178.154 178.521C178.154 168.627 170.245 130.042 165.243 130.042Z" fill="#C8E7FC"/>
<rect width="22.7632" height="66.0627" fill="black" fill-opacity="0" transform="translate(63.1104 135.249)"/>
<rect width="3.21" height="20.4549" fill="black" fill-opacity="0" transform="translate(72.8867 180.857)"/>
<rect width="3.21" height="20.4549" fill="black" fill-opacity="0" transform="translate(72.8867 180.857)"/>
<path d="M74.4917 201.312C73.6047 201.312 72.8867 200.594 72.8867 199.71V182.458C72.8867 181.574 73.6051 180.857 74.4917 180.857C75.3784 180.857 76.0967 181.574 76.0967 182.458V199.71C76.0971 200.595 75.3787 201.312 74.4917 201.312Z" fill="#D4ECFC"/>
<rect width="22.762" height="55.8356" fill="black" fill-opacity="0" transform="translate(63.1104 135.249)"/>
<path d="M85.8723 177.985C85.8723 186.706 80.777 191.085 74.4913 191.085C68.2056 191.085 63.1104 186.706 63.1104 177.985C63.1104 169.263 70.0822 135.249 74.4913 135.249C78.9005 135.249 85.8723 169.263 85.8723 177.985Z" fill="#D4ECFC"/>
<rect width="14.2291" height="55.8356" fill="black" fill-opacity="0" transform="translate(71.6445 135.249)"/>
<path d="M74.4922 135.249C73.6191 135.249 72.6446 136.597 71.6445 138.805C75.2417 144.245 79.8953 171.123 79.8953 178.589C79.8953 185.883 76.6472 189.989 72.3351 190.892C73.0347 191.013 73.7534 191.085 74.4926 191.085C80.7783 191.085 85.8736 186.707 85.8736 177.985C85.8736 169.262 78.9014 135.249 74.4922 135.249Z" fill="#C8E7FC"/>
<rect width="24.4358" height="10.8037" fill="black" fill-opacity="0" transform="translate(184.537 140.716)"/>
<path d="M201.911 140.72C201.889 140.72 201.869 140.716 201.847 140.716C198.166 140.716 194.924 142.56 192.97 145.365C192.353 145.171 191.709 145.037 191.028 145.037C187.443 145.037 184.537 147.939 184.537 151.519H208.973C206.862 147.752 204.506 144.142 201.911 140.72Z" fill="#ACDDEE"/>
</g>
<path d="M28.6182 340.338C28.6182 337.171 31.187 334.603 34.3558 334.603H220.83C223.999 334.603 226.568 337.171 226.568 340.338C226.568 343.505 223.999 346.073 220.83 346.073H34.3558C31.187 346.073 28.6182 343.505 28.6182 340.338Z" fill="#D7EFF7"/>
<path d="M29.0083 362.281C29.0129 359.113 31.5854 356.55 34.7543 356.554L221.229 356.825C224.398 356.829 226.963 359.4 226.958 362.568C226.953 365.735 224.381 368.299 221.212 368.294L34.7377 368.024C31.5688 368.019 29.0037 365.448 29.0083 362.281Z" fill="#D7EFF7"/>
<path d="M28.6182 402.121C28.6182 397.628 32.2653 393.986 36.7642 393.986H110.893C115.392 393.986 119.04 397.628 119.04 402.121V439.54C119.04 444.033 115.392 447.675 110.893 447.675H36.7642C32.2653 447.675 28.6182 444.033 28.6182 439.54V402.121Z" fill="#FFECEB"/>
<path d="M137.775 402.121C137.775 397.628 141.423 393.986 145.921 393.986H218.421C222.92 393.986 226.568 397.628 226.568 402.121V439.54C226.568 444.033 222.92 447.675 218.421 447.675H145.921C141.423 447.675 137.775 444.033 137.775 439.54V402.121Z" fill="#FFECEB"/>
<path d="M28.6182 472.892C28.6182 468.399 32.2653 464.757 36.7642 464.757H218.422C222.92 464.757 226.568 468.399 226.568 472.892V510.311C226.568 514.804 222.92 518.446 218.422 518.446H36.7642C32.2653 518.446 28.6182 514.804 28.6182 510.311V472.892Z" fill="#FFECEB"/>
<path d="M28.6182 402.121C28.6182 397.628 32.2653 393.986 36.7642 393.986H110.893C115.392 393.986 119.04 397.628 119.04 402.121V439.54C119.04 444.033 115.392 447.675 110.893 447.675H36.7642C32.2653 447.675 28.6182 444.033 28.6182 439.54V402.121Z" fill="#D7EFF7"/>
<path d="M137.775 402.121C137.775 397.628 141.423 393.986 145.921 393.986H218.421C222.92 393.986 226.568 397.628 226.568 402.121V439.54C226.568 444.033 222.92 447.675 218.421 447.675H145.921C141.423 447.675 137.775 444.033 137.775 439.54V402.121Z" fill="#D7EFF7"/>
<path d="M28.6182 472.892C28.6182 468.399 32.2653 464.757 36.7642 464.757H218.422C222.92 464.757 226.568 468.399 226.568 472.892V510.311C226.568 514.804 222.92 518.446 218.422 518.446H36.7642C32.2653 518.446 28.6182 514.804 28.6182 510.311V472.892Z" fill="#D7EFF7"/>
<rect x="-2" y="192" width="258" height="354" fill="url(#paint1_linear)"/>
</g>
<rect width="233" height="50.9688" fill="black" fill-opacity="0" transform="translate(11 32)"/>
<g filter="url(#filter1_d)">
<rect x="11" y="32" width="233" height="50.9688" rx="25.4844" fill="white"/>
</g>
<rect x="67.0654" y="38.5531" width="59.7062" height="13.8344" rx="3" fill="#D4ECFC" fill-opacity="0.3"/>
<path d="M134 44.5368C133.97 44.5742 133.939 44.6048 133.909 44.6286C133.881 44.649 133.841 44.6592 133.786 44.6592C133.732 44.6592 133.674 44.6388 133.613 44.598C133.555 44.5538 133.481 44.5079 133.389 44.4604C133.3 44.4094 133.192 44.3635 133.063 44.3228C132.937 44.2786 132.781 44.2565 132.594 44.2565C132.349 44.2565 132.133 44.3007 131.946 44.389C131.759 44.4774 131.603 44.6031 131.477 44.7662C131.355 44.9293 131.262 45.1281 131.197 45.3625C131.133 45.597 131.1 45.8603 131.1 46.1525C131.1 46.455 131.134 46.7251 131.202 46.9629C131.27 47.1974 131.367 47.3962 131.493 47.5593C131.618 47.719 131.771 47.8413 131.951 47.9263C132.132 48.0078 132.332 48.0486 132.553 48.0486C132.767 48.0486 132.944 48.0231 133.083 47.9721C133.222 47.9178 133.338 47.86 133.43 47.7988C133.521 47.7377 133.598 47.6816 133.659 47.6306C133.72 47.5763 133.783 47.5491 133.847 47.5491C133.929 47.5491 133.992 47.5797 134.036 47.6408L134.321 48.0078C134.203 48.1539 134.068 48.2779 133.919 48.3799C133.773 48.4818 133.616 48.5651 133.45 48.6296C133.283 48.6942 133.108 48.7418 132.925 48.7723C132.745 48.8029 132.561 48.8182 132.374 48.8182C132.052 48.8182 131.749 48.7587 131.467 48.6398C131.189 48.5209 130.946 48.3476 130.738 48.1199C130.535 47.8923 130.373 47.6136 130.254 47.284C130.135 46.951 130.076 46.5739 130.076 46.1525C130.076 45.7686 130.128 45.4135 130.234 45.0873C130.343 44.7611 130.501 44.4808 130.708 44.2463C130.918 44.0085 131.177 43.8233 131.483 43.6907C131.788 43.5548 132.138 43.4869 132.532 43.4869C132.903 43.4869 133.229 43.5463 133.511 43.6653C133.793 43.7842 134.045 43.9524 134.265 44.1699L134 44.5368Z" fill="#484848"/>
<path d="M138.59 45.5817C138.59 45.3846 138.561 45.2028 138.503 45.0363C138.449 44.8698 138.367 44.7254 138.259 44.6031C138.15 44.4808 138.017 44.3856 137.861 44.3177C137.705 44.2497 137.525 44.2157 137.321 44.2157C136.903 44.2157 136.573 44.3364 136.332 44.5776C136.094 44.8189 135.943 45.1536 135.878 45.5817H138.59ZM139.41 48.0078C139.288 48.1505 139.147 48.2745 138.987 48.3799C138.828 48.4818 138.658 48.5651 138.478 48.6296C138.298 48.6942 138.111 48.7418 137.917 48.7723C137.727 48.8029 137.538 48.8182 137.351 48.8182C136.995 48.8182 136.663 48.7587 136.357 48.6398C136.055 48.5175 135.792 48.3408 135.567 48.1097C135.347 47.8753 135.173 47.5865 135.048 47.2433C134.925 46.8967 134.864 46.4991 134.864 46.0506C134.864 45.6904 134.92 45.3557 135.032 45.0465C135.144 44.7339 135.304 44.4621 135.511 44.231C135.722 44 135.979 43.8182 136.281 43.6857C136.583 43.5531 136.923 43.4869 137.3 43.4869C137.616 43.4869 137.907 43.5395 138.172 43.6449C138.44 43.7468 138.671 43.8963 138.865 44.0934C139.059 44.2905 139.21 44.5334 139.319 44.8223C139.431 45.1111 139.487 45.4407 139.487 45.811C139.487 45.964 139.47 46.0676 139.436 46.122C139.402 46.1729 139.339 46.1984 139.247 46.1984H135.853C135.863 46.5076 135.907 46.7778 135.985 47.0088C136.064 47.2365 136.171 47.4268 136.306 47.5797C136.446 47.7326 136.611 47.8464 136.801 47.9212C136.991 47.9959 137.204 48.0333 137.438 48.0333C137.659 48.0333 137.849 48.0078 138.009 47.9568C138.172 47.9059 138.311 47.8515 138.427 47.7937C138.546 47.7326 138.644 47.6765 138.722 47.6255C138.804 47.5746 138.875 47.5491 138.936 47.5491C139.018 47.5491 139.081 47.5797 139.125 47.6408L139.41 48.0078Z" fill="#484848"/>
<path d="M145.051 43.5684V48.7468H144.052V45.3625C144.052 45.2946 144.055 45.2198 144.062 45.1383C144.069 45.0533 144.079 44.9684 144.092 44.8834C144.058 44.9548 144.024 45.0227 143.991 45.0873C143.96 45.1485 143.928 45.2028 143.894 45.2504L141.513 48.4971C141.476 48.5583 141.427 48.616 141.366 48.6704C141.304 48.7248 141.235 48.7519 141.157 48.7519H140.555V43.5684H141.549V46.9578C141.549 47.0258 141.546 47.1023 141.539 47.1872C141.532 47.2688 141.522 47.3503 141.508 47.4319C141.576 47.2823 141.643 47.1617 141.707 47.07L144.087 43.8182C144.125 43.7604 144.174 43.7043 144.235 43.65C144.3 43.5956 144.371 43.5684 144.449 43.5684H145.051ZM142.864 42.2942C143 42.2942 143.114 42.2789 143.206 42.2483C143.301 42.2178 143.375 42.1685 143.43 42.1005C143.488 42.0326 143.528 41.9442 143.552 41.8355C143.579 41.7234 143.593 41.5874 143.593 41.4277H144.179C144.247 41.4277 144.3 41.4583 144.337 41.5195C144.374 41.5806 144.393 41.6486 144.393 41.7234C144.393 41.8932 144.357 42.0462 144.286 42.1821C144.218 42.318 144.118 42.4352 143.985 42.5338C143.853 42.6289 143.691 42.7037 143.501 42.758C143.314 42.809 143.102 42.8345 142.864 42.8345C142.626 42.8345 142.412 42.809 142.222 42.758C142.035 42.7037 141.875 42.6289 141.743 42.5338C141.61 42.4352 141.508 42.318 141.437 42.1821C141.369 42.0462 141.335 41.8932 141.335 41.7234C141.335 41.6486 141.354 41.5806 141.391 41.5195C141.428 41.4583 141.481 41.4277 141.549 41.4277H142.135C142.135 41.5874 142.147 41.7234 142.171 41.8355C142.198 41.9442 142.239 42.0326 142.293 42.1005C142.351 42.1685 142.426 42.2178 142.518 42.2483C142.613 42.2789 142.728 42.2942 142.864 42.2942Z" fill="#484848"/>
<path d="M150.322 43.5684V48.7468H149.328V46.5909C148.883 46.7064 148.467 46.7778 148.08 46.8049C147.692 46.8287 147.354 46.7947 147.065 46.703C146.777 46.6079 146.549 46.4465 146.382 46.2188C146.219 45.9877 146.138 45.6751 146.138 45.281V43.5684H147.137V45.1281C147.137 45.3659 147.183 45.5562 147.274 45.6989C147.366 45.8382 147.504 45.9368 147.687 45.9945C147.871 46.0489 148.098 46.0659 148.37 46.0455C148.645 46.0217 148.965 45.9691 149.328 45.8875V43.5684H150.322Z" fill="#484848"/>
<path d="M154.497 46.4482C154.093 46.4617 153.75 46.494 153.468 46.545C153.186 46.5926 152.957 46.6571 152.78 46.7387C152.603 46.8202 152.476 46.9171 152.398 47.0292C152.319 47.1379 152.28 47.2603 152.28 47.3962C152.28 47.5253 152.301 47.6374 152.341 47.7326C152.386 47.8243 152.443 47.9008 152.515 47.9619C152.59 48.0197 152.676 48.0622 152.775 48.0894C152.873 48.1165 152.98 48.1301 153.096 48.1301C153.249 48.1301 153.388 48.1148 153.514 48.0843C153.643 48.0537 153.764 48.0112 153.876 47.9568C153.988 47.8991 154.095 47.8294 154.197 47.7479C154.299 47.6663 154.399 47.5729 154.497 47.4675V46.4482ZM151.582 44.2922C151.871 44.0169 152.183 43.8114 152.52 43.6755C152.86 43.5395 153.232 43.4716 153.636 43.4716C153.932 43.4716 154.193 43.5209 154.421 43.6194C154.649 43.7145 154.841 43.8488 154.997 44.022C155.153 44.1953 155.27 44.4026 155.349 44.6439C155.43 44.8851 155.471 45.1519 155.471 45.4441V48.7468H155.028C154.929 48.7468 154.854 48.7316 154.803 48.701C154.752 48.667 154.712 48.6058 154.681 48.5175L154.574 48.0639C154.441 48.1862 154.311 48.2949 154.181 48.3901C154.052 48.4818 153.916 48.5617 153.774 48.6296C153.634 48.6942 153.485 48.7434 153.325 48.7774C153.165 48.8114 152.989 48.8284 152.795 48.8284C152.591 48.8284 152.399 48.8012 152.219 48.7468C152.042 48.6891 151.888 48.6024 151.755 48.4869C151.623 48.3714 151.518 48.227 151.439 48.0537C151.365 47.8804 151.327 47.6782 151.327 47.4471C151.327 47.2433 151.382 47.0479 151.49 46.861C151.602 46.6707 151.783 46.5008 152.031 46.3513C152.282 46.2018 152.608 46.0795 153.009 45.9843C153.414 45.8892 153.91 45.8348 154.497 45.8212V45.4441C154.497 45.0533 154.414 44.7611 154.248 44.5674C154.081 44.3737 153.837 44.2769 153.514 44.2769C153.296 44.2769 153.113 44.3041 152.963 44.3584C152.817 44.4128 152.69 44.474 152.581 44.5419C152.476 44.6065 152.382 44.6659 152.301 44.7203C152.223 44.7747 152.141 44.8019 152.056 44.8019C151.988 44.8019 151.929 44.7832 151.878 44.7458C151.83 44.7084 151.791 44.6643 151.76 44.6133L151.582 44.2922Z" fill="#484848"/>
<path d="M160.43 44.5368C160.4 44.5742 160.369 44.6048 160.339 44.6286C160.312 44.649 160.271 44.6592 160.216 44.6592C160.162 44.6592 160.104 44.6388 160.043 44.598C159.985 44.5538 159.911 44.5079 159.819 44.4604C159.73 44.4094 159.622 44.3635 159.493 44.3228C159.367 44.2786 159.211 44.2565 159.024 44.2565C158.779 44.2565 158.563 44.3007 158.376 44.389C158.19 44.4774 158.033 44.6031 157.908 44.7662C157.785 44.9293 157.692 45.1281 157.627 45.3625C157.563 45.597 157.53 45.8603 157.53 46.1525C157.53 46.455 157.564 46.7251 157.632 46.9629C157.7 47.1974 157.797 47.3962 157.923 47.5593C158.049 47.719 158.201 47.8413 158.382 47.9263C158.562 48.0078 158.762 48.0486 158.983 48.0486C159.197 48.0486 159.374 48.0231 159.513 47.9721C159.652 47.9178 159.768 47.86 159.86 47.7988C159.951 47.7377 160.028 47.6816 160.089 47.6306C160.15 47.5763 160.213 47.5491 160.278 47.5491C160.359 47.5491 160.422 47.5797 160.466 47.6408L160.752 48.0078C160.633 48.1539 160.498 48.2779 160.349 48.3799C160.203 48.4818 160.047 48.5651 159.88 48.6296C159.714 48.6942 159.539 48.7418 159.355 48.7723C159.175 48.8029 158.991 48.8182 158.805 48.8182C158.482 48.8182 158.179 48.7587 157.897 48.6398C157.619 48.5209 157.376 48.3476 157.168 48.1199C156.965 47.8923 156.803 47.6136 156.684 47.284C156.565 46.951 156.506 46.5739 156.506 46.1525C156.506 45.7686 156.559 45.4135 156.664 45.0873C156.773 44.7611 156.931 44.4808 157.138 44.2463C157.349 44.0085 157.607 43.8233 157.913 43.6907C158.218 43.5548 158.568 43.4869 158.963 43.4869C159.333 43.4869 159.659 43.5463 159.941 43.6653C160.223 43.7842 160.475 43.9524 160.696 44.1699L160.43 44.5368Z" fill="#484848"/>
<path d="M167.887 44.5368C167.856 44.5742 167.825 44.6048 167.795 44.6286C167.768 44.649 167.727 44.6592 167.673 44.6592C167.618 44.6592 167.56 44.6388 167.499 44.598C167.442 44.5538 167.367 44.5079 167.275 44.4604C167.187 44.4094 167.078 44.3635 166.949 44.3228C166.823 44.2786 166.667 44.2565 166.48 44.2565C166.235 44.2565 166.019 44.3007 165.833 44.389C165.646 44.4774 165.489 44.6031 165.364 44.7662C165.241 44.9293 165.148 45.1281 165.083 45.3625C165.019 45.597 164.987 45.8603 164.987 46.1525C164.987 46.455 165.021 46.7251 165.088 46.9629C165.156 47.1974 165.253 47.3962 165.379 47.5593C165.505 47.719 165.658 47.8413 165.838 47.9263C166.018 48.0078 166.218 48.0486 166.439 48.0486C166.653 48.0486 166.83 48.0231 166.969 47.9721C167.109 47.9178 167.224 47.86 167.316 47.7988C167.408 47.7377 167.484 47.6816 167.545 47.6306C167.606 47.5763 167.669 47.5491 167.734 47.5491C167.815 47.5491 167.878 47.5797 167.922 47.6408L168.208 48.0078C168.089 48.1539 167.955 48.2779 167.805 48.3799C167.659 48.4818 167.503 48.5651 167.336 48.6296C167.17 48.6942 166.995 48.7418 166.811 48.7723C166.631 48.8029 166.448 48.8182 166.261 48.8182C165.938 48.8182 165.636 48.7587 165.354 48.6398C165.075 48.5209 164.832 48.3476 164.625 48.1199C164.421 47.8923 164.259 47.6136 164.14 47.284C164.022 46.951 163.962 46.5739 163.962 46.1525C163.962 45.7686 164.015 45.4135 164.12 45.0873C164.229 44.7611 164.387 44.4808 164.594 44.2463C164.805 44.0085 165.063 43.8233 165.369 43.6907C165.675 43.5548 166.025 43.4869 166.419 43.4869C166.789 43.4869 167.115 43.5463 167.397 43.6653C167.679 43.7842 167.931 43.9524 168.152 44.1699L167.887 44.5368Z" fill="#484848"/>
<path d="M174.961 43.5531V48.7468H174.064V45.4543C174.064 45.3523 174.069 45.2368 174.08 45.1077C174.093 44.9786 174.112 44.8596 174.136 44.7509L172.403 47.8192C172.372 47.877 172.333 47.9229 172.285 47.9568C172.238 47.9874 172.182 48.0027 172.117 48.0027H172.005C171.944 48.0027 171.888 47.9874 171.837 47.9568C171.789 47.9229 171.75 47.877 171.72 47.8192L169.961 44.7407C169.982 44.8494 169.999 44.9701 170.012 45.1026C170.026 45.2317 170.033 45.3489 170.033 45.4543V48.7468H169.136V43.5531H169.941C170.009 43.5531 170.077 43.5684 170.145 43.599C170.213 43.6296 170.27 43.689 170.318 43.7774L171.832 46.336C171.876 46.4176 171.917 46.5042 171.954 46.596C171.991 46.6877 172.027 46.7795 172.061 46.8712C172.095 46.7795 172.129 46.6877 172.163 46.596C172.2 46.5042 172.241 46.4176 172.285 46.336L173.779 43.7774C173.826 43.6857 173.884 43.6262 173.952 43.599C174.02 43.5684 174.088 43.5531 174.156 43.5531H174.961Z" fill="#484848"/>
<path d="M178.56 43.4869C178.94 43.4869 179.284 43.5497 179.589 43.6755C179.899 43.7978 180.16 43.9762 180.374 44.2106C180.592 44.4417 180.758 44.722 180.874 45.0516C180.989 45.3778 181.047 45.7448 181.047 46.1525C181.047 46.5603 180.989 46.929 180.874 47.2586C180.758 47.5882 180.592 47.8685 180.374 48.0995C180.16 48.3306 179.899 48.509 179.589 48.6347C179.284 48.757 178.94 48.8182 178.56 48.8182C178.176 48.8182 177.829 48.757 177.52 48.6347C177.214 48.509 176.953 48.3306 176.735 48.0995C176.518 47.8685 176.349 47.5882 176.23 47.2586C176.115 46.929 176.057 46.5603 176.057 46.1525C176.057 45.7448 176.115 45.3778 176.23 45.0516C176.349 44.722 176.518 44.4417 176.735 44.2106C176.953 43.9762 177.214 43.7978 177.52 43.6755C177.829 43.5497 178.176 43.4869 178.56 43.4869ZM178.56 48.0435C179.049 48.0435 179.414 47.8787 179.656 47.5491C179.897 47.2195 180.017 46.7557 180.017 46.1576C180.017 45.5596 179.897 45.0958 179.656 44.7662C179.414 44.4332 179.049 44.2667 178.56 44.2667C178.064 44.2667 177.693 44.4332 177.449 44.7662C177.207 45.0958 177.087 45.5596 177.087 46.1576C177.087 46.7557 177.207 47.2195 177.449 47.5491C177.693 47.8787 178.064 48.0435 178.56 48.0435Z" fill="#484848"/>
<path d="M186.305 44.3228H184.353V48.7468H183.354V44.3228H181.402V43.5684H186.305V44.3228Z" fill="#484848"/>
<path d="M188.128 47.4726C188.291 47.6867 188.466 47.8362 188.653 47.9212C188.843 48.0061 189.055 48.0486 189.29 48.0486C189.745 48.0486 190.097 47.8855 190.345 47.5593C190.596 47.2297 190.722 46.7506 190.722 46.122C190.722 45.7924 190.693 45.512 190.635 45.281C190.581 45.0465 190.5 44.8562 190.391 44.7101C190.285 44.5606 190.155 44.4519 189.998 44.3839C189.842 44.3126 189.665 44.2769 189.468 44.2769C189.179 44.2769 188.928 44.3414 188.714 44.4706C188.503 44.5997 188.308 44.7832 188.128 45.021V47.4726ZM188.077 44.3431C188.186 44.214 188.301 44.0968 188.423 43.9915C188.549 43.8827 188.683 43.791 188.826 43.7162C188.969 43.6381 189.12 43.5786 189.28 43.5378C189.443 43.4937 189.616 43.4716 189.8 43.4716C190.095 43.4716 190.362 43.5293 190.6 43.6449C190.841 43.7604 191.047 43.9303 191.216 44.1546C191.386 44.3788 191.517 44.6558 191.609 44.9854C191.704 45.315 191.752 45.6938 191.752 46.122C191.752 46.5059 191.699 46.8627 191.594 47.1923C191.492 47.5185 191.344 47.8022 191.15 48.0435C190.96 48.2847 190.725 48.475 190.447 48.6143C190.172 48.7502 189.861 48.8182 189.514 48.8182C189.205 48.8182 188.94 48.7672 188.719 48.6653C188.498 48.5634 188.301 48.4206 188.128 48.2372V50.4849H187.134V43.5684H187.73C187.87 43.5684 187.956 43.6347 187.99 43.7672L188.077 44.3431Z" fill="#484848"/>
<path d="M195.525 45.9589V44.231H194.704C194.517 44.231 194.361 44.2582 194.235 44.3126C194.11 44.3635 194.008 44.4315 193.929 44.5164C193.855 44.6014 193.8 44.6948 193.766 44.7968C193.736 44.8987 193.72 45.0006 193.72 45.1026C193.72 45.371 193.817 45.5817 194.011 45.7346C194.205 45.8841 194.468 45.9589 194.801 45.9589H195.525ZM196.473 43.5684V48.7468H195.525V46.5909H195.173C195.075 46.5909 194.993 46.5994 194.928 46.6164C194.864 46.6299 194.808 46.652 194.76 46.6826C194.716 46.7132 194.677 46.7506 194.643 46.7947C194.609 46.8389 194.575 46.8882 194.541 46.9426L193.486 48.4003C193.452 48.458 193.416 48.509 193.379 48.5532C193.342 48.5939 193.299 48.6296 193.252 48.6602C193.204 48.6874 193.148 48.7095 193.083 48.7265C193.019 48.7401 192.942 48.7468 192.854 48.7468H192.166L193.619 46.8253C193.744 46.6113 193.916 46.4668 194.133 46.3921C193.875 46.3581 193.656 46.2969 193.476 46.2086C193.299 46.1169 193.155 46.0115 193.043 45.8926C192.93 45.7703 192.849 45.6378 192.798 45.495C192.747 45.3489 192.721 45.2011 192.721 45.0516C192.721 44.8681 192.757 44.688 192.829 44.5113C192.9 44.3347 193.014 44.1766 193.17 44.0373C193.326 43.898 193.528 43.7859 193.777 43.7009C194.025 43.6126 194.324 43.5684 194.674 43.5684H196.473Z" fill="#484848"/>
<path d="M202.203 44.3228H200.251V48.7468H199.252V44.3228H197.299V43.5684H202.203V44.3228Z" fill="#484848"/>
<path d="M68.1303 56.548C68.3511 56.3305 68.6026 56.1623 68.8846 56.0434C69.1666 55.9245 69.4928 55.865 69.8632 55.865C70.2574 55.865 70.6074 55.933 70.9132 56.0689C71.219 56.2014 71.4755 56.3866 71.6828 56.6244C71.8935 56.8589 72.0515 57.1392 72.1568 57.4654C72.2655 57.7916 72.3199 58.1467 72.3199 58.5307C72.3199 58.952 72.2605 59.3292 72.1415 59.6622C72.0226 59.9918 71.8595 60.2704 71.6522 60.4981C71.4484 60.7257 71.2054 60.899 70.9234 61.0179C70.6447 61.1369 70.344 61.1963 70.0212 61.1963C69.8343 61.1963 69.6492 61.181 69.4657 61.1505C69.2856 61.1199 69.1123 61.0723 68.9458 61.0077C68.7793 60.9432 68.6213 60.8599 68.4718 60.758C68.3257 60.6561 68.1931 60.532 68.0742 60.3859L68.3444 60.0495C68.3885 59.9884 68.4514 59.9578 68.5329 59.9578C68.5975 59.9578 68.6604 59.9833 68.7215 60.0342C68.7861 60.0818 68.8659 60.1345 68.9611 60.1922C69.0562 60.25 69.1734 60.3044 69.3128 60.3553C69.4521 60.4029 69.6288 60.4267 69.8428 60.4267C70.2506 60.4267 70.5853 60.2891 70.8469 60.0139C71.112 59.7386 71.2683 59.3428 71.3158 58.8263H68.9254V58.1331H71.3005C71.2734 57.8987 71.219 57.6897 71.1374 57.5062C71.0593 57.3193 70.9574 57.1613 70.8316 57.0322C70.7059 56.9031 70.5564 56.8045 70.3831 56.7366C70.2098 56.6686 70.0161 56.6346 69.8021 56.6346C69.6152 56.6346 69.4572 56.655 69.3281 56.6958C69.1989 56.7332 69.0885 56.7756 68.9968 56.8232C68.9084 56.8674 68.832 56.9099 68.7674 56.9506C68.7062 56.988 68.6485 57.0067 68.5941 57.0067C68.5397 57.0067 68.4973 56.9965 68.4667 56.9761C68.4395 56.9523 68.4123 56.9218 68.3851 56.8844L68.1303 56.548Z" fill="#484848"/>
<path d="M77.5681 56.7009H75.616V61.125H74.617V56.7009H72.6649V55.9465H77.5681V56.7009Z" fill="#484848"/>
<path d="M82.9232 55.9465L80.0486 62.6285C80.018 62.7033 79.9773 62.7611 79.9263 62.8018C79.8753 62.8426 79.8006 62.863 79.702 62.863H78.963L79.911 60.7988L77.7856 55.9465H78.6521C78.737 55.9465 78.8033 55.9669 78.8508 56.0077C78.8984 56.0485 78.9324 56.0944 78.9528 56.1453L80.2678 59.2544C80.295 59.3326 80.3204 59.4124 80.3442 59.494C80.3714 59.5721 80.3935 59.6503 80.4105 59.7284C80.4343 59.6469 80.4598 59.567 80.4869 59.4889C80.5141 59.4073 80.543 59.3275 80.5736 59.2493L81.8427 56.1453C81.8665 56.0876 81.9039 56.04 81.9548 56.0026C82.0058 55.9652 82.0636 55.9465 82.1281 55.9465H82.9232Z" fill="#484848"/>
<path d="M89.8905 56.915C89.8599 56.9523 89.8294 56.9829 89.7988 57.0067C89.7716 57.0271 89.7308 57.0373 89.6764 57.0373C89.6221 57.0373 89.5643 57.0169 89.5032 56.9761C89.4454 56.9319 89.3706 56.8861 89.2789 56.8385C89.1905 56.7875 89.0818 56.7417 88.9527 56.7009C88.827 56.6567 88.6707 56.6346 88.4838 56.6346C88.2391 56.6346 88.0234 56.6788 87.8365 56.7671C87.6496 56.8555 87.4933 56.9812 87.3676 57.1443C87.2452 57.3074 87.1518 57.5062 87.0872 57.7406C87.0227 57.9751 86.9904 58.2384 86.9904 58.5307C86.9904 58.8331 87.0244 59.1032 87.0923 59.3411C87.1603 59.5755 87.2571 59.7743 87.3829 59.9374C87.5086 60.0971 87.6615 60.2194 87.8416 60.3044C88.0217 60.3859 88.2221 60.4267 88.443 60.4267C88.6571 60.4267 88.8338 60.4012 88.9731 60.3502C89.1124 60.2959 89.2279 60.2381 89.3197 60.177C89.4114 60.1158 89.4879 60.0597 89.549 60.0088C89.6102 59.9544 89.673 59.9272 89.7376 59.9272C89.8192 59.9272 89.882 59.9578 89.9262 60.0189L90.2116 60.3859C90.0927 60.532 89.9585 60.6561 89.809 60.758C89.6629 60.8599 89.5066 60.9432 89.3401 61.0077C89.1736 61.0723 88.9986 61.1199 88.8151 61.1505C88.635 61.181 88.4515 61.1963 88.2646 61.1963C87.9418 61.1963 87.6394 61.1369 87.3574 61.0179C87.0787 60.899 86.8358 60.7257 86.6285 60.4981C86.4246 60.2704 86.2632 59.9918 86.1443 59.6622C86.0254 59.3292 85.9659 58.952 85.9659 58.5307C85.9659 58.1467 86.0186 57.7916 86.1239 57.4654C86.2327 57.1392 86.3907 56.8589 86.5979 56.6244C86.8086 56.3866 87.0668 56.2014 87.3727 56.0689C87.6785 55.933 88.0285 55.865 88.4226 55.865C88.793 55.865 89.1192 55.9245 89.4012 56.0434C89.6832 56.1623 89.9347 56.3305 90.1556 56.548L89.8905 56.915Z" fill="#484848"/>
<path d="M95.4769 56.7009H93.5247V61.125H92.5258V56.7009H90.5737V55.9465H95.4769V56.7009Z" fill="#484848"/>
<path d="M97.2999 59.8508C97.463 60.0648 97.638 60.2143 97.8248 60.2993C98.0151 60.3842 98.2275 60.4267 98.4619 60.4267C98.9173 60.4267 99.269 60.2636 99.517 59.9374C99.7684 59.6078 99.8942 59.1287 99.8942 58.5001C99.8942 58.1705 99.8653 57.8902 99.8075 57.6591C99.7532 57.4246 99.6716 57.2344 99.5629 57.0882C99.4575 56.9387 99.3267 56.83 99.1704 56.762C99.0141 56.6907 98.8374 56.655 98.6403 56.655C98.3515 56.655 98.1001 56.7196 97.886 56.8487C97.6753 56.9778 97.48 57.1613 97.2999 57.3992V59.8508ZM97.2489 56.7213C97.3576 56.5922 97.4732 56.4749 97.5955 56.3696C97.7212 56.2609 97.8554 56.1691 97.9981 56.0944C98.1408 56.0162 98.2921 55.9567 98.4518 55.916C98.6149 55.8718 98.7881 55.8497 98.9716 55.8497C99.2673 55.8497 99.534 55.9075 99.7718 56.023C100.013 56.1385 100.219 56.3084 100.389 56.5327C100.558 56.757 100.689 57.0339 100.781 57.3635C100.876 57.6931 100.924 58.0719 100.924 58.5001C100.924 58.884 100.871 59.2408 100.766 59.5704C100.664 59.8966 100.516 60.1804 100.322 60.4216C100.132 60.6629 99.8976 60.8531 99.6189 60.9925C99.3437 61.1284 99.0328 61.1963 98.6862 61.1963C98.377 61.1963 98.112 61.1454 97.8911 61.0434C97.6702 60.9415 97.4732 60.7988 97.2999 60.6153V62.863H96.306V55.9465H96.9023C97.0416 55.9465 97.1283 56.0128 97.1622 56.1453L97.2489 56.7213Z" fill="#484848"/>
<path d="M104.813 58.8263C104.409 58.8399 104.065 58.8722 103.783 58.9231C103.501 58.9707 103.272 59.0353 103.095 59.1168C102.919 59.1984 102.791 59.2952 102.713 59.4073C102.635 59.5161 102.596 59.6384 102.596 59.7743C102.596 59.9034 102.616 60.0156 102.657 60.1107C102.701 60.2024 102.759 60.2789 102.83 60.3401C102.905 60.3978 102.992 60.4403 103.09 60.4675C103.189 60.4947 103.296 60.5083 103.411 60.5083C103.564 60.5083 103.703 60.493 103.829 60.4624C103.958 60.4318 104.079 60.3893 104.191 60.335C104.303 60.2772 104.41 60.2075 104.512 60.126C104.614 60.0444 104.714 59.951 104.813 59.8457V58.8263ZM101.897 56.6703C102.186 56.3951 102.499 56.1895 102.835 56.0536C103.175 55.9177 103.547 55.8497 103.952 55.8497C104.247 55.8497 104.509 55.899 104.736 55.9975C104.964 56.0927 105.156 56.2269 105.312 56.4002C105.469 56.5735 105.586 56.7807 105.664 57.022C105.746 57.2632 105.786 57.53 105.786 57.8222V61.125H105.343C105.244 61.125 105.17 61.1097 105.119 61.0791C105.068 61.0451 105.027 60.984 104.996 60.8956L104.889 60.442C104.757 60.5643 104.626 60.673 104.497 60.7682C104.368 60.8599 104.232 60.9398 104.089 61.0077C103.95 61.0723 103.8 61.1216 103.641 61.1556C103.481 61.1895 103.304 61.2065 103.111 61.2065C102.907 61.2065 102.715 61.1793 102.535 61.125C102.358 61.0672 102.203 60.9806 102.071 60.865C101.938 60.7495 101.833 60.6051 101.755 60.4318C101.68 60.2585 101.643 60.0563 101.643 59.8253C101.643 59.6214 101.697 59.426 101.806 59.2391C101.918 59.0488 102.098 58.8789 102.346 58.7294C102.597 58.5799 102.924 58.4576 103.325 58.3625C103.729 58.2673 104.225 58.213 104.813 58.1994V57.8222C104.813 57.4314 104.73 57.1392 104.563 56.9455C104.397 56.7519 104.152 56.655 103.829 56.655C103.612 56.655 103.428 56.6822 103.279 56.7366C103.133 56.7909 103.005 56.8521 102.896 56.9201C102.791 56.9846 102.698 57.0441 102.616 57.0984C102.538 57.1528 102.456 57.18 102.371 57.18C102.304 57.18 102.244 57.1613 102.193 57.1239C102.146 57.0865 102.106 57.0424 102.076 56.9914L101.897 56.6703Z" fill="#484848"/>
<path d="M111.48 55.9465V61.125H110.481V58.7396H108.111V61.125H107.117V55.9465H108.111V57.9853H110.481V55.9465H111.48Z" fill="#484848"/>
<path d="M117.366 55.9465V61.125H116.367V57.7406C116.367 57.6727 116.371 57.5979 116.377 57.5164C116.384 57.4314 116.394 57.3465 116.408 57.2615C116.374 57.3329 116.34 57.4009 116.306 57.4654C116.276 57.5266 116.243 57.5809 116.209 57.6285L113.829 60.8752C113.792 60.9364 113.742 60.9942 113.681 61.0485C113.62 61.1029 113.55 61.1301 113.472 61.1301H112.871V55.9465H113.865V59.336C113.865 59.4039 113.861 59.4804 113.855 59.5653C113.848 59.6469 113.838 59.7284 113.824 59.81C113.892 59.6605 113.958 59.5398 114.023 59.4481L116.403 56.1963C116.44 56.1385 116.49 56.0825 116.551 56.0281C116.615 55.9737 116.687 55.9465 116.765 55.9465H117.366Z" fill="#484848"/>
<path d="M124.065 60.3706V62.5878C124.065 62.6829 124.038 62.7577 123.984 62.812C123.929 62.8664 123.859 62.8936 123.775 62.8936H123.163V61.125H118.754V55.9465H119.748V60.3706H122.118V55.9465H123.117V60.3706H124.065Z" fill="#484848"/>
<path d="M129.233 55.9465L126.358 62.6285C126.328 62.7033 126.287 62.7611 126.236 62.8018C126.185 62.8426 126.11 62.863 126.012 62.863H125.273L126.221 60.7988L124.095 55.9465H124.962C125.047 55.9465 125.113 55.9669 125.161 56.0077C125.208 56.0485 125.242 56.0944 125.263 56.1453L126.578 59.2544C126.605 59.3326 126.63 59.4124 126.654 59.494C126.681 59.5721 126.703 59.6503 126.72 59.7284C126.744 59.6469 126.77 59.567 126.797 59.4889C126.824 59.4073 126.853 59.3275 126.883 59.2493L128.153 56.1453C128.176 56.0876 128.214 56.04 128.265 56.0026C128.316 55.9652 128.373 55.9465 128.438 55.9465H129.233Z" fill="#484848"/>
<path d="M70.9788 41.2953C71.3186 41.2953 71.6244 41.3446 71.8962 41.4431C72.1714 41.5382 72.4059 41.6725 72.5996 41.8458C72.7933 42.0156 72.9411 42.2161 73.043 42.4472C73.1484 42.6782 73.201 42.928 73.201 43.1964C73.201 43.4309 73.1738 43.6382 73.1195 43.8182C73.0685 43.9949 72.992 44.1495 72.8901 44.2821C72.7916 44.4146 72.6692 44.5267 72.5231 44.6185C72.3804 44.7102 72.2173 44.7866 72.0338 44.8478C72.4756 44.9871 72.8052 45.1995 73.0226 45.4849C73.2401 45.7703 73.3488 46.1288 73.3488 46.5604C73.3488 46.9273 73.2809 47.2518 73.145 47.5339C73.009 47.8159 72.8255 48.0537 72.5945 48.2474C72.3634 48.4377 72.095 48.5821 71.7892 48.6807C71.4868 48.7792 71.1657 48.8285 70.8259 48.8285C70.4555 48.8285 70.1327 48.786 69.8575 48.701C69.5822 48.6161 69.3427 48.4904 69.1388 48.3239C68.9349 48.1574 68.7616 47.9535 68.6189 47.7123C68.4762 47.471 68.3539 47.1924 68.252 46.8764L68.8075 46.647C68.9027 46.6062 68.9995 46.5858 69.098 46.5858C69.1864 46.5858 69.2645 46.6045 69.3325 46.6419C69.4038 46.6793 69.4582 46.7337 69.4956 46.805C69.5568 46.9239 69.623 47.0412 69.6944 47.1567C69.7691 47.2722 69.8575 47.3759 69.9594 47.4676C70.0613 47.5559 70.1803 47.629 70.3162 47.6868C70.4555 47.7411 70.6203 47.7683 70.8106 47.7683C71.0247 47.7683 71.2115 47.7343 71.3712 47.6664C71.5309 47.595 71.6635 47.5033 71.7688 47.3912C71.8775 47.279 71.9574 47.155 72.0083 47.0191C72.0627 46.8798 72.0899 46.7404 72.0899 46.6011C72.0899 46.4244 72.0712 46.2647 72.0338 46.122C71.9965 45.9759 71.9183 45.8519 71.7994 45.75C71.6805 45.648 71.5089 45.5682 71.2846 45.5104C71.0637 45.4526 70.7664 45.4238 70.3926 45.4238V44.5267C70.7019 44.5233 70.9584 44.4944 71.1623 44.4401C71.3661 44.3857 71.5275 44.3109 71.6465 44.2158C71.7688 44.1173 71.8537 44 71.9013 43.8641C71.9489 43.7282 71.9727 43.5787 71.9727 43.4156C71.9727 43.0656 71.8775 42.8023 71.6872 42.6256C71.497 42.4455 71.237 42.3554 70.9074 42.3554C70.6084 42.3554 70.3604 42.4353 70.1633 42.595C69.9662 42.7513 69.8286 42.9535 69.7504 43.2015C69.7097 43.3306 69.6536 43.4241 69.5822 43.4818C69.5109 43.5362 69.4174 43.5634 69.3019 43.5634C69.2475 43.5634 69.1898 43.5583 69.1286 43.5481L68.466 43.4309C68.517 43.0775 68.6155 42.7683 68.7616 42.5032C68.9078 42.2348 69.0895 42.0122 69.307 41.8356C69.5279 41.6555 69.7793 41.5212 70.0613 41.4329C70.3468 41.3412 70.6526 41.2953 70.9788 41.2953Z" fill="#3B75FF"/>
<path d="M75.0775 47.804H76.5708V43.5073C76.5708 43.3408 76.5759 43.1658 76.5861 42.9824L75.526 43.8692C75.4818 43.9066 75.4359 43.9321 75.3884 43.9457C75.3442 43.9593 75.3 43.9661 75.2559 43.9661C75.1879 43.9661 75.125 43.9525 75.0673 43.9253C75.0129 43.8947 74.9721 43.8607 74.9449 43.8233L74.5474 43.278L76.7951 41.3666H77.8298V47.804H79.155V48.7469H75.0775V47.804Z" fill="#3B75FF"/>
<path d="M84.6604 41.912C84.6604 42.0921 84.6026 42.2382 84.4871 42.3503C84.375 42.4625 84.1864 42.5185 83.9213 42.5185H81.8928L81.6277 44.0578C81.9607 43.9898 82.2649 43.9559 82.5401 43.9559C82.9274 43.9559 83.2672 44.0136 83.5595 44.1292C83.8551 44.2447 84.1031 44.4044 84.3036 44.6083C84.5041 44.8121 84.6553 45.0517 84.7572 45.3269C84.8592 45.5987 84.9101 45.8927 84.9101 46.2087C84.9101 46.5994 84.8405 46.9562 84.7012 47.279C84.5652 47.6018 84.375 47.8788 84.1303 48.1098C83.8857 48.3375 83.5951 48.5142 83.2587 48.6399C82.9258 48.7656 82.5622 48.8285 82.168 48.8285C81.937 48.8285 81.7178 48.8047 81.5105 48.7571C81.3032 48.7095 81.1079 48.6467 80.9244 48.5685C80.7443 48.487 80.5761 48.3952 80.4198 48.2933C80.2669 48.188 80.1293 48.0775 80.0069 47.962L80.3943 47.4268C80.4759 47.3113 80.5846 47.2535 80.7205 47.2535C80.8054 47.2535 80.8904 47.2807 80.9753 47.3351C81.0637 47.3895 81.1656 47.4489 81.2812 47.5135C81.3967 47.578 81.5309 47.6375 81.6838 47.6919C81.8367 47.7462 82.0219 47.7734 82.2394 47.7734C82.4704 47.7734 82.6743 47.736 82.851 47.6613C83.0277 47.5865 83.1738 47.4829 83.2893 47.3504C83.4083 47.2145 83.4966 47.0548 83.5544 46.8713C83.6155 46.6844 83.6461 46.4822 83.6461 46.2647C83.6461 45.8638 83.5289 45.5512 83.2944 45.3269C83.0634 45.0993 82.7219 44.9854 82.27 44.9854C81.9132 44.9854 81.5547 45.05 81.1945 45.1791L80.4096 44.9548L81.0212 41.3768H84.6604V41.912Z" fill="#3B75FF"/>
<path d="M92.1471 43.5481V48.7469H91.0563V46.6317C90.6112 46.7438 90.195 46.8118 89.8076 46.8356C89.4236 46.856 89.0889 46.8169 88.8035 46.7184C88.5181 46.6198 88.2938 46.4533 88.1307 46.2189C87.9676 45.9844 87.8861 45.6684 87.8861 45.2709V43.5481H88.9768V45.1027C88.9768 45.3303 89.0193 45.5138 89.1042 45.6531C89.1892 45.789 89.3166 45.8859 89.4865 45.9436C89.6598 45.998 89.8756 46.0167 90.1338 45.9997C90.3954 45.9827 90.7029 45.9351 91.0563 45.857V43.5481H92.1471Z" fill="#3B75FF"/>
<path d="M96.8972 45.5614C96.8972 45.3779 96.87 45.208 96.8156 45.0517C96.7647 44.892 96.6882 44.7544 96.5863 44.6388C96.4843 44.5199 96.3569 44.4282 96.204 44.3636C96.0545 44.2956 95.8812 44.2617 95.6841 44.2617C95.2866 44.2617 94.974 44.3755 94.7463 44.6032C94.5186 44.8308 94.3742 45.1502 94.3131 45.5614H96.8972ZM94.2825 46.2342C94.2961 46.5298 94.342 46.7863 94.4201 47.0038C94.4983 47.2179 94.6019 47.3962 94.731 47.539C94.8635 47.6817 95.0198 47.7887 95.1999 47.8601C95.3834 47.928 95.5873 47.962 95.8116 47.962C96.0256 47.962 96.2108 47.9382 96.3671 47.8906C96.5234 47.8397 96.6593 47.7853 96.7749 47.7275C96.8904 47.6664 96.9889 47.612 97.0705 47.5644C97.152 47.5135 97.2268 47.488 97.2947 47.488C97.3831 47.488 97.451 47.522 97.4986 47.5899L97.8095 47.9926C97.6804 48.1455 97.5343 48.2746 97.3712 48.3799C97.2081 48.4853 97.0348 48.5719 96.8513 48.6399C96.6678 48.7044 96.4792 48.7503 96.2856 48.7775C96.0919 48.8081 95.9033 48.8234 95.7198 48.8234C95.3596 48.8234 95.0249 48.7639 94.7157 48.645C94.4099 48.5227 94.1432 48.3443 93.9155 48.1098C93.6913 47.8754 93.5146 47.5848 93.3854 47.2382C93.2597 46.8917 93.1969 46.4924 93.1969 46.0405C93.1969 45.6803 93.2529 45.3439 93.3651 45.0313C93.4806 44.7187 93.6437 44.4469 93.8544 44.2158C94.0684 43.9847 94.3267 43.803 94.6291 43.6704C94.9349 43.5345 95.2798 43.4666 95.6637 43.4666C95.9831 43.4666 96.2788 43.5192 96.5506 43.6246C96.8224 43.7265 97.0569 43.8777 97.254 44.0782C97.451 44.2787 97.604 44.525 97.7127 44.8172C97.8248 45.1061 97.8809 45.4356 97.8809 45.806C97.8809 45.9759 97.8622 46.0897 97.8248 46.1475C97.7874 46.2053 97.7195 46.2342 97.6209 46.2342H94.2825Z" fill="#3B75FF"/>
<path d="M103.602 48.7469H102.506V44.3993H101.059C101.018 45.0483 100.955 45.6089 100.87 46.0813C100.789 46.5502 100.69 46.9477 100.575 47.2739C100.459 47.6001 100.33 47.8652 100.187 48.069C100.045 48.2695 99.8933 48.4258 99.7336 48.5379C99.5739 48.6501 99.4091 48.7248 99.2392 48.7622C99.0727 48.7996 98.9045 48.8183 98.7346 48.8183C98.405 48.8183 98.2402 48.7639 98.2402 48.6552V47.9671H98.5256C98.6378 47.9671 98.7516 47.9484 98.8671 47.911C98.9861 47.8737 99.0999 47.8006 99.2086 47.6919C99.3174 47.5797 99.421 47.4234 99.5195 47.223C99.6215 47.0225 99.7132 46.7591 99.7948 46.4329C99.8797 46.1033 99.9528 45.7041 100.014 45.2352C100.075 44.7629 100.123 44.2005 100.157 43.5481H103.602V48.7469Z" fill="#3B75FF"/>
<path d="M107.183 43.4666C107.567 43.4666 107.914 43.5294 108.223 43.6551C108.536 43.7809 108.801 43.9593 109.018 44.1903C109.239 44.4214 109.409 44.7017 109.528 45.0313C109.647 45.3609 109.706 45.7313 109.706 46.1424C109.706 46.5536 109.647 46.9239 109.528 47.2535C109.409 47.5831 109.239 47.8652 109.018 48.0996C108.801 48.3307 108.536 48.5091 108.223 48.6348C107.914 48.7605 107.567 48.8234 107.183 48.8234C106.796 48.8234 106.446 48.7605 106.133 48.6348C105.824 48.5091 105.559 48.3307 105.338 48.0996C105.117 47.8652 104.947 47.5831 104.828 47.2535C104.709 46.9239 104.65 46.5536 104.65 46.1424C104.65 45.7313 104.709 45.3609 104.828 45.0313C104.947 44.7017 105.117 44.4214 105.338 44.1903C105.559 43.9593 105.824 43.7809 106.133 43.6551C106.446 43.5294 106.796 43.4666 107.183 43.4666ZM107.183 47.9671C107.652 47.9671 108 47.8108 108.228 47.4982C108.459 47.1822 108.575 46.732 108.575 46.1475C108.575 45.5631 108.459 45.1128 108.228 44.7968C108 44.4774 107.652 44.3177 107.183 44.3177C106.707 44.3177 106.354 44.4774 106.123 44.7968C105.892 45.1128 105.776 45.5631 105.776 46.1475C105.776 46.732 105.892 47.1822 106.123 47.4982C106.354 47.8108 106.707 47.9671 107.183 47.9671Z" fill="#3B75FF"/>
<path d="M112.823 47.9875C113.122 47.9875 113.358 47.9161 113.532 47.7734C113.708 47.6273 113.797 47.4319 113.797 47.1873C113.797 47.0819 113.781 46.9834 113.751 46.8917C113.72 46.7999 113.668 46.7218 113.593 46.6572C113.518 46.5892 113.418 46.5366 113.292 46.4992C113.17 46.4618 113.015 46.4431 112.828 46.4431H111.804V47.9875H112.823ZM111.804 44.2719V45.7551H112.706C112.842 45.7551 112.966 45.7364 113.078 45.699C113.194 45.6582 113.292 45.6038 113.374 45.5359C113.459 45.4645 113.523 45.3813 113.567 45.2861C113.615 45.1876 113.639 45.0789 113.639 44.9599C113.639 44.875 113.623 44.7917 113.593 44.7102C113.562 44.6252 113.51 44.5505 113.435 44.4859C113.364 44.4214 113.268 44.3704 113.149 44.333C113.031 44.2923 112.883 44.2719 112.706 44.2719H111.804ZM112.742 43.5481C113.064 43.5481 113.343 43.5804 113.578 43.6449C113.812 43.7061 114.004 43.7928 114.154 43.9049C114.306 44.017 114.419 44.1495 114.49 44.3024C114.561 44.4554 114.597 44.6201 114.597 44.7968C114.597 44.909 114.582 45.0262 114.551 45.1485C114.521 45.2709 114.468 45.3881 114.393 45.5002C114.318 45.6089 114.216 45.7092 114.087 45.8009C113.962 45.8927 113.8 45.964 113.603 46.015C113.973 46.083 114.266 46.2189 114.48 46.4227C114.697 46.6232 114.806 46.8917 114.806 47.2281C114.806 47.4863 114.753 47.7106 114.648 47.9008C114.543 48.0911 114.398 48.2491 114.215 48.3748C114.035 48.5006 113.824 48.594 113.583 48.6552C113.345 48.7163 113.093 48.7469 112.828 48.7469H110.759V43.5481H112.742Z" fill="#3B75FF"/>
<path d="M119.256 45.5614C119.256 45.3779 119.229 45.208 119.174 45.0517C119.123 44.892 119.047 44.7544 118.945 44.6388C118.843 44.5199 118.715 44.4282 118.563 44.3636C118.413 44.2956 118.24 44.2617 118.043 44.2617C117.645 44.2617 117.333 44.3755 117.105 44.6032C116.877 44.8308 116.733 45.1502 116.672 45.5614H119.256ZM116.641 46.2342C116.655 46.5298 116.701 46.7863 116.779 47.0038C116.857 47.2179 116.96 47.3962 117.09 47.539C117.222 47.6817 117.378 47.7887 117.558 47.8601C117.742 47.928 117.946 47.962 118.17 47.962C118.384 47.962 118.569 47.9382 118.726 47.8906C118.882 47.8397 119.018 47.7853 119.133 47.7275C119.249 47.6664 119.347 47.612 119.429 47.5644C119.511 47.5135 119.585 47.488 119.653 47.488C119.742 47.488 119.81 47.522 119.857 47.5899L120.168 47.9926C120.039 48.1455 119.893 48.2746 119.73 48.3799C119.567 48.4853 119.393 48.5719 119.21 48.6399C119.026 48.7044 118.838 48.7503 118.644 48.7775C118.45 48.8081 118.262 48.8234 118.078 48.8234C117.718 48.8234 117.383 48.7639 117.074 48.645C116.768 48.5227 116.502 48.3443 116.274 48.1098C116.05 47.8754 115.873 47.5848 115.744 47.2382C115.618 46.8917 115.555 46.4924 115.555 46.0405C115.555 45.6803 115.611 45.3439 115.724 45.0313C115.839 44.7187 116.002 44.4469 116.213 44.2158C116.427 43.9847 116.685 43.803 116.988 43.6704C117.293 43.5345 117.638 43.4666 118.022 43.4666C118.342 43.4666 118.637 43.5192 118.909 43.6246C119.181 43.7265 119.415 43.8777 119.613 44.0782C119.81 44.2787 119.963 44.525 120.071 44.8172C120.183 45.1061 120.239 45.4356 120.239 45.806C120.239 45.9759 120.221 46.0897 120.183 46.1475C120.146 46.2053 120.078 46.2342 119.98 46.2342H116.641Z" fill="#3B75FF"/>
<path d="M124.391 43.8437C124.445 43.7554 124.518 43.684 124.61 43.6297C124.705 43.5753 124.804 43.5481 124.906 43.5481H125.762L124.483 45.5002C124.401 45.6327 124.316 45.7398 124.228 45.8213C124.139 45.9029 124.031 45.9657 123.902 46.0099C124.068 46.0575 124.206 46.1305 124.314 46.2291C124.427 46.3242 124.527 46.4482 124.615 46.6011L125.905 48.7469H125.15C124.957 48.7469 124.805 48.7146 124.697 48.6501C124.591 48.5855 124.501 48.4904 124.427 48.3647L123.545 46.8458C123.473 46.7167 123.38 46.6215 123.264 46.5604C123.149 46.4992 123.018 46.4686 122.872 46.4686H122.357V48.752H121.261V43.5481H122.357V45.7347H122.801C122.943 45.7347 123.062 45.7075 123.157 45.6531C123.253 45.5987 123.334 45.5155 123.402 45.4034L124.391 43.8437Z" fill="#3B75FF"/>
<path d="M90.469 75.236V70.9692H88.8525V70.1391H92.9883V70.9692H91.3719V75.236H90.469Z" fill="#32BA7C"/>
<path d="M93.3099 75.236V71.3915H94.1909V72.2579C94.4628 71.6026 94.9166 71.2895 95.5525 71.3187V72.2507H95.5016C95.1035 72.2507 94.7856 72.3817 94.5477 72.6439C94.3099 72.9011 94.1909 73.2773 94.1909 73.7724V75.236H93.3099Z" fill="#32BA7C"/>
<path d="M97.6429 75.3161C97.2157 75.3161 96.8808 75.1826 96.6381 74.9156C96.3954 74.6486 96.274 74.2894 96.274 73.838V71.3915H97.155V73.5759C97.155 73.8768 97.2254 74.1098 97.3662 74.2749C97.5118 74.435 97.7157 74.5151 97.9778 74.5151C98.2351 74.5151 98.4438 74.4302 98.604 74.2603C98.7642 74.0904 98.8443 73.8574 98.8443 73.5613V71.3915H99.7253V75.236H98.8443V74.6389C98.5385 75.0904 98.138 75.3161 97.6429 75.3161Z" fill="#32BA7C"/>
<path d="M102.151 75.3088C101.549 75.3088 101.005 75.1171 100.52 74.7336L100.913 74.1365C101.33 74.452 101.75 74.6098 102.173 74.6098C102.362 74.6098 102.508 74.5734 102.61 74.5006C102.716 74.4229 102.77 74.3161 102.77 74.1802C102.77 74.1122 102.75 74.054 102.711 74.0054C102.678 73.9521 102.614 73.9035 102.522 73.8598C102.43 73.8161 102.352 73.7846 102.289 73.7652C102.226 73.7458 102.122 73.7142 101.976 73.6705L101.911 73.6487C101.775 73.6098 101.658 73.5734 101.561 73.5394C101.469 73.5006 101.364 73.4496 101.248 73.3865C101.131 73.3234 101.037 73.2555 100.964 73.1827C100.891 73.105 100.83 73.0079 100.782 72.8914C100.733 72.7749 100.709 72.6439 100.709 72.4982C100.709 72.1439 100.838 71.8599 101.095 71.6463C101.357 71.4327 101.685 71.3259 102.078 71.3259C102.578 71.3259 103.049 71.4716 103.491 71.7628L103.141 72.389C102.743 72.1463 102.381 72.0249 102.056 72.0249C101.886 72.0249 101.753 72.0614 101.656 72.1342C101.563 72.207 101.517 72.3041 101.517 72.4254C101.517 72.5079 101.559 72.5832 101.641 72.6511C101.729 72.7191 101.813 72.7701 101.896 72.804C101.983 72.8332 102.122 72.8793 102.311 72.9424C102.321 72.9472 102.333 72.9521 102.347 72.9569C102.362 72.9618 102.374 72.9642 102.384 72.9642C102.554 73.0176 102.697 73.071 102.813 73.1244C102.93 73.173 103.051 73.2409 103.177 73.3283C103.309 73.4157 103.408 73.5249 103.476 73.6559C103.544 73.7822 103.578 73.9302 103.578 74.1001C103.578 74.4884 103.444 74.787 103.177 74.9957C102.911 75.2044 102.568 75.3088 102.151 75.3088Z" fill="#32BA7C"/>
<path d="M105.691 75.3015C104.953 75.3015 104.584 74.9253 104.584 74.1729V72.1487H104.097V71.3915H104.584V70.3357H105.466V71.3915H106.499V72.1487H105.466V74.0346C105.466 74.3549 105.623 74.5151 105.939 74.5151C106.128 74.5151 106.31 74.4714 106.485 74.3841V75.1049C106.252 75.236 105.987 75.3015 105.691 75.3015Z" fill="#32BA7C"/>
<path d="M109.237 75.236L111.48 70.1027H112.31L114.552 75.236H113.606L113.089 74.0054H110.679L110.154 75.236H109.237ZM111.006 73.2118H112.761L111.88 71.173L111.006 73.2118Z" fill="#32BA7C"/>
<path d="M116.916 75.3234C116.348 75.3234 115.875 75.1292 115.496 74.7409C115.118 74.3525 114.928 73.8792 114.928 73.321C114.928 72.7676 115.118 72.2944 115.496 71.9012C115.88 71.508 116.355 71.3114 116.923 71.3114C117.545 71.3114 118.057 71.5323 118.46 71.974L117.914 72.5638C117.608 72.2434 117.275 72.0832 116.916 72.0832C116.601 72.0832 116.336 72.2046 116.122 72.4473C115.914 72.6851 115.809 72.9764 115.809 73.321C115.809 73.6705 115.916 73.9642 116.13 74.202C116.348 74.4399 116.625 74.5588 116.96 74.5588C117.314 74.5588 117.647 74.3986 117.957 74.0783L118.489 74.6025C118.28 74.8355 118.052 75.0151 117.804 75.1413C117.562 75.2627 117.266 75.3234 116.916 75.3234Z" fill="#32BA7C"/>
<path d="M120.588 75.3015C119.85 75.3015 119.481 74.9253 119.481 74.1729V72.1487H118.993V71.3915H119.481V70.3357H120.362V71.3915H121.396V72.1487H120.362V74.0346C120.362 74.3549 120.52 74.5151 120.835 74.5151C121.025 74.5151 121.207 74.4714 121.382 74.3841V75.1049C121.149 75.236 120.884 75.3015 120.588 75.3015Z" fill="#32BA7C"/>
<path d="M122.3 70.8017V69.9644H123.247V70.8017H122.3ZM122.337 75.236V71.3915H123.218V75.236H122.337Z" fill="#32BA7C"/>
<path d="M125.585 75.2651L124.005 71.3915H124.951L125.985 74.2166L127.027 71.3915H127.951L126.379 75.2651H125.585Z" fill="#32BA7C"/>
<path d="M128.714 70.8017V69.9644H129.66V70.8017H128.714ZM128.75 75.236V71.3915H129.631V75.236H128.75Z" fill="#32BA7C"/>
<path d="M132.072 75.3015C131.334 75.3015 130.965 74.9253 130.965 74.1729V72.1487H130.477V71.3915H130.965V70.3357H131.846V71.3915H132.88V72.1487H131.846V74.0346C131.846 74.3549 132.004 74.5151 132.319 74.5151C132.508 74.5151 132.69 74.4714 132.865 74.3841V75.1049C132.632 75.236 132.368 75.3015 132.072 75.3015Z" fill="#32BA7C"/>
<path d="M134.556 76.4228C134.235 76.4228 133.932 76.3452 133.645 76.1898L133.944 75.5345C134.124 75.6316 134.296 75.6801 134.461 75.6801C134.587 75.6801 134.691 75.6462 134.774 75.5782C134.857 75.5151 134.934 75.401 135.007 75.236L133.405 71.3915H134.344L135.437 74.2457L136.434 71.3915H137.352L135.823 75.3452C135.667 75.7384 135.495 76.0151 135.306 76.1753C135.116 76.3403 134.866 76.4228 134.556 76.4228Z" fill="#32BA7C"/>
<path d="M79.1963 74.326C79.3128 74.4789 79.439 74.5857 79.5749 74.6463C79.7108 74.707 79.8588 74.7373 80.019 74.7373C80.3491 74.7373 80.6027 74.6196 80.7799 74.3842C80.9595 74.1488 81.0493 73.7932 81.0493 73.3175C81.0493 72.8782 80.9704 72.5566 80.8127 72.3527C80.6549 72.1464 80.4316 72.0433 80.1428 72.0433C79.9389 72.0433 79.7618 72.0894 79.6113 72.1816C79.4632 72.2739 79.3249 72.4049 79.1963 72.5748V74.326ZM79.1963 72.0469C79.3492 71.877 79.5227 71.7399 79.7169 71.6355C79.911 71.5312 80.1319 71.479 80.3795 71.479C80.5955 71.479 80.7896 71.5215 80.962 71.6064C81.1367 71.6889 81.2848 71.8091 81.4061 71.9668C81.5275 72.1222 81.6209 72.3115 81.6864 72.5348C81.752 72.7581 81.7847 73.0105 81.7847 73.292C81.7847 73.5905 81.7471 73.8624 81.6719 74.1075C81.5991 74.3527 81.4935 74.5626 81.3551 74.7373C81.2192 74.9121 81.053 75.048 80.8564 75.1451C80.6598 75.2398 80.4389 75.2871 80.1938 75.2871C80.0749 75.2871 79.9656 75.2749 79.8661 75.2507C79.7666 75.2288 79.6744 75.1961 79.5894 75.1524C79.5069 75.1087 79.4305 75.0553 79.3601 74.9922C79.2897 74.9291 79.2229 74.8575 79.1598 74.7774L79.1271 75.0868C79.1077 75.1864 79.047 75.2361 78.945 75.2361H78.4863V69.8625H79.1963V72.0469Z" fill="#898989"/>
<path d="M85.7082 71.5372L83.6549 76.3101C83.6331 76.3635 83.604 76.4048 83.5676 76.4339C83.5312 76.463 83.4778 76.4776 83.4074 76.4776H82.8795L83.5566 75.0031L82.0385 71.5372H82.6574C82.7181 71.5372 82.7654 71.5518 82.7994 71.5809C82.8334 71.61 82.8576 71.6428 82.8722 71.6792L83.8115 73.9C83.8309 73.9558 83.8491 74.0129 83.8661 74.0711C83.8855 74.1269 83.9013 74.1828 83.9134 74.2386C83.9304 74.1803 83.9486 74.1233 83.968 74.0675C83.9874 74.0092 84.0081 73.9522 84.0299 73.8964L84.9364 71.6792C84.9534 71.638 84.9801 71.604 85.0165 71.5773C85.0529 71.5506 85.0942 71.5372 85.1403 71.5372H85.7082Z" fill="#898989"/>
<circle cx="37.2125" cy="57.4844" r="22.5719" fill="#6FBFF6" fill-opacity="0.3"/>
<rect width="8.00937" height="5.46094" fill="black" fill-opacity="0" transform="translate(67.7939 69.8625)"/>
<rect width="8.00937" height="5.46094" fill="black" fill-opacity="0" transform="translate(67.7939 69.8625)"/>
<path fill-rule="evenodd" clip-rule="evenodd" d="M74.7922 70.0401C74.5412 69.8034 74.1103 69.8034 73.8593 70.0401L70.8764 72.8369L69.5872 71.6124C69.3362 71.3757 68.9053 71.3757 68.6536 71.6124L67.7939 72.593L70.4128 75.146C70.6638 75.3827 71.0947 75.3827 71.3457 75.146L71.8662 74.6556C71.8847 74.6385 71.9017 74.6204 71.9174 74.6015L75.8033 71.0123L74.7922 70.0401Z" fill="#32BA7C"/>
<path fill-rule="evenodd" clip-rule="evenodd" d="M73.9589 70.1463L70.8757 73.0372L69.4873 71.7183C69.4873 71.7183 69.4874 71.7184 69.4873 71.7183C69.2941 71.5363 68.9546 71.5345 68.7582 71.714L67.9945 72.5852L70.5135 75.0408C70.7086 75.2239 71.0512 75.2236 71.2458 75.0401L71.7671 74.5489C71.7809 74.5361 71.7936 74.5226 71.8053 74.5085L71.8115 74.5011L75.591 71.0101L74.6923 70.146C74.6921 70.1459 74.6924 70.1462 74.6923 70.146C74.4973 69.9627 74.1536 69.9627 73.9589 70.1463ZM74.7922 70.0401C74.5412 69.8034 74.1103 69.8034 73.8593 70.0401L70.8764 72.8369L69.5872 71.6124C69.3362 71.3757 68.9053 71.3757 68.6536 71.6124L67.7939 72.593L70.4128 75.146C70.6638 75.3827 71.0947 75.3827 71.3457 75.146L71.8662 74.6556C71.8847 74.6385 71.9017 74.6204 71.9174 74.6015L75.8033 71.0123L74.7922 70.0401Z" fill="white"/>
<rect width="29.0338" height="29.0338" fill="black" fill-opacity="0" transform="translate(22.6504 42.9219)"/>
<rect width="29.0338" height="29.0338" fill="black" fill-opacity="0" transform="translate(22.6504 42.9219)"/>
<path d="M37.1673 42.9219C45.1845 42.9219 51.6842 49.4215 51.6842 57.4388C51.6842 65.4548 45.1845 71.9557 37.1673 71.9557C29.15 71.9557 22.6504 65.4547 22.6504 57.4388C22.6502 49.4214 29.1499 42.9219 37.1673 42.9219Z" fill="#26A6D1"/>
<path d="M37.1673 49.5205C41.5397 49.5205 45.0857 53.0653 45.0857 57.4388C45.0857 61.8123 41.5395 65.3571 37.1673 65.3571C32.7952 65.3571 29.249 61.8123 29.249 57.4388C29.249 53.0653 32.795 49.5205 37.1673 49.5205Z" fill="#484848"/>
<path fill-rule="evenodd" clip-rule="evenodd" d="M46.4053 52.8198C46.4053 50.9973 44.9287 49.5205 43.1055 49.5205C41.2979 49.5205 39.8291 50.9744 39.8066 52.7771C39.8066 52.7913 39.8066 52.8057 39.8066 52.8198C39.8066 54.6423 41.2832 56.1191 43.1055 56.1191C43.1143 56.1191 43.123 56.1191 43.1318 56.1191C44.9424 56.1047 46.4053 54.6335 46.4053 52.8198Z" fill="white"/>
<defs>
<filter id="filter0_d" x="29.5059" y="100.579" width="195.36" height="195.097" filterUnits="userSpaceOnUse" color-interpolation-filters="sRGB">
<feFlood flood-opacity="0" result="BackgroundImageFix"/>
<feColorMatrix in="SourceAlpha" type="matrix" values="0 0 0 0 0 0 0 0 0 0 0 0 0 0 0 0 0 0 255 0"/>
<feOffset dy="1"/>
<feGaussianBlur stdDeviation="2"/>
<feColorMatrix type="matrix" values="0 0 0 0 0 0 0 0 0 0 0 0 0 0 0 0 0 0 0.15 0"/>
<feBlend mode="normal" in2="BackgroundImageFix" result="effect1_dropShadow"/>
<feBlend mode="normal" in="SourceGraphic" in2="effect1_dropShadow" result="shape"/>
</filter>
<filter id="filter1_d" x="8" y="29" width="239" height="56.9688" filterUnits="userSpaceOnUse" color-interpolation-filters="sRGB">
<feFlood flood-opacity="0" result="BackgroundImageFix"/>
<feColorMatrix in="SourceAlpha" type="matrix" values="0 0 0 0 0 0 0 0 0 0 0 0 0 0 0 0 0 0 255 0"/>
<feOffset/>
<feGaussianBlur stdDeviation="1.5"/>
<feColorMatrix type="matrix" values="0 0 0 0 0 0 0 0 0 0 0 0 0 0 0 0 0 0 0.2 0"/>
<feBlend mode="normal" in2="BackgroundImageFix" result="effect1_dropShadow"/>
<feBlend mode="normal" in="SourceGraphic" in2="effect1_dropShadow" result="shape"/>
</filter>
<linearGradient id="paint0_linear" x1="124.742" y1="-6.23853" x2="124.742" y2="564" gradientUnits="userSpaceOnUse">
<stop stop-color="#26A6D1"/>
<stop offset="0.649341" stop-color="white"/>
</linearGradient>
<linearGradient id="paint1_linear" x1="127" y1="192" x2="127" y2="546" gradientUnits="userSpaceOnUse">
<stop stop-color="white" stop-opacity="0"/>
<stop offset="1" stop-color="white"/>
</linearGradient>
</defs>
</svg>
