<svg id="Слой_1" data-name="Слой 1" xmlns="http://www.w3.org/2000/svg" xmlns:xlink="http://www.w3.org/1999/xlink" viewBox="0 0 290 580.06"><defs><style>.cls-1{fill:#fff;}.cls-2{fill:#f4f9ff;}.cls-3{fill:none;stroke:#bfc6d1;stroke-opacity:0.4;}.cls-4{fill:#edf4ff;}.cls-5{fill:#c4c4c4;}.cls-6{mask:url(#mask);}.cls-7{fill:url(#Безымянный_градиент);}.cls-8{mask:url(#mask-2);}.cls-9{fill:#484848;}.cls-10{fill:#6fbff6;fill-opacity:0.3;}.cls-11{fill:#fe8b68;}.cls-12{fill:#fee8a1;}.cls-13{fill:#939393;}.cls-14{fill:#32ba7c;}.cls-15{fill:#898989;}.cls-16{fill:#fcfcfc;}.cls-17{fill:#ffe2d9;}.cls-18{fill:#d4ecfc;}.cls-19{fill:#c8e7fc;}.cls-20{fill:#ffddd2;}.cls-21{fill:#fed6ca;}.cls-22{fill:#fecec0;}.cls-23{fill:#ffc4b2;}.cls-24{fill:#ffeceb;}.cls-25{fill:url(#Безымянный_градиент_2);}</style><mask id="mask" x="0" y="9.76" width="283.48" height="570.24" maskUnits="userSpaceOnUse"><g id="mask0"><path class="cls-1" d="M217.5,17a1.54,1.54,0,0,0-1.5,1.5V22a16,16,0,0,1-16,16H90A16,16,0,0,1,74,22V18.47A1.54,1.54,0,0,0,72.5,17H47A29.93,29.93,0,0,0,17,46.92V532.08A29.93,29.93,0,0,0,47,562H242a29.93,29.93,0,0,0,30-29.95V46.92A29.93,29.93,0,0,0,242,17Z"/></g></mask><linearGradient id="Безымянный_градиент" x1="-536.84" y1="677.38" x2="-535.84" y2="677.38" gradientTransform="matrix(0, 570.24, 283.48, 0, -191885.03, 306137.55)" gradientUnits="userSpaceOnUse"><stop offset="0" stop-color="#fd9a93"/><stop offset="0.65" stop-color="#fff"/></linearGradient><mask id="mask-2" x="15" y="16.97" width="258" height="545.06" maskUnits="userSpaceOnUse"><g id="mask1"><path class="cls-1" d="M217.5,17a1.54,1.54,0,0,0-1.5,1.5V22a16,16,0,0,1-16,16H90A16,16,0,0,1,74,22V18.47A1.54,1.54,0,0,0,72.5,17H47A29.93,29.93,0,0,0,17,46.92V532.08A29.93,29.93,0,0,0,47,562H242a29.93,29.93,0,0,0,30-29.95V46.92A29.93,29.93,0,0,0,242,17Z"/></g></mask><linearGradient id="Безымянный_градиент_2" x1="-536.75" y1="677.57" x2="-535.75" y2="677.57" gradientTransform="matrix(0, 354, 258, 0, -174669, 190216)" gradientUnits="userSpaceOnUse"><stop offset="0" stop-color="#fff" stop-opacity="0"/><stop offset="1" stop-color="#fff"/></linearGradient></defs><title>phone3</title><path class="cls-2" d="M48,0H242a48,48,0,0,1,48,47.92V532.08A48,48,0,0,1,242,580H48A48,48,0,0,1,0,532.08V47.92A48,48,0,0,1,48,0Z"/><path class="cls-3" d="M48,.5H242a47.47,47.47,0,0,1,47.5,47.42V532.08A47.47,47.47,0,0,1,242,579.5H48A47.47,47.47,0,0,1,.5,532.08V47.92A47.47,47.47,0,0,1,48,.5Z"/><path class="cls-4" d="M93,21a3,3,0,1,1-3,3A2.94,2.94,0,0,1,93,21Z"/><path class="cls-5" d="M177.5,27a3.49,3.49,0,1,0-3.5-3.49A3.5,3.5,0,0,0,177.5,27Z"/><path class="cls-5" d="M93,25a1,1,0,1,0-1-1A1,1,0,0,0,93,25Z"/><path class="cls-1" d="M217.5,17a1.54,1.54,0,0,0-1.5,1.5V22a16,16,0,0,1-16,16H90A16,16,0,0,1,74,22V18.47A1.54,1.54,0,0,0,72.5,17H47A29.93,29.93,0,0,0,17,46.92V532.08A29.93,29.93,0,0,0,47,562H242a29.93,29.93,0,0,0,30-29.95V46.92A29.93,29.93,0,0,0,242,17Z"/><path class="cls-4" d="M120.56,23.59a4.07,4.07,0,0,1,4.07-4.07h34.21a4.07,4.07,0,1,1,0,8.13H124.64A4.07,4.07,0,0,1,120.56,23.59Z"/><g class="cls-6"><path class="cls-7" d="M0,9.76H283.48V580H0Z"/></g><g class="cls-8"><path class="cls-1" d="M28.51,72.4A25.24,25.24,0,0,1,53.76,47.18H235.42A25.24,25.24,0,0,1,260.67,72.4h0a25.24,25.24,0,0,1-25.25,25.22H53.76A25.24,25.24,0,0,1,28.51,72.4Z"/><path class="cls-9" d="M92.3,63.75H91.24a.48.48,0,0,1-.29-.09.53.53,0,0,1-.16-.22L90.24,62h-3l-.55,1.49a.47.47,0,0,1-.16.21.44.44,0,0,1-.29.1H85.13L88,56.46h1.4ZM87.54,61h2.34L89,58.57l-.14-.38q-.07-.22-.14-.48-.07.26-.14.48t-.13.39Z"/><path class="cls-9" d="M98.7,60.73a3.46,3.46,0,0,1,.16.34l.15.35.15-.36q.08-.18.16-.34l2.17-4a.63.63,0,0,1,.08-.12l.1-.07.12,0H103v7.29h-1.2V59q0-.13,0-.29t0-.32l-2.22,4.14a.6.6,0,0,1-.2.22.53.53,0,0,1-.28.08h-.19a.53.53,0,0,1-.28-.08.6.6,0,0,1-.2-.22l-2.25-4.15q0,.17,0,.33t0,.29v4.71H95V56.46h1.19l.12,0a.28.28,0,0,1,.1.07.51.51,0,0,1,.09.12Z"/><path class="cls-9" d="M108.47,63.75h-.56a.64.64,0,0,1-.28-.05.35.35,0,0,1-.15-.22l-.11-.37a4.43,4.43,0,0,1-.39.31,2.38,2.38,0,0,1-.39.22,2,2,0,0,1-.43.14,2.62,2.62,0,0,1-.51,0,2.07,2.07,0,0,1-.61-.09,1.37,1.37,0,0,1-.48-.27,1.22,1.22,0,0,1-.31-.44,1.55,1.55,0,0,1-.11-.61,1.2,1.2,0,0,1,.15-.57,1.45,1.45,0,0,1,.52-.51,3.26,3.26,0,0,1,1-.38,6.83,6.83,0,0,1,1.49-.17v-.3a1.12,1.12,0,0,0-.22-.77.8.8,0,0,0-.64-.25,1.56,1.56,0,0,0-.51.07,1.94,1.94,0,0,0-.36.16l-.27.16a.57.57,0,0,1-.28.07.36.36,0,0,1-.22-.07.52.52,0,0,1-.15-.16l-.23-.4a3.11,3.11,0,0,1,2.17-.82,2.06,2.06,0,0,1,.81.15A1.68,1.68,0,0,1,108,59a1.71,1.71,0,0,1,.38.63,2.38,2.38,0,0,1,.13.81ZM106,63a1.68,1.68,0,0,0,.36,0,1.31,1.31,0,0,0,.3-.11,1.6,1.6,0,0,0,.28-.17,2.6,2.6,0,0,0,.27-.25v-.87a6.67,6.67,0,0,0-.92.1,2.38,2.38,0,0,0-.59.17.78.78,0,0,0-.32.25.56.56,0,0,0-.09.31.54.54,0,0,0,.19.47A.86.86,0,0,0,106,63Z"/><path class="cls-9" d="M109.71,63.75V58.58h.74a.4.4,0,0,1,.27.07.4.4,0,0,1,.1.24l.08.63a2.46,2.46,0,0,1,.66-.76,1.38,1.38,0,0,1,.84-.28,1.1,1.1,0,0,1,.64.18l-.16.93a.2.2,0,0,1-.07.13.24.24,0,0,1-.14,0l-.21,0a1.4,1.4,0,0,0-.35,0,1.06,1.06,0,0,0-.67.22,1.63,1.63,0,0,0-.47.63v3.22Z"/><path class="cls-9" d="M115.12,56.26v4.29h.23a.45.45,0,0,0,.2,0,.51.51,0,0,0,.15-.13l1.3-1.59a.71.71,0,0,1,.18-.16.47.47,0,0,1,.25-.06h1.15L117,60.5l-.18.2a1.23,1.23,0,0,1-.2.15.93.93,0,0,1,.19.18l.16.22,1.74,2.51h-1.13a.56.56,0,0,1-.25-.05.49.49,0,0,1-.18-.17l-1.33-2a.4.4,0,0,0-.15-.15.57.57,0,0,0-.23,0h-.28v2.37h-1.25V56.26Z"/><path class="cls-9" d="M121.3,58.5a2.53,2.53,0,0,1,.9.16,2,2,0,0,1,.72.46,2.05,2.05,0,0,1,.47.74,2.74,2.74,0,0,1,.17,1,1.54,1.54,0,0,1,0,.24.34.34,0,0,1,0,.15.19.19,0,0,1-.09.08l-.14,0H120a1.77,1.77,0,0,0,.43,1.17,1.35,1.35,0,0,0,1,.37,1.71,1.71,0,0,0,.52-.07,2.34,2.34,0,0,0,.39-.16l.29-.16a.5.5,0,0,1,.24-.07.27.27,0,0,1,.13,0,.29.29,0,0,1,.1.09l.37.45a2.14,2.14,0,0,1-.47.41,2.78,2.78,0,0,1-.54.26,3,3,0,0,1-.57.14,4.08,4.08,0,0,1-.56,0,2.84,2.84,0,0,1-1-.18,2.31,2.31,0,0,1-.81-.53,2.51,2.51,0,0,1-.54-.87,3.36,3.36,0,0,1-.2-1.2,2.83,2.83,0,0,1,.17-1,2.38,2.38,0,0,1,.49-.81,2.35,2.35,0,0,1,.79-.55A2.63,2.63,0,0,1,121.3,58.5Zm0,.89a1.16,1.16,0,0,0-.86.31,1.51,1.51,0,0,0-.4.87h2.36a1.52,1.52,0,0,0-.07-.45,1,1,0,0,0-.2-.38.94.94,0,0,0-.35-.25A1.16,1.16,0,0,0,121.33,59.39Z"/><path class="cls-9" d="M126.29,63.83a1.38,1.38,0,0,1-1-.38,1.46,1.46,0,0,1-.37-1.05V59.51h-.53a.26.26,0,0,1-.18-.07.25.25,0,0,1-.07-.2v-.49l.84-.14.26-1.41a.25.25,0,0,1,.09-.16.31.31,0,0,1,.19-.06h.65v1.63h1.37v.89h-1.37v2.8a.55.55,0,0,0,.12.38.41.41,0,0,0,.33.14.62.62,0,0,0,.19,0l.14-.06.11-.06a.16.16,0,0,1,.09,0,.14.14,0,0,1,.09,0l.08.08.38.61a1.9,1.9,0,0,1-.63.34A2.36,2.36,0,0,1,126.29,63.83Z"/><path class="cls-9" d="M130.66,58.5a2.53,2.53,0,0,1,.9.16,2,2,0,0,1,.72.46,2.05,2.05,0,0,1,.47.74,2.74,2.74,0,0,1,.17,1,1.54,1.54,0,0,1,0,.24.34.34,0,0,1,0,.15.19.19,0,0,1-.09.08l-.14,0H129.4a1.77,1.77,0,0,0,.43,1.17,1.35,1.35,0,0,0,1,.37,1.71,1.71,0,0,0,.52-.07,2.34,2.34,0,0,0,.39-.16l.29-.16a.5.5,0,0,1,.24-.07.27.27,0,0,1,.13,0,.29.29,0,0,1,.1.09l.37.45a2.14,2.14,0,0,1-.47.41,2.79,2.79,0,0,1-.54.26,3,3,0,0,1-.57.14,4.08,4.08,0,0,1-.56,0,2.84,2.84,0,0,1-1-.18,2.31,2.31,0,0,1-.81-.53,2.51,2.51,0,0,1-.54-.87,3.36,3.36,0,0,1-.2-1.2,2.83,2.83,0,0,1,.17-1,2.38,2.38,0,0,1,.49-.81,2.35,2.35,0,0,1,.79-.55A2.63,2.63,0,0,1,130.66,58.5Zm0,.89a1.16,1.16,0,0,0-.86.31,1.51,1.51,0,0,0-.4.87h2.36a1.52,1.52,0,0,0-.07-.45,1,1,0,0,0-.2-.38.94.94,0,0,0-.35-.25A1.16,1.16,0,0,0,130.68,59.39Z"/><path class="cls-9" d="M133.93,63.75V58.58h.74a.4.4,0,0,1,.27.07.4.4,0,0,1,.1.24l.08.63a2.46,2.46,0,0,1,.66-.76,1.39,1.39,0,0,1,.84-.28,1.1,1.1,0,0,1,.64.18l-.16.93a.2.2,0,0,1-.07.13.24.24,0,0,1-.14,0l-.21,0a1.4,1.4,0,0,0-.35,0,1.06,1.06,0,0,0-.67.22,1.63,1.63,0,0,0-.47.63v3.22Z"/><path class="cls-9" d="M140.26,63.75V59.52l-.45-.07a.5.5,0,0,1-.24-.1.27.27,0,0,1-.09-.21v-.51h.78v-.38a2.26,2.26,0,0,1,.13-.8,1.62,1.62,0,0,1,1-1,2.37,2.37,0,0,1,.81-.13,2.26,2.26,0,0,1,.67.1l0,.63a.18.18,0,0,1-.14.18,1.1,1.1,0,0,1-.29,0,1.47,1.47,0,0,0-.4.05.64.64,0,0,0-.29.17.75.75,0,0,0-.19.31,1.6,1.6,0,0,0-.06.48v.34h1.36v.89h-1.32v4.24Z"/><path class="cls-9" d="M143.6,63.75V58.58h.74a.4.4,0,0,1,.27.07.4.4,0,0,1,.1.24l.08.63a2.46,2.46,0,0,1,.66-.76,1.39,1.39,0,0,1,.84-.28,1.1,1.1,0,0,1,.64.18l-.16.93a.2.2,0,0,1-.07.13.24.24,0,0,1-.14,0l-.21,0a1.4,1.4,0,0,0-.35,0,1.06,1.06,0,0,0-.67.22,1.63,1.63,0,0,0-.47.63v3.22Z"/><path class="cls-9" d="M150,58.5a2.85,2.85,0,0,1,1.06.19,2.28,2.28,0,0,1,.81.53,2.34,2.34,0,0,1,.52.84,3.44,3.44,0,0,1,0,2.21,2.39,2.39,0,0,1-.52.84,2.25,2.25,0,0,1-.81.53,2.85,2.85,0,0,1-1.06.19,2.89,2.89,0,0,1-1.06-.19,2.3,2.3,0,0,1-.82-.53,2.45,2.45,0,0,1-.52-.84,3.44,3.44,0,0,1,0-2.21,2.4,2.4,0,0,1,.52-.84,2.33,2.33,0,0,1,.82-.53A2.89,2.89,0,0,1,150,58.5Zm0,4.37a1.1,1.1,0,0,0,1-.43,2.15,2.15,0,0,0,.31-1.27,2.17,2.17,0,0,0-.31-1.28,1.09,1.09,0,0,0-1-.44,1.11,1.11,0,0,0-1,.44,2.72,2.72,0,0,0,0,2.54A1.12,1.12,0,0,0,150,62.87Z"/><path class="cls-9" d="M153.52,63.75V58.58h.77a.31.31,0,0,1,.32.23l.08.38a3.14,3.14,0,0,1,.28-.28,2,2,0,0,1,.32-.22,1.72,1.72,0,0,1,.37-.14,1.6,1.6,0,0,1,.43-.06,1.2,1.2,0,0,1,.81.27,1.57,1.57,0,0,1,.48.7,1.54,1.54,0,0,1,.3-.44,1.63,1.63,0,0,1,.4-.3,1.86,1.86,0,0,1,.46-.17,2.28,2.28,0,0,1,.5-.06,2.09,2.09,0,0,1,.77.13,1.47,1.47,0,0,1,.56.38,1.66,1.66,0,0,1,.35.62,2.61,2.61,0,0,1,.12.83v3.29h-1.25V60.46a1.09,1.09,0,0,0-.22-.74.8.8,0,0,0-.64-.25,1,1,0,0,0-.36.07.87.87,0,0,0-.29.19.86.86,0,0,0-.19.31,1.2,1.2,0,0,0-.07.43v3.29h-1.26V60.46a1.11,1.11,0,0,0-.21-.76.78.78,0,0,0-.62-.24,1,1,0,0,0-.51.14,1.67,1.67,0,0,0-.44.36v3.79Z"/><path class="cls-9" d="M164.1,63.75V56.46h2.53a4.8,4.8,0,0,1,1.23.14,2.33,2.33,0,0,1,.84.39,1.5,1.5,0,0,1,.48.61,2,2,0,0,1,.15.81,1.61,1.61,0,0,1-.08.49,1.43,1.43,0,0,1-.24.44,1.73,1.73,0,0,1-.41.37A2.41,2.41,0,0,1,168,60q1.51.34,1.51,1.62a2.06,2.06,0,0,1-.18.86,1.91,1.91,0,0,1-.52.68,2.51,2.51,0,0,1-.84.44,3.69,3.69,0,0,1-1.14.16Zm1.37-3.2v2.14h1.39a1.91,1.91,0,0,0,.63-.09,1.08,1.08,0,0,0,.41-.24.85.85,0,0,0,.22-.35,1.28,1.28,0,0,0,.07-.43,1.11,1.11,0,0,0-.08-.42.78.78,0,0,0-.24-.32,1.1,1.1,0,0,0-.42-.21,2.32,2.32,0,0,0-.61-.07Zm0-.94h1.09a1.84,1.84,0,0,0,1.06-.25.91.91,0,0,0,.36-.8,1,1,0,0,0-.32-.81,1.71,1.71,0,0,0-1-.24h-1.17Z"/><path class="cls-9" d="M172.8,58.5a2.53,2.53,0,0,1,.9.16,2,2,0,0,1,.72.46,2.05,2.05,0,0,1,.47.74,2.74,2.74,0,0,1,.17,1,1.54,1.54,0,0,1,0,.24.34.34,0,0,1,0,.15.19.19,0,0,1-.09.08l-.14,0h-3.22a1.77,1.77,0,0,0,.43,1.17,1.35,1.35,0,0,0,1,.37,1.71,1.71,0,0,0,.52-.07,2.35,2.35,0,0,0,.39-.16l.29-.16a.5.5,0,0,1,.24-.07.27.27,0,0,1,.13,0,.29.29,0,0,1,.1.09L175,63a2.14,2.14,0,0,1-.47.41,2.78,2.78,0,0,1-.54.26,3,3,0,0,1-.57.14,4.08,4.08,0,0,1-.56,0,2.84,2.84,0,0,1-1-.18,2.31,2.31,0,0,1-.81-.53,2.51,2.51,0,0,1-.54-.87,3.36,3.36,0,0,1-.2-1.2,2.83,2.83,0,0,1,.17-1,2.38,2.38,0,0,1,.49-.81,2.35,2.35,0,0,1,.79-.55A2.63,2.63,0,0,1,172.8,58.5Zm0,.89a1.16,1.16,0,0,0-.86.31,1.51,1.51,0,0,0-.4.87h2.36a1.52,1.52,0,0,0-.07-.45,1,1,0,0,0-.2-.38.94.94,0,0,0-.35-.25A1.16,1.16,0,0,0,172.83,59.39Z"/><path class="cls-9" d="M176.07,63.75V58.58h.77a.31.31,0,0,1,.32.23l.09.41a3,3,0,0,1,.33-.29,2.49,2.49,0,0,1,.37-.23,2,2,0,0,1,.42-.15,2.21,2.21,0,0,1,.49-.05,1.85,1.85,0,0,1,.76.15,1.44,1.44,0,0,1,.55.4,1.69,1.69,0,0,1,.34.62,2.54,2.54,0,0,1,.12.79v3.29h-1.25V60.46a1.08,1.08,0,0,0-.22-.73.81.81,0,0,0-.66-.26,1.31,1.31,0,0,0-.61.15,2.18,2.18,0,0,0-.54.4v3.74Z"/><path class="cls-9" d="M183.56,63.83a1.38,1.38,0,0,1-1-.38,1.46,1.46,0,0,1-.37-1.05V59.51h-.53a.26.26,0,0,1-.18-.07.25.25,0,0,1-.07-.2v-.49l.84-.14.26-1.41a.25.25,0,0,1,.09-.16.31.31,0,0,1,.19-.06h.65v1.63h1.37v.89h-1.37v2.8a.55.55,0,0,0,.12.38.41.41,0,0,0,.32.14.62.62,0,0,0,.19,0l.14-.06.11-.06a.16.16,0,0,1,.09,0,.14.14,0,0,1,.09,0l.08.08.38.61a1.9,1.9,0,0,1-.63.34A2.36,2.36,0,0,1,183.56,63.83Z"/><path class="cls-9" d="M187.11,56.26v7.49h-1.26V56.26Z"/><path class="cls-9" d="M190.69,58.5a2.53,2.53,0,0,1,.9.16,2,2,0,0,1,.72.46,2.05,2.05,0,0,1,.47.74,2.74,2.74,0,0,1,.17,1,1.44,1.44,0,0,1,0,.24.34.34,0,0,1,0,.15.19.19,0,0,1-.09.08l-.14,0h-3.22a1.78,1.78,0,0,0,.43,1.17,1.35,1.35,0,0,0,1,.37,1.71,1.71,0,0,0,.52-.07,2.37,2.37,0,0,0,.39-.16l.29-.16a.5.5,0,0,1,.24-.07.27.27,0,0,1,.13,0,.29.29,0,0,1,.1.09l.37.45a2.16,2.16,0,0,1-.47.41,2.79,2.79,0,0,1-.54.26,3,3,0,0,1-.57.14,4.07,4.07,0,0,1-.56,0,2.84,2.84,0,0,1-1-.18,2.31,2.31,0,0,1-.81-.53,2.5,2.5,0,0,1-.54-.87,3.36,3.36,0,0,1-.2-1.2,2.83,2.83,0,0,1,.17-1,2.38,2.38,0,0,1,.49-.81,2.34,2.34,0,0,1,.79-.55A2.62,2.62,0,0,1,190.69,58.5Zm0,.89a1.16,1.16,0,0,0-.86.31,1.51,1.51,0,0,0-.4.87h2.36a1.52,1.52,0,0,0-.07-.45,1.05,1.05,0,0,0-.2-.38.93.93,0,0,0-.35-.25A1.16,1.16,0,0,0,190.71,59.39Z"/><path class="cls-9" d="M195.29,58.58v5.17H194V58.58Zm.19-1.51a.71.71,0,0,1-.07.3.82.82,0,0,1-.18.25.84.84,0,0,1-.25.17.84.84,0,0,1-.62,0,.87.87,0,0,1-.25-.17.84.84,0,0,1-.17-.25.75.75,0,0,1-.06-.3.8.8,0,0,1,.06-.31.82.82,0,0,1,.17-.25.79.79,0,0,1,.25-.17.78.78,0,0,1,.63,0,.77.77,0,0,1,.25.17.8.8,0,0,1,.18.25A.75.75,0,0,1,195.48,57.07Z"/><path class="cls-9" d="M198.52,58.49a2.69,2.69,0,0,1,.63.07,2.09,2.09,0,0,1,.54.2h1.5v.46a.25.25,0,0,1-.06.18.36.36,0,0,1-.21.09l-.47.09a1.45,1.45,0,0,1,.08.28,1.54,1.54,0,0,1-.55,1.53,2,2,0,0,1-.64.34,2.69,2.69,0,0,1-.81.12,2.93,2.93,0,0,1-.57-.06c-.16.1-.24.21-.24.33a.25.25,0,0,0,.14.23,1.26,1.26,0,0,0,.38.1l.54,0,.62,0a4.56,4.56,0,0,1,.61.09,1.74,1.74,0,0,1,.53.2,1,1,0,0,1,.38.37,1.11,1.11,0,0,1,.15.6,1.4,1.4,0,0,1-.17.67,1.76,1.76,0,0,1-.49.57,2.51,2.51,0,0,1-.79.4,3.35,3.35,0,0,1-1.07.16,4,4,0,0,1-1-.12,2.37,2.37,0,0,1-.73-.3,1.3,1.3,0,0,1-.43-.43,1,1,0,0,1-.14-.51.88.88,0,0,1,.22-.61,1.53,1.53,0,0,1,.62-.39.86.86,0,0,1-.31-.28.82.82,0,0,1-.12-.46.75.75,0,0,1,0-.24,1,1,0,0,1,.12-.25,1.19,1.19,0,0,1,.21-.23,1.41,1.41,0,0,1,.3-.2,1.66,1.66,0,0,1-.62-.56,1.51,1.51,0,0,1-.22-.83,1.53,1.53,0,0,1,.15-.69,1.56,1.56,0,0,1,.43-.53,2,2,0,0,1,.65-.34A2.83,2.83,0,0,1,198.52,58.49ZM199.9,64a.34.34,0,0,0-.09-.25.57.57,0,0,0-.25-.15,1.74,1.74,0,0,0-.37-.08l-.45,0-.49,0-.48,0a1.15,1.15,0,0,0-.35.28.56.56,0,0,0-.13.36.5.5,0,0,0,.07.25.59.59,0,0,0,.22.21,1.3,1.3,0,0,0,.39.13,3.36,3.36,0,0,0,1.19,0,1.33,1.33,0,0,0,.42-.15.6.6,0,0,0,.24-.22A.53.53,0,0,0,199.9,64ZM198.52,61a1.23,1.23,0,0,0,.41-.06.79.79,0,0,0,.28-.18.67.67,0,0,0,.17-.27.93.93,0,0,0,.06-.34.79.79,0,0,0-.23-.61.94.94,0,0,0-.69-.23,1,1,0,0,0-.7.23.8.8,0,0,0-.23.61,1,1,0,0,0,.06.34.81.81,0,0,0,.17.27.85.85,0,0,0,.29.18A1.26,1.26,0,0,0,198.52,61Z"/><path class="cls-9" d="M202,63.75V56.26h1.25v2.88a2.65,2.65,0,0,1,.67-.46,2,2,0,0,1,.86-.18,1.86,1.86,0,0,1,.76.15,1.44,1.44,0,0,1,.55.4,1.68,1.68,0,0,1,.33.62,2.54,2.54,0,0,1,.12.79v3.29h-1.25V60.46a1.08,1.08,0,0,0-.22-.73.81.81,0,0,0-.66-.26,1.31,1.31,0,0,0-.61.15,2.17,2.17,0,0,0-.54.4v3.74Z"/><path class="cls-9" d="M214.41,56.46v1.08h-3.26v2h2.57v1h-2.57v2.06h3.26v1.08h-4.63V56.46Z"/><path class="cls-9" d="M219.61,63.75H219a.64.64,0,0,1-.28-.05.35.35,0,0,1-.15-.22l-.11-.37a4.37,4.37,0,0,1-.39.31,2.34,2.34,0,0,1-.39.22,2,2,0,0,1-.43.14,2.62,2.62,0,0,1-.51,0,2.07,2.07,0,0,1-.61-.09,1.37,1.37,0,0,1-.48-.27,1.21,1.21,0,0,1-.31-.44,1.54,1.54,0,0,1-.11-.61,1.19,1.19,0,0,1,.15-.57,1.44,1.44,0,0,1,.52-.51,3.26,3.26,0,0,1,1-.38,6.84,6.84,0,0,1,1.49-.17v-.3a1.12,1.12,0,0,0-.22-.77.8.8,0,0,0-.64-.25,1.57,1.57,0,0,0-.51.07,1.93,1.93,0,0,0-.35.16l-.27.16a.57.57,0,0,1-.28.07.37.37,0,0,1-.22-.07.51.51,0,0,1-.15-.16l-.23-.4a3.11,3.11,0,0,1,2.17-.82,2.06,2.06,0,0,1,.81.15,1.68,1.68,0,0,1,.61.41,1.72,1.72,0,0,1,.38.63,2.38,2.38,0,0,1,.13.81ZM217.17,63a1.67,1.67,0,0,0,.35,0,1.3,1.3,0,0,0,.31-.11,1.6,1.6,0,0,0,.28-.17,2.5,2.5,0,0,0,.27-.25v-.87a6.67,6.67,0,0,0-.92.1,2.39,2.39,0,0,0-.59.17.78.78,0,0,0-.32.25.55.55,0,0,0-.09.31.54.54,0,0,0,.19.47A.86.86,0,0,0,217.17,63Z"/><path class="cls-9" d="M223.93,59.59a.37.37,0,0,1-.11.12.3.3,0,0,1-.14,0,.47.47,0,0,1-.2-.05l-.24-.11a2,2,0,0,0-.32-.12,1.48,1.48,0,0,0-.41-.05,1,1,0,0,0-.58.16.48.48,0,0,0-.21.41.4.4,0,0,0,.11.28,1.06,1.06,0,0,0,.29.2,3.2,3.2,0,0,0,.41.16l.47.15.47.19a1.5,1.5,0,0,1,.41.26,1.14,1.14,0,0,1,.29.38,1.17,1.17,0,0,1,.11.53,1.73,1.73,0,0,1-.14.69,1.55,1.55,0,0,1-.4.54,1.94,1.94,0,0,1-.65.36,2.87,2.87,0,0,1-.89.13,2.75,2.75,0,0,1-.53-.05,3,3,0,0,1-.49-.13,2.9,2.9,0,0,1-.44-.2,2.14,2.14,0,0,1-.35-.25l.29-.47a.42.42,0,0,1,.13-.13.37.37,0,0,1,.19,0,.4.4,0,0,1,.22.07l.24.14.32.14a1.46,1.46,0,0,0,.47.07,1.26,1.26,0,0,0,.38-.05.82.82,0,0,0,.26-.14.49.49,0,0,0,.15-.2.58.58,0,0,0,.05-.24A.41.41,0,0,0,223,62a.91.91,0,0,0-.29-.2,2.53,2.53,0,0,0-.41-.15l-.47-.15-.47-.19a1.72,1.72,0,0,1-.41-.28,1.29,1.29,0,0,1-.29-.41,1.45,1.45,0,0,1-.11-.59,1.48,1.48,0,0,1,.13-.61A1.41,1.41,0,0,1,221,59a1.84,1.84,0,0,1,.61-.34,2.56,2.56,0,0,1,.85-.13,2.62,2.62,0,0,1,1,.18,2.22,2.22,0,0,1,.74.46Z"/><path class="cls-9" d="M227,63.83a1.38,1.38,0,0,1-1-.38,1.46,1.46,0,0,1-.37-1.05V59.51H225a.27.27,0,0,1-.18-.07.26.26,0,0,1-.07-.2v-.49l.84-.14.26-1.41A.25.25,0,0,1,226,57a.31.31,0,0,1,.19-.06h.65v1.63h1.37v.89h-1.37v2.8a.54.54,0,0,0,.12.38.41.41,0,0,0,.32.14.62.62,0,0,0,.19,0l.14-.06.11-.06a.17.17,0,0,1,.09,0,.13.13,0,0,1,.09,0l.08.08.38.61a1.9,1.9,0,0,1-.63.34A2.36,2.36,0,0,1,227,63.83Z"/><path class="cls-9" d="M228.9,63.07a.81.81,0,0,1,.06-.3.78.78,0,0,1,.16-.24.83.83,0,0,1,.25-.16.77.77,0,0,1,.31-.06.76.76,0,0,1,.71.46.74.74,0,0,1,.06.3.75.75,0,0,1-.06.3.78.78,0,0,1-.16.24.7.7,0,0,1-.24.16.76.76,0,0,1-.3.06.77.77,0,0,1-.31-.06.76.76,0,0,1-.25-.16.8.8,0,0,1-.16-.24A.82.82,0,0,1,228.9,63.07Z"/><path class="cls-9" d="M231.18,63.07a.81.81,0,0,1,.06-.3.77.77,0,0,1,.16-.24.83.83,0,0,1,.25-.16.76.76,0,0,1,1,.4.74.74,0,0,1,.06.3.75.75,0,0,1-.06.3.78.78,0,0,1-.16.24.71.71,0,0,1-.24.16.82.82,0,0,1-.85-.16.78.78,0,0,1-.16-.24A.82.82,0,0,1,231.18,63.07Z"/><path class="cls-9" d="M233.46,63.07a.79.79,0,0,1,.06-.3.75.75,0,0,1,.16-.24.83.83,0,0,1,.25-.16.77.77,0,0,1,.3-.06.75.75,0,0,1,.3.06.75.75,0,0,1,.41.4.75.75,0,0,1,.06.3.77.77,0,0,1-.06.3.78.78,0,0,1-.16.24.71.71,0,0,1-.24.16.75.75,0,0,1-.3.06.77.77,0,0,1-.3-.06.71.71,0,0,1-.41-.39A.8.8,0,0,1,233.46,63.07Z"/><path class="cls-10" d="M77.12,72.4A22.49,22.49,0,1,1,54.63,50.06,22.41,22.41,0,0,1,77.12,72.4Z"/><path class="cls-11" d="M44.81,71.36a10.38,10.38,0,0,0,3,2.78S46.36,61,56.1,58.71c-2.49,9.53,3.17,12.22,5.24,7.18a8.22,8.22,0,0,1,.83,9c1.41.21,2.6-1.4,2.6-1.4,0,.2,0,.4,0,.6a10.17,10.17,0,1,1-20.31,0A11,11,0,0,1,44.81,71.36Z"/><path class="cls-12" d="M50.18,80a4.46,4.46,0,1,0,8.91,0,4.71,4.71,0,0,0-1.48-3.45c-1.72,2.44-4.18-1.26-2.26-4C55.34,72.6,50.18,73.27,50.18,80Z"/><path class="cls-11" d="M44.81,71.36a10.38,10.38,0,0,0,3,2.78S46.36,61,56.1,58.71c-2.49,9.53,3.17,12.22,5.24,7.18a8.22,8.22,0,0,1,.83,9c1.41.21,2.6-1.4,2.6-1.4,0,.2,0,.4,0,.6a10.17,10.17,0,1,1-20.31,0A11,11,0,0,1,44.81,71.36Z"/><path class="cls-12" d="M50.18,80a4.46,4.46,0,1,0,8.91,0,4.71,4.71,0,0,0-1.48-3.45c-1.72,2.44-4.18-1.26-2.26-4C55.34,72.6,50.18,73.27,50.18,80Z"/><path class="cls-13" d="M87.63,70.64a2.18,2.18,0,0,0,.64-.09,1.35,1.35,0,0,0,.47-.25,1,1,0,0,0,.29-.39,1.26,1.26,0,0,0,.1-.5,1,1,0,0,0-.37-.83,1.79,1.79,0,0,0-1.1-.28h-.92v2.34Zm2.88,3.19h-.75a.37.37,0,0,1-.34-.18L87.8,71.45a.45.45,0,0,0-.16-.15.55.55,0,0,0-.26,0h-.64v2.59H85.9V67.64h1.76a3.81,3.81,0,0,1,1,.12,1.91,1.91,0,0,1,.71.34,1.37,1.37,0,0,1,.42.54,1.89,1.89,0,0,1,0,1.32,1.62,1.62,0,0,1-.3.51,1.78,1.78,0,0,1-.48.38,2.37,2.37,0,0,1-.64.24.83.83,0,0,1,.28.26Z"/><path class="cls-13" d="M93.84,71.17a1.45,1.45,0,0,0-.08-.49,1,1,0,0,0-.22-.38.94.94,0,0,0-.35-.25,1.18,1.18,0,0,0-.47-.09,1.2,1.2,0,0,0-.88.32,1.5,1.5,0,0,0-.4.89Zm.63,2.05a1.51,1.51,0,0,1-.34.3,2.2,2.2,0,0,1-.43.21,2.55,2.55,0,0,1-.47.12,2.76,2.76,0,0,1-.48,0,2.3,2.3,0,0,1-.84-.15,1.91,1.91,0,0,1-.67-.45,2.1,2.1,0,0,1-.44-.73,3,3,0,0,1-.16-1,2.57,2.57,0,0,1,.14-.86,2,2,0,0,1,.41-.69,1.84,1.84,0,0,1,.65-.46,2.12,2.12,0,0,1,.86-.17,2,2,0,0,1,.73.13,1.6,1.6,0,0,1,.58.38,1.7,1.7,0,0,1,.39.61,2.31,2.31,0,0,1,.14.83.5.5,0,0,1,0,.24.16.16,0,0,1-.15.06H91.41a2.6,2.6,0,0,0,.11.72,1.5,1.5,0,0,0,.29.51,1.18,1.18,0,0,0,.44.31,1.53,1.53,0,0,0,.57.1,1.7,1.7,0,0,0,.5-.06,2.52,2.52,0,0,0,.37-.15l.25-.14a.34.34,0,0,1,.18-.07.17.17,0,0,1,.15.07Z"/><path class="cls-13" d="M98.56,70.24l-.07.07a.16.16,0,0,1-.1,0,.27.27,0,0,1-.14-.05l-.2-.12a1.39,1.39,0,0,0-.28-.12,1.28,1.28,0,0,0-.41-.06,1.34,1.34,0,0,0-.57.12,1.1,1.1,0,0,0-.42.33,1.54,1.54,0,0,0-.25.52,2.64,2.64,0,0,0-.08.69,2.52,2.52,0,0,0,.09.71,1.55,1.55,0,0,0,.26.52,1.17,1.17,0,0,0,.4.32,1.29,1.29,0,0,0,.54.11,1.41,1.41,0,0,0,.47-.06,1.38,1.38,0,0,0,.3-.15l.2-.15a.25.25,0,0,1,.16-.07.17.17,0,0,1,.15.07l.22.28a1.54,1.54,0,0,1-.33.3,2.08,2.08,0,0,1-.4.21,2.2,2.2,0,0,1-.44.12,2.82,2.82,0,0,1-.47,0,2,2,0,0,1-.77-.15,1.77,1.77,0,0,1-.61-.44,2.08,2.08,0,0,1-.41-.71,2.86,2.86,0,0,1-.15-1,2.91,2.91,0,0,1,.13-.9,2.07,2.07,0,0,1,.4-.71,1.83,1.83,0,0,1,.65-.47,2.21,2.21,0,0,1,.89-.17,2.06,2.06,0,0,1,.82.15,1.93,1.93,0,0,1,.63.42Z"/><path class="cls-13" d="M102.52,71.17a1.45,1.45,0,0,0-.08-.49,1,1,0,0,0-.22-.38.94.94,0,0,0-.35-.25,1.18,1.18,0,0,0-.47-.09,1.2,1.2,0,0,0-.88.32,1.5,1.5,0,0,0-.4.89Zm.63,2.05a1.51,1.51,0,0,1-.34.3,2.2,2.2,0,0,1-.43.21,2.55,2.55,0,0,1-.47.12,2.76,2.76,0,0,1-.48,0,2.3,2.3,0,0,1-.84-.15,1.91,1.91,0,0,1-.67-.45,2.1,2.1,0,0,1-.44-.73,3,3,0,0,1-.16-1,2.57,2.57,0,0,1,.14-.86,2,2,0,0,1,.41-.69,1.84,1.84,0,0,1,.65-.46,2.12,2.12,0,0,1,.86-.17,2,2,0,0,1,.73.13,1.6,1.6,0,0,1,.58.38,1.7,1.7,0,0,1,.39.61,2.31,2.31,0,0,1,.14.83.5.5,0,0,1,0,.24.16.16,0,0,1-.15.06h-2.95a2.6,2.6,0,0,0,.11.72,1.5,1.5,0,0,0,.29.51,1.18,1.18,0,0,0,.44.31,1.53,1.53,0,0,0,.57.1,1.7,1.7,0,0,0,.5-.06,2.51,2.51,0,0,0,.37-.15l.25-.14a.34.34,0,0,1,.18-.07.17.17,0,0,1,.15.07Z"/><path class="cls-13" d="M104.9,70.1a2.6,2.6,0,0,1,.3-.29,2,2,0,0,1,.34-.22,1.66,1.66,0,0,1,.38-.14,1.78,1.78,0,0,1,.44-.05,1.56,1.56,0,0,1,.64.12,1.18,1.18,0,0,1,.46.34,1.45,1.45,0,0,1,.28.52,2.27,2.27,0,0,1,.1.68v2.79h-.78V71.05a1.16,1.16,0,0,0-.23-.77.84.84,0,0,0-.69-.28,1.32,1.32,0,0,0-.64.16,2.13,2.13,0,0,0-.55.45v3.22h-.78V69.46h.47a.19.19,0,0,1,.2.16Z"/><path class="cls-13" d="M110.32,73.91a1.07,1.07,0,0,1-.81-.29,1.16,1.16,0,0,1-.28-.83V70.1h-.53a.18.18,0,0,1-.12,0,.17.17,0,0,1,0-.13v-.31l.72-.09.18-1.35a.18.18,0,0,1,.06-.1.17.17,0,0,1,.12,0H110v1.51h1.28v.56H110v2.63a.56.56,0,0,0,.14.41.47.47,0,0,0,.35.13.64.64,0,0,0,.21,0l.16-.07.11-.07.08,0a.13.13,0,0,1,.11.07l.23.37a1.47,1.47,0,0,1-.48.29A1.68,1.68,0,0,1,110.32,73.91Z"/><path class="cls-13" d="M112.89,67.47v6.37h-.77V67.47Z"/><path class="cls-13" d="M118,69.46l-2.46,5.67a.39.39,0,0,1-.1.14.26.26,0,0,1-.18.05h-.57l.81-1.74-1.82-4.12h.67a.22.22,0,0,1,.16.05.24.24,0,0,1,.08.11l1.18,2.76a3.07,3.07,0,0,1,.12.38q.06-.2.13-.38l1.14-2.75a.25.25,0,0,1,.23-.16Z"/><path class="cls-13" d="M123.22,70.18a.17.17,0,0,1-.16.1.3.3,0,0,1-.15,0l-.2-.1a1.57,1.57,0,0,0-.28-.11A1.31,1.31,0,0,0,122,70a1.12,1.12,0,0,0-.35.05.84.84,0,0,0-.27.13.63.63,0,0,0-.17.2.54.54,0,0,0-.06.25.42.42,0,0,0,.1.28.88.88,0,0,0,.26.19,2.4,2.4,0,0,0,.37.15l.42.13.42.16a1.53,1.53,0,0,1,.37.22,1,1,0,0,1,.26.32.94.94,0,0,1,.1.45,1.44,1.44,0,0,1-.11.56,1.25,1.25,0,0,1-.32.45,1.58,1.58,0,0,1-.52.29,2.16,2.16,0,0,1-.71.11,2.27,2.27,0,0,1-.84-.15,2.15,2.15,0,0,1-.64-.38l.18-.29a.27.27,0,0,1,.08-.09.22.22,0,0,1,.12,0,.29.29,0,0,1,.17.06l.21.13a1.68,1.68,0,0,0,.3.13,1.4,1.4,0,0,0,.44.06,1.26,1.26,0,0,0,.4-.06.86.86,0,0,0,.28-.16.6.6,0,0,0,.17-.23.68.68,0,0,0,.06-.28.44.44,0,0,0-.1-.3.76.76,0,0,0-.26-.2A1.9,1.9,0,0,0,122,72l-.42-.13-.42-.16a1.55,1.55,0,0,1-.37-.22,1,1,0,0,1-.26-.33,1.1,1.1,0,0,1-.1-.48,1.14,1.14,0,0,1,.1-.48,1.16,1.16,0,0,1,.3-.41,1.48,1.48,0,0,1,.49-.28,2,2,0,0,1,.67-.1,2.07,2.07,0,0,1,.78.14,1.82,1.82,0,0,1,.6.37Z"/><path class="cls-13" d="M125.23,69.46v4.38h-.77V69.46Zm.17-1.37a.48.48,0,0,1,0,.21.59.59,0,0,1-.12.17.55.55,0,0,1-.18.12.55.55,0,0,1-.43,0,.57.57,0,0,1-.17-.12.63.63,0,0,1-.12-.17.54.54,0,0,1,0-.42.58.58,0,0,1,.29-.3.55.55,0,0,1,.43,0,.58.58,0,0,1,.3.3A.48.48,0,0,1,125.4,68.09Z"/><path class="cls-13" d="M128,71.7a1.21,1.21,0,0,0,.41-.06.84.84,0,0,0,.3-.18.75.75,0,0,0,.18-.28,1,1,0,0,0,.06-.36.84.84,0,0,0-.25-.64,1,1,0,0,0-.71-.24,1,1,0,0,0-.72.24.85.85,0,0,0-.24.64,1,1,0,0,0,.06.36.79.79,0,0,0,.19.28.84.84,0,0,0,.3.18A1.21,1.21,0,0,0,128,71.7Zm1.4,2.38a.37.37,0,0,0-.09-.26.61.61,0,0,0-.25-.16,1.49,1.49,0,0,0-.36-.08l-.44,0-.46,0-.45,0a1.22,1.22,0,0,0-.4.29.57.57,0,0,0-.15.4.53.53,0,0,0,.07.27.64.64,0,0,0,.24.22,1.29,1.29,0,0,0,.39.15,2.48,2.48,0,0,0,.56.06,2.55,2.55,0,0,0,.56-.06,1.39,1.39,0,0,0,.42-.16.78.78,0,0,0,.27-.25A.57.57,0,0,0,129.44,74.08Zm.79-4.44v.29q0,.14-.18.18l-.5.06a1.35,1.35,0,0,1,.15.63,1.33,1.33,0,0,1-.13.58,1.31,1.31,0,0,1-.34.45,1.52,1.52,0,0,1-.52.29,2.12,2.12,0,0,1-.66.1,2.24,2.24,0,0,1-.58-.07.76.76,0,0,0-.21.19.31.31,0,0,0-.07.19.27.27,0,0,0,.13.24,1,1,0,0,0,.34.11,3.66,3.66,0,0,0,.47,0l.55,0a4.75,4.75,0,0,1,.55.06,1.67,1.67,0,0,1,.48.16.88.88,0,0,1,.34.3.85.85,0,0,1,.13.49,1.13,1.13,0,0,1-.14.54,1.43,1.43,0,0,1-.4.47,2,2,0,0,1-.65.33,2.78,2.78,0,0,1-.87.13,3.34,3.34,0,0,1-.84-.1,2,2,0,0,1-.6-.26,1.13,1.13,0,0,1-.36-.37.87.87,0,0,1-.12-.44.79.79,0,0,1,.2-.55,1.42,1.42,0,0,1,.56-.36.83.83,0,0,1-.31-.23.63.63,0,0,1-.11-.39.59.59,0,0,1,0-.19.8.8,0,0,1,.1-.2,1.12,1.12,0,0,1,.18-.19,1.15,1.15,0,0,1,.24-.16,1.36,1.36,0,0,1-.51-.48,1.33,1.33,0,0,1-.18-.7,1.34,1.34,0,0,1,.12-.58,1.28,1.28,0,0,1,.35-.45,1.57,1.57,0,0,1,.53-.29,2.19,2.19,0,0,1,.67-.1,2.11,2.11,0,0,1,.54.06,1.65,1.65,0,0,1,.45.18Z"/><path class="cls-13" d="M131.76,70.1a2.6,2.6,0,0,1,.3-.29,2,2,0,0,1,.34-.22,1.66,1.66,0,0,1,.38-.14,1.78,1.78,0,0,1,.44-.05,1.56,1.56,0,0,1,.64.12,1.18,1.18,0,0,1,.46.34,1.45,1.45,0,0,1,.28.52,2.27,2.27,0,0,1,.1.68v2.79h-.78V71.05a1.16,1.16,0,0,0-.23-.77A.84.84,0,0,0,133,70a1.32,1.32,0,0,0-.64.16,2.13,2.13,0,0,0-.55.45v3.22H131V69.46h.47a.19.19,0,0,1,.2.16Z"/><path class="cls-13" d="M138.84,71.17a1.45,1.45,0,0,0-.08-.49,1,1,0,0,0-.22-.38.94.94,0,0,0-.35-.25,1.18,1.18,0,0,0-.47-.09,1.2,1.2,0,0,0-.88.32,1.5,1.5,0,0,0-.4.89Zm.63,2.05a1.51,1.51,0,0,1-.34.3,2.2,2.2,0,0,1-.43.21,2.55,2.55,0,0,1-.47.12,2.76,2.76,0,0,1-.48,0,2.3,2.3,0,0,1-.84-.15,1.91,1.91,0,0,1-.67-.45,2.1,2.1,0,0,1-.44-.73,3,3,0,0,1-.16-1,2.57,2.57,0,0,1,.14-.86,2,2,0,0,1,.41-.69,1.84,1.84,0,0,1,.65-.46,2.12,2.12,0,0,1,.86-.17,2,2,0,0,1,.73.13,1.6,1.6,0,0,1,.58.38,1.7,1.7,0,0,1,.39.61,2.31,2.31,0,0,1,.14.83.5.5,0,0,1,0,.24.16.16,0,0,1-.15.06H136.4a2.6,2.6,0,0,0,.11.72,1.5,1.5,0,0,0,.29.51,1.18,1.18,0,0,0,.44.31,1.53,1.53,0,0,0,.57.1,1.7,1.7,0,0,0,.5-.06,2.51,2.51,0,0,0,.37-.15l.25-.14a.34.34,0,0,1,.18-.07.17.17,0,0,1,.15.07Z"/><path class="cls-13" d="M143.36,70.5a1.23,1.23,0,0,0-.47-.4,1.33,1.33,0,0,0-.57-.12,1.11,1.11,0,0,0-.94.44,2,2,0,0,0-.33,1.25,3.17,3.17,0,0,0,.07.73,1.43,1.43,0,0,0,.22.5.86.86,0,0,0,.35.29,1.18,1.18,0,0,0,.47.09,1.25,1.25,0,0,0,.67-.17,1.9,1.9,0,0,0,.53-.49Zm.77-3v6.37h-.46a.2.2,0,0,1-.21-.16l-.07-.53a2.4,2.4,0,0,1-.64.54,1.65,1.65,0,0,1-.84.21,1.62,1.62,0,0,1-.69-.14,1.44,1.44,0,0,1-.53-.43,2,2,0,0,1-.34-.7,3.58,3.58,0,0,1-.12-1,3,3,0,0,1,.13-.9,2.21,2.21,0,0,1,.37-.73,1.72,1.72,0,0,1,.6-.48,1.78,1.78,0,0,1,.8-.18,1.58,1.58,0,0,1,.69.14,1.64,1.64,0,0,1,.52.38V67.47Z"/><path class="cls-13" d="M151.21,69.46v4.38h-.46a.2.2,0,0,1-.21-.16l-.06-.47a2.46,2.46,0,0,1-.64.51,1.71,1.71,0,0,1-.82.19,1.64,1.64,0,0,1-.64-.12,1.29,1.29,0,0,1-.46-.34,1.45,1.45,0,0,1-.28-.52,2.37,2.37,0,0,1-.09-.68V69.46h.77v2.79a1.17,1.17,0,0,0,.23.77.87.87,0,0,0,.7.27,1.33,1.33,0,0,0,.64-.16,2.06,2.06,0,0,0,.55-.45V69.46Z"/><path class="cls-13" d="M153.22,72.78a1.25,1.25,0,0,0,.47.4,1.33,1.33,0,0,0,.57.12,1.12,1.12,0,0,0,.95-.44,2,2,0,0,0,.33-1.25,3,3,0,0,0-.08-.73,1.38,1.38,0,0,0-.22-.5.85.85,0,0,0-.35-.29,1.18,1.18,0,0,0-.47-.09,1.27,1.27,0,0,0-.67.17,1.92,1.92,0,0,0-.52.49Zm0-2.65a2.28,2.28,0,0,1,.64-.55,1.66,1.66,0,0,1,.84-.21,1.59,1.59,0,0,1,.69.15,1.39,1.39,0,0,1,.53.43,2,2,0,0,1,.34.7,3.58,3.58,0,0,1,.12,1,3,3,0,0,1-.13.9,2.17,2.17,0,0,1-.38.72,1.74,1.74,0,0,1-1.4.65,1.5,1.5,0,0,1-1.21-.51v1.94h-.78V69.46h.47a.19.19,0,0,1,.2.16Z"/><path class="cls-13" d="M159.83,73.84V70.12l-.49-.06a.43.43,0,0,1-.15-.06.17.17,0,0,1-.06-.13v-.32h.7v-.42a2,2,0,0,1,.1-.67,1.37,1.37,0,0,1,.3-.49,1.3,1.3,0,0,1,.48-.31,1.79,1.79,0,0,1,.63-.1,1.64,1.64,0,0,1,.54.09l0,.38a.11.11,0,0,1-.12.11h-.28a1.22,1.22,0,0,0-.37.05.69.69,0,0,0-.28.17.78.78,0,0,0-.18.31,1.56,1.56,0,0,0-.06.47v.4h1.27v.56h-1.24v3.74Z"/><path class="cls-13" d="M164.31,69.39a2.26,2.26,0,0,1,.87.16,1.87,1.87,0,0,1,.66.45,2,2,0,0,1,.42.71,3,3,0,0,1,0,1.86,2,2,0,0,1-.42.71,1.87,1.87,0,0,1-.66.45,2.32,2.32,0,0,1-.87.16,2.36,2.36,0,0,1-.88-.16,1.87,1.87,0,0,1-.66-.45,2,2,0,0,1-.42-.71,3.09,3.09,0,0,1,0-1.86,2,2,0,0,1,.42-.71,1.87,1.87,0,0,1,.66-.45A2.31,2.31,0,0,1,164.31,69.39Zm0,3.91a1.14,1.14,0,0,0,1-.43,2.46,2.46,0,0,0,0-2.43,1.13,1.13,0,0,0-1-.44,1.39,1.39,0,0,0-.58.11,1.09,1.09,0,0,0-.41.32,1.48,1.48,0,0,0-.24.52,2.82,2.82,0,0,0-.08.7,2,2,0,0,0,.32,1.21A1.16,1.16,0,0,0,164.31,73.3Z"/><path class="cls-13" d="M168.13,70.34a2,2,0,0,1,.51-.7,1.12,1.12,0,0,1,.74-.26,1.14,1.14,0,0,1,.27,0,.72.72,0,0,1,.23.1l-.06.57a.12.12,0,0,1-.13.11l-.18,0-.27,0a1.08,1.08,0,0,0-.37.06.88.88,0,0,0-.29.18,1.28,1.28,0,0,0-.23.29,2.55,2.55,0,0,0-.18.4v2.77h-.78V69.46h.44a.25.25,0,0,1,.17,0,.29.29,0,0,1,.07.16Z"/><path class="cls-13" d="M176.74,68.35h-2v5.49h-.84V68.35h-2v-.7h4.88Z"/><path class="cls-13" d="M177.26,70.34a2,2,0,0,1,.51-.7,1.12,1.12,0,0,1,.74-.26,1.14,1.14,0,0,1,.27,0,.72.72,0,0,1,.23.1l-.06.57a.12.12,0,0,1-.13.11l-.18,0-.27,0a1.08,1.08,0,0,0-.37.06.88.88,0,0,0-.29.18,1.28,1.28,0,0,0-.23.29,2.55,2.55,0,0,0-.18.4v2.77h-.78V69.46H177a.25.25,0,0,1,.17,0,.29.29,0,0,1,.07.16Z"/><path class="cls-13" d="M183.32,69.46v4.38h-.46a.2.2,0,0,1-.21-.16l-.06-.47a2.46,2.46,0,0,1-.64.51,1.71,1.71,0,0,1-.82.19,1.64,1.64,0,0,1-.64-.12,1.29,1.29,0,0,1-.46-.34,1.45,1.45,0,0,1-.28-.52,2.37,2.37,0,0,1-.09-.68V69.46h.77v2.79a1.17,1.17,0,0,0,.23.77.87.87,0,0,0,.7.27,1.33,1.33,0,0,0,.64-.16,2.06,2.06,0,0,0,.55-.45V69.46Z"/><path class="cls-13" d="M187.12,70.18a.17.17,0,0,1-.16.1.3.3,0,0,1-.15,0l-.21-.1a1.54,1.54,0,0,0-.28-.11,1.31,1.31,0,0,0-.39-.05,1.12,1.12,0,0,0-.35.05.84.84,0,0,0-.27.13.63.63,0,0,0-.17.2.54.54,0,0,0-.06.25.42.42,0,0,0,.1.28.88.88,0,0,0,.26.19,2.41,2.41,0,0,0,.37.15l.42.13.42.16a1.51,1.51,0,0,1,.37.22,1,1,0,0,1,.26.32.93.93,0,0,1,.1.45,1.43,1.43,0,0,1-.11.56,1.24,1.24,0,0,1-.32.45,1.57,1.57,0,0,1-.52.29,2.16,2.16,0,0,1-.71.11,2.27,2.27,0,0,1-.84-.15,2.16,2.16,0,0,1-.64-.38l.18-.29a.26.26,0,0,1,.08-.09.22.22,0,0,1,.12,0,.29.29,0,0,1,.17.06l.21.13a1.68,1.68,0,0,0,.3.13,1.4,1.4,0,0,0,.44.06,1.26,1.26,0,0,0,.4-.06.86.86,0,0,0,.28-.16.59.59,0,0,0,.16-.23.68.68,0,0,0,.06-.28.44.44,0,0,0-.1-.3.77.77,0,0,0-.26-.2,1.9,1.9,0,0,0-.37-.15l-.42-.13-.42-.16a1.55,1.55,0,0,1-.37-.22,1,1,0,0,1-.26-.33,1.1,1.1,0,0,1-.1-.48,1.14,1.14,0,0,1,.1-.48,1.16,1.16,0,0,1,.3-.41,1.48,1.48,0,0,1,.49-.28,2,2,0,0,1,.67-.1,2.07,2.07,0,0,1,.78.14,1.82,1.82,0,0,1,.6.37Z"/><path class="cls-13" d="M189.67,73.91a1.07,1.07,0,0,1-.81-.29,1.16,1.16,0,0,1-.28-.83V70.1h-.53a.18.18,0,0,1-.12,0,.17.17,0,0,1,0-.13v-.31l.72-.09.18-1.35a.19.19,0,0,1,.06-.1.18.18,0,0,1,.12,0h.39v1.51h1.28v.56h-1.28v2.63a.56.56,0,0,0,.14.41.47.47,0,0,0,.35.13.64.64,0,0,0,.21,0l.16-.07.11-.07.08,0a.13.13,0,0,1,.11.07l.23.37a1.46,1.46,0,0,1-.48.29A1.68,1.68,0,0,1,189.67,73.91Z"/><path class="cls-13" d="M194.93,71.54,194,69l-.09-.26c0-.1-.06-.21-.09-.32a4.66,4.66,0,0,1-.19.58l-1,2.52Zm1.76,2.3H196a.28.28,0,0,1-.18-.06.34.34,0,0,1-.11-.14l-.58-1.5h-2.8l-.58,1.5a.31.31,0,0,1-.1.14.28.28,0,0,1-.18.06h-.65l2.49-6.19h.85Z"/><path class="cls-13" d="M200.28,70.24l-.07.07a.16.16,0,0,1-.09,0,.27.27,0,0,1-.14-.05l-.2-.12a1.38,1.38,0,0,0-.28-.12,1.28,1.28,0,0,0-.41-.06,1.34,1.34,0,0,0-.57.12,1.11,1.11,0,0,0-.42.33,1.55,1.55,0,0,0-.25.52,2.65,2.65,0,0,0-.08.69,2.51,2.51,0,0,0,.09.71,1.54,1.54,0,0,0,.26.52,1.17,1.17,0,0,0,.4.32,1.29,1.29,0,0,0,.54.11,1.42,1.42,0,0,0,.47-.06,1.39,1.39,0,0,0,.3-.15l.2-.15a.25.25,0,0,1,.16-.07.17.17,0,0,1,.15.07l.22.28a1.55,1.55,0,0,1-.33.3,2,2,0,0,1-.4.21,2.2,2.2,0,0,1-.44.12,2.83,2.83,0,0,1-.47,0,2,2,0,0,1-.77-.15,1.77,1.77,0,0,1-.61-.44,2.08,2.08,0,0,1-.41-.71,2.85,2.85,0,0,1-.15-1,2.91,2.91,0,0,1,.13-.9,2.07,2.07,0,0,1,.4-.71,1.84,1.84,0,0,1,.65-.47,2.2,2.2,0,0,1,.89-.17,2.06,2.06,0,0,1,.82.15,1.94,1.94,0,0,1,.63.42Z"/><path class="cls-13" d="M205.46,73.84h-.78V70.1h-2.27v2.63a.56.56,0,0,0,.14.41.47.47,0,0,0,.35.13.64.64,0,0,0,.21,0l.16-.07.11-.07.08,0a.13.13,0,0,1,.11.07l.23.37a1.48,1.48,0,0,1-.48.29,1.68,1.68,0,0,1-.58.1,1.07,1.07,0,0,1-.81-.29,1.16,1.16,0,0,1-.28-.83V70.1h-.53a.18.18,0,0,1-.12,0,.17.17,0,0,1,0-.13v-.31l.72-.1.18-1.35a.19.19,0,0,1,.06-.1.17.17,0,0,1,.12,0h.39v1.51h3Zm.19-5.78a.48.48,0,0,1,0,.21.52.52,0,0,1-.12.17.55.55,0,0,1-.17.12.53.53,0,0,1-.21,0,.53.53,0,0,1-.21,0,.57.57,0,0,1-.17-.12.56.56,0,0,1-.12-.17.54.54,0,0,1,0-.42.58.58,0,0,1,.29-.3.53.53,0,0,1,.21,0,.53.53,0,0,1,.21,0,.52.52,0,0,1,.17.12.5.5,0,0,1,.12.18A.48.48,0,0,1,205.65,68.06Z"/><path class="cls-13" d="M210.51,69.46l-1.8,4.38H208l-1.8-4.38h.63a.25.25,0,0,1,.16,0,.24.24,0,0,1,.08.11l1.12,2.82c0,.11.07.21.09.31l.07.3.07-.3c0-.1.06-.2.1-.31l1.13-2.82a.25.25,0,0,1,.09-.11.23.23,0,0,1,.14,0Z"/><path class="cls-13" d="M212,69.46v4.38h-.78V69.46Zm.17-1.37a.48.48,0,0,1,0,.21.59.59,0,0,1-.12.17.55.55,0,0,1-.18.12.53.53,0,0,1-.21,0,.53.53,0,0,1-.21,0,.57.57,0,0,1-.17-.12.62.62,0,0,1-.12-.17.54.54,0,0,1,0-.42.58.58,0,0,1,.29-.3.53.53,0,0,1,.21,0,.53.53,0,0,1,.21,0,.52.52,0,0,1,.18.12.51.51,0,0,1,.12.18A.48.48,0,0,1,212.21,68.09Z"/><path class="cls-13" d="M214.67,73.91a1.07,1.07,0,0,1-.81-.29,1.16,1.16,0,0,1-.28-.83V70.1h-.53a.18.18,0,0,1-.12,0,.17.17,0,0,1,0-.13v-.31l.72-.09.18-1.35a.18.18,0,0,1,.06-.1.18.18,0,0,1,.12,0h.39v1.51h1.27v.56h-1.27v2.63a.56.56,0,0,0,.13.41.47.47,0,0,0,.35.13.64.64,0,0,0,.21,0l.16-.07.11-.07.08,0a.13.13,0,0,1,.11.07l.23.37a1.46,1.46,0,0,1-.48.29A1.68,1.68,0,0,1,214.67,73.91Z"/><path class="cls-13" d="M220.24,69.46l-2.46,5.67a.38.38,0,0,1-.1.14.26.26,0,0,1-.18.05h-.57l.81-1.74-1.82-4.12h.67a.22.22,0,0,1,.16.05.24.24,0,0,1,.08.11L218,72.38a3,3,0,0,1,.12.38c0-.14.08-.26.13-.38l1.14-2.75a.25.25,0,0,1,.09-.11.24.24,0,0,1,.14,0Z"/><path class="cls-13" d="M89,88.3a.25.25,0,0,1,.18.07.24.24,0,0,1,.07.17V89H85.48v-.24a.41.41,0,0,1,0-.15.44.44,0,0,1,.1-.15l1.83-1.83.41-.44a3.18,3.18,0,0,0,.32-.43,2,2,0,0,0,.2-.43,1.52,1.52,0,0,0,.07-.47,1.1,1.1,0,0,0-.08-.44.84.84,0,0,0-.22-.31.86.86,0,0,0-.32-.18,1.25,1.25,0,0,0-.4-.06,1.23,1.23,0,0,0-.4.06,1.09,1.09,0,0,0-.33.18,1,1,0,0,0-.24.27,1.07,1.07,0,0,0-.14.34.32.32,0,0,1-.13.19.38.38,0,0,1-.23,0l-.37-.06a2.06,2.06,0,0,1,.22-.69,1.7,1.7,0,0,1,.41-.5,1.73,1.73,0,0,1,.56-.31,2.22,2.22,0,0,1,1.36,0,1.57,1.57,0,0,1,.55.31,1.42,1.42,0,0,1,.36.5,1.61,1.61,0,0,1,.13.67,1.77,1.77,0,0,1-.1.59,2.34,2.34,0,0,1-.26.52,3.89,3.89,0,0,1-.38.48l-.45.47L86.49,88.4l.32-.07.32,0Z"/><path class="cls-13" d="M92.33,89V85h.43a.18.18,0,0,1,.19.15l.05.41a2.05,2.05,0,0,1,.5-.45,1.2,1.2,0,0,1,.65-.17,1,1,0,0,1,.66.23,1.26,1.26,0,0,1,.37.61,1.35,1.35,0,0,1,.22-.38,1.31,1.31,0,0,1,.67-.41,1.67,1.67,0,0,1,.4,0A1.46,1.46,0,0,1,97,85a1.09,1.09,0,0,1,.42.29,1.3,1.3,0,0,1,.27.48,2.08,2.08,0,0,1,.09.65V89H97.1V86.41a1.07,1.07,0,0,0-.21-.71.74.74,0,0,0-.6-.25.9.9,0,0,0-.34.06.78.78,0,0,0-.28.18.86.86,0,0,0-.19.3,1.17,1.17,0,0,0-.07.42V89h-.71V86.41a1.12,1.12,0,0,0-.2-.72.7.7,0,0,0-.57-.24.89.89,0,0,0-.49.14A1.58,1.58,0,0,0,93,86v3Z"/><path class="cls-13" d="M99.65,85v4h-.71V85Zm.15-1.26a.44.44,0,0,1,0,.19.54.54,0,0,1-.11.16.5.5,0,0,1-.16.11.5.5,0,0,1-.39,0,.53.53,0,0,1-.16-.11.58.58,0,0,1-.11-.16.49.49,0,0,1,0-.39.53.53,0,0,1,.26-.27.5.5,0,0,1,.39,0,.53.53,0,0,1,.28.27A.44.44,0,0,1,99.8,83.7Z"/><path class="cls-13" d="M101.48,85.54a2.39,2.39,0,0,1,.28-.27,1.79,1.79,0,0,1,.31-.2,1.52,1.52,0,0,1,.35-.13,1.64,1.64,0,0,1,.4,0,1.43,1.43,0,0,1,.58.11,1.08,1.08,0,0,1,.42.31,1.32,1.32,0,0,1,.26.48,2.08,2.08,0,0,1,.09.62V89h-.71V86.41a1.06,1.06,0,0,0-.21-.71.77.77,0,0,0-.63-.25,1.21,1.21,0,0,0-.59.15,2,2,0,0,0-.5.41v3h-.71V85h.43a.17.17,0,0,1,.19.15Z"/><path class="cls-13" d="M108.59,85v4h-.42a.18.18,0,0,1-.19-.15l-.06-.43a2.26,2.26,0,0,1-.59.47,1.57,1.57,0,0,1-.75.17,1.51,1.51,0,0,1-.59-.11,1.18,1.18,0,0,1-.42-.31,1.33,1.33,0,0,1-.26-.48,2.18,2.18,0,0,1-.08-.62V85h.71v2.56a1.07,1.07,0,0,0,.21.71.8.8,0,0,0,.64.25,1.21,1.21,0,0,0,.59-.15,1.89,1.89,0,0,0,.51-.41V85Z"/><path class="cls-13" d="M111,89a1,1,0,0,1-.74-.27A1.06,1.06,0,0,1,110,88V85.55h-.49a.17.17,0,0,1-.11,0,.15.15,0,0,1,0-.12v-.28L110,85l.16-1.24a.17.17,0,0,1,.05-.1.16.16,0,0,1,.11,0h.36V85h1.17v.51h-1.17V88a.51.51,0,0,0,.12.38.43.43,0,0,0,.32.12.59.59,0,0,0,.19,0l.14-.07.1-.06.08,0a.12.12,0,0,1,.1.07l.21.34a1.35,1.35,0,0,1-.44.27A1.54,1.54,0,0,1,111,89Z"/><path class="cls-13" d="M115.26,86.52a1.33,1.33,0,0,0-.07-.45,1,1,0,0,0-.2-.35.86.86,0,0,0-.32-.23,1.08,1.08,0,0,0-.43-.08,1.1,1.1,0,0,0-.81.3,1.38,1.38,0,0,0-.37.82Zm.57,1.88a1.38,1.38,0,0,1-.32.28,2,2,0,0,1-.4.19,2.34,2.34,0,0,1-.43.11,2.53,2.53,0,0,1-.44,0,2.11,2.11,0,0,1-.77-.14,1.75,1.75,0,0,1-.61-.41,1.92,1.92,0,0,1-.4-.67,2.72,2.72,0,0,1-.14-.92,2.36,2.36,0,0,1,.13-.78,1.85,1.85,0,0,1,.38-.63,1.68,1.68,0,0,1,.59-.42,1.94,1.94,0,0,1,.79-.15,1.79,1.79,0,0,1,.67.12,1.46,1.46,0,0,1,.53.35,1.56,1.56,0,0,1,.36.56,2.11,2.11,0,0,1,.13.76.46.46,0,0,1,0,.22.15.15,0,0,1-.14.06H113a2.38,2.38,0,0,0,.1.66,1.37,1.37,0,0,0,.26.47,1.08,1.08,0,0,0,.4.28,1.41,1.41,0,0,0,.52.09,1.56,1.56,0,0,0,.46-.06,2.31,2.31,0,0,0,.34-.13l.23-.13a.31.31,0,0,1,.16-.06.16.16,0,0,1,.14.07Z"/><path class="cls-13" d="M119.12,85.62a.16.16,0,0,1-.15.09.28.28,0,0,1-.14,0l-.19-.1-.26-.1a1.21,1.21,0,0,0-.36,0,1,1,0,0,0-.32,0,.77.77,0,0,0-.25.12.58.58,0,0,0-.16.19.49.49,0,0,0-.05.23.38.38,0,0,0,.09.26.81.81,0,0,0,.24.18,2.21,2.21,0,0,0,.34.13l.38.12.39.14a1.4,1.4,0,0,1,.34.2.88.88,0,0,1,.24.29.86.86,0,0,1,.09.41,1.32,1.32,0,0,1-.1.52,1.14,1.14,0,0,1-.3.41,1.45,1.45,0,0,1-.48.27,2,2,0,0,1-.65.1,2.08,2.08,0,0,1-.77-.13,2,2,0,0,1-.58-.35l.17-.27a.24.24,0,0,1,.08-.08.21.21,0,0,1,.11,0,.27.27,0,0,1,.15.06l.19.12a1.54,1.54,0,0,0,.28.12,1.28,1.28,0,0,0,.41.06,1.16,1.16,0,0,0,.36-.05.79.79,0,0,0,.26-.15.55.55,0,0,0,.15-.21.63.63,0,0,0,.05-.25.41.41,0,0,0-.09-.27.7.7,0,0,0-.24-.19,1.74,1.74,0,0,0-.34-.13l-.39-.12-.39-.14a1.42,1.42,0,0,1-.34-.21,1,1,0,0,1-.24-.3,1,1,0,0,1-.09-.44,1,1,0,0,1,.1-.44,1.06,1.06,0,0,1,.28-.37,1.36,1.36,0,0,1,.45-.26,1.82,1.82,0,0,1,.61-.1,1.9,1.9,0,0,1,.71.13,1.66,1.66,0,0,1,.55.34Z"/><path class="cls-13" d="M124.45,87.16a5.79,5.79,0,0,0-.84.08,2.37,2.37,0,0,0-.56.16.79.79,0,0,0-.32.23.51.51,0,0,0-.1.3.66.66,0,0,0,.05.27.54.54,0,0,0,.14.19.64.64,0,0,0,.21.11,1.06,1.06,0,0,0,.26,0,1.54,1.54,0,0,0,.34,0,1.33,1.33,0,0,0,.29-.11,1.54,1.54,0,0,0,.26-.17,2.18,2.18,0,0,0,.25-.23Zm-2.29-1.64a2.31,2.31,0,0,1,.72-.48,2.24,2.24,0,0,1,.86-.16,1.54,1.54,0,0,1,.6.11,1.24,1.24,0,0,1,.44.31,1.31,1.31,0,0,1,.27.48,2,2,0,0,1,.09.62V89h-.32a.33.33,0,0,1-.16,0,.24.24,0,0,1-.09-.13l-.08-.38-.31.26a2,2,0,0,1-.32.19,1.73,1.73,0,0,1-.36.11,1.85,1.85,0,0,1-.42,0,1.51,1.51,0,0,1-.44-.06,1.07,1.07,0,0,1-.36-.2,1,1,0,0,1-.24-.33A1.19,1.19,0,0,1,122,88a.87.87,0,0,1,.13-.46,1.14,1.14,0,0,1,.43-.39,2.77,2.77,0,0,1,.77-.28,5.8,5.8,0,0,1,1.17-.13V86.4a1.06,1.06,0,0,0-.2-.71.73.73,0,0,0-.59-.24,1.27,1.27,0,0,0-.44.07,1.58,1.58,0,0,0-.31.15l-.22.15a.32.32,0,0,1-.18.06.21.21,0,0,1-.12,0,.38.38,0,0,1-.09-.1Z"/><path class="cls-13" d="M127.64,87a1.11,1.11,0,0,0,.38-.06.77.77,0,0,0,.28-.17.68.68,0,0,0,.17-.25.94.94,0,0,0,.06-.33.77.77,0,0,0-.23-.59.89.89,0,0,0-.65-.22.92.92,0,0,0-.66.22.78.78,0,0,0-.22.59.94.94,0,0,0,.06.33.73.73,0,0,0,.17.25.77.77,0,0,0,.28.17A1.11,1.11,0,0,0,127.64,87Zm1.28,2.18a.34.34,0,0,0-.08-.24.56.56,0,0,0-.23-.14,1.36,1.36,0,0,0-.33-.07l-.4,0-.42,0-.41,0a1.12,1.12,0,0,0-.37.26.53.53,0,0,0-.14.36.48.48,0,0,0,.07.25.59.59,0,0,0,.22.2,1.18,1.18,0,0,0,.36.13,2.27,2.27,0,0,0,.51.05,2.34,2.34,0,0,0,.51-.05,1.27,1.27,0,0,0,.38-.15.72.72,0,0,0,.24-.23A.53.53,0,0,0,128.92,89.19Zm.72-4.07v.26q0,.13-.17.17l-.46.06a1.24,1.24,0,0,1,.14.58,1.22,1.22,0,0,1-.12.53,1.2,1.2,0,0,1-.31.41,1.39,1.39,0,0,1-.48.26,1.94,1.94,0,0,1-.61.09,2.06,2.06,0,0,1-.53-.07.7.7,0,0,0-.2.17.29.29,0,0,0-.07.18A.24.24,0,0,0,127,88a.89.89,0,0,0,.31.1l.43,0,.5,0,.5.06a1.53,1.53,0,0,1,.44.14.81.81,0,0,1,.31.27.78.78,0,0,1,.12.45,1,1,0,0,1-.13.5,1.31,1.31,0,0,1-.37.43,1.87,1.87,0,0,1-.6.3,2.55,2.55,0,0,1-.79.11,3.06,3.06,0,0,1-.77-.09,1.82,1.82,0,0,1-.55-.23,1,1,0,0,1-.33-.34.8.8,0,0,1-.11-.4.72.72,0,0,1,.19-.5,1.3,1.3,0,0,1,.51-.33.76.76,0,0,1-.29-.21.58.58,0,0,1-.1-.36.54.54,0,0,1,0-.18.73.73,0,0,1,.1-.19,1,1,0,0,1,.16-.18,1,1,0,0,1,.22-.15,1.24,1.24,0,0,1-.47-.44,1.22,1.22,0,0,1-.17-.64,1.23,1.23,0,0,1,.11-.53,1.18,1.18,0,0,1,.32-.41A1.44,1.44,0,0,1,127,85a2,2,0,0,1,.62-.09,1.94,1.94,0,0,1,.49.06,1.52,1.52,0,0,1,.42.17Z"/><path class="cls-13" d="M132,84.89a2.07,2.07,0,0,1,.8.15,1.71,1.71,0,0,1,.61.42,1.8,1.8,0,0,1,.38.65,2.75,2.75,0,0,1,0,1.71,1.8,1.8,0,0,1-.38.65,1.71,1.71,0,0,1-.61.42,2.12,2.12,0,0,1-.8.14,2.17,2.17,0,0,1-.81-.14,1.71,1.71,0,0,1-.61-.42,1.85,1.85,0,0,1-.39-.65,2.83,2.83,0,0,1,0-1.71,1.84,1.84,0,0,1,.39-.65,1.71,1.71,0,0,1,.61-.42A2.12,2.12,0,0,1,132,84.89Zm0,3.58a1,1,0,0,0,.89-.4,2.25,2.25,0,0,0,0-2.23,1,1,0,0,0-.89-.4,1.28,1.28,0,0,0-.53.1,1,1,0,0,0-.38.3,1.36,1.36,0,0,0-.22.48,2.59,2.59,0,0,0-.07.64,1.84,1.84,0,0,0,.3,1.11A1.06,1.06,0,0,0,132,88.47Z"/><path class="cls-14" d="M174.06,83.38a.7.7,0,0,0-.93,0l-3,2.77-1.28-1.21a.7.7,0,0,0-.93,0l-.86,1,2.61,2.53a.7.7,0,0,0,.93,0l.52-.49.05-.05,3.87-3.55Z"/><path class="cls-1" d="M173.23,83.49l-3.07,2.86L168.77,85h0a.56.56,0,0,0-.73,0l-.76.86,2.51,2.43a.56.56,0,0,0,.73,0l.52-.49,0,0h0l3.77-3.45-.9-.86h0A.56.56,0,0,0,173.23,83.49Zm.83-.11a.7.7,0,0,0-.93,0l-3,2.77-1.28-1.21a.7.7,0,0,0-.93,0l-.86,1,2.61,2.53a.7.7,0,0,0,.93,0l.52-.49.05-.05,3.87-3.55Z"/><path class="cls-15" d="M178.44,87.35a1,1,0,0,0,.38.32,1.08,1.08,0,0,0,.44.09.89.89,0,0,0,.76-.35,1.72,1.72,0,0,0,.27-1.06,1.55,1.55,0,0,0-.24-1,.79.79,0,0,0-.67-.31,1,1,0,0,0-.53.14,1.56,1.56,0,0,0-.41.39Zm0-2.26a1.91,1.91,0,0,1,.52-.41,1.38,1.38,0,0,1,.66-.15,1.3,1.3,0,0,1,.58.13,1.2,1.2,0,0,1,.44.36,1.66,1.66,0,0,1,.28.56,2.64,2.64,0,0,1,.1.75,2.72,2.72,0,0,1-.11.81,1.83,1.83,0,0,1-.32.62,1.42,1.42,0,0,1-.5.4,1.51,1.51,0,0,1-.66.14,1.39,1.39,0,0,1-.33,0,1.07,1.07,0,0,1-.5-.26,1.69,1.69,0,0,1-.2-.21l0,.31a.17.17,0,0,1-.18.15h-.46V82.93h.71Z"/><path class="cls-15" d="M184.93,84.59l-2,4.72a.3.3,0,0,1-.09.12.25.25,0,0,1-.16,0h-.53l.67-1.46-1.51-3.43h.62a.21.21,0,0,1,.14,0,.25.25,0,0,1,.07.1l.94,2.2.05.17a1.42,1.42,0,0,1,0,.17l.05-.17.06-.17.9-2.19a.23.23,0,0,1,.08-.1.2.2,0,0,1,.12,0Z"/><path class="cls-14" d="M189.3,88.25V84h-1.61v-.82h4.12V84H190.2v4.22Z"/><path class="cls-14" d="M192.13,88.25v-3.8H193v.86a1.32,1.32,0,0,1,1.36-.93v.92h-.05a1.22,1.22,0,0,0-1,.39A1.58,1.58,0,0,0,193,86.8v1.45Z"/><path class="cls-14" d="M196.45,88.33a1.29,1.29,0,0,1-1-.4,1.52,1.52,0,0,1-.36-1.07V84.44H196v2.16a1,1,0,0,0,.21.69.78.78,0,0,0,.61.24.82.82,0,0,0,.62-.25,1,1,0,0,0,.24-.69V84.44h.88v3.8h-.88v-.59A1.39,1.39,0,0,1,196.45,88.33Z"/><path class="cls-14" d="M200.94,88.32a2.57,2.57,0,0,1-1.63-.57l.39-.59a2.08,2.08,0,0,0,1.26.47.75.75,0,0,0,.44-.11.37.37,0,0,0,.16-.32.27.27,0,0,0-.06-.17.44.44,0,0,0-.19-.14l-.23-.09-.31-.09-.07,0-.35-.11-.31-.15a1.22,1.22,0,0,1-.28-.2,1,1,0,0,1-.18-.29,1,1,0,0,1-.07-.39,1,1,0,0,1,.38-.84,1.51,1.51,0,0,1,1-.32,2.52,2.52,0,0,1,1.41.43l-.35.62a2.13,2.13,0,0,0-1.08-.36.65.65,0,0,0-.4.11.35.35,0,0,0-.14.29.29.29,0,0,0,.12.22,1.1,1.1,0,0,0,.25.15l.41.14h.07l.43.16a2,2,0,0,1,.36.2.87.87,0,0,1,.3.32.91.91,0,0,1,.1.44,1.06,1.06,0,0,1-.4.89A1.62,1.62,0,0,1,200.94,88.32Z"/><path class="cls-14" d="M204.47,88.31a1,1,0,0,1-1.1-1.12v-2h-.49v-.75h.49v-1h.88v1h1v.75h-1v1.87a.42.42,0,0,0,.47.48,1.21,1.21,0,0,0,.54-.13v.71A1.59,1.59,0,0,1,204.47,88.31Z"/><path class="cls-14" d="M208,88.25l2.23-5.08h.83l2.23,5.08h-.94L211.84,87h-2.4l-.52,1.22Zm1.76-2h1.75l-.88-2Z"/><path class="cls-14" d="M215.65,88.34a1.9,1.9,0,0,1-1.41-.58,2,2,0,0,1,1.42-3.39,2,2,0,0,1,1.53.66l-.54.58a1.36,1.36,0,0,0-1-.48,1,1,0,0,0-.79.36,1.35,1.35,0,0,0,0,1.74,1.08,1.08,0,0,0,.83.35,1.38,1.38,0,0,0,1-.48l.53.52a2.35,2.35,0,0,1-.68.53A2,2,0,0,1,215.65,88.34Z"/><path class="cls-14" d="M219.31,88.31a1,1,0,0,1-1.1-1.12v-2h-.49v-.75h.49v-1h.88v1h1v.75h-1v1.87a.42.42,0,0,0,.47.48,1.21,1.21,0,0,0,.54-.13v.71A1.59,1.59,0,0,1,219.31,88.31Z"/><path class="cls-14" d="M221,83.86V83H222v.83Zm0,4.39v-3.8h.88v3.8Z"/><path class="cls-14" d="M224.29,88.28l-1.57-3.83h.94l1,2.8,1-2.8h.92l-1.57,3.83Z"/><path class="cls-14" d="M227.41,83.86V83h.94v.83Zm0,4.39v-3.8h.88v3.8Z"/><path class="cls-14" d="M230.75,88.31a1,1,0,0,1-1.1-1.12v-2h-.49v-.75h.49v-1h.88v1h1v.75h-1v1.87a.42.42,0,0,0,.47.48,1.21,1.21,0,0,0,.54-.13v.71A1.59,1.59,0,0,1,230.75,88.31Z"/><path class="cls-14" d="M233.23,89.42a1.88,1.88,0,0,1-.91-.23l.3-.65a1.09,1.09,0,0,0,.52.14.48.48,0,0,0,.31-.1.86.86,0,0,0,.23-.34l-1.6-3.8H233l1.09,2.82,1-2.82H236l-1.52,3.91a2.06,2.06,0,0,1-.52.82A1.1,1.1,0,0,1,233.23,89.42Z"/><path class="cls-16" d="M144.19,306.68a93.55,93.55,0,1,0-93.68-93.55A93.61,93.61,0,0,0,144.19,306.68Z"/><path class="cls-17" d="M190.29,144.75a5.86,5.86,0,0,0-1.77.3,9.85,9.85,0,0,0-16.2,0,5.85,5.85,0,0,0-7.69,5.61h31.58A5.92,5.92,0,0,0,190.29,144.75Z"/><path class="cls-17" d="M161.49,171.72a4.73,4.73,0,0,0-1.43.24A7.94,7.94,0,0,0,147,172a4.71,4.71,0,0,0-6.2,4.52h25.45A4.77,4.77,0,0,0,161.49,171.72Z"/><path class="cls-17" d="M107.25,151.8a10.46,10.46,0,0,1,13.12-10.22,15.07,15.07,0,0,1,26.16,10.22H107.25Z"/><path class="cls-17" d="M129.34,157.12a8,8,0,0,1,7.91-8,7.73,7.73,0,0,1,1.9.26,11.15,11.15,0,0,1,8.27-3.71,11.39,11.39,0,0,1,11.3,11.49Z"/><path class="cls-17" d="M124.05,170.39a4,4,0,0,1,4-4,3.87,3.87,0,0,1,1,.13,5.57,5.57,0,0,1,4.13-1.85,5.7,5.7,0,0,1,5.65,5.74H124.05Z"/><path class="cls-17" d="M237.86,213.13a93.55,93.55,0,0,0-2.71-22.36l-1.07-.65c-34.52,0-66.36,23-107,23-33.09,0,57,3.77,110.65,4.07C237.82,215.85,237.86,214.49,237.86,213.13Z"/><path class="cls-17" d="M50.86,213.13a93.58,93.58,0,0,1,2.71-22.36l1.07-.65c34.52,0,36.74,23,77.35,23,33.09,0-27.36,3.77-81,4.07C50.9,215.85,50.86,214.49,50.86,213.13Z"/><path class="cls-18" d="M112,216.09a1.25,1.25,0,0,1-1.25-1.25V201.41a1.25,1.25,0,0,1,2.5,0v13.43A1.25,1.25,0,0,1,112,216.09Z"/><path class="cls-18" d="M120.87,197.93c0,6.79-4,10.2-8.86,10.2s-8.86-3.41-8.86-10.2,5.43-33.28,8.86-33.28S120.87,191.14,120.87,197.93Z"/><path class="cls-19" d="M112,164.65c-.68,0-1.44,1.05-2.22,2.77,2.8,4.24,6.43,25.17,6.43,31s-2.53,8.88-5.89,9.58a9.83,9.83,0,0,0,1.68.15c4.89,0,8.86-3.41,8.86-10.2S115.44,164.65,112,164.65Z"/><path class="cls-17" d="M144.19,306.68a93.61,93.61,0,0,0,93.68-93.55H50.51A93.61,93.61,0,0,0,144.19,306.68Z"/><path class="cls-20" d="M66.36,226.06c-23.91,3.39,49.08,17.1,49.08,17.1s107.08,10.05,110.23,10.05a25.57,25.57,0,0,1,3,.4A92.81,92.81,0,0,0,237.34,223C191.51,232.13,140.53,215.56,66.36,226.06Z"/><path class="cls-21" d="M144.18,306.68a93.68,93.68,0,0,0,89.9-67.25c-73.15-.32-115.92-20.32-182.48-11.92A93.66,93.66,0,0,0,144.18,306.68Z"/><path class="cls-22" d="M55.93,244.53a93.77,93.77,0,0,0,33.56,44.53l124-13a93.63,93.63,0,0,0,16.58-25.58C174.53,249.13,96.46,239.71,55.93,244.53Z"/><path class="cls-23" d="M144.18,306.68a93.66,93.66,0,0,0,84.63-53.46c-56.31,0-111.44,0-159.65,15.94A93.57,93.57,0,0,0,144.18,306.68Z"/><path class="cls-18" d="M182.24,221a1.82,1.82,0,0,1-1.82-1.82V199.6a1.82,1.82,0,0,1,3.64,0v19.57A1.82,1.82,0,0,1,182.24,221Z"/><path class="cls-18" d="M195.15,194.52c0,9.89-5.78,14.86-12.91,14.86s-12.91-5-12.91-14.86S177.24,146,182.24,146,195.15,184.63,195.15,194.52Z"/><path class="cls-19" d="M182.24,146c-1,0-2.1,1.53-3.23,4,4.08,6.17,9.36,36.66,9.36,45.13,0,8.27-3.68,12.93-8.58,14a14.36,14.36,0,0,0,2.45.22c7.13,0,12.91-5,12.91-14.86S187.24,146,182.24,146Z"/><path class="cls-18" d="M91.49,217.31a1.6,1.6,0,0,1-1.61-1.6V198.46a1.61,1.61,0,0,1,3.21,0v17.25A1.6,1.6,0,0,1,91.49,217.31Z"/><path class="cls-18" d="M102.87,194c0,8.72-5.1,13.1-11.38,13.1S80.11,202.71,80.11,194s7-42.74,11.38-42.74S102.87,185.26,102.87,194Z"/><path class="cls-19" d="M91.49,151.25c-.87,0-1.85,1.35-2.85,3.56,3.6,5.44,8.25,32.32,8.25,39.78,0,7.29-3.25,11.4-7.56,12.3a12.63,12.63,0,0,0,2.16.19c6.29,0,11.38-4.38,11.38-13.1S95.9,151.25,91.49,151.25Z"/><path class="cls-17" d="M218.91,156.72h-.06a10.8,10.8,0,0,0-8.88,4.65,6.41,6.41,0,0,0-8.43,6.15H226A93.6,93.6,0,0,0,218.91,156.72Z"/><path class="cls-24" d="M45.62,356.34a5.74,5.74,0,0,1,5.74-5.73H237.83a5.74,5.74,0,0,1,5.74,5.73h0a5.74,5.74,0,0,1-5.74,5.73H51.36a5.74,5.74,0,0,1-5.74-5.73Z"/><path class="cls-24" d="M46,378.28a5.74,5.74,0,0,1,5.75-5.73l186.47.27a5.74,5.74,0,0,1,5.73,5.74h0a5.74,5.74,0,0,1-5.75,5.73L51.74,384A5.74,5.74,0,0,1,46,378.28Z"/><path class="cls-24" d="M45.62,418.12A8.14,8.14,0,0,1,53.76,410h74.13a8.14,8.14,0,0,1,8.15,8.13v37.42a8.14,8.14,0,0,1-8.15,8.13H53.76a8.14,8.14,0,0,1-8.15-8.13Z"/><path class="cls-24" d="M154.77,418.12a8.14,8.14,0,0,1,8.15-8.13h72.5a8.14,8.14,0,0,1,8.15,8.13v37.42a8.14,8.14,0,0,1-8.15,8.13h-72.5a8.14,8.14,0,0,1-8.15-8.13Z"/><path class="cls-24" d="M45.62,488.89a8.14,8.14,0,0,1,8.15-8.13H235.42a8.14,8.14,0,0,1,8.15,8.13v37.42a8.14,8.14,0,0,1-8.15,8.13H53.76a8.14,8.14,0,0,1-8.15-8.13Z"/><path class="cls-24" d="M45.62,418.12A8.14,8.14,0,0,1,53.76,410h74.13a8.14,8.14,0,0,1,8.15,8.13v37.42a8.14,8.14,0,0,1-8.15,8.13H53.76a8.14,8.14,0,0,1-8.15-8.13Z"/><path class="cls-24" d="M154.77,418.12a8.14,8.14,0,0,1,8.15-8.13h72.5a8.14,8.14,0,0,1,8.15,8.13v37.42a8.14,8.14,0,0,1-8.15,8.13h-72.5a8.14,8.14,0,0,1-8.15-8.13Z"/><path class="cls-24" d="M45.62,488.89a8.14,8.14,0,0,1,8.15-8.13H235.42a8.14,8.14,0,0,1,8.15,8.13v37.42a8.14,8.14,0,0,1-8.15,8.13H53.76a8.14,8.14,0,0,1-8.15-8.13Z"/><rect class="cls-25" x="15" y="208" width="258" height="354"/></g></svg>