<svg width="356" height="713" viewBox="0 0 356 713" fill="none" xmlns="http://www.w3.org/2000/svg">
<path d="M58.9241 0H297.076C329.607 0 356 26.3847 356 58.9053V654.095C356 686.615 329.607 713 297.076 713H58.9241C26.3931 713 0 686.615 0 654.095V58.9053C0 26.3847 26.3931 0 58.9241 0Z" fill="#EDF4FF"/>
<path d="M3.68276 0C5.76966 0 7.36552 1.59535 7.36552 3.68158C7.36552 5.76781 5.76966 7.36317 3.68276 7.36317C1.59586 7.36317 0 5.76781 0 3.68158C0 1.59535 1.59586 0 3.68276 0Z" transform="translate(110.482 25.7711)" fill="#EDF4FF"/>
<path d="M4.29655 8.59036C6.66947 8.59036 8.5931 6.66734 8.5931 4.29518C8.5931 1.92302 6.66947 0 4.29655 0C1.92363 0 0 1.92302 0 4.29518C0 6.66734 1.92363 8.59036 4.29655 8.59036Z" transform="translate(213.6 24.5439)" fill="#C4C4C4"/>
<path d="M1.22759 2.45439C1.90556 2.45439 2.45517 1.90496 2.45517 1.22719C2.45517 0.549434 1.90556 0 1.22759 0C0.549609 0 0 0.549434 0 1.22719C0 1.90496 0.549609 2.45439 1.22759 2.45439Z" transform="translate(112.938 28.2255)" fill="#C4C4C4"/>
<path d="M246.131 0C245.149 0 244.29 0.859036 244.29 1.84079V6.13597C244.29 16.9353 235.451 25.7711 224.648 25.7711H89.6138C78.811 25.7711 69.9724 16.9353 69.9724 6.13597V1.84079C69.9724 0.859036 69.1131 0 68.131 0H36.8276C16.4497 0 0 16.4444 0 36.8158V633.232C0 653.604 16.4497 670.048 36.8276 670.048H276.207C296.585 670.048 313.034 653.604 313.034 633.232V36.8158C313.034 16.4444 296.585 0 276.207 0H246.131Z" transform="translate(20.8691 20.8623)" fill="white"/>
<g filter="url(#filter0_i)">
<rect width="52" height="10" rx="5" transform="translate(148 24)" fill="#EDF4FF"/>
</g>
<defs>
<filter id="filter0_i" x="148" y="24" width="52" height="12" filterUnits="userSpaceOnUse" color-interpolation-filters="sRGB">
<feFlood flood-opacity="0" result="BackgroundImageFix"/>
<feBlend mode="normal" in="SourceGraphic" in2="BackgroundImageFix" result="shape"/>
<feColorMatrix in="SourceAlpha" type="matrix" values="0 0 0 0 0 0 0 0 0 0 0 0 0 0 0 0 0 0 255 0" result="hardAlpha"/>
<feOffset dy="2"/>
<feGaussianBlur stdDeviation="2"/>
<feComposite in2="hardAlpha" operator="arithmetic" k2="-1" k3="1"/>
<feColorMatrix type="matrix" values="0 0 0 0 0 0 0 0 0 0 0 0 0 0 0 0 0 0 0.1 0"/>
<feBlend mode="normal" in2="shape" result="effect1_innerShadow"/>
</filter>
</defs>
</svg>
