<svg width="26" height="27" viewBox="0 0 26 27" fill="none" xmlns="http://www.w3.org/2000/svg">
<path d="M2.82901 5.78319C4.38905 5.78319 5.65801 4.48615 5.65801 2.89212C5.65801 1.29704 4.38905 0 2.82901 0C1.26896 0 -1.24021e-07 1.29704 -1.24021e-07 2.8916C-1.24021e-07 4.48615 1.26896 5.78319 2.82901 5.78319ZM2.82901 1.03846C3.82873 1.03846 4.64203 1.87027 4.64203 2.8916C4.64203 3.91292 3.82873 4.74473 2.82901 4.74473C1.82928 4.74473 1.01598 3.91344 1.01598 2.89212C1.01598 1.87079 1.82928 1.03846 2.82901 1.03846Z" transform="translate(3.90625 6.75)" fill="url(#paint0_linear)"/>
<path d="M0 0V20.7692V27H25.3996V20.7692V0H0ZM1.01598 1.03846H24.3836V14.9159L19.1391 10.0019C19.0395 9.909 18.9085 9.86279 18.7733 9.8659C18.6387 9.87213 18.5117 9.93289 18.4208 10.0347L13.4455 15.6044L11.0361 13.1417C10.8461 12.9481 10.5424 12.9382 10.3412 13.1189L1.83995 20.7692H1.01598V1.03846ZM24.3836 25.9615H1.01598V21.8077H24.3836V25.9615ZM3.37764 20.7692L10.6541 14.2212L15.8874 19.5698C16.0861 19.7728 16.4071 19.7728 16.6057 19.5698C16.8044 19.3668 16.8044 19.0386 16.6057 18.8356L14.1638 16.3397L18.8277 11.1193L24.3836 16.3246V20.7692H3.37764Z" transform="translate(0.128906)" fill="url(#paint1_linear)"/>
<defs>
<linearGradient id="paint0_linear" x2="1" gradientUnits="userSpaceOnUse" gradientTransform="translate(-0.728057 1.01973) scale(5.65801 5.78319) rotate(-17.7583)">
<stop stop-color="#F6633A"/>
<stop offset="0.988782" stop-color="#FB9E41"/>
</linearGradient>
<linearGradient id="paint1_linear" x2="1" gradientUnits="userSpaceOnUse" gradientTransform="translate(-3.26835 4.7608) scale(25.3996 27) rotate(-17.7583)">
<stop stop-color="#F6633A"/>
<stop offset="0.988782" stop-color="#FB9E41"/>
</linearGradient>
</defs>
</svg>
