<svg width="89" height="88" viewBox="0 0 89 88" fill="none" xmlns="http://www.w3.org/2000/svg">
<path d="M88.5989 42.5644C87.8555 19.4472 69.0371 0.761329 45.7573 0.0230865C33.09 -0.375997 21.2389 4.41177 12.4805 13.3911C4.06045 22.0233 -0.363572 33.4034 0.0233976 45.4364C0.766229 68.553 19.5846 87.2395 42.8644 87.9771C43.349 87.9926 43.8293 88 44.3109 88C56.4139 88 67.7182 83.2444 76.1413 74.6091C84.5613 65.9775 88.9859 54.5968 88.5989 42.5644ZM69.4384 68.1626C62.789 74.9797 53.865 78.734 44.3109 78.734C43.9289 78.734 43.5469 78.7278 43.1618 78.716C24.7888 78.1335 9.93716 63.3859 9.34986 45.1411C9.04439 35.6385 12.5364 26.6523 19.1834 19.8383C25.8328 13.0211 34.7567 9.26687 44.3109 9.26687C44.6929 9.26687 45.0748 9.27305 45.46 9.28479C63.8329 9.86735 78.6846 24.6149 79.2719 42.8597C79.5773 52.3623 76.0847 61.3485 69.4384 68.1626Z" fill="white"/>
<path d="M24.6634 14.585L5.0138 0.59488C2.91782 -0.897668 0 0.589938 0 3.15124V31.1322C0 33.6935 2.91782 35.1811 5.0138 33.6885L24.6628 19.6978C26.4259 18.4431 26.4259 15.8404 24.6634 14.585Z" transform="translate(34.1816 26.8589)" fill="white"/>
</svg>
