<svg width="10" height="10" viewBox="0 0 10 10" fill="none" xmlns="http://www.w3.org/2000/svg">
<path d="M9.80117 3.83526C9.66855 3.70267 9.50748 3.6364 9.31815 3.6364H6.36357V0.681751C6.36357 0.49242 6.29725 0.331398 6.16471 0.198809C6.03214 0.0663194 5.87125 0 5.68164 0H4.31813C4.12878 0 3.96778 0.0662448 3.83519 0.198834C3.7026 0.331423 3.63633 0.492445 3.63633 0.681776V3.63642H0.681778C0.492446 3.63642 0.331424 3.70269 0.198834 3.83528C0.0662449 3.96787 0 4.12874 0 4.3182V5.68188C0 5.87138 0.0662201 6.03228 0.198809 6.16474C0.331399 6.29738 0.492422 6.3636 0.681753 6.3636H3.63631V9.3183C3.63631 9.50763 3.70258 9.66878 3.83517 9.80132C3.96776 9.93378 4.12875 10 4.31811 10H5.68172C5.8712 10 6.03212 9.93378 6.16473 9.80132C6.29737 9.6687 6.36359 9.50763 6.36359 9.3183V6.3636H9.31812C9.50763 6.3636 9.6686 6.29738 9.80114 6.16474C9.93371 6.03228 10 5.87138 10 5.68188V4.3182C9.99995 4.12874 9.9338 3.96777 9.80117 3.83526Z" fill="white"/>
</svg>
