<svg width="10" height="11" viewBox="0 0 10 11" fill="none" xmlns="http://www.w3.org/2000/svg">
<path d="M0 2.15264C0 0.839024 0.637793 0 1.94274 0C3.24643 0 3.91296 0.838395 3.91296 2.15264V6.59827C3.91296 7.91188 3.27517 8.75091 1.94274 8.75091C0.611556 8.75091 0 7.88482 0 6.59827V2.15264ZM0.943259 6.65492C0.943259 7.43792 1.27621 7.88481 1.97022 7.88481C2.66424 7.88481 2.99719 7.43729 2.99719 6.65492V2.12494C2.99719 1.34194 2.69172 0.895043 1.97022 0.895043C1.24872 0.895043 0.943259 1.37026 0.943259 2.12494V6.65492Z" transform="translate(0.200195 2.04907)" fill="#1A1447"/>
<path d="M0.859553 8.61054H0V0H1.22061L3.19084 6.23446V0H4.0229V8.61054H3.02342L0.831442 1.6491L0.859553 8.61054Z" transform="translate(5.72266 2.1333)" fill="#1A1447"/>
<path d="M9.6 0H0V0.86609H9.6V0Z" transform="translate(0.201172 0.399902)" fill="#1A1447"/>
</svg>
