<svg width="15" height="10" viewBox="0 0 15 10" fill="none" xmlns="http://www.w3.org/2000/svg">
<path d="M7.5 0C4.09091 0 1.15909 2.06667 0 5C1.15909 7.93333 4.09091 10 7.5 10C10.9091 10 13.8409 7.93333 15 5C13.8409 2.06667 10.9091 0 7.5 0ZM7.5 8.33333C5.59091 8.33333 4.09091 6.86667 4.09091 5C4.09091 3.13333 5.59091 1.66667 7.5 1.66667C9.40909 1.66667 10.9091 3.13333 10.9091 5C10.9091 6.86667 9.40909 8.33333 7.5 8.33333ZM7.5 3C6.34091 3 5.45455 3.86667 5.45455 5C5.45455 6.13333 6.34091 7 7.5 7C8.65909 7 9.54545 6.13333 9.54545 5C9.54545 3.86667 8.65909 3 7.5 3Z" fill="#646464"/>
</svg>
