<svg width="16" height="16" viewBox="0 0 16 16" fill="none" xmlns="http://www.w3.org/2000/svg">
<path d="M8 0C3.58318 0 0 3.58318 0 8C0 12.4168 3.58318 16 8 16C12.4168 16 16 12.4168 16 8C16 3.58318 12.4168 0 8 0Z" fill="url(#paint0_linear)" fill-opacity="0.5"/>
<path d="M3.84204 4.54258C3.46337 4.32572 3.06079 4.16049 2.66219 3.98907C2.431 3.88994 2.20978 3.77428 2.01447 3.61318C1.62982 3.29512 1.70356 2.77879 2.15398 2.57432C2.28153 2.51649 2.41506 2.4979 2.55058 2.48964C3.07274 2.46073 3.569 2.55986 4.04133 2.79531C4.27651 2.91303 4.35423 2.87586 4.43395 2.62182C4.51766 2.35333 4.58741 2.08071 4.66514 1.81015C4.71696 1.6284 4.65318 1.50861 4.48776 1.43219C4.18483 1.29382 3.87392 1.19468 3.54707 1.14098C3.12058 1.07282 3.12058 1.07076 3.11858 0.626713C3.11659 0.000917937 3.11659 0.000917925 2.51072 0.000917925C2.42303 0.000917925 2.33534 -0.00114741 2.24765 0.000917925C1.96464 0.00917925 1.91681 0.0608125 1.90884 0.356155C1.90486 0.488336 1.90884 0.620517 1.90685 0.754764C1.90486 1.14718 1.90286 1.14098 1.54014 1.27729C0.663226 1.60775 0.121134 2.22734 0.0633374 3.2187C0.0115198 4.09647 0.453962 4.68922 1.14951 5.12087C1.57801 5.3873 2.05234 5.54427 2.50674 5.75287C2.68411 5.83341 2.85352 5.92635 3.001 6.0544C3.43746 6.42823 3.35774 7.04989 2.83956 7.28534C2.56254 7.41133 2.26957 7.44231 1.96863 7.40307C1.50427 7.34317 1.05983 7.21719 0.641303 6.99206C0.396166 6.85988 0.324418 6.89499 0.240713 7.16968C0.168965 7.4072 0.10519 7.64677 0.0414146 7.88635C-0.0442838 8.20854 -0.0123962 8.28496 0.284558 8.43573C0.663226 8.62574 1.0678 8.72281 1.48035 8.79097C1.80321 8.84467 1.81318 8.85912 1.81716 9.2061C1.81916 9.36306 1.81916 9.5221 1.82115 9.67906C1.82314 9.87733 1.91482 9.99299 2.11213 9.99712C2.33534 10.0013 2.56055 10.0013 2.78376 9.99506C2.96712 9.99093 3.06079 9.88766 3.06079 9.69558C3.06079 9.48079 3.07075 9.26393 3.06278 9.04913C3.05281 8.83021 3.14449 8.71868 3.34778 8.66085C3.81613 8.52867 4.21472 8.26844 4.52164 7.88016C5.37464 6.80618 5.04978 5.23447 3.84204 4.54258Z" transform="translate(6 3)" fill="white"/>
<defs>
<linearGradient id="paint0_linear" x2="1" gradientUnits="userSpaceOnUse" gradientTransform="translate(16) scale(16) rotate(90)">
<stop stop-color="#5C68CA"/>
<stop offset="1" stop-color="#4485E5"/>
</linearGradient>
</defs>
</svg>
