<svg width="43" height="34" viewBox="0 0 43 34" fill="none" xmlns="http://www.w3.org/2000/svg">
<path fill-rule="evenodd" clip-rule="evenodd" d="M31.2676 0H2.42188C1.08594 0 0 1.07129 0 2.3877V19.4551C0 20.7725 1.08594 21.8438 2.42188 21.8438H4.29102V28.1973C4.29102 28.6016 4.53906 28.9668 4.91797 29.1211C5.04297 29.1729 5.17578 29.1973 5.30664 29.1973C5.57031 29.1973 5.83008 29.0957 6.02344 28.9043L13.1836 21.8438H14.6191C15.1797 21.8438 15.6348 21.3955 15.6348 20.8428C15.6348 20.29 15.1797 19.8428 14.6191 19.8428L12.6934 19.8457C12.459 19.8613 12.2266 19.958 12.0449 20.1357L6.32031 25.7822L6.31641 20.7539C6.26953 20.2432 5.83594 19.8428 5.30469 19.8428H2.42188C2.20508 19.8428 2.0293 19.6689 2.0293 19.4551V2.3877C2.0293 2.1748 2.20508 2.00098 2.42188 2.00098H31.2676C31.4824 2.00098 31.6582 2.1748 31.6582 2.3877V8.93555C31.6582 9.48828 32.1133 9.93652 32.6738 9.93652C33.2344 9.93652 33.6875 9.48828 33.6875 8.93555V2.3877C33.6875 1.07129 32.6016 0 31.2676 0ZM40.5801 12.2363H20.3887C19.0527 12.2363 17.9668 13.3076 17.9668 14.624V26.2676C17.9668 27.584 19.0527 28.6553 20.3887 28.6553H33.0293L38.1504 33.707C38.3438 33.8984 38.6035 34 38.8672 34C38.998 34 39.1309 33.9746 39.2559 33.9238C39.6348 33.7686 39.8828 33.4043 39.8828 32.999V28.6553H40.5801C41.9141 28.6553 43 27.584 43 26.2676V14.624C43 13.3076 41.9141 12.2363 40.5801 12.2363ZM40.9727 26.2676C40.9727 26.4814 40.7949 26.6553 40.5801 26.6553H38.8672C38.334 26.6553 37.8984 27.0615 37.8574 27.5781L37.8535 30.584L34.1699 26.9512L34.1582 26.9404L34.1172 26.9033C33.9395 26.749 33.7051 26.6543 33.4492 26.6543H20.3887C20.1719 26.6543 19.9961 26.4814 19.9961 26.2676V14.624C19.9961 14.4111 20.1719 14.2373 20.3887 14.2373H40.5801C40.7949 14.2373 40.9727 14.4111 40.9727 14.624V26.2676ZM29.4688 20.4463C29.4688 19.8945 29.9238 19.4463 30.4824 19.4463C31.043 19.4463 31.498 19.8945 31.498 20.4463C31.498 20.999 31.043 21.4473 30.4824 21.4473C29.9238 21.4473 29.4688 20.999 29.4688 20.4463ZM26.0762 6.61426H7.61328C7.05469 6.61426 6.59961 7.0625 6.59961 7.61426C6.59961 8.16699 7.05469 8.61523 7.61328 8.61523H26.0762C26.6367 8.61523 27.0898 8.16699 27.0898 7.61426C27.0898 7.0625 26.6367 6.61426 26.0762 6.61426ZM7.61328 13.2285H14.6211C15.1797 13.2285 15.6348 13.6768 15.6348 14.2285C15.6348 14.7812 15.1797 15.2295 14.6211 15.2295H7.61328C7.05469 15.2295 6.59961 14.7812 6.59961 14.2285C6.59961 13.6768 7.05469 13.2285 7.61328 13.2285ZM25.7695 19.4463C25.2109 19.4463 24.7559 19.8945 24.7559 20.4463C24.7559 20.999 25.2109 21.4473 25.7695 21.4473C26.3301 21.4473 26.7852 20.999 26.7852 20.4463C26.7852 19.8945 26.3301 19.4463 25.7695 19.4463ZM34.1816 20.4463C34.1816 19.8945 34.6367 19.4463 35.1953 19.4463C35.7559 19.4463 36.2109 19.8945 36.2109 20.4463C36.2109 20.999 35.7559 21.4473 35.1953 21.4473C34.6367 21.4473 34.1816 20.999 34.1816 20.4463Z" fill="#538CF8" fill-opacity="0.8"/>
</svg>
