<svg width="29" height="33" viewBox="0 0 29 33" fill="none" xmlns="http://www.w3.org/2000/svg">
<rect width="29" height="33" fill="black" fill-opacity="0"/>
<path d="M27.0592 10.9642C25.1626 7.94467 23.2934 4.96603 21.4037 1.96012C19.514 4.97285 17.6448 7.94467 15.7619 10.9506C15.8646 10.9642 15.9331 10.971 16.0084 10.971C16.8437 10.971 17.6722 10.971 18.5075 10.971C18.8088 10.971 19.0826 11.0392 19.2333 11.3255C19.3017 11.455 19.3428 11.6186 19.3428 11.7617C19.3497 13.7793 19.3565 15.7968 19.3428 17.8076C19.336 19.1163 19.0895 20.3909 18.5691 21.5974C18.0077 22.8992 17.1929 24.0375 16.1317 24.985C15.0841 25.9256 13.8927 26.6072 12.5576 27.023C11.4758 27.3638 10.3598 27.5001 9.21635 27.4456C8.06608 27.3911 6.97058 27.1457 5.91617 26.7094C4.97131 26.3209 4.1086 25.7756 3.33491 25.1008C2.49275 24.3852 1.78068 23.54 1.23978 22.5652C0.828969 21.8359 0.520861 21.0657 0.308609 20.2546C0.0141948 19.1299 -0.0679672 17.9916 0.0552759 16.8465C0.212753 15.3538 0.698879 13.9769 1.50681 12.7091C2.15726 11.6935 2.97203 10.8279 3.94428 10.1122C4.82068 9.46467 5.78608 8.98072 6.8268 8.66037C7.73743 8.38091 8.6686 8.23777 9.62031 8.23777C10.0243 8.23777 10.3324 8.51723 10.3529 8.89893C10.3735 9.26018 10.079 9.56009 9.68193 9.60099C9.1068 9.66234 8.53166 9.68278 7.97022 9.79184C6.60085 10.0577 5.38896 10.6643 4.32086 11.5572C3.32122 12.3956 2.56122 13.4248 2.04086 14.6177C1.76014 15.2584 1.57527 15.9263 1.47257 16.6216C1.36302 17.3441 1.34933 18.0734 1.43149 18.7959C1.54104 19.7366 1.80122 20.6363 2.23257 21.4883C3.10212 23.206 4.40302 24.4806 6.14211 25.3121C7.51148 25.9597 8.94932 26.2119 10.4488 26.0619C12.7219 25.8302 14.5911 24.8282 16.0632 23.0833C16.7616 22.2517 17.2682 21.3043 17.5832 20.275C17.8365 19.4435 17.9461 18.5914 17.9461 17.7258C17.9461 16.0013 17.9392 14.27 17.9461 12.5456C17.9461 12.3888 17.8981 12.3547 17.7475 12.3547C16.6931 12.3615 15.6387 12.3615 14.5843 12.3547C14.1529 12.3547 13.8653 12.123 13.8106 11.7344C13.7832 11.5163 13.879 11.3391 13.9886 11.1619C14.9403 9.65552 15.8852 8.14234 16.8369 6.63598C18.1446 4.55706 19.4524 2.47133 20.7601 0.392414C20.8971 0.181114 21.0614 0.0243433 21.3284 0.00389493C21.6297 -0.0233696 21.8625 0.0925045 22.0199 0.351517C22.5882 1.25806 23.1634 2.1646 23.7316 3.07796C25.4297 5.78396 27.1277 8.48996 28.8325 11.196C28.9832 11.4345 29.0653 11.6731 28.9352 11.9526C28.7915 12.2593 28.5313 12.3615 28.2095 12.3615C27.1688 12.3615 26.1349 12.3615 25.0942 12.3615C25.0188 12.3615 24.9504 12.3683 24.8545 12.3752C24.8545 12.4706 24.8545 12.5456 24.8545 12.6273C24.8545 16.0763 24.8545 19.5253 24.8545 22.9674C24.8545 25.3599 24.8545 27.7523 24.8545 30.138C24.8545 31.1058 24.4779 31.8897 23.6974 32.4691C23.2181 32.8167 22.6704 32.9735 22.0816 32.9871C21.6228 33.0007 21.1709 33.0075 20.7122 32.9871C19.6304 32.9326 18.754 32.5032 18.2336 31.508C18.0145 31.099 17.9529 30.6423 17.9529 30.1857C17.9461 28.6384 17.9529 27.0843 17.9529 25.5371C17.9529 25.2099 18.0556 24.9304 18.3843 24.7941C18.8567 24.6033 19.3154 24.9373 19.336 25.4825C19.3428 25.7143 19.336 25.946 19.336 26.1778C19.336 27.4865 19.336 28.802 19.336 30.1107C19.336 30.4106 19.3565 30.7037 19.5071 30.9695C19.7057 31.3171 20.0207 31.5353 20.4178 31.5625C20.9792 31.6034 21.5475 31.6239 22.1089 31.5966C22.9648 31.5489 23.4783 30.9763 23.4852 30.1243C23.492 28.6248 23.4852 27.1252 23.4852 25.6257C23.4852 21.0112 23.4852 16.3898 23.4852 11.7753C23.4852 11.4618 23.5742 11.196 23.8754 11.0596C24.0124 10.9983 24.1698 10.9778 24.3205 10.9778C25.1421 10.971 25.9637 10.971 26.7853 10.971C26.8606 10.9778 26.936 10.971 27.0592 10.9642Z" fill="#74A2F9"/>
<path d="M9.64792 18.5177C9.10702 18.5177 8.55927 18.5654 8.02522 18.5108C7.10774 18.4154 6.41621 17.7883 6.27243 16.8886C6.14919 16.1525 6.14919 15.3891 6.28612 14.6529C6.43675 13.8214 7.21045 13.1329 8.09369 13.0784C8.33333 13.0648 8.57297 13.0579 8.81261 13.0511C8.93585 13.0511 8.99062 13.0034 8.98378 12.8807C8.97693 12.6967 8.98378 12.5195 8.99062 12.3354C9.01116 11.9197 9.33981 11.6947 9.66846 11.6811C10.0313 11.6675 10.3326 11.981 10.3531 12.3695C10.36 12.5399 10.36 12.7103 10.3531 12.8807C10.3463 13.0034 10.3942 13.0511 10.5175 13.0511C10.764 13.0511 11.0104 13.0648 11.2501 13.0784C12.0785 13.1261 12.8112 13.7736 13.0097 14.5166C13.1398 15.0005 13.1535 15.4913 13.0713 15.9821C13.0234 16.2547 12.7153 16.4865 12.4209 16.4865C12.1265 16.4865 11.8115 16.2547 11.7773 15.9821C11.7431 15.7299 11.7362 15.4777 11.7294 15.2187C11.7157 14.6938 11.4623 14.4348 10.9351 14.4348C10.0793 14.4348 9.22342 14.4348 8.36756 14.4348C8.07315 14.4348 7.81981 14.5234 7.68972 14.8029C7.6281 14.9324 7.59387 15.0823 7.59387 15.2255C7.58018 15.6004 7.58702 15.9752 7.58702 16.3501C7.58702 16.8954 7.86774 17.1749 8.42234 17.1749C9.23711 17.1817 10.0519 17.1749 10.8667 17.1817C11.1953 17.1817 11.5171 17.209 11.8184 17.3385C12.5304 17.652 13.0097 18.1769 13.0713 18.9675C13.1261 19.6082 13.1124 20.2626 13.0713 20.9033C13.0303 21.544 12.6674 22.0211 12.1333 22.3688C11.6814 22.6619 11.1748 22.7028 10.6544 22.6891C10.3121 22.6823 10.36 22.6414 10.3531 22.9822C10.3463 23.1799 10.3463 23.3844 10.3052 23.5752C10.2367 23.8751 9.93549 24.066 9.62053 24.0455C9.30558 24.0251 9.03855 23.7933 9.00432 23.4866C8.98378 23.2889 8.97693 23.0913 8.98378 22.8936C8.99062 22.7232 8.929 22.6823 8.76468 22.6823C8.5045 22.6823 8.23747 22.6823 7.97729 22.6482C7.03243 22.5119 6.29982 21.7349 6.2245 20.7874C6.20396 20.5012 6.20396 20.2081 6.21765 19.9218C6.23135 19.5333 6.52576 19.2538 6.90234 19.2538C7.27891 19.2538 7.55963 19.5196 7.58017 19.915C7.59387 20.1126 7.58018 20.3103 7.58702 20.508C7.59387 20.9919 7.8609 21.285 8.34017 21.2986C9.22342 21.3123 10.1067 21.3123 10.9899 21.2986C11.4692 21.2918 11.7225 21.0055 11.7294 20.5284C11.7362 20.1194 11.7362 19.7105 11.7294 19.3015C11.7225 18.8244 11.4486 18.5586 10.9694 18.5586C10.5312 18.5586 10.093 18.5586 9.65477 18.5586C9.64792 18.5449 9.64792 18.5313 9.64792 18.5177Z" fill="#74A2F9"/>
</svg>
