<svg width="15" height="19" viewBox="0 0 15 19" fill="none" xmlns="http://www.w3.org/2000/svg">
<path d="M0.0491975 10.1653C-0.0686153 9.15963 0.029562 8.18882 0.296604 7.29149C1.18413 4.30942 3.96844 2.11638 7.27112 2.0777V0.128333C7.27112 0.0200345 7.40857 -0.0379824 7.49889 0.0277701L11.5713 2.97503C11.638 3.02531 11.638 3.12587 11.5713 3.17229L7.50282 6.11955C7.40857 6.1853 7.27505 6.12728 7.27505 6.01898V4.07348C5.10337 4.10829 3.24978 5.42721 2.45258 7.29149C2.15019 7.99543 1.99704 8.77285 2.04023 9.58896C2.09914 10.7106 2.52719 11.7433 3.20265 12.5788C3.56395 13.0236 3.47755 13.6734 3.01022 14.0098C2.56646 14.3309 1.94598 14.2419 1.60433 13.8165C0.767855 12.7876 0.210208 11.5345 0.0491975 10.1653ZM11.8069 6.42124C12.4863 7.25281 12.9144 8.28938 12.9693 9.41104C13.0125 10.231 12.8554 11.0084 12.557 11.7085C11.7598 13.5728 9.9062 14.8956 7.73452 14.9265V12.981C7.73452 12.8727 7.59707 12.8147 7.50675 12.8805L3.43435 15.8277C3.36759 15.878 3.36759 15.9786 3.43435 16.025L7.50282 18.9722C7.59707 19.038 7.73059 18.98 7.73059 18.8717V16.9223C11.0333 16.8875 13.8215 14.6944 14.7051 11.7085C14.9721 10.8112 15.0664 9.84037 14.9525 8.83474C14.7954 7.46554 14.2378 6.21237 13.4013 5.18354C13.0557 4.75808 12.4392 4.66912 11.9954 4.99015C11.532 5.32665 11.4456 5.97644 11.8069 6.42124Z" fill="#CC655D"/>
</svg>
