<svg width="15" height="13" viewBox="0 0 15 13" fill="none" xmlns="http://www.w3.org/2000/svg">
<path d="M8.57143 0C5.02142 0 2.14286 2.91054 2.14286 6.5H0L2.85713 9.38888L5.7143 6.5H3.57144C3.57144 3.70862 5.81073 1.44446 8.57143 1.44446C11.3321 1.44446 13.5714 3.70862 13.5714 6.5C13.5714 9.29138 11.3321 11.5555 8.57143 11.5555C7.48929 11.5555 6.49286 11.2053 5.67144 10.613L4.66071 11.6495C5.74644 12.4945 7.09999 13 8.57143 13C12.1214 13 15 10.0895 15 6.5C15 2.91054 12.1214 0 8.57143 0Z" fill="#A5A5A5"/>
<path d="M2.85717 1.44446C2.85717 0.646412 2.21789 0 1.42858 0C0.639275 0 0 0.646412 0 1.44446C0 2.2425 0.639275 2.88891 1.42858 2.88891C2.21789 2.88891 2.85717 2.2425 2.85717 1.44446Z" transform="translate(7.14258 5.05542)" fill="#A5A5A5"/>
</svg>
