<svg width="11" height="12" viewBox="0 0 11 12" fill="none" xmlns="http://www.w3.org/2000/svg">
<path d="M10.8328 10.9301L8.12106 7.9597C8.81829 7.08675 9.2003 5.98841 9.2003 4.845C9.2003 2.17351 7.13663 0 4.60015 0C2.06367 0 0 2.17351 0 4.845C0 7.51648 2.06367 9.68999 4.60015 9.68999C5.55238 9.68999 6.45981 9.3875 7.23563 8.81326L9.96792 11.8062C10.0821 11.9311 10.2357 12 10.4003 12C10.5561 12 10.7039 11.9374 10.8162 11.8237C11.0546 11.5821 11.0622 11.1814 10.8328 10.9301ZM4.60015 1.26391C6.47501 1.26391 8.00026 2.87034 8.00026 4.845C8.00026 6.81965 6.47501 8.42608 4.60015 8.42608C2.72529 8.42608 1.20004 6.81965 1.20004 4.845C1.20004 2.87034 2.72529 1.26391 4.60015 1.26391Z" fill="#A5A5A5"/>
</svg>
