<svg width="14" height="14" viewBox="0 0 14 14" fill="none" xmlns="http://www.w3.org/2000/svg">
<path d="M2.33333 0C1.04689 0 0 1.04689 0 2.33333C0 3.61978 1.04689 4.66667 2.33333 4.66667C3.61978 4.66667 4.66667 3.61978 4.66667 2.33333C4.66667 1.04689 3.61978 0 2.33333 0Z" transform="translate(4.66602 4.66675)" fill="white"/>
<path d="M13.2793 5.44444H12.7561C12.6226 4.949 12.4263 4.47481 12.1701 4.02967L12.5399 3.65996C12.676 3.52385 12.7509 3.34263 12.7509 3.15026C12.7509 2.95763 12.676 2.77667 12.5399 2.6403L11.3594 1.45989C11.0872 1.18793 10.6125 1.18741 10.3398 1.45989L9.97007 1.82959C9.52519 1.5737 9.051 1.37744 8.55556 1.24393V0.720741C8.55556 0.323296 8.23226 0 7.83481 0H6.16519C5.76774 0 5.44444 0.323296 5.44444 0.720741V1.24393C4.949 1.37744 4.47481 1.5737 4.02967 1.82985L3.65996 1.46015C3.38748 1.18741 2.91252 1.18793 2.6403 1.46015L1.45989 2.64056C1.32378 2.77667 1.24885 2.95789 1.24885 3.15052C1.24885 3.34289 1.32378 3.52385 1.45989 3.66022L1.82959 4.02993C1.5737 4.47481 1.37719 4.949 1.24393 5.44444H0.720741C0.323296 5.44444 0 5.76774 0 6.16519V7.8343C0 8.232 0.323296 8.55556 0.720741 8.55556H1.24393C1.37744 9.051 1.5737 9.52519 1.82985 9.97033L1.46015 10.34C1.32404 10.4761 1.24911 10.6574 1.24911 10.8497C1.24911 11.0424 1.32404 11.2233 1.46015 11.3597L2.64056 12.5401C2.91278 12.8126 3.38774 12.8129 3.66022 12.5401L4.02993 12.1704C4.47507 12.4263 4.94926 12.6228 5.4447 12.7563V13.2793C5.44444 13.6764 5.76774 14 6.16519 14H7.83456C8.232 14 8.5553 13.6764 8.5553 13.279V12.7561C9.05074 12.6226 9.52493 12.4263 9.97007 12.1701L10.3398 12.5399C10.6125 12.8126 11.087 12.8121 11.3594 12.5399L12.5399 11.3594C12.676 11.2233 12.7509 11.0421 12.7509 10.8495C12.7509 10.6571 12.676 10.4761 12.5399 10.3398L12.1701 9.97007C12.426 9.52493 12.6226 9.05074 12.7561 8.5553H13.2793C13.6767 8.5553 14 8.23174 14 7.8343V6.16519C14 5.76774 13.6767 5.44444 13.2793 5.44444ZM10.1111 7C10.1111 8.71552 8.71552 10.1111 7 10.1111C5.28448 10.1111 3.88889 8.71552 3.88889 7C3.88889 5.28448 5.28448 3.88889 7 3.88889C8.71552 3.88889 10.1111 5.28448 10.1111 7Z" fill="white"/>
</svg>
