<svg width="15" height="15" viewBox="0 0 15 15" fill="none" xmlns="http://www.w3.org/2000/svg">
<path d="M12.4315 9.77566C11.6989 9.77566 11.0399 10.0891 10.572 10.5901L5.1049 7.86723C5.1237 7.73996 5.13665 7.61019 5.13665 7.47665C5.13665 7.34687 5.12432 7.22023 5.10644 7.09578L10.5655 4.40336C11.0337 4.90773 11.6955 5.22434 12.4315 5.22434C13.8503 5.22434 15 4.05477 15 2.61217C15 1.16925 13.8503 0 12.4315 0C11.0127 0 9.86304 1.16925 9.86304 2.61217C9.86304 2.74195 9.87537 2.86828 9.89325 2.99304L4.43481 5.68546C3.96661 5.18108 3.30484 4.86448 2.56879 4.86448C1.1497 4.86448 0 6.03404 0 7.47665C0 8.91956 1.1497 10.0888 2.56848 10.0888C3.30114 10.0888 3.96014 9.77534 4.42803 9.27504L9.89479 11.9976C9.87568 12.1248 9.86273 12.2546 9.86273 12.3878C9.86273 13.8311 11.0124 15 12.4312 15C13.85 15 14.9997 13.8311 14.9997 12.3878C15 10.9449 13.8503 9.77566 12.4315 9.77566Z" fill="#A5A5A5"/>
</svg>
