<svg width="177" height="50" viewBox="0 0 177 50" fill="none" xmlns="http://www.w3.org/2000/svg">
<g opacity="0.7">
<path fill-rule="evenodd" clip-rule="evenodd" d="M19.9989 1.6895C20.2742 1.6895 20.5507 1.78182 20.816 1.96213C18.7753 2.91212 16.5885 5.30453 15.6646 10.0812C14.3148 10.495 12.9952 10.8991 11.7751 11.2731C12.8573 7.629 15.4262 1.6895 19.9989 1.6895ZM21.8911 3.46058C22.2823 4.43119 22.5371 5.82424 22.5371 7.70362C22.5371 7.79943 22.5362 7.8877 22.5356 7.97683C20.9857 8.45154 19.3025 8.9669 17.6151 9.4837C18.5626 5.86692 20.3382 4.11965 21.8911 3.46058ZM26.5877 6.73621C25.8806 6.95251 25.0767 7.19872 24.2056 7.46525C24.2062 7.29947 24.2068 7.136 24.2068 6.95745C24.2068 5.40006 23.9885 4.14607 23.6377 3.15194C25.0459 3.32702 25.9842 4.91199 26.5877 6.73621ZM38.0218 9.50867C37.9877 9.26304 37.7702 9.12716 37.5909 9.11236C37.4116 9.09755 33.6169 8.8194 33.6169 8.8194C33.6169 8.8194 30.9816 6.2313 30.6925 5.94503C30.4031 5.65875 29.8382 5.74556 29.6186 5.80944C29.586 5.81902 29.0428 5.9848 28.1438 6.26005C27.2636 3.75411 25.7101 1.45113 22.9771 1.45113C22.9013 1.45113 22.8239 1.45461 22.7458 1.45896C21.9686 0.441899 21.0056 0 20.1742 0C13.8073 0 10.7655 7.87376 9.81192 11.8747C7.33803 12.633 5.58057 13.1719 5.35575 13.2419C3.97484 13.6704 3.9314 13.7134 3.75031 15.0005C3.61325 15.9752 0 43.618 0 43.618L28.1555 48.8365L43.411 45.5714C43.411 45.5714 38.0558 9.75459 38.0218 9.50867Z" fill="#8CB849"/>
<path fill-rule="evenodd" clip-rule="evenodd" d="M9.4339 3.35228C9.25457 3.33747 5.45994 3.05932 5.45994 3.05932C5.45994 3.05932 2.82462 0.471223 2.53553 0.184947C2.42752 0.0781015 2.28136 0.0235176 2.12903 0L0 43.0759L15.254 39.8113C15.254 39.8113 9.8988 3.99451 9.86475 3.74859C9.83071 3.50297 9.61322 3.36709 9.4339 3.35228Z" transform="translate(28.1572 5.76025)" fill="#5B873E"/>
<path fill-rule="evenodd" clip-rule="evenodd" d="M16.3179 0.729627L14.4372 6.26498C14.4372 6.26498 12.7889 5.39454 10.7687 5.39454C7.80675 5.39454 7.65794 7.23327 7.65794 7.69665C7.65794 10.2249 14.3195 11.1932 14.3195 17.1147C14.3195 21.7736 11.3325 24.7739 7.30487 24.7739C2.47154 24.7739 0 21.7982 0 21.7982L1.29403 17.5685C1.29403 17.5685 3.83484 19.7261 5.97884 19.7261C7.37912 19.7261 7.94939 18.635 7.94939 17.8383C7.94939 14.5403 2.48387 14.3931 2.48387 8.97416C2.48387 4.41348 5.79276 0 12.4728 0C15.0465 0 16.3179 0.729627 16.3179 0.729627Z" transform="translate(6.65918 16.7217)" fill="#FFFFFE"/>
<path fill-rule="evenodd" clip-rule="evenodd" d="M10.8673 8.81534C9.34585 7.99861 8.56338 7.3105 8.56338 6.36428C8.56338 5.16023 9.6502 4.38647 11.3454 4.38647C13.3204 4.38647 15.084 5.2035 15.084 5.2035L16.4749 0.989194C16.4749 0.989194 15.1958 0 11.4326 0C6.19427 0 2.56458 2.96729 2.56458 7.13862C2.56458 9.50345 4.25982 11.3097 6.52034 12.5996C8.34619 13.6318 8.99835 14.3629 8.99835 15.438C8.99835 16.5561 8.08527 17.4591 6.39003 17.4591C3.86448 17.4591 1.47776 16.1688 1.47776 16.1688L0 20.3834C0 20.3834 2.20358 21.8453 5.91192 21.8453C11.3023 21.8453 15.1709 19.222 15.1709 14.4921C15.1709 11.9548 13.215 10.1486 10.8673 8.81534Z" transform="translate(50.3276 19.0127)" fill="#0A0B09"/>
<path fill-rule="evenodd" clip-rule="evenodd" d="M15.9534 8.81534C13.3016 8.81534 11.2151 10.0624 9.60677 11.9545L9.51989 11.9115L11.8238 0H5.82505L0 30.3166H5.9988L7.9984 19.9531C8.78086 16.0399 10.8239 13.6315 12.7366 13.6315C14.0841 13.6315 14.6059 14.5348 14.6059 15.8248C14.6059 16.6418 14.5187 17.6307 14.345 18.448L12.0845 30.3166H18.0836L20.4307 18.061C20.6916 16.7707 20.8656 15.2226 20.8656 14.1907C20.8656 10.8367 19.0832 8.81534 15.9534 8.81534Z" transform="translate(66.7158 10.1538)" fill="#0A0B09"/>
<path fill-rule="evenodd" clip-rule="evenodd" d="M9.04178 17.3731C6.99845 17.3731 6.12911 15.6529 6.12911 13.5029C6.12911 10.1056 7.91152 4.55835 11.1717 4.55835C13.3016 4.55835 13.9972 6.36457 13.9972 8.12752C13.9972 11.7829 12.2151 17.3731 9.04178 17.3731ZM11.9976 0C4.78137 0 0 6.45051 0 13.6318C0 18.2331 2.86894 21.9312 8.25902 21.9312C15.3449 21.9312 20.1263 15.6529 20.1263 8.2994C20.1263 4.04242 17.6052 0 11.9976 0Z" transform="translate(89.1465 18.9692)" fill="#0A0B09"/>
<path fill-rule="evenodd" clip-rule="evenodd" d="M11.0414 17.4588C9.48379 17.4588 8.56368 16.5991 8.56368 16.5991L9.56362 11.0515C10.2592 7.35347 12.2151 4.90241 14.3019 4.90241C16.1274 4.90241 16.6924 6.57942 16.6924 8.17049C16.6924 11.9978 14.3884 17.4588 11.0414 17.4588ZM16.7796 0C12.7308 0 10.4327 3.52619 10.4327 3.52619H10.3458L10.6936 0.344054H5.39038C5.12946 2.49432 4.65135 5.7624 4.17295 8.21346L0 29.9298H5.9988L7.6506 21.1572H7.78121C7.78121 21.1572 9.01273 21.9312 11.3023 21.9312C18.3445 21.9312 22.9521 14.7929 22.9521 7.56861C22.9521 3.56945 21.17 0 16.7796 0Z" transform="translate(107.839 18.9692)" fill="#0A0B09"/>
<path fill-rule="evenodd" clip-rule="evenodd" d="M3.43393 0C1.5215 0 0 1.50513 0 3.44025C0 5.2035 1.13025 6.40754 2.8255 6.40754H2.91267C4.78167 6.40754 6.39032 5.16052 6.43376 2.96729C6.43376 1.24731 5.25978 0 3.43393 0Z" transform="translate(135.921 10.4551)" fill="#0A0B09"/>
<path fill-rule="evenodd" clip-rule="evenodd" d="M0 21.028H5.99909L10.0852 0H4.04293L0 21.028Z" transform="translate(130.966 19.4424)" fill="#0A0B09"/>
<mask id="mask0" mask-type="alpha" maskUnits="userSpaceOnUse" x="142" y="9" width="35" height="42">
<path d="M34.8197 40.2761H0V0H34.8197V40.2761Z" transform="translate(142.18 9.72412)" fill="white"/>
</mask>
<g mask="url(#mask0)">
<path fill-rule="evenodd" clip-rule="evenodd" d="M14.1281 9.67562H9.95486L10.172 8.68672C10.5198 6.66565 11.737 4.85944 13.7369 4.85944C14.8046 4.85944 15.6493 5.16023 15.6493 5.16023L16.823 0.516227C16.823 0.516227 15.7796 0 13.5628 0C11.4326 0 9.3027 0.602168 7.69434 1.97838C5.6513 3.69837 4.69508 6.1924 4.21698 8.68672L4.04293 9.67562H1.26087L0.391526 14.148H3.17359L0 30.7468H5.99909L9.17239 14.148H13.3019L14.1281 9.67562Z" transform="translate(142.18 9.72412)" fill="#0A0B09"/>
<path fill-rule="evenodd" clip-rule="evenodd" d="M16.4749 0C16.4749 0 12.7252 9.34666 11.0414 14.4488H10.9545C10.8392 12.8061 9.47646 0 9.47646 0H3.1733L6.78126 19.308C6.86814 19.7377 6.8247 19.9961 6.65095 20.2972C5.95536 21.6301 4.78166 22.9201 3.39049 23.866C2.26052 24.6831 0.999947 25.1993 0 25.5431L1.6518 30.5747C2.86894 30.3166 5.39038 29.3274 7.52029 27.3496C10.2589 24.8123 12.7801 20.8988 15.3884 15.5666L22.7346 0H16.4749Z" transform="translate(154.265 19.4429)" fill="#0A0B09"/>
</g>
</g>
</svg>
