<svg width="78" height="28" viewBox="0 0 78 28" fill="none" xmlns="http://www.w3.org/2000/svg">
<mask id="path-1-outside-1" maskUnits="userSpaceOnUse" x="0.00195312" y="-0.523438" width="78" height="29" fill="black">
<rect fill="white" x="0.00195312" y="-0.523438" width="78" height="29"/>
<path d="M7.27734 27.3008C6.51562 27.3008 5.88281 27.2129 5.37891 27.0371C4.875 26.873 4.47656 26.6855 4.18359 26.4746C3.89062 26.2637 3.68555 26.0645 3.56836 25.877C3.45117 25.6777 3.39258 25.5488 3.39258 25.4902C3.39258 25.2793 3.43945 25.0566 3.5332 24.8223C3.62695 24.5762 3.74414 24.3535 3.88477 24.1543C4.02539 23.9434 4.17773 23.7676 4.3418 23.627C4.50586 23.4863 4.65234 23.416 4.78125 23.416C4.94531 23.416 5.08008 23.5215 5.18555 23.7324C5.20898 23.7559 5.26758 23.8145 5.36133 23.9082C5.45508 24.002 5.58398 24.1016 5.74805 24.207C5.92383 24.3008 6.13477 24.3887 6.38086 24.4707C6.63867 24.5527 6.9375 24.5938 7.27734 24.5938C8.01562 24.5938 8.61914 24.3711 9.08789 23.9258C9.55664 23.4688 9.79102 22.8535 9.79102 22.0801C9.79102 21.541 9.66211 21.0605 9.4043 20.6387C9.1582 20.2168 8.83008 19.8242 8.41992 19.4609C8.00977 19.0977 7.54102 18.7461 7.01367 18.4062C6.48633 18.0547 5.94727 17.6914 5.39648 17.3164C4.8457 16.9414 4.30664 16.5371 3.7793 16.1035C3.25195 15.6699 2.7832 15.1719 2.37305 14.6094C1.96289 14.0469 1.62891 13.4141 1.37109 12.7109C1.125 11.9961 1.00195 11.1816 1.00195 10.2676C1.00195 9.48242 1.13672 8.69141 1.40625 7.89453C1.67578 7.09766 2.04492 6.3418 2.51367 5.62695C2.99414 4.90039 3.55664 4.22656 4.20117 3.60547C4.8457 2.97266 5.54297 2.42773 6.29297 1.9707C7.04297 1.50195 7.82227 1.13867 8.63086 0.880859C9.45117 0.611328 10.2715 0.476562 11.0918 0.476562C11.7949 0.476562 12.4277 0.587891 12.9902 0.810547C13.5527 1.0332 14.0273 1.34961 14.4141 1.75977C14.8008 2.1582 15.0996 2.64453 15.3105 3.21875C15.5215 3.78125 15.627 4.41406 15.627 5.11719C15.627 5.78516 15.5098 6.44141 15.2754 7.08594C15.041 7.73047 14.7305 8.33984 14.3438 8.91406C13.957 9.48828 13.5176 10.0215 13.0254 10.5137C12.5449 10.9941 12.0469 11.416 11.5312 11.7793C11.0273 12.1309 10.5352 12.4062 10.0547 12.6055C9.57422 12.8047 9.15234 12.9043 8.78906 12.9043C8.47266 12.9043 8.18555 12.834 7.92773 12.6934C7.68164 12.541 7.4707 12.3594 7.29492 12.1484C7.13086 11.9258 7.00195 11.6973 6.9082 11.4629C6.81445 11.2168 6.76758 11 6.76758 10.8125C6.76758 10.6602 6.78516 10.5605 6.82031 10.5137C6.86719 10.4668 6.92578 10.4492 6.99609 10.4609C7.07812 10.4609 7.17773 10.4785 7.29492 10.5137C7.41211 10.5371 7.54688 10.5488 7.69922 10.5488C8.19141 10.5488 8.73633 10.3789 9.33398 10.0391C9.93164 9.69922 10.4941 9.26562 11.0215 8.73828C11.5488 8.21094 11.9883 7.63086 12.3398 6.99805C12.7031 6.36523 12.8848 5.75 12.8848 5.15234C12.8848 4.54297 12.7324 4.0625 12.4277 3.71094C12.1348 3.35938 11.6309 3.18359 10.916 3.18359C10.4707 3.18359 9.98438 3.27148 9.45703 3.44727C8.94141 3.61133 8.41992 3.8457 7.89258 4.15039C7.36523 4.45508 6.85547 4.82422 6.36328 5.25781C5.87109 5.69141 5.4375 6.17188 5.0625 6.69922C4.6875 7.21484 4.38281 7.77734 4.14844 8.38672C3.92578 8.98438 3.81445 9.61133 3.81445 10.2676C3.81445 10.959 3.9375 11.5801 4.18359 12.1309C4.44141 12.6699 4.77539 13.1621 5.18555 13.6074C5.60742 14.0527 6.08203 14.4629 6.60938 14.8379C7.13672 15.2129 7.67578 15.5879 8.22656 15.9629C8.77734 16.3262 9.31641 16.707 9.84375 17.1055C10.3711 17.4922 10.8398 17.9258 11.25 18.4062C11.6719 18.875 12.0059 19.4023 12.252 19.9883C12.5098 20.5625 12.6387 21.2246 12.6387 21.9746C12.6387 22.7012 12.498 23.3926 12.2168 24.0488C11.9473 24.6934 11.5723 25.2559 11.0918 25.7363C10.6113 26.2168 10.043 26.5977 9.38672 26.8789C8.73047 27.1602 8.02734 27.3008 7.27734 27.3008Z"/>
<path d="M19.5019 8.68555C19.2089 8.68555 18.9277 8.62695 18.6581 8.50977C18.4003 8.39258 18.1718 8.23438 17.9726 8.03516C17.7851 7.83594 17.6327 7.60742 17.5155 7.34961C17.3984 7.08008 17.3398 6.79297 17.3398 6.48828C17.3398 6.17188 17.3984 5.87891 17.5155 5.60938C17.6327 5.33984 17.7851 5.11133 17.9726 4.92383C18.1718 4.72461 18.4003 4.57227 18.6581 4.4668C18.9277 4.34961 19.2089 4.29102 19.5019 4.29102C19.8183 4.29102 20.1112 4.34961 20.3808 4.4668C20.6503 4.57227 20.8788 4.72461 21.0663 4.92383C21.2655 5.11133 21.4179 5.33984 21.5234 5.60938C21.6405 5.87891 21.6991 6.17188 21.6991 6.48828C21.6991 6.79297 21.6405 7.08008 21.5234 7.34961C21.4179 7.60742 21.2655 7.83594 21.0663 8.03516C20.8788 8.23438 20.6503 8.39258 20.3808 8.50977C20.1112 8.62695 19.8183 8.68555 19.5019 8.68555ZM20.328 22.9766C20.328 23.0586 20.3339 23.1934 20.3456 23.3809C20.3573 23.5566 20.3925 23.7383 20.4511 23.9258C20.5097 24.1133 20.6034 24.2773 20.7323 24.418C20.8612 24.5586 21.0429 24.6289 21.2773 24.6289C21.6288 24.6289 21.9335 24.5 22.1913 24.2422C22.4609 23.9844 22.6894 23.6621 22.8769 23.2754C23.0761 22.8887 23.2402 22.4727 23.3691 22.0273C23.498 21.5703 23.6034 21.1426 23.6855 20.7441C23.7558 20.3809 23.8612 20.1172 24.0019 19.9531C24.1542 19.7891 24.3124 19.7012 24.4765 19.6895C24.6523 19.666 24.8222 19.707 24.9862 19.8125C25.162 19.918 25.3144 20.0586 25.4433 20.2344C25.5839 20.3984 25.6835 20.5859 25.7421 20.7969C25.8124 21.0078 25.8241 21.207 25.7773 21.3945C25.6132 21.9922 25.3964 22.6191 25.1269 23.2754C24.8691 23.9316 24.5351 24.5352 24.1249 25.0859C23.7148 25.6367 23.2226 26.0938 22.6484 26.457C22.0741 26.8203 21.4003 27.002 20.6269 27.002C20.1464 27.002 19.7187 26.9082 19.3437 26.7207C18.9687 26.5449 18.6523 26.3047 18.3945 26C18.1366 25.6953 17.9374 25.3379 17.7968 24.9277C17.6679 24.5176 17.6034 24.084 17.6034 23.627V14.0117C17.6034 13.6719 17.5741 13.4258 17.5155 13.2734C17.4687 13.1211 17.4452 12.9805 17.4452 12.8516C17.4452 12.6758 17.539 12.5352 17.7265 12.4297C17.914 12.3125 18.1366 12.2539 18.3945 12.2539C18.9921 12.2539 19.4609 12.4121 19.8007 12.7285C20.1523 13.0332 20.328 13.4023 20.328 13.8359V22.9766Z"/>
<path d="M24.9061 3.81641C24.9061 3.55859 24.8827 3.35352 24.8358 3.20117C24.8006 3.04883 24.7596 2.93164 24.7127 2.84961C24.6776 2.75586 24.6366 2.68555 24.5897 2.63867C24.5545 2.58008 24.537 2.52148 24.537 2.46289C24.537 2.39258 24.5721 2.33398 24.6424 2.28711C24.7127 2.24023 24.8065 2.19922 24.9237 2.16406C25.0409 2.12891 25.1639 2.10547 25.2928 2.09375C25.4334 2.07031 25.5682 2.05859 25.6971 2.05859C26.2948 2.05859 26.7635 2.2168 27.1034 2.5332C27.4549 2.83789 27.6307 3.20703 27.6307 3.64062V15.4531C27.8768 14.9492 28.1405 14.4805 28.4217 14.0469C28.7147 13.6133 29.0252 13.2383 29.3534 12.9219C29.6932 12.5938 30.0506 12.3418 30.4256 12.166C30.8123 11.9785 31.2284 11.8848 31.6737 11.8848C32.2713 11.8848 32.7635 11.9961 33.1502 12.2188C33.537 12.4414 33.8416 12.7285 34.0643 13.0801C34.287 13.4316 34.4393 13.8242 34.5213 14.2578C34.6151 14.6914 34.662 15.1133 34.662 15.5234V22.9766C34.662 23.0586 34.6678 23.1934 34.6795 23.3809C34.6912 23.5566 34.7264 23.7383 34.785 23.9258C34.8436 24.1133 34.9315 24.2773 35.0487 24.418C35.1776 24.5586 35.3592 24.6289 35.5936 24.6289C35.9569 24.6289 36.2674 24.5 36.5252 24.2422C36.7948 23.9844 37.0233 23.6621 37.2108 23.2754C37.41 22.8887 37.5682 22.4727 37.6854 22.0273C37.8143 21.5703 37.9198 21.1426 38.0018 20.7441C38.0721 20.3809 38.1776 20.1172 38.3182 19.9531C38.4705 19.7891 38.6287 19.7012 38.7928 19.6895C38.9686 19.666 39.1444 19.707 39.3202 19.8125C39.4959 19.918 39.6483 20.0586 39.7772 20.2344C39.9061 20.3984 39.9998 20.5859 40.0584 20.7969C40.1287 21.0078 40.1405 21.207 40.0936 21.3945C39.9295 21.9922 39.7127 22.6191 39.4432 23.2754C39.1854 23.9316 38.8514 24.5352 38.4412 25.0859C38.0311 25.6367 37.5389 26.0938 36.9647 26.457C36.3905 26.8203 35.7166 27.002 34.9432 27.002C34.4627 27.002 34.035 26.9082 33.66 26.7207C33.2967 26.5449 32.9803 26.3047 32.7108 26C32.453 25.6953 32.2537 25.3379 32.1131 24.9277C31.9842 24.5176 31.9198 24.084 31.9198 23.627V16.3145C31.9198 16.0332 31.9139 15.7695 31.9022 15.5234C31.8905 15.2773 31.8553 15.0605 31.7967 14.873C31.7498 14.6855 31.6737 14.5391 31.5682 14.4336C31.4745 14.3164 31.3397 14.2578 31.1639 14.2578C30.9061 14.2578 30.5897 14.4336 30.2147 14.7852C29.8397 15.1367 29.4705 15.5938 29.1073 16.1562C28.744 16.7188 28.4217 17.3574 28.1405 18.0723C27.8709 18.7754 27.701 19.4844 27.6307 20.1992V25.4551C27.6307 25.6309 27.6248 25.8125 27.6131 26C27.6131 26.1758 27.578 26.334 27.5077 26.4746C27.4491 26.627 27.3495 26.75 27.2088 26.8438C27.0799 26.9492 26.8866 27.002 26.6287 27.002C26.453 27.002 26.2596 26.9785 26.0487 26.9316C25.8495 26.8965 25.662 26.8203 25.4862 26.7031C25.3221 26.5977 25.1815 26.4395 25.0643 26.2285C24.9588 26.0293 24.9061 25.7598 24.9061 25.4199V3.81641Z"/>
<path d="M49.4177 24.6289C49.781 24.6289 50.0916 24.5 50.3494 24.2422C50.6189 23.9844 50.8474 23.6621 51.0349 23.2754C51.2341 22.8887 51.3923 22.4727 51.5095 22.0273C51.6384 21.5703 51.7439 21.1426 51.8259 20.7441C51.908 20.3691 52.0252 20.0996 52.1775 19.9355C52.3416 19.7598 52.5173 19.6719 52.7048 19.6719C52.8455 19.6719 52.9861 19.7188 53.1267 19.8125C53.2791 19.8945 53.4138 20.0059 53.531 20.1465C53.6599 20.2871 53.7595 20.4453 53.8298 20.6211C53.9119 20.7969 53.9529 20.9727 53.9529 21.1484C53.9529 21.1719 53.9529 21.2012 53.9529 21.2363C53.9529 21.2715 53.9412 21.3242 53.9177 21.3945C53.7654 21.9922 53.5545 22.6191 53.2849 23.2754C53.0271 23.9316 52.6931 24.5352 52.283 25.0859C51.8728 25.6367 51.3748 26.0938 50.7888 26.457C50.2146 26.8203 49.5408 27.002 48.7673 27.002C48.1345 27.002 47.5837 26.8672 47.115 26.5977C46.6462 26.3281 46.2771 25.9707 46.0076 25.5254C45.6443 25.9355 45.2048 26.2812 44.6892 26.5625C44.1853 26.8555 43.5935 27.002 42.9138 27.002C42.2107 27.002 41.5896 26.8613 41.0505 26.5801C40.5232 26.2988 40.0779 25.918 39.7146 25.4375C39.3513 24.9453 39.0759 24.3711 38.8884 23.7148C38.7127 23.0469 38.6248 22.332 38.6248 21.5703C38.6248 20.0703 38.865 18.7227 39.3455 17.5273C39.8259 16.332 40.4646 15.3184 41.2615 14.4863C42.0584 13.6426 42.9666 12.998 43.9861 12.5527C45.0173 12.1074 46.0837 11.8848 47.1853 11.8848C47.6775 11.8848 48.0759 12.0195 48.3806 12.2891C48.6853 12.5586 48.8377 12.9277 48.8377 13.3965C48.8377 13.7012 48.8025 13.918 48.7322 14.0469C48.6736 14.1641 48.5564 14.2227 48.3806 14.2227C48.2166 14.2227 48.0466 14.2109 47.8709 14.1875C47.6951 14.1641 47.5134 14.1523 47.3259 14.1523C46.6462 14.1523 45.9548 14.3047 45.2517 14.6094C44.5486 14.9023 43.9099 15.3594 43.3357 15.9805C42.7732 16.5898 42.3103 17.3691 41.947 18.3184C41.5837 19.2559 41.4021 20.375 41.4021 21.6758C41.4021 22.625 41.5837 23.3574 41.947 23.873C42.3103 24.377 42.8084 24.6289 43.4412 24.6289C43.9334 24.6289 44.3435 24.4473 44.6716 24.084C44.9998 23.709 45.2634 23.2695 45.4627 22.7656V17.2109C45.4627 17.0352 45.4509 16.8887 45.4275 16.7715C45.4158 16.6543 45.3982 16.5547 45.3748 16.4727C45.363 16.3906 45.3513 16.3203 45.3396 16.2617C45.3279 16.1914 45.322 16.127 45.322 16.0684C45.322 15.8809 45.4099 15.7344 45.5857 15.6289C45.7732 15.5117 45.9959 15.4531 46.2537 15.4531C46.8513 15.4531 47.3259 15.6113 47.6775 15.9277C48.0291 16.2324 48.2048 16.6016 48.2048 17.0352V22.9766C48.2048 23.1758 48.2283 23.375 48.2752 23.5742C48.322 23.7617 48.3923 23.9375 48.4861 24.1016C48.5798 24.2539 48.7029 24.3828 48.8552 24.4883C49.0193 24.582 49.2068 24.6289 49.4177 24.6289Z"/>
<path d="M55.8063 15.3477C55.9352 15.1016 56.0583 14.7734 56.1755 14.3633C56.3044 13.9414 56.4216 13.4785 56.527 12.9746C56.6442 12.4707 56.7497 11.9434 56.8434 11.3926C56.9372 10.8418 57.0192 10.3027 57.0895 9.77539C57.1598 9.24805 57.2126 8.75586 57.2477 8.29883C57.2946 7.83008 57.318 7.43164 57.318 7.10352C57.318 5.9082 57.2302 5.03516 57.0544 4.48438C56.8786 3.92188 56.6442 3.64062 56.3512 3.64062C56.2575 3.64062 56.1755 3.6875 56.1052 3.78125C56.0348 3.875 55.9762 3.99805 55.9294 4.15039C55.8825 4.29102 55.8473 4.44922 55.8239 4.625C55.8122 4.78906 55.8063 4.94141 55.8063 5.08203V15.3477ZM60.9216 20.7793C60.9919 20.4277 61.0973 20.1758 61.238 20.0234C61.3903 19.8594 61.5485 19.7715 61.7126 19.7598C61.8884 19.7363 62.0641 19.7773 62.2399 19.8828C62.4157 19.9766 62.568 20.1055 62.697 20.2695C62.8259 20.4336 62.9196 20.6211 62.9782 20.832C63.0485 21.0312 63.0602 21.2305 63.0134 21.4297C62.8493 21.9102 62.6149 22.4727 62.3102 23.1172C62.0055 23.7617 61.6188 24.3711 61.1501 24.9453C60.6813 25.5195 60.1305 26.0059 59.4977 26.4043C58.8649 26.8027 58.1384 27.002 57.318 27.002C56.6266 27.002 56.0173 26.8848 55.4899 26.6504C54.9626 26.4277 54.5173 26.1113 54.154 25.7012C53.8024 25.2793 53.5329 24.7812 53.3454 24.207C53.1696 23.6211 53.0817 22.9707 53.0817 22.2559V5.87305C53.0817 5.20508 53.1637 4.58984 53.3278 4.02734C53.5036 3.45312 53.738 2.9668 54.0309 2.56836C54.3356 2.1582 54.6872 1.8418 55.0856 1.61914C55.4841 1.38477 55.9059 1.26758 56.3512 1.26758C56.8786 1.26758 57.3239 1.36719 57.6872 1.56641C58.0505 1.75391 58.3493 2.00586 58.5837 2.32227C58.818 2.63867 58.9997 3.00195 59.1286 3.41211C59.2692 3.82227 59.3688 4.24414 59.4274 4.67773C59.486 5.09961 59.5212 5.52148 59.5329 5.94336C59.5446 6.35352 59.5505 6.72852 59.5505 7.06836C59.5505 7.94727 59.4684 8.87305 59.3044 9.8457C59.1403 10.8066 58.9294 11.7559 58.6716 12.6934C58.4255 13.6309 58.1501 14.5332 57.8454 15.4004C57.5524 16.2559 57.2653 17.0176 56.9841 17.6855C56.7145 18.3535 56.4684 18.8984 56.2458 19.3203C56.0348 19.7422 55.8884 19.9883 55.8063 20.0586V22.1504C55.8063 22.877 55.9587 23.4746 56.2634 23.9434C56.568 24.4004 57.0544 24.6289 57.7223 24.6289C58.1325 24.6289 58.5134 24.5059 58.8649 24.2598C59.2282 24.002 59.5446 23.6855 59.8141 23.3105C60.0954 22.9238 60.3298 22.5078 60.5173 22.0625C60.7048 21.6055 60.8395 21.1777 60.9216 20.7793Z"/>
<path d="M75.273 20.0586C75.2965 19.918 75.3727 19.8008 75.5016 19.707C75.6422 19.6133 75.8004 19.5488 75.9762 19.5137C76.152 19.4785 76.3336 19.4785 76.5211 19.5137C76.7203 19.5488 76.8902 19.6309 77.0309 19.7598C77.1832 19.877 77.2887 20.0469 77.3473 20.2695C77.4176 20.4805 77.4117 20.7559 77.3297 21.0957C77.2242 21.5879 77.0484 22.0508 76.8023 22.4844C76.568 22.9062 76.2691 23.2812 75.9059 23.6094C75.5426 23.9375 75.1148 24.1953 74.6227 24.3828C74.1305 24.5703 73.5797 24.6641 72.9703 24.6641C72.6422 24.6641 72.3316 24.6465 72.0387 24.6113C71.7574 24.5762 71.482 24.5117 71.2125 24.418C70.7672 25.1914 70.193 25.8125 69.4898 26.2812C68.7867 26.7617 67.9195 27.002 66.8883 27.002C65.9742 27.002 65.1891 26.8203 64.5328 26.457C63.8766 26.1055 63.3316 25.625 62.898 25.0156C62.4645 24.3945 62.1422 23.6797 61.9313 22.8711C61.732 22.0625 61.6324 21.207 61.6324 20.3047C61.6324 18.9805 61.7848 17.7969 62.0895 16.7539C62.4059 15.6992 62.7691 14.8086 63.1793 14.082C63.5895 13.3438 63.9938 12.7812 64.3922 12.3945C64.8023 12.0078 65.107 11.8145 65.3063 11.8145C65.5406 11.8145 65.7516 11.9199 65.9391 12.1309C66.1383 12.3301 66.2789 12.5703 66.3609 12.8516C66.4547 13.1211 66.4781 13.3965 66.4313 13.6777C66.3961 13.959 66.2613 14.1758 66.027 14.3281C65.8863 14.5508 65.7164 14.8086 65.5172 15.1016C65.3297 15.3945 65.148 15.7637 64.9723 16.209C64.8082 16.6426 64.6676 17.1758 64.5504 17.8086C64.4332 18.4414 64.3746 19.2031 64.3746 20.0938C64.3746 20.8555 64.4391 21.5176 64.568 22.0801C64.7086 22.6426 64.8961 23.1172 65.1305 23.5039C65.3766 23.8789 65.652 24.1602 65.9566 24.3477C66.273 24.5352 66.607 24.6289 66.9586 24.6289C67.4742 24.6289 67.8961 24.5059 68.2242 24.2598C68.5641 24.002 68.8512 23.668 69.0855 23.2578C68.2418 22.5312 67.5973 21.6113 67.152 20.498C66.7184 19.373 66.5016 18.1602 66.5016 16.8594C66.5016 16.2969 66.5602 15.7637 66.6773 15.2598C66.8063 14.7441 66.9879 14.293 67.2223 13.9062C67.4684 13.5195 67.773 13.2148 68.1363 12.9922C68.4996 12.7578 68.9215 12.6406 69.402 12.6406C69.8238 12.6406 70.2223 12.793 70.5973 13.0977C70.9723 13.4023 71.3004 13.8242 71.5816 14.3633C71.8629 14.9023 72.0797 15.541 72.232 16.2793C72.3961 17.0176 72.4781 17.8203 72.4781 18.6875C72.4781 19.3555 72.4371 20.0176 72.3551 20.6738C72.273 21.3301 72.1441 21.9629 71.9684 22.5723C72.0973 22.6191 72.2145 22.6484 72.3199 22.6602C72.4371 22.6602 72.5602 22.6602 72.6891 22.6602C73.0758 22.6602 73.4156 22.5898 73.7086 22.4492C74.0133 22.3086 74.2711 22.1211 74.482 21.8867C74.693 21.6523 74.8629 21.377 74.9918 21.0605C75.1207 20.7441 75.2145 20.4102 75.273 20.0586ZM68.4 16.7188C68.4 17.5273 68.523 18.2949 68.7691 19.0215C69.027 19.748 69.3609 20.3809 69.7711 20.9199C69.8414 20.3457 69.8766 19.7949 69.8766 19.2676C69.8766 18.6582 69.8648 18.0957 69.8414 17.5801C69.8297 17.0527 69.7887 16.6016 69.7184 16.2266C69.6598 15.8516 69.5719 15.5586 69.4547 15.3477C69.3492 15.125 69.2027 15.0137 69.0152 15.0137C68.6051 15.0137 68.4 15.582 68.4 16.7188Z"/>
</mask>
<path d="M7.27734 27.3008C6.51562 27.3008 5.88281 27.2129 5.37891 27.0371C4.875 26.873 4.47656 26.6855 4.18359 26.4746C3.89062 26.2637 3.68555 26.0645 3.56836 25.877C3.45117 25.6777 3.39258 25.5488 3.39258 25.4902C3.39258 25.2793 3.43945 25.0566 3.5332 24.8223C3.62695 24.5762 3.74414 24.3535 3.88477 24.1543C4.02539 23.9434 4.17773 23.7676 4.3418 23.627C4.50586 23.4863 4.65234 23.416 4.78125 23.416C4.94531 23.416 5.08008 23.5215 5.18555 23.7324C5.20898 23.7559 5.26758 23.8145 5.36133 23.9082C5.45508 24.002 5.58398 24.1016 5.74805 24.207C5.92383 24.3008 6.13477 24.3887 6.38086 24.4707C6.63867 24.5527 6.9375 24.5938 7.27734 24.5938C8.01562 24.5938 8.61914 24.3711 9.08789 23.9258C9.55664 23.4688 9.79102 22.8535 9.79102 22.0801C9.79102 21.541 9.66211 21.0605 9.4043 20.6387C9.1582 20.2168 8.83008 19.8242 8.41992 19.4609C8.00977 19.0977 7.54102 18.7461 7.01367 18.4062C6.48633 18.0547 5.94727 17.6914 5.39648 17.3164C4.8457 16.9414 4.30664 16.5371 3.7793 16.1035C3.25195 15.6699 2.7832 15.1719 2.37305 14.6094C1.96289 14.0469 1.62891 13.4141 1.37109 12.7109C1.125 11.9961 1.00195 11.1816 1.00195 10.2676C1.00195 9.48242 1.13672 8.69141 1.40625 7.89453C1.67578 7.09766 2.04492 6.3418 2.51367 5.62695C2.99414 4.90039 3.55664 4.22656 4.20117 3.60547C4.8457 2.97266 5.54297 2.42773 6.29297 1.9707C7.04297 1.50195 7.82227 1.13867 8.63086 0.880859C9.45117 0.611328 10.2715 0.476562 11.0918 0.476562C11.7949 0.476562 12.4277 0.587891 12.9902 0.810547C13.5527 1.0332 14.0273 1.34961 14.4141 1.75977C14.8008 2.1582 15.0996 2.64453 15.3105 3.21875C15.5215 3.78125 15.627 4.41406 15.627 5.11719C15.627 5.78516 15.5098 6.44141 15.2754 7.08594C15.041 7.73047 14.7305 8.33984 14.3438 8.91406C13.957 9.48828 13.5176 10.0215 13.0254 10.5137C12.5449 10.9941 12.0469 11.416 11.5312 11.7793C11.0273 12.1309 10.5352 12.4062 10.0547 12.6055C9.57422 12.8047 9.15234 12.9043 8.78906 12.9043C8.47266 12.9043 8.18555 12.834 7.92773 12.6934C7.68164 12.541 7.4707 12.3594 7.29492 12.1484C7.13086 11.9258 7.00195 11.6973 6.9082 11.4629C6.81445 11.2168 6.76758 11 6.76758 10.8125C6.76758 10.6602 6.78516 10.5605 6.82031 10.5137C6.86719 10.4668 6.92578 10.4492 6.99609 10.4609C7.07812 10.4609 7.17773 10.4785 7.29492 10.5137C7.41211 10.5371 7.54688 10.5488 7.69922 10.5488C8.19141 10.5488 8.73633 10.3789 9.33398 10.0391C9.93164 9.69922 10.4941 9.26562 11.0215 8.73828C11.5488 8.21094 11.9883 7.63086 12.3398 6.99805C12.7031 6.36523 12.8848 5.75 12.8848 5.15234C12.8848 4.54297 12.7324 4.0625 12.4277 3.71094C12.1348 3.35938 11.6309 3.18359 10.916 3.18359C10.4707 3.18359 9.98438 3.27148 9.45703 3.44727C8.94141 3.61133 8.41992 3.8457 7.89258 4.15039C7.36523 4.45508 6.85547 4.82422 6.36328 5.25781C5.87109 5.69141 5.4375 6.17188 5.0625 6.69922C4.6875 7.21484 4.38281 7.77734 4.14844 8.38672C3.92578 8.98438 3.81445 9.61133 3.81445 10.2676C3.81445 10.959 3.9375 11.5801 4.18359 12.1309C4.44141 12.6699 4.77539 13.1621 5.18555 13.6074C5.60742 14.0527 6.08203 14.4629 6.60938 14.8379C7.13672 15.2129 7.67578 15.5879 8.22656 15.9629C8.77734 16.3262 9.31641 16.707 9.84375 17.1055C10.3711 17.4922 10.8398 17.9258 11.25 18.4062C11.6719 18.875 12.0059 19.4023 12.252 19.9883C12.5098 20.5625 12.6387 21.2246 12.6387 21.9746C12.6387 22.7012 12.498 23.3926 12.2168 24.0488C11.9473 24.6934 11.5723 25.2559 11.0918 25.7363C10.6113 26.2168 10.043 26.5977 9.38672 26.8789C8.73047 27.1602 8.02734 27.3008 7.27734 27.3008Z" fill="#8898AA"/>
<path d="M19.5019 8.68555C19.2089 8.68555 18.9277 8.62695 18.6581 8.50977C18.4003 8.39258 18.1718 8.23438 17.9726 8.03516C17.7851 7.83594 17.6327 7.60742 17.5155 7.34961C17.3984 7.08008 17.3398 6.79297 17.3398 6.48828C17.3398 6.17188 17.3984 5.87891 17.5155 5.60938C17.6327 5.33984 17.7851 5.11133 17.9726 4.92383C18.1718 4.72461 18.4003 4.57227 18.6581 4.4668C18.9277 4.34961 19.2089 4.29102 19.5019 4.29102C19.8183 4.29102 20.1112 4.34961 20.3808 4.4668C20.6503 4.57227 20.8788 4.72461 21.0663 4.92383C21.2655 5.11133 21.4179 5.33984 21.5234 5.60938C21.6405 5.87891 21.6991 6.17188 21.6991 6.48828C21.6991 6.79297 21.6405 7.08008 21.5234 7.34961C21.4179 7.60742 21.2655 7.83594 21.0663 8.03516C20.8788 8.23438 20.6503 8.39258 20.3808 8.50977C20.1112 8.62695 19.8183 8.68555 19.5019 8.68555ZM20.328 22.9766C20.328 23.0586 20.3339 23.1934 20.3456 23.3809C20.3573 23.5566 20.3925 23.7383 20.4511 23.9258C20.5097 24.1133 20.6034 24.2773 20.7323 24.418C20.8612 24.5586 21.0429 24.6289 21.2773 24.6289C21.6288 24.6289 21.9335 24.5 22.1913 24.2422C22.4609 23.9844 22.6894 23.6621 22.8769 23.2754C23.0761 22.8887 23.2402 22.4727 23.3691 22.0273C23.498 21.5703 23.6034 21.1426 23.6855 20.7441C23.7558 20.3809 23.8612 20.1172 24.0019 19.9531C24.1542 19.7891 24.3124 19.7012 24.4765 19.6895C24.6523 19.666 24.8222 19.707 24.9862 19.8125C25.162 19.918 25.3144 20.0586 25.4433 20.2344C25.5839 20.3984 25.6835 20.5859 25.7421 20.7969C25.8124 21.0078 25.8241 21.207 25.7773 21.3945C25.6132 21.9922 25.3964 22.6191 25.1269 23.2754C24.8691 23.9316 24.5351 24.5352 24.1249 25.0859C23.7148 25.6367 23.2226 26.0938 22.6484 26.457C22.0741 26.8203 21.4003 27.002 20.6269 27.002C20.1464 27.002 19.7187 26.9082 19.3437 26.7207C18.9687 26.5449 18.6523 26.3047 18.3945 26C18.1366 25.6953 17.9374 25.3379 17.7968 24.9277C17.6679 24.5176 17.6034 24.084 17.6034 23.627V14.0117C17.6034 13.6719 17.5741 13.4258 17.5155 13.2734C17.4687 13.1211 17.4452 12.9805 17.4452 12.8516C17.4452 12.6758 17.539 12.5352 17.7265 12.4297C17.914 12.3125 18.1366 12.2539 18.3945 12.2539C18.9921 12.2539 19.4609 12.4121 19.8007 12.7285C20.1523 13.0332 20.328 13.4023 20.328 13.8359V22.9766Z" fill="#8898AA"/>
<path d="M24.9061 3.81641C24.9061 3.55859 24.8827 3.35352 24.8358 3.20117C24.8006 3.04883 24.7596 2.93164 24.7127 2.84961C24.6776 2.75586 24.6366 2.68555 24.5897 2.63867C24.5545 2.58008 24.537 2.52148 24.537 2.46289C24.537 2.39258 24.5721 2.33398 24.6424 2.28711C24.7127 2.24023 24.8065 2.19922 24.9237 2.16406C25.0409 2.12891 25.1639 2.10547 25.2928 2.09375C25.4334 2.07031 25.5682 2.05859 25.6971 2.05859C26.2948 2.05859 26.7635 2.2168 27.1034 2.5332C27.4549 2.83789 27.6307 3.20703 27.6307 3.64062V15.4531C27.8768 14.9492 28.1405 14.4805 28.4217 14.0469C28.7147 13.6133 29.0252 13.2383 29.3534 12.9219C29.6932 12.5938 30.0506 12.3418 30.4256 12.166C30.8123 11.9785 31.2284 11.8848 31.6737 11.8848C32.2713 11.8848 32.7635 11.9961 33.1502 12.2188C33.537 12.4414 33.8416 12.7285 34.0643 13.0801C34.287 13.4316 34.4393 13.8242 34.5213 14.2578C34.6151 14.6914 34.662 15.1133 34.662 15.5234V22.9766C34.662 23.0586 34.6678 23.1934 34.6795 23.3809C34.6912 23.5566 34.7264 23.7383 34.785 23.9258C34.8436 24.1133 34.9315 24.2773 35.0487 24.418C35.1776 24.5586 35.3592 24.6289 35.5936 24.6289C35.9569 24.6289 36.2674 24.5 36.5252 24.2422C36.7948 23.9844 37.0233 23.6621 37.2108 23.2754C37.41 22.8887 37.5682 22.4727 37.6854 22.0273C37.8143 21.5703 37.9198 21.1426 38.0018 20.7441C38.0721 20.3809 38.1776 20.1172 38.3182 19.9531C38.4705 19.7891 38.6287 19.7012 38.7928 19.6895C38.9686 19.666 39.1444 19.707 39.3202 19.8125C39.4959 19.918 39.6483 20.0586 39.7772 20.2344C39.9061 20.3984 39.9998 20.5859 40.0584 20.7969C40.1287 21.0078 40.1405 21.207 40.0936 21.3945C39.9295 21.9922 39.7127 22.6191 39.4432 23.2754C39.1854 23.9316 38.8514 24.5352 38.4412 25.0859C38.0311 25.6367 37.5389 26.0938 36.9647 26.457C36.3905 26.8203 35.7166 27.002 34.9432 27.002C34.4627 27.002 34.035 26.9082 33.66 26.7207C33.2967 26.5449 32.9803 26.3047 32.7108 26C32.453 25.6953 32.2537 25.3379 32.1131 24.9277C31.9842 24.5176 31.9198 24.084 31.9198 23.627V16.3145C31.9198 16.0332 31.9139 15.7695 31.9022 15.5234C31.8905 15.2773 31.8553 15.0605 31.7967 14.873C31.7498 14.6855 31.6737 14.5391 31.5682 14.4336C31.4745 14.3164 31.3397 14.2578 31.1639 14.2578C30.9061 14.2578 30.5897 14.4336 30.2147 14.7852C29.8397 15.1367 29.4705 15.5938 29.1073 16.1562C28.744 16.7188 28.4217 17.3574 28.1405 18.0723C27.8709 18.7754 27.701 19.4844 27.6307 20.1992V25.4551C27.6307 25.6309 27.6248 25.8125 27.6131 26C27.6131 26.1758 27.578 26.334 27.5077 26.4746C27.4491 26.627 27.3495 26.75 27.2088 26.8438C27.0799 26.9492 26.8866 27.002 26.6287 27.002C26.453 27.002 26.2596 26.9785 26.0487 26.9316C25.8495 26.8965 25.662 26.8203 25.4862 26.7031C25.3221 26.5977 25.1815 26.4395 25.0643 26.2285C24.9588 26.0293 24.9061 25.7598 24.9061 25.4199V3.81641Z" fill="#8898AA"/>
<path d="M49.4177 24.6289C49.781 24.6289 50.0916 24.5 50.3494 24.2422C50.6189 23.9844 50.8474 23.6621 51.0349 23.2754C51.2341 22.8887 51.3923 22.4727 51.5095 22.0273C51.6384 21.5703 51.7439 21.1426 51.8259 20.7441C51.908 20.3691 52.0252 20.0996 52.1775 19.9355C52.3416 19.7598 52.5173 19.6719 52.7048 19.6719C52.8455 19.6719 52.9861 19.7188 53.1267 19.8125C53.2791 19.8945 53.4138 20.0059 53.531 20.1465C53.6599 20.2871 53.7595 20.4453 53.8298 20.6211C53.9119 20.7969 53.9529 20.9727 53.9529 21.1484C53.9529 21.1719 53.9529 21.2012 53.9529 21.2363C53.9529 21.2715 53.9412 21.3242 53.9177 21.3945C53.7654 21.9922 53.5545 22.6191 53.2849 23.2754C53.0271 23.9316 52.6931 24.5352 52.283 25.0859C51.8728 25.6367 51.3748 26.0938 50.7888 26.457C50.2146 26.8203 49.5408 27.002 48.7673 27.002C48.1345 27.002 47.5837 26.8672 47.115 26.5977C46.6462 26.3281 46.2771 25.9707 46.0076 25.5254C45.6443 25.9355 45.2048 26.2812 44.6892 26.5625C44.1853 26.8555 43.5935 27.002 42.9138 27.002C42.2107 27.002 41.5896 26.8613 41.0505 26.5801C40.5232 26.2988 40.0779 25.918 39.7146 25.4375C39.3513 24.9453 39.0759 24.3711 38.8884 23.7148C38.7127 23.0469 38.6248 22.332 38.6248 21.5703C38.6248 20.0703 38.865 18.7227 39.3455 17.5273C39.8259 16.332 40.4646 15.3184 41.2615 14.4863C42.0584 13.6426 42.9666 12.998 43.9861 12.5527C45.0173 12.1074 46.0837 11.8848 47.1853 11.8848C47.6775 11.8848 48.0759 12.0195 48.3806 12.2891C48.6853 12.5586 48.8377 12.9277 48.8377 13.3965C48.8377 13.7012 48.8025 13.918 48.7322 14.0469C48.6736 14.1641 48.5564 14.2227 48.3806 14.2227C48.2166 14.2227 48.0466 14.2109 47.8709 14.1875C47.6951 14.1641 47.5134 14.1523 47.3259 14.1523C46.6462 14.1523 45.9548 14.3047 45.2517 14.6094C44.5486 14.9023 43.9099 15.3594 43.3357 15.9805C42.7732 16.5898 42.3103 17.3691 41.947 18.3184C41.5837 19.2559 41.4021 20.375 41.4021 21.6758C41.4021 22.625 41.5837 23.3574 41.947 23.873C42.3103 24.377 42.8084 24.6289 43.4412 24.6289C43.9334 24.6289 44.3435 24.4473 44.6716 24.084C44.9998 23.709 45.2634 23.2695 45.4627 22.7656V17.2109C45.4627 17.0352 45.4509 16.8887 45.4275 16.7715C45.4158 16.6543 45.3982 16.5547 45.3748 16.4727C45.363 16.3906 45.3513 16.3203 45.3396 16.2617C45.3279 16.1914 45.322 16.127 45.322 16.0684C45.322 15.8809 45.4099 15.7344 45.5857 15.6289C45.7732 15.5117 45.9959 15.4531 46.2537 15.4531C46.8513 15.4531 47.3259 15.6113 47.6775 15.9277C48.0291 16.2324 48.2048 16.6016 48.2048 17.0352V22.9766C48.2048 23.1758 48.2283 23.375 48.2752 23.5742C48.322 23.7617 48.3923 23.9375 48.4861 24.1016C48.5798 24.2539 48.7029 24.3828 48.8552 24.4883C49.0193 24.582 49.2068 24.6289 49.4177 24.6289Z" fill="#8898AA"/>
<path d="M55.8063 15.3477C55.9352 15.1016 56.0583 14.7734 56.1755 14.3633C56.3044 13.9414 56.4216 13.4785 56.527 12.9746C56.6442 12.4707 56.7497 11.9434 56.8434 11.3926C56.9372 10.8418 57.0192 10.3027 57.0895 9.77539C57.1598 9.24805 57.2126 8.75586 57.2477 8.29883C57.2946 7.83008 57.318 7.43164 57.318 7.10352C57.318 5.9082 57.2302 5.03516 57.0544 4.48438C56.8786 3.92188 56.6442 3.64062 56.3512 3.64062C56.2575 3.64062 56.1755 3.6875 56.1052 3.78125C56.0348 3.875 55.9762 3.99805 55.9294 4.15039C55.8825 4.29102 55.8473 4.44922 55.8239 4.625C55.8122 4.78906 55.8063 4.94141 55.8063 5.08203V15.3477ZM60.9216 20.7793C60.9919 20.4277 61.0973 20.1758 61.238 20.0234C61.3903 19.8594 61.5485 19.7715 61.7126 19.7598C61.8884 19.7363 62.0641 19.7773 62.2399 19.8828C62.4157 19.9766 62.568 20.1055 62.697 20.2695C62.8259 20.4336 62.9196 20.6211 62.9782 20.832C63.0485 21.0312 63.0602 21.2305 63.0134 21.4297C62.8493 21.9102 62.6149 22.4727 62.3102 23.1172C62.0055 23.7617 61.6188 24.3711 61.1501 24.9453C60.6813 25.5195 60.1305 26.0059 59.4977 26.4043C58.8649 26.8027 58.1384 27.002 57.318 27.002C56.6266 27.002 56.0173 26.8848 55.4899 26.6504C54.9626 26.4277 54.5173 26.1113 54.154 25.7012C53.8024 25.2793 53.5329 24.7812 53.3454 24.207C53.1696 23.6211 53.0817 22.9707 53.0817 22.2559V5.87305C53.0817 5.20508 53.1637 4.58984 53.3278 4.02734C53.5036 3.45312 53.738 2.9668 54.0309 2.56836C54.3356 2.1582 54.6872 1.8418 55.0856 1.61914C55.4841 1.38477 55.9059 1.26758 56.3512 1.26758C56.8786 1.26758 57.3239 1.36719 57.6872 1.56641C58.0505 1.75391 58.3493 2.00586 58.5837 2.32227C58.818 2.63867 58.9997 3.00195 59.1286 3.41211C59.2692 3.82227 59.3688 4.24414 59.4274 4.67773C59.486 5.09961 59.5212 5.52148 59.5329 5.94336C59.5446 6.35352 59.5505 6.72852 59.5505 7.06836C59.5505 7.94727 59.4684 8.87305 59.3044 9.8457C59.1403 10.8066 58.9294 11.7559 58.6716 12.6934C58.4255 13.6309 58.1501 14.5332 57.8454 15.4004C57.5524 16.2559 57.2653 17.0176 56.9841 17.6855C56.7145 18.3535 56.4684 18.8984 56.2458 19.3203C56.0348 19.7422 55.8884 19.9883 55.8063 20.0586V22.1504C55.8063 22.877 55.9587 23.4746 56.2634 23.9434C56.568 24.4004 57.0544 24.6289 57.7223 24.6289C58.1325 24.6289 58.5134 24.5059 58.8649 24.2598C59.2282 24.002 59.5446 23.6855 59.8141 23.3105C60.0954 22.9238 60.3298 22.5078 60.5173 22.0625C60.7048 21.6055 60.8395 21.1777 60.9216 20.7793Z" fill="#8898AA"/>
<path d="M75.273 20.0586C75.2965 19.918 75.3727 19.8008 75.5016 19.707C75.6422 19.6133 75.8004 19.5488 75.9762 19.5137C76.152 19.4785 76.3336 19.4785 76.5211 19.5137C76.7203 19.5488 76.8902 19.6309 77.0309 19.7598C77.1832 19.877 77.2887 20.0469 77.3473 20.2695C77.4176 20.4805 77.4117 20.7559 77.3297 21.0957C77.2242 21.5879 77.0484 22.0508 76.8023 22.4844C76.568 22.9062 76.2691 23.2812 75.9059 23.6094C75.5426 23.9375 75.1148 24.1953 74.6227 24.3828C74.1305 24.5703 73.5797 24.6641 72.9703 24.6641C72.6422 24.6641 72.3316 24.6465 72.0387 24.6113C71.7574 24.5762 71.482 24.5117 71.2125 24.418C70.7672 25.1914 70.193 25.8125 69.4898 26.2812C68.7867 26.7617 67.9195 27.002 66.8883 27.002C65.9742 27.002 65.1891 26.8203 64.5328 26.457C63.8766 26.1055 63.3316 25.625 62.898 25.0156C62.4645 24.3945 62.1422 23.6797 61.9313 22.8711C61.732 22.0625 61.6324 21.207 61.6324 20.3047C61.6324 18.9805 61.7848 17.7969 62.0895 16.7539C62.4059 15.6992 62.7691 14.8086 63.1793 14.082C63.5895 13.3438 63.9938 12.7812 64.3922 12.3945C64.8023 12.0078 65.107 11.8145 65.3063 11.8145C65.5406 11.8145 65.7516 11.9199 65.9391 12.1309C66.1383 12.3301 66.2789 12.5703 66.3609 12.8516C66.4547 13.1211 66.4781 13.3965 66.4313 13.6777C66.3961 13.959 66.2613 14.1758 66.027 14.3281C65.8863 14.5508 65.7164 14.8086 65.5172 15.1016C65.3297 15.3945 65.148 15.7637 64.9723 16.209C64.8082 16.6426 64.6676 17.1758 64.5504 17.8086C64.4332 18.4414 64.3746 19.2031 64.3746 20.0938C64.3746 20.8555 64.4391 21.5176 64.568 22.0801C64.7086 22.6426 64.8961 23.1172 65.1305 23.5039C65.3766 23.8789 65.652 24.1602 65.9566 24.3477C66.273 24.5352 66.607 24.6289 66.9586 24.6289C67.4742 24.6289 67.8961 24.5059 68.2242 24.2598C68.5641 24.002 68.8512 23.668 69.0855 23.2578C68.2418 22.5312 67.5973 21.6113 67.152 20.498C66.7184 19.373 66.5016 18.1602 66.5016 16.8594C66.5016 16.2969 66.5602 15.7637 66.6773 15.2598C66.8063 14.7441 66.9879 14.293 67.2223 13.9062C67.4684 13.5195 67.773 13.2148 68.1363 12.9922C68.4996 12.7578 68.9215 12.6406 69.402 12.6406C69.8238 12.6406 70.2223 12.793 70.5973 13.0977C70.9723 13.4023 71.3004 13.8242 71.5816 14.3633C71.8629 14.9023 72.0797 15.541 72.232 16.2793C72.3961 17.0176 72.4781 17.8203 72.4781 18.6875C72.4781 19.3555 72.4371 20.0176 72.3551 20.6738C72.273 21.3301 72.1441 21.9629 71.9684 22.5723C72.0973 22.6191 72.2145 22.6484 72.3199 22.6602C72.4371 22.6602 72.5602 22.6602 72.6891 22.6602C73.0758 22.6602 73.4156 22.5898 73.7086 22.4492C74.0133 22.3086 74.2711 22.1211 74.482 21.8867C74.693 21.6523 74.8629 21.377 74.9918 21.0605C75.1207 20.7441 75.2145 20.4102 75.273 20.0586ZM68.4 16.7188C68.4 17.5273 68.523 18.2949 68.7691 19.0215C69.027 19.748 69.3609 20.3809 69.7711 20.9199C69.8414 20.3457 69.8766 19.7949 69.8766 19.2676C69.8766 18.6582 69.8648 18.0957 69.8414 17.5801C69.8297 17.0527 69.7887 16.6016 69.7184 16.2266C69.6598 15.8516 69.5719 15.5586 69.4547 15.3477C69.3492 15.125 69.2027 15.0137 69.0152 15.0137C68.6051 15.0137 68.4 15.582 68.4 16.7188Z" fill="#8898AA"/>
<path d="M7.27734 27.3008C6.51562 27.3008 5.88281 27.2129 5.37891 27.0371C4.875 26.873 4.47656 26.6855 4.18359 26.4746C3.89062 26.2637 3.68555 26.0645 3.56836 25.877C3.45117 25.6777 3.39258 25.5488 3.39258 25.4902C3.39258 25.2793 3.43945 25.0566 3.5332 24.8223C3.62695 24.5762 3.74414 24.3535 3.88477 24.1543C4.02539 23.9434 4.17773 23.7676 4.3418 23.627C4.50586 23.4863 4.65234 23.416 4.78125 23.416C4.94531 23.416 5.08008 23.5215 5.18555 23.7324C5.20898 23.7559 5.26758 23.8145 5.36133 23.9082C5.45508 24.002 5.58398 24.1016 5.74805 24.207C5.92383 24.3008 6.13477 24.3887 6.38086 24.4707C6.63867 24.5527 6.9375 24.5938 7.27734 24.5938C8.01562 24.5938 8.61914 24.3711 9.08789 23.9258C9.55664 23.4688 9.79102 22.8535 9.79102 22.0801C9.79102 21.541 9.66211 21.0605 9.4043 20.6387C9.1582 20.2168 8.83008 19.8242 8.41992 19.4609C8.00977 19.0977 7.54102 18.7461 7.01367 18.4062C6.48633 18.0547 5.94727 17.6914 5.39648 17.3164C4.8457 16.9414 4.30664 16.5371 3.7793 16.1035C3.25195 15.6699 2.7832 15.1719 2.37305 14.6094C1.96289 14.0469 1.62891 13.4141 1.37109 12.7109C1.125 11.9961 1.00195 11.1816 1.00195 10.2676C1.00195 9.48242 1.13672 8.69141 1.40625 7.89453C1.67578 7.09766 2.04492 6.3418 2.51367 5.62695C2.99414 4.90039 3.55664 4.22656 4.20117 3.60547C4.8457 2.97266 5.54297 2.42773 6.29297 1.9707C7.04297 1.50195 7.82227 1.13867 8.63086 0.880859C9.45117 0.611328 10.2715 0.476562 11.0918 0.476562C11.7949 0.476562 12.4277 0.587891 12.9902 0.810547C13.5527 1.0332 14.0273 1.34961 14.4141 1.75977C14.8008 2.1582 15.0996 2.64453 15.3105 3.21875C15.5215 3.78125 15.627 4.41406 15.627 5.11719C15.627 5.78516 15.5098 6.44141 15.2754 7.08594C15.041 7.73047 14.7305 8.33984 14.3438 8.91406C13.957 9.48828 13.5176 10.0215 13.0254 10.5137C12.5449 10.9941 12.0469 11.416 11.5312 11.7793C11.0273 12.1309 10.5352 12.4062 10.0547 12.6055C9.57422 12.8047 9.15234 12.9043 8.78906 12.9043C8.47266 12.9043 8.18555 12.834 7.92773 12.6934C7.68164 12.541 7.4707 12.3594 7.29492 12.1484C7.13086 11.9258 7.00195 11.6973 6.9082 11.4629C6.81445 11.2168 6.76758 11 6.76758 10.8125C6.76758 10.6602 6.78516 10.5605 6.82031 10.5137C6.86719 10.4668 6.92578 10.4492 6.99609 10.4609C7.07812 10.4609 7.17773 10.4785 7.29492 10.5137C7.41211 10.5371 7.54688 10.5488 7.69922 10.5488C8.19141 10.5488 8.73633 10.3789 9.33398 10.0391C9.93164 9.69922 10.4941 9.26562 11.0215 8.73828C11.5488 8.21094 11.9883 7.63086 12.3398 6.99805C12.7031 6.36523 12.8848 5.75 12.8848 5.15234C12.8848 4.54297 12.7324 4.0625 12.4277 3.71094C12.1348 3.35938 11.6309 3.18359 10.916 3.18359C10.4707 3.18359 9.98438 3.27148 9.45703 3.44727C8.94141 3.61133 8.41992 3.8457 7.89258 4.15039C7.36523 4.45508 6.85547 4.82422 6.36328 5.25781C5.87109 5.69141 5.4375 6.17188 5.0625 6.69922C4.6875 7.21484 4.38281 7.77734 4.14844 8.38672C3.92578 8.98438 3.81445 9.61133 3.81445 10.2676C3.81445 10.959 3.9375 11.5801 4.18359 12.1309C4.44141 12.6699 4.77539 13.1621 5.18555 13.6074C5.60742 14.0527 6.08203 14.4629 6.60938 14.8379C7.13672 15.2129 7.67578 15.5879 8.22656 15.9629C8.77734 16.3262 9.31641 16.707 9.84375 17.1055C10.3711 17.4922 10.8398 17.9258 11.25 18.4062C11.6719 18.875 12.0059 19.4023 12.252 19.9883C12.5098 20.5625 12.6387 21.2246 12.6387 21.9746C12.6387 22.7012 12.498 23.3926 12.2168 24.0488C11.9473 24.6934 11.5723 25.2559 11.0918 25.7363C10.6113 26.2168 10.043 26.5977 9.38672 26.8789C8.73047 27.1602 8.02734 27.3008 7.27734 27.3008Z" stroke="#8898AA" stroke-width="0.5" mask="url(#path-1-outside-1)"/>
<path d="M19.5019 8.68555C19.2089 8.68555 18.9277 8.62695 18.6581 8.50977C18.4003 8.39258 18.1718 8.23438 17.9726 8.03516C17.7851 7.83594 17.6327 7.60742 17.5155 7.34961C17.3984 7.08008 17.3398 6.79297 17.3398 6.48828C17.3398 6.17188 17.3984 5.87891 17.5155 5.60938C17.6327 5.33984 17.7851 5.11133 17.9726 4.92383C18.1718 4.72461 18.4003 4.57227 18.6581 4.4668C18.9277 4.34961 19.2089 4.29102 19.5019 4.29102C19.8183 4.29102 20.1112 4.34961 20.3808 4.4668C20.6503 4.57227 20.8788 4.72461 21.0663 4.92383C21.2655 5.11133 21.4179 5.33984 21.5234 5.60938C21.6405 5.87891 21.6991 6.17188 21.6991 6.48828C21.6991 6.79297 21.6405 7.08008 21.5234 7.34961C21.4179 7.60742 21.2655 7.83594 21.0663 8.03516C20.8788 8.23438 20.6503 8.39258 20.3808 8.50977C20.1112 8.62695 19.8183 8.68555 19.5019 8.68555ZM20.328 22.9766C20.328 23.0586 20.3339 23.1934 20.3456 23.3809C20.3573 23.5566 20.3925 23.7383 20.4511 23.9258C20.5097 24.1133 20.6034 24.2773 20.7323 24.418C20.8612 24.5586 21.0429 24.6289 21.2773 24.6289C21.6288 24.6289 21.9335 24.5 22.1913 24.2422C22.4609 23.9844 22.6894 23.6621 22.8769 23.2754C23.0761 22.8887 23.2402 22.4727 23.3691 22.0273C23.498 21.5703 23.6034 21.1426 23.6855 20.7441C23.7558 20.3809 23.8612 20.1172 24.0019 19.9531C24.1542 19.7891 24.3124 19.7012 24.4765 19.6895C24.6523 19.666 24.8222 19.707 24.9862 19.8125C25.162 19.918 25.3144 20.0586 25.4433 20.2344C25.5839 20.3984 25.6835 20.5859 25.7421 20.7969C25.8124 21.0078 25.8241 21.207 25.7773 21.3945C25.6132 21.9922 25.3964 22.6191 25.1269 23.2754C24.8691 23.9316 24.5351 24.5352 24.1249 25.0859C23.7148 25.6367 23.2226 26.0938 22.6484 26.457C22.0741 26.8203 21.4003 27.002 20.6269 27.002C20.1464 27.002 19.7187 26.9082 19.3437 26.7207C18.9687 26.5449 18.6523 26.3047 18.3945 26C18.1366 25.6953 17.9374 25.3379 17.7968 24.9277C17.6679 24.5176 17.6034 24.084 17.6034 23.627V14.0117C17.6034 13.6719 17.5741 13.4258 17.5155 13.2734C17.4687 13.1211 17.4452 12.9805 17.4452 12.8516C17.4452 12.6758 17.539 12.5352 17.7265 12.4297C17.914 12.3125 18.1366 12.2539 18.3945 12.2539C18.9921 12.2539 19.4609 12.4121 19.8007 12.7285C20.1523 13.0332 20.328 13.4023 20.328 13.8359V22.9766Z" stroke="#8898AA" stroke-width="0.5" mask="url(#path-1-outside-1)"/>
<path d="M24.9061 3.81641C24.9061 3.55859 24.8827 3.35352 24.8358 3.20117C24.8006 3.04883 24.7596 2.93164 24.7127 2.84961C24.6776 2.75586 24.6366 2.68555 24.5897 2.63867C24.5545 2.58008 24.537 2.52148 24.537 2.46289C24.537 2.39258 24.5721 2.33398 24.6424 2.28711C24.7127 2.24023 24.8065 2.19922 24.9237 2.16406C25.0409 2.12891 25.1639 2.10547 25.2928 2.09375C25.4334 2.07031 25.5682 2.05859 25.6971 2.05859C26.2948 2.05859 26.7635 2.2168 27.1034 2.5332C27.4549 2.83789 27.6307 3.20703 27.6307 3.64062V15.4531C27.8768 14.9492 28.1405 14.4805 28.4217 14.0469C28.7147 13.6133 29.0252 13.2383 29.3534 12.9219C29.6932 12.5938 30.0506 12.3418 30.4256 12.166C30.8123 11.9785 31.2284 11.8848 31.6737 11.8848C32.2713 11.8848 32.7635 11.9961 33.1502 12.2188C33.537 12.4414 33.8416 12.7285 34.0643 13.0801C34.287 13.4316 34.4393 13.8242 34.5213 14.2578C34.6151 14.6914 34.662 15.1133 34.662 15.5234V22.9766C34.662 23.0586 34.6678 23.1934 34.6795 23.3809C34.6912 23.5566 34.7264 23.7383 34.785 23.9258C34.8436 24.1133 34.9315 24.2773 35.0487 24.418C35.1776 24.5586 35.3592 24.6289 35.5936 24.6289C35.9569 24.6289 36.2674 24.5 36.5252 24.2422C36.7948 23.9844 37.0233 23.6621 37.2108 23.2754C37.41 22.8887 37.5682 22.4727 37.6854 22.0273C37.8143 21.5703 37.9198 21.1426 38.0018 20.7441C38.0721 20.3809 38.1776 20.1172 38.3182 19.9531C38.4705 19.7891 38.6287 19.7012 38.7928 19.6895C38.9686 19.666 39.1444 19.707 39.3202 19.8125C39.4959 19.918 39.6483 20.0586 39.7772 20.2344C39.9061 20.3984 39.9998 20.5859 40.0584 20.7969C40.1287 21.0078 40.1405 21.207 40.0936 21.3945C39.9295 21.9922 39.7127 22.6191 39.4432 23.2754C39.1854 23.9316 38.8514 24.5352 38.4412 25.0859C38.0311 25.6367 37.5389 26.0938 36.9647 26.457C36.3905 26.8203 35.7166 27.002 34.9432 27.002C34.4627 27.002 34.035 26.9082 33.66 26.7207C33.2967 26.5449 32.9803 26.3047 32.7108 26C32.453 25.6953 32.2537 25.3379 32.1131 24.9277C31.9842 24.5176 31.9198 24.084 31.9198 23.627V16.3145C31.9198 16.0332 31.9139 15.7695 31.9022 15.5234C31.8905 15.2773 31.8553 15.0605 31.7967 14.873C31.7498 14.6855 31.6737 14.5391 31.5682 14.4336C31.4745 14.3164 31.3397 14.2578 31.1639 14.2578C30.9061 14.2578 30.5897 14.4336 30.2147 14.7852C29.8397 15.1367 29.4705 15.5938 29.1073 16.1562C28.744 16.7188 28.4217 17.3574 28.1405 18.0723C27.8709 18.7754 27.701 19.4844 27.6307 20.1992V25.4551C27.6307 25.6309 27.6248 25.8125 27.6131 26C27.6131 26.1758 27.578 26.334 27.5077 26.4746C27.4491 26.627 27.3495 26.75 27.2088 26.8438C27.0799 26.9492 26.8866 27.002 26.6287 27.002C26.453 27.002 26.2596 26.9785 26.0487 26.9316C25.8495 26.8965 25.662 26.8203 25.4862 26.7031C25.3221 26.5977 25.1815 26.4395 25.0643 26.2285C24.9588 26.0293 24.9061 25.7598 24.9061 25.4199V3.81641Z" stroke="#8898AA" stroke-width="0.5" mask="url(#path-1-outside-1)"/>
<path d="M49.4177 24.6289C49.781 24.6289 50.0916 24.5 50.3494 24.2422C50.6189 23.9844 50.8474 23.6621 51.0349 23.2754C51.2341 22.8887 51.3923 22.4727 51.5095 22.0273C51.6384 21.5703 51.7439 21.1426 51.8259 20.7441C51.908 20.3691 52.0252 20.0996 52.1775 19.9355C52.3416 19.7598 52.5173 19.6719 52.7048 19.6719C52.8455 19.6719 52.9861 19.7188 53.1267 19.8125C53.2791 19.8945 53.4138 20.0059 53.531 20.1465C53.6599 20.2871 53.7595 20.4453 53.8298 20.6211C53.9119 20.7969 53.9529 20.9727 53.9529 21.1484C53.9529 21.1719 53.9529 21.2012 53.9529 21.2363C53.9529 21.2715 53.9412 21.3242 53.9177 21.3945C53.7654 21.9922 53.5545 22.6191 53.2849 23.2754C53.0271 23.9316 52.6931 24.5352 52.283 25.0859C51.8728 25.6367 51.3748 26.0938 50.7888 26.457C50.2146 26.8203 49.5408 27.002 48.7673 27.002C48.1345 27.002 47.5837 26.8672 47.115 26.5977C46.6462 26.3281 46.2771 25.9707 46.0076 25.5254C45.6443 25.9355 45.2048 26.2812 44.6892 26.5625C44.1853 26.8555 43.5935 27.002 42.9138 27.002C42.2107 27.002 41.5896 26.8613 41.0505 26.5801C40.5232 26.2988 40.0779 25.918 39.7146 25.4375C39.3513 24.9453 39.0759 24.3711 38.8884 23.7148C38.7127 23.0469 38.6248 22.332 38.6248 21.5703C38.6248 20.0703 38.865 18.7227 39.3455 17.5273C39.8259 16.332 40.4646 15.3184 41.2615 14.4863C42.0584 13.6426 42.9666 12.998 43.9861 12.5527C45.0173 12.1074 46.0837 11.8848 47.1853 11.8848C47.6775 11.8848 48.0759 12.0195 48.3806 12.2891C48.6853 12.5586 48.8377 12.9277 48.8377 13.3965C48.8377 13.7012 48.8025 13.918 48.7322 14.0469C48.6736 14.1641 48.5564 14.2227 48.3806 14.2227C48.2166 14.2227 48.0466 14.2109 47.8709 14.1875C47.6951 14.1641 47.5134 14.1523 47.3259 14.1523C46.6462 14.1523 45.9548 14.3047 45.2517 14.6094C44.5486 14.9023 43.9099 15.3594 43.3357 15.9805C42.7732 16.5898 42.3103 17.3691 41.947 18.3184C41.5837 19.2559 41.4021 20.375 41.4021 21.6758C41.4021 22.625 41.5837 23.3574 41.947 23.873C42.3103 24.377 42.8084 24.6289 43.4412 24.6289C43.9334 24.6289 44.3435 24.4473 44.6716 24.084C44.9998 23.709 45.2634 23.2695 45.4627 22.7656V17.2109C45.4627 17.0352 45.4509 16.8887 45.4275 16.7715C45.4158 16.6543 45.3982 16.5547 45.3748 16.4727C45.363 16.3906 45.3513 16.3203 45.3396 16.2617C45.3279 16.1914 45.322 16.127 45.322 16.0684C45.322 15.8809 45.4099 15.7344 45.5857 15.6289C45.7732 15.5117 45.9959 15.4531 46.2537 15.4531C46.8513 15.4531 47.3259 15.6113 47.6775 15.9277C48.0291 16.2324 48.2048 16.6016 48.2048 17.0352V22.9766C48.2048 23.1758 48.2283 23.375 48.2752 23.5742C48.322 23.7617 48.3923 23.9375 48.4861 24.1016C48.5798 24.2539 48.7029 24.3828 48.8552 24.4883C49.0193 24.582 49.2068 24.6289 49.4177 24.6289Z" stroke="#8898AA" stroke-width="0.5" mask="url(#path-1-outside-1)"/>
<path d="M55.8063 15.3477C55.9352 15.1016 56.0583 14.7734 56.1755 14.3633C56.3044 13.9414 56.4216 13.4785 56.527 12.9746C56.6442 12.4707 56.7497 11.9434 56.8434 11.3926C56.9372 10.8418 57.0192 10.3027 57.0895 9.77539C57.1598 9.24805 57.2126 8.75586 57.2477 8.29883C57.2946 7.83008 57.318 7.43164 57.318 7.10352C57.318 5.9082 57.2302 5.03516 57.0544 4.48438C56.8786 3.92188 56.6442 3.64062 56.3512 3.64062C56.2575 3.64062 56.1755 3.6875 56.1052 3.78125C56.0348 3.875 55.9762 3.99805 55.9294 4.15039C55.8825 4.29102 55.8473 4.44922 55.8239 4.625C55.8122 4.78906 55.8063 4.94141 55.8063 5.08203V15.3477ZM60.9216 20.7793C60.9919 20.4277 61.0973 20.1758 61.238 20.0234C61.3903 19.8594 61.5485 19.7715 61.7126 19.7598C61.8884 19.7363 62.0641 19.7773 62.2399 19.8828C62.4157 19.9766 62.568 20.1055 62.697 20.2695C62.8259 20.4336 62.9196 20.6211 62.9782 20.832C63.0485 21.0312 63.0602 21.2305 63.0134 21.4297C62.8493 21.9102 62.6149 22.4727 62.3102 23.1172C62.0055 23.7617 61.6188 24.3711 61.1501 24.9453C60.6813 25.5195 60.1305 26.0059 59.4977 26.4043C58.8649 26.8027 58.1384 27.002 57.318 27.002C56.6266 27.002 56.0173 26.8848 55.4899 26.6504C54.9626 26.4277 54.5173 26.1113 54.154 25.7012C53.8024 25.2793 53.5329 24.7812 53.3454 24.207C53.1696 23.6211 53.0817 22.9707 53.0817 22.2559V5.87305C53.0817 5.20508 53.1637 4.58984 53.3278 4.02734C53.5036 3.45312 53.738 2.9668 54.0309 2.56836C54.3356 2.1582 54.6872 1.8418 55.0856 1.61914C55.4841 1.38477 55.9059 1.26758 56.3512 1.26758C56.8786 1.26758 57.3239 1.36719 57.6872 1.56641C58.0505 1.75391 58.3493 2.00586 58.5837 2.32227C58.818 2.63867 58.9997 3.00195 59.1286 3.41211C59.2692 3.82227 59.3688 4.24414 59.4274 4.67773C59.486 5.09961 59.5212 5.52148 59.5329 5.94336C59.5446 6.35352 59.5505 6.72852 59.5505 7.06836C59.5505 7.94727 59.4684 8.87305 59.3044 9.8457C59.1403 10.8066 58.9294 11.7559 58.6716 12.6934C58.4255 13.6309 58.1501 14.5332 57.8454 15.4004C57.5524 16.2559 57.2653 17.0176 56.9841 17.6855C56.7145 18.3535 56.4684 18.8984 56.2458 19.3203C56.0348 19.7422 55.8884 19.9883 55.8063 20.0586V22.1504C55.8063 22.877 55.9587 23.4746 56.2634 23.9434C56.568 24.4004 57.0544 24.6289 57.7223 24.6289C58.1325 24.6289 58.5134 24.5059 58.8649 24.2598C59.2282 24.002 59.5446 23.6855 59.8141 23.3105C60.0954 22.9238 60.3298 22.5078 60.5173 22.0625C60.7048 21.6055 60.8395 21.1777 60.9216 20.7793Z" stroke="#8898AA" stroke-width="0.5" mask="url(#path-1-outside-1)"/>
<path d="M75.273 20.0586C75.2965 19.918 75.3727 19.8008 75.5016 19.707C75.6422 19.6133 75.8004 19.5488 75.9762 19.5137C76.152 19.4785 76.3336 19.4785 76.5211 19.5137C76.7203 19.5488 76.8902 19.6309 77.0309 19.7598C77.1832 19.877 77.2887 20.0469 77.3473 20.2695C77.4176 20.4805 77.4117 20.7559 77.3297 21.0957C77.2242 21.5879 77.0484 22.0508 76.8023 22.4844C76.568 22.9062 76.2691 23.2812 75.9059 23.6094C75.5426 23.9375 75.1148 24.1953 74.6227 24.3828C74.1305 24.5703 73.5797 24.6641 72.9703 24.6641C72.6422 24.6641 72.3316 24.6465 72.0387 24.6113C71.7574 24.5762 71.482 24.5117 71.2125 24.418C70.7672 25.1914 70.193 25.8125 69.4898 26.2812C68.7867 26.7617 67.9195 27.002 66.8883 27.002C65.9742 27.002 65.1891 26.8203 64.5328 26.457C63.8766 26.1055 63.3316 25.625 62.898 25.0156C62.4645 24.3945 62.1422 23.6797 61.9313 22.8711C61.732 22.0625 61.6324 21.207 61.6324 20.3047C61.6324 18.9805 61.7848 17.7969 62.0895 16.7539C62.4059 15.6992 62.7691 14.8086 63.1793 14.082C63.5895 13.3438 63.9938 12.7812 64.3922 12.3945C64.8023 12.0078 65.107 11.8145 65.3063 11.8145C65.5406 11.8145 65.7516 11.9199 65.9391 12.1309C66.1383 12.3301 66.2789 12.5703 66.3609 12.8516C66.4547 13.1211 66.4781 13.3965 66.4313 13.6777C66.3961 13.959 66.2613 14.1758 66.027 14.3281C65.8863 14.5508 65.7164 14.8086 65.5172 15.1016C65.3297 15.3945 65.148 15.7637 64.9723 16.209C64.8082 16.6426 64.6676 17.1758 64.5504 17.8086C64.4332 18.4414 64.3746 19.2031 64.3746 20.0938C64.3746 20.8555 64.4391 21.5176 64.568 22.0801C64.7086 22.6426 64.8961 23.1172 65.1305 23.5039C65.3766 23.8789 65.652 24.1602 65.9566 24.3477C66.273 24.5352 66.607 24.6289 66.9586 24.6289C67.4742 24.6289 67.8961 24.5059 68.2242 24.2598C68.5641 24.002 68.8512 23.668 69.0855 23.2578C68.2418 22.5312 67.5973 21.6113 67.152 20.498C66.7184 19.373 66.5016 18.1602 66.5016 16.8594C66.5016 16.2969 66.5602 15.7637 66.6773 15.2598C66.8063 14.7441 66.9879 14.293 67.2223 13.9062C67.4684 13.5195 67.773 13.2148 68.1363 12.9922C68.4996 12.7578 68.9215 12.6406 69.402 12.6406C69.8238 12.6406 70.2223 12.793 70.5973 13.0977C70.9723 13.4023 71.3004 13.8242 71.5816 14.3633C71.8629 14.9023 72.0797 15.541 72.232 16.2793C72.3961 17.0176 72.4781 17.8203 72.4781 18.6875C72.4781 19.3555 72.4371 20.0176 72.3551 20.6738C72.273 21.3301 72.1441 21.9629 71.9684 22.5723C72.0973 22.6191 72.2145 22.6484 72.3199 22.6602C72.4371 22.6602 72.5602 22.6602 72.6891 22.6602C73.0758 22.6602 73.4156 22.5898 73.7086 22.4492C74.0133 22.3086 74.2711 22.1211 74.482 21.8867C74.693 21.6523 74.8629 21.377 74.9918 21.0605C75.1207 20.7441 75.2145 20.4102 75.273 20.0586ZM68.4 16.7188C68.4 17.5273 68.523 18.2949 68.7691 19.0215C69.027 19.748 69.3609 20.3809 69.7711 20.9199C69.8414 20.3457 69.8766 19.7949 69.8766 19.2676C69.8766 18.6582 69.8648 18.0957 69.8414 17.5801C69.8297 17.0527 69.7887 16.6016 69.7184 16.2266C69.6598 15.8516 69.5719 15.5586 69.4547 15.3477C69.3492 15.125 69.2027 15.0137 69.0152 15.0137C68.6051 15.0137 68.4 15.582 68.4 16.7188Z" stroke="#8898AA" stroke-width="0.5" mask="url(#path-1-outside-1)"/>
</svg>
