<svg width="63" height="54" viewBox="0 0 63 54" fill="none" xmlns="http://www.w3.org/2000/svg">
<rect width="62.9994" height="54.0002" fill="black" fill-opacity="0"/>
<path d="M26.628 54.0001C41.3342 54.0001 53.256 42.0879 53.256 27.3934C53.256 12.6989 41.3342 0.786621 26.628 0.786621C11.9218 0.786621 0 12.6989 0 27.3934C0 42.0879 11.9218 54.0001 26.628 54.0001Z" fill="#FEE289"/>
<path d="M32.334 50.0723C17.6278 50.0723 5.70612 38.1602 5.70612 23.4657C5.70612 15.615 9.10975 8.5595 14.5222 3.68945C5.90164 8.09364 0 17.0549 0 27.3935C0 42.088 11.9216 54.0001 26.6279 54.0001C33.4771 54.0001 39.7216 51.4153 44.4397 47.1699C40.8077 49.0254 36.6933 50.0723 32.334 50.0723Z" fill="#FE8B68" fill-opacity="0.1"/>
<rect width="32.3398" height="20.194" fill="black" fill-opacity="0" transform="translate(16.0928 26.9868)"/>
<path d="M22.8487 30.7018C20.2142 30.7018 17.8338 30.0283 16.4817 28.9C16.0225 28.5169 15.9612 27.8341 16.3446 27.3754C16.728 26.9168 17.4113 26.8551 17.8704 27.2385C18.8159 28.0274 20.7699 28.5372 22.8487 28.5372C24.8774 28.5372 26.8583 28.0177 27.8949 27.2141C28.3675 26.8477 29.0478 26.9335 29.4148 27.4058C29.7815 27.878 29.6956 28.5581 29.2229 28.9245C27.7873 30.0372 25.4043 30.7018 22.8487 30.7018Z" fill="#646464"/>
<path d="M41.6386 30.7018C39.0041 30.7018 36.624 30.0283 35.2717 28.9C34.8125 28.5169 34.7512 27.8341 35.1346 27.3754C35.5179 26.9168 36.2011 26.8551 36.6604 27.2385C37.6059 28.0274 39.5599 28.5372 41.6385 28.5372C43.6673 28.5372 45.6482 28.0177 46.6849 27.2141C47.1575 26.8477 47.8381 26.9335 48.2048 27.4058C48.5715 27.878 48.4856 28.5581 48.013 28.9245C46.5774 30.0372 44.1943 30.7018 41.6386 30.7018Z" fill="#646464"/>
<path d="M31.9879 47.1807C34.4407 47.1807 36.429 45.1939 36.429 42.7432C36.429 40.2924 34.4407 38.3057 31.9879 38.3057C29.5352 38.3057 27.5469 40.2924 27.5469 42.7432C27.5469 45.1939 29.5352 47.1807 31.9879 47.1807Z" fill="#646464"/>
<rect width="34.5439" height="23.3551" fill="black" fill-opacity="0" transform="translate(28.4551)"/>
<path d="M32.1619 23.355C31.9011 23.355 31.6435 23.2612 31.4408 23.0807C31.1145 22.7902 30.9949 22.3321 31.1376 21.9193L32.3349 18.4557L30.0464 19.669C29.5179 19.9494 28.8621 19.7481 28.5816 19.2203C28.3013 18.6922 28.5022 18.037 29.0306 17.7567L33.7488 15.2551C34.1418 15.0469 34.6227 15.0996 34.961 15.3888C35.2991 15.6779 35.4258 16.1442 35.2806 16.5645L34.0326 20.1748L35.9065 19.2763C36.4455 19.0179 37.0929 19.2447 37.3518 19.7838C37.6106 20.3227 37.3833 20.9694 36.8438 21.228L32.6301 23.2484C32.4809 23.3201 32.321 23.355 32.1619 23.355Z" fill="#3B75FF"/>
<path d="M42.7592 18.535C42.5007 18.535 42.2449 18.4426 42.0428 18.2646C41.7132 17.9743 41.5916 17.5141 41.7351 17.0993L43.8123 11.0902L39.5425 13.354C39.014 13.6343 38.3582 13.433 38.0777 12.9053C37.7974 12.3773 37.9982 11.7221 38.5267 11.4417L45.2261 7.88982C45.6192 7.68167 46.1 7.73442 46.4382 8.02359C46.7764 8.31265 46.9032 8.779 46.7579 9.19924L44.6441 15.3148L49.1896 13.0712C49.7262 12.8065 50.3755 13.0263 50.6406 13.5622C50.9055 14.0983 50.6855 14.7472 50.1491 15.0121L43.239 18.4228C43.0864 18.4982 42.9221 18.535 42.7592 18.535Z" fill="#3B75FF"/>
<path d="M54.3425 13.0596C54.0818 13.0596 53.8241 12.9658 53.6214 12.7853C53.2951 12.4947 53.1755 12.0366 53.3182 11.6239L56.1864 3.32654L50.1352 6.53467C49.6066 6.815 48.9509 6.61386 48.6705 6.08603C48.3902 5.55796 48.5912 4.90276 49.1195 4.62243L57.6002 0.126153C57.9933 -0.0820017 58.4741 -0.029256 58.8123 0.259922C59.1506 0.548978 59.2772 1.01533 59.132 1.43557L56.2132 9.87941L61.4471 7.36975C61.9859 7.11119 62.6335 7.33815 62.8924 7.87729C63.1511 8.41618 62.9239 9.0629 62.3844 9.32146L54.8106 12.9532C54.6616 13.0246 54.5015 13.0596 54.3425 13.0596Z" fill="#3B75FF"/>
</svg>
