<svg width="37" height="29" viewBox="0 0 37 29" fill="none" xmlns="http://www.w3.org/2000/svg">
<path d="M15.406 9.97481C9.31062 9.97481 3.62576 6.9275 0.19923 1.82335C-0.159743 1.28858 -0.0203324 0.562168 0.510496 0.200622C1.04146 -0.160923 1.76284 -0.0203791 2.12168 0.514116C5.1161 4.97452 10.0823 7.63757 15.4061 7.63757C20.7298 7.63757 25.6959 4.97466 28.6903 0.514395C29.049 -0.0202387 29.7704 -0.160787 30.3015 0.200897C30.8325 0.562443 30.9717 1.28886 30.6128 1.82363C27.1861 6.92764 21.5013 9.97481 15.406 9.97481Z" transform="translate(3.09424 19.0251)" fill="#FFC556"/>
<path d="M10.4431 7.01185C9.80211 7.01185 9.28269 6.48857 9.28269 5.84316C9.28269 3.90998 7.72101 2.33724 5.80172 2.33724C3.88243 2.33724 2.32074 3.90984 2.32074 5.84316C2.32074 6.48857 1.80133 7.01185 1.16037 7.01185C0.519418 7.01185 0 6.48857 0 5.84316C0 2.62124 2.60245 0 5.80158 0C9.00071 0 11.6032 2.6211 11.6032 5.84316C11.6033 6.48857 11.084 7.01185 10.4431 7.01185Z" transform="translate(25.397)" fill="#FFC556"/>
<path d="M10.4431 7.01185C9.80225 7.01185 9.28269 6.48857 9.28269 5.84316C9.28269 3.90998 7.72128 2.33724 5.80172 2.33724C3.88229 2.33724 2.32074 3.90984 2.32074 5.84316C2.32074 6.48857 1.80119 7.01185 1.16037 7.01185C0.519555 7.01185 0 6.48857 0 5.84316C0 2.62124 2.60245 0 5.80158 0C9.00071 0 11.6032 2.6211 11.6032 5.84316C11.6033 6.48857 11.0839 7.01185 10.4431 7.01185Z" transform="translate(0 0.000488281)" fill="#FFC556"/>
</svg>
