<svg width="12" height="11" viewBox="0 0 12 11" fill="none" xmlns="http://www.w3.org/2000/svg">
<path d="M6.53269 0.34532L7.87654 2.974C7.96999 3.15683 8.15068 3.28351 8.3597 3.31278L11.3648 3.73434C11.8912 3.80824 12.1012 4.43254 11.7204 4.79075L9.54597 6.83688C9.39486 6.97916 9.32577 7.1843 9.36156 7.38512L9.87479 10.2744C9.96476 10.7804 9.4145 11.1662 8.94376 10.9275L6.25607 9.56345C6.06917 9.46868 5.84573 9.46868 5.65883 9.56345L2.97113 10.9275C2.5004 11.1664 1.95013 10.7804 2.0401 10.2744L2.55334 7.38512C2.58913 7.1843 2.52003 6.97916 2.36892 6.83688L0.194454 4.79075C-0.186307 4.4323 0.0237083 3.808 0.550113 3.73434L3.5552 3.31278C3.76422 3.28351 3.9449 3.15683 4.03835 2.974L5.3822 0.34532C5.61732 -0.115107 6.29732 -0.115107 6.53269 0.34532Z" transform="translate(0.0849609)" fill="#FFAD0F"/>
</svg>
