<svg width="38" height="38" viewBox="0 0 38 38" fill="none" xmlns="http://www.w3.org/2000/svg">
<rect width="38.0003" height="38.0001" fill="black" fill-opacity="0"/>
<rect width="1.49327" height="1.50204" fill="black" fill-opacity="0" transform="translate(0 36.498)"/>
<rect width="1.49327" height="1.50204" fill="black" fill-opacity="0" transform="translate(0 36.498)"/>
<path d="M0.746635 38.0001C1.15899 38.0001 1.49327 37.6638 1.49327 37.2491C1.49327 36.8343 1.15899 36.498 0.746635 36.498C0.33428 36.498 0 36.8343 0 37.2491C0 37.6638 0.33428 38.0001 0.746635 38.0001Z" fill="#538CF8" fill-opacity="0.8"/>
<rect width="1.4903" height="1.49905" fill="black" fill-opacity="0" transform="translate(19.0723 17.4521)"/>
<rect width="1.4903" height="1.49905" fill="black" fill-opacity="0" transform="translate(19.0723 17.4521)"/>
<path d="M19.8174 18.9512C20.229 18.9512 20.5626 18.6156 20.5626 18.2017C20.5626 17.7877 20.229 17.4521 19.8174 17.4521C19.4059 17.4521 19.0723 17.7877 19.0723 18.2017C19.0723 18.6156 19.4059 18.9512 19.8174 18.9512Z" fill="#538CF8" fill-opacity="0.8"/>
<rect width="6.33998" height="6.37871" fill="black" fill-opacity="0" transform="translate(24.1621 7.7666)"/>
<rect width="6.33998" height="6.37871" fill="black" fill-opacity="0" transform="translate(24.1621 7.7666)"/>
<path d="M29.5747 8.70097C28.9757 8.09836 28.1792 7.7666 27.3321 7.7666C26.485 7.7666 25.6885 8.09851 25.0895 8.70097C23.853 9.94485 23.853 11.9687 25.0895 13.2125C25.7079 13.8345 26.5199 14.1453 27.3321 14.1453C28.1441 14.1453 28.9564 13.8343 29.5747 13.2125C30.8112 11.9686 30.8112 9.94477 29.5747 8.70097ZM28.521 12.1525C27.8654 12.8119 26.7987 12.8119 26.1433 12.1525C25.4877 11.4932 25.4877 10.4202 26.1433 9.76083C26.4609 9.44138 26.883 9.2655 27.3321 9.2655C27.7812 9.2655 28.2033 9.44138 28.5209 9.76083C29.1765 10.4202 29.1765 11.4932 28.521 12.1525Z" fill="#538CF8" fill-opacity="0.8"/>
<rect width="7.31978" height="7.36272" fill="black" fill-opacity="0" transform="translate(2.40137 28.3027)"/>
<rect width="7.31978" height="7.36272" fill="black" fill-opacity="0" transform="translate(2.40137 28.3027)"/>
<path d="M9.30804 30.6046C8.93962 30.4201 8.49238 30.5709 8.30891 30.9414L7.42141 32.7342C7.03547 33.5137 6.2593 34.0349 5.39555 34.0944L4.36332 34.1654C4.18883 34.1772 4.07409 34.0897 4.02103 34.0364C3.96796 33.983 3.88083 33.8673 3.8927 33.692L3.96336 32.6538C4.02251 31.785 4.5407 31.0042 5.31554 30.616L7.09782 29.7233C7.46624 29.5388 7.61616 29.0888 7.43269 28.7183C7.2493 28.3478 6.80198 28.1969 6.43357 28.3815L4.65129 29.2742C3.40502 29.8984 2.57169 31.1541 2.47655 32.5513L2.40589 33.5896C2.36774 34.15 2.57229 34.6991 2.96713 35.0963C3.33065 35.4619 3.82235 35.6655 4.33297 35.6655C4.37683 35.6655 4.42099 35.664 4.46507 35.6609L5.4973 35.5898C6.88637 35.4942 8.13472 34.6561 8.75533 33.4023L9.64284 31.6096C9.8263 31.239 9.67638 30.7891 9.30804 30.6046Z" fill="#538CF8" fill-opacity="0.8"/>
<rect width="37.9982" height="37.9985" fill="black" fill-opacity="0" transform="translate(0.00195312)"/>
<rect width="37.9982" height="37.9985" fill="black" fill-opacity="0" transform="translate(0.00195312)"/>
<path d="M37.486 0.499255C37.1364 0.152787 36.6547 -0.0283979 36.1655 0.00362859L35.4717 0.0481222C29.2508 0.447594 23.4289 3.46801 19.4988 8.33499L17.8657 10.3573L13.592 10.231C13.5847 10.2308 13.5774 10.2307 13.5702 10.2307C10.1808 10.2307 6.99421 11.5584 4.59748 13.9691L0.220237 18.3721C0.0120547 18.5815 -0.0540738 18.8947 0.051613 19.171C0.1573 19.4475 0.414837 19.6355 0.70889 19.6505L9.97459 20.1294L9.59682 20.5972C9.40645 20.8331 9.37632 21.1611 9.52067 21.4279C9.66584 21.6964 9.81799 21.9606 9.97667 22.2205L7.77936 24.8444C7.59152 25.0687 7.55107 25.3827 7.67568 25.6479C8.15565 26.668 8.79267 27.5846 9.56928 28.3722C10.3648 29.1791 11.2949 29.8388 12.3338 30.3334C12.4354 30.3818 12.5442 30.4055 12.6525 30.4055C12.8203 30.4055 12.9867 30.3484 13.122 30.238C13.5954 29.8518 14.1411 29.3936 14.669 28.9506C15.0452 28.6348 15.4301 28.3118 15.7898 28.0139C16.0045 28.1439 16.2219 28.2699 16.4426 28.3906C16.5542 28.4517 16.6766 28.4818 16.7985 28.4818C16.9608 28.4818 17.122 28.4286 17.2554 28.3244L17.7633 27.928L18.2414 37.2873C18.2565 37.5831 18.4433 37.8422 18.7181 37.9485C18.8051 37.9821 18.8955 37.9985 18.9853 37.9985C19.1794 37.9985 19.37 37.9221 19.5123 37.7789L23.8896 33.3759C26.2864 30.9651 27.6062 27.7599 27.6062 24.3505V20.2449L29.333 18.8971C34.5082 14.8576 37.66 8.76626 37.9803 2.18494L37.9981 1.82018C38.0223 1.32716 37.8355 0.845797 37.486 0.499255ZM2.45896 18.2401L5.65123 15.0291C7.76385 12.9041 10.5721 11.7326 13.5594 11.7297L16.6829 11.822L11.138 18.6886L2.45896 18.2401ZM13.7142 27.7997C13.3252 28.1261 12.9265 28.4608 12.5564 28.767C11.8407 28.377 11.1932 27.8905 10.6273 27.3166C10.0793 26.7608 9.61285 26.128 9.23671 25.4308L10.8455 23.5098C11.3319 24.1662 11.8643 24.788 12.4395 25.3705C12.44 25.371 12.4404 25.3713 12.4409 25.3718C12.441 25.3719 12.4412 25.3722 12.4413 25.3723C12.4415 25.3725 12.4418 25.3727 12.442 25.3729C13.0797 26.0185 13.7657 26.611 14.4934 27.1468C14.2365 27.3613 13.9732 27.5823 13.7142 27.7997ZM26.1162 24.3505C26.1162 27.3594 24.9513 30.1882 22.836 32.3159L19.6437 35.5269L19.1983 26.808L26.1161 21.4083V24.3505H26.1162ZM36.4921 2.1117C36.1931 8.25548 33.2508 13.9419 28.4196 17.7128L16.7332 26.8347C15.7641 26.2651 14.8607 25.5925 14.034 24.8305L17.974 20.8675C18.2649 20.5748 18.2649 20.1002 17.974 19.8075C17.683 19.5148 17.2112 19.5148 16.9202 19.8075L12.9839 23.7668C12.2602 22.9609 11.6193 22.084 11.0735 21.1462L20.6556 9.28003C24.3243 4.73668 29.7592 1.917 35.5665 1.54418L36.2603 1.49969C36.3512 1.49402 36.4121 1.53941 36.4401 1.56718C36.4681 1.59487 36.5144 1.65512 36.5099 1.74702L36.4921 2.1117Z" fill="#538CF8" fill-opacity="0.8"/>
</svg>
