<svg width="558" height="341" viewBox="0 0 558 341" fill="none" xmlns="http://www.w3.org/2000/svg">
<rect width="558" height="341" fill="black" fill-opacity="0"/>
<mask id="mask0" mask-type="alpha" maskUnits="userSpaceOnUse" x="0" y="0" width="558" height="341">
<path d="M0 20.1775C0 9.03378 9.03527 0 20.1808 0H537.819C548.965 0 558 9.03378 558 20.1775V320.822C558 331.966 548.965 341 537.819 341H20.1808C9.03527 341 0 331.966 0 320.822V20.1775Z" fill="white"/>
</mask>
<g mask="url(#mask0)">
<rect width="558" height="345" fill="black" fill-opacity="0" transform="translate(0 -4)"/>
<rect width="558" height="345" fill="black" fill-opacity="0" transform="translate(0 -4)"/>
<rect width="558" height="345" fill="black" fill-opacity="0" transform="translate(0 -4)"/>
<rect width="558" height="345" fill="black" fill-opacity="0" transform="translate(0 -4)"/>
<path d="M0 -4H558V328H0V-4Z" fill="#FDFDFF"/>
<g opacity="0.3" filter="url(#filter0_d)">
<path d="M0 53.7046H558V138.108H0V53.7046Z" fill="#C2DEF9"/>
</g>
<g opacity="0.3" filter="url(#filter1_d)">
<path d="M0 -4H558V53.9957H0V-4Z" fill="white"/>
</g>
<path opacity="0.2" d="M0 341L558 53.9956V341H0Z" fill="#C2DEF9"/>
<g filter="url(#filter2_d)">
<rect width="40.9069" height="40.8036" fill="black" fill-opacity="0" transform="matrix(0.966114 -0.258115 0.259524 0.965737 259.997 14.0317)"/>
<path d="M296.895 21.5605C299.303 30.5199 293.971 39.729 284.985 42.1296C276 44.5303 266.764 39.2134 264.356 30.2541C261.948 21.2947 267.281 12.0856 276.266 9.68498C285.252 7.28433 294.488 12.6012 296.895 21.5605Z" fill="#959CB3"/>
<path d="M295.52 34.4807C300.171 26.4478 297.411 16.1765 289.354 11.5392L272.512 40.6289C280.568 45.2663 290.869 42.5137 295.52 34.4807Z" fill="#D9E7F8"/>
<path d="M281.12 16.7382L289.402 30.9181L272.945 30.9797L281.12 16.7382Z" fill="#D9E7F8"/>
<path fill-rule="evenodd" clip-rule="evenodd" d="M281.111 14.1544L291.652 32.2015L270.707 32.28L281.111 14.1544ZM275.185 29.6794L287.154 29.6346L281.131 19.3219L275.185 29.6794Z" fill="white"/>
</g>
<path d="M25.9141 25.2831C25.9141 24.3317 26.6875 23.5605 27.6416 23.5605H83.7871C84.7412 23.5605 85.5147 24.3317 85.5147 25.2831C85.5147 26.2344 84.7412 27.0056 83.7871 27.0056H27.6416C26.6875 27.0056 25.9141 26.2344 25.9141 25.2831Z" fill="#E0EEFF"/>
<path d="M25.9141 76.9586C25.9141 74.5803 27.8477 72.6523 30.2329 72.6523H194.351C196.736 72.6523 198.669 74.5803 198.669 76.9586C198.669 79.337 196.736 81.265 194.351 81.265H30.2329C27.8477 81.265 25.9141 79.337 25.9141 76.9586Z" fill="#E0EAF7"/>
<path d="M99.3345 25.2831C99.3345 24.3317 100.108 23.5605 101.062 23.5605H129.567C130.521 23.5605 131.294 24.3317 131.294 25.2831C131.294 26.2344 130.521 27.0056 129.567 27.0056H101.062C100.108 27.0056 99.3345 26.2344 99.3345 25.2831Z" fill="#E0EEFF"/>
<path d="M424.979 25.2831C424.979 24.3317 425.752 23.5605 426.706 23.5605H474.214C475.168 23.5605 475.941 24.3317 475.941 25.2831C475.941 26.2344 475.168 27.0056 474.214 27.0056H426.706C425.752 27.0056 424.979 26.2344 424.979 25.2831Z" fill="#E0EEFF"/>
<path d="M384.381 25.2831C384.381 24.3317 385.154 23.5605 386.108 23.5605H410.294C411.248 23.5605 412.022 24.3317 412.022 25.2831C412.022 26.2344 411.248 27.0056 410.294 27.0056H386.108C385.154 27.0056 384.381 26.2344 384.381 25.2831Z" fill="#E0EEFF"/>
<path d="M0 138.015H556.51V341H0V138.015Z" fill="#EDF3FC"/>
<path opacity="0.2" d="M0 341L558 225.009V341H0Z" fill="#D2E0F1"/>
<path opacity="0.1" d="M0 341L558 100.095V341H0Z" fill="#5FB1F5"/>
<path opacity="0.05" d="M558 341L0 177.422V341H558Z" fill="#5FB1F5"/>
<path d="M488.897 25.2831C488.897 24.3317 489.671 23.5605 490.625 23.5605H530.359C531.313 23.5605 532.086 24.3317 532.086 25.2831C532.086 26.2344 531.313 27.0056 530.359 27.0056H490.625C489.671 27.0056 488.897 26.2344 488.897 25.2831Z" fill="#E0EEFF"/>
<path d="M26 123C26 117.477 30.4772 113 36 113H398C403.523 113 408 117.477 408 123V283C408 288.523 403.523 293 398 293H36C30.4772 293 26 288.523 26 283V123Z" fill="white"/>
<path d="M26 248H408V283C408 288.523 403.523 293 398 293H36C30.4772 293 26 288.523 26 283V248Z" fill="#EFF6FF"/>
<path d="M423 123C423 117.477 427.477 113 433 113H520C525.523 113 530 117.477 530 123V283C530 288.523 525.523 293 520 293H433C427.477 293 423 288.523 423 283V123Z" fill="white"/>
<path d="M530 248H423V283C423 288.523 427.477 293 433 293H520C525.523 293 530 288.523 530 283V248Z" fill="#EFF6FF"/>
<path d="M185 140.306C185 137.928 186.934 136 189.319 136H353.437C355.822 136 357.755 137.928 357.755 140.306C357.755 142.685 355.822 144.613 353.437 144.613H189.319C186.934 144.613 185 142.685 185 140.306Z" fill="#E0EAF7"/>
<path d="M445.506 203.723C445.506 202.771 446.279 202 447.233 202H503.564C504.518 202 505.292 202.771 505.292 203.723C505.292 204.674 504.518 205.445 503.564 205.445H447.233C446.279 205.445 445.506 204.674 445.506 203.723Z" fill="#E0EEFF"/>
<path d="M451.369 213.333C451.369 212.306 451.985 211.474 452.746 211.474H497.67C498.431 211.474 499.048 212.306 499.048 213.333C499.048 214.359 498.431 215.192 497.67 215.192H452.746C451.985 215.192 451.369 214.359 451.369 213.333Z" fill="#E0EEFF"/>
<path d="M185 155.698C185 154.76 186.514 154 188.381 154H298.619C300.486 154 302 154.76 302 155.698C302 156.635 300.486 157.395 298.619 157.395H188.381C186.514 157.395 185 156.635 185 155.698Z" fill="#E0EEFF"/>
<path d="M185 165.168C185 164.157 186.207 163.336 187.696 163.336H275.612C277.101 163.336 278.308 164.157 278.308 165.168C278.308 166.18 277.101 167 275.612 167H187.696C186.207 167 185 166.18 185 165.168Z" fill="#E0EEFF"/>
<path opacity="0.5" d="M185 193C185 190.239 187.239 188 190 188H212C214.761 188 217 190.239 217 193V215C217 217.761 214.761 220 212 220H190C187.239 220 185 217.761 185 215V193Z" fill="#E0EEFF"/>
<rect width="53" height="53.2057" fill="white" fill-opacity="0.8" transform="translate(503 130) scale(-1 1)"/>
<rect width="53" height="53.2057" fill="black" fill-opacity="0" transform="translate(503 130) scale(-1 1)"/>
<rect width="53" height="53" fill="black" fill-opacity="0" transform="translate(503 130) scale(-1 1)"/>
<path d="M476.5 183C461.864 183 450 171.136 450 156.5C450 141.864 461.864 130 476.5 130C491.136 130 503 141.864 503 156.5C503 171.136 491.136 183 476.5 183Z" fill="#EBF4FD"/>
<rect width="22.1774" height="21.3268" fill="black" fill-opacity="0" transform="translate(472.209 137.648) scale(-1 1)"/>
<path d="M457.881 137.648C459.402 138.195 460.559 139.507 460.885 141.121C460.917 141.12 460.947 141.116 460.979 141.116C463.488 141.116 465.612 142.763 466.331 145.034C466.716 144.931 467.113 144.859 467.53 144.859C470.114 144.859 472.209 146.954 472.209 149.539L469.56 157.873C469.56 157.873 454.206 159.028 453.891 158.973C453.743 158.948 451.92 157.166 450.032 155.254C450.35 148.374 453.292 142.181 457.881 137.648Z" fill="#E3F0FC"/>
<rect width="34.9127" height="18.5788" fill="black" fill-opacity="0" transform="translate(503 138.833) scale(-1 1)"/>
<path d="M471.626 149.705C471.621 149.605 471.611 149.506 471.611 149.404C471.611 145.998 474.372 143.238 477.777 143.238C478.051 143.238 478.318 143.262 478.583 143.296C479.869 140.657 482.571 138.833 485.705 138.833C488.897 138.833 491.64 140.723 492.897 143.442C494.095 142.229 495.758 141.476 497.597 141.476C497.856 141.476 498.11 141.495 498.36 141.524C501.285 145.785 503 150.941 503 156.5C503 156.666 502.99 156.83 502.987 156.996C502.281 157.264 501.37 157.424 500.196 157.411C493.886 157.341 474.438 155.322 474.078 155.381C473.717 155.44 468.388 156.451 468.388 156.451C468.193 155.9 468.087 155.307 468.087 154.689C468.087 152.383 469.567 150.427 471.626 149.705Z" fill="#D6EAFB"/>
<rect width="53" height="34.1692" fill="black" fill-opacity="0" transform="translate(503 148.831) scale(-1 1)"/>
<path d="M502.323 150.557C502.761 152.468 503 154.456 503 156.5C503 171.136 491.136 183 476.5 183C461.864 183 450 171.136 450 156.5C450 154.928 450.145 153.39 450.407 151.893C455.179 152.099 455.366 155.659 461.34 155.659L469.77 155.756C471.826 155.756 480.591 148.831 486.218 148.831C491.75 148.831 495.615 150.5 502.323 150.557Z" fill="#E0EEFF"/>
<rect width="24.1351" height="25.0931" fill="black" fill-opacity="0" transform="translate(483.389 157.907) scale(-1 1)"/>
<path d="M468.087 159.539C466.931 155.449 472.399 160.286 472.609 160.706C472.766 161.02 479.807 174.985 483.389 182.09C481.192 182.68 478.884 183 476.5 183C470.549 183 465.057 181.038 460.634 177.727L459.254 171.269C461.357 166.806 469.244 163.629 468.087 159.539Z" fill="#AACBEF"/>
<rect width="28.8966" height="14.2847" fill="black" fill-opacity="0" transform="translate(502.974 156.719) scale(-1 1)"/>
<path d="M498.675 171.004L477.308 167.156L474.078 156.719C479.514 157.692 485.972 160.145 493.956 157.873C496.579 157.127 500.546 156.719 502.974 157.525C502.785 162.491 501.231 167.104 498.675 171.004Z" fill="#AACBEF"/>
<rect width="21.0984" height="25.0513" fill="black" fill-opacity="0" transform="translate(488.099 158.154) scale(-1 1)"/>
<path d="M486.334 177.918C486.806 178.535 487.453 179.491 488.099 180.478C485.065 181.999 481.7 182.953 478.139 183.206C472.212 178.957 468.937 160.491 467 158.154C467 158.154 484.967 176.13 486.334 177.918Z" fill="#D6EAFB"/>
<rect width="3.66802" height="4.20613" fill="black" fill-opacity="0" transform="translate(481.298 169.119) scale(-1 1)"/>
<path d="M480.457 173.325C480.659 173.325 480.861 173.253 481.022 173.107C481.366 172.795 481.393 172.263 481.08 171.919C480.44 171.212 479.812 170.415 479.163 169.48C478.898 169.099 478.375 169.004 477.991 169.27C477.61 169.535 477.516 170.06 477.781 170.441C478.473 171.435 479.144 172.288 479.833 173.049C479.999 173.232 480.228 173.325 480.457 173.325Z" fill="#646464"/>
<rect width="5.11401" height="7.57241" fill="black" fill-opacity="0" transform="translate(477.694 160.705) scale(-1 1)"/>
<path d="M476.853 168.278C477.001 168.278 477.15 168.239 477.285 168.158C477.683 167.919 477.813 167.402 477.574 167.004C477.04 166.112 476.532 165.217 476.04 164.348C475.384 163.19 474.764 162.095 474.132 161.097C473.884 160.705 473.364 160.587 472.971 160.836C472.579 161.085 472.462 161.604 472.711 161.997C473.32 162.961 473.931 164.038 474.576 165.177C475.075 166.058 475.589 166.965 476.132 167.869C476.289 168.132 476.568 168.278 476.853 168.278Z" fill="#646464"/>
<rect width="3.36537" height="1.9132" fill="black" fill-opacity="0" transform="translate(492.484 171.412) scale(-1 1)"/>
<path d="M491.644 173.325C492.074 173.325 492.442 172.996 492.481 172.559C492.522 172.096 492.181 171.687 491.718 171.646C491.183 171.598 490.643 171.524 490.114 171.426C489.66 171.343 489.219 171.643 489.133 172.1C489.049 172.557 489.35 172.996 489.807 173.08C490.388 173.188 490.98 173.269 491.568 173.322C491.594 173.324 491.619 173.325 491.644 173.325Z" fill="#646464"/>
<rect width="5.88904" height="4.22407" fill="black" fill-opacity="0" transform="translate(487.437 167.887) scale(-1 1)"/>
<path d="M486.595 172.111C486.926 172.111 487.241 171.913 487.374 171.587C487.55 171.157 487.344 170.666 486.913 170.49C485.42 169.88 484.082 169.073 482.937 168.09C482.585 167.788 482.055 167.827 481.751 168.179C481.448 168.532 481.489 169.063 481.841 169.366C483.123 170.467 484.616 171.37 486.278 172.048C486.382 172.091 486.489 172.111 486.595 172.111Z" fill="#646464"/>
<rect width="31.8264" height="6.87696" fill="black" fill-opacity="0" transform="translate(501.885 148.831) scale(-1 1)"/>
<path d="M470.058 155.708C472.524 155.208 480.811 148.831 486.218 148.831C491.626 148.831 495.448 150.422 501.885 150.547C501.162 150.582 500.075 150.525 498.525 150.347C479.464 148.157 482.388 155.708 470.058 155.708Z" fill="#B7D7FB"/>
<rect width="27.7892" height="15.2032" fill="black" fill-opacity="0" transform="translate(500.95 157) scale(-1 1)"/>
<path d="M500.95 166.354C500.139 168.446 499.071 170.408 497.783 172.203L482.549 169.353L473.161 158.183L473.817 157C479.466 158.839 489.112 167.305 500.95 166.354Z" fill="#D6EAFB"/>
<rect width="38.441" height="25.8359" fill="black" fill-opacity="0" transform="translate(499.811 155.659) scale(-1 1)"/>
<path d="M461.37 155.659L469.77 155.756C469.85 155.756 469.958 155.728 470.059 155.708C480.395 156.561 482.973 168.991 499.811 169.113C496.702 174.847 491.537 179.3 485.306 181.495C470.369 173.724 473.178 155.673 461.37 155.659Z" fill="#8DBAEA"/>
<rect width="15.6768" height="5.41585" fill="black" fill-opacity="0" transform="translate(502.692 158.973) scale(-1 1)"/>
<path d="M491.39 161.599C491.42 161.03 491.881 160.574 492.458 160.574C492.943 160.574 493.337 160.901 493.473 161.341C493.659 160.706 494.24 160.239 494.935 160.239C495.611 160.239 496.177 160.679 496.381 161.286C496.57 160.873 496.909 160.544 497.331 160.372C497.508 159.573 498.219 158.973 499.072 158.973C499.783 158.973 500.392 159.392 500.679 159.994C500.881 159.93 501.092 159.887 501.315 159.887C501.843 159.887 502.319 160.085 502.692 160.402C502.492 161.758 502.196 163.083 501.798 164.364C496.471 164.611 490.089 163.034 487.016 161.197C487.016 161.197 488.973 161.517 491.39 161.599Z" fill="#B7D7FB"/>
<rect width="21.2794" height="15.5494" fill="black" fill-opacity="0" transform="translate(474.559 167.346) scale(-1 1)"/>
<path d="M453.28 169.273C454.212 168.1 455.649 167.346 457.264 167.346C460.075 167.346 462.354 169.625 462.354 172.436C462.354 172.493 462.347 172.549 462.346 172.605C463.233 172.797 464.025 173.243 464.642 173.864C465.228 173.618 465.87 173.481 466.545 173.481C469.255 173.481 471.452 175.678 471.452 178.389C473.168 178.389 474.559 179.779 474.559 181.495C474.559 182.002 474.426 182.473 474.211 182.895C465.18 182.122 457.442 176.824 453.28 169.273Z" fill="#B7D7FB"/>
<rect width="17.6879" height="11.1058" fill="black" fill-opacity="0" transform="translate(480.588 155.677) scale(-1 1)"/>
<path d="M478.471 161.547C481.951 165.772 480.718 168.412 477.811 165.649C472.708 160.801 466.446 155.865 462.9 155.677L469.77 155.757C472.864 156.262 475.137 157.499 478.471 161.547Z" fill="#7DACE1" fill-opacity="0.5"/>
<rect width="20.8482" height="18.8999" fill="black" fill-opacity="0" transform="translate(491.48 162.595) scale(-1 1)"/>
<rect width="20.7843" height="18.7828" fill="black" fill-opacity="0" transform="translate(491.48 162.712) scale(-1 1)"/>
<path d="M470.696 162.712C472.218 165.606 480.931 176.709 491.48 178.35C489.584 179.651 487.514 180.717 485.307 181.495C476.44 176.882 473.826 168.647 470.696 162.712Z" fill="#AACBEF"/>
<rect width="0.055694" height="0.10217" fill="black" fill-opacity="0" transform="translate(470.688 162.595) scale(-1 1)"/>
<path d="M470.688 162.697C470.67 162.663 470.651 162.63 470.632 162.595H470.633C470.648 162.626 470.671 162.665 470.688 162.697Z" fill="#3C9BD4"/>
<rect width="22.0484" height="12.509" fill="black" fill-opacity="0" transform="translate(499.811 158.888) scale(-1 1)"/>
<path d="M477.763 158.888C483.166 162.841 487.953 169.027 499.811 169.113C499.384 169.901 498.915 170.661 498.413 171.397C488.208 171.222 481.699 161.936 477.763 158.888Z" fill="#AACBEF"/>
<rect width="11.6672" height="4.39234" fill="black" fill-opacity="0" transform="translate(461.682 151.893) scale(-1 1)"/>
<path d="M450.408 151.893C455.18 152.099 455.366 155.659 461.34 155.659L461.682 155.663C460.468 156.141 458.991 156.457 457.414 156.185C452.697 155.369 450.879 155.416 450.015 155.858C450.049 154.509 450.181 153.185 450.408 151.893Z" fill="#B7D7FB"/>
<rect width="323" height="95" fill="black" fill-opacity="0" transform="translate(60 133)"/>
<rect width="95" height="95" fill="black" fill-opacity="0" transform="translate(60 133)"/>
<rect width="95" height="95" fill="black" fill-opacity="0" transform="translate(60 133)"/>
<path d="M107.5 228C133.734 228 155 206.734 155 180.5C155 154.266 133.734 133 107.5 133C81.2665 133 60 154.266 60 180.5C60 206.734 81.2665 228 107.5 228Z" fill="#D4E6FA"/>
<g opacity="0.3">
<rect width="95" height="55.4167" fill="black" fill-opacity="0" transform="translate(60 152.792)"/>
<path opacity="0.3" d="M61.0921 170.377C60.3833 173.64 60 177.025 60 180.5C60 183.976 60.3835 187.36 61.0921 190.624C73.5759 200.918 104.506 208.208 140.713 208.208C142.528 208.208 144.325 208.184 146.113 208.148C151.7 200.359 155 190.818 155 180.5C155 170.183 151.7 160.642 146.113 152.852C144.325 152.816 142.528 152.792 140.713 152.792C104.506 152.792 73.5759 160.083 61.0921 170.377Z" fill="#FFFFF4"/>
</g>
<g opacity="0.4">
<rect width="95" height="54.5968" fill="black" fill-opacity="0" transform="translate(60 162.646)"/>
<path opacity="0.4" d="M60 180.5C60 190.537 63.1215 199.842 68.435 207.512C85.6192 212.346 109.838 215.851 137.6 217.243C148.221 208.532 155 195.309 155 180.5C155 174.183 153.756 168.16 151.518 162.646C113.047 163.55 79.8609 168.449 60.267 175.473C60.093 177.125 60 178.801 60 180.5Z" fill="#B7D1EE"/>
</g>
<rect width="24.7744" height="11.8994" fill="black" fill-opacity="0" transform="translate(77.4683 159.695)"/>
<path d="M92.656 159.719C90.9861 160.09 88.9451 163.987 86.7185 164.172C84.492 164.358 80.4099 164.172 79.2966 165.657C78.7623 166.369 78.0574 169.188 77.4683 171.594H101.098L102.243 164.605C100.387 163.306 94.3259 159.348 92.656 159.719Z" fill="#B7D7FB"/>
<rect width="95" height="56.4062" fill="black" fill-opacity="0" transform="translate(60 171.594)"/>
<path d="M60 180.5C60 206.734 81.2665 228 107.5 228C133.734 228 155 206.734 155 180.5C155 177.454 154.702 174.48 154.154 171.594H60.8461C60.2982 174.48 60 177.454 60 180.5Z" fill="#B7D1EE"/>
<rect width="92.7773" height="47.5" fill="black" fill-opacity="0" transform="translate(61.103 180.5)"/>
<path d="M107.421 180.5C89.8509 180.5 73.7328 184.315 61.103 190.67C65.5766 211.169 83.277 226.72 104.818 227.92C105.712 227.95 106.599 228 107.503 228C107.515 228 107.527 227.999 107.539 227.999C108.425 227.999 109.295 227.95 110.172 227.921C131.692 226.727 149.38 211.209 153.88 190.742C141.23 184.344 125.057 180.5 107.421 180.5Z" fill="#D4E6FA"/>
<rect width="23.75" height="7.42188" fill="black" fill-opacity="0" transform="translate(75.895 147.091)"/>
<path d="M95.1919 150.059C94.7247 150.059 94.2831 150.151 93.8599 150.285C92.5193 148.358 90.2955 147.091 87.77 147.091C85.2445 147.091 83.0208 148.358 81.6802 150.285C81.257 150.151 80.8154 150.059 80.3481 150.059C77.8887 150.059 75.895 152.053 75.895 154.512H99.645C99.645 152.053 97.6513 150.059 95.1919 150.059Z" fill="white"/>
<rect width="14.2251" height="5.47122" fill="black" fill-opacity="0" transform="translate(89.2544 145.032)"/>
<path d="M89.2544 150.504C89.2544 148.388 90.969 146.674 93.0843 146.674C93.4036 146.674 93.7088 146.724 94.0051 146.798C95.0045 145.719 96.4215 145.032 98.0083 145.032C101.03 145.032 103.48 147.482 103.48 150.504H89.2544Z" fill="white"/>
<g opacity="0.5">
<rect width="12.1225" height="4.66242" fill="black" fill-opacity="0" transform="translate(107.5 141.97)"/>
<path opacity="0.5" d="M107.5 146.632C107.5 144.83 108.961 143.369 110.764 143.369C111.036 143.369 111.296 143.412 111.549 143.474C112.4 142.555 113.608 141.97 114.96 141.97C117.535 141.97 119.623 144.057 119.623 146.632H107.5Z" fill="white"/>
</g>
<g opacity="0.5">
<rect width="12.1225" height="4.66242" fill="black" fill-opacity="0" transform="translate(133.724 155.032)"/>
<path opacity="0.5" d="M133.724 159.694C133.724 157.892 135.185 156.431 136.988 156.431C137.26 156.431 137.52 156.474 137.773 156.536C138.624 155.617 139.832 155.032 141.184 155.032C143.759 155.032 145.847 157.119 145.847 159.694H133.724Z" fill="white"/>
</g>
<g opacity="0.5">
<rect width="8.68656" height="3.34096" fill="black" fill-opacity="0" transform="translate(95.7349 139.18)"/>
<path opacity="0.5" d="M95.7349 142.521C95.7349 141.229 96.7819 140.182 98.0735 140.182C98.2685 140.182 98.4548 140.213 98.6359 140.258C99.2462 139.599 100.111 139.18 101.08 139.18C102.926 139.18 104.421 140.676 104.421 142.521H95.7349Z" fill="white"/>
</g>
<rect width="16.0808" height="6.18483" fill="black" fill-opacity="0" transform="translate(124.632 150.565)"/>
<path d="M124.632 156.75C124.632 154.359 126.571 152.421 128.962 152.421C129.323 152.421 129.668 152.478 130.003 152.561C131.132 151.341 132.734 150.565 134.528 150.565C137.944 150.565 140.713 153.334 140.713 156.75H124.632Z" fill="white"/>
<rect width="40.0781" height="60.8594" fill="black" fill-opacity="0" transform="translate(95.625 153.781)"/>
<path d="M135.703 171.594C135.703 166.893 131.66 165.078 129.766 164.172C127.52 163.098 122.839 163.43 120.859 159.719C118.88 156.008 117.513 153.781 116.406 153.781C114.303 153.781 109.108 154.771 106.016 158.234C103.501 161.051 104.036 163.677 100.078 165.656C98.8865 166.252 95.625 167.134 95.625 171.594C95.625 171.718 95.625 177.16 95.625 179.016C95.625 184.582 102.057 188.417 104.531 189.406C107.005 190.396 110.137 214.641 113.438 214.641C116.654 214.641 120.365 202.518 122.344 201.281C124.323 200.044 128.281 199.817 128.281 193.859C128.281 188.046 128.281 180.5 128.281 180.5C132.237 176.545 135.703 181.242 135.703 171.594Z" fill="#B7D7FB"/>
<rect width="24.4372" height="30.7333" fill="black" fill-opacity="0" transform="translate(76.6616 171.594)"/>
<path d="M77.4687 171.594C77.2232 172.596 76.9972 173.529 76.813 174.206C76.4975 175.364 76.6795 176.589 77.3184 177.605C79.2484 180.675 83.3611 187.383 83.7502 189.406C85.1418 196.643 88.2033 197.57 89.6877 201.281C90.4581 203.207 94.4191 202.023 95.6252 201.281C97.3272 200.234 100.078 187.922 100.078 187.922L101.099 171.594H77.4687Z" fill="#A9CBF0"/>
<rect width="40.0781" height="43.0469" fill="black" fill-opacity="0" transform="translate(95.625 171.594)"/>
<path d="M104.531 189.406C107.005 190.396 110.137 214.641 113.438 214.641C116.654 214.641 120.365 202.518 122.344 201.281C124.323 200.044 128.281 199.817 128.281 193.859C128.281 188.046 128.281 180.5 128.281 180.5C132.237 176.545 135.703 181.242 135.703 171.594H95.625C95.625 171.718 95.625 177.16 95.625 179.016C95.625 184.582 102.057 188.417 104.531 189.406Z" fill="#B7D7FB"/>
<rect width="24.2306" height="9.74284" fill="black" fill-opacity="0" transform="translate(78.0127 159.695)"/>
<path d="M92.6566 159.719C90.9867 160.09 88.9457 163.987 86.7191 164.172C84.4925 164.358 80.4105 164.172 79.2972 165.657C78.9202 166.159 78.4589 167.713 78.0127 169.428C80.1669 169.598 80.7573 167.513 81.2145 166.77C81.7093 165.966 84.4306 166.337 86.286 166.089C88.1415 165.842 88.0178 167.264 89.856 167.698C91.694 168.13 92.038 163.925 92.9039 163.121C93.7699 162.317 100.078 165.657 101.501 166.708L102 166.09L102.243 164.605C100.388 163.306 94.3265 159.348 92.6566 159.719Z" fill="white"/>
<rect width="38.678" height="17.3928" fill="black" fill-opacity="0" transform="translate(95.6646 153.781)"/>
<path d="M129.766 164.172C127.52 163.098 122.839 163.43 120.859 159.719C118.88 156.008 117.513 153.781 116.406 153.781C114.303 153.781 109.108 154.771 106.016 158.234C103.501 161.051 104.036 163.677 100.078 165.656C98.9279 166.231 95.877 167.105 95.6646 171.174C97.2022 169.089 102.119 167.79 105.181 168.532C107.197 169.021 105.83 170.547 108.16 170.547C109.911 170.547 109.769 163.106 111.025 161.945C112.231 160.832 113.545 161.125 114.365 164.172C115.664 168.996 123.828 165.378 134.343 167.445C132.991 165.67 130.955 164.741 129.766 164.172Z" fill="white"/>
<rect width="93.9045" height="1.66992" fill="black" fill-opacity="0" transform="translate(60.5479 171.594)"/>
<path d="M60.5479 173.264H154.452C154.367 172.702 154.259 172.148 154.154 171.594H60.8462C60.7408 172.148 60.6338 172.702 60.5479 173.264Z" fill="white"/>
<rect width="17.9682" height="39.6981" fill="black" fill-opacity="0" transform="translate(107.402 174.943)"/>
<path d="M121.23 186.96C121.23 183.43 118.509 182.736 118.509 185.36C118.509 186.874 116.352 188.263 115.003 186.345C113.903 184.78 113.561 180.238 113.561 178.15C113.561 174.006 110.192 173.787 110.192 178.024C110.192 184.211 107.491 183.131 107.491 185.572C107.491 190.149 109.912 194.045 107.5 197.014C107.463 197.059 107.437 197.12 107.402 197.168C109.257 204.592 111.312 214.641 113.437 214.641C116.653 214.641 120.364 202.518 122.343 201.281C123.156 200.773 124.301 200.431 125.37 199.797C121.972 199.426 121.23 193.675 121.23 186.96Z" fill="#A9CBF0"/>
<rect width="15.275" height="26.7401" fill="black" fill-opacity="0" transform="translate(84.0405 175.587)"/>
<path d="M94.4189 189.128C94.4189 184.458 94.6972 181.737 92.8418 180.933C91.1965 180.22 89.3628 182.495 88.88 180.5C87.9925 176.833 87.9558 175.587 86.7677 175.587C85.6052 175.587 85.1414 177.423 85.1414 181.984C85.1414 188.862 85.8526 189.945 84.0405 190.731C85.5316 196.772 88.2992 197.81 89.6875 201.281C90.4579 203.207 94.4189 202.023 95.625 201.281C96.7664 200.579 98.3766 194.819 99.3155 191.095C98.47 193.117 94.4189 193.247 94.4189 189.128Z" fill="#9DBFE6"/>
<path d="M209 204.5C209 208.642 205.642 212 201.5 212C197.358 212 194 208.642 194 204.5C194 200.358 197.358 197 201.5 197C205.642 197 209 200.358 209 204.5Z" fill="#E0EAF7" fill-opacity="0.4"/>
<path opacity="0.5" d="M228 193C228 190.239 230.239 188 233 188H255C257.761 188 260 190.239 260 193V215C260 217.761 257.761 220 255 220H233C230.239 220 228 217.761 228 215V193Z" fill="#E0EEFF"/>
<path d="M252 204.5C252 208.642 248.642 212 244.5 212C240.358 212 237 208.642 237 204.5C237 200.358 240.358 197 244.5 197C248.642 197 252 200.358 252 204.5Z" fill="#E0EAF7" fill-opacity="0.4"/>
<path opacity="0.5" d="M273 193C273 190.239 275.239 188 278 188H378C380.761 188 383 190.239 383 193V215C383 217.761 380.761 220 378 220H278C275.239 220 273 217.761 273 215V193Z" fill="#E0EEFF"/>
<path d="M297 204.5C297 208.642 293.642 212 289.5 212C285.358 212 282 208.642 282 204.5C282 200.358 285.358 197 289.5 197C293.642 197 297 200.358 297 204.5Z" fill="#E0EAF7" fill-opacity="0.4"/>
<path d="M335 204.5C335 208.642 331.642 212 327.5 212C323.358 212 320 208.642 320 204.5C320 200.358 323.358 197 327.5 197C331.642 197 335 200.358 335 204.5Z" fill="#E0EAF7" fill-opacity="0.4"/>
<path d="M373 204.5C373 208.642 369.642 212 365.5 212C361.358 212 358 208.642 358 204.5C358 200.358 361.358 197 365.5 197C369.642 197 373 200.358 373 204.5Z" fill="#E0EAF7" fill-opacity="0.4"/>
</g>
<defs>
<filter id="filter0_d" x="-2" y="53.7046" width="562" height="88.4036" filterUnits="userSpaceOnUse" color-interpolation-filters="sRGB">
<feFlood flood-opacity="0" result="BackgroundImageFix"/>
<feColorMatrix in="SourceAlpha" type="matrix" values="0 0 0 0 0 0 0 0 0 0 0 0 0 0 0 0 0 0 255 0"/>
<feOffset dy="2"/>
<feGaussianBlur stdDeviation="1"/>
<feColorMatrix type="matrix" values="0 0 0 0 0 0 0 0 0 0 0 0 0 0 0 0 0 0 0.1 0"/>
<feBlend mode="normal" in2="BackgroundImageFix" result="effect1_dropShadow"/>
<feBlend mode="normal" in="SourceGraphic" in2="effect1_dropShadow" result="shape"/>
</filter>
<filter id="filter1_d" x="-2" y="-4" width="562" height="61.9957" filterUnits="userSpaceOnUse" color-interpolation-filters="sRGB">
<feFlood flood-opacity="0" result="BackgroundImageFix"/>
<feColorMatrix in="SourceAlpha" type="matrix" values="0 0 0 0 0 0 0 0 0 0 0 0 0 0 0 0 0 0 255 0"/>
<feOffset dy="2"/>
<feGaussianBlur stdDeviation="1"/>
<feColorMatrix type="matrix" values="0 0 0 0 0 0 0 0 0 0 0 0 0 0 0 0 0 0 0.1 0"/>
<feBlend mode="normal" in2="BackgroundImageFix" result="effect1_dropShadow"/>
<feBlend mode="normal" in="SourceGraphic" in2="effect1_dropShadow" result="shape"/>
</filter>
<filter id="filter2_d" x="262.778" y="9.10864" width="38.0016" height="37.7727" filterUnits="userSpaceOnUse" color-interpolation-filters="sRGB">
<feFlood flood-opacity="0" result="BackgroundImageFix"/>
<feColorMatrix in="SourceAlpha" type="matrix" values="0 0 0 0 0 0 0 0 0 0 0 0 0 0 0 0 0 0 255 0"/>
<feOffset dx="1" dy="2"/>
<feGaussianBlur stdDeviation="1"/>
<feColorMatrix type="matrix" values="0 0 0 0 0 0 0 0 0 0 0 0 0 0 0 0 0 0 0.1 0"/>
<feBlend mode="normal" in2="BackgroundImageFix" result="effect1_dropShadow"/>
<feBlend mode="normal" in="SourceGraphic" in2="effect1_dropShadow" result="shape"/>
</filter>
</defs>
</svg>
