<svg width="320" height="70" viewBox="0 0 320 70" fill="none" xmlns="http://www.w3.org/2000/svg">
<rect width="320" height="70" fill="black" fill-opacity="0"/>
<rect width="320" height="70" rx="35" fill="white"/>
<rect x="77" y="9" width="101" height="19" rx="3" fill="#D4ECFC" fill-opacity="0.3"/>
<path d="M84.867 21.39C85.0537 21.39 85.2007 21.4437 85.308 21.551C85.42 21.6537 85.476 21.7913 85.476 21.964V23H78.532V22.426C78.532 22.3093 78.5553 22.188 78.602 22.062C78.6533 21.9313 78.7327 21.8147 78.84 21.712L81.913 18.632C82.1697 18.3707 82.3983 18.121 82.599 17.883C82.8043 17.645 82.9747 17.4093 83.11 17.176C83.2453 16.9427 83.348 16.707 83.418 16.469C83.4927 16.2263 83.53 15.972 83.53 15.706C83.53 15.4633 83.495 15.251 83.425 15.069C83.355 14.8823 83.2547 14.726 83.124 14.6C82.998 14.474 82.844 14.3807 82.662 14.32C82.4847 14.2547 82.284 14.222 82.06 14.222C81.8547 14.222 81.6633 14.2523 81.486 14.313C81.3133 14.369 81.1593 14.4507 81.024 14.558C80.8887 14.6607 80.7743 14.782 80.681 14.922C80.5877 15.062 80.5177 15.216 80.471 15.384C80.3917 15.5987 80.289 15.741 80.163 15.811C80.037 15.881 79.855 15.8973 79.617 15.86L78.707 15.699C78.777 15.2137 78.9123 14.789 79.113 14.425C79.3137 14.0563 79.5633 13.7507 79.862 13.508C80.1653 13.2607 80.5107 13.0763 80.898 12.955C81.29 12.829 81.71 12.766 82.158 12.766C82.6247 12.766 83.0517 12.836 83.439 12.976C83.8263 13.1113 84.1577 13.305 84.433 13.557C84.7083 13.809 84.923 14.1123 85.077 14.467C85.231 14.8217 85.308 15.216 85.308 15.65C85.308 16.0233 85.252 16.3687 85.14 16.686C85.0327 17.0033 84.8857 17.3067 84.699 17.596C84.517 17.8853 84.3023 18.1653 84.055 18.436C83.8077 18.7067 83.5487 18.982 83.278 19.262L80.996 21.593C81.2153 21.5277 81.4323 21.4787 81.647 21.446C81.8663 21.4087 82.074 21.39 82.27 21.39H84.867ZM93.7651 12.878V13.627C93.7651 13.851 93.7418 14.033 93.6951 14.173C93.6484 14.3083 93.6018 14.4227 93.5551 14.516L89.7191 22.412C89.6398 22.5753 89.5278 22.7153 89.3831 22.832C89.2384 22.944 89.0448 23 88.8021 23H87.5491L91.4621 15.265C91.5508 15.1063 91.6371 14.9617 91.7211 14.831C91.8098 14.6957 91.9078 14.5673 92.0151 14.446H87.1711C87.0638 14.446 86.9704 14.4063 86.8911 14.327C86.8118 14.2477 86.7721 14.1543 86.7721 14.047V12.878H93.7651ZM105.29 12.878V13.627C105.29 13.851 105.267 14.033 105.22 14.173C105.174 14.3083 105.127 14.4227 105.08 14.516L101.244 22.412C101.165 22.5753 101.053 22.7153 100.908 22.832C100.764 22.944 100.57 23 100.327 23H99.0745L102.987 15.265C103.076 15.1063 103.162 14.9617 103.246 14.831C103.335 14.6957 103.433 14.5673 103.54 14.446H98.6965C98.5892 14.446 98.4958 14.4063 98.4165 14.327C98.3372 14.2477 98.2975 14.1543 98.2975 14.047V12.878H105.29ZM113.538 17.939C113.538 18.821 113.442 19.5887 113.251 20.242C113.064 20.8907 112.803 21.4273 112.467 21.852C112.135 22.2767 111.741 22.594 111.284 22.804C110.831 23.0093 110.341 23.112 109.814 23.112C109.286 23.112 108.796 23.0093 108.344 22.804C107.896 22.594 107.506 22.2767 107.175 21.852C106.843 21.4273 106.584 20.8907 106.398 20.242C106.211 19.5887 106.118 18.821 106.118 17.939C106.118 17.0523 106.211 16.2847 106.398 15.636C106.584 14.9873 106.843 14.4507 107.175 14.026C107.506 13.6013 107.896 13.2863 108.344 13.081C108.796 12.871 109.286 12.766 109.814 12.766C110.341 12.766 110.831 12.871 111.284 13.081C111.741 13.2863 112.135 13.6013 112.467 14.026C112.803 14.4507 113.064 14.9873 113.251 15.636C113.442 16.2847 113.538 17.0523 113.538 17.939ZM111.753 17.939C111.753 17.2063 111.699 16.5997 111.592 16.119C111.484 15.6383 111.34 15.2557 111.158 14.971C110.98 14.6863 110.775 14.488 110.542 14.376C110.308 14.2593 110.066 14.201 109.814 14.201C109.566 14.201 109.326 14.2593 109.093 14.376C108.864 14.488 108.661 14.6863 108.484 14.971C108.306 15.2557 108.164 15.6383 108.057 16.119C107.954 16.5997 107.903 17.2063 107.903 17.939C107.903 18.6717 107.954 19.2783 108.057 19.759C108.164 20.2397 108.306 20.6223 108.484 20.907C108.661 21.1917 108.864 21.3923 109.093 21.509C109.326 21.621 109.566 21.677 109.814 21.677C110.066 21.677 110.308 21.621 110.542 21.509C110.775 21.3923 110.98 21.1917 111.158 20.907C111.34 20.6223 111.484 20.2397 111.592 19.759C111.699 19.2783 111.753 18.6717 111.753 17.939ZM121.659 17.939C121.659 18.821 121.563 19.5887 121.372 20.242C121.185 20.8907 120.924 21.4273 120.588 21.852C120.256 22.2767 119.862 22.594 119.405 22.804C118.952 23.0093 118.462 23.112 117.935 23.112C117.407 23.112 116.917 23.0093 116.465 22.804C116.017 22.594 115.627 22.2767 115.296 21.852C114.964 21.4273 114.705 20.8907 114.519 20.242C114.332 19.5887 114.239 18.821 114.239 17.939C114.239 17.0523 114.332 16.2847 114.519 15.636C114.705 14.9873 114.964 14.4507 115.296 14.026C115.627 13.6013 116.017 13.2863 116.465 13.081C116.917 12.871 117.407 12.766 117.935 12.766C118.462 12.766 118.952 12.871 119.405 13.081C119.862 13.2863 120.256 13.6013 120.588 14.026C120.924 14.4507 121.185 14.9873 121.372 15.636C121.563 16.2847 121.659 17.0523 121.659 17.939ZM119.874 17.939C119.874 17.2063 119.82 16.5997 119.713 16.119C119.605 15.6383 119.461 15.2557 119.279 14.971C119.101 14.6863 118.896 14.488 118.663 14.376C118.429 14.2593 118.187 14.201 117.935 14.201C117.687 14.201 117.447 14.2593 117.214 14.376C116.985 14.488 116.782 14.6863 116.605 14.971C116.427 15.2557 116.285 15.6383 116.178 16.119C116.075 16.5997 116.024 17.2063 116.024 17.939C116.024 18.6717 116.075 19.2783 116.178 19.759C116.285 20.2397 116.427 20.6223 116.605 20.907C116.782 21.1917 116.985 21.3923 117.214 21.509C117.447 21.621 117.687 21.677 117.935 21.677C118.187 21.677 118.429 21.621 118.663 21.509C118.896 21.3923 119.101 21.1917 119.279 20.907C119.461 20.6223 119.605 20.2397 119.713 19.759C119.82 19.2783 119.874 18.6717 119.874 17.939Z" fill="#3B75FF"/>
<path d="M131.707 15.888V23H130.342V20.039C129.731 20.1977 129.159 20.2957 128.627 20.333C128.095 20.3657 127.631 20.319 127.234 20.193C126.837 20.0623 126.525 19.8407 126.296 19.528C126.072 19.2107 125.96 18.7813 125.96 18.24V15.888H127.332V18.03C127.332 18.3567 127.395 18.618 127.521 18.814C127.647 19.0053 127.836 19.1407 128.088 19.22C128.34 19.2947 128.653 19.318 129.026 19.29C129.404 19.2573 129.843 19.185 130.342 19.073V15.888H131.707ZM138.33 18.653C138.33 18.3823 138.29 18.1327 138.211 17.904C138.136 17.6753 138.024 17.477 137.875 17.309C137.726 17.141 137.544 17.0103 137.329 16.917C137.114 16.8237 136.867 16.777 136.587 16.777C136.013 16.777 135.56 16.9427 135.229 17.274C134.902 17.6053 134.695 18.065 134.606 18.653H138.33ZM139.457 21.985C139.289 22.181 139.095 22.3513 138.876 22.496C138.657 22.636 138.423 22.7503 138.176 22.839C137.929 22.9277 137.672 22.993 137.406 23.035C137.145 23.077 136.886 23.098 136.629 23.098C136.139 23.098 135.684 23.0163 135.264 22.853C134.849 22.685 134.487 22.4423 134.179 22.125C133.876 21.803 133.638 21.4063 133.465 20.935C133.297 20.459 133.213 19.913 133.213 19.297C133.213 18.8023 133.29 18.3427 133.444 17.918C133.598 17.4887 133.817 17.1153 134.102 16.798C134.391 16.4807 134.744 16.231 135.159 16.049C135.574 15.867 136.041 15.776 136.559 15.776C136.993 15.776 137.392 15.8483 137.756 15.993C138.125 16.133 138.442 16.3383 138.708 16.609C138.974 16.8797 139.182 17.2133 139.331 17.61C139.485 18.0067 139.562 18.4593 139.562 18.968C139.562 19.178 139.539 19.3203 139.492 19.395C139.445 19.465 139.359 19.5 139.233 19.5H134.571C134.585 19.9247 134.646 20.2957 134.753 20.613C134.86 20.9257 135.007 21.187 135.194 21.397C135.385 21.607 135.612 21.7633 135.873 21.866C136.134 21.9687 136.426 22.02 136.748 22.02C137.051 22.02 137.313 21.985 137.532 21.915C137.756 21.845 137.947 21.7703 138.106 21.691C138.269 21.607 138.405 21.53 138.512 21.46C138.624 21.39 138.722 21.355 138.806 21.355C138.918 21.355 139.004 21.397 139.065 21.481L139.457 21.985ZM147.35 23H145.985V16.959H143.864C143.808 17.855 143.724 18.6297 143.612 19.283C143.5 19.9317 143.365 20.4847 143.206 20.942C143.048 21.3947 142.87 21.7633 142.674 22.048C142.483 22.328 142.278 22.5473 142.058 22.706C141.844 22.86 141.622 22.9627 141.393 23.014C141.165 23.07 140.936 23.098 140.707 23.098C140.283 23.098 140.07 23.028 140.07 22.888V22.027H140.448C140.607 22.027 140.766 22.0013 140.924 21.95C141.088 21.894 141.246 21.789 141.4 21.635C141.559 21.4763 141.708 21.257 141.848 20.977C141.988 20.697 142.117 20.3307 142.233 19.878C142.35 19.4207 142.45 18.8653 142.534 18.212C142.618 17.5587 142.684 16.784 142.73 15.888H147.35V23ZM152.304 15.776C152.827 15.776 153.298 15.8623 153.718 16.035C154.143 16.203 154.502 16.448 154.796 16.77C155.095 17.0873 155.324 17.4723 155.482 17.925C155.641 18.373 155.72 18.877 155.72 19.437C155.72 19.997 155.641 20.5033 155.482 20.956C155.324 21.4087 155.095 21.7937 154.796 22.111C154.502 22.4283 154.143 22.6733 153.718 22.846C153.298 23.014 152.827 23.098 152.304 23.098C151.777 23.098 151.301 23.014 150.876 22.846C150.456 22.6733 150.097 22.4283 149.798 22.111C149.5 21.7937 149.269 21.4087 149.105 20.956C148.947 20.5033 148.867 19.997 148.867 19.437C148.867 18.877 148.947 18.373 149.105 17.925C149.269 17.4723 149.5 17.0873 149.798 16.77C150.097 16.448 150.456 16.203 150.876 16.035C151.301 15.8623 151.777 15.776 152.304 15.776ZM152.304 22.034C152.976 22.034 153.478 21.8077 153.809 21.355C154.141 20.9023 154.306 20.2653 154.306 19.444C154.306 18.6227 154.141 17.9857 153.809 17.533C153.478 17.0757 152.976 16.847 152.304 16.847C151.623 16.847 151.114 17.0757 150.778 17.533C150.447 17.9857 150.281 18.6227 150.281 19.444C150.281 20.2653 150.447 20.9023 150.778 21.355C151.114 21.8077 151.623 22.034 152.304 22.034ZM160.016 22.041C160.455 22.041 160.802 21.9383 161.059 21.733C161.316 21.523 161.444 21.2407 161.444 20.886C161.444 20.732 161.421 20.5897 161.374 20.459C161.327 20.3237 161.248 20.207 161.136 20.109C161.024 20.011 160.877 19.9363 160.695 19.885C160.513 19.829 160.289 19.801 160.023 19.801H158.546V22.041H160.016ZM158.546 16.798V18.933H159.855C160.051 18.933 160.231 18.905 160.394 18.849C160.562 18.793 160.704 18.716 160.821 18.618C160.942 18.5153 161.036 18.394 161.101 18.254C161.171 18.1093 161.206 17.953 161.206 17.785C161.206 17.659 161.183 17.5377 161.136 17.421C161.094 17.3043 161.019 17.1993 160.912 17.106C160.809 17.0127 160.672 16.938 160.499 16.882C160.326 16.826 160.112 16.798 159.855 16.798H158.546ZM159.897 15.888C160.336 15.888 160.714 15.9323 161.031 16.021C161.348 16.105 161.61 16.224 161.815 16.378C162.02 16.532 162.17 16.7117 162.263 16.917C162.361 17.1223 162.41 17.344 162.41 17.582C162.41 17.736 162.389 17.897 162.347 18.065C162.305 18.233 162.233 18.394 162.13 18.548C162.027 18.6973 161.887 18.835 161.71 18.961C161.537 19.087 161.316 19.185 161.045 19.255C161.568 19.3483 161.974 19.535 162.263 19.815C162.557 20.095 162.704 20.466 162.704 20.928C162.704 21.278 162.632 21.5837 162.487 21.845C162.347 22.1017 162.156 22.3163 161.913 22.489C161.67 22.6617 161.386 22.79 161.059 22.874C160.732 22.958 160.387 23 160.023 23H157.244V15.888H159.897ZM168.928 18.653C168.928 18.3823 168.888 18.1327 168.809 17.904C168.734 17.6753 168.622 17.477 168.473 17.309C168.323 17.141 168.141 17.0103 167.927 16.917C167.712 16.8237 167.465 16.777 167.185 16.777C166.611 16.777 166.158 16.9427 165.827 17.274C165.5 17.6053 165.292 18.065 165.204 18.653H168.928ZM170.055 21.985C169.887 22.181 169.693 22.3513 169.474 22.496C169.254 22.636 169.021 22.7503 168.774 22.839C168.526 22.9277 168.27 22.993 168.004 23.035C167.742 23.077 167.483 23.098 167.227 23.098C166.737 23.098 166.282 23.0163 165.862 22.853C165.446 22.685 165.085 22.4423 164.777 22.125C164.473 21.803 164.235 21.4063 164.063 20.935C163.895 20.459 163.811 19.913 163.811 19.297C163.811 18.8023 163.888 18.3427 164.042 17.918C164.196 17.4887 164.415 17.1153 164.7 16.798C164.989 16.4807 165.341 16.231 165.757 16.049C166.172 15.867 166.639 15.776 167.157 15.776C167.591 15.776 167.99 15.8483 168.354 15.993C168.722 16.133 169.04 16.3383 169.306 16.609C169.572 16.8797 169.779 17.2133 169.929 17.61C170.083 18.0067 170.16 18.4593 170.16 18.968C170.16 19.178 170.136 19.3203 170.09 19.395C170.043 19.465 169.957 19.5 169.831 19.5H165.169C165.183 19.9247 165.243 20.2957 165.351 20.613C165.458 20.9257 165.605 21.187 165.792 21.397C165.983 21.607 166.209 21.7633 166.471 21.866C166.732 21.9687 167.024 22.02 167.346 22.02C167.649 22.02 167.91 21.985 168.13 21.915C168.354 21.845 168.545 21.7703 168.704 21.691C168.867 21.607 169.002 21.53 169.11 21.46C169.222 21.39 169.32 21.355 169.404 21.355C169.516 21.355 169.602 21.397 169.663 21.481L170.055 21.985ZM175.925 16.259C175.995 16.1517 176.088 16.063 176.205 15.993C176.322 15.923 176.445 15.888 176.576 15.888H177.647L175.848 18.576C175.736 18.7533 175.619 18.898 175.498 19.01C175.377 19.122 175.227 19.2083 175.05 19.269C175.274 19.3343 175.463 19.4323 175.617 19.563C175.771 19.689 175.909 19.8547 176.03 20.06L177.843 23H176.898C176.651 23 176.459 22.9603 176.324 22.881C176.193 22.797 176.081 22.678 175.988 22.524L174.686 20.375C174.579 20.1977 174.443 20.0647 174.28 19.976C174.121 19.8873 173.937 19.843 173.727 19.843H172.992V23.007H171.627V15.888H172.992V18.926H173.636C173.832 18.926 173.998 18.8863 174.133 18.807C174.273 18.7277 174.392 18.611 174.49 18.457L175.925 16.259ZM182.062 16.63C182.328 16.378 182.654 16.1727 183.042 16.014C183.429 15.8553 183.893 15.776 184.435 15.776C184.869 15.776 185.251 15.8297 185.583 15.937C185.914 16.0397 186.192 16.1797 186.416 16.357C186.644 16.5297 186.815 16.728 186.927 16.952C187.043 17.176 187.102 17.4093 187.102 17.652C187.102 17.792 187.078 17.939 187.032 18.093C186.99 18.2423 186.92 18.387 186.822 18.527C186.724 18.667 186.593 18.7977 186.43 18.919C186.271 19.0357 186.073 19.1337 185.835 19.213C186.273 19.3483 186.621 19.563 186.878 19.857C187.134 20.151 187.263 20.5173 187.263 20.956C187.263 21.2873 187.186 21.586 187.032 21.852C186.882 22.118 186.679 22.3443 186.423 22.531C186.166 22.713 185.87 22.853 185.534 22.951C185.198 23.049 184.848 23.098 184.484 23.098C184.26 23.098 184.029 23.077 183.791 23.035C183.557 22.993 183.326 22.9277 183.098 22.839C182.869 22.7503 182.652 22.636 182.447 22.496C182.241 22.356 182.057 22.1857 181.894 21.985L182.286 21.481C182.346 21.397 182.433 21.355 182.545 21.355C182.633 21.355 182.724 21.3923 182.818 21.467C182.916 21.537 183.032 21.614 183.168 21.698C183.308 21.782 183.473 21.8613 183.665 21.936C183.861 22.006 184.103 22.041 184.393 22.041C184.64 22.041 184.859 22.0107 185.051 21.95C185.247 21.8893 185.41 21.8053 185.541 21.698C185.676 21.5907 185.779 21.4647 185.849 21.32C185.919 21.1753 185.954 21.0167 185.954 20.844C185.954 20.508 185.816 20.2397 185.541 20.039C185.265 19.8383 184.841 19.738 184.267 19.738H183.462V18.828H184.267C184.771 18.828 185.163 18.7347 185.443 18.548C185.723 18.3567 185.863 18.1117 185.863 17.813C185.863 17.6823 185.832 17.5587 185.772 17.442C185.711 17.3207 185.618 17.2157 185.492 17.127C185.37 17.0337 185.216 16.9613 185.03 16.91C184.848 16.8587 184.635 16.833 184.393 16.833C184.122 16.833 183.893 16.861 183.707 16.917C183.52 16.9683 183.361 17.0267 183.231 17.092C183.1 17.1573 182.99 17.218 182.902 17.274C182.818 17.3253 182.745 17.351 182.685 17.351C182.619 17.351 182.563 17.3393 182.517 17.316C182.475 17.288 182.428 17.2343 182.377 17.155L182.062 16.63ZM192.621 19.843C192.066 19.8617 191.594 19.906 191.207 19.976C190.82 20.0413 190.505 20.13 190.262 20.242C190.019 20.354 189.844 20.487 189.737 20.641C189.63 20.7903 189.576 20.9583 189.576 21.145C189.576 21.3223 189.604 21.4763 189.66 21.607C189.721 21.733 189.8 21.838 189.898 21.922C190.001 22.0013 190.12 22.0597 190.255 22.097C190.39 22.1343 190.537 22.153 190.696 22.153C190.906 22.153 191.097 22.132 191.27 22.09C191.447 22.048 191.613 21.9897 191.767 21.915C191.921 21.8357 192.068 21.74 192.208 21.628C192.348 21.516 192.486 21.3877 192.621 21.243V19.843ZM188.617 16.882C189.014 16.504 189.443 16.2217 189.905 16.035C190.372 15.8483 190.883 15.755 191.438 15.755C191.844 15.755 192.203 15.8227 192.516 15.958C192.829 16.0887 193.092 16.273 193.307 16.511C193.522 16.749 193.683 17.0337 193.79 17.365C193.902 17.6963 193.958 18.0627 193.958 18.464V23H193.349C193.214 23 193.111 22.979 193.041 22.937C192.971 22.8903 192.915 22.8063 192.873 22.685L192.726 22.062C192.544 22.23 192.364 22.3793 192.187 22.51C192.01 22.636 191.823 22.7457 191.627 22.839C191.436 22.9277 191.23 22.9953 191.011 23.042C190.792 23.0887 190.549 23.112 190.283 23.112C190.003 23.112 189.739 23.0747 189.492 23C189.249 22.9207 189.037 22.8017 188.855 22.643C188.673 22.4843 188.528 22.286 188.421 22.048C188.318 21.81 188.267 21.5323 188.267 21.215C188.267 20.935 188.342 20.6667 188.491 20.41C188.645 20.1487 188.892 19.9153 189.233 19.71C189.578 19.5047 190.026 19.3367 190.577 19.206C191.132 19.0753 191.814 19.0007 192.621 18.982V18.464C192.621 17.9273 192.507 17.526 192.278 17.26C192.049 16.994 191.713 16.861 191.27 16.861C190.971 16.861 190.719 16.8983 190.514 16.973C190.313 17.0477 190.138 17.1317 189.989 17.225C189.844 17.3137 189.716 17.3953 189.604 17.47C189.497 17.5447 189.385 17.582 189.268 17.582C189.175 17.582 189.093 17.5563 189.023 17.505C188.958 17.4537 188.904 17.393 188.862 17.323L188.617 16.882ZM199.026 22.083C199.703 22.083 200.209 21.8707 200.545 21.446C200.886 21.0167 201.056 20.41 201.056 19.626C201.056 18.8467 200.891 18.2423 200.559 17.813C200.233 17.379 199.74 17.162 199.082 17.162C198.76 17.162 198.471 17.2133 198.214 17.316C197.962 17.414 197.745 17.561 197.563 17.757C197.386 17.953 197.251 18.1957 197.157 18.485C197.064 18.7697 197.017 19.0987 197.017 19.472C197.017 20.298 197.185 20.9397 197.521 21.397C197.857 21.8543 198.359 22.083 199.026 22.083ZM199.509 14.32C199.047 14.3573 198.648 14.4577 198.312 14.621C197.981 14.7797 197.706 14.9967 197.486 15.272C197.272 15.5473 197.108 15.8763 196.996 16.259C196.884 16.637 196.819 17.064 196.8 17.54C196.917 17.33 197.062 17.1387 197.234 16.966C197.412 16.7933 197.612 16.6463 197.836 16.525C198.06 16.399 198.305 16.3033 198.571 16.238C198.837 16.1727 199.117 16.14 199.411 16.14C199.887 16.14 200.314 16.224 200.692 16.392C201.07 16.56 201.39 16.7957 201.651 17.099C201.917 17.4023 202.12 17.7687 202.26 18.198C202.4 18.6227 202.47 19.0963 202.47 19.619C202.47 20.151 202.389 20.6317 202.225 21.061C202.062 21.4857 201.829 21.8497 201.525 22.153C201.227 22.4563 200.865 22.6897 200.44 22.853C200.016 23.0163 199.544 23.098 199.026 23.098C198.536 23.098 198.081 23.0187 197.661 22.86C197.246 22.6967 196.884 22.4307 196.576 22.062C196.268 21.6933 196.026 21.2103 195.848 20.613C195.676 20.0157 195.589 19.2807 195.589 18.408C195.589 17.666 195.657 16.9823 195.792 16.357C195.928 15.7317 196.145 15.1857 196.443 14.719C196.747 14.2523 197.141 13.8767 197.626 13.592C198.112 13.3073 198.702 13.137 199.397 13.081L201.931 12.871L202.008 13.585C202.027 13.739 202.004 13.8697 201.938 13.977C201.878 14.0843 201.77 14.1427 201.616 14.152L199.509 14.32ZM205.367 21.25C205.591 21.544 205.831 21.7493 206.088 21.866C206.349 21.9827 206.641 22.041 206.963 22.041C207.588 22.041 208.071 21.817 208.412 21.369C208.757 20.9163 208.93 20.2583 208.93 19.395C208.93 18.9423 208.89 18.5573 208.811 18.24C208.736 17.918 208.624 17.6567 208.475 17.456C208.33 17.2507 208.151 17.1013 207.936 17.008C207.721 16.91 207.479 16.861 207.208 16.861C206.811 16.861 206.466 16.9497 206.172 17.127C205.883 17.3043 205.614 17.5563 205.367 17.883V21.25ZM205.297 16.952C205.446 16.7747 205.605 16.6137 205.773 16.469C205.946 16.3197 206.13 16.1937 206.326 16.091C206.522 15.9837 206.73 15.902 206.949 15.846C207.173 15.7853 207.411 15.755 207.663 15.755C208.069 15.755 208.435 15.8343 208.762 15.993C209.093 16.1517 209.376 16.385 209.609 16.693C209.842 17.001 210.022 17.3813 210.148 17.834C210.279 18.2867 210.344 18.807 210.344 19.395C210.344 19.9223 210.272 20.4123 210.127 20.865C209.987 21.313 209.784 21.7027 209.518 22.034C209.257 22.3653 208.935 22.6267 208.552 22.818C208.174 23.0047 207.747 23.098 207.271 23.098C206.846 23.098 206.482 23.028 206.179 22.888C205.876 22.748 205.605 22.552 205.367 22.3V25.387H204.002V15.888H204.821C205.012 15.888 205.131 15.979 205.178 16.161L205.297 16.952ZM214.894 15.776C215.417 15.776 215.888 15.8623 216.308 16.035C216.733 16.203 217.092 16.448 217.386 16.77C217.685 17.0873 217.914 17.4723 218.072 17.925C218.231 18.373 218.31 18.877 218.31 19.437C218.31 19.997 218.231 20.5033 218.072 20.956C217.914 21.4087 217.685 21.7937 217.386 22.111C217.092 22.4283 216.733 22.6733 216.308 22.846C215.888 23.014 215.417 23.098 214.894 23.098C214.367 23.098 213.891 23.014 213.466 22.846C213.046 22.6733 212.687 22.4283 212.388 22.111C212.09 21.7937 211.859 21.4087 211.695 20.956C211.537 20.5033 211.457 19.997 211.457 19.437C211.457 18.877 211.537 18.373 211.695 17.925C211.859 17.4723 212.09 17.0873 212.388 16.77C212.687 16.448 213.046 16.203 213.466 16.035C213.891 15.8623 214.367 15.776 214.894 15.776ZM214.894 22.034C215.566 22.034 216.068 21.8077 216.399 21.355C216.731 20.9023 216.896 20.2653 216.896 19.444C216.896 18.6227 216.731 17.9857 216.399 17.533C216.068 17.0757 215.566 16.847 214.894 16.847C214.213 16.847 213.704 17.0757 213.368 17.533C213.037 17.9857 212.871 18.6227 212.871 19.444C212.871 20.2653 213.037 20.9023 213.368 21.355C213.704 21.8077 214.213 22.034 214.894 22.034ZM225.826 15.888V23H224.454V19.724H221.199V23H219.834V15.888H221.199V18.688H224.454V15.888H225.826ZM233.91 15.888V23H232.538V18.352C232.538 18.2587 232.543 18.156 232.552 18.044C232.562 17.9273 232.576 17.8107 232.594 17.694C232.548 17.792 232.501 17.8853 232.454 17.974C232.412 18.058 232.368 18.1327 232.321 18.198L229.052 22.657C229.001 22.741 228.933 22.8203 228.849 22.895C228.765 22.9697 228.67 23.007 228.562 23.007H227.736V15.888H229.101V20.543C229.101 20.6363 229.097 20.7413 229.087 20.858C229.078 20.97 229.064 21.082 229.045 21.194C229.139 20.9887 229.23 20.823 229.318 20.697L232.587 16.231C232.639 16.1517 232.706 16.0747 232.79 16C232.879 15.9253 232.977 15.888 233.084 15.888H233.91ZM237.181 21.25C237.405 21.544 237.646 21.7493 237.902 21.866C238.164 21.9827 238.455 22.041 238.777 22.041C239.403 22.041 239.886 21.817 240.226 21.369C240.572 20.9163 240.744 20.2583 240.744 19.395C240.744 18.9423 240.705 18.5573 240.625 18.24C240.551 17.918 240.439 17.6567 240.289 17.456C240.145 17.2507 239.965 17.1013 239.75 17.008C239.536 16.91 239.293 16.861 239.022 16.861C238.626 16.861 238.28 16.9497 237.986 17.127C237.697 17.3043 237.429 17.5563 237.181 17.883V21.25ZM237.111 16.952C237.261 16.7747 237.419 16.6137 237.587 16.469C237.76 16.3197 237.944 16.1937 238.14 16.091C238.336 15.9837 238.544 15.902 238.763 15.846C238.987 15.7853 239.225 15.755 239.477 15.755C239.883 15.755 240.25 15.8343 240.576 15.993C240.908 16.1517 241.19 16.385 241.423 16.693C241.657 17.001 241.836 17.3813 241.962 17.834C242.093 18.2867 242.158 18.807 242.158 19.395C242.158 19.9223 242.086 20.4123 241.941 20.865C241.801 21.313 241.598 21.7027 241.332 22.034C241.071 22.3653 240.749 22.6267 240.366 22.818C239.988 23.0047 239.561 23.098 239.085 23.098C238.661 23.098 238.297 23.028 237.993 22.888C237.69 22.748 237.419 22.552 237.181 22.3V25.387H235.816V15.888H236.635C236.827 15.888 236.946 15.979 236.992 16.161L237.111 16.952ZM246.709 15.776C247.231 15.776 247.703 15.8623 248.123 16.035C248.547 16.203 248.907 16.448 249.201 16.77C249.499 17.0873 249.728 17.4723 249.887 17.925C250.045 18.373 250.125 18.877 250.125 19.437C250.125 19.997 250.045 20.5033 249.887 20.956C249.728 21.4087 249.499 21.7937 249.201 22.111C248.907 22.4283 248.547 22.6733 248.123 22.846C247.703 23.014 247.231 23.098 246.709 23.098C246.181 23.098 245.705 23.014 245.281 22.846C244.861 22.6733 244.501 22.4283 244.203 22.111C243.904 21.7937 243.673 21.4087 243.51 20.956C243.351 20.5033 243.272 19.997 243.272 19.437C243.272 18.877 243.351 18.373 243.51 17.925C243.673 17.4723 243.904 17.0873 244.203 16.77C244.501 16.448 244.861 16.203 245.281 16.035C245.705 15.8623 246.181 15.776 246.709 15.776ZM246.709 22.034C247.381 22.034 247.882 21.8077 248.214 21.355C248.545 20.9023 248.711 20.2653 248.711 19.444C248.711 18.6227 248.545 17.9857 248.214 17.533C247.882 17.0757 247.381 16.847 246.709 16.847C246.027 16.847 245.519 17.0757 245.183 17.533C244.851 17.9857 244.686 18.6227 244.686 19.444C244.686 20.2653 244.851 20.9023 245.183 21.355C245.519 21.8077 246.027 22.034 246.709 22.034ZM254.42 22.041C254.859 22.041 255.207 21.9383 255.463 21.733C255.72 21.523 255.848 21.2407 255.848 20.886C255.848 20.732 255.825 20.5897 255.778 20.459C255.732 20.3237 255.652 20.207 255.54 20.109C255.428 20.011 255.281 19.9363 255.099 19.885C254.917 19.829 254.693 19.801 254.427 19.801H252.95V22.041H254.42ZM252.95 16.798V18.933H254.259C254.455 18.933 254.635 18.905 254.798 18.849C254.966 18.793 255.109 18.716 255.225 18.618C255.347 18.5153 255.44 18.394 255.505 18.254C255.575 18.1093 255.61 17.953 255.61 17.785C255.61 17.659 255.587 17.5377 255.54 17.421C255.498 17.3043 255.424 17.1993 255.316 17.106C255.214 17.0127 255.076 16.938 254.903 16.882C254.731 16.826 254.516 16.798 254.259 16.798H252.95ZM254.301 15.888C254.74 15.888 255.118 15.9323 255.435 16.021C255.753 16.105 256.014 16.224 256.219 16.378C256.425 16.532 256.574 16.7117 256.667 16.917C256.765 17.1223 256.814 17.344 256.814 17.582C256.814 17.736 256.793 17.897 256.751 18.065C256.709 18.233 256.637 18.394 256.534 18.548C256.432 18.6973 256.292 18.835 256.114 18.961C255.942 19.087 255.72 19.185 255.449 19.255C255.972 19.3483 256.378 19.535 256.667 19.815C256.961 20.095 257.108 20.466 257.108 20.928C257.108 21.278 257.036 21.5837 256.891 21.845C256.751 22.1017 256.56 22.3163 256.317 22.489C256.075 22.6617 255.79 22.79 255.463 22.874C255.137 22.958 254.791 23 254.427 23H251.648V15.888H254.301ZM262.443 19.843C261.888 19.8617 261.416 19.906 261.029 19.976C260.642 20.0413 260.327 20.13 260.084 20.242C259.841 20.354 259.666 20.487 259.559 20.641C259.452 20.7903 259.398 20.9583 259.398 21.145C259.398 21.3223 259.426 21.4763 259.482 21.607C259.543 21.733 259.622 21.838 259.72 21.922C259.823 22.0013 259.942 22.0597 260.077 22.097C260.212 22.1343 260.359 22.153 260.518 22.153C260.728 22.153 260.919 22.132 261.092 22.09C261.269 22.048 261.435 21.9897 261.589 21.915C261.743 21.8357 261.89 21.74 262.03 21.628C262.17 21.516 262.308 21.3877 262.443 21.243V19.843ZM258.439 16.882C258.836 16.504 259.265 16.2217 259.727 16.035C260.194 15.8483 260.705 15.755 261.26 15.755C261.666 15.755 262.025 15.8227 262.338 15.958C262.651 16.0887 262.914 16.273 263.129 16.511C263.344 16.749 263.505 17.0337 263.612 17.365C263.724 17.6963 263.78 18.0627 263.78 18.464V23H263.171C263.036 23 262.933 22.979 262.863 22.937C262.793 22.8903 262.737 22.8063 262.695 22.685L262.548 22.062C262.366 22.23 262.186 22.3793 262.009 22.51C261.832 22.636 261.645 22.7457 261.449 22.839C261.258 22.9277 261.052 22.9953 260.833 23.042C260.614 23.0887 260.371 23.112 260.105 23.112C259.825 23.112 259.561 23.0747 259.314 23C259.071 22.9207 258.859 22.8017 258.677 22.643C258.495 22.4843 258.35 22.286 258.243 22.048C258.14 21.81 258.089 21.5323 258.089 21.215C258.089 20.935 258.164 20.6667 258.313 20.41C258.467 20.1487 258.714 19.9153 259.055 19.71C259.4 19.5047 259.848 19.3367 260.399 19.206C260.954 19.0753 261.636 19.0007 262.443 18.982V18.464C262.443 17.9273 262.329 17.526 262.1 17.26C261.871 16.994 261.535 16.861 261.092 16.861C260.793 16.861 260.541 16.8983 260.336 16.973C260.135 17.0477 259.96 17.1317 259.811 17.225C259.666 17.3137 259.538 17.3953 259.426 17.47C259.319 17.5447 259.207 17.582 259.09 17.582C258.997 17.582 258.915 17.5563 258.845 17.505C258.78 17.4537 258.726 17.393 258.684 17.323L258.439 16.882ZM271.928 23H270.563V16.959H268.442C268.386 17.855 268.302 18.6297 268.19 19.283C268.078 19.9317 267.943 20.4847 267.784 20.942C267.626 21.3947 267.448 21.7633 267.252 22.048C267.061 22.328 266.856 22.5473 266.636 22.706C266.422 22.86 266.2 22.9627 265.971 23.014C265.743 23.07 265.514 23.098 265.285 23.098C264.861 23.098 264.648 23.028 264.648 22.888V22.027H265.026C265.185 22.027 265.344 22.0013 265.502 21.95C265.666 21.894 265.824 21.789 265.978 21.635C266.137 21.4763 266.286 21.257 266.426 20.977C266.566 20.697 266.695 20.3307 266.811 19.878C266.928 19.4207 267.028 18.8653 267.112 18.212C267.196 17.5587 267.262 16.784 267.308 15.888H271.928V23ZM280.026 15.888V23H278.654V18.352C278.654 18.2587 278.658 18.156 278.668 18.044C278.677 17.9273 278.691 17.8107 278.71 17.694C278.663 17.792 278.616 17.8853 278.57 17.974C278.528 18.058 278.483 18.1327 278.437 18.198L275.168 22.657C275.116 22.741 275.049 22.8203 274.965 22.895C274.881 22.9697 274.785 23.007 274.678 23.007H273.852V15.888H275.217V20.543C275.217 20.6363 275.212 20.7413 275.203 20.858C275.193 20.97 275.179 21.082 275.161 21.194C275.254 20.9887 275.345 20.823 275.434 20.697L278.703 16.231C278.754 16.1517 278.822 16.0747 278.906 16C278.994 15.9253 279.092 15.888 279.2 15.888H280.026ZM84.951 32.888V40H83.579V36.724H80.324V40H78.959V32.888H80.324V35.688H83.579V32.888H84.951ZM89.8923 32.776C90.415 32.776 90.8863 32.8623 91.3063 33.035C91.731 33.203 92.0903 33.448 92.3843 33.77C92.683 34.0873 92.9117 34.4723 93.0703 34.925C93.229 35.373 93.3083 35.877 93.3083 36.437C93.3083 36.997 93.229 37.5033 93.0703 37.956C92.9117 38.4087 92.683 38.7937 92.3843 39.111C92.0903 39.4283 91.731 39.6733 91.3063 39.846C90.8863 40.014 90.415 40.098 89.8923 40.098C89.365 40.098 88.889 40.014 88.4643 39.846C88.0443 39.6733 87.685 39.4283 87.3863 39.111C87.0877 38.7937 86.8567 38.4087 86.6933 37.956C86.5347 37.5033 86.4553 36.997 86.4553 36.437C86.4553 35.877 86.5347 35.373 86.6933 34.925C86.8567 34.4723 87.0877 34.0873 87.3863 33.77C87.685 33.448 88.0443 33.203 88.4643 33.035C88.889 32.8623 89.365 32.776 89.8923 32.776ZM89.8923 39.034C90.5643 39.034 91.066 38.8077 91.3973 38.355C91.7287 37.9023 91.8943 37.2653 91.8943 36.444C91.8943 35.6227 91.7287 34.9857 91.3973 34.533C91.066 34.0757 90.5643 33.847 89.8923 33.847C89.211 33.847 88.7023 34.0757 88.3663 34.533C88.035 34.9857 87.8693 35.6227 87.8693 36.444C87.8693 37.2653 88.035 37.9023 88.3663 38.355C88.7023 38.8077 89.211 39.034 89.8923 39.034ZM102.833 32.867V40H101.601V35.478C101.601 35.338 101.608 35.1793 101.622 35.002C101.641 34.8247 101.666 34.6613 101.699 34.512L99.319 38.726C99.277 38.8053 99.2234 38.8683 99.158 38.915C99.0927 38.957 99.0157 38.978 98.927 38.978H98.773C98.689 38.978 98.612 38.957 98.542 38.915C98.4767 38.8683 98.423 38.8053 98.381 38.726L95.966 34.498C95.994 34.6473 96.0174 34.813 96.036 34.995C96.0547 35.1723 96.064 35.3333 96.064 35.478V40H94.832V32.867H95.938C96.0314 32.867 96.1247 32.888 96.218 32.93C96.3114 32.972 96.3907 33.0537 96.456 33.175L98.535 36.689C98.5957 36.801 98.6517 36.92 98.703 37.046C98.7544 37.172 98.8034 37.298 98.85 37.424C98.8967 37.298 98.9434 37.172 98.99 37.046C99.0414 36.92 99.0974 36.801 99.158 36.689L101.209 33.175C101.274 33.049 101.354 32.9673 101.447 32.93C101.54 32.888 101.634 32.867 101.727 32.867H102.833ZM109.455 35.653C109.455 35.3823 109.415 35.1327 109.336 34.904C109.261 34.6753 109.149 34.477 109 34.309C108.851 34.141 108.669 34.0103 108.454 33.917C108.239 33.8237 107.992 33.777 107.712 33.777C107.138 33.777 106.685 33.9427 106.354 34.274C106.027 34.6053 105.82 35.065 105.731 35.653H109.455ZM110.582 38.985C110.414 39.181 110.22 39.3513 110.001 39.496C109.782 39.636 109.548 39.7503 109.301 39.839C109.054 39.9277 108.797 39.993 108.531 40.035C108.27 40.077 108.011 40.098 107.754 40.098C107.264 40.098 106.809 40.0163 106.389 39.853C105.974 39.685 105.612 39.4423 105.304 39.125C105.001 38.803 104.763 38.4063 104.59 37.935C104.422 37.459 104.338 36.913 104.338 36.297C104.338 35.8023 104.415 35.3427 104.569 34.918C104.723 34.4887 104.942 34.1153 105.227 33.798C105.516 33.4807 105.869 33.231 106.284 33.049C106.699 32.867 107.166 32.776 107.684 32.776C108.118 32.776 108.517 32.8483 108.881 32.993C109.25 33.133 109.567 33.3383 109.833 33.609C110.099 33.8797 110.307 34.2133 110.456 34.61C110.61 35.0067 110.687 35.4593 110.687 35.968C110.687 36.178 110.664 36.3203 110.617 36.395C110.57 36.465 110.484 36.5 110.358 36.5H105.696C105.71 36.9247 105.771 37.2957 105.878 37.613C105.985 37.9257 106.132 38.187 106.319 38.397C106.51 38.607 106.737 38.7633 106.998 38.866C107.259 38.9687 107.551 39.02 107.873 39.02C108.176 39.02 108.438 38.985 108.657 38.915C108.881 38.845 109.072 38.7703 109.231 38.691C109.394 38.607 109.53 38.53 109.637 38.46C109.749 38.39 109.847 38.355 109.931 38.355C110.043 38.355 110.129 38.397 110.19 38.481L110.582 38.985ZM113.519 38.25C113.743 38.544 113.984 38.7493 114.24 38.866C114.502 38.9827 114.793 39.041 115.115 39.041C115.741 39.041 116.224 38.817 116.564 38.369C116.91 37.9163 117.082 37.2583 117.082 36.395C117.082 35.9423 117.043 35.5573 116.963 35.24C116.889 34.918 116.777 34.6567 116.627 34.456C116.483 34.2507 116.303 34.1013 116.088 34.008C115.874 33.91 115.631 33.861 115.36 33.861C114.964 33.861 114.618 33.9497 114.324 34.127C114.035 34.3043 113.767 34.5563 113.519 34.883V38.25ZM113.449 33.952C113.599 33.7747 113.757 33.6137 113.925 33.469C114.098 33.3197 114.282 33.1937 114.478 33.091C114.674 32.9837 114.882 32.902 115.101 32.846C115.325 32.7853 115.563 32.755 115.815 32.755C116.221 32.755 116.588 32.8343 116.914 32.993C117.246 33.1517 117.528 33.385 117.761 33.693C117.995 34.001 118.174 34.3813 118.3 34.834C118.431 35.2867 118.496 35.807 118.496 36.395C118.496 36.9223 118.424 37.4123 118.279 37.865C118.139 38.313 117.936 38.7027 117.67 39.034C117.409 39.3653 117.087 39.6267 116.704 39.818C116.326 40.0047 115.899 40.098 115.423 40.098C114.999 40.098 114.635 40.028 114.331 39.888C114.028 39.748 113.757 39.552 113.519 39.3V42.387H112.154V32.888H112.973C113.165 32.888 113.284 32.979 113.33 33.161L113.449 33.952ZM123.109 33.63C123.375 33.378 123.701 33.1727 124.089 33.014C124.476 32.8553 124.94 32.776 125.482 32.776C125.916 32.776 126.298 32.8297 126.63 32.937C126.961 33.0397 127.239 33.1797 127.463 33.357C127.691 33.5297 127.862 33.728 127.974 33.952C128.09 34.176 128.149 34.4093 128.149 34.652C128.149 34.792 128.125 34.939 128.079 35.093C128.037 35.2423 127.967 35.387 127.869 35.527C127.771 35.667 127.64 35.7977 127.477 35.919C127.318 36.0357 127.12 36.1337 126.882 36.213C127.32 36.3483 127.668 36.563 127.925 36.857C128.181 37.151 128.31 37.5173 128.31 37.956C128.31 38.2873 128.233 38.586 128.079 38.852C127.929 39.118 127.726 39.3443 127.47 39.531C127.213 39.713 126.917 39.853 126.581 39.951C126.245 40.049 125.895 40.098 125.531 40.098C125.307 40.098 125.076 40.077 124.838 40.035C124.604 39.993 124.373 39.9277 124.145 39.839C123.916 39.7503 123.699 39.636 123.494 39.496C123.288 39.356 123.104 39.1857 122.941 38.985L123.333 38.481C123.393 38.397 123.48 38.355 123.592 38.355C123.68 38.355 123.771 38.3923 123.865 38.467C123.963 38.537 124.079 38.614 124.215 38.698C124.355 38.782 124.52 38.8613 124.712 38.936C124.908 39.006 125.15 39.041 125.44 39.041C125.687 39.041 125.906 39.0107 126.098 38.95C126.294 38.8893 126.457 38.8053 126.588 38.698C126.723 38.5907 126.826 38.4647 126.896 38.32C126.966 38.1753 127.001 38.0167 127.001 37.844C127.001 37.508 126.863 37.2397 126.588 37.039C126.312 36.8383 125.888 36.738 125.314 36.738H124.509V35.828H125.314C125.818 35.828 126.21 35.7347 126.49 35.548C126.77 35.3567 126.91 35.1117 126.91 34.813C126.91 34.6823 126.879 34.5587 126.819 34.442C126.758 34.3207 126.665 34.2157 126.539 34.127C126.417 34.0337 126.263 33.9613 126.077 33.91C125.895 33.8587 125.682 33.833 125.44 33.833C125.169 33.833 124.94 33.861 124.754 33.917C124.567 33.9683 124.408 34.0267 124.278 34.092C124.147 34.1573 124.037 34.218 123.949 34.274C123.865 34.3253 123.792 34.351 123.732 34.351C123.666 34.351 123.61 34.3393 123.564 34.316C123.522 34.288 123.475 34.2343 123.424 34.155L123.109 33.63ZM133.668 36.843C133.112 36.8617 132.641 36.906 132.254 36.976C131.866 37.0413 131.551 37.13 131.309 37.242C131.066 37.354 130.891 37.487 130.784 37.641C130.676 37.7903 130.623 37.9583 130.623 38.145C130.623 38.3223 130.651 38.4763 130.707 38.607C130.767 38.733 130.847 38.838 130.945 38.922C131.047 39.0013 131.166 39.0597 131.302 39.097C131.437 39.1343 131.584 39.153 131.743 39.153C131.953 39.153 132.144 39.132 132.317 39.09C132.494 39.048 132.66 38.9897 132.814 38.915C132.968 38.8357 133.115 38.74 133.255 38.628C133.395 38.516 133.532 38.3877 133.668 38.243V36.843ZM129.664 33.882C130.06 33.504 130.49 33.2217 130.952 33.035C131.418 32.8483 131.929 32.755 132.485 32.755C132.891 32.755 133.25 32.8227 133.563 32.958C133.875 33.0887 134.139 33.273 134.354 33.511C134.568 33.749 134.729 34.0337 134.837 34.365C134.949 34.6963 135.005 35.0627 135.005 35.464V40H134.396C134.26 40 134.158 39.979 134.088 39.937C134.018 39.8903 133.962 39.8063 133.92 39.685L133.773 39.062C133.591 39.23 133.411 39.3793 133.234 39.51C133.056 39.636 132.87 39.7457 132.674 39.839C132.482 39.9277 132.277 39.9953 132.058 40.042C131.838 40.0887 131.596 40.112 131.33 40.112C131.05 40.112 130.786 40.0747 130.539 40C130.296 39.9207 130.084 39.8017 129.902 39.643C129.72 39.4843 129.575 39.286 129.468 39.048C129.365 38.81 129.314 38.5323 129.314 38.215C129.314 37.935 129.388 37.6667 129.538 37.41C129.692 37.1487 129.939 36.9153 130.28 36.71C130.625 36.5047 131.073 36.3367 131.624 36.206C132.179 36.0753 132.86 36.0007 133.668 35.982V35.464C133.668 34.9273 133.553 34.526 133.325 34.26C133.096 33.994 132.76 33.861 132.317 33.861C132.018 33.861 131.766 33.8983 131.561 33.973C131.36 34.0477 131.185 34.1317 131.036 34.225C130.891 34.3137 130.763 34.3953 130.651 34.47C130.543 34.5447 130.431 34.582 130.315 34.582C130.221 34.582 130.14 34.5563 130.07 34.505C130.004 34.4537 129.951 34.393 129.909 34.323L129.664 33.882ZM146.365 40H144.993V33.924H141.738V40H140.373V32.888H146.365V40ZM151.306 32.776C151.829 32.776 152.3 32.8623 152.72 33.035C153.145 33.203 153.504 33.448 153.798 33.77C154.097 34.0873 154.326 34.4723 154.484 34.925C154.643 35.373 154.722 35.877 154.722 36.437C154.722 36.997 154.643 37.5033 154.484 37.956C154.326 38.4087 154.097 38.7937 153.798 39.111C153.504 39.4283 153.145 39.6733 152.72 39.846C152.3 40.014 151.829 40.098 151.306 40.098C150.779 40.098 150.303 40.014 149.878 39.846C149.458 39.6733 149.099 39.4283 148.8 39.111C148.502 38.7937 148.271 38.4087 148.107 37.956C147.949 37.5033 147.869 36.997 147.869 36.437C147.869 35.877 147.949 35.373 148.107 34.925C148.271 34.4723 148.502 34.0873 148.8 33.77C149.099 33.448 149.458 33.203 149.878 33.035C150.303 32.8623 150.779 32.776 151.306 32.776ZM151.306 39.034C151.978 39.034 152.48 38.8077 152.811 38.355C153.143 37.9023 153.308 37.2653 153.308 36.444C153.308 35.6227 153.143 34.9857 152.811 34.533C152.48 34.0757 151.978 33.847 151.306 33.847C150.625 33.847 150.116 34.0757 149.78 34.533C149.449 34.9857 149.283 35.6227 149.283 36.444C149.283 37.2653 149.449 37.9023 149.78 38.355C150.116 38.8077 150.625 39.034 151.306 39.034ZM161.23 34.218C161.188 34.2693 161.146 34.3113 161.104 34.344C161.067 34.372 161.011 34.386 160.936 34.386C160.861 34.386 160.782 34.358 160.698 34.302C160.619 34.2413 160.516 34.1783 160.39 34.113C160.269 34.043 160.119 33.98 159.942 33.924C159.769 33.8633 159.555 33.833 159.298 33.833C158.962 33.833 158.666 33.8937 158.409 34.015C158.152 34.1363 157.938 34.309 157.765 34.533C157.597 34.757 157.469 35.03 157.38 35.352C157.291 35.674 157.247 36.0357 157.247 36.437C157.247 36.8523 157.294 37.2233 157.387 37.55C157.48 37.872 157.613 38.145 157.786 38.369C157.959 38.5883 158.169 38.7563 158.416 38.873C158.663 38.985 158.939 39.041 159.242 39.041C159.536 39.041 159.779 39.006 159.97 38.936C160.161 38.8613 160.32 38.782 160.446 38.698C160.572 38.614 160.677 38.537 160.761 38.467C160.845 38.3923 160.931 38.355 161.02 38.355C161.132 38.355 161.218 38.397 161.279 38.481L161.671 38.985C161.508 39.1857 161.323 39.356 161.118 39.496C160.917 39.636 160.703 39.7503 160.474 39.839C160.245 39.9277 160.005 39.993 159.753 40.035C159.506 40.077 159.254 40.098 158.997 40.098C158.554 40.098 158.138 40.0163 157.751 39.853C157.368 39.6897 157.035 39.4517 156.75 39.139C156.47 38.8263 156.248 38.4437 156.085 37.991C155.922 37.5337 155.84 37.0157 155.84 36.437C155.84 35.9097 155.912 35.422 156.057 34.974C156.206 34.526 156.423 34.141 156.708 33.819C156.997 33.4923 157.352 33.238 157.772 33.056C158.192 32.8693 158.673 32.776 159.214 32.776C159.723 32.776 160.171 32.8577 160.558 33.021C160.945 33.1843 161.291 33.4153 161.594 33.714L161.23 34.218ZM169.266 40H167.901V33.959H165.78C165.724 34.855 165.64 35.6297 165.528 36.283C165.416 36.9317 165.281 37.4847 165.122 37.942C164.964 38.3947 164.786 38.7633 164.59 39.048C164.399 39.328 164.194 39.5473 163.974 39.706C163.76 39.86 163.538 39.9627 163.309 40.014C163.081 40.07 162.852 40.098 162.623 40.098C162.199 40.098 161.986 40.028 161.986 39.888V39.027H162.364C162.523 39.027 162.682 39.0013 162.84 38.95C163.004 38.894 163.162 38.789 163.316 38.635C163.475 38.4763 163.624 38.257 163.764 37.977C163.904 37.697 164.033 37.3307 164.149 36.878C164.266 36.4207 164.366 35.8653 164.45 35.212C164.534 34.5587 164.6 33.784 164.646 32.888H169.266V40ZM175.9 35.653C175.9 35.3823 175.861 35.1327 175.781 34.904C175.707 34.6753 175.595 34.477 175.445 34.309C175.296 34.141 175.114 34.0103 174.899 33.917C174.685 33.8237 174.437 33.777 174.157 33.777C173.583 33.777 173.131 33.9427 172.799 34.274C172.473 34.6053 172.265 35.065 172.176 35.653H175.9ZM177.027 38.985C176.859 39.181 176.666 39.3513 176.446 39.496C176.227 39.636 175.994 39.7503 175.746 39.839C175.499 39.9277 175.242 39.993 174.976 40.035C174.715 40.077 174.456 40.098 174.199 40.098C173.709 40.098 173.254 40.0163 172.834 39.853C172.419 39.685 172.057 39.4423 171.749 39.125C171.446 38.803 171.208 38.4063 171.035 37.935C170.867 37.459 170.783 36.913 170.783 36.297C170.783 35.8023 170.86 35.3427 171.014 34.918C171.168 34.4887 171.388 34.1153 171.672 33.798C171.962 33.4807 172.314 33.231 172.729 33.049C173.145 32.867 173.611 32.776 174.129 32.776C174.563 32.776 174.962 32.8483 175.326 32.993C175.695 33.133 176.012 33.3383 176.278 33.609C176.544 33.8797 176.752 34.2133 176.901 34.61C177.055 35.0067 177.132 35.4593 177.132 35.968C177.132 36.178 177.109 36.3203 177.062 36.395C177.016 36.465 176.929 36.5 176.803 36.5H172.141C172.155 36.9247 172.216 37.2957 172.323 37.613C172.431 37.9257 172.578 38.187 172.764 38.397C172.956 38.607 173.182 38.7633 173.443 38.866C173.705 38.9687 173.996 39.02 174.318 39.02C174.622 39.02 174.883 38.985 175.102 38.915C175.326 38.845 175.518 38.7703 175.676 38.691C175.84 38.607 175.975 38.53 176.082 38.46C176.194 38.39 176.292 38.355 176.376 38.355C176.488 38.355 176.575 38.397 176.635 38.481L177.027 38.985ZM183.403 39.006V33.959H181.275C181.228 34.6497 181.165 35.2657 181.086 35.807C181.007 36.3483 180.913 36.8243 180.806 37.235C180.703 37.641 180.589 37.991 180.463 38.285C180.337 38.5743 180.204 38.8147 180.064 39.006H183.403ZM186.028 38.964V42.009C186.028 42.1397 185.991 42.2423 185.916 42.317C185.846 42.3917 185.753 42.429 185.636 42.429H184.789V40H178.979V42.037C178.979 42.1397 178.949 42.2307 178.888 42.31C178.827 42.3893 178.732 42.429 178.601 42.429H177.733V39.006H177.964C178.127 39.006 178.288 38.9803 178.447 38.929C178.606 38.8777 178.757 38.775 178.902 38.621C179.051 38.467 179.191 38.25 179.322 37.97C179.453 37.69 179.572 37.3237 179.679 36.871C179.786 36.4183 179.88 35.8677 179.959 35.219C180.038 34.5657 180.101 33.7887 180.148 32.888H184.726V38.964H186.028ZM193.246 32.888V40H191.874V36.724H188.619V40H187.254V32.888H188.619V35.688H191.874V32.888H193.246ZM201.33 32.888V40H199.958V35.352C199.958 35.2587 199.963 35.156 199.972 35.044C199.982 34.9273 199.996 34.8107 200.014 34.694C199.968 34.792 199.921 34.8853 199.874 34.974C199.832 35.058 199.788 35.1327 199.741 35.198L196.472 39.657C196.421 39.741 196.353 39.8203 196.269 39.895C196.185 39.9697 196.09 40.007 195.982 40.007H195.156V32.888H196.521V37.543C196.521 37.6363 196.517 37.7413 196.507 37.858C196.498 37.97 196.484 38.082 196.465 38.194C196.559 37.9887 196.65 37.823 196.738 37.697L200.007 33.231C200.059 33.1517 200.126 33.0747 200.21 33C200.299 32.9253 200.397 32.888 200.504 32.888H201.33ZM207.947 35.653C207.947 35.3823 207.908 35.1327 207.828 34.904C207.754 34.6753 207.642 34.477 207.492 34.309C207.343 34.141 207.161 34.0103 206.946 33.917C206.732 33.8237 206.484 33.777 206.204 33.777C205.63 33.777 205.178 33.9427 204.846 34.274C204.52 34.6053 204.312 35.065 204.223 35.653H207.947ZM209.074 38.985C208.906 39.181 208.713 39.3513 208.493 39.496C208.274 39.636 208.041 39.7503 207.793 39.839C207.546 39.9277 207.289 39.993 207.023 40.035C206.762 40.077 206.503 40.098 206.246 40.098C205.756 40.098 205.301 40.0163 204.881 39.853C204.466 39.685 204.104 39.4423 203.796 39.125C203.493 38.803 203.255 38.4063 203.082 37.935C202.914 37.459 202.83 36.913 202.83 36.297C202.83 35.8023 202.907 35.3427 203.061 34.918C203.215 34.4887 203.435 34.1153 203.719 33.798C204.009 33.4807 204.361 33.231 204.776 33.049C205.192 32.867 205.658 32.776 206.176 32.776C206.61 32.776 207.009 32.8483 207.373 32.993C207.742 33.133 208.059 33.3383 208.325 33.609C208.591 33.8797 208.799 34.2133 208.948 34.61C209.102 35.0067 209.179 35.4593 209.179 35.968C209.179 36.178 209.156 36.3203 209.109 36.395C209.063 36.465 208.976 36.5 208.85 36.5H204.188C204.202 36.9247 204.263 37.2957 204.37 37.613C204.478 37.9257 204.625 38.187 204.811 38.397C205.003 38.607 205.229 38.7633 205.49 38.866C205.752 38.9687 206.043 39.02 206.365 39.02C206.669 39.02 206.93 38.985 207.149 38.915C207.373 38.845 207.565 38.7703 207.723 38.691C207.887 38.607 208.022 38.53 208.129 38.46C208.241 38.39 208.339 38.355 208.423 38.355C208.535 38.355 208.622 38.397 208.682 38.481L209.074 38.985ZM220.131 38.705C220.28 38.705 220.397 38.7493 220.481 38.838C220.565 38.922 220.607 39.034 220.607 39.174V40H213.859V39.531C213.859 39.4377 213.877 39.3397 213.915 39.237C213.952 39.1297 214.015 39.034 214.104 38.95L217.282 35.765C217.548 35.499 217.788 35.2423 218.003 34.995C218.217 34.7477 218.399 34.5027 218.549 34.26C218.698 34.0127 218.812 33.7607 218.892 33.504C218.976 33.2473 219.018 32.9767 219.018 32.692C219.018 32.412 218.973 32.167 218.885 31.957C218.796 31.7423 218.675 31.565 218.521 31.425C218.367 31.285 218.185 31.18 217.975 31.11C217.765 31.04 217.538 31.005 217.296 31.005C217.053 31.005 216.829 31.04 216.624 31.11C216.423 31.18 216.243 31.278 216.085 31.404C215.926 31.53 215.793 31.6793 215.686 31.852C215.578 32.0247 215.501 32.2113 215.455 32.412C215.389 32.5893 215.305 32.7083 215.203 32.769C215.105 32.8297 214.96 32.8437 214.769 32.811L214.055 32.685C214.12 32.2183 214.248 31.8077 214.44 31.453C214.631 31.0983 214.871 30.802 215.161 30.564C215.45 30.3213 215.781 30.1393 216.155 30.018C216.533 29.8967 216.939 29.836 217.373 29.836C217.811 29.836 218.215 29.9013 218.584 30.032C218.957 30.158 219.279 30.3423 219.55 30.585C219.82 30.8277 220.033 31.124 220.187 31.474C220.341 31.8193 220.418 32.2113 220.418 32.65C220.418 33.0233 220.362 33.371 220.25 33.693C220.142 34.0103 219.993 34.3137 219.802 34.603C219.615 34.8923 219.396 35.1747 219.144 35.45C218.896 35.7207 218.633 35.996 218.353 36.276L215.805 38.88C216.001 38.8287 216.197 38.7867 216.393 38.754C216.593 38.7213 216.782 38.705 216.96 38.705H220.131ZM226.432 36.332V32.412C226.432 32.2767 226.434 32.1343 226.439 31.985C226.448 31.831 226.464 31.6723 226.488 31.509L222.967 36.332H226.432ZM229.085 36.332V37.123C229.085 37.2023 229.059 37.27 229.008 37.326C228.956 37.382 228.884 37.41 228.791 37.41H227.629V40H226.432V37.41H222.022C221.919 37.41 221.833 37.382 221.763 37.326C221.693 37.2653 221.646 37.1907 221.623 37.102L221.483 36.402L226.341 29.941H227.629V36.332H229.085ZM239.305 32.888V40H237.94V37.039C237.328 37.1977 236.757 37.2957 236.225 37.333C235.693 37.3657 235.228 37.319 234.832 37.193C234.435 37.0623 234.122 36.8407 233.894 36.528C233.67 36.2107 233.558 35.7813 233.558 35.24V32.888H234.93V35.03C234.93 35.3567 234.993 35.618 235.119 35.814C235.245 36.0053 235.434 36.1407 235.686 36.22C235.938 36.2947 236.25 36.318 236.624 36.29C237.002 36.2573 237.44 36.185 237.94 36.073V32.888H239.305ZM245.039 36.843C244.483 36.8617 244.012 36.906 243.625 36.976C243.237 37.0413 242.922 37.13 242.68 37.242C242.437 37.354 242.262 37.487 242.155 37.641C242.047 37.7903 241.994 37.9583 241.994 38.145C241.994 38.3223 242.022 38.4763 242.078 38.607C242.138 38.733 242.218 38.838 242.316 38.922C242.418 39.0013 242.537 39.0597 242.673 39.097C242.808 39.1343 242.955 39.153 243.114 39.153C243.324 39.153 243.515 39.132 243.688 39.09C243.865 39.048 244.031 38.9897 244.185 38.915C244.339 38.8357 244.486 38.74 244.626 38.628C244.766 38.516 244.903 38.3877 245.039 38.243V36.843ZM241.035 33.882C241.431 33.504 241.861 33.2217 242.323 33.035C242.789 32.8483 243.3 32.755 243.856 32.755C244.262 32.755 244.621 32.8227 244.934 32.958C245.246 33.0887 245.51 33.273 245.725 33.511C245.939 33.749 246.1 34.0337 246.208 34.365C246.32 34.6963 246.376 35.0627 246.376 35.464V40H245.767C245.631 40 245.529 39.979 245.459 39.937C245.389 39.8903 245.333 39.8063 245.291 39.685L245.144 39.062C244.962 39.23 244.782 39.3793 244.605 39.51C244.427 39.636 244.241 39.7457 244.045 39.839C243.853 39.9277 243.648 39.9953 243.429 40.042C243.209 40.0887 242.967 40.112 242.701 40.112C242.421 40.112 242.157 40.0747 241.91 40C241.667 39.9207 241.455 39.8017 241.273 39.643C241.091 39.4843 240.946 39.286 240.839 39.048C240.736 38.81 240.685 38.5323 240.685 38.215C240.685 37.935 240.759 37.6667 240.909 37.41C241.063 37.1487 241.31 36.9153 241.651 36.71C241.996 36.5047 242.444 36.3367 242.995 36.206C243.55 36.0753 244.231 36.0007 245.039 35.982V35.464C245.039 34.9273 244.924 34.526 244.696 34.26C244.467 33.994 244.131 33.861 243.688 33.861C243.389 33.861 243.137 33.8983 242.932 33.973C242.731 34.0477 242.556 34.1317 242.407 34.225C242.262 34.3137 242.134 34.3953 242.022 34.47C241.914 34.5447 241.802 34.582 241.686 34.582C241.592 34.582 241.511 34.5563 241.441 34.505C241.375 34.4537 241.322 34.393 241.28 34.323L241.035 33.882ZM253.187 34.218C253.145 34.2693 253.103 34.3113 253.061 34.344C253.024 34.372 252.968 34.386 252.893 34.386C252.818 34.386 252.739 34.358 252.655 34.302C252.576 34.2413 252.473 34.1783 252.347 34.113C252.226 34.043 252.076 33.98 251.899 33.924C251.726 33.8633 251.512 33.833 251.255 33.833C250.919 33.833 250.623 33.8937 250.366 34.015C250.109 34.1363 249.895 34.309 249.722 34.533C249.554 34.757 249.426 35.03 249.337 35.352C249.248 35.674 249.204 36.0357 249.204 36.437C249.204 36.8523 249.251 37.2233 249.344 37.55C249.437 37.872 249.57 38.145 249.743 38.369C249.916 38.5883 250.126 38.7563 250.373 38.873C250.62 38.985 250.896 39.041 251.199 39.041C251.493 39.041 251.736 39.006 251.927 38.936C252.118 38.8613 252.277 38.782 252.403 38.698C252.529 38.614 252.634 38.537 252.718 38.467C252.802 38.3923 252.888 38.355 252.977 38.355C253.089 38.355 253.175 38.397 253.236 38.481L253.628 38.985C253.465 39.1857 253.28 39.356 253.075 39.496C252.874 39.636 252.66 39.7503 252.431 39.839C252.202 39.9277 251.962 39.993 251.71 40.035C251.463 40.077 251.211 40.098 250.954 40.098C250.511 40.098 250.095 40.0163 249.708 39.853C249.325 39.6897 248.992 39.4517 248.707 39.139C248.427 38.8263 248.205 38.4437 248.042 37.991C247.879 37.5337 247.797 37.0157 247.797 36.437C247.797 35.9097 247.869 35.422 248.014 34.974C248.163 34.526 248.38 34.141 248.665 33.819C248.954 33.4923 249.309 33.238 249.729 33.056C250.149 32.8693 250.63 32.776 251.171 32.776C251.68 32.776 252.128 32.8577 252.515 33.021C252.902 33.1843 253.248 33.4153 253.551 33.714L253.187 34.218ZM258.724 36.843C258.169 36.8617 257.698 36.906 257.31 36.976C256.923 37.0413 256.608 37.13 256.365 37.242C256.123 37.354 255.948 37.487 255.84 37.641C255.733 37.7903 255.679 37.9583 255.679 38.145C255.679 38.3223 255.707 38.4763 255.763 38.607C255.824 38.733 255.903 38.838 256.001 38.922C256.104 39.0013 256.223 39.0597 256.358 39.097C256.494 39.1343 256.641 39.153 256.799 39.153C257.009 39.153 257.201 39.132 257.373 39.09C257.551 39.048 257.716 38.9897 257.87 38.915C258.024 38.8357 258.171 38.74 258.311 38.628C258.451 38.516 258.589 38.3877 258.724 38.243V36.843ZM254.72 33.882C255.117 33.504 255.546 33.2217 256.008 33.035C256.475 32.8483 256.986 32.755 257.541 32.755C257.947 32.755 258.307 32.8227 258.619 32.958C258.932 33.0887 259.196 33.273 259.41 33.511C259.625 33.749 259.786 34.0337 259.893 34.365C260.005 34.6963 260.061 35.0627 260.061 35.464V40H259.452C259.317 40 259.214 39.979 259.144 39.937C259.074 39.8903 259.018 39.8063 258.976 39.685L258.829 39.062C258.647 39.23 258.468 39.3793 258.29 39.51C258.113 39.636 257.926 39.7457 257.73 39.839C257.539 39.9277 257.334 39.9953 257.114 40.042C256.895 40.0887 256.652 40.112 256.386 40.112C256.106 40.112 255.843 40.0747 255.595 40C255.353 39.9207 255.14 39.8017 254.958 39.643C254.776 39.4843 254.632 39.286 254.524 39.048C254.422 38.81 254.37 38.5323 254.37 38.215C254.37 37.935 254.445 37.6667 254.594 37.41C254.748 37.1487 254.996 36.9153 255.336 36.71C255.682 36.5047 256.13 36.3367 256.68 36.206C257.236 36.0753 257.917 36.0007 258.724 35.982V35.464C258.724 34.9273 258.61 34.526 258.381 34.26C258.153 33.994 257.817 33.861 257.373 33.861C257.075 33.861 256.823 33.8983 256.617 33.973C256.417 34.0477 256.242 34.1317 256.092 34.225C255.948 34.3137 255.819 34.3953 255.707 34.47C255.6 34.5447 255.488 34.582 255.371 34.582C255.278 34.582 255.196 34.5563 255.126 34.505C255.061 34.4537 255.007 34.393 254.965 34.323L254.72 33.882Z" fill="#484848"/>
<circle cx="36" cy="35" r="31" fill="#6FBFF6" fill-opacity="0.3"/>
<rect width="28" height="36" fill="black" fill-opacity="0" transform="translate(22 16)"/>
<path d="M22.4661 33.557C22.4661 33.557 23.8228 35.6465 26.6663 37.4151C26.6663 37.4151 24.6069 19.1689 38.0251 16C34.5873 29.2273 42.398 32.9575 45.2452 25.9693C50 32.6245 46.3898 38.4307 46.3898 38.4307C48.3395 38.7252 49.9772 36.4922 49.9772 36.4922C49.9918 36.7673 50 37.0443 50 37.3232C50.0001 45.4289 43.7321 52 36 52C28.268 52 22 45.4289 22 37.3231C22 36.0211 22.1626 34.759 22.4661 33.557Z" fill="#FE8B68"/>
<path d="M29.8604 45.5632C29.8604 49.1181 32.6093 51.9999 36.0002 51.9999C39.3911 51.9999 42.14 49.1181 42.14 45.5632C42.14 43.6605 41.3526 41.9506 40.1006 40.7722C37.7267 44.1532 34.3438 39.0246 36.9802 35.2793C36.9802 35.2793 29.8604 36.2147 29.8604 45.5632Z" fill="#FEE8A1"/>
<rect width="28" height="36" fill="black" fill-opacity="0" transform="translate(22 16)"/>
<path d="M22.4661 33.557C22.4661 33.557 23.8228 35.6465 26.6663 37.4151C26.6663 37.4151 24.6069 19.1689 38.0251 16C34.5873 29.2273 42.398 32.9575 45.2452 25.9693C50 32.6245 46.3898 38.4307 46.3898 38.4307C48.3395 38.7252 49.9772 36.4922 49.9772 36.4922C49.9918 36.7673 50 37.0443 50 37.3232C50.0001 45.4289 43.7321 52 36 52C28.268 52 22 45.4289 22 37.3231C22 36.0211 22.1626 34.759 22.4661 33.557Z" fill="#FE8B68"/>
<path d="M29.8604 45.5632C29.8604 49.1181 32.6093 51.9999 36.0002 51.9999C39.3911 51.9999 42.14 49.1181 42.14 45.5632C42.14 43.6605 41.3526 41.9506 40.1006 40.7722C37.7267 44.1532 34.3438 39.0246 36.9802 35.2793C36.9802 35.2793 29.8604 36.2147 29.8604 45.5632Z" fill="#FEE8A1"/>
<rect width="11" height="7.5" fill="black" fill-opacity="0" transform="translate(78 52)"/>
<rect width="11" height="7.5" fill="black" fill-opacity="0" transform="translate(78 52)"/>
<path fill-rule="evenodd" clip-rule="evenodd" d="M87.6113 52.2438C87.2666 51.9187 86.6748 51.9187 86.3301 52.2438L82.2334 56.085L80.4629 54.4032C80.1182 54.0782 79.5264 54.0782 79.1807 54.4032L78 55.75L81.5967 59.2563C81.9414 59.5813 82.5332 59.5813 82.8779 59.2563L83.5928 58.5828C83.6182 58.5592 83.6416 58.5343 83.6631 58.5085L89 53.579L87.6113 52.2438Z" fill="#32BA7C"/>
<path fill-rule="evenodd" clip-rule="evenodd" d="M86.4669 52.3897L82.2325 56.36L80.3257 54.5487C80.3256 54.5487 80.3258 54.5488 80.3257 54.5487C80.0602 54.2987 79.5941 54.2962 79.3243 54.5428L78.2754 55.7392L81.735 59.1118C82.0029 59.3632 82.4734 59.3628 82.7407 59.1107L83.4567 58.4362C83.4756 58.4187 83.4931 58.4001 83.5092 58.3807L83.5177 58.3705L88.7084 53.5761L87.4741 52.3893C87.4739 52.3891 87.4743 52.3895 87.4741 52.3893C87.2063 52.1375 86.7343 52.1375 86.4669 52.3897ZM87.6113 52.2438C87.2666 51.9187 86.6748 51.9187 86.3301 52.2438L82.2334 56.085L80.4629 54.4032C80.1182 54.0782 79.5264 54.0782 79.1807 54.4032L78 55.75L81.5967 59.2563C81.9414 59.5813 82.5332 59.5813 82.8779 59.2563L83.5928 58.5828C83.6182 58.5592 83.6416 58.5343 83.6631 58.5085L89 53.579L87.6113 52.2438Z" fill="white"/>
<path d="M93.66 57.75C93.82 57.96 93.9933 58.1067 94.18 58.19C94.3667 58.2733 94.57 58.315 94.79 58.315C95.2433 58.315 95.5917 58.1533 95.835 57.83C96.0817 57.5067 96.205 57.0183 96.205 56.365C96.205 55.7617 96.0967 55.32 95.88 55.04C95.6633 54.7567 95.3567 54.615 94.96 54.615C94.68 54.615 94.4367 54.6783 94.23 54.805C94.0267 54.9317 93.8367 55.1117 93.66 55.345V57.75ZM93.66 54.62C93.87 54.3867 94.1083 54.1983 94.375 54.055C94.6417 53.9117 94.945 53.84 95.285 53.84C95.5817 53.84 95.8483 53.8983 96.085 54.015C96.325 54.1283 96.5283 54.2933 96.695 54.51C96.8617 54.7233 96.99 54.9833 97.08 55.29C97.17 55.5967 97.215 55.9433 97.215 56.33C97.215 56.74 97.1633 57.1133 97.06 57.45C96.96 57.7867 96.815 58.075 96.625 58.315C96.4383 58.555 96.21 58.7417 95.94 58.875C95.67 59.005 95.3667 59.07 95.03 59.07C94.8667 59.07 94.7167 59.0533 94.58 59.02C94.4433 58.99 94.3167 58.945 94.2 58.885C94.0867 58.825 93.9817 58.7517 93.885 58.665C93.7883 58.5783 93.6967 58.48 93.61 58.37L93.565 58.795C93.5383 58.9317 93.455 59 93.315 59H92.685V51.62H93.66V54.62ZM102.604 53.92L99.7835 60.475C99.7535 60.5483 99.7135 60.605 99.6635 60.645C99.6135 60.685 99.5402 60.705 99.4435 60.705H98.7185L99.6485 58.68L97.5635 53.92H98.4135C98.4968 53.92 98.5618 53.94 98.6085 53.98C98.6552 54.02 98.6885 54.065 98.7085 54.115L99.9985 57.165C100.025 57.2417 100.05 57.32 100.074 57.4C100.1 57.4767 100.122 57.5533 100.139 57.63C100.162 57.55 100.187 57.4717 100.214 57.395C100.24 57.315 100.269 57.2367 100.299 57.16L101.544 54.115C101.567 54.0583 101.604 54.0117 101.654 53.975C101.704 53.9383 101.76 53.92 101.824 53.92H102.604Z" fill="#898989"/>
<path d="M108.282 59V53.14H106.062V52H111.742V53.14H109.522V59H108.282ZM112.184 59V53.72H113.394V54.91C113.767 54.01 114.39 53.58 115.264 53.62V54.9H115.194C114.647 54.9 114.21 55.08 113.884 55.44C113.557 55.7933 113.394 56.31 113.394 56.99V59H112.184ZM118.135 59.11C117.548 59.11 117.088 58.9267 116.755 58.56C116.421 58.1933 116.255 57.7 116.255 57.08V53.72H117.465V56.72C117.465 57.1333 117.561 57.4533 117.755 57.68C117.955 57.9 118.235 58.01 118.595 58.01C118.948 58.01 119.235 57.8933 119.455 57.66C119.675 57.4267 119.785 57.1067 119.785 56.7V53.72H120.995V59H119.785V58.18C119.365 58.8 118.815 59.11 118.135 59.11ZM124.326 59.1C123.499 59.1 122.753 58.8367 122.086 58.31L122.626 57.49C123.199 57.9233 123.776 58.14 124.356 58.14C124.616 58.14 124.816 58.09 124.956 57.99C125.103 57.8833 125.176 57.7367 125.176 57.55C125.176 57.4567 125.149 57.3767 125.096 57.31C125.049 57.2367 124.963 57.17 124.836 57.11C124.709 57.05 124.603 57.0067 124.516 56.98C124.429 56.9533 124.286 56.91 124.086 56.85L123.996 56.82C123.809 56.7667 123.649 56.7167 123.516 56.67C123.389 56.6167 123.246 56.5467 123.086 56.46C122.926 56.3733 122.796 56.28 122.696 56.18C122.596 56.0733 122.513 55.94 122.446 55.78C122.379 55.62 122.346 55.44 122.346 55.24C122.346 54.7533 122.523 54.3633 122.876 54.07C123.236 53.7767 123.686 53.63 124.226 53.63C124.913 53.63 125.559 53.83 126.166 54.23L125.686 55.09C125.139 54.7567 124.643 54.59 124.196 54.59C123.963 54.59 123.779 54.64 123.646 54.74C123.519 54.84 123.456 54.9733 123.456 55.14C123.456 55.2533 123.513 55.3567 123.626 55.45C123.746 55.5433 123.863 55.6133 123.976 55.66C124.096 55.7 124.286 55.7633 124.546 55.85C124.559 55.8567 124.576 55.8633 124.596 55.87C124.616 55.8767 124.633 55.88 124.646 55.88C124.879 55.9533 125.076 56.0267 125.236 56.1C125.396 56.1667 125.563 56.26 125.736 56.38C125.916 56.5 126.053 56.65 126.146 56.83C126.239 57.0033 126.286 57.2067 126.286 57.44C126.286 57.9733 126.103 58.3833 125.736 58.67C125.369 58.9567 124.899 59.1 124.326 59.1ZM129.188 59.09C128.175 59.09 127.668 58.5733 127.668 57.54V54.76H126.998V53.72H127.668V52.27H128.878V53.72H130.298V54.76H128.878V57.35C128.878 57.79 129.095 58.01 129.528 58.01C129.788 58.01 130.038 57.95 130.278 57.83V58.82C129.958 59 129.595 59.09 129.188 59.09ZM134.058 59L137.138 51.95H138.278L141.358 59H140.058L139.348 57.31H136.038L135.318 59H134.058ZM136.488 56.22H138.898L137.688 53.42L136.488 56.22ZM144.604 59.12C143.824 59.12 143.174 58.8533 142.654 58.32C142.134 57.7867 141.874 57.1367 141.874 56.37C141.874 55.61 142.134 54.96 142.654 54.42C143.181 53.88 143.834 53.61 144.614 53.61C145.468 53.61 146.171 53.9133 146.724 54.52L145.974 55.33C145.554 54.89 145.098 54.67 144.604 54.67C144.171 54.67 143.808 54.8367 143.514 55.17C143.228 55.4967 143.084 55.8967 143.084 56.37C143.084 56.85 143.231 57.2533 143.524 57.58C143.824 57.9067 144.204 58.07 144.664 58.07C145.151 58.07 145.608 57.85 146.034 57.41L146.764 58.13C146.478 58.45 146.164 58.6967 145.824 58.87C145.491 59.0367 145.084 59.12 144.604 59.12ZM149.647 59.09C148.634 59.09 148.127 58.5733 148.127 57.54V54.76H147.457V53.72H148.127V52.27H149.337V53.72H150.757V54.76H149.337V57.35C149.337 57.79 149.554 58.01 149.987 58.01C150.247 58.01 150.497 57.95 150.737 57.83V58.82C150.417 59 150.054 59.09 149.647 59.09ZM151.999 52.91V51.76H153.299V52.91H151.999ZM152.049 59V53.72H153.259V59H152.049ZM156.51 59.04L154.34 53.72H155.64L157.06 57.6L158.49 53.72H159.76L157.6 59.04H156.51ZM160.807 52.91V51.76H162.107V52.91H160.807ZM160.857 59V53.72H162.067V59H160.857ZM165.419 59.09C164.405 59.09 163.899 58.5733 163.899 57.54V54.76H163.229V53.72H163.899V52.27H165.109V53.72H166.529V54.76H165.109V57.35C165.109 57.79 165.325 58.01 165.759 58.01C166.019 58.01 166.269 57.95 166.509 57.83V58.82C166.189 59 165.825 59.09 165.419 59.09ZM168.83 60.63C168.39 60.63 167.974 60.5233 167.58 60.31L167.99 59.41C168.237 59.5433 168.474 59.61 168.7 59.61C168.874 59.61 169.017 59.5633 169.13 59.47C169.244 59.3833 169.35 59.2267 169.45 59L167.25 53.72H168.54L170.04 57.64L171.41 53.72H172.67L170.57 59.15C170.357 59.69 170.12 60.07 169.86 60.29C169.6 60.5167 169.257 60.63 168.83 60.63Z" fill="#32BA7C"/>
</svg>
