<svg width="320" height="70" viewBox="0 0 320 70" fill="none" xmlns="http://www.w3.org/2000/svg">
<rect width="320" height="70" fill="black" fill-opacity="0"/>
<rect width="320" height="70" rx="35" fill="white"/>
<rect x="77" y="9" width="76" height="19" rx="3" fill="#D4ECFC" fill-opacity="0.3"/>
<path d="M84.867 21.39C85.0537 21.39 85.2007 21.4437 85.308 21.551C85.42 21.6537 85.476 21.7913 85.476 21.964V23H78.532V22.426C78.532 22.3093 78.5553 22.188 78.602 22.062C78.6533 21.9313 78.7327 21.8147 78.84 21.712L81.913 18.632C82.1697 18.3707 82.3983 18.121 82.599 17.883C82.8043 17.645 82.9747 17.4093 83.11 17.176C83.2453 16.9427 83.348 16.707 83.418 16.469C83.4927 16.2263 83.53 15.972 83.53 15.706C83.53 15.4633 83.495 15.251 83.425 15.069C83.355 14.8823 83.2547 14.726 83.124 14.6C82.998 14.474 82.844 14.3807 82.662 14.32C82.4847 14.2547 82.284 14.222 82.06 14.222C81.8547 14.222 81.6633 14.2523 81.486 14.313C81.3133 14.369 81.1593 14.4507 81.024 14.558C80.8887 14.6607 80.7743 14.782 80.681 14.922C80.5877 15.062 80.5177 15.216 80.471 15.384C80.3917 15.5987 80.289 15.741 80.163 15.811C80.037 15.881 79.855 15.8973 79.617 15.86L78.707 15.699C78.777 15.2137 78.9123 14.789 79.113 14.425C79.3137 14.0563 79.5633 13.7507 79.862 13.508C80.1653 13.2607 80.5107 13.0763 80.898 12.955C81.29 12.829 81.71 12.766 82.158 12.766C82.6247 12.766 83.0517 12.836 83.439 12.976C83.8263 13.1113 84.1577 13.305 84.433 13.557C84.7083 13.809 84.923 14.1123 85.077 14.467C85.231 14.8217 85.308 15.216 85.308 15.65C85.308 16.0233 85.252 16.3687 85.14 16.686C85.0327 17.0033 84.8857 17.3067 84.699 17.596C84.517 17.8853 84.3023 18.1653 84.055 18.436C83.8077 18.7067 83.5487 18.982 83.278 19.262L80.996 21.593C81.2153 21.5277 81.4323 21.4787 81.647 21.446C81.8663 21.4087 82.074 21.39 82.27 21.39H84.867ZM93.7651 12.878V13.627C93.7651 13.851 93.7418 14.033 93.6951 14.173C93.6484 14.3083 93.6018 14.4227 93.5551 14.516L89.7191 22.412C89.6398 22.5753 89.5278 22.7153 89.3831 22.832C89.2384 22.944 89.0448 23 88.8021 23H87.5491L91.4621 15.265C91.5508 15.1063 91.6371 14.9617 91.7211 14.831C91.8098 14.6957 91.9078 14.5673 92.0151 14.446H87.1711C87.0638 14.446 86.9704 14.4063 86.8911 14.327C86.8118 14.2477 86.7721 14.1543 86.7721 14.047V12.878H93.7651ZM101.886 12.878V13.627C101.886 13.851 101.863 14.033 101.816 14.173C101.77 14.3083 101.723 14.4227 101.676 14.516L97.8402 22.412C97.7609 22.5753 97.6489 22.7153 97.5042 22.832C97.3595 22.944 97.1659 23 96.9232 23H95.6702L99.5832 15.265C99.6719 15.1063 99.7582 14.9617 99.8422 14.831C99.9309 14.6957 100.029 14.5673 100.136 14.446H95.2922C95.1849 14.446 95.0915 14.4063 95.0122 14.327C94.9329 14.2477 94.8932 14.1543 94.8932 14.047V12.878H101.886ZM112.755 15.818L109.906 23H108.338L105.489 15.818H106.917C107.047 15.818 107.155 15.8483 107.239 15.909C107.327 15.9697 107.386 16.0467 107.414 16.14L108.8 19.976C108.874 20.2 108.94 20.4193 108.996 20.634C109.052 20.8487 109.101 21.0633 109.143 21.278C109.189 21.0633 109.241 20.8487 109.297 20.634C109.353 20.4193 109.42 20.2 109.5 19.976L110.914 16.14C110.946 16.0467 111.005 15.9697 111.089 15.909C111.173 15.8483 111.273 15.818 111.39 15.818H112.755ZM115.468 15.818V23H113.732V15.818H115.468ZM115.706 13.725C115.706 13.8743 115.676 14.0143 115.615 14.145C115.555 14.2757 115.473 14.39 115.37 14.488C115.272 14.586 115.156 14.6653 115.02 14.726C114.885 14.782 114.74 14.81 114.586 14.81C114.437 14.81 114.295 14.782 114.159 14.726C114.029 14.6653 113.914 14.586 113.816 14.488C113.718 14.39 113.639 14.2757 113.578 14.145C113.522 14.0143 113.494 13.8743 113.494 13.725C113.494 13.571 113.522 13.4263 113.578 13.291C113.639 13.1557 113.718 13.039 113.816 12.941C113.914 12.843 114.029 12.766 114.159 12.71C114.295 12.6493 114.437 12.619 114.586 12.619C114.74 12.619 114.885 12.6493 115.02 12.71C115.156 12.766 115.272 12.843 115.37 12.941C115.473 13.039 115.555 13.1557 115.615 13.291C115.676 13.4263 115.706 13.571 115.706 13.725ZM121.613 17.218C121.566 17.2927 121.517 17.3463 121.466 17.379C121.415 17.407 121.349 17.421 121.27 17.421C121.186 17.421 121.095 17.3977 120.997 17.351C120.904 17.3043 120.794 17.253 120.668 17.197C120.542 17.1363 120.397 17.0827 120.234 17.036C120.075 16.9893 119.886 16.966 119.667 16.966C119.326 16.966 119.058 17.0383 118.862 17.183C118.671 17.3277 118.575 17.5167 118.575 17.75C118.575 17.904 118.624 18.0347 118.722 18.142C118.825 18.2447 118.958 18.3357 119.121 18.415C119.289 18.4943 119.478 18.5667 119.688 18.632C119.898 18.6927 120.11 18.7603 120.325 18.835C120.544 18.9097 120.759 18.996 120.969 19.094C121.179 19.1873 121.366 19.3087 121.529 19.458C121.697 19.6027 121.83 19.7777 121.928 19.983C122.031 20.1883 122.082 20.4357 122.082 20.725C122.082 21.0703 122.019 21.39 121.893 21.684C121.772 21.9733 121.59 22.2253 121.347 22.44C121.104 22.65 120.803 22.8157 120.444 22.937C120.089 23.0537 119.679 23.112 119.212 23.112C118.965 23.112 118.722 23.0887 118.484 23.042C118.251 23 118.024 22.9393 117.805 22.86C117.59 22.7807 117.39 22.6873 117.203 22.58C117.021 22.4727 116.86 22.356 116.72 22.23L117.119 21.572C117.17 21.4927 117.231 21.432 117.301 21.39C117.371 21.348 117.46 21.327 117.567 21.327C117.674 21.327 117.775 21.3573 117.868 21.418C117.966 21.4787 118.078 21.544 118.204 21.614C118.33 21.684 118.477 21.7493 118.645 21.81C118.818 21.8707 119.035 21.901 119.296 21.901C119.501 21.901 119.676 21.8777 119.821 21.831C119.97 21.7797 120.092 21.7143 120.185 21.635C120.283 21.5557 120.353 21.4647 120.395 21.362C120.442 21.2547 120.465 21.145 120.465 21.033C120.465 20.865 120.414 20.7273 120.311 20.62C120.213 20.5127 120.08 20.4193 119.912 20.34C119.749 20.2607 119.56 20.1907 119.345 20.13C119.135 20.0647 118.918 19.9947 118.694 19.92C118.475 19.8453 118.258 19.759 118.043 19.661C117.833 19.5583 117.644 19.43 117.476 19.276C117.313 19.122 117.18 18.933 117.077 18.709C116.979 18.485 116.93 18.2143 116.93 17.897C116.93 17.603 116.988 17.323 117.105 17.057C117.222 16.791 117.392 16.56 117.616 16.364C117.845 16.1633 118.127 16.0047 118.463 15.888C118.804 15.7667 119.196 15.706 119.639 15.706C120.134 15.706 120.584 15.7877 120.99 15.951C121.396 16.1143 121.734 16.329 122.005 16.595L121.613 17.218ZM125.175 15.818V23H123.439V15.818H125.175ZM125.413 13.725C125.413 13.8743 125.383 14.0143 125.322 14.145C125.262 14.2757 125.18 14.39 125.077 14.488C124.979 14.586 124.863 14.6653 124.727 14.726C124.592 14.782 124.447 14.81 124.293 14.81C124.144 14.81 124.002 14.782 123.866 14.726C123.736 14.6653 123.621 14.586 123.523 14.488C123.425 14.39 123.346 14.2757 123.285 14.145C123.229 14.0143 123.201 13.8743 123.201 13.725C123.201 13.571 123.229 13.4263 123.285 13.291C123.346 13.1557 123.425 13.039 123.523 12.941C123.621 12.843 123.736 12.766 123.866 12.71C124.002 12.6493 124.144 12.619 124.293 12.619C124.447 12.619 124.592 12.6493 124.727 12.71C124.863 12.766 124.979 12.843 125.077 12.941C125.18 13.039 125.262 13.1557 125.322 13.291C125.383 13.4263 125.413 13.571 125.413 13.725ZM129.332 23.112C128.707 23.112 128.226 22.937 127.89 22.587C127.559 22.2323 127.393 21.7447 127.393 21.124V17.113H126.658C126.565 17.113 126.485 17.0827 126.42 17.022C126.355 16.9613 126.322 16.8703 126.322 16.749V16.063L127.477 15.874L127.841 13.914C127.864 13.8207 127.909 13.7483 127.974 13.697C128.039 13.6457 128.123 13.62 128.226 13.62H129.122V15.881H131.04V17.113H129.122V21.005C129.122 21.229 129.176 21.404 129.283 21.53C129.395 21.656 129.547 21.719 129.738 21.719C129.845 21.719 129.934 21.7073 130.004 21.684C130.079 21.656 130.142 21.628 130.193 21.6C130.249 21.572 130.298 21.5463 130.34 21.523C130.382 21.495 130.424 21.481 130.466 21.481C130.517 21.481 130.559 21.495 130.592 21.523C130.625 21.5463 130.66 21.5837 130.697 21.635L131.215 22.475C130.963 22.685 130.674 22.8437 130.347 22.951C130.02 23.0583 129.682 23.112 129.332 23.112ZM135.27 15.706C135.802 15.706 136.285 15.7923 136.719 15.965C137.158 16.1377 137.531 16.3827 137.839 16.7C138.152 17.0173 138.392 17.4047 138.56 17.862C138.728 18.3193 138.812 18.8303 138.812 19.395C138.812 19.9643 138.728 20.4777 138.56 20.935C138.392 21.3923 138.152 21.782 137.839 22.104C137.531 22.426 137.158 22.6733 136.719 22.846C136.285 23.0187 135.802 23.105 135.27 23.105C134.734 23.105 134.246 23.0187 133.807 22.846C133.369 22.6733 132.993 22.426 132.68 22.104C132.372 21.782 132.132 21.3923 131.959 20.935C131.791 20.4777 131.707 19.9643 131.707 19.395C131.707 18.8303 131.791 18.3193 131.959 17.862C132.132 17.4047 132.372 17.0173 132.68 16.7C132.993 16.3827 133.369 16.1377 133.807 15.965C134.246 15.7923 134.734 15.706 135.27 15.706ZM135.27 21.775C135.868 21.775 136.309 21.5743 136.593 21.173C136.883 20.7717 137.027 20.1837 137.027 19.409C137.027 18.6343 136.883 18.044 136.593 17.638C136.309 17.232 135.868 17.029 135.27 17.029C134.664 17.029 134.213 17.2343 133.919 17.645C133.63 18.051 133.485 18.639 133.485 19.409C133.485 20.179 133.63 20.767 133.919 21.173C134.213 21.5743 134.664 21.775 135.27 21.775ZM141.762 17.064C141.986 16.6347 142.252 16.2987 142.56 16.056C142.868 15.8087 143.232 15.685 143.652 15.685C143.984 15.685 144.25 15.7573 144.45 15.902L144.338 17.197C144.315 17.281 144.28 17.3417 144.233 17.379C144.191 17.4117 144.133 17.428 144.058 17.428C143.988 17.428 143.883 17.4163 143.743 17.393C143.608 17.3697 143.475 17.358 143.344 17.358C143.153 17.358 142.983 17.386 142.833 17.442C142.684 17.498 142.549 17.5797 142.427 17.687C142.311 17.7897 142.206 17.9157 142.112 18.065C142.024 18.2143 141.94 18.3847 141.86 18.576V23H140.131V15.818H141.146C141.324 15.818 141.447 15.8507 141.517 15.916C141.587 15.9767 141.634 16.0887 141.657 16.252L141.762 17.064ZM149.709 17.218C149.662 17.2927 149.613 17.3463 149.562 17.379C149.51 17.407 149.445 17.421 149.366 17.421C149.282 17.421 149.191 17.3977 149.093 17.351C148.999 17.3043 148.89 17.253 148.764 17.197C148.638 17.1363 148.493 17.0827 148.33 17.036C148.171 16.9893 147.982 16.966 147.763 16.966C147.422 16.966 147.154 17.0383 146.958 17.183C146.766 17.3277 146.671 17.5167 146.671 17.75C146.671 17.904 146.72 18.0347 146.818 18.142C146.92 18.2447 147.053 18.3357 147.217 18.415C147.385 18.4943 147.574 18.5667 147.784 18.632C147.994 18.6927 148.206 18.7603 148.421 18.835C148.64 18.9097 148.855 18.996 149.065 19.094C149.275 19.1873 149.461 19.3087 149.625 19.458C149.793 19.6027 149.926 19.7777 150.024 19.983C150.126 20.1883 150.178 20.4357 150.178 20.725C150.178 21.0703 150.115 21.39 149.989 21.684C149.867 21.9733 149.685 22.2253 149.443 22.44C149.2 22.65 148.899 22.8157 148.54 22.937C148.185 23.0537 147.774 23.112 147.308 23.112C147.06 23.112 146.818 23.0887 146.58 23.042C146.346 23 146.12 22.9393 145.901 22.86C145.686 22.7807 145.485 22.6873 145.299 22.58C145.117 22.4727 144.956 22.356 144.816 22.23L145.215 21.572C145.266 21.4927 145.327 21.432 145.397 21.39C145.467 21.348 145.555 21.327 145.663 21.327C145.77 21.327 145.87 21.3573 145.964 21.418C146.062 21.4787 146.174 21.544 146.3 21.614C146.426 21.684 146.573 21.7493 146.741 21.81C146.913 21.8707 147.13 21.901 147.392 21.901C147.597 21.901 147.772 21.8777 147.917 21.831C148.066 21.7797 148.187 21.7143 148.281 21.635C148.379 21.5557 148.449 21.4647 148.491 21.362C148.537 21.2547 148.561 21.145 148.561 21.033C148.561 20.865 148.509 20.7273 148.407 20.62C148.309 20.5127 148.176 20.4193 148.008 20.34C147.844 20.2607 147.655 20.1907 147.441 20.13C147.231 20.0647 147.014 19.9947 146.79 19.92C146.57 19.8453 146.353 19.759 146.139 19.661C145.929 19.5583 145.74 19.43 145.572 19.276C145.408 19.122 145.275 18.933 145.173 18.709C145.075 18.485 145.026 18.2143 145.026 17.897C145.026 17.603 145.084 17.323 145.201 17.057C145.317 16.791 145.488 16.56 145.712 16.364C145.94 16.1633 146.223 16.0047 146.559 15.888C146.899 15.7667 147.291 15.706 147.735 15.706C148.229 15.706 148.68 15.7877 149.086 15.951C149.492 16.1143 149.83 16.329 150.101 16.595L149.709 17.218Z" fill="#3B75FF"/>
<path d="M159.181 17.113C159.144 17.1737 159.104 17.218 159.062 17.246C159.02 17.2693 158.967 17.281 158.901 17.281C158.827 17.281 158.743 17.2553 158.649 17.204C158.561 17.1527 158.451 17.0967 158.32 17.036C158.194 16.9753 158.045 16.9193 157.872 16.868C157.7 16.8167 157.494 16.791 157.256 16.791C157.06 16.791 156.881 16.8167 156.717 16.868C156.559 16.9147 156.423 16.9823 156.311 17.071C156.199 17.155 156.113 17.2577 156.052 17.379C155.992 17.4957 155.961 17.6217 155.961 17.757C155.961 17.9343 156.013 18.0813 156.115 18.198C156.223 18.3147 156.36 18.415 156.528 18.499C156.701 18.583 156.895 18.66 157.109 18.73C157.329 18.7953 157.55 18.8653 157.774 18.94C158.003 19.0147 158.225 19.101 158.439 19.199C158.659 19.2923 158.852 19.4113 159.02 19.556C159.193 19.696 159.331 19.8663 159.433 20.067C159.541 20.2677 159.594 20.5127 159.594 20.802C159.594 21.1333 159.534 21.4413 159.412 21.726C159.296 22.006 159.121 22.2487 158.887 22.454C158.659 22.6593 158.374 22.8203 158.033 22.937C157.693 23.0537 157.303 23.112 156.864 23.112C156.374 23.112 155.922 23.0303 155.506 22.867C155.091 22.7037 154.743 22.496 154.463 22.244L154.785 21.719C154.823 21.6537 154.869 21.6047 154.925 21.572C154.981 21.5347 155.056 21.516 155.149 21.516C155.238 21.516 155.329 21.5487 155.422 21.614C155.516 21.6793 155.628 21.7517 155.758 21.831C155.889 21.9057 156.048 21.9757 156.234 22.041C156.421 22.1017 156.654 22.132 156.934 22.132C157.168 22.132 157.371 22.104 157.543 22.048C157.716 21.9873 157.858 21.908 157.97 21.81C158.087 21.7073 158.173 21.5907 158.229 21.46C158.285 21.3293 158.313 21.1917 158.313 21.047C158.313 20.8603 158.26 20.7063 158.152 20.585C158.05 20.459 157.912 20.3517 157.739 20.263C157.571 20.1743 157.378 20.0973 157.158 20.032C156.939 19.9667 156.715 19.8967 156.486 19.822C156.258 19.7473 156.034 19.661 155.814 19.563C155.595 19.465 155.399 19.3413 155.226 19.192C155.058 19.0427 154.921 18.8607 154.813 18.646C154.711 18.4313 154.659 18.17 154.659 17.862C154.659 17.5867 154.715 17.323 154.827 17.071C154.944 16.819 155.11 16.5973 155.324 16.406C155.544 16.2147 155.812 16.063 156.129 15.951C156.451 15.8343 156.818 15.776 157.228 15.776C157.7 15.776 158.124 15.8507 158.502 16C158.885 16.1493 159.212 16.3547 159.482 16.616L159.181 17.113ZM162.5 15.888V23H161.135V15.888H162.5ZM162.759 13.69C162.759 13.816 162.734 13.9373 162.682 14.054C162.631 14.166 162.561 14.2663 162.472 14.355C162.388 14.439 162.288 14.5067 162.171 14.558C162.055 14.6047 161.933 14.628 161.807 14.628C161.681 14.628 161.562 14.6047 161.45 14.558C161.338 14.5067 161.238 14.439 161.149 14.355C161.065 14.2663 160.998 14.166 160.946 14.054C160.9 13.9373 160.876 13.816 160.876 13.69C160.876 13.5593 160.9 13.438 160.946 13.326C160.998 13.2093 161.065 13.109 161.149 13.025C161.238 12.9363 161.338 12.8687 161.45 12.822C161.562 12.7707 161.681 12.745 161.807 12.745C161.933 12.745 162.055 12.7707 162.171 12.822C162.288 12.8687 162.388 12.9363 162.472 13.025C162.561 13.109 162.631 13.2093 162.682 13.326C162.734 13.438 162.759 13.5593 162.759 13.69ZM166.976 19.451C167.218 19.451 167.431 19.4183 167.613 19.353C167.799 19.2877 167.953 19.1967 168.075 19.08C168.201 18.9587 168.294 18.814 168.355 18.646C168.42 18.478 168.453 18.2937 168.453 18.093C168.453 17.6823 168.327 17.3557 168.075 17.113C167.827 16.8657 167.461 16.742 166.976 16.742C166.495 16.742 166.129 16.8657 165.877 17.113C165.629 17.3557 165.506 17.6823 165.506 18.093C165.506 18.2937 165.536 18.478 165.597 18.646C165.662 18.8093 165.755 18.9517 165.877 19.073C166.003 19.1897 166.157 19.283 166.339 19.353C166.525 19.4183 166.738 19.451 166.976 19.451ZM169.153 23.371C169.153 23.203 169.106 23.07 169.013 22.972C168.919 22.8693 168.791 22.79 168.628 22.734C168.469 22.6733 168.282 22.6313 168.068 22.608C167.853 22.58 167.627 22.559 167.389 22.545C167.155 22.531 166.915 22.5193 166.668 22.51C166.42 22.496 166.182 22.4727 165.954 22.44C165.711 22.5613 165.51 22.7083 165.352 22.881C165.198 23.0537 165.121 23.2567 165.121 23.49C165.121 23.6393 165.158 23.7793 165.233 23.91C165.312 24.0407 165.431 24.1527 165.59 24.246C165.753 24.344 165.956 24.4187 166.199 24.47C166.446 24.526 166.74 24.554 167.081 24.554C167.417 24.554 167.713 24.5237 167.97 24.463C168.226 24.407 168.441 24.3253 168.614 24.218C168.791 24.1153 168.924 23.9917 169.013 23.847C169.106 23.7023 169.153 23.5437 169.153 23.371ZM170.539 16.154V16.665C170.539 16.833 170.434 16.938 170.224 16.98L169.461 17.092C169.526 17.2367 169.577 17.3907 169.615 17.554C169.652 17.7127 169.671 17.8807 169.671 18.058C169.671 18.408 169.603 18.7253 169.468 19.01C169.332 19.29 169.146 19.5303 168.908 19.731C168.67 19.9317 168.385 20.0857 168.054 20.193C167.727 20.3003 167.368 20.354 166.976 20.354C166.654 20.354 166.353 20.319 166.073 20.249C165.933 20.333 165.825 20.4263 165.751 20.529C165.681 20.627 165.646 20.725 165.646 20.823C165.646 20.9863 165.713 21.1077 165.849 21.187C165.989 21.2663 166.168 21.3247 166.388 21.362C166.612 21.3947 166.866 21.4157 167.151 21.425C167.44 21.4343 167.732 21.4507 168.026 21.474C168.324 21.4927 168.616 21.53 168.901 21.586C169.19 21.6373 169.444 21.7237 169.664 21.845C169.888 21.9617 170.067 22.125 170.203 22.335C170.343 22.5403 170.413 22.8087 170.413 23.14C170.413 23.448 170.336 23.7467 170.182 24.036C170.032 24.3253 169.813 24.582 169.524 24.806C169.234 25.03 168.882 25.2097 168.467 25.345C168.051 25.4803 167.58 25.548 167.053 25.548C166.525 25.548 166.066 25.4967 165.674 25.394C165.286 25.2913 164.962 25.1537 164.701 24.981C164.444 24.8083 164.25 24.6077 164.12 24.379C163.994 24.1503 163.931 23.9123 163.931 23.665C163.931 23.3197 164.038 23.028 164.253 22.79C164.467 22.5473 164.764 22.3583 165.142 22.223C164.936 22.1297 164.773 22.0037 164.652 21.845C164.53 21.6817 164.47 21.467 164.47 21.201C164.47 21.0983 164.488 20.9933 164.526 20.886C164.563 20.774 164.619 20.6643 164.694 20.557C164.773 20.445 164.869 20.34 164.981 20.242C165.097 20.144 165.23 20.0553 165.38 19.976C165.03 19.78 164.754 19.521 164.554 19.199C164.353 18.8723 164.253 18.492 164.253 18.058C164.253 17.708 164.32 17.393 164.456 17.113C164.591 16.833 164.778 16.5927 165.016 16.392C165.258 16.1913 165.545 16.0373 165.877 15.93C166.213 15.8227 166.579 15.769 166.976 15.769C167.592 15.769 168.121 15.8973 168.565 16.154H170.539ZM173.072 16.875C173.226 16.7117 173.387 16.5623 173.555 16.427C173.723 16.2917 173.9 16.1773 174.087 16.084C174.278 15.986 174.481 15.9113 174.696 15.86C174.915 15.804 175.149 15.776 175.396 15.776C175.788 15.776 176.131 15.8413 176.425 15.972C176.724 16.1027 176.973 16.287 177.174 16.525C177.375 16.7583 177.526 17.0407 177.629 17.372C177.732 17.7033 177.783 18.0697 177.783 18.471V23H176.411V18.471C176.411 17.9623 176.294 17.568 176.061 17.288C175.828 17.0033 175.471 16.861 174.99 16.861C174.64 16.861 174.311 16.945 174.003 17.113C173.7 17.2763 173.417 17.5003 173.156 17.785V23H171.791V15.888H172.61C172.801 15.888 172.92 15.979 172.967 16.161L173.072 16.875ZM184.336 18.653C184.336 18.3823 184.296 18.1327 184.217 17.904C184.142 17.6753 184.03 17.477 183.881 17.309C183.732 17.141 183.55 17.0103 183.335 16.917C183.12 16.8237 182.873 16.777 182.593 16.777C182.019 16.777 181.566 16.9427 181.235 17.274C180.908 17.6053 180.701 18.065 180.612 18.653H184.336ZM185.463 21.985C185.295 22.181 185.101 22.3513 184.882 22.496C184.663 22.636 184.429 22.7503 184.182 22.839C183.935 22.9277 183.678 22.993 183.412 23.035C183.151 23.077 182.892 23.098 182.635 23.098C182.145 23.098 181.69 23.0163 181.27 22.853C180.855 22.685 180.493 22.4423 180.185 22.125C179.882 21.803 179.644 21.4063 179.471 20.935C179.303 20.459 179.219 19.913 179.219 19.297C179.219 18.8023 179.296 18.3427 179.45 17.918C179.604 17.4887 179.823 17.1153 180.108 16.798C180.397 16.4807 180.75 16.231 181.165 16.049C181.58 15.867 182.047 15.776 182.565 15.776C182.999 15.776 183.398 15.8483 183.762 15.993C184.131 16.133 184.448 16.3383 184.714 16.609C184.98 16.8797 185.188 17.2133 185.337 17.61C185.491 18.0067 185.568 18.4593 185.568 18.968C185.568 19.178 185.545 19.3203 185.498 19.395C185.451 19.465 185.365 19.5 185.239 19.5H180.577C180.591 19.9247 180.652 20.2957 180.759 20.613C180.866 20.9257 181.013 21.187 181.2 21.397C181.391 21.607 181.618 21.7633 181.879 21.866C182.14 21.9687 182.432 22.02 182.754 22.02C183.057 22.02 183.319 21.985 183.538 21.915C183.762 21.845 183.953 21.7703 184.112 21.691C184.275 21.607 184.411 21.53 184.518 21.46C184.63 21.39 184.728 21.355 184.812 21.355C184.924 21.355 185.01 21.397 185.071 21.481L185.463 21.985ZM191.62 17.61C191.396 17.316 191.154 17.1107 190.892 16.994C190.636 16.8773 190.346 16.819 190.024 16.819C189.399 16.819 188.914 17.0453 188.568 17.498C188.228 17.946 188.057 18.6017 188.057 19.465C188.057 19.9177 188.095 20.305 188.169 20.627C188.249 20.9443 188.361 21.2057 188.505 21.411C188.655 21.6117 188.837 21.761 189.051 21.859C189.266 21.9523 189.509 21.999 189.779 21.999C190.176 21.999 190.519 21.9103 190.808 21.733C191.098 21.5557 191.368 21.306 191.62 20.984V17.61ZM192.992 12.668V23H192.166C191.975 23 191.856 22.909 191.809 22.727L191.69 21.908C191.387 22.2673 191.042 22.5567 190.654 22.776C190.272 22.9907 189.828 23.098 189.324 23.098C188.918 23.098 188.55 23.0187 188.218 22.86C187.892 22.7013 187.612 22.4703 187.378 22.167C187.145 21.859 186.965 21.4787 186.839 21.026C186.713 20.5733 186.65 20.053 186.65 19.465C186.65 18.9377 186.72 18.4477 186.86 17.995C187 17.5423 187.203 17.1503 187.469 16.819C187.735 16.4877 188.057 16.2287 188.435 16.042C188.813 15.8507 189.24 15.755 189.716 15.755C190.146 15.755 190.51 15.825 190.808 15.965C191.112 16.105 191.382 16.3033 191.62 16.56V12.668H192.992ZM204.353 15.888V23H203.534C203.347 23 203.226 22.909 203.17 22.727L203.072 22.013C202.918 22.1763 202.757 22.3257 202.589 22.461C202.421 22.5963 202.241 22.713 202.05 22.811C201.858 22.9043 201.655 22.9767 201.441 23.028C201.226 23.084 200.995 23.112 200.748 23.112C200.356 23.112 200.01 23.0467 199.712 22.916C199.418 22.7853 199.17 22.6033 198.97 22.37C198.769 22.132 198.617 21.8473 198.515 21.516C198.412 21.1847 198.361 20.8183 198.361 20.417V15.888H199.733V20.417C199.733 20.9257 199.849 21.3223 200.083 21.607C200.316 21.887 200.673 22.027 201.154 22.027C201.504 22.027 201.83 21.9453 202.134 21.782C202.437 21.614 202.722 21.3853 202.988 21.096V15.888H204.353ZM207.623 21.25C207.847 21.544 208.087 21.7493 208.344 21.866C208.605 21.9827 208.897 22.041 209.219 22.041C209.844 22.041 210.327 21.817 210.668 21.369C211.013 20.9163 211.186 20.2583 211.186 19.395C211.186 18.9423 211.146 18.5573 211.067 18.24C210.992 17.918 210.88 17.6567 210.731 17.456C210.586 17.2507 210.406 17.1013 210.192 17.008C209.977 16.91 209.734 16.861 209.464 16.861C209.067 16.861 208.722 16.9497 208.428 17.127C208.138 17.3043 207.87 17.5563 207.623 17.883V21.25ZM207.553 16.952C207.702 16.7747 207.861 16.6137 208.029 16.469C208.201 16.3197 208.386 16.1937 208.582 16.091C208.778 15.9837 208.985 15.902 209.205 15.846C209.429 15.7853 209.667 15.755 209.919 15.755C210.325 15.755 210.691 15.8343 211.018 15.993C211.349 16.1517 211.631 16.385 211.865 16.693C212.098 17.001 212.278 17.3813 212.404 17.834C212.534 18.2867 212.6 18.807 212.6 19.395C212.6 19.9223 212.527 20.4123 212.383 20.865C212.243 21.313 212.04 21.7027 211.774 22.034C211.512 22.3653 211.19 22.6267 210.808 22.818C210.43 23.0047 210.003 23.098 209.527 23.098C209.102 23.098 208.738 23.028 208.435 22.888C208.131 22.748 207.861 22.552 207.623 22.3V25.387H206.258V15.888H207.077C207.268 15.888 207.387 15.979 207.434 16.161L207.553 16.952ZM219.102 15.888V23H217.737V15.888H219.102ZM219.361 13.69C219.361 13.816 219.335 13.9373 219.284 14.054C219.233 14.166 219.163 14.2663 219.074 14.355C218.99 14.439 218.89 14.5067 218.773 14.558C218.656 14.6047 218.535 14.628 218.409 14.628C218.283 14.628 218.164 14.6047 218.052 14.558C217.94 14.5067 217.84 14.439 217.751 14.355C217.667 14.2663 217.599 14.166 217.548 14.054C217.501 13.9373 217.478 13.816 217.478 13.69C217.478 13.5593 217.501 13.438 217.548 13.326C217.599 13.2093 217.667 13.109 217.751 13.025C217.84 12.9363 217.94 12.8687 218.052 12.822C218.164 12.7707 218.283 12.745 218.409 12.745C218.535 12.745 218.656 12.7707 218.773 12.822C218.89 12.8687 218.99 12.9363 219.074 13.025C219.163 13.109 219.233 13.2093 219.284 13.326C219.335 13.438 219.361 13.5593 219.361 13.69ZM222.359 16.875C222.513 16.7117 222.674 16.5623 222.842 16.427C223.01 16.2917 223.187 16.1773 223.374 16.084C223.565 15.986 223.768 15.9113 223.983 15.86C224.202 15.804 224.436 15.776 224.683 15.776C225.075 15.776 225.418 15.8413 225.712 15.972C226.011 16.1027 226.26 16.287 226.461 16.525C226.662 16.7583 226.813 17.0407 226.916 17.372C227.019 17.7033 227.07 18.0697 227.07 18.471V23H225.698V18.471C225.698 17.9623 225.581 17.568 225.348 17.288C225.115 17.0033 224.758 16.861 224.277 16.861C223.927 16.861 223.598 16.945 223.29 17.113C222.987 17.2763 222.704 17.5003 222.443 17.785V23H221.078V15.888H221.897C222.088 15.888 222.207 15.979 222.254 16.161L222.359 16.875ZM234.679 23.112C234.105 23.112 233.662 22.951 233.349 22.629C233.041 22.307 232.887 21.8473 232.887 21.25V16.994H232.061C231.982 16.994 231.914 16.9707 231.858 16.924C231.807 16.8727 231.781 16.798 231.781 16.7V16.147L232.936 15.986L233.244 13.865C233.263 13.7857 233.298 13.725 233.349 13.683C233.405 13.6363 233.475 13.613 233.559 13.613H234.252V16H236.268V16.994H234.252V21.159C234.252 21.439 234.32 21.649 234.455 21.789C234.595 21.9243 234.772 21.992 234.987 21.992C235.113 21.992 235.22 21.9757 235.309 21.943C235.402 21.9103 235.482 21.8753 235.547 21.838C235.612 21.796 235.668 21.7587 235.715 21.726C235.762 21.6933 235.804 21.677 235.841 21.677C235.888 21.677 235.923 21.6887 235.946 21.712C235.974 21.7307 236.002 21.7633 236.03 21.81L236.436 22.468C236.212 22.6733 235.946 22.832 235.638 22.944C235.33 23.056 235.01 23.112 234.679 23.112ZM238.89 16.791C239.189 16.4877 239.518 16.2427 239.877 16.056C240.241 15.8693 240.659 15.776 241.13 15.776C241.522 15.776 241.865 15.8413 242.159 15.972C242.458 16.1027 242.708 16.287 242.908 16.525C243.109 16.7583 243.261 17.0407 243.363 17.372C243.466 17.7033 243.517 18.0697 243.517 18.471V23H242.145V18.471C242.145 17.9623 242.029 17.568 241.795 17.288C241.562 17.0033 241.205 16.861 240.724 16.861C240.374 16.861 240.045 16.945 239.737 17.113C239.434 17.2763 239.152 17.5003 238.89 17.785V23H237.525V12.668H238.89V16.791ZM250.07 18.653C250.07 18.3823 250.031 18.1327 249.951 17.904C249.877 17.6753 249.765 17.477 249.615 17.309C249.466 17.141 249.284 17.0103 249.069 16.917C248.855 16.8237 248.607 16.777 248.327 16.777C247.753 16.777 247.301 16.9427 246.969 17.274C246.643 17.6053 246.435 18.065 246.346 18.653H250.07ZM251.197 21.985C251.029 22.181 250.836 22.3513 250.616 22.496C250.397 22.636 250.164 22.7503 249.916 22.839C249.669 22.9277 249.412 22.993 249.146 23.035C248.885 23.077 248.626 23.098 248.369 23.098C247.879 23.098 247.424 23.0163 247.004 22.853C246.589 22.685 246.227 22.4423 245.919 22.125C245.616 21.803 245.378 21.4063 245.205 20.935C245.037 20.459 244.953 19.913 244.953 19.297C244.953 18.8023 245.03 18.3427 245.184 17.918C245.338 17.4887 245.558 17.1153 245.842 16.798C246.132 16.4807 246.484 16.231 246.899 16.049C247.315 15.867 247.781 15.776 248.299 15.776C248.733 15.776 249.132 15.8483 249.496 15.993C249.865 16.133 250.182 16.3383 250.448 16.609C250.714 16.8797 250.922 17.2133 251.071 17.61C251.225 18.0067 251.302 18.4593 251.302 18.968C251.302 19.178 251.279 19.3203 251.232 19.395C251.186 19.465 251.099 19.5 250.973 19.5H246.311C246.325 19.9247 246.386 20.2957 246.493 20.613C246.601 20.9257 246.748 21.187 246.934 21.397C247.126 21.607 247.352 21.7633 247.613 21.866C247.875 21.9687 248.166 22.02 248.488 22.02C248.792 22.02 249.053 21.985 249.272 21.915C249.496 21.845 249.688 21.7703 249.846 21.691C250.01 21.607 250.145 21.53 250.252 21.46C250.364 21.39 250.462 21.355 250.546 21.355C250.658 21.355 250.745 21.397 250.805 21.481L251.197 21.985ZM257.711 12.668V23H256.339V12.668H257.711ZM263.482 19.843C262.927 19.8617 262.456 19.906 262.068 19.976C261.681 20.0413 261.366 20.13 261.123 20.242C260.881 20.354 260.706 20.487 260.598 20.641C260.491 20.7903 260.437 20.9583 260.437 21.145C260.437 21.3223 260.465 21.4763 260.521 21.607C260.582 21.733 260.661 21.838 260.759 21.922C260.862 22.0013 260.981 22.0597 261.116 22.097C261.252 22.1343 261.399 22.153 261.557 22.153C261.767 22.153 261.959 22.132 262.131 22.09C262.309 22.048 262.474 21.9897 262.628 21.915C262.782 21.8357 262.929 21.74 263.069 21.628C263.209 21.516 263.347 21.3877 263.482 21.243V19.843ZM259.478 16.882C259.875 16.504 260.304 16.2217 260.766 16.035C261.233 15.8483 261.744 15.755 262.299 15.755C262.705 15.755 263.065 15.8227 263.377 15.958C263.69 16.0887 263.954 16.273 264.168 16.511C264.383 16.749 264.544 17.0337 264.651 17.365C264.763 17.6963 264.819 18.0627 264.819 18.464V23H264.21C264.075 23 263.972 22.979 263.902 22.937C263.832 22.8903 263.776 22.8063 263.734 22.685L263.587 22.062C263.405 22.23 263.226 22.3793 263.048 22.51C262.871 22.636 262.684 22.7457 262.488 22.839C262.297 22.9277 262.092 22.9953 261.872 23.042C261.653 23.0887 261.41 23.112 261.144 23.112C260.864 23.112 260.601 23.0747 260.353 23C260.111 22.9207 259.898 22.8017 259.716 22.643C259.534 22.4843 259.39 22.286 259.282 22.048C259.18 21.81 259.128 21.5323 259.128 21.215C259.128 20.935 259.203 20.6667 259.352 20.41C259.506 20.1487 259.754 19.9153 260.094 19.71C260.44 19.5047 260.888 19.3367 261.438 19.206C261.994 19.0753 262.675 19.0007 263.482 18.982V18.464C263.482 17.9273 263.368 17.526 263.139 17.26C262.911 16.994 262.575 16.861 262.131 16.861C261.833 16.861 261.581 16.8983 261.375 16.973C261.175 17.0477 261 17.1317 260.85 17.225C260.706 17.3137 260.577 17.3953 260.465 17.47C260.358 17.5447 260.246 17.582 260.129 17.582C260.036 17.582 259.954 17.5563 259.884 17.505C259.819 17.4537 259.765 17.393 259.723 17.323L259.478 16.882ZM270.84 17.113C270.802 17.1737 270.763 17.218 270.721 17.246C270.679 17.2693 270.625 17.281 270.56 17.281C270.485 17.281 270.401 17.2553 270.308 17.204C270.219 17.1527 270.109 17.0967 269.979 17.036C269.853 16.9753 269.703 16.9193 269.531 16.868C269.358 16.8167 269.153 16.791 268.915 16.791C268.719 16.791 268.539 16.8167 268.376 16.868C268.217 16.9147 268.082 16.9823 267.97 17.071C267.858 17.155 267.771 17.2577 267.711 17.379C267.65 17.4957 267.62 17.6217 267.62 17.757C267.62 17.9343 267.671 18.0813 267.774 18.198C267.881 18.3147 268.019 18.415 268.187 18.499C268.359 18.583 268.553 18.66 268.768 18.73C268.987 18.7953 269.209 18.8653 269.433 18.94C269.661 19.0147 269.883 19.101 270.098 19.199C270.317 19.2923 270.511 19.4113 270.679 19.556C270.851 19.696 270.989 19.8663 271.092 20.067C271.199 20.2677 271.253 20.5127 271.253 20.802C271.253 21.1333 271.192 21.4413 271.071 21.726C270.954 22.006 270.779 22.2487 270.546 22.454C270.317 22.6593 270.032 22.8203 269.692 22.937C269.351 23.0537 268.961 23.112 268.523 23.112C268.033 23.112 267.58 23.0303 267.165 22.867C266.749 22.7037 266.402 22.496 266.122 22.244L266.444 21.719C266.481 21.6537 266.528 21.6047 266.584 21.572C266.64 21.5347 266.714 21.516 266.808 21.516C266.896 21.516 266.987 21.5487 267.081 21.614C267.174 21.6793 267.286 21.7517 267.417 21.831C267.547 21.9057 267.706 21.9757 267.893 22.041C268.079 22.1017 268.313 22.132 268.593 22.132C268.826 22.132 269.029 22.104 269.202 22.048C269.374 21.9873 269.517 21.908 269.629 21.81C269.745 21.7073 269.832 21.5907 269.888 21.46C269.944 21.3293 269.972 21.1917 269.972 21.047C269.972 20.8603 269.918 20.7063 269.811 20.585C269.708 20.459 269.57 20.3517 269.398 20.263C269.23 20.1743 269.036 20.0973 268.817 20.032C268.597 19.9667 268.373 19.8967 268.145 19.822C267.916 19.7473 267.692 19.661 267.473 19.563C267.253 19.465 267.057 19.3413 266.885 19.192C266.717 19.0427 266.579 18.8607 266.472 18.646C266.369 18.4313 266.318 18.17 266.318 17.862C266.318 17.5867 266.374 17.323 266.486 17.071C266.602 16.819 266.768 16.5973 266.983 16.406C267.202 16.2147 267.47 16.063 267.788 15.951C268.11 15.8343 268.476 15.776 268.887 15.776C269.358 15.776 269.783 15.8507 270.161 16C270.543 16.1493 270.87 16.3547 271.141 16.616L270.84 17.113ZM274.956 23.112C274.382 23.112 273.939 22.951 273.626 22.629C273.318 22.307 273.164 21.8473 273.164 21.25V16.994H272.338C272.259 16.994 272.191 16.9707 272.135 16.924C272.084 16.8727 272.058 16.798 272.058 16.7V16.147L273.213 15.986L273.521 13.865C273.54 13.7857 273.575 13.725 273.626 13.683C273.682 13.6363 273.752 13.613 273.836 13.613H274.529V16H276.545V16.994H274.529V21.159C274.529 21.439 274.597 21.649 274.732 21.789C274.872 21.9243 275.05 21.992 275.264 21.992C275.39 21.992 275.498 21.9757 275.586 21.943C275.68 21.9103 275.759 21.8753 275.824 21.838C275.89 21.796 275.946 21.7587 275.992 21.726C276.039 21.6933 276.081 21.677 276.118 21.677C276.165 21.677 276.2 21.6887 276.223 21.712C276.251 21.7307 276.279 21.7633 276.307 21.81L276.713 22.468C276.489 22.6733 276.223 22.832 275.915 22.944C275.607 23.056 275.288 23.112 274.956 23.112ZM84.902 38.705C85.0513 38.705 85.168 38.7493 85.252 38.838C85.336 38.922 85.378 39.034 85.378 39.174V40H78.63V39.531C78.63 39.4377 78.6487 39.3397 78.686 39.237C78.7233 39.1297 78.7863 39.034 78.875 38.95L82.053 35.765C82.319 35.499 82.5593 35.2423 82.774 34.995C82.9887 34.7477 83.1707 34.5027 83.32 34.26C83.4693 34.0127 83.5837 33.7607 83.663 33.504C83.747 33.2473 83.789 32.9767 83.789 32.692C83.789 32.412 83.7447 32.167 83.656 31.957C83.5673 31.7423 83.446 31.565 83.292 31.425C83.138 31.285 82.956 31.18 82.746 31.11C82.536 31.04 82.3097 31.005 82.067 31.005C81.8243 31.005 81.6003 31.04 81.395 31.11C81.1943 31.18 81.0147 31.278 80.856 31.404C80.6973 31.53 80.5643 31.6793 80.457 31.852C80.3497 32.0247 80.2727 32.2113 80.226 32.412C80.1607 32.5893 80.0767 32.7083 79.974 32.769C79.876 32.8297 79.7313 32.8437 79.54 32.811L78.826 32.685C78.8913 32.2183 79.0197 31.8077 79.211 31.453C79.4023 31.0983 79.6427 30.802 79.932 30.564C80.2213 30.3213 80.5527 30.1393 80.926 30.018C81.304 29.8967 81.71 29.836 82.144 29.836C82.5827 29.836 82.9863 29.9013 83.355 30.032C83.7283 30.158 84.0503 30.3423 84.321 30.585C84.5917 30.8277 84.804 31.124 84.958 31.474C85.112 31.8193 85.189 32.2113 85.189 32.65C85.189 33.0233 85.133 33.371 85.021 33.693C84.9137 34.0103 84.7643 34.3137 84.573 34.603C84.3863 34.8923 84.167 35.1747 83.915 35.45C83.6677 35.7207 83.404 35.996 83.124 36.276L80.576 38.88C80.772 38.8287 80.968 38.7867 81.164 38.754C81.3647 38.7213 81.5537 38.705 81.731 38.705H84.902ZM91.2031 36.332V32.412C91.2031 32.2767 91.2054 32.1343 91.2101 31.985C91.2194 31.831 91.2358 31.6723 91.2591 31.509L87.7381 36.332H91.2031ZM93.8561 36.332V37.123C93.8561 37.2023 93.8304 37.27 93.7791 37.326C93.7278 37.382 93.6554 37.41 93.5621 37.41H92.4001V40H91.2031V37.41H86.7931C86.6904 37.41 86.6041 37.382 86.5341 37.326C86.4641 37.2653 86.4174 37.1907 86.3941 37.102L86.2541 36.402L91.1121 29.941H92.4001V36.332H93.8561ZM100.107 33.791C100.406 33.4877 100.735 33.2427 101.094 33.056C101.458 32.8693 101.876 32.776 102.347 32.776C102.739 32.776 103.082 32.8413 103.376 32.972C103.675 33.1027 103.925 33.287 104.125 33.525C104.326 33.7583 104.478 34.0407 104.58 34.372C104.683 34.7033 104.734 35.0697 104.734 35.471V40H103.362V35.471C103.362 34.9623 103.246 34.568 103.012 34.288C102.779 34.0033 102.422 33.861 101.941 33.861C101.591 33.861 101.262 33.945 100.954 34.113C100.651 34.2763 100.369 34.5003 100.107 34.785V40H98.7422V29.668H100.107V33.791ZM109.607 32.776C110.13 32.776 110.601 32.8623 111.021 33.035C111.446 33.203 111.805 33.448 112.099 33.77C112.398 34.0873 112.627 34.4723 112.785 34.925C112.944 35.373 113.023 35.877 113.023 36.437C113.023 36.997 112.944 37.5033 112.785 37.956C112.627 38.4087 112.398 38.7937 112.099 39.111C111.805 39.4283 111.446 39.6733 111.021 39.846C110.601 40.014 110.13 40.098 109.607 40.098C109.08 40.098 108.604 40.014 108.179 39.846C107.759 39.6733 107.4 39.4283 107.101 39.111C106.803 38.7937 106.572 38.4087 106.408 37.956C106.25 37.5033 106.17 36.997 106.17 36.437C106.17 35.877 106.25 35.373 106.408 34.925C106.572 34.4723 106.803 34.0873 107.101 33.77C107.4 33.448 107.759 33.203 108.179 33.035C108.604 32.8623 109.08 32.776 109.607 32.776ZM109.607 39.034C110.279 39.034 110.781 38.8077 111.112 38.355C111.444 37.9023 111.609 37.2653 111.609 36.444C111.609 35.6227 111.444 34.9857 111.112 34.533C110.781 34.0757 110.279 33.847 109.607 33.847C108.926 33.847 108.417 34.0757 108.081 34.533C107.75 34.9857 107.584 35.6227 107.584 36.444C107.584 37.2653 107.75 37.9023 108.081 38.355C108.417 38.8077 108.926 39.034 109.607 39.034ZM120.462 32.888V40H119.643C119.456 40 119.335 39.909 119.279 39.727L119.181 39.013C119.027 39.1763 118.866 39.3257 118.698 39.461C118.53 39.5963 118.35 39.713 118.159 39.811C117.968 39.9043 117.765 39.9767 117.55 40.028C117.335 40.084 117.104 40.112 116.857 40.112C116.465 40.112 116.12 40.0467 115.821 39.916C115.527 39.7853 115.28 39.6033 115.079 39.37C114.878 39.132 114.727 38.8473 114.624 38.516C114.521 38.1847 114.47 37.8183 114.47 37.417V32.888H115.842V37.417C115.842 37.9257 115.959 38.3223 116.192 38.607C116.425 38.887 116.782 39.027 117.263 39.027C117.613 39.027 117.94 38.9453 118.243 38.782C118.546 38.614 118.831 38.3853 119.097 38.096V32.888H120.462ZM123.655 34.253C123.884 33.7863 124.159 33.42 124.481 33.154C124.803 32.888 125.191 32.755 125.643 32.755C125.797 32.755 125.942 32.7737 126.077 32.811C126.217 32.8437 126.339 32.895 126.441 32.965L126.35 33.994C126.318 34.12 126.241 34.183 126.119 34.183C126.054 34.183 125.956 34.1713 125.825 34.148C125.695 34.12 125.555 34.106 125.405 34.106C125.186 34.106 124.992 34.1387 124.824 34.204C124.656 34.2647 124.505 34.358 124.369 34.484C124.239 34.6053 124.122 34.757 124.019 34.939C123.917 35.1163 123.821 35.3193 123.732 35.548V40H122.367V32.888H123.151C123.301 32.888 123.401 32.916 123.452 32.972C123.508 33.0233 123.548 33.1167 123.571 33.252L123.655 34.253ZM131.646 34.113C131.609 34.1737 131.569 34.218 131.527 34.246C131.485 34.2693 131.431 34.281 131.366 34.281C131.291 34.281 131.207 34.2553 131.114 34.204C131.025 34.1527 130.916 34.0967 130.785 34.036C130.659 33.9753 130.51 33.9193 130.337 33.868C130.164 33.8167 129.959 33.791 129.721 33.791C129.525 33.791 129.345 33.8167 129.182 33.868C129.023 33.9147 128.888 33.9823 128.776 34.071C128.664 34.155 128.578 34.2577 128.517 34.379C128.456 34.4957 128.426 34.6217 128.426 34.757C128.426 34.9343 128.477 35.0813 128.58 35.198C128.687 35.3147 128.825 35.415 128.993 35.499C129.166 35.583 129.359 35.66 129.574 35.73C129.793 35.7953 130.015 35.8653 130.239 35.94C130.468 36.0147 130.689 36.101 130.904 36.199C131.123 36.2923 131.317 36.4113 131.485 36.556C131.658 36.696 131.795 36.8663 131.898 37.067C132.005 37.2677 132.059 37.5127 132.059 37.802C132.059 38.1333 131.998 38.4413 131.877 38.726C131.76 39.006 131.585 39.2487 131.352 39.454C131.123 39.6593 130.839 39.8203 130.498 39.937C130.157 40.0537 129.768 40.112 129.329 40.112C128.839 40.112 128.386 40.0303 127.971 39.867C127.556 39.7037 127.208 39.496 126.928 39.244L127.25 38.719C127.287 38.6537 127.334 38.6047 127.39 38.572C127.446 38.5347 127.521 38.516 127.614 38.516C127.703 38.516 127.794 38.5487 127.887 38.614C127.98 38.6793 128.092 38.7517 128.223 38.831C128.354 38.9057 128.512 38.9757 128.699 39.041C128.886 39.1017 129.119 39.132 129.399 39.132C129.632 39.132 129.835 39.104 130.008 39.048C130.181 38.9873 130.323 38.908 130.435 38.81C130.552 38.7073 130.638 38.5907 130.694 38.46C130.75 38.3293 130.778 38.1917 130.778 38.047C130.778 37.8603 130.724 37.7063 130.617 37.585C130.514 37.459 130.377 37.3517 130.204 37.263C130.036 37.1743 129.842 37.0973 129.623 37.032C129.404 36.9667 129.18 36.8967 128.951 36.822C128.722 36.7473 128.498 36.661 128.279 36.563C128.06 36.465 127.864 36.3413 127.691 36.192C127.523 36.0427 127.385 35.8607 127.278 35.646C127.175 35.4313 127.124 35.17 127.124 34.862C127.124 34.5867 127.18 34.323 127.292 34.071C127.409 33.819 127.574 33.5973 127.789 33.406C128.008 33.2147 128.277 33.063 128.594 32.951C128.916 32.8343 129.282 32.776 129.693 32.776C130.164 32.776 130.589 32.8507 130.967 33C131.35 33.1493 131.676 33.3547 131.947 33.616L131.646 34.113Z" fill="#484848"/>
<rect width="62" height="62" fill="black" fill-opacity="0" transform="translate(5 4)"/>
<circle cx="36" cy="35" r="31" fill="#6FBFF6" fill-opacity="0.3"/>
<rect width="28" height="36" fill="black" fill-opacity="0" transform="translate(22 16)"/>
<path d="M22.4661 33.557C22.4661 33.557 23.8228 35.6465 26.6663 37.4151C26.6663 37.4151 24.6069 19.1689 38.0251 16C34.5873 29.2273 42.398 32.9575 45.2452 25.9693C50 32.6245 46.3898 38.4307 46.3898 38.4307C48.3395 38.7252 49.9772 36.4922 49.9772 36.4922C49.9918 36.7673 50 37.0443 50 37.3232C50.0001 45.4289 43.7321 52 36 52C28.268 52 22 45.4289 22 37.3231C22 36.0211 22.1626 34.759 22.4661 33.557Z" fill="#FE8B68"/>
<path d="M29.8604 45.5632C29.8604 49.1181 32.6093 51.9999 36.0002 51.9999C39.3911 51.9999 42.14 49.1181 42.14 45.5632C42.14 43.6605 41.3526 41.9506 40.1006 40.7722C37.7267 44.1532 34.3438 39.0246 36.9802 35.2793C36.9802 35.2793 29.8604 36.2147 29.8604 45.5632Z" fill="#FEE8A1"/>
<rect width="28" height="36" fill="black" fill-opacity="0" transform="translate(22 16)"/>
<path d="M22.4661 33.557C22.4661 33.557 23.8228 35.6465 26.6663 37.4151C26.6663 37.4151 24.6069 19.1689 38.0251 16C34.5873 29.2273 42.398 32.9575 45.2452 25.9693C50 32.6245 46.3898 38.4307 46.3898 38.4307C48.3395 38.7252 49.9772 36.4922 49.9772 36.4922C49.9918 36.7673 50 37.0443 50 37.3232C50.0001 45.4289 43.7321 52 36 52C28.268 52 22 45.4289 22 37.3231C22 36.0211 22.1626 34.759 22.4661 33.557Z" fill="#FE8B68"/>
<path d="M29.8604 45.5632C29.8604 49.1181 32.6093 51.9999 36.0002 51.9999C39.3911 51.9999 42.14 49.1181 42.14 45.5632C42.14 43.6605 41.3526 41.9506 40.1006 40.7722C37.7267 44.1532 34.3438 39.0246 36.9802 35.2793C36.9802 35.2793 29.8604 36.2147 29.8604 45.5632Z" fill="#FEE8A1"/>
<rect width="11" height="7.5" fill="black" fill-opacity="0" transform="translate(78 52)"/>
<rect width="11" height="7.5" fill="black" fill-opacity="0" transform="translate(78 52)"/>
<path fill-rule="evenodd" clip-rule="evenodd" d="M87.6113 52.2438C87.2666 51.9187 86.6748 51.9187 86.3301 52.2438L82.2334 56.085L80.4629 54.4032C80.1182 54.0782 79.5264 54.0782 79.1807 54.4032L78 55.75L81.5967 59.2563C81.9414 59.5813 82.5332 59.5813 82.8779 59.2563L83.5928 58.5828C83.6182 58.5592 83.6416 58.5343 83.6631 58.5085L89 53.579L87.6113 52.2438Z" fill="#32BA7C"/>
<path fill-rule="evenodd" clip-rule="evenodd" d="M86.4669 52.3897L82.2325 56.36L80.3257 54.5487C80.3256 54.5487 80.3258 54.5488 80.3257 54.5487C80.0602 54.2987 79.5941 54.2962 79.3243 54.5428L78.2754 55.7392L81.735 59.1118C82.0029 59.3632 82.4734 59.3628 82.7407 59.1107L83.4567 58.4362C83.4756 58.4187 83.4931 58.4001 83.5092 58.3807L83.5177 58.3705L88.7084 53.5761L87.4741 52.3893C87.4739 52.3891 87.4743 52.3895 87.4741 52.3893C87.2063 52.1375 86.7343 52.1375 86.4669 52.3897ZM87.6113 52.2438C87.2666 51.9187 86.6748 51.9187 86.3301 52.2438L82.2334 56.085L80.4629 54.4032C80.1182 54.0782 79.5264 54.0782 79.1807 54.4032L78 55.75L81.5967 59.2563C81.9414 59.5813 82.5332 59.5813 82.8779 59.2563L83.5928 58.5828C83.6182 58.5592 83.6416 58.5343 83.6631 58.5085L89 53.579L87.6113 52.2438Z" fill="white"/>
<path d="M93.66 57.75C93.82 57.96 93.9933 58.1067 94.18 58.19C94.3667 58.2733 94.57 58.315 94.79 58.315C95.2433 58.315 95.5917 58.1533 95.835 57.83C96.0817 57.5067 96.205 57.0183 96.205 56.365C96.205 55.7617 96.0967 55.32 95.88 55.04C95.6633 54.7567 95.3567 54.615 94.96 54.615C94.68 54.615 94.4367 54.6783 94.23 54.805C94.0267 54.9317 93.8367 55.1117 93.66 55.345V57.75ZM93.66 54.62C93.87 54.3867 94.1083 54.1983 94.375 54.055C94.6417 53.9117 94.945 53.84 95.285 53.84C95.5817 53.84 95.8483 53.8983 96.085 54.015C96.325 54.1283 96.5283 54.2933 96.695 54.51C96.8617 54.7233 96.99 54.9833 97.08 55.29C97.17 55.5967 97.215 55.9433 97.215 56.33C97.215 56.74 97.1633 57.1133 97.06 57.45C96.96 57.7867 96.815 58.075 96.625 58.315C96.4383 58.555 96.21 58.7417 95.94 58.875C95.67 59.005 95.3667 59.07 95.03 59.07C94.8667 59.07 94.7167 59.0533 94.58 59.02C94.4433 58.99 94.3167 58.945 94.2 58.885C94.0867 58.825 93.9817 58.7517 93.885 58.665C93.7883 58.5783 93.6967 58.48 93.61 58.37L93.565 58.795C93.5383 58.9317 93.455 59 93.315 59H92.685V51.62H93.66V54.62ZM102.604 53.92L99.7835 60.475C99.7535 60.5483 99.7135 60.605 99.6635 60.645C99.6135 60.685 99.5402 60.705 99.4435 60.705H98.7185L99.6485 58.68L97.5635 53.92H98.4135C98.4968 53.92 98.5618 53.94 98.6085 53.98C98.6552 54.02 98.6885 54.065 98.7085 54.115L99.9985 57.165C100.025 57.2417 100.05 57.32 100.074 57.4C100.1 57.4767 100.122 57.5533 100.139 57.63C100.162 57.55 100.187 57.4717 100.214 57.395C100.24 57.315 100.269 57.2367 100.299 57.16L101.544 54.115C101.567 54.0583 101.604 54.0117 101.654 53.975C101.704 53.9383 101.76 53.92 101.824 53.92H102.604Z" fill="#898989"/>
<path d="M108.282 59V53.14H106.062V52H111.742V53.14H109.522V59H108.282ZM112.184 59V53.72H113.394V54.91C113.767 54.01 114.39 53.58 115.264 53.62V54.9H115.194C114.647 54.9 114.21 55.08 113.884 55.44C113.557 55.7933 113.394 56.31 113.394 56.99V59H112.184ZM118.135 59.11C117.548 59.11 117.088 58.9267 116.755 58.56C116.421 58.1933 116.255 57.7 116.255 57.08V53.72H117.465V56.72C117.465 57.1333 117.561 57.4533 117.755 57.68C117.955 57.9 118.235 58.01 118.595 58.01C118.948 58.01 119.235 57.8933 119.455 57.66C119.675 57.4267 119.785 57.1067 119.785 56.7V53.72H120.995V59H119.785V58.18C119.365 58.8 118.815 59.11 118.135 59.11ZM124.326 59.1C123.499 59.1 122.753 58.8367 122.086 58.31L122.626 57.49C123.199 57.9233 123.776 58.14 124.356 58.14C124.616 58.14 124.816 58.09 124.956 57.99C125.103 57.8833 125.176 57.7367 125.176 57.55C125.176 57.4567 125.149 57.3767 125.096 57.31C125.049 57.2367 124.963 57.17 124.836 57.11C124.709 57.05 124.603 57.0067 124.516 56.98C124.429 56.9533 124.286 56.91 124.086 56.85L123.996 56.82C123.809 56.7667 123.649 56.7167 123.516 56.67C123.389 56.6167 123.246 56.5467 123.086 56.46C122.926 56.3733 122.796 56.28 122.696 56.18C122.596 56.0733 122.513 55.94 122.446 55.78C122.379 55.62 122.346 55.44 122.346 55.24C122.346 54.7533 122.523 54.3633 122.876 54.07C123.236 53.7767 123.686 53.63 124.226 53.63C124.913 53.63 125.559 53.83 126.166 54.23L125.686 55.09C125.139 54.7567 124.643 54.59 124.196 54.59C123.963 54.59 123.779 54.64 123.646 54.74C123.519 54.84 123.456 54.9733 123.456 55.14C123.456 55.2533 123.513 55.3567 123.626 55.45C123.746 55.5433 123.863 55.6133 123.976 55.66C124.096 55.7 124.286 55.7633 124.546 55.85C124.559 55.8567 124.576 55.8633 124.596 55.87C124.616 55.8767 124.633 55.88 124.646 55.88C124.879 55.9533 125.076 56.0267 125.236 56.1C125.396 56.1667 125.563 56.26 125.736 56.38C125.916 56.5 126.053 56.65 126.146 56.83C126.239 57.0033 126.286 57.2067 126.286 57.44C126.286 57.9733 126.103 58.3833 125.736 58.67C125.369 58.9567 124.899 59.1 124.326 59.1ZM129.188 59.09C128.175 59.09 127.668 58.5733 127.668 57.54V54.76H126.998V53.72H127.668V52.27H128.878V53.72H130.298V54.76H128.878V57.35C128.878 57.79 129.095 58.01 129.528 58.01C129.788 58.01 130.038 57.95 130.278 57.83V58.82C129.958 59 129.595 59.09 129.188 59.09ZM134.058 59L137.138 51.95H138.278L141.358 59H140.058L139.348 57.31H136.038L135.318 59H134.058ZM136.488 56.22H138.898L137.688 53.42L136.488 56.22ZM144.604 59.12C143.824 59.12 143.174 58.8533 142.654 58.32C142.134 57.7867 141.874 57.1367 141.874 56.37C141.874 55.61 142.134 54.96 142.654 54.42C143.181 53.88 143.834 53.61 144.614 53.61C145.468 53.61 146.171 53.9133 146.724 54.52L145.974 55.33C145.554 54.89 145.098 54.67 144.604 54.67C144.171 54.67 143.808 54.8367 143.514 55.17C143.228 55.4967 143.084 55.8967 143.084 56.37C143.084 56.85 143.231 57.2533 143.524 57.58C143.824 57.9067 144.204 58.07 144.664 58.07C145.151 58.07 145.608 57.85 146.034 57.41L146.764 58.13C146.478 58.45 146.164 58.6967 145.824 58.87C145.491 59.0367 145.084 59.12 144.604 59.12ZM149.647 59.09C148.634 59.09 148.127 58.5733 148.127 57.54V54.76H147.457V53.72H148.127V52.27H149.337V53.72H150.757V54.76H149.337V57.35C149.337 57.79 149.554 58.01 149.987 58.01C150.247 58.01 150.497 57.95 150.737 57.83V58.82C150.417 59 150.054 59.09 149.647 59.09ZM151.999 52.91V51.76H153.299V52.91H151.999ZM152.049 59V53.72H153.259V59H152.049ZM156.51 59.04L154.34 53.72H155.64L157.06 57.6L158.49 53.72H159.76L157.6 59.04H156.51ZM160.807 52.91V51.76H162.107V52.91H160.807ZM160.857 59V53.72H162.067V59H160.857ZM165.419 59.09C164.405 59.09 163.899 58.5733 163.899 57.54V54.76H163.229V53.72H163.899V52.27H165.109V53.72H166.529V54.76H165.109V57.35C165.109 57.79 165.325 58.01 165.759 58.01C166.019 58.01 166.269 57.95 166.509 57.83V58.82C166.189 59 165.825 59.09 165.419 59.09ZM168.83 60.63C168.39 60.63 167.974 60.5233 167.58 60.31L167.99 59.41C168.237 59.5433 168.474 59.61 168.7 59.61C168.874 59.61 169.017 59.5633 169.13 59.47C169.244 59.3833 169.35 59.2267 169.45 59L167.25 53.72H168.54L170.04 57.64L171.41 53.72H172.67L170.57 59.15C170.357 59.69 170.12 60.07 169.86 60.29C169.6 60.5167 169.257 60.63 168.83 60.63Z" fill="#32BA7C"/>
</svg>
