<svg width="320" height="70" viewBox="0 0 320 70" fill="none" xmlns="http://www.w3.org/2000/svg">
<rect width="320" height="70" fill="black" fill-opacity="0"/>
<rect width="320" height="70" fill="black" fill-opacity="0"/>
<rect width="320" height="70" rx="35" fill="white"/>
<rect x="77" y="9" width="82" height="19" rx="3" fill="#D4ECFC" fill-opacity="0.3"/>
<path d="M78.756 15.699C78.826 15.2137 78.9613 14.789 79.162 14.425C79.3627 14.0563 79.6123 13.7507 79.911 13.508C80.2143 13.2607 80.5597 13.0763 80.947 12.955C81.339 12.829 81.759 12.766 82.207 12.766C82.6737 12.766 83.0937 12.8337 83.467 12.969C83.845 13.0997 84.167 13.284 84.433 13.522C84.699 13.7553 84.902 14.0307 85.042 14.348C85.1867 14.6653 85.259 15.0083 85.259 15.377C85.259 15.699 85.2217 15.9837 85.147 16.231C85.077 16.4737 84.9743 16.686 84.839 16.868C84.7037 17.05 84.5357 17.204 84.335 17.33C84.1343 17.456 83.908 17.561 83.656 17.645C84.2627 17.8363 84.7153 18.128 85.014 18.52C85.3127 18.912 85.462 19.4043 85.462 19.997C85.462 20.501 85.3687 20.9467 85.182 21.334C84.9953 21.7213 84.7433 22.048 84.426 22.314C84.1087 22.5753 83.74 22.7737 83.32 22.909C82.9047 23.0443 82.4637 23.112 81.997 23.112C81.4883 23.112 81.045 23.0537 80.667 22.937C80.289 22.8203 79.96 22.6477 79.68 22.419C79.4 22.1903 79.162 21.9103 78.966 21.579C78.77 21.2477 78.602 20.865 78.462 20.431L79.225 20.116C79.4257 20.032 79.6123 20.011 79.785 20.053C79.9623 20.0903 80.0907 20.1837 80.17 20.333C80.254 20.4963 80.345 20.6573 80.443 20.816C80.5457 20.9747 80.667 21.117 80.807 21.243C80.947 21.3643 81.1103 21.4647 81.297 21.544C81.4883 21.6187 81.7147 21.656 81.976 21.656C82.27 21.656 82.5267 21.6093 82.746 21.516C82.9653 21.418 83.1473 21.292 83.292 21.138C83.4413 20.984 83.551 20.8137 83.621 20.627C83.6957 20.4357 83.733 20.2443 83.733 20.053C83.733 19.8103 83.7073 19.591 83.656 19.395C83.6047 19.1943 83.4973 19.024 83.334 18.884C83.1707 18.744 82.935 18.6343 82.627 18.555C82.3237 18.4757 81.9153 18.436 81.402 18.436V17.204C81.8267 17.1993 82.179 17.1597 82.459 17.085C82.739 17.0103 82.9607 16.9077 83.124 16.777C83.292 16.6417 83.4087 16.4807 83.474 16.294C83.5393 16.1073 83.572 15.902 83.572 15.678C83.572 15.202 83.439 14.8403 83.173 14.593C82.907 14.3457 82.5523 14.222 82.109 14.222C81.9037 14.222 81.7147 14.2523 81.542 14.313C81.3693 14.369 81.213 14.4507 81.073 14.558C80.9377 14.6607 80.8233 14.782 80.73 14.922C80.6367 15.062 80.5667 15.216 80.52 15.384C80.4407 15.5987 80.3357 15.741 80.205 15.811C80.079 15.881 79.8993 15.8973 79.666 15.86L78.756 15.699ZM93.3661 21.705V23H87.7661V21.705H89.8171V15.804C89.8171 15.5707 89.8241 15.3303 89.8381 15.083L88.3821 16.301C88.2981 16.3663 88.2141 16.4083 88.1301 16.427C88.0508 16.441 87.9738 16.441 87.8991 16.427C87.8291 16.413 87.7661 16.3897 87.7101 16.357C87.6541 16.3197 87.6121 16.28 87.5841 16.238L87.0381 15.489L90.1251 12.864H91.5461V21.705H93.3661ZM97.0842 16.553C97.3082 16.5063 97.5229 16.4737 97.7282 16.455C97.9335 16.4317 98.1319 16.42 98.3232 16.42C98.8552 16.42 99.3242 16.4993 99.7302 16.658C100.136 16.8167 100.477 17.036 100.752 17.316C101.028 17.596 101.235 17.925 101.375 18.303C101.515 18.6763 101.585 19.08 101.585 19.514C101.585 20.0507 101.49 20.5407 101.298 20.984C101.112 21.4273 100.85 21.8077 100.514 22.125C100.178 22.4377 99.7792 22.6803 99.3172 22.853C98.8599 23.0257 98.3605 23.112 97.8192 23.112C97.5019 23.112 97.2009 23.0793 96.9162 23.014C96.6315 22.9487 96.3632 22.8623 96.1112 22.755C95.8639 22.643 95.6329 22.517 95.4182 22.377C95.2082 22.2323 95.0192 22.0807 94.8512 21.922L95.3832 21.187C95.4952 21.0283 95.6422 20.949 95.8242 20.949C95.9409 20.949 96.0599 20.9863 96.1812 21.061C96.3025 21.1357 96.4402 21.2173 96.5942 21.306C96.7529 21.3947 96.9372 21.4763 97.1472 21.551C97.3619 21.6257 97.6185 21.663 97.9172 21.663C98.2345 21.663 98.5145 21.6117 98.7572 21.509C98.9999 21.4063 99.2005 21.264 99.3592 21.082C99.5225 20.8953 99.6439 20.676 99.7232 20.424C99.8072 20.1673 99.8492 19.8897 99.8492 19.591C99.8492 19.0403 99.6882 18.611 99.3662 18.303C99.0489 17.9903 98.5775 17.834 97.9522 17.834C97.4715 17.834 96.9792 17.9227 96.4752 18.1L95.3972 17.792L96.2372 12.878H101.235V13.613C101.235 13.8603 101.158 14.061 101.004 14.215C100.85 14.369 100.589 14.446 100.22 14.446H97.4412L97.0842 16.553ZM112.145 15.86V23H110.647V20.095C110.035 20.249 109.464 20.3423 108.932 20.375C108.404 20.403 107.945 20.3493 107.553 20.214C107.161 20.0787 106.853 19.85 106.629 19.528C106.405 19.206 106.293 18.772 106.293 18.226V15.86H107.791V17.995C107.791 18.3077 107.849 18.5597 107.966 18.751C108.082 18.9377 108.257 19.0707 108.491 19.15C108.729 19.2247 109.025 19.2503 109.38 19.227C109.739 19.2037 110.161 19.1383 110.647 19.031V15.86H112.145ZM118.668 18.625C118.668 18.373 118.631 18.1397 118.556 17.925C118.486 17.7057 118.381 17.5167 118.241 17.358C118.101 17.1947 117.926 17.0687 117.716 16.98C117.511 16.8867 117.273 16.84 117.002 16.84C116.456 16.84 116.027 16.9963 115.714 17.309C115.402 17.6217 115.203 18.0603 115.119 18.625H118.668ZM115.077 19.549C115.096 19.955 115.159 20.3073 115.266 20.606C115.374 20.9 115.516 21.145 115.693 21.341C115.875 21.537 116.09 21.684 116.337 21.782C116.589 21.8753 116.869 21.922 117.177 21.922C117.471 21.922 117.726 21.8893 117.94 21.824C118.155 21.754 118.342 21.6793 118.5 21.6C118.659 21.516 118.794 21.4413 118.906 21.376C119.018 21.306 119.121 21.271 119.214 21.271C119.336 21.271 119.429 21.3177 119.494 21.411L119.921 21.964C119.744 22.174 119.543 22.3513 119.319 22.496C119.095 22.6407 118.857 22.7597 118.605 22.853C118.353 22.9417 118.094 23.0047 117.828 23.042C117.562 23.084 117.303 23.105 117.051 23.105C116.557 23.105 116.097 23.0233 115.672 22.86C115.252 22.692 114.886 22.447 114.573 22.125C114.265 21.803 114.023 21.404 113.845 20.928C113.673 20.452 113.586 19.9037 113.586 19.283C113.586 18.7883 113.663 18.3263 113.817 17.897C113.976 17.4677 114.2 17.0943 114.489 16.777C114.783 16.4597 115.138 16.21 115.553 16.028C115.973 15.8413 116.447 15.748 116.974 15.748C117.413 15.748 117.819 15.8203 118.192 15.965C118.566 16.105 118.888 16.3127 119.158 16.588C119.429 16.8633 119.639 17.2017 119.788 17.603C119.942 17.9997 120.019 18.4523 120.019 18.961C120.019 19.1943 119.994 19.3507 119.942 19.43C119.891 19.5093 119.798 19.549 119.662 19.549H115.077ZM127.877 23H126.372V17.029H124.384C124.328 17.9203 124.242 18.6903 124.125 19.339C124.013 19.983 123.878 20.529 123.719 20.977C123.56 21.425 123.383 21.789 123.187 22.069C122.991 22.3443 122.783 22.559 122.564 22.713C122.345 22.867 122.118 22.9697 121.885 23.021C121.656 23.0723 121.425 23.098 121.192 23.098C120.739 23.098 120.513 23.0233 120.513 22.874V21.929H120.905C121.059 21.929 121.215 21.9033 121.374 21.852C121.537 21.8007 121.694 21.7003 121.843 21.551C121.992 21.397 122.135 21.1823 122.27 20.907C122.41 20.6317 122.536 20.27 122.648 19.822C122.765 19.3693 122.865 18.821 122.949 18.177C123.033 17.5283 123.098 16.756 123.145 15.86H127.877V23ZM132.795 15.748C133.322 15.748 133.798 15.8343 134.223 16.007C134.652 16.1797 135.016 16.4247 135.315 16.742C135.618 17.0593 135.852 17.4443 136.015 17.897C136.178 18.3497 136.26 18.8583 136.26 19.423C136.26 19.9877 136.178 20.4963 136.015 20.949C135.852 21.4017 135.618 21.789 135.315 22.111C135.016 22.4283 134.652 22.6733 134.223 22.846C133.798 23.0187 133.322 23.105 132.795 23.105C132.263 23.105 131.782 23.0187 131.353 22.846C130.928 22.6733 130.564 22.4283 130.261 22.111C129.958 21.789 129.724 21.4017 129.561 20.949C129.398 20.4963 129.316 19.9877 129.316 19.423C129.316 18.8583 129.398 18.3497 129.561 17.897C129.724 17.4443 129.958 17.0593 130.261 16.742C130.564 16.4247 130.928 16.1797 131.353 16.007C131.782 15.8343 132.263 15.748 132.795 15.748ZM132.795 21.929C133.439 21.929 133.917 21.7143 134.23 21.285C134.547 20.851 134.706 20.2327 134.706 19.43C134.706 18.6273 134.547 18.009 134.23 17.575C133.917 17.1363 133.439 16.917 132.795 16.917C132.142 16.917 131.656 17.1363 131.339 17.575C131.022 18.009 130.863 18.6273 130.863 19.43C130.863 20.2327 131.022 20.851 131.339 21.285C131.656 21.7143 132.142 21.929 132.795 21.929ZM140.541 21.957C140.952 21.957 141.276 21.859 141.514 21.663C141.757 21.4623 141.878 21.194 141.878 20.858C141.878 20.7133 141.857 20.578 141.815 20.452C141.773 20.326 141.701 20.2187 141.598 20.13C141.495 20.0367 141.358 19.9643 141.185 19.913C141.017 19.8617 140.805 19.836 140.548 19.836H139.141V21.957H140.541ZM139.141 16.854V18.891H140.38C140.567 18.891 140.737 18.8653 140.891 18.814C141.05 18.758 141.185 18.6833 141.297 18.59C141.414 18.492 141.502 18.3777 141.563 18.247C141.628 18.1117 141.661 17.9623 141.661 17.799C141.661 17.6823 141.64 17.568 141.598 17.456C141.556 17.3393 141.484 17.2367 141.381 17.148C141.283 17.0593 141.152 16.9893 140.989 16.938C140.826 16.882 140.623 16.854 140.38 16.854H139.141ZM140.429 15.86C140.872 15.86 141.255 15.9043 141.577 15.993C141.899 16.077 142.163 16.196 142.368 16.35C142.578 16.504 142.732 16.686 142.83 16.896C142.928 17.106 142.977 17.3323 142.977 17.575C142.977 17.729 142.956 17.89 142.914 18.058C142.872 18.226 142.8 18.387 142.697 18.541C142.594 18.6903 142.454 18.828 142.277 18.954C142.104 19.08 141.883 19.178 141.612 19.248C142.121 19.3413 142.522 19.528 142.816 19.808C143.115 20.0833 143.264 20.452 143.264 20.914C143.264 21.2687 143.192 21.5767 143.047 21.838C142.902 22.0993 142.704 22.3163 142.452 22.489C142.205 22.6617 141.915 22.79 141.584 22.874C141.257 22.958 140.912 23 140.548 23H137.706V15.86H140.429ZM149.375 18.625C149.375 18.373 149.338 18.1397 149.263 17.925C149.193 17.7057 149.088 17.5167 148.948 17.358C148.808 17.1947 148.633 17.0687 148.423 16.98C148.218 16.8867 147.98 16.84 147.709 16.84C147.163 16.84 146.734 16.9963 146.421 17.309C146.109 17.6217 145.91 18.0603 145.826 18.625H149.375ZM145.784 19.549C145.803 19.955 145.866 20.3073 145.973 20.606C146.081 20.9 146.223 21.145 146.4 21.341C146.582 21.537 146.797 21.684 147.044 21.782C147.296 21.8753 147.576 21.922 147.884 21.922C148.178 21.922 148.433 21.8893 148.647 21.824C148.862 21.754 149.049 21.6793 149.207 21.6C149.366 21.516 149.501 21.4413 149.613 21.376C149.725 21.306 149.828 21.271 149.921 21.271C150.043 21.271 150.136 21.3177 150.201 21.411L150.628 21.964C150.451 22.174 150.25 22.3513 150.026 22.496C149.802 22.6407 149.564 22.7597 149.312 22.853C149.06 22.9417 148.801 23.0047 148.535 23.042C148.269 23.084 148.01 23.105 147.758 23.105C147.264 23.105 146.804 23.0233 146.379 22.86C145.959 22.692 145.593 22.447 145.28 22.125C144.972 21.803 144.73 21.404 144.552 20.928C144.38 20.452 144.293 19.9037 144.293 19.283C144.293 18.7883 144.37 18.3263 144.524 17.897C144.683 17.4677 144.907 17.0943 145.196 16.777C145.49 16.4597 145.845 16.21 146.26 16.028C146.68 15.8413 147.154 15.748 147.681 15.748C148.12 15.748 148.526 15.8203 148.899 15.965C149.273 16.105 149.595 16.3127 149.865 16.588C150.136 16.8633 150.346 17.2017 150.495 17.603C150.649 17.9997 150.726 18.4523 150.726 18.961C150.726 19.1943 150.701 19.3507 150.649 19.43C150.598 19.5093 150.505 19.549 150.369 19.549H145.784ZM156.428 16.266C156.503 16.1447 156.603 16.0467 156.729 15.972C156.86 15.8973 156.995 15.86 157.135 15.86H158.311L156.554 18.541C156.442 18.723 156.325 18.87 156.204 18.982C156.083 19.094 155.933 19.1803 155.756 19.241C155.985 19.3063 156.174 19.4067 156.323 19.542C156.477 19.6727 156.615 19.843 156.736 20.053L158.507 23H157.471C157.205 23 156.997 22.9557 156.848 22.867C156.703 22.7783 156.58 22.6477 156.477 22.475L155.266 20.389C155.168 20.2117 155.04 20.081 154.881 19.997C154.722 19.913 154.543 19.871 154.342 19.871H153.635V23.007H152.13V15.86H153.635V18.863H154.244C154.44 18.863 154.603 18.8257 154.734 18.751C154.865 18.6763 154.977 18.562 155.07 18.408L156.428 16.266Z" fill="#3B75FF"/>
<path d="M167.998 17.218C167.956 17.2693 167.914 17.3113 167.872 17.344C167.834 17.372 167.778 17.386 167.704 17.386C167.629 17.386 167.55 17.358 167.466 17.302C167.386 17.2413 167.284 17.1783 167.158 17.113C167.036 17.043 166.887 16.98 166.71 16.924C166.537 16.8633 166.322 16.833 166.066 16.833C165.73 16.833 165.433 16.8937 165.177 17.015C164.92 17.1363 164.705 17.309 164.533 17.533C164.365 17.757 164.236 18.03 164.148 18.352C164.059 18.674 164.015 19.0357 164.015 19.437C164.015 19.8523 164.061 20.2233 164.155 20.55C164.248 20.872 164.381 21.145 164.554 21.369C164.726 21.5883 164.936 21.7563 165.184 21.873C165.431 21.985 165.706 22.041 166.01 22.041C166.304 22.041 166.546 22.006 166.738 21.936C166.929 21.8613 167.088 21.782 167.214 21.698C167.34 21.614 167.445 21.537 167.529 21.467C167.613 21.3923 167.699 21.355 167.788 21.355C167.9 21.355 167.986 21.397 168.047 21.481L168.439 21.985C168.275 22.1857 168.091 22.356 167.886 22.496C167.685 22.636 167.47 22.7503 167.242 22.839C167.013 22.9277 166.773 22.993 166.521 23.035C166.273 23.077 166.021 23.098 165.765 23.098C165.321 23.098 164.906 23.0163 164.519 22.853C164.136 22.6897 163.802 22.4517 163.518 22.139C163.238 21.8263 163.016 21.4437 162.853 20.991C162.689 20.5337 162.608 20.0157 162.608 19.437C162.608 18.9097 162.68 18.422 162.825 17.974C162.974 17.526 163.191 17.141 163.476 16.819C163.765 16.4923 164.12 16.238 164.54 16.056C164.96 15.8693 165.44 15.776 165.982 15.776C166.49 15.776 166.938 15.8577 167.326 16.021C167.713 16.1843 168.058 16.4153 168.362 16.714L167.998 17.218ZM174.301 18.653C174.301 18.3823 174.261 18.1327 174.182 17.904C174.107 17.6753 173.995 17.477 173.846 17.309C173.697 17.141 173.515 17.0103 173.3 16.917C173.085 16.8237 172.838 16.777 172.558 16.777C171.984 16.777 171.531 16.9427 171.2 17.274C170.873 17.6053 170.666 18.065 170.577 18.653H174.301ZM175.428 21.985C175.26 22.181 175.066 22.3513 174.847 22.496C174.628 22.636 174.394 22.7503 174.147 22.839C173.9 22.9277 173.643 22.993 173.377 23.035C173.116 23.077 172.857 23.098 172.6 23.098C172.11 23.098 171.655 23.0163 171.235 22.853C170.82 22.685 170.458 22.4423 170.15 22.125C169.847 21.803 169.609 21.4063 169.436 20.935C169.268 20.459 169.184 19.913 169.184 19.297C169.184 18.8023 169.261 18.3427 169.415 17.918C169.569 17.4887 169.788 17.1153 170.073 16.798C170.362 16.4807 170.715 16.231 171.13 16.049C171.545 15.867 172.012 15.776 172.53 15.776C172.964 15.776 173.363 15.8483 173.727 15.993C174.096 16.133 174.413 16.3383 174.679 16.609C174.945 16.8797 175.153 17.2133 175.302 17.61C175.456 18.0067 175.533 18.4593 175.533 18.968C175.533 19.178 175.51 19.3203 175.463 19.395C175.416 19.465 175.33 19.5 175.204 19.5H170.542C170.556 19.9247 170.617 20.2957 170.724 20.613C170.831 20.9257 170.978 21.187 171.165 21.397C171.356 21.607 171.583 21.7633 171.844 21.866C172.105 21.9687 172.397 22.02 172.719 22.02C173.022 22.02 173.284 21.985 173.503 21.915C173.727 21.845 173.918 21.7703 174.077 21.691C174.24 21.607 174.376 21.53 174.483 21.46C174.595 21.39 174.693 21.355 174.777 21.355C174.889 21.355 174.975 21.397 175.036 21.481L175.428 21.985ZM183.174 15.888V23H181.802V18.352C181.802 18.2587 181.807 18.156 181.816 18.044C181.825 17.9273 181.839 17.8107 181.858 17.694C181.811 17.792 181.765 17.8853 181.718 17.974C181.676 18.058 181.632 18.1327 181.585 18.198L178.316 22.657C178.265 22.741 178.197 22.8203 178.113 22.895C178.029 22.9697 177.933 23.007 177.826 23.007H177V15.888H178.365V20.543C178.365 20.6363 178.36 20.7413 178.351 20.858C178.342 20.97 178.328 21.082 178.309 21.194C178.402 20.9887 178.493 20.823 178.582 20.697L181.851 16.231C181.902 16.1517 181.97 16.0747 182.054 16C182.143 15.9253 182.241 15.888 182.348 15.888H183.174ZM180.171 14.138C180.358 14.138 180.514 14.117 180.64 14.075C180.771 14.033 180.873 13.9653 180.948 13.872C181.027 13.7787 181.083 13.6573 181.116 13.508C181.153 13.354 181.172 13.1673 181.172 12.948H181.977C182.07 12.948 182.143 12.99 182.194 13.074C182.245 13.158 182.271 13.2513 182.271 13.354C182.271 13.5873 182.222 13.7973 182.124 13.984C182.031 14.1707 181.893 14.3317 181.711 14.467C181.529 14.5977 181.307 14.7003 181.046 14.775C180.789 14.845 180.498 14.88 180.171 14.88C179.844 14.88 179.55 14.845 179.289 14.775C179.032 14.7003 178.813 14.5977 178.631 14.467C178.449 14.3317 178.309 14.1707 178.211 13.984C178.118 13.7973 178.071 13.5873 178.071 13.354C178.071 13.2513 178.097 13.158 178.148 13.074C178.199 12.99 178.272 12.948 178.365 12.948H179.17C179.17 13.1673 179.186 13.354 179.219 13.508C179.256 13.6573 179.312 13.7787 179.387 13.872C179.466 13.9653 179.569 14.033 179.695 14.075C179.826 14.117 179.984 14.138 180.171 14.138ZM190.414 15.888V23H189.049V20.039C188.438 20.1977 187.866 20.2957 187.334 20.333C186.802 20.3657 186.338 20.319 185.941 20.193C185.544 20.0623 185.232 19.8407 185.003 19.528C184.779 19.2107 184.667 18.7813 184.667 18.24V15.888H186.039V18.03C186.039 18.3567 186.102 18.618 186.228 18.814C186.354 19.0053 186.543 19.1407 186.795 19.22C187.047 19.2947 187.36 19.318 187.733 19.29C188.111 19.2573 188.55 19.185 189.049 19.073V15.888H190.414ZM196.148 19.843C195.593 19.8617 195.122 19.906 194.734 19.976C194.347 20.0413 194.032 20.13 193.789 20.242C193.547 20.354 193.372 20.487 193.264 20.641C193.157 20.7903 193.103 20.9583 193.103 21.145C193.103 21.3223 193.131 21.4763 193.187 21.607C193.248 21.733 193.327 21.838 193.425 21.922C193.528 22.0013 193.647 22.0597 193.782 22.097C193.918 22.1343 194.065 22.153 194.223 22.153C194.433 22.153 194.625 22.132 194.797 22.09C194.975 22.048 195.14 21.9897 195.294 21.915C195.448 21.8357 195.595 21.74 195.735 21.628C195.875 21.516 196.013 21.3877 196.148 21.243V19.843ZM192.144 16.882C192.541 16.504 192.97 16.2217 193.432 16.035C193.899 15.8483 194.41 15.755 194.965 15.755C195.371 15.755 195.731 15.8227 196.043 15.958C196.356 16.0887 196.62 16.273 196.834 16.511C197.049 16.749 197.21 17.0337 197.317 17.365C197.429 17.6963 197.485 18.0627 197.485 18.464V23H196.876C196.741 23 196.638 22.979 196.568 22.937C196.498 22.8903 196.442 22.8063 196.4 22.685L196.253 22.062C196.071 22.23 195.892 22.3793 195.714 22.51C195.537 22.636 195.35 22.7457 195.154 22.839C194.963 22.9277 194.758 22.9953 194.538 23.042C194.319 23.0887 194.076 23.112 193.81 23.112C193.53 23.112 193.267 23.0747 193.019 23C192.777 22.9207 192.564 22.8017 192.382 22.643C192.2 22.4843 192.056 22.286 191.948 22.048C191.846 21.81 191.794 21.5323 191.794 21.215C191.794 20.935 191.869 20.6667 192.018 20.41C192.172 20.1487 192.42 19.9153 192.76 19.71C193.106 19.5047 193.554 19.3367 194.104 19.206C194.66 19.0753 195.341 19.0007 196.148 18.982V18.464C196.148 17.9273 196.034 17.526 195.805 17.26C195.577 16.994 195.241 16.861 194.797 16.861C194.499 16.861 194.247 16.8983 194.041 16.973C193.841 17.0477 193.666 17.1317 193.516 17.225C193.372 17.3137 193.243 17.3953 193.131 17.47C193.024 17.5447 192.912 17.582 192.795 17.582C192.702 17.582 192.62 17.5563 192.55 17.505C192.485 17.4537 192.431 17.393 192.389 17.323L192.144 16.882ZM204.297 17.218C204.255 17.2693 204.213 17.3113 204.171 17.344C204.133 17.372 204.077 17.386 204.003 17.386C203.928 17.386 203.849 17.358 203.765 17.302C203.685 17.2413 203.583 17.1783 203.457 17.113C203.335 17.043 203.186 16.98 203.009 16.924C202.836 16.8633 202.621 16.833 202.365 16.833C202.029 16.833 201.732 16.8937 201.476 17.015C201.219 17.1363 201.004 17.309 200.832 17.533C200.664 17.757 200.535 18.03 200.447 18.352C200.358 18.674 200.314 19.0357 200.314 19.437C200.314 19.8523 200.36 20.2233 200.454 20.55C200.547 20.872 200.68 21.145 200.853 21.369C201.025 21.5883 201.235 21.7563 201.483 21.873C201.73 21.985 202.005 22.041 202.309 22.041C202.603 22.041 202.845 22.006 203.037 21.936C203.228 21.8613 203.387 21.782 203.513 21.698C203.639 21.614 203.744 21.537 203.828 21.467C203.912 21.3923 203.998 21.355 204.087 21.355C204.199 21.355 204.285 21.397 204.346 21.481L204.738 21.985C204.574 22.1857 204.39 22.356 204.185 22.496C203.984 22.636 203.769 22.7503 203.541 22.839C203.312 22.9277 203.072 22.993 202.82 23.035C202.572 23.077 202.32 23.098 202.064 23.098C201.62 23.098 201.205 23.0163 200.818 22.853C200.435 22.6897 200.101 22.4517 199.817 22.139C199.537 21.8263 199.315 21.4437 199.152 20.991C198.988 20.5337 198.907 20.0157 198.907 19.437C198.907 18.9097 198.979 18.422 199.124 17.974C199.273 17.526 199.49 17.141 199.775 16.819C200.064 16.4923 200.419 16.238 200.839 16.056C201.259 15.8693 201.739 15.776 202.281 15.776C202.789 15.776 203.237 15.8577 203.625 16.021C204.012 16.1843 204.357 16.4153 204.661 16.714L204.297 17.218ZM214.537 17.218C214.495 17.2693 214.453 17.3113 214.411 17.344C214.373 17.372 214.317 17.386 214.243 17.386C214.168 17.386 214.089 17.358 214.005 17.302C213.925 17.2413 213.823 17.1783 213.697 17.113C213.575 17.043 213.426 16.98 213.249 16.924C213.076 16.8633 212.861 16.833 212.605 16.833C212.269 16.833 211.972 16.8937 211.716 17.015C211.459 17.1363 211.244 17.309 211.072 17.533C210.904 17.757 210.775 18.03 210.687 18.352C210.598 18.674 210.554 19.0357 210.554 19.437C210.554 19.8523 210.6 20.2233 210.694 20.55C210.787 20.872 210.92 21.145 211.093 21.369C211.265 21.5883 211.475 21.7563 211.723 21.873C211.97 21.985 212.245 22.041 212.549 22.041C212.843 22.041 213.085 22.006 213.277 21.936C213.468 21.8613 213.627 21.782 213.753 21.698C213.879 21.614 213.984 21.537 214.068 21.467C214.152 21.3923 214.238 21.355 214.327 21.355C214.439 21.355 214.525 21.397 214.586 21.481L214.978 21.985C214.814 22.1857 214.63 22.356 214.425 22.496C214.224 22.636 214.009 22.7503 213.781 22.839C213.552 22.9277 213.312 22.993 213.06 23.035C212.812 23.077 212.56 23.098 212.304 23.098C211.86 23.098 211.445 23.0163 211.058 22.853C210.675 22.6897 210.341 22.4517 210.057 22.139C209.777 21.8263 209.555 21.4437 209.392 20.991C209.228 20.5337 209.147 20.0157 209.147 19.437C209.147 18.9097 209.219 18.422 209.364 17.974C209.513 17.526 209.73 17.141 210.015 16.819C210.304 16.4923 210.659 16.238 211.079 16.056C211.499 15.8693 211.979 15.776 212.521 15.776C213.029 15.776 213.477 15.8577 213.865 16.021C214.252 16.1843 214.597 16.4153 214.901 16.714L214.537 17.218ZM224.253 15.867V23H223.021V18.478C223.021 18.338 223.028 18.1793 223.042 18.002C223.061 17.8247 223.086 17.6613 223.119 17.512L220.739 21.726C220.697 21.8053 220.643 21.8683 220.578 21.915C220.513 21.957 220.436 21.978 220.347 21.978H220.193C220.109 21.978 220.032 21.957 219.962 21.915C219.897 21.8683 219.843 21.8053 219.801 21.726L217.386 17.498C217.414 17.6473 217.437 17.813 217.456 17.995C217.475 18.1723 217.484 18.3333 217.484 18.478V23H216.252V15.867H217.358C217.451 15.867 217.545 15.888 217.638 15.93C217.731 15.972 217.811 16.0537 217.876 16.175L219.955 19.689C220.016 19.801 220.072 19.92 220.123 20.046C220.174 20.172 220.223 20.298 220.27 20.424C220.317 20.298 220.363 20.172 220.41 20.046C220.461 19.92 220.517 19.801 220.578 19.689L222.629 16.175C222.694 16.049 222.774 15.9673 222.867 15.93C222.96 15.888 223.054 15.867 223.147 15.867H224.253ZM229.195 15.776C229.718 15.776 230.189 15.8623 230.609 16.035C231.034 16.203 231.393 16.448 231.687 16.77C231.986 17.0873 232.214 17.4723 232.373 17.925C232.532 18.373 232.611 18.877 232.611 19.437C232.611 19.997 232.532 20.5033 232.373 20.956C232.214 21.4087 231.986 21.7937 231.687 22.111C231.393 22.4283 231.034 22.6733 230.609 22.846C230.189 23.014 229.718 23.098 229.195 23.098C228.668 23.098 228.192 23.014 227.767 22.846C227.347 22.6733 226.988 22.4283 226.689 22.111C226.39 21.7937 226.159 21.4087 225.996 20.956C225.837 20.5033 225.758 19.997 225.758 19.437C225.758 18.877 225.837 18.373 225.996 17.925C226.159 17.4723 226.39 17.0873 226.689 16.77C226.988 16.448 227.347 16.203 227.767 16.035C228.192 15.8623 228.668 15.776 229.195 15.776ZM229.195 22.034C229.867 22.034 230.369 21.8077 230.7 21.355C231.031 20.9023 231.197 20.2653 231.197 19.444C231.197 18.6227 231.031 17.9857 230.7 17.533C230.369 17.0757 229.867 16.847 229.195 16.847C228.514 16.847 228.005 17.0757 227.669 17.533C227.338 17.9857 227.172 18.6227 227.172 19.444C227.172 20.2653 227.338 20.9023 227.669 21.355C228.005 21.8077 228.514 22.034 229.195 22.034ZM239.832 16.924H237.151V23H235.779V16.924H233.098V15.888H239.832V16.924ZM242.336 21.25C242.56 21.544 242.8 21.7493 243.057 21.866C243.318 21.9827 243.61 22.041 243.932 22.041C244.557 22.041 245.04 21.817 245.381 21.369C245.726 20.9163 245.899 20.2583 245.899 19.395C245.899 18.9423 245.859 18.5573 245.78 18.24C245.705 17.918 245.593 17.6567 245.444 17.456C245.299 17.2507 245.119 17.1013 244.905 17.008C244.69 16.91 244.447 16.861 244.177 16.861C243.78 16.861 243.435 16.9497 243.141 17.127C242.851 17.3043 242.583 17.5563 242.336 17.883V21.25ZM242.266 16.952C242.415 16.7747 242.574 16.6137 242.742 16.469C242.914 16.3197 243.099 16.1937 243.295 16.091C243.491 15.9837 243.698 15.902 243.918 15.846C244.142 15.7853 244.38 15.755 244.632 15.755C245.038 15.755 245.404 15.8343 245.731 15.993C246.062 16.1517 246.344 16.385 246.578 16.693C246.811 17.001 246.991 17.3813 247.117 17.834C247.247 18.2867 247.313 18.807 247.313 19.395C247.313 19.9223 247.24 20.4123 247.096 20.865C246.956 21.313 246.753 21.7027 246.487 22.034C246.225 22.3653 245.903 22.6267 245.521 22.818C245.143 23.0047 244.716 23.098 244.24 23.098C243.815 23.098 243.451 23.028 243.148 22.888C242.844 22.748 242.574 22.552 242.336 22.3V25.387H240.971V15.888H241.79C241.981 15.888 242.1 15.979 242.147 16.161L242.266 16.952ZM252.495 19.171V16.798H251.368C251.111 16.798 250.896 16.8353 250.724 16.91C250.551 16.98 250.411 17.0733 250.304 17.19C250.201 17.3067 250.126 17.435 250.08 17.575C250.038 17.715 250.017 17.855 250.017 17.995C250.017 18.3637 250.15 18.653 250.416 18.863C250.682 19.0683 251.043 19.171 251.501 19.171H252.495ZM253.797 15.888V23H252.495V20.039H252.012C251.876 20.039 251.764 20.0507 251.676 20.074C251.587 20.0927 251.51 20.123 251.445 20.165C251.384 20.207 251.33 20.2583 251.284 20.319C251.237 20.3797 251.19 20.4473 251.144 20.522L249.695 22.524C249.648 22.6033 249.599 22.6733 249.548 22.734C249.496 22.79 249.438 22.839 249.373 22.881C249.307 22.9183 249.23 22.9487 249.142 22.972C249.053 22.9907 248.948 23 248.827 23H247.882L249.877 20.361C250.049 20.067 250.285 19.8687 250.584 19.766C250.229 19.7193 249.928 19.6353 249.681 19.514C249.438 19.388 249.24 19.2433 249.086 19.08C248.932 18.912 248.82 18.73 248.75 18.534C248.68 18.3333 248.645 18.1303 248.645 17.925C248.645 17.673 248.694 17.4257 248.792 17.183C248.89 16.9403 249.046 16.7233 249.261 16.532C249.475 16.3407 249.753 16.1867 250.094 16.07C250.434 15.9487 250.845 15.888 251.326 15.888H253.797ZM261.666 16.924H258.985V23H257.613V16.924H254.932V15.888H261.666V16.924ZM78.462 33.714C78.7653 33.4153 79.1107 33.1843 79.498 33.021C79.8853 32.8577 80.3333 32.776 80.842 32.776C81.3833 32.776 81.864 32.8693 82.284 33.056C82.704 33.238 83.0563 33.4923 83.341 33.819C83.6303 34.141 83.8473 34.526 83.992 34.974C84.1413 35.422 84.216 35.9097 84.216 36.437C84.216 37.0157 84.1343 37.5337 83.971 37.991C83.8077 38.4437 83.5837 38.8263 83.299 39.139C83.019 39.4517 82.6853 39.6897 82.298 39.853C81.9153 40.0163 81.5023 40.098 81.059 40.098C80.8023 40.098 80.548 40.077 80.296 40.035C80.0487 39.993 79.8107 39.9277 79.582 39.839C79.3533 39.7503 79.1363 39.636 78.931 39.496C78.7303 39.356 78.5483 39.1857 78.385 38.985L78.756 38.523C78.8167 38.439 78.903 38.397 79.015 38.397C79.1037 38.397 79.19 38.432 79.274 38.502C79.3627 38.5673 79.4723 38.6397 79.603 38.719C79.7337 38.7983 79.8947 38.873 80.086 38.943C80.2773 39.0083 80.52 39.041 80.814 39.041C81.374 39.041 81.8337 38.852 82.193 38.474C82.557 38.096 82.7717 37.5523 82.837 36.843H79.554V35.891H82.816C82.7787 35.569 82.704 35.282 82.592 35.03C82.4847 34.7733 82.3447 34.5563 82.172 34.379C81.9993 34.2017 81.794 34.0663 81.556 33.973C81.318 33.8797 81.052 33.833 80.758 33.833C80.5013 33.833 80.2843 33.861 80.107 33.917C79.9297 33.9683 79.778 34.0267 79.652 34.092C79.5307 34.1527 79.4257 34.211 79.337 34.267C79.253 34.3183 79.1737 34.344 79.099 34.344C79.0243 34.344 78.966 34.33 78.924 34.302C78.8867 34.2693 78.8493 34.2273 78.812 34.176L78.462 33.714ZM91.4238 33.924H88.7428V40H87.3708V33.924H84.6898V32.888H91.4238V33.924ZM98.7785 32.888L94.8305 42.065C94.7885 42.1677 94.7325 42.247 94.6625 42.303C94.5925 42.359 94.4898 42.387 94.3545 42.387H93.3395L94.6415 39.552L91.7225 32.888H92.9125C93.0292 32.888 93.1202 32.916 93.1855 32.972C93.2508 33.028 93.2975 33.091 93.3255 33.161L95.1315 37.431C95.1688 37.5383 95.2038 37.648 95.2365 37.76C95.2738 37.8673 95.3042 37.9747 95.3275 38.082C95.3602 37.97 95.3952 37.8603 95.4325 37.753C95.4698 37.641 95.5095 37.5313 95.5515 37.424L97.2945 33.161C97.3272 33.0817 97.3785 33.0163 97.4485 32.965C97.5185 32.9137 97.5978 32.888 97.6865 32.888H98.7785ZM108.347 34.218C108.305 34.2693 108.263 34.3113 108.221 34.344C108.184 34.372 108.128 34.386 108.053 34.386C107.979 34.386 107.899 34.358 107.815 34.302C107.736 34.2413 107.633 34.1783 107.507 34.113C107.386 34.043 107.237 33.98 107.059 33.924C106.887 33.8633 106.672 33.833 106.415 33.833C106.079 33.833 105.783 33.8937 105.526 34.015C105.27 34.1363 105.055 34.309 104.882 34.533C104.714 34.757 104.586 35.03 104.497 35.352C104.409 35.674 104.364 36.0357 104.364 36.437C104.364 36.8523 104.411 37.2233 104.504 37.55C104.598 37.872 104.731 38.145 104.903 38.369C105.076 38.5883 105.286 38.7563 105.533 38.873C105.781 38.985 106.056 39.041 106.359 39.041C106.653 39.041 106.896 39.006 107.087 38.936C107.279 38.8613 107.437 38.782 107.563 38.698C107.689 38.614 107.794 38.537 107.878 38.467C107.962 38.3923 108.049 38.355 108.137 38.355C108.249 38.355 108.336 38.397 108.396 38.481L108.788 38.985C108.625 39.1857 108.441 39.356 108.235 39.496C108.035 39.636 107.82 39.7503 107.591 39.839C107.363 39.9277 107.122 39.993 106.87 40.035C106.623 40.077 106.371 40.098 106.114 40.098C105.671 40.098 105.256 40.0163 104.868 39.853C104.486 39.6897 104.152 39.4517 103.867 39.139C103.587 38.8263 103.366 38.4437 103.202 37.991C103.039 37.5337 102.957 37.0157 102.957 36.437C102.957 35.9097 103.03 35.422 103.174 34.974C103.324 34.526 103.541 34.141 103.825 33.819C104.115 33.4923 104.469 33.238 104.889 33.056C105.309 32.8693 105.79 32.776 106.331 32.776C106.84 32.776 107.288 32.8577 107.675 33.021C108.063 33.1843 108.408 33.4153 108.711 33.714L108.347 34.218ZM116.02 33.924H113.339V40H111.967V33.924H109.286V32.888H116.02V33.924ZM118.523 38.25C118.747 38.544 118.988 38.7493 119.244 38.866C119.506 38.9827 119.797 39.041 120.119 39.041C120.745 39.041 121.228 38.817 121.568 38.369C121.914 37.9163 122.086 37.2583 122.086 36.395C122.086 35.9423 122.047 35.5573 121.967 35.24C121.893 34.918 121.781 34.6567 121.631 34.456C121.487 34.2507 121.307 34.1013 121.092 34.008C120.878 33.91 120.635 33.861 120.364 33.861C119.968 33.861 119.622 33.9497 119.328 34.127C119.039 34.3043 118.771 34.5563 118.523 34.883V38.25ZM118.453 33.952C118.603 33.7747 118.761 33.6137 118.929 33.469C119.102 33.3197 119.286 33.1937 119.482 33.091C119.678 32.9837 119.886 32.902 120.105 32.846C120.329 32.7853 120.567 32.755 120.819 32.755C121.225 32.755 121.592 32.8343 121.918 32.993C122.25 33.1517 122.532 33.385 122.765 33.693C122.999 34.001 123.178 34.3813 123.304 34.834C123.435 35.2867 123.5 35.807 123.5 36.395C123.5 36.9223 123.428 37.4123 123.283 37.865C123.143 38.313 122.94 38.7027 122.674 39.034C122.413 39.3653 122.091 39.6267 121.708 39.818C121.33 40.0047 120.903 40.098 120.427 40.098C120.003 40.098 119.639 40.028 119.335 39.888C119.032 39.748 118.761 39.552 118.523 39.3V42.387H117.158V32.888H117.977C118.169 32.888 118.288 32.979 118.334 33.161L118.453 33.952ZM128.842 36.843C128.286 36.8617 127.815 36.906 127.428 36.976C127.04 37.0413 126.725 37.13 126.483 37.242C126.24 37.354 126.065 37.487 125.958 37.641C125.85 37.7903 125.797 37.9583 125.797 38.145C125.797 38.3223 125.825 38.4763 125.881 38.607C125.941 38.733 126.021 38.838 126.119 38.922C126.221 39.0013 126.34 39.0597 126.476 39.097C126.611 39.1343 126.758 39.153 126.917 39.153C127.127 39.153 127.318 39.132 127.491 39.09C127.668 39.048 127.834 38.9897 127.988 38.915C128.142 38.8357 128.289 38.74 128.429 38.628C128.569 38.516 128.706 38.3877 128.842 38.243V36.843ZM124.838 33.882C125.234 33.504 125.664 33.2217 126.126 33.035C126.592 32.8483 127.103 32.755 127.659 32.755C128.065 32.755 128.424 32.8227 128.737 32.958C129.049 33.0887 129.313 33.273 129.528 33.511C129.742 33.749 129.903 34.0337 130.011 34.365C130.123 34.6963 130.179 35.0627 130.179 35.464V40H129.57C129.434 40 129.332 39.979 129.262 39.937C129.192 39.8903 129.136 39.8063 129.094 39.685L128.947 39.062C128.765 39.23 128.585 39.3793 128.408 39.51C128.23 39.636 128.044 39.7457 127.848 39.839C127.656 39.9277 127.451 39.9953 127.232 40.042C127.012 40.0887 126.77 40.112 126.504 40.112C126.224 40.112 125.96 40.0747 125.713 40C125.47 39.9207 125.258 39.8017 125.076 39.643C124.894 39.4843 124.749 39.286 124.642 39.048C124.539 38.81 124.488 38.5323 124.488 38.215C124.488 37.935 124.562 37.6667 124.712 37.41C124.866 37.1487 125.113 36.9153 125.454 36.71C125.799 36.5047 126.247 36.3367 126.798 36.206C127.353 36.0753 128.034 36.0007 128.842 35.982V35.464C128.842 34.9273 128.727 34.526 128.499 34.26C128.27 33.994 127.934 33.861 127.491 33.861C127.192 33.861 126.94 33.8983 126.735 33.973C126.534 34.0477 126.359 34.1317 126.21 34.225C126.065 34.3137 125.937 34.3953 125.825 34.47C125.717 34.5447 125.605 34.582 125.489 34.582C125.395 34.582 125.314 34.5563 125.244 34.505C125.178 34.4537 125.125 34.393 125.083 34.323L124.838 33.882ZM137.998 32.888V40H136.626V36.724H133.371V40H132.006V32.888H133.371V35.688H136.626V32.888H137.998ZM146.082 32.888V40H144.71V35.352C144.71 35.2587 144.715 35.156 144.724 35.044C144.734 34.9273 144.748 34.8107 144.766 34.694C144.72 34.792 144.673 34.8853 144.626 34.974C144.584 35.058 144.54 35.1327 144.493 35.198L141.224 39.657C141.173 39.741 141.105 39.8203 141.021 39.895C140.937 39.9697 140.842 40.007 140.734 40.007H139.908V32.888H141.273V37.543C141.273 37.6363 141.269 37.7413 141.259 37.858C141.25 37.97 141.236 38.082 141.217 38.194C141.311 37.9887 141.402 37.823 141.49 37.697L144.759 33.231C144.811 33.1517 144.878 33.0747 144.962 33C145.051 32.9253 145.149 32.888 145.256 32.888H146.082ZM155.282 38.964V42.009C155.282 42.1397 155.245 42.2423 155.17 42.317C155.096 42.3917 155 42.429 154.883 42.429H154.043V40H147.988V32.888H149.353V38.964H152.608V32.888H153.98V38.964H155.282ZM162.38 32.888L158.432 42.065C158.39 42.1677 158.334 42.247 158.264 42.303C158.194 42.359 158.091 42.387 157.956 42.387H156.941L158.243 39.552L155.324 32.888H156.514C156.631 32.888 156.722 32.916 156.787 32.972C156.852 33.028 156.899 33.091 156.927 33.161L158.733 37.431C158.77 37.5383 158.805 37.648 158.838 37.76C158.875 37.8673 158.906 37.9747 158.929 38.082C158.962 37.97 158.997 37.8603 159.034 37.753C159.071 37.641 159.111 37.5313 159.153 37.424L160.896 33.161C160.929 33.0817 160.98 33.0163 161.05 32.965C161.12 32.9137 161.199 32.888 161.288 32.888H162.38Z" fill="#484848"/>
<circle cx="36" cy="35" r="31" fill="#6FBFF6" fill-opacity="0.3"/>
<rect width="11" height="7.5" fill="black" fill-opacity="0" transform="translate(78 52)"/>
<rect width="11" height="7.5" fill="black" fill-opacity="0" transform="translate(78 52)"/>
<path fill-rule="evenodd" clip-rule="evenodd" d="M87.6113 52.2438C87.2666 51.9187 86.6748 51.9187 86.3301 52.2438L82.2334 56.085L80.4629 54.4032C80.1182 54.0782 79.5264 54.0782 79.1807 54.4032L78 55.75L81.5967 59.2563C81.9414 59.5813 82.5332 59.5813 82.8779 59.2563L83.5928 58.5828C83.6182 58.5592 83.6416 58.5343 83.6631 58.5085L89 53.579L87.6113 52.2438Z" fill="#32BA7C"/>
<path fill-rule="evenodd" clip-rule="evenodd" d="M86.4669 52.3897L82.2325 56.36L80.3257 54.5487C80.3256 54.5487 80.3258 54.5488 80.3257 54.5487C80.0602 54.2987 79.5941 54.2962 79.3243 54.5428L78.2754 55.7392L81.735 59.1118C82.0029 59.3632 82.4734 59.3628 82.7407 59.1107L83.4567 58.4362C83.4756 58.4187 83.4931 58.4001 83.5092 58.3807L83.5177 58.3705L88.7084 53.5761L87.4741 52.3893C87.4739 52.3891 87.4743 52.3895 87.4741 52.3893C87.2063 52.1375 86.7343 52.1375 86.4669 52.3897ZM87.6113 52.2438C87.2666 51.9187 86.6748 51.9187 86.3301 52.2438L82.2334 56.085L80.4629 54.4032C80.1182 54.0782 79.5264 54.0782 79.1807 54.4032L78 55.75L81.5967 59.2563C81.9414 59.5813 82.5332 59.5813 82.8779 59.2563L83.5928 58.5828C83.6182 58.5592 83.6416 58.5343 83.6631 58.5085L89 53.579L87.6113 52.2438Z" fill="white"/>
<path d="M93.66 57.75C93.82 57.96 93.9933 58.1067 94.18 58.19C94.3667 58.2733 94.57 58.315 94.79 58.315C95.2433 58.315 95.5917 58.1533 95.835 57.83C96.0817 57.5067 96.205 57.0183 96.205 56.365C96.205 55.7617 96.0967 55.32 95.88 55.04C95.6633 54.7567 95.3567 54.615 94.96 54.615C94.68 54.615 94.4367 54.6783 94.23 54.805C94.0267 54.9317 93.8367 55.1117 93.66 55.345V57.75ZM93.66 54.62C93.87 54.3867 94.1083 54.1983 94.375 54.055C94.6417 53.9117 94.945 53.84 95.285 53.84C95.5817 53.84 95.8483 53.8983 96.085 54.015C96.325 54.1283 96.5283 54.2933 96.695 54.51C96.8617 54.7233 96.99 54.9833 97.08 55.29C97.17 55.5967 97.215 55.9433 97.215 56.33C97.215 56.74 97.1633 57.1133 97.06 57.45C96.96 57.7867 96.815 58.075 96.625 58.315C96.4383 58.555 96.21 58.7417 95.94 58.875C95.67 59.005 95.3667 59.07 95.03 59.07C94.8667 59.07 94.7167 59.0533 94.58 59.02C94.4433 58.99 94.3167 58.945 94.2 58.885C94.0867 58.825 93.9817 58.7517 93.885 58.665C93.7883 58.5783 93.6967 58.48 93.61 58.37L93.565 58.795C93.5383 58.9317 93.455 59 93.315 59H92.685V51.62H93.66V54.62ZM102.604 53.92L99.7835 60.475C99.7535 60.5483 99.7135 60.605 99.6635 60.645C99.6135 60.685 99.5402 60.705 99.4435 60.705H98.7185L99.6485 58.68L97.5635 53.92H98.4135C98.4968 53.92 98.5618 53.94 98.6085 53.98C98.6552 54.02 98.6885 54.065 98.7085 54.115L99.9985 57.165C100.025 57.2417 100.05 57.32 100.074 57.4C100.1 57.4767 100.122 57.5533 100.139 57.63C100.162 57.55 100.187 57.4717 100.214 57.395C100.24 57.315 100.269 57.2367 100.299 57.16L101.544 54.115C101.567 54.0583 101.604 54.0117 101.654 53.975C101.704 53.9383 101.76 53.92 101.824 53.92H102.604Z" fill="#898989"/>
<path d="M108.282 59V53.14H106.062V52H111.742V53.14H109.522V59H108.282ZM112.184 59V53.72H113.394V54.91C113.767 54.01 114.39 53.58 115.264 53.62V54.9H115.194C114.647 54.9 114.21 55.08 113.884 55.44C113.557 55.7933 113.394 56.31 113.394 56.99V59H112.184ZM118.135 59.11C117.548 59.11 117.088 58.9267 116.755 58.56C116.421 58.1933 116.255 57.7 116.255 57.08V53.72H117.465V56.72C117.465 57.1333 117.561 57.4533 117.755 57.68C117.955 57.9 118.235 58.01 118.595 58.01C118.948 58.01 119.235 57.8933 119.455 57.66C119.675 57.4267 119.785 57.1067 119.785 56.7V53.72H120.995V59H119.785V58.18C119.365 58.8 118.815 59.11 118.135 59.11ZM124.326 59.1C123.499 59.1 122.753 58.8367 122.086 58.31L122.626 57.49C123.199 57.9233 123.776 58.14 124.356 58.14C124.616 58.14 124.816 58.09 124.956 57.99C125.103 57.8833 125.176 57.7367 125.176 57.55C125.176 57.4567 125.149 57.3767 125.096 57.31C125.049 57.2367 124.963 57.17 124.836 57.11C124.709 57.05 124.603 57.0067 124.516 56.98C124.429 56.9533 124.286 56.91 124.086 56.85L123.996 56.82C123.809 56.7667 123.649 56.7167 123.516 56.67C123.389 56.6167 123.246 56.5467 123.086 56.46C122.926 56.3733 122.796 56.28 122.696 56.18C122.596 56.0733 122.513 55.94 122.446 55.78C122.379 55.62 122.346 55.44 122.346 55.24C122.346 54.7533 122.523 54.3633 122.876 54.07C123.236 53.7767 123.686 53.63 124.226 53.63C124.913 53.63 125.559 53.83 126.166 54.23L125.686 55.09C125.139 54.7567 124.643 54.59 124.196 54.59C123.963 54.59 123.779 54.64 123.646 54.74C123.519 54.84 123.456 54.9733 123.456 55.14C123.456 55.2533 123.513 55.3567 123.626 55.45C123.746 55.5433 123.863 55.6133 123.976 55.66C124.096 55.7 124.286 55.7633 124.546 55.85C124.559 55.8567 124.576 55.8633 124.596 55.87C124.616 55.8767 124.633 55.88 124.646 55.88C124.879 55.9533 125.076 56.0267 125.236 56.1C125.396 56.1667 125.563 56.26 125.736 56.38C125.916 56.5 126.053 56.65 126.146 56.83C126.239 57.0033 126.286 57.2067 126.286 57.44C126.286 57.9733 126.103 58.3833 125.736 58.67C125.369 58.9567 124.899 59.1 124.326 59.1ZM129.188 59.09C128.175 59.09 127.668 58.5733 127.668 57.54V54.76H126.998V53.72H127.668V52.27H128.878V53.72H130.298V54.76H128.878V57.35C128.878 57.79 129.095 58.01 129.528 58.01C129.788 58.01 130.038 57.95 130.278 57.83V58.82C129.958 59 129.595 59.09 129.188 59.09ZM134.058 59L137.138 51.95H138.278L141.358 59H140.058L139.348 57.31H136.038L135.318 59H134.058ZM136.488 56.22H138.898L137.688 53.42L136.488 56.22ZM144.604 59.12C143.824 59.12 143.174 58.8533 142.654 58.32C142.134 57.7867 141.874 57.1367 141.874 56.37C141.874 55.61 142.134 54.96 142.654 54.42C143.181 53.88 143.834 53.61 144.614 53.61C145.468 53.61 146.171 53.9133 146.724 54.52L145.974 55.33C145.554 54.89 145.098 54.67 144.604 54.67C144.171 54.67 143.808 54.8367 143.514 55.17C143.228 55.4967 143.084 55.8967 143.084 56.37C143.084 56.85 143.231 57.2533 143.524 57.58C143.824 57.9067 144.204 58.07 144.664 58.07C145.151 58.07 145.608 57.85 146.034 57.41L146.764 58.13C146.478 58.45 146.164 58.6967 145.824 58.87C145.491 59.0367 145.084 59.12 144.604 59.12ZM149.647 59.09C148.634 59.09 148.127 58.5733 148.127 57.54V54.76H147.457V53.72H148.127V52.27H149.337V53.72H150.757V54.76H149.337V57.35C149.337 57.79 149.554 58.01 149.987 58.01C150.247 58.01 150.497 57.95 150.737 57.83V58.82C150.417 59 150.054 59.09 149.647 59.09ZM151.999 52.91V51.76H153.299V52.91H151.999ZM152.049 59V53.72H153.259V59H152.049ZM156.51 59.04L154.34 53.72H155.64L157.06 57.6L158.49 53.72H159.76L157.6 59.04H156.51ZM160.807 52.91V51.76H162.107V52.91H160.807ZM160.857 59V53.72H162.067V59H160.857ZM165.419 59.09C164.405 59.09 163.899 58.5733 163.899 57.54V54.76H163.229V53.72H163.899V52.27H165.109V53.72H166.529V54.76H165.109V57.35C165.109 57.79 165.325 58.01 165.759 58.01C166.019 58.01 166.269 57.95 166.509 57.83V58.82C166.189 59 165.825 59.09 165.419 59.09ZM168.83 60.63C168.39 60.63 167.974 60.5233 167.58 60.31L167.99 59.41C168.237 59.5433 168.474 59.61 168.7 59.61C168.874 59.61 169.017 59.5633 169.13 59.47C169.244 59.3833 169.35 59.2267 169.45 59L167.25 53.72H168.54L170.04 57.64L171.41 53.72H172.67L170.57 59.15C170.357 59.69 170.12 60.07 169.86 60.29C169.6 60.5167 169.257 60.63 168.83 60.63Z" fill="#32BA7C"/>
<rect width="39.8747" height="39.8747" fill="black" fill-opacity="0" transform="translate(16 15)"/>
<rect width="39.8747" height="39.8747" fill="black" fill-opacity="0" transform="translate(16 15)"/>
<path d="M35.9374 15C46.9482 15 55.8747 23.9266 55.8747 34.9374C55.8747 45.9465 46.9482 54.8747 35.9374 54.8747C24.9266 54.8747 16 45.9463 16 34.9374C15.9998 23.9263 24.9263 15 35.9374 15Z" fill="#26A6D1"/>
<path d="M35.9374 24.0625C41.9423 24.0625 46.8124 28.9309 46.8124 34.9374C46.8124 40.944 41.9421 45.8124 35.9374 45.8124C29.9328 45.8124 25.0625 40.944 25.0625 34.9374C25.0625 28.9309 29.9326 24.0625 35.9374 24.0625Z" fill="#484848"/>
<path fill-rule="evenodd" clip-rule="evenodd" d="M48.625 28.5938C48.625 26.0906 46.5967 24.0625 44.0938 24.0625C41.708 24.0625 39.7539 25.905 39.5762 28.2451C39.5674 28.3601 39.5625 28.4763 39.5625 28.5938C39.5625 31.0967 41.5908 33.125 44.0938 33.125C46.5967 33.125 48.625 31.0967 48.625 28.5938Z" fill="white"/>
</svg>
