<?xml version="1.0" encoding="utf-8"?>
<!-- Generator: Adobe Illustrator 22.1.0, SVG Export Plug-In . SVG Version: 6.00 Build 0)  -->
<svg version="1.1" id="Слой_1" xmlns="http://www.w3.org/2000/svg" xmlns:xlink="http://www.w3.org/1999/xlink" x="0px" y="0px"
	 viewBox="0 0 558 341" style="enable-background:new 0 0 558 341;" xml:space="preserve">
<style type="text/css">
	.st0{fill:#FFFFFF;}
	.st1{fill:#F6F9FD;}
	.st2{fill:url(#SVGID_1_);}
	.st3{opacity:0.58;fill:#266ADD;enable-background:new    ;}
	.st4{fill:#FFFFFF;fill-opacity:0.7;}
	.st5{fill:#FFFFFF;fill-opacity:0.8;}
	.st6{fill:#1A56B3;}
	.st7{fill:#9CCBF8;}
	.st8{fill:#FFFFFF;fill-opacity:0.3;}
	.st9{fill:#FFFFFF;fill-opacity:0.4;}
	.st10{fill:#FFFFFF;fill-opacity:0.5;}
	.st11{fill:#41D18F;}
</style>
<g>
	<path class="st0" d="M0,20.2C0,9,9,0,20.2,0h517.6C549,0,558,9,558,20.2v300.6c0,11.1-9,20.2-20.2,20.2H20.2C9,341,0,332,0,320.8
		V20.2z"/>
	<path class="st1" d="M98.4,0h439.4C549,0,558,9,558,20.2v5.4H98.4V0z"/>
	
		<linearGradient id="SVGID_1_" gradientUnits="userSpaceOnUse" x1="-42.9701" y1="25.2798" x2="-42.3257" y2="24.7759" gradientTransform="matrix(6.223472e-15 485.519 -101.637 2.972947e-14 2594.1467 20874.8652)">
		<stop  offset="0" style="stop-color:#3C7AE9"/>
		<stop  offset="1" style="stop-color:#2AA5F9"/>
	</linearGradient>
	<path class="st2" d="M0,20.2C0,9,9,0,20.2,0h78.2v341H20.2C9,341,0,332,0,320.8V20.2z"/>
	<path class="st3" d="M0,25.6h98.4v27.5H0V25.6z"/>
	<path class="st3" d="M0,313.5h98.4V341H20.2C9,341,0,332,0,320.8V313.5z"/>
	<path class="st4" d="M50,324.7c0-1.5,1.2-2.7,2.7-2.7h22.5c1.5,0,2.7,1.2,2.7,2.7s-1.2,2.7-2.7,2.7H52.7
		C51.2,327.4,50,326.2,50,324.7z"/>
	<path class="st5" d="M88.3,324.7c0,1.5-1.2,2.7-2.7,2.7s-2.7-1.2-2.7-2.7s1.2-2.7,2.7-2.7S88.3,323.2,88.3,324.7z"/>
	<path class="st6" d="M9.7,35.1c0-2.6,2.1-4.7,4.6-4.7s4.6,2.1,4.6,4.7c0,2.6-2.1,4.6-4.6,4.6S9.7,37.6,9.7,35.1z"/>
	<path class="st6" d="M62.4,42.7c0-1.7,1.4-3,3-3h19.9c1.7,0,3,1.4,3,3v1.7c0,1.7-1.4,3-3,3H65.4c-1.7,0-3-1.4-3-3V42.7z"/>
	<path class="st6" d="M9.7,134c0-1.7,1.4-3,3-3h72.6c1.7,0,3,1.4,3,3v1.7c0,1.7-1.4,3-3,3H12.7c-1.7,0-3-1.4-3-3V134z"/>
	<path class="st7" d="M113.5,12.2c0-2.7,2.2-4.8,4.8-4.8h59.1c2.7,0,4.8,2.2,4.8,4.8S180,17,177.4,17h-59.1
		C115.7,17,113.5,14.9,113.5,12.2z"/>
	<path class="st7" d="M188.6,12.2c0-2.7,2.2-4.8,4.8-4.8h41.1c2.7,0,4.8,2.2,4.8,4.8s-2.2,4.8-4.8,4.8h-41.1
		C190.8,17,188.6,14.9,188.6,12.2z"/>
	<path class="st0" d="M24,15.1v-4.3h-1.7V9.7h4.5v1.1h-1.7v4.3H24z"/>
	<path class="st0" d="M27.2,15.1V11h1.2v0.8c0.3-0.6,0.7-0.9,1.3-0.9v1.2h-0.1c-0.4,0-0.7,0.1-0.9,0.4c-0.2,0.2-0.3,0.6-0.3,1.1v1.5
		H27.2z"/>
	<path class="st0" d="M31.8,15.2c-0.4,0-0.8-0.1-1-0.4c-0.2-0.3-0.4-0.7-0.4-1.1V11h1.2v2.3c0,0.3,0.1,0.5,0.2,0.6s0.3,0.2,0.5,0.2
		s0.4-0.1,0.5-0.2c0.1-0.1,0.2-0.4,0.2-0.6V11h1.2v4.2H33v-0.6C32.7,15,32.3,15.2,31.8,15.2z"/>
	<path class="st0" d="M36.7,15.2c-0.7,0-1.3-0.2-1.8-0.6l0.5-0.8c0.5,0.3,0.9,0.5,1.3,0.5c0.3,0,0.5-0.1,0.5-0.3v-0.1c0,0,0,0,0-0.1
		c0,0,0,0-0.1-0.1c0,0-0.1,0-0.1-0.1h-0.1h-0.1c-0.1,0-0.1,0-0.1,0h-0.1c-0.1,0-0.1,0-0.1,0c-0.2-0.1-0.3-0.1-0.4-0.2
		c-0.1-0.1-0.2-0.1-0.4-0.2c-0.1-0.1-0.2-0.2-0.3-0.4c-0.1-0.1-0.1-0.3-0.1-0.5c0-0.4,0.1-0.7,0.4-1c0.3-0.2,0.7-0.4,1.1-0.4
		c0.6,0,1.1,0.2,1.6,0.5L38,12.2c-0.4-0.3-0.8-0.4-1.1-0.4s-0.4,0.1-0.4,0.3c0,0.1,0.2,0.3,0.7,0.4c0.1,0,0.1,0,0.1,0
		c0.1,0,0.3,0.1,0.4,0.1c0.1,0,0.2,0.1,0.3,0.2c0.1,0.1,0.2,0.1,0.3,0.2c0.1,0.1,0.1,0.2,0.2,0.3c0.1,0.1,0.1,0.3,0.1,0.4
		c0,0.4-0.1,0.8-0.4,1C37.6,15.1,37.2,15.2,36.7,15.2z"/>
	<path class="st0" d="M40.5,15.2c-0.4,0-0.7-0.1-0.9-0.3s-0.3-0.5-0.3-1v-2h-0.5v-1h0.5v-1h1.2V11h1v1h-1v1.8c0,0.3,0.1,0.4,0.4,0.4
		c0.2,0,0.4,0,0.6-0.1V15C41.1,15.1,40.8,15.2,40.5,15.2z"/>
	<path class="st0" d="M44.3,15.1l2.3-5.5h1.1l2.3,5.5h-1.2l-0.5-1.2H46l-0.5,1.2H44.3z M46.4,12.8h1.4L47.1,11L46.4,12.8z"/>
	<path class="st0" d="M52.5,15.2c-0.6,0-1.1-0.2-1.5-0.6c-0.4-0.4-0.6-0.9-0.6-1.5s0.2-1.1,0.6-1.5c0.4-0.4,0.9-0.6,1.6-0.6
		c0.7,0,1.2,0.2,1.7,0.7l-0.7,0.7c-0.3-0.3-0.6-0.4-1-0.4c-0.3,0-0.5,0.1-0.7,0.3s-0.3,0.5-0.3,0.8s0.1,0.6,0.3,0.8s0.5,0.3,0.8,0.3
		s0.6-0.1,1-0.4l0.7,0.7c-0.2,0.2-0.5,0.4-0.7,0.6C53.2,15.1,52.9,15.2,52.5,15.2z"/>
	<path class="st0" d="M56.4,15.2c-0.4,0-0.7-0.1-0.9-0.3s-0.3-0.5-0.3-1v-2h-0.5v-1h0.5v-1h1.2V11h1v1h-1v1.8c0,0.3,0.1,0.4,0.4,0.4
		c0.2,0,0.4,0,0.6-0.1V15C57,15.1,56.7,15.2,56.4,15.2z"/>
	<path class="st0" d="M58.2,10.5v-1h1.2v1H58.2z M58.2,15.1V11h1.2v4.2L58.2,15.1L58.2,15.1z"/>
	<path class="st0" d="M61.8,15.1L60.1,11h1.2l0.9,2.8l0.9-2.8h1.2l-1.6,4.2L61.8,15.1L61.8,15.1z"/>
	<path class="st0" d="M65.2,10.5v-1h1.2v1H65.2z M65.2,15.1V11h1.2v4.2L65.2,15.1L65.2,15.1z"/>
	<path class="st0" d="M68.9,15.2c-0.4,0-0.7-0.1-0.9-0.3c-0.2-0.2-0.3-0.5-0.3-1v-2h-0.5v-1h0.5v-1h1.2V11h1v1h-1v1.8
		c0,0.3,0.1,0.4,0.4,0.4c0.2,0,0.4,0,0.6-0.1V15C69.6,15.1,69.2,15.2,68.9,15.2z"/>
	<path class="st0" d="M71.7,16.4c-0.4,0-0.7-0.1-1-0.3l0.4-0.9c0.2,0.1,0.3,0.2,0.5,0.2s0.3-0.1,0.4-0.3L70.3,11h1.2l0.9,2.8
		l0.9-2.8h1.2l-1.6,4.3c-0.2,0.4-0.3,0.7-0.5,0.9C72.3,16.3,72,16.4,71.7,16.4z"/>
	<path class="st8" d="M17,9.9c-0.2-0.2-0.6-0.2-0.8,0l-2.7,2.6l-1.1-1.1c-0.2-0.2-0.6-0.2-0.8,0l-0.8,0.9l2.3,2.4
		c0.2,0.2,0.6,0.2,0.8,0l0.5-0.5c0,0,0,0,0-0.1l3.5-3.3L17,9.9z"/>
	<path class="st8" d="M15.9,9.9c-0.2-0.2-0.6-0.2-0.8,0l-2.7,2.6l-1.2-1.1c-0.2-0.2-0.6-0.2-0.8,0l-0.8,0.9l2.3,2.4
		c0.2,0.2,0.6,0.2,0.8,0l0.5-0.5l0,0l3.5-3.3L15.9,9.9z"/>
	<path class="st0" d="M18.1,9.9c-0.2-0.2-0.6-0.2-0.8,0l-2.7,2.6l-1.1-1.1c-0.2-0.2-0.6-0.2-0.8,0l-0.8,0.9l2.3,2.4
		c0.2,0.2,0.6,0.2,0.8,0l0.5-0.5c0,0,0,0,0-0.1l3.5-3.3L18.1,9.9z"/>
	<path class="st9" d="M22.1,34.3c0-1,0.8-1.7,1.7-1.7h43c1,0,1.7,0.8,1.7,1.7S67.8,36,66.8,36h-43C22.9,36,22.1,35.3,22.1,34.3z"/>
	<path class="st9" d="M9.7,64.9c0-1,0.8-1.7,1.7-1.7h26.7c1,0,1.7,0.8,1.7,1.7c0,1-0.8,1.7-1.7,1.7H11.4
		C10.5,66.7,9.7,65.9,9.7,64.9z"/>
	<path class="st9" d="M9.7,101.7c0-1,0.8-1.7,1.7-1.7h26.7c1,0,1.7,0.8,1.7,1.7s-0.8,1.7-1.7,1.7H11.4
		C10.5,103.5,9.7,102.7,9.7,101.7z"/>
	<path class="st9" d="M22.1,75.2c0-1.5,1.2-2.7,2.7-2.7h31.8c1.5,0,2.7,1.2,2.7,2.7s-1.2,2.7-2.7,2.7H24.8
		C23.3,77.9,22.1,76.7,22.1,75.2z"/>
	<path class="st9" d="M22.1,84.9c0-1.5,1.2-2.7,2.7-2.7h55.4c1.5,0,2.7,1.2,2.7,2.7s-1.2,2.7-2.7,2.7H24.8
		C23.3,87.6,22.1,86.4,22.1,84.9z"/>
	<path class="st10" d="M22.5,43.8c0-1.1,0.9-1.9,1.9-1.9H55c1.1,0,1.9,0.9,1.9,1.9c0,1.1-0.9,1.9-1.9,1.9H24.4
		C23.3,45.7,22.5,44.9,22.5,43.8z"/>
	<path class="st11" d="M9.7,113.3c0-2.2,1.8-4,4-4h70.6c2.2,0,4,1.8,4,4v9.4c0,2.2-1.8,4-4,4H13.7c-2.2,0-4-1.8-4-4V113.3z"/>
	<path class="st0" d="M488,277.2l-3.2-3c-0.2-0.2-0.5-0.2-0.7,0s-0.2,0.5,0,0.7l2.8,2.7l-2.8,2.7c-0.2,0.2-0.2,0.5,0,0.7
		s0.5,0.2,0.7,0l3.2-3c0.1-0.1,0.2-0.2,0.2-0.3C488.2,277.4,488.1,277.2,488,277.2z"/>
	<path class="st0" d="M491.8,277.2l-3.2-3c-0.2-0.2-0.5-0.2-0.7,0s-0.2,0.5,0,0.7l2.8,2.7l-2.8,2.7c-0.2,0.2-0.2,0.5,0,0.7
		s0.5,0.2,0.7,0l3.2-3c0.1-0.1,0.2-0.2,0.2-0.3C492,277.4,492,277.2,491.8,277.2z"/>
	<path class="st5" d="M17,75.2c0,1.5-1.2,2.7-2.7,2.7s-2.7-1.2-2.7-2.7s1.2-2.7,2.7-2.7S17,73.7,17,75.2z"/>
	<path class="st5" d="M17,84.9c0,1.5-1.2,2.7-2.7,2.7s-2.7-1.2-2.7-2.7s1.2-2.7,2.7-2.7S17,83.4,17,84.9z"/>
	<path class="st9" d="M9.7,247.8c0-1,0.8-1.7,1.7-1.7h26.7c1,0,1.7,0.8,1.7,1.7c0,1-0.8,1.7-1.7,1.7H11.4
		C10.5,249.5,9.7,248.8,9.7,247.8z"/>
	<path class="st9" d="M22.1,258.1c0-1.5,1.2-2.7,2.7-2.7h31.8c1.5,0,2.7,1.2,2.7,2.7s-1.2,2.7-2.7,2.7H24.8
		C23.3,260.8,22.1,259.6,22.1,258.1z"/>
	<path class="st9" d="M22.1,267.8c0-1.5,1.2-2.7,2.7-2.7h55.4c1.5,0,2.7,1.2,2.7,2.7s-1.2,2.7-2.7,2.7H24.8
		C23.3,270.5,22.1,269.3,22.1,267.8z"/>
	<path class="st5" d="M17,258.1c0,1.5-1.2,2.7-2.7,2.7s-2.7-1.2-2.7-2.7s1.2-2.7,2.7-2.7S17,256.6,17,258.1z"/>
	<path class="st5" d="M17,267.8c0,1.5-1.2,2.7-2.7,2.7s-2.7-1.2-2.7-2.7s1.2-2.7,2.7-2.7S17,266.3,17,267.8z"/>
	<path class="st9" d="M9.7,188.5c0-1,0.8-1.7,1.7-1.7h26.7c1,0,1.7,0.8,1.7,1.7c0,1-0.8,1.7-1.7,1.7H11.4
		C10.5,190.3,9.7,189.5,9.7,188.5z"/>
	<path class="st9" d="M22.1,198.8c0-1.5,1.2-2.7,2.7-2.7h31.8c1.5,0,2.7,1.2,2.7,2.7s-1.2,2.7-2.7,2.7H24.8
		C23.3,201.5,22.1,200.3,22.1,198.8z"/>
	<path class="st9" d="M22.1,208.5c0-1.5,1.2-2.7,2.7-2.7h31.8c1.5,0,2.7,1.2,2.7,2.7s-1.2,2.7-2.7,2.7H24.8
		C23.3,211.2,22.1,210,22.1,208.5z"/>
	<path class="st5" d="M17,198.8c0,1.5-1.2,2.7-2.7,2.7s-2.7-1.2-2.7-2.7s1.2-2.7,2.7-2.7S17,197.3,17,198.8z"/>
	<path class="st5" d="M17,208.5c0,1.5-1.2,2.7-2.7,2.7s-2.7-1.2-2.7-2.7s1.2-2.7,2.7-2.7S17,207,17,208.5z"/>
	<path class="st9" d="M22.1,218.2c0-1.5,1.2-2.7,2.7-2.7h31.8c1.5,0,2.7,1.2,2.7,2.7s-1.2,2.7-2.7,2.7H24.8
		C23.3,220.9,22.1,219.7,22.1,218.2z"/>
	<path class="st9" d="M22.1,227.9c0-1.5,1.2-2.7,2.7-2.7h31.8c1.5,0,2.7,1.2,2.7,2.7s-1.2,2.7-2.7,2.7H24.8
		C23.3,230.6,22.1,229.3,22.1,227.9z"/>
	<path class="st5" d="M17,218.2c0,1.5-1.2,2.7-2.7,2.7s-2.7-1.2-2.7-2.7s1.2-2.7,2.7-2.7S17,216.7,17,218.2z"/>
	<path class="st5" d="M17,227.9c0,1.5-1.2,2.7-2.7,2.7s-2.7-1.2-2.7-2.7s1.2-2.7,2.7-2.7S17,226.4,17,227.9z"/>
	<path class="st9" d="M22.1,149.2c0-1.5,1.2-2.7,2.7-2.7h31.8c1.5,0,2.7,1.2,2.7,2.7s-1.2,2.7-2.7,2.7H24.8
		C23.3,151.9,22.1,150.7,22.1,149.2z"/>
	<path class="st9" d="M22.1,158.9c0-1.5,1.2-2.7,2.7-2.7h55.4c1.5,0,2.7,1.2,2.7,2.7s-1.2,2.7-2.7,2.7H24.8
		C23.3,161.6,22.1,160.4,22.1,158.9z"/>
	<path class="st5" d="M11.6,149.2c0-1.5,1.2-2.7,2.7-2.7s2.7,1.2,2.7,2.7s-1.2,2.7-2.7,2.7S11.6,150.7,11.6,149.2z"/>
	<path class="st5" d="M11.6,158.9c0-1.5,1.2-2.7,2.7-2.7s2.7,1.2,2.7,2.7s-1.2,2.7-2.7,2.7S11.6,160.4,11.6,158.9z"/>
	<path class="st9" d="M22.1,168.6c0-1.5,1.2-2.7,2.7-2.7h44.6c1.5,0,2.7,1.2,2.7,2.7s-1.2,2.7-2.7,2.7H24.8
		C23.3,171.3,22.1,170.1,22.1,168.6z"/>
	<path class="st5" d="M11.6,168.6c0-1.5,1.2-2.7,2.7-2.7s2.7,1.2,2.7,2.7s-1.2,2.7-2.7,2.7S11.6,170.1,11.6,168.6z"/>
</g>
<path class="st0" d="M449.9,272c0.1,0,0.1,0,0.2,0h0.1c0,0,0.1,0,0.1,0.1l0.1,0.1l4.7,6c0-0.1,0-0.3,0-0.4s0-0.3,0-0.4V272h1.5v8.9
	h-0.9c-0.1,0-0.2,0-0.3-0.1c-0.1,0-0.2-0.1-0.3-0.2l-4.7-5.9c0,0.1,0,0.3,0,0.4s0,0.2,0,0.4v5.5H449v-9H449.9z"/>
<path class="st0" d="M460.9,274.5c0.4,0,0.8,0.1,1.1,0.2c0.3,0.1,0.6,0.3,0.9,0.6c0.2,0.2,0.4,0.5,0.6,0.9c0.1,0.4,0.2,0.8,0.2,1.2
	c0,0.1,0,0.2,0,0.3c0,0.1,0,0.1-0.1,0.2l-0.1,0.1c0,0-0.1,0-0.2,0h-3.9c0,0.6,0.2,1.1,0.5,1.4s0.7,0.5,1.2,0.5c0.2,0,0.5,0,0.6-0.1
	c0.2-0.1,0.3-0.1,0.5-0.2c0.1-0.1,0.3-0.1,0.4-0.2s0.2-0.1,0.3-0.1c0.1,0,0.1,0,0.2,0l0.1,0.1l0.4,0.6c-0.2,0.2-0.4,0.4-0.6,0.5
	s-0.4,0.2-0.7,0.3c-0.2,0.1-0.5,0.1-0.7,0.2c-0.2,0-0.5,0-0.7,0c-0.4,0-0.9-0.1-1.2-0.2c-0.4-0.1-0.7-0.4-1-0.6
	c-0.3-0.3-0.5-0.6-0.7-1.1c-0.2-0.4-0.2-0.9-0.2-1.5c0-0.4,0.1-0.8,0.2-1.2c0.1-0.4,0.3-0.7,0.6-1c0.3-0.3,0.6-0.5,1-0.7
	C460,274.6,460.4,274.5,460.9,274.5z M461,275.6c-0.4,0-0.8,0.1-1,0.4c-0.3,0.3-0.4,0.6-0.5,1.1h2.9c0-0.2,0-0.4-0.1-0.6
	s-0.1-0.3-0.2-0.5c-0.1-0.1-0.3-0.2-0.4-0.3C461.4,275.6,461.2,275.6,461,275.6z"/>
<path class="st0" d="M466,277.6l-2.1-3.1h1.5c0.1,0,0.2,0,0.2,0c0.1,0,0.1,0.1,0.1,0.1l1.3,2.1c0-0.1,0-0.1,0.1-0.2
	c0-0.1,0.1-0.1,0.1-0.2l1.1-1.7c0-0.1,0.1-0.1,0.2-0.2c0.1,0,0.1-0.1,0.2-0.1h1.4l-2.1,3l2.2,3.3h-1.5c-0.1,0-0.2,0-0.3-0.1
	c-0.1-0.1-0.1-0.1-0.2-0.2l-1.4-2.2c0,0.1-0.1,0.3-0.2,0.4l-1.2,1.8c0,0.1-0.1,0.1-0.2,0.2s-0.1,0.1-0.2,0.1h-1.4L466,277.6z"/>
<path class="st0" d="M473.3,281c-0.5,0-1-0.2-1.3-0.5s-0.4-0.7-0.4-1.3v-3.5H471c-0.1,0-0.2,0-0.2-0.1c-0.1-0.1-0.1-0.1-0.1-0.2
	v-0.6l1-0.2l0.3-1.7c0-0.1,0.1-0.1,0.1-0.2c0.1,0,0.1-0.1,0.2-0.1h0.8v2h1.7v1.1h-1.7v3.4c0,0.2,0,0.4,0.1,0.5s0.2,0.2,0.4,0.2
	c0.1,0,0.2,0,0.2,0c0.1,0,0.1,0,0.2-0.1c0,0,0.1,0,0.1-0.1h0.1h0.1l0.1,0.1l0.5,0.7c-0.2,0.2-0.5,0.3-0.8,0.4
	C473.9,281,473.6,281,473.3,281z"/>
</svg>
