<svg width="320" height="70" viewBox="0 0 320 70" fill="none" xmlns="http://www.w3.org/2000/svg">
<rect width="320" height="70" fill="black" fill-opacity="0"/>
<rect width="320" height="70" fill="black" fill-opacity="0"/>
<rect width="320" height="70" rx="35" fill="white"/>
<rect x="77" y="9" width="76" height="19" rx="3" fill="#D4ECFC" fill-opacity="0.3"/>
<path d="M78.756 15.699C78.826 15.2137 78.9613 14.789 79.162 14.425C79.3627 14.0563 79.6123 13.7507 79.911 13.508C80.2143 13.2607 80.5597 13.0763 80.947 12.955C81.339 12.829 81.759 12.766 82.207 12.766C82.6737 12.766 83.0937 12.8337 83.467 12.969C83.845 13.0997 84.167 13.284 84.433 13.522C84.699 13.7553 84.902 14.0307 85.042 14.348C85.1867 14.6653 85.259 15.0083 85.259 15.377C85.259 15.699 85.2217 15.9837 85.147 16.231C85.077 16.4737 84.9743 16.686 84.839 16.868C84.7037 17.05 84.5357 17.204 84.335 17.33C84.1343 17.456 83.908 17.561 83.656 17.645C84.2627 17.8363 84.7153 18.128 85.014 18.52C85.3127 18.912 85.462 19.4043 85.462 19.997C85.462 20.501 85.3687 20.9467 85.182 21.334C84.9953 21.7213 84.7433 22.048 84.426 22.314C84.1087 22.5753 83.74 22.7737 83.32 22.909C82.9047 23.0443 82.4637 23.112 81.997 23.112C81.4883 23.112 81.045 23.0537 80.667 22.937C80.289 22.8203 79.96 22.6477 79.68 22.419C79.4 22.1903 79.162 21.9103 78.966 21.579C78.77 21.2477 78.602 20.865 78.462 20.431L79.225 20.116C79.4257 20.032 79.6123 20.011 79.785 20.053C79.9623 20.0903 80.0907 20.1837 80.17 20.333C80.254 20.4963 80.345 20.6573 80.443 20.816C80.5457 20.9747 80.667 21.117 80.807 21.243C80.947 21.3643 81.1103 21.4647 81.297 21.544C81.4883 21.6187 81.7147 21.656 81.976 21.656C82.27 21.656 82.5267 21.6093 82.746 21.516C82.9653 21.418 83.1473 21.292 83.292 21.138C83.4413 20.984 83.551 20.8137 83.621 20.627C83.6957 20.4357 83.733 20.2443 83.733 20.053C83.733 19.8103 83.7073 19.591 83.656 19.395C83.6047 19.1943 83.4973 19.024 83.334 18.884C83.1707 18.744 82.935 18.6343 82.627 18.555C82.3237 18.4757 81.9153 18.436 81.402 18.436V17.204C81.8267 17.1993 82.179 17.1597 82.459 17.085C82.739 17.0103 82.9607 16.9077 83.124 16.777C83.292 16.6417 83.4087 16.4807 83.474 16.294C83.5393 16.1073 83.572 15.902 83.572 15.678C83.572 15.202 83.439 14.8403 83.173 14.593C82.907 14.3457 82.5523 14.222 82.109 14.222C81.9037 14.222 81.7147 14.2523 81.542 14.313C81.3693 14.369 81.213 14.4507 81.073 14.558C80.9377 14.6607 80.8233 14.782 80.73 14.922C80.6367 15.062 80.5667 15.216 80.52 15.384C80.4407 15.5987 80.3357 15.741 80.205 15.811C80.079 15.881 79.8993 15.8973 79.666 15.86L78.756 15.699ZM93.3661 21.705V23H87.7661V21.705H89.8171V15.804C89.8171 15.5707 89.8241 15.3303 89.8381 15.083L88.3821 16.301C88.2981 16.3663 88.2141 16.4083 88.1301 16.427C88.0508 16.441 87.9738 16.441 87.8991 16.427C87.8291 16.413 87.7661 16.3897 87.7101 16.357C87.6541 16.3197 87.6121 16.28 87.5841 16.238L87.0381 15.489L90.1251 12.864H91.5461V21.705H93.3661ZM97.0842 16.553C97.3082 16.5063 97.5229 16.4737 97.7282 16.455C97.9335 16.4317 98.1319 16.42 98.3232 16.42C98.8552 16.42 99.3242 16.4993 99.7302 16.658C100.136 16.8167 100.477 17.036 100.752 17.316C101.028 17.596 101.235 17.925 101.375 18.303C101.515 18.6763 101.585 19.08 101.585 19.514C101.585 20.0507 101.49 20.5407 101.298 20.984C101.112 21.4273 100.85 21.8077 100.514 22.125C100.178 22.4377 99.7792 22.6803 99.3172 22.853C98.8599 23.0257 98.3605 23.112 97.8192 23.112C97.5019 23.112 97.2009 23.0793 96.9162 23.014C96.6315 22.9487 96.3632 22.8623 96.1112 22.755C95.8639 22.643 95.6329 22.517 95.4182 22.377C95.2082 22.2323 95.0192 22.0807 94.8512 21.922L95.3832 21.187C95.4952 21.0283 95.6422 20.949 95.8242 20.949C95.9409 20.949 96.0599 20.9863 96.1812 21.061C96.3025 21.1357 96.4402 21.2173 96.5942 21.306C96.7529 21.3947 96.9372 21.4763 97.1472 21.551C97.3619 21.6257 97.6185 21.663 97.9172 21.663C98.2345 21.663 98.5145 21.6117 98.7572 21.509C98.9999 21.4063 99.2005 21.264 99.3592 21.082C99.5225 20.8953 99.6439 20.676 99.7232 20.424C99.8072 20.1673 99.8492 19.8897 99.8492 19.591C99.8492 19.0403 99.6882 18.611 99.3662 18.303C99.0489 17.9903 98.5775 17.834 97.9522 17.834C97.4715 17.834 96.9792 17.9227 96.4752 18.1L95.3972 17.792L96.2372 12.878H101.235V13.613C101.235 13.8603 101.158 14.061 101.004 14.215C100.85 14.369 100.589 14.446 100.22 14.446H97.4412L97.0842 16.553ZM112.755 15.818L109.906 23H108.338L105.489 15.818H106.917C107.047 15.818 107.155 15.8483 107.239 15.909C107.327 15.9697 107.386 16.0467 107.414 16.14L108.8 19.976C108.874 20.2 108.94 20.4193 108.996 20.634C109.052 20.8487 109.101 21.0633 109.143 21.278C109.189 21.0633 109.241 20.8487 109.297 20.634C109.353 20.4193 109.42 20.2 109.5 19.976L110.914 16.14C110.946 16.0467 111.005 15.9697 111.089 15.909C111.173 15.8483 111.273 15.818 111.39 15.818H112.755ZM115.468 15.818V23H113.732V15.818H115.468ZM115.706 13.725C115.706 13.8743 115.676 14.0143 115.615 14.145C115.555 14.2757 115.473 14.39 115.37 14.488C115.272 14.586 115.156 14.6653 115.02 14.726C114.885 14.782 114.74 14.81 114.586 14.81C114.437 14.81 114.295 14.782 114.159 14.726C114.029 14.6653 113.914 14.586 113.816 14.488C113.718 14.39 113.639 14.2757 113.578 14.145C113.522 14.0143 113.494 13.8743 113.494 13.725C113.494 13.571 113.522 13.4263 113.578 13.291C113.639 13.1557 113.718 13.039 113.816 12.941C113.914 12.843 114.029 12.766 114.159 12.71C114.295 12.6493 114.437 12.619 114.586 12.619C114.74 12.619 114.885 12.6493 115.02 12.71C115.156 12.766 115.272 12.843 115.37 12.941C115.473 13.039 115.555 13.1557 115.615 13.291C115.676 13.4263 115.706 13.571 115.706 13.725ZM121.613 17.218C121.566 17.2927 121.517 17.3463 121.466 17.379C121.415 17.407 121.349 17.421 121.27 17.421C121.186 17.421 121.095 17.3977 120.997 17.351C120.904 17.3043 120.794 17.253 120.668 17.197C120.542 17.1363 120.397 17.0827 120.234 17.036C120.075 16.9893 119.886 16.966 119.667 16.966C119.326 16.966 119.058 17.0383 118.862 17.183C118.671 17.3277 118.575 17.5167 118.575 17.75C118.575 17.904 118.624 18.0347 118.722 18.142C118.825 18.2447 118.958 18.3357 119.121 18.415C119.289 18.4943 119.478 18.5667 119.688 18.632C119.898 18.6927 120.11 18.7603 120.325 18.835C120.544 18.9097 120.759 18.996 120.969 19.094C121.179 19.1873 121.366 19.3087 121.529 19.458C121.697 19.6027 121.83 19.7777 121.928 19.983C122.031 20.1883 122.082 20.4357 122.082 20.725C122.082 21.0703 122.019 21.39 121.893 21.684C121.772 21.9733 121.59 22.2253 121.347 22.44C121.104 22.65 120.803 22.8157 120.444 22.937C120.089 23.0537 119.679 23.112 119.212 23.112C118.965 23.112 118.722 23.0887 118.484 23.042C118.251 23 118.024 22.9393 117.805 22.86C117.59 22.7807 117.39 22.6873 117.203 22.58C117.021 22.4727 116.86 22.356 116.72 22.23L117.119 21.572C117.17 21.4927 117.231 21.432 117.301 21.39C117.371 21.348 117.46 21.327 117.567 21.327C117.674 21.327 117.775 21.3573 117.868 21.418C117.966 21.4787 118.078 21.544 118.204 21.614C118.33 21.684 118.477 21.7493 118.645 21.81C118.818 21.8707 119.035 21.901 119.296 21.901C119.501 21.901 119.676 21.8777 119.821 21.831C119.97 21.7797 120.092 21.7143 120.185 21.635C120.283 21.5557 120.353 21.4647 120.395 21.362C120.442 21.2547 120.465 21.145 120.465 21.033C120.465 20.865 120.414 20.7273 120.311 20.62C120.213 20.5127 120.08 20.4193 119.912 20.34C119.749 20.2607 119.56 20.1907 119.345 20.13C119.135 20.0647 118.918 19.9947 118.694 19.92C118.475 19.8453 118.258 19.759 118.043 19.661C117.833 19.5583 117.644 19.43 117.476 19.276C117.313 19.122 117.18 18.933 117.077 18.709C116.979 18.485 116.93 18.2143 116.93 17.897C116.93 17.603 116.988 17.323 117.105 17.057C117.222 16.791 117.392 16.56 117.616 16.364C117.845 16.1633 118.127 16.0047 118.463 15.888C118.804 15.7667 119.196 15.706 119.639 15.706C120.134 15.706 120.584 15.7877 120.99 15.951C121.396 16.1143 121.734 16.329 122.005 16.595L121.613 17.218ZM125.175 15.818V23H123.439V15.818H125.175ZM125.413 13.725C125.413 13.8743 125.383 14.0143 125.322 14.145C125.262 14.2757 125.18 14.39 125.077 14.488C124.979 14.586 124.863 14.6653 124.727 14.726C124.592 14.782 124.447 14.81 124.293 14.81C124.144 14.81 124.002 14.782 123.866 14.726C123.736 14.6653 123.621 14.586 123.523 14.488C123.425 14.39 123.346 14.2757 123.285 14.145C123.229 14.0143 123.201 13.8743 123.201 13.725C123.201 13.571 123.229 13.4263 123.285 13.291C123.346 13.1557 123.425 13.039 123.523 12.941C123.621 12.843 123.736 12.766 123.866 12.71C124.002 12.6493 124.144 12.619 124.293 12.619C124.447 12.619 124.592 12.6493 124.727 12.71C124.863 12.766 124.979 12.843 125.077 12.941C125.18 13.039 125.262 13.1557 125.322 13.291C125.383 13.4263 125.413 13.571 125.413 13.725ZM129.332 23.112C128.707 23.112 128.226 22.937 127.89 22.587C127.559 22.2323 127.393 21.7447 127.393 21.124V17.113H126.658C126.565 17.113 126.485 17.0827 126.42 17.022C126.355 16.9613 126.322 16.8703 126.322 16.749V16.063L127.477 15.874L127.841 13.914C127.864 13.8207 127.909 13.7483 127.974 13.697C128.039 13.6457 128.123 13.62 128.226 13.62H129.122V15.881H131.04V17.113H129.122V21.005C129.122 21.229 129.176 21.404 129.283 21.53C129.395 21.656 129.547 21.719 129.738 21.719C129.845 21.719 129.934 21.7073 130.004 21.684C130.079 21.656 130.142 21.628 130.193 21.6C130.249 21.572 130.298 21.5463 130.34 21.523C130.382 21.495 130.424 21.481 130.466 21.481C130.517 21.481 130.559 21.495 130.592 21.523C130.625 21.5463 130.66 21.5837 130.697 21.635L131.215 22.475C130.963 22.685 130.674 22.8437 130.347 22.951C130.02 23.0583 129.682 23.112 129.332 23.112ZM135.27 15.706C135.802 15.706 136.285 15.7923 136.719 15.965C137.158 16.1377 137.531 16.3827 137.839 16.7C138.152 17.0173 138.392 17.4047 138.56 17.862C138.728 18.3193 138.812 18.8303 138.812 19.395C138.812 19.9643 138.728 20.4777 138.56 20.935C138.392 21.3923 138.152 21.782 137.839 22.104C137.531 22.426 137.158 22.6733 136.719 22.846C136.285 23.0187 135.802 23.105 135.27 23.105C134.734 23.105 134.246 23.0187 133.807 22.846C133.369 22.6733 132.993 22.426 132.68 22.104C132.372 21.782 132.132 21.3923 131.959 20.935C131.791 20.4777 131.707 19.9643 131.707 19.395C131.707 18.8303 131.791 18.3193 131.959 17.862C132.132 17.4047 132.372 17.0173 132.68 16.7C132.993 16.3827 133.369 16.1377 133.807 15.965C134.246 15.7923 134.734 15.706 135.27 15.706ZM135.27 21.775C135.868 21.775 136.309 21.5743 136.593 21.173C136.883 20.7717 137.027 20.1837 137.027 19.409C137.027 18.6343 136.883 18.044 136.593 17.638C136.309 17.232 135.868 17.029 135.27 17.029C134.664 17.029 134.213 17.2343 133.919 17.645C133.63 18.051 133.485 18.639 133.485 19.409C133.485 20.179 133.63 20.767 133.919 21.173C134.213 21.5743 134.664 21.775 135.27 21.775ZM141.762 17.064C141.986 16.6347 142.252 16.2987 142.56 16.056C142.868 15.8087 143.232 15.685 143.652 15.685C143.984 15.685 144.25 15.7573 144.45 15.902L144.338 17.197C144.315 17.281 144.28 17.3417 144.233 17.379C144.191 17.4117 144.133 17.428 144.058 17.428C143.988 17.428 143.883 17.4163 143.743 17.393C143.608 17.3697 143.475 17.358 143.344 17.358C143.153 17.358 142.983 17.386 142.833 17.442C142.684 17.498 142.549 17.5797 142.427 17.687C142.311 17.7897 142.206 17.9157 142.112 18.065C142.024 18.2143 141.94 18.3847 141.86 18.576V23H140.131V15.818H141.146C141.324 15.818 141.447 15.8507 141.517 15.916C141.587 15.9767 141.634 16.0887 141.657 16.252L141.762 17.064ZM149.709 17.218C149.662 17.2927 149.613 17.3463 149.562 17.379C149.51 17.407 149.445 17.421 149.366 17.421C149.282 17.421 149.191 17.3977 149.093 17.351C148.999 17.3043 148.89 17.253 148.764 17.197C148.638 17.1363 148.493 17.0827 148.33 17.036C148.171 16.9893 147.982 16.966 147.763 16.966C147.422 16.966 147.154 17.0383 146.958 17.183C146.766 17.3277 146.671 17.5167 146.671 17.75C146.671 17.904 146.72 18.0347 146.818 18.142C146.92 18.2447 147.053 18.3357 147.217 18.415C147.385 18.4943 147.574 18.5667 147.784 18.632C147.994 18.6927 148.206 18.7603 148.421 18.835C148.64 18.9097 148.855 18.996 149.065 19.094C149.275 19.1873 149.461 19.3087 149.625 19.458C149.793 19.6027 149.926 19.7777 150.024 19.983C150.126 20.1883 150.178 20.4357 150.178 20.725C150.178 21.0703 150.115 21.39 149.989 21.684C149.867 21.9733 149.685 22.2253 149.443 22.44C149.2 22.65 148.899 22.8157 148.54 22.937C148.185 23.0537 147.774 23.112 147.308 23.112C147.06 23.112 146.818 23.0887 146.58 23.042C146.346 23 146.12 22.9393 145.901 22.86C145.686 22.7807 145.485 22.6873 145.299 22.58C145.117 22.4727 144.956 22.356 144.816 22.23L145.215 21.572C145.266 21.4927 145.327 21.432 145.397 21.39C145.467 21.348 145.555 21.327 145.663 21.327C145.77 21.327 145.87 21.3573 145.964 21.418C146.062 21.4787 146.174 21.544 146.3 21.614C146.426 21.684 146.573 21.7493 146.741 21.81C146.913 21.8707 147.13 21.901 147.392 21.901C147.597 21.901 147.772 21.8777 147.917 21.831C148.066 21.7797 148.187 21.7143 148.281 21.635C148.379 21.5557 148.449 21.4647 148.491 21.362C148.537 21.2547 148.561 21.145 148.561 21.033C148.561 20.865 148.509 20.7273 148.407 20.62C148.309 20.5127 148.176 20.4193 148.008 20.34C147.844 20.2607 147.655 20.1907 147.441 20.13C147.231 20.0647 147.014 19.9947 146.79 19.92C146.57 19.8453 146.353 19.759 146.139 19.661C145.929 19.5583 145.74 19.43 145.572 19.276C145.408 19.122 145.275 18.933 145.173 18.709C145.075 18.485 145.026 18.2143 145.026 17.897C145.026 17.603 145.084 17.323 145.201 17.057C145.317 16.791 145.488 16.56 145.712 16.364C145.94 16.1633 146.223 16.0047 146.559 15.888C146.899 15.7667 147.291 15.706 147.735 15.706C148.229 15.706 148.68 15.7877 149.086 15.951C149.492 16.1143 149.83 16.329 150.101 16.595L149.709 17.218Z" fill="#3B75FF"/>
<path d="M159.972 17.218C159.93 17.2693 159.888 17.3113 159.846 17.344C159.809 17.372 159.753 17.386 159.678 17.386C159.604 17.386 159.524 17.358 159.44 17.302C159.361 17.2413 159.258 17.1783 159.132 17.113C159.011 17.043 158.862 16.98 158.684 16.924C158.512 16.8633 158.297 16.833 158.04 16.833C157.704 16.833 157.408 16.8937 157.151 17.015C156.895 17.1363 156.68 17.309 156.507 17.533C156.339 17.757 156.211 18.03 156.122 18.352C156.034 18.674 155.989 19.0357 155.989 19.437C155.989 19.8523 156.036 20.2233 156.129 20.55C156.223 20.872 156.356 21.145 156.528 21.369C156.701 21.5883 156.911 21.7563 157.158 21.873C157.406 21.985 157.681 22.041 157.984 22.041C158.278 22.041 158.521 22.006 158.712 21.936C158.904 21.8613 159.062 21.782 159.188 21.698C159.314 21.614 159.419 21.537 159.503 21.467C159.587 21.3923 159.674 21.355 159.762 21.355C159.874 21.355 159.961 21.397 160.021 21.481L160.413 21.985C160.25 22.1857 160.066 22.356 159.86 22.496C159.66 22.636 159.445 22.7503 159.216 22.839C158.988 22.9277 158.747 22.993 158.495 23.035C158.248 23.077 157.996 23.098 157.739 23.098C157.296 23.098 156.881 23.0163 156.493 22.853C156.111 22.6897 155.777 22.4517 155.492 22.139C155.212 21.8263 154.991 21.4437 154.827 20.991C154.664 20.5337 154.582 20.0157 154.582 19.437C154.582 18.9097 154.655 18.422 154.799 17.974C154.949 17.526 155.166 17.141 155.45 16.819C155.74 16.4923 156.094 16.238 156.514 16.056C156.934 15.8693 157.415 15.776 157.956 15.776C158.465 15.776 158.913 15.8577 159.3 16.021C159.688 16.1843 160.033 16.4153 160.336 16.714L159.972 17.218ZM167.603 15.888V23H166.784C166.597 23 166.476 22.909 166.42 22.727L166.322 22.013C166.168 22.1763 166.007 22.3257 165.839 22.461C165.671 22.5963 165.491 22.713 165.3 22.811C165.108 22.9043 164.905 22.9767 164.691 23.028C164.476 23.084 164.245 23.112 163.998 23.112C163.606 23.112 163.26 23.0467 162.962 22.916C162.668 22.7853 162.42 22.6033 162.22 22.37C162.019 22.132 161.867 21.8473 161.765 21.516C161.662 21.1847 161.611 20.8183 161.611 20.417V15.888H162.983V20.417C162.983 20.9257 163.099 21.3223 163.333 21.607C163.566 21.887 163.923 22.027 164.404 22.027C164.754 22.027 165.08 21.9453 165.384 21.782C165.687 21.614 165.972 21.3853 166.238 21.096V15.888H167.603ZM170.796 17.253C171.024 16.7863 171.3 16.42 171.622 16.154C171.944 15.888 172.331 15.755 172.784 15.755C172.938 15.755 173.082 15.7737 173.218 15.811C173.358 15.8437 173.479 15.895 173.582 15.965L173.491 16.994C173.458 17.12 173.381 17.183 173.26 17.183C173.194 17.183 173.096 17.1713 172.966 17.148C172.835 17.12 172.695 17.106 172.546 17.106C172.326 17.106 172.133 17.1387 171.965 17.204C171.797 17.2647 171.645 17.358 171.51 17.484C171.379 17.6053 171.262 17.757 171.16 17.939C171.057 18.1163 170.961 18.3193 170.873 18.548V23H169.508V15.888H170.292C170.441 15.888 170.541 15.916 170.593 15.972C170.649 16.0233 170.688 16.1167 170.712 16.252L170.796 17.253ZM175.923 17.253C176.151 16.7863 176.427 16.42 176.749 16.154C177.071 15.888 177.458 15.755 177.911 15.755C178.065 15.755 178.209 15.7737 178.345 15.811C178.485 15.8437 178.606 15.895 178.709 15.965L178.618 16.994C178.585 17.12 178.508 17.183 178.387 17.183C178.321 17.183 178.223 17.1713 178.093 17.148C177.962 17.12 177.822 17.106 177.673 17.106C177.453 17.106 177.26 17.1387 177.092 17.204C176.924 17.2647 176.772 17.358 176.637 17.484C176.506 17.6053 176.389 17.757 176.287 17.939C176.184 18.1163 176.088 18.3193 176 18.548V23H174.635V15.888H175.419C175.568 15.888 175.668 15.916 175.72 15.972C175.776 16.0233 175.815 16.1167 175.839 16.252L175.923 17.253ZM184.213 18.653C184.213 18.3823 184.173 18.1327 184.094 17.904C184.019 17.6753 183.907 17.477 183.758 17.309C183.609 17.141 183.427 17.0103 183.212 16.917C182.997 16.8237 182.75 16.777 182.47 16.777C181.896 16.777 181.443 16.9427 181.112 17.274C180.785 17.6053 180.578 18.065 180.489 18.653H184.213ZM185.34 21.985C185.172 22.181 184.978 22.3513 184.759 22.496C184.54 22.636 184.306 22.7503 184.059 22.839C183.812 22.9277 183.555 22.993 183.289 23.035C183.028 23.077 182.769 23.098 182.512 23.098C182.022 23.098 181.567 23.0163 181.147 22.853C180.732 22.685 180.37 22.4423 180.062 22.125C179.759 21.803 179.521 21.4063 179.348 20.935C179.18 20.459 179.096 19.913 179.096 19.297C179.096 18.8023 179.173 18.3427 179.327 17.918C179.481 17.4887 179.7 17.1153 179.985 16.798C180.274 16.4807 180.627 16.231 181.042 16.049C181.457 15.867 181.924 15.776 182.442 15.776C182.876 15.776 183.275 15.8483 183.639 15.993C184.008 16.133 184.325 16.3383 184.591 16.609C184.857 16.8797 185.065 17.2133 185.214 17.61C185.368 18.0067 185.445 18.4593 185.445 18.968C185.445 19.178 185.422 19.3203 185.375 19.395C185.328 19.465 185.242 19.5 185.116 19.5H180.454C180.468 19.9247 180.529 20.2957 180.636 20.613C180.743 20.9257 180.89 21.187 181.077 21.397C181.268 21.607 181.495 21.7633 181.756 21.866C182.017 21.9687 182.309 22.02 182.631 22.02C182.934 22.02 183.196 21.985 183.415 21.915C183.639 21.845 183.83 21.7703 183.989 21.691C184.152 21.607 184.288 21.53 184.395 21.46C184.507 21.39 184.605 21.355 184.689 21.355C184.801 21.355 184.887 21.397 184.948 21.481L185.34 21.985ZM188.193 16.875C188.347 16.7117 188.508 16.5623 188.676 16.427C188.844 16.2917 189.021 16.1773 189.208 16.084C189.399 15.986 189.602 15.9113 189.817 15.86C190.036 15.804 190.27 15.776 190.517 15.776C190.909 15.776 191.252 15.8413 191.546 15.972C191.845 16.1027 192.094 16.287 192.295 16.525C192.496 16.7583 192.647 17.0407 192.75 17.372C192.853 17.7033 192.904 18.0697 192.904 18.471V23H191.532V18.471C191.532 17.9623 191.415 17.568 191.182 17.288C190.949 17.0033 190.592 16.861 190.111 16.861C189.761 16.861 189.432 16.945 189.124 17.113C188.821 17.2763 188.538 17.5003 188.277 17.785V23H186.912V15.888H187.731C187.922 15.888 188.041 15.979 188.088 16.161L188.193 16.875ZM196.876 23.112C196.302 23.112 195.859 22.951 195.546 22.629C195.238 22.307 195.084 21.8473 195.084 21.25V16.994H194.258C194.179 16.994 194.111 16.9707 194.055 16.924C194.004 16.8727 193.978 16.798 193.978 16.7V16.147L195.133 15.986L195.441 13.865C195.46 13.7857 195.495 13.725 195.546 13.683C195.602 13.6363 195.672 13.613 195.756 13.613H196.449V16H198.465V16.994H196.449V21.159C196.449 21.439 196.517 21.649 196.652 21.789C196.792 21.9243 196.97 21.992 197.184 21.992C197.31 21.992 197.418 21.9757 197.506 21.943C197.6 21.9103 197.679 21.8753 197.744 21.838C197.81 21.796 197.866 21.7587 197.912 21.726C197.959 21.6933 198.001 21.677 198.038 21.677C198.085 21.677 198.12 21.6887 198.143 21.712C198.171 21.7307 198.199 21.7633 198.227 21.81L198.633 22.468C198.409 22.6733 198.143 22.832 197.835 22.944C197.527 23.056 197.208 23.112 196.876 23.112ZM201.123 12.668V23H199.751V12.668H201.123ZM209.288 15.888L205.34 25.065C205.298 25.1677 205.242 25.247 205.172 25.303C205.102 25.359 205 25.387 204.864 25.387H203.849L205.151 22.552L202.232 15.888H203.422C203.539 15.888 203.63 15.916 203.695 15.972C203.761 16.028 203.807 16.091 203.835 16.161L205.641 20.431C205.679 20.5383 205.714 20.648 205.746 20.76C205.784 20.8673 205.814 20.9747 205.837 21.082C205.87 20.97 205.905 20.8603 205.942 20.753C205.98 20.641 206.019 20.5313 206.061 20.424L207.804 16.161C207.837 16.0817 207.888 16.0163 207.958 15.965C208.028 15.9137 208.108 15.888 208.196 15.888H209.288ZM219.363 15.888L216.479 23H215.247L212.363 15.888H213.49C213.598 15.888 213.686 15.9137 213.756 15.965C213.826 16.0163 213.873 16.0817 213.896 16.161L215.597 20.529C215.658 20.711 215.709 20.893 215.751 21.075C215.798 21.2523 215.84 21.4297 215.877 21.607C215.915 21.4297 215.957 21.2523 216.003 21.075C216.05 20.8977 216.106 20.7157 216.171 20.529L217.893 16.161C217.921 16.0817 217.97 16.0163 218.04 15.965C218.11 15.9137 218.194 15.888 218.292 15.888H219.363ZM221.877 15.888V23H220.512V15.888H221.877ZM222.136 13.69C222.136 13.816 222.111 13.9373 222.059 14.054C222.008 14.166 221.938 14.2663 221.849 14.355C221.765 14.439 221.665 14.5067 221.548 14.558C221.432 14.6047 221.31 14.628 221.184 14.628C221.058 14.628 220.939 14.6047 220.827 14.558C220.715 14.5067 220.615 14.439 220.526 14.355C220.442 14.2663 220.375 14.166 220.323 14.054C220.277 13.9373 220.253 13.816 220.253 13.69C220.253 13.5593 220.277 13.438 220.323 13.326C220.375 13.2093 220.442 13.109 220.526 13.025C220.615 12.9363 220.715 12.8687 220.827 12.822C220.939 12.7707 221.058 12.745 221.184 12.745C221.31 12.745 221.432 12.7707 221.548 12.822C221.665 12.8687 221.765 12.9363 221.849 13.025C221.938 13.109 222.008 13.2093 222.059 13.326C222.111 13.438 222.136 13.5593 222.136 13.69ZM228.565 18.653C228.565 18.3823 228.525 18.1327 228.446 17.904C228.371 17.6753 228.259 17.477 228.11 17.309C227.96 17.141 227.778 17.0103 227.564 16.917C227.349 16.8237 227.102 16.777 226.822 16.777C226.248 16.777 225.795 16.9427 225.464 17.274C225.137 17.6053 224.929 18.065 224.841 18.653H228.565ZM229.692 21.985C229.524 22.181 229.33 22.3513 229.111 22.496C228.891 22.636 228.658 22.7503 228.411 22.839C228.163 22.9277 227.907 22.993 227.641 23.035C227.379 23.077 227.12 23.098 226.864 23.098C226.374 23.098 225.919 23.0163 225.499 22.853C225.083 22.685 224.722 22.4423 224.414 22.125C224.11 21.803 223.872 21.4063 223.7 20.935C223.532 20.459 223.448 19.913 223.448 19.297C223.448 18.8023 223.525 18.3427 223.679 17.918C223.833 17.4887 224.052 17.1153 224.337 16.798C224.626 16.4807 224.978 16.231 225.394 16.049C225.809 15.867 226.276 15.776 226.794 15.776C227.228 15.776 227.627 15.8483 227.991 15.993C228.359 16.133 228.677 16.3383 228.943 16.609C229.209 16.8797 229.416 17.2133 229.566 17.61C229.72 18.0067 229.797 18.4593 229.797 18.968C229.797 19.178 229.773 19.3203 229.727 19.395C229.68 19.465 229.594 19.5 229.468 19.5H224.806C224.82 19.9247 224.88 20.2957 224.988 20.613C225.095 20.9257 225.242 21.187 225.429 21.397C225.62 21.607 225.846 21.7633 226.108 21.866C226.369 21.9687 226.661 22.02 226.983 22.02C227.286 22.02 227.547 21.985 227.767 21.915C227.991 21.845 228.182 21.7703 228.341 21.691C228.504 21.607 228.639 21.53 228.747 21.46C228.859 21.39 228.957 21.355 229.041 21.355C229.153 21.355 229.239 21.397 229.3 21.481L229.692 21.985ZM241.073 15.888L238.784 23H237.692C237.561 23 237.472 22.9137 237.426 22.741L235.928 18.107C235.89 17.9903 235.858 17.876 235.83 17.764C235.802 17.6473 235.776 17.5307 235.753 17.414C235.711 17.6567 235.652 17.8923 235.578 18.121L234.059 22.741C234.012 22.9137 233.912 23 233.758 23H232.722L230.426 15.888H231.504C231.611 15.888 231.7 15.9137 231.77 15.965C231.844 16.0163 231.893 16.0817 231.917 16.161L233.198 20.529C233.24 20.7063 233.277 20.879 233.31 21.047C233.342 21.215 233.373 21.383 233.401 21.551C233.443 21.383 233.487 21.215 233.534 21.047C233.585 20.879 233.636 20.7063 233.688 20.529L235.109 16.133C235.132 16.0537 235.176 15.9907 235.242 15.944C235.307 15.8927 235.386 15.867 235.48 15.867H236.075C236.177 15.867 236.261 15.8927 236.327 15.944C236.397 15.9907 236.443 16.0537 236.467 16.133L237.853 20.529C237.904 20.7063 237.953 20.8813 238 21.054C238.046 21.222 238.088 21.3923 238.126 21.565C238.154 21.397 238.186 21.229 238.224 21.061C238.261 20.8883 238.303 20.711 238.35 20.529L239.652 16.161C239.675 16.0817 239.722 16.0163 239.792 15.965C239.866 15.9137 239.95 15.888 240.044 15.888H241.073ZM243.657 15.888V23H242.292V15.888H243.657ZM243.916 13.69C243.916 13.816 243.89 13.9373 243.839 14.054C243.787 14.166 243.717 14.2663 243.629 14.355C243.545 14.439 243.444 14.5067 243.328 14.558C243.211 14.6047 243.09 14.628 242.964 14.628C242.838 14.628 242.719 14.6047 242.607 14.558C242.495 14.5067 242.394 14.439 242.306 14.355C242.222 14.2663 242.154 14.166 242.103 14.054C242.056 13.9373 242.033 13.816 242.033 13.69C242.033 13.5593 242.056 13.438 242.103 13.326C242.154 13.2093 242.222 13.109 242.306 13.025C242.394 12.9363 242.495 12.8687 242.607 12.822C242.719 12.7707 242.838 12.745 242.964 12.745C243.09 12.745 243.211 12.7707 243.328 12.822C243.444 12.8687 243.545 12.9363 243.629 13.025C243.717 13.109 243.787 13.2093 243.839 13.326C243.89 13.438 243.916 13.5593 243.916 13.69ZM246.914 16.875C247.068 16.7117 247.229 16.5623 247.397 16.427C247.565 16.2917 247.742 16.1773 247.929 16.084C248.12 15.986 248.323 15.9113 248.538 15.86C248.757 15.804 248.99 15.776 249.238 15.776C249.63 15.776 249.973 15.8413 250.267 15.972C250.565 16.1027 250.815 16.287 251.016 16.525C251.216 16.7583 251.368 17.0407 251.471 17.372C251.573 17.7033 251.625 18.0697 251.625 18.471V23H250.253V18.471C250.253 17.9623 250.136 17.568 249.903 17.288C249.669 17.0033 249.312 16.861 248.832 16.861C248.482 16.861 248.153 16.945 247.845 17.113C247.541 17.2763 247.259 17.5003 246.998 17.785V23H245.633V15.888H246.452C246.643 15.888 246.762 15.979 246.809 16.161L246.914 16.875ZM255.966 19.451C256.208 19.451 256.421 19.4183 256.603 19.353C256.789 19.2877 256.943 19.1967 257.065 19.08C257.191 18.9587 257.284 18.814 257.345 18.646C257.41 18.478 257.443 18.2937 257.443 18.093C257.443 17.6823 257.317 17.3557 257.065 17.113C256.817 16.8657 256.451 16.742 255.966 16.742C255.485 16.742 255.119 16.8657 254.867 17.113C254.619 17.3557 254.496 17.6823 254.496 18.093C254.496 18.2937 254.526 18.478 254.587 18.646C254.652 18.8093 254.745 18.9517 254.867 19.073C254.993 19.1897 255.147 19.283 255.329 19.353C255.515 19.4183 255.728 19.451 255.966 19.451ZM258.143 23.371C258.143 23.203 258.096 23.07 258.003 22.972C257.909 22.8693 257.781 22.79 257.618 22.734C257.459 22.6733 257.272 22.6313 257.058 22.608C256.843 22.58 256.617 22.559 256.379 22.545C256.145 22.531 255.905 22.5193 255.658 22.51C255.41 22.496 255.172 22.4727 254.944 22.44C254.701 22.5613 254.5 22.7083 254.342 22.881C254.188 23.0537 254.111 23.2567 254.111 23.49C254.111 23.6393 254.148 23.7793 254.223 23.91C254.302 24.0407 254.421 24.1527 254.58 24.246C254.743 24.344 254.946 24.4187 255.189 24.47C255.436 24.526 255.73 24.554 256.071 24.554C256.407 24.554 256.703 24.5237 256.96 24.463C257.216 24.407 257.431 24.3253 257.604 24.218C257.781 24.1153 257.914 23.9917 258.003 23.847C258.096 23.7023 258.143 23.5437 258.143 23.371ZM259.529 16.154V16.665C259.529 16.833 259.424 16.938 259.214 16.98L258.451 17.092C258.516 17.2367 258.567 17.3907 258.605 17.554C258.642 17.7127 258.661 17.8807 258.661 18.058C258.661 18.408 258.593 18.7253 258.458 19.01C258.322 19.29 258.136 19.5303 257.898 19.731C257.66 19.9317 257.375 20.0857 257.044 20.193C256.717 20.3003 256.358 20.354 255.966 20.354C255.644 20.354 255.343 20.319 255.063 20.249C254.923 20.333 254.815 20.4263 254.741 20.529C254.671 20.627 254.636 20.725 254.636 20.823C254.636 20.9863 254.703 21.1077 254.839 21.187C254.979 21.2663 255.158 21.3247 255.378 21.362C255.602 21.3947 255.856 21.4157 256.141 21.425C256.43 21.4343 256.722 21.4507 257.016 21.474C257.314 21.4927 257.606 21.53 257.891 21.586C258.18 21.6373 258.434 21.7237 258.654 21.845C258.878 21.9617 259.057 22.125 259.193 22.335C259.333 22.5403 259.403 22.8087 259.403 23.14C259.403 23.448 259.326 23.7467 259.172 24.036C259.022 24.3253 258.803 24.582 258.514 24.806C258.224 25.03 257.872 25.2097 257.457 25.345C257.041 25.4803 256.57 25.548 256.043 25.548C255.515 25.548 255.056 25.4967 254.664 25.394C254.276 25.2913 253.952 25.1537 253.691 24.981C253.434 24.8083 253.24 24.6077 253.11 24.379C252.984 24.1503 252.921 23.9123 252.921 23.665C252.921 23.3197 253.028 23.028 253.243 22.79C253.457 22.5473 253.754 22.3583 254.132 22.223C253.926 22.1297 253.763 22.0037 253.642 21.845C253.52 21.6817 253.46 21.467 253.46 21.201C253.46 21.0983 253.478 20.9933 253.516 20.886C253.553 20.774 253.609 20.6643 253.684 20.557C253.763 20.445 253.859 20.34 253.971 20.242C254.087 20.144 254.22 20.0553 254.37 19.976C254.02 19.78 253.744 19.521 253.544 19.199C253.343 18.8723 253.243 18.492 253.243 18.058C253.243 17.708 253.31 17.393 253.446 17.113C253.581 16.833 253.768 16.5927 254.006 16.392C254.248 16.1913 254.535 16.0373 254.867 15.93C255.203 15.8227 255.569 15.769 255.966 15.769C256.582 15.769 257.111 15.8973 257.555 16.154H259.529ZM266.548 23.112C265.974 23.112 265.531 22.951 265.218 22.629C264.91 22.307 264.756 21.8473 264.756 21.25V16.994H263.93C263.851 16.994 263.783 16.9707 263.727 16.924C263.676 16.8727 263.65 16.798 263.65 16.7V16.147L264.805 15.986L265.113 13.865C265.132 13.7857 265.167 13.725 265.218 13.683C265.274 13.6363 265.344 13.613 265.428 13.613H266.121V16H268.137V16.994H266.121V21.159C266.121 21.439 266.189 21.649 266.324 21.789C266.464 21.9243 266.642 21.992 266.856 21.992C266.982 21.992 267.09 21.9757 267.178 21.943C267.272 21.9103 267.351 21.8753 267.416 21.838C267.482 21.796 267.538 21.7587 267.584 21.726C267.631 21.6933 267.673 21.677 267.71 21.677C267.757 21.677 267.792 21.6887 267.815 21.712C267.843 21.7307 267.871 21.7633 267.899 21.81L268.305 22.468C268.081 22.6733 267.815 22.832 267.507 22.944C267.199 23.056 266.88 23.112 266.548 23.112ZM270.76 16.791C271.058 16.4877 271.387 16.2427 271.747 16.056C272.111 15.8693 272.528 15.776 273 15.776C273.392 15.776 273.735 15.8413 274.029 15.972C274.327 16.1027 274.577 16.287 274.778 16.525C274.978 16.7583 275.13 17.0407 275.233 17.372C275.335 17.7033 275.387 18.0697 275.387 18.471V23H274.015V18.471C274.015 17.9623 273.898 17.568 273.665 17.288C273.431 17.0033 273.074 16.861 272.594 16.861C272.244 16.861 271.915 16.945 271.607 17.113C271.303 17.2763 271.021 17.5003 270.76 17.785V23H269.395V12.668H270.76V16.791ZM278.657 15.888V23H277.292V15.888H278.657ZM278.916 13.69C278.916 13.816 278.89 13.9373 278.839 14.054C278.787 14.166 278.717 14.2663 278.629 14.355C278.545 14.439 278.444 14.5067 278.328 14.558C278.211 14.6047 278.09 14.628 277.964 14.628C277.838 14.628 277.719 14.6047 277.607 14.558C277.495 14.5067 277.394 14.439 277.306 14.355C277.222 14.2663 277.154 14.166 277.103 14.054C277.056 13.9373 277.033 13.816 277.033 13.69C277.033 13.5593 277.056 13.438 277.103 13.326C277.154 13.2093 277.222 13.109 277.306 13.025C277.394 12.9363 277.495 12.8687 277.607 12.822C277.719 12.7707 277.838 12.745 277.964 12.745C278.09 12.745 278.211 12.7707 278.328 12.822C278.444 12.8687 278.545 12.9363 278.629 13.025C278.717 13.109 278.787 13.2093 278.839 13.326C278.89 13.438 278.916 13.5593 278.916 13.69ZM284.826 17.113C284.788 17.1737 284.749 17.218 284.707 17.246C284.665 17.2693 284.611 17.281 284.546 17.281C284.471 17.281 284.387 17.2553 284.294 17.204C284.205 17.1527 284.095 17.0967 283.965 17.036C283.839 16.9753 283.689 16.9193 283.517 16.868C283.344 16.8167 283.139 16.791 282.901 16.791C282.705 16.791 282.525 16.8167 282.362 16.868C282.203 16.9147 282.068 16.9823 281.956 17.071C281.844 17.155 281.757 17.2577 281.697 17.379C281.636 17.4957 281.606 17.6217 281.606 17.757C281.606 17.9343 281.657 18.0813 281.76 18.198C281.867 18.3147 282.005 18.415 282.173 18.499C282.345 18.583 282.539 18.66 282.754 18.73C282.973 18.7953 283.195 18.8653 283.419 18.94C283.647 19.0147 283.869 19.101 284.084 19.199C284.303 19.2923 284.497 19.4113 284.665 19.556C284.837 19.696 284.975 19.8663 285.078 20.067C285.185 20.2677 285.239 20.5127 285.239 20.802C285.239 21.1333 285.178 21.4413 285.057 21.726C284.94 22.006 284.765 22.2487 284.532 22.454C284.303 22.6593 284.018 22.8203 283.678 22.937C283.337 23.0537 282.947 23.112 282.509 23.112C282.019 23.112 281.566 23.0303 281.151 22.867C280.735 22.7037 280.388 22.496 280.108 22.244L280.43 21.719C280.467 21.6537 280.514 21.6047 280.57 21.572C280.626 21.5347 280.7 21.516 280.794 21.516C280.882 21.516 280.973 21.5487 281.067 21.614C281.16 21.6793 281.272 21.7517 281.403 21.831C281.533 21.9057 281.692 21.9757 281.879 22.041C282.065 22.1017 282.299 22.132 282.579 22.132C282.812 22.132 283.015 22.104 283.188 22.048C283.36 21.9873 283.503 21.908 283.615 21.81C283.731 21.7073 283.818 21.5907 283.874 21.46C283.93 21.3293 283.958 21.1917 283.958 21.047C283.958 20.8603 283.904 20.7063 283.797 20.585C283.694 20.459 283.556 20.3517 283.384 20.263C283.216 20.1743 283.022 20.0973 282.803 20.032C282.583 19.9667 282.359 19.8967 282.131 19.822C281.902 19.7473 281.678 19.661 281.459 19.563C281.239 19.465 281.043 19.3413 280.871 19.192C280.703 19.0427 280.565 18.8607 280.458 18.646C280.355 18.4313 280.304 18.17 280.304 17.862C280.304 17.5867 280.36 17.323 280.472 17.071C280.588 16.819 280.754 16.5973 280.969 16.406C281.188 16.2147 281.456 16.063 281.774 15.951C282.096 15.8343 282.462 15.776 282.873 15.776C283.344 15.776 283.769 15.8507 284.147 16C284.529 16.1493 284.856 16.3547 285.127 16.616L284.826 17.113ZM80.324 38.25C80.548 38.544 80.7883 38.7493 81.045 38.866C81.3063 38.9827 81.598 39.041 81.92 39.041C82.5453 39.041 83.0283 38.817 83.369 38.369C83.7143 37.9163 83.887 37.2583 83.887 36.395C83.887 35.9423 83.8473 35.5573 83.768 35.24C83.6933 34.918 83.5813 34.6567 83.432 34.456C83.2873 34.2507 83.1077 34.1013 82.893 34.008C82.6783 33.91 82.4357 33.861 82.165 33.861C81.7683 33.861 81.423 33.9497 81.129 34.127C80.8397 34.3043 80.5713 34.5563 80.324 34.883V38.25ZM80.254 33.952C80.4033 33.7747 80.562 33.6137 80.73 33.469C80.9027 33.3197 81.087 33.1937 81.283 33.091C81.479 32.9837 81.6867 32.902 81.906 32.846C82.13 32.7853 82.368 32.755 82.62 32.755C83.026 32.755 83.3923 32.8343 83.719 32.993C84.0503 33.1517 84.3327 33.385 84.566 33.693C84.7993 34.001 84.979 34.3813 85.105 34.834C85.2357 35.2867 85.301 35.807 85.301 36.395C85.301 36.9223 85.2287 37.4123 85.084 37.865C84.944 38.313 84.741 38.7027 84.475 39.034C84.2137 39.3653 83.8917 39.6267 83.509 39.818C83.131 40.0047 82.704 40.098 82.228 40.098C81.8033 40.098 81.4393 40.028 81.136 39.888C80.8327 39.748 80.562 39.552 80.324 39.3V42.387H78.959V32.888H79.778C79.9693 32.888 80.0883 32.979 80.135 33.161L80.254 33.952ZM90.656 36.843C90.1007 36.8617 89.6293 36.906 89.242 36.976C88.8547 37.0413 88.5397 37.13 88.297 37.242C88.0543 37.354 87.8793 37.487 87.772 37.641C87.6647 37.7903 87.611 37.9583 87.611 38.145C87.611 38.3223 87.639 38.4763 87.695 38.607C87.7557 38.733 87.835 38.838 87.933 38.922C88.0357 39.0013 88.1547 39.0597 88.29 39.097C88.4253 39.1343 88.5723 39.153 88.731 39.153C88.941 39.153 89.1323 39.132 89.305 39.09C89.4823 39.048 89.648 38.9897 89.802 38.915C89.956 38.8357 90.103 38.74 90.243 38.628C90.383 38.516 90.5207 38.3877 90.656 38.243V36.843ZM86.652 33.882C87.0487 33.504 87.478 33.2217 87.94 33.035C88.4067 32.8483 88.9177 32.755 89.473 32.755C89.879 32.755 90.2383 32.8227 90.551 32.958C90.8637 33.0887 91.1273 33.273 91.342 33.511C91.5567 33.749 91.7177 34.0337 91.825 34.365C91.937 34.6963 91.993 35.0627 91.993 35.464V40H91.384C91.2487 40 91.146 39.979 91.076 39.937C91.006 39.8903 90.95 39.8063 90.908 39.685L90.761 39.062C90.579 39.23 90.3993 39.3793 90.222 39.51C90.0447 39.636 89.858 39.7457 89.662 39.839C89.4707 39.9277 89.2653 39.9953 89.046 40.042C88.8267 40.0887 88.584 40.112 88.318 40.112C88.038 40.112 87.7743 40.0747 87.527 40C87.2843 39.9207 87.072 39.8017 86.89 39.643C86.708 39.4843 86.5633 39.286 86.456 39.048C86.3533 38.81 86.302 38.5323 86.302 38.215C86.302 37.935 86.3767 37.6667 86.526 37.41C86.68 37.1487 86.9273 36.9153 87.268 36.71C87.6133 36.5047 88.0613 36.3367 88.612 36.206C89.1673 36.0753 89.8487 36.0007 90.656 35.982V35.464C90.656 34.9273 90.5417 34.526 90.313 34.26C90.0843 33.994 89.7483 33.861 89.305 33.861C89.0063 33.861 88.7543 33.8983 88.549 33.973C88.3483 34.0477 88.1733 34.1317 88.024 34.225C87.8793 34.3137 87.751 34.3953 87.639 34.47C87.5317 34.5447 87.4197 34.582 87.303 34.582C87.2097 34.582 87.128 34.5563 87.058 34.505C86.9927 34.4537 86.939 34.393 86.897 34.323L86.652 33.882ZM96.3193 36.451C96.562 36.451 96.7743 36.4183 96.9563 36.353C97.143 36.2877 97.297 36.1967 97.4183 36.08C97.5443 35.9587 97.6377 35.814 97.6983 35.646C97.7637 35.478 97.7963 35.2937 97.7963 35.093C97.7963 34.6823 97.6703 34.3557 97.4183 34.113C97.171 33.8657 96.8047 33.742 96.3193 33.742C95.8387 33.742 95.4723 33.8657 95.2203 34.113C94.973 34.3557 94.8493 34.6823 94.8493 35.093C94.8493 35.2937 94.8797 35.478 94.9403 35.646C95.0057 35.8093 95.099 35.9517 95.2203 36.073C95.3463 36.1897 95.5003 36.283 95.6823 36.353C95.869 36.4183 96.0813 36.451 96.3193 36.451ZM98.4963 40.371C98.4963 40.203 98.4497 40.07 98.3563 39.972C98.263 39.8693 98.1347 39.79 97.9713 39.734C97.8127 39.6733 97.626 39.6313 97.4113 39.608C97.1967 39.58 96.9703 39.559 96.7323 39.545C96.499 39.531 96.2587 39.5193 96.0113 39.51C95.764 39.496 95.526 39.4727 95.2973 39.44C95.0547 39.5613 94.854 39.7083 94.6953 39.881C94.5413 40.0537 94.4643 40.2567 94.4643 40.49C94.4643 40.6393 94.5017 40.7793 94.5763 40.91C94.6557 41.0407 94.7747 41.1527 94.9333 41.246C95.0967 41.344 95.2997 41.4187 95.5423 41.47C95.7897 41.526 96.0837 41.554 96.4243 41.554C96.7603 41.554 97.0567 41.5237 97.3133 41.463C97.57 41.407 97.7847 41.3253 97.9573 41.218C98.1347 41.1153 98.2677 40.9917 98.3563 40.847C98.4497 40.7023 98.4963 40.5437 98.4963 40.371ZM99.8823 33.154V33.665C99.8823 33.833 99.7773 33.938 99.5673 33.98L98.8043 34.092C98.8697 34.2367 98.921 34.3907 98.9583 34.554C98.9957 34.7127 99.0143 34.8807 99.0143 35.058C99.0143 35.408 98.9467 35.7253 98.8113 36.01C98.676 36.29 98.4893 36.5303 98.2513 36.731C98.0133 36.9317 97.7287 37.0857 97.3973 37.193C97.0707 37.3003 96.7113 37.354 96.3193 37.354C95.9973 37.354 95.6963 37.319 95.4163 37.249C95.2763 37.333 95.169 37.4263 95.0943 37.529C95.0243 37.627 94.9893 37.725 94.9893 37.823C94.9893 37.9863 95.057 38.1077 95.1923 38.187C95.3323 38.2663 95.512 38.3247 95.7313 38.362C95.9553 38.3947 96.2097 38.4157 96.4943 38.425C96.7837 38.4343 97.0753 38.4507 97.3693 38.474C97.668 38.4927 97.9597 38.53 98.2443 38.586C98.5337 38.6373 98.788 38.7237 99.0073 38.845C99.2313 38.9617 99.411 39.125 99.5463 39.335C99.6863 39.5403 99.7563 39.8087 99.7563 40.14C99.7563 40.448 99.6793 40.7467 99.5253 41.036C99.376 41.3253 99.1567 41.582 98.8673 41.806C98.578 42.03 98.2257 42.2097 97.8103 42.345C97.395 42.4803 96.9237 42.548 96.3963 42.548C95.869 42.548 95.4093 42.4967 95.0173 42.394C94.63 42.2913 94.3057 42.1537 94.0443 41.981C93.7877 41.8083 93.594 41.6077 93.4633 41.379C93.3373 41.1503 93.2743 40.9123 93.2743 40.665C93.2743 40.3197 93.3817 40.028 93.5963 39.79C93.811 39.5473 94.1073 39.3583 94.4853 39.223C94.28 39.1297 94.1167 39.0037 93.9953 38.845C93.874 38.6817 93.8133 38.467 93.8133 38.201C93.8133 38.0983 93.832 37.9933 93.8693 37.886C93.9067 37.774 93.9627 37.6643 94.0373 37.557C94.1167 37.445 94.2123 37.34 94.3243 37.242C94.441 37.144 94.574 37.0553 94.7233 36.976C94.3733 36.78 94.098 36.521 93.8973 36.199C93.6967 35.8723 93.5963 35.492 93.5963 35.058C93.5963 34.708 93.664 34.393 93.7993 34.113C93.9347 33.833 94.1213 33.5927 94.3593 33.392C94.602 33.1913 94.889 33.0373 95.2203 32.93C95.5563 32.8227 95.9227 32.769 96.3193 32.769C96.9353 32.769 97.465 32.8973 97.9083 33.154H99.8823ZM105.736 35.653C105.736 35.3823 105.697 35.1327 105.617 34.904C105.543 34.6753 105.431 34.477 105.281 34.309C105.132 34.141 104.95 34.0103 104.735 33.917C104.521 33.8237 104.273 33.777 103.993 33.777C103.419 33.777 102.967 33.9427 102.635 34.274C102.309 34.6053 102.101 35.065 102.012 35.653H105.736ZM106.863 38.985C106.695 39.181 106.502 39.3513 106.282 39.496C106.063 39.636 105.83 39.7503 105.582 39.839C105.335 39.9277 105.078 39.993 104.812 40.035C104.551 40.077 104.292 40.098 104.035 40.098C103.545 40.098 103.09 40.0163 102.67 39.853C102.255 39.685 101.893 39.4423 101.585 39.125C101.282 38.803 101.044 38.4063 100.871 37.935C100.703 37.459 100.619 36.913 100.619 36.297C100.619 35.8023 100.696 35.3427 100.85 34.918C101.004 34.4887 101.224 34.1153 101.508 33.798C101.798 33.4807 102.15 33.231 102.565 33.049C102.981 32.867 103.447 32.776 103.965 32.776C104.399 32.776 104.798 32.8483 105.162 32.993C105.531 33.133 105.848 33.3383 106.114 33.609C106.38 33.8797 106.588 34.2133 106.737 34.61C106.891 35.0067 106.968 35.4593 106.968 35.968C106.968 36.178 106.945 36.3203 106.898 36.395C106.852 36.465 106.765 36.5 106.639 36.5H101.977C101.991 36.9247 102.052 37.2957 102.159 37.613C102.267 37.9257 102.414 38.187 102.6 38.397C102.792 38.607 103.018 38.7633 103.279 38.866C103.541 38.9687 103.832 39.02 104.154 39.02C104.458 39.02 104.719 38.985 104.938 38.915C105.162 38.845 105.354 38.7703 105.512 38.691C105.676 38.607 105.811 38.53 105.918 38.46C106.03 38.39 106.128 38.355 106.212 38.355C106.324 38.355 106.411 38.397 106.471 38.481L106.863 38.985Z" fill="#484848"/>
<rect width="11" height="7.5" fill="black" fill-opacity="0" transform="translate(78 52)"/>
<rect width="11" height="7.5" fill="black" fill-opacity="0" transform="translate(78 52)"/>
<path fill-rule="evenodd" clip-rule="evenodd" d="M87.6113 52.2438C87.2666 51.9187 86.6748 51.9187 86.3301 52.2438L82.2334 56.085L80.4629 54.4032C80.1182 54.0782 79.5264 54.0782 79.1807 54.4032L78 55.75L81.5967 59.2563C81.9414 59.5813 82.5332 59.5813 82.8779 59.2563L83.5928 58.5828C83.6182 58.5592 83.6416 58.5343 83.6631 58.5085L89 53.579L87.6113 52.2438Z" fill="#32BA7C"/>
<path fill-rule="evenodd" clip-rule="evenodd" d="M86.4669 52.3897L82.2325 56.36L80.3257 54.5487C80.3256 54.5487 80.3258 54.5488 80.3257 54.5487C80.0602 54.2987 79.5941 54.2962 79.3243 54.5428L78.2754 55.7392L81.735 59.1118C82.0029 59.3632 82.4734 59.3628 82.7407 59.1107L83.4567 58.4362C83.4756 58.4187 83.4931 58.4001 83.5092 58.3807L83.5177 58.3705L88.7084 53.5761L87.4741 52.3893C87.4739 52.3891 87.4743 52.3895 87.4741 52.3893C87.2063 52.1375 86.7343 52.1375 86.4669 52.3897ZM87.6113 52.2438C87.2666 51.9187 86.6748 51.9187 86.3301 52.2438L82.2334 56.085L80.4629 54.4032C80.1182 54.0782 79.5264 54.0782 79.1807 54.4032L78 55.75L81.5967 59.2563C81.9414 59.5813 82.5332 59.5813 82.8779 59.2563L83.5928 58.5828C83.6182 58.5592 83.6416 58.5343 83.6631 58.5085L89 53.579L87.6113 52.2438Z" fill="white"/>
<path d="M93.66 57.75C93.82 57.96 93.9933 58.1067 94.18 58.19C94.3667 58.2733 94.57 58.315 94.79 58.315C95.2433 58.315 95.5917 58.1533 95.835 57.83C96.0817 57.5067 96.205 57.0183 96.205 56.365C96.205 55.7617 96.0967 55.32 95.88 55.04C95.6633 54.7567 95.3567 54.615 94.96 54.615C94.68 54.615 94.4367 54.6783 94.23 54.805C94.0267 54.9317 93.8367 55.1117 93.66 55.345V57.75ZM93.66 54.62C93.87 54.3867 94.1083 54.1983 94.375 54.055C94.6417 53.9117 94.945 53.84 95.285 53.84C95.5817 53.84 95.8483 53.8983 96.085 54.015C96.325 54.1283 96.5283 54.2933 96.695 54.51C96.8617 54.7233 96.99 54.9833 97.08 55.29C97.17 55.5967 97.215 55.9433 97.215 56.33C97.215 56.74 97.1633 57.1133 97.06 57.45C96.96 57.7867 96.815 58.075 96.625 58.315C96.4383 58.555 96.21 58.7417 95.94 58.875C95.67 59.005 95.3667 59.07 95.03 59.07C94.8667 59.07 94.7167 59.0533 94.58 59.02C94.4433 58.99 94.3167 58.945 94.2 58.885C94.0867 58.825 93.9817 58.7517 93.885 58.665C93.7883 58.5783 93.6967 58.48 93.61 58.37L93.565 58.795C93.5383 58.9317 93.455 59 93.315 59H92.685V51.62H93.66V54.62ZM102.604 53.92L99.7835 60.475C99.7535 60.5483 99.7135 60.605 99.6635 60.645C99.6135 60.685 99.5402 60.705 99.4435 60.705H98.7185L99.6485 58.68L97.5635 53.92H98.4135C98.4968 53.92 98.5618 53.94 98.6085 53.98C98.6552 54.02 98.6885 54.065 98.7085 54.115L99.9985 57.165C100.025 57.2417 100.05 57.32 100.074 57.4C100.1 57.4767 100.122 57.5533 100.139 57.63C100.162 57.55 100.187 57.4717 100.214 57.395C100.24 57.315 100.269 57.2367 100.299 57.16L101.544 54.115C101.567 54.0583 101.604 54.0117 101.654 53.975C101.704 53.9383 101.76 53.92 101.824 53.92H102.604Z" fill="#898989"/>
<path d="M108.282 59V53.14H106.062V52H111.742V53.14H109.522V59H108.282ZM112.184 59V53.72H113.394V54.91C113.767 54.01 114.39 53.58 115.264 53.62V54.9H115.194C114.647 54.9 114.21 55.08 113.884 55.44C113.557 55.7933 113.394 56.31 113.394 56.99V59H112.184ZM118.135 59.11C117.548 59.11 117.088 58.9267 116.755 58.56C116.421 58.1933 116.255 57.7 116.255 57.08V53.72H117.465V56.72C117.465 57.1333 117.561 57.4533 117.755 57.68C117.955 57.9 118.235 58.01 118.595 58.01C118.948 58.01 119.235 57.8933 119.455 57.66C119.675 57.4267 119.785 57.1067 119.785 56.7V53.72H120.995V59H119.785V58.18C119.365 58.8 118.815 59.11 118.135 59.11ZM124.326 59.1C123.499 59.1 122.753 58.8367 122.086 58.31L122.626 57.49C123.199 57.9233 123.776 58.14 124.356 58.14C124.616 58.14 124.816 58.09 124.956 57.99C125.103 57.8833 125.176 57.7367 125.176 57.55C125.176 57.4567 125.149 57.3767 125.096 57.31C125.049 57.2367 124.963 57.17 124.836 57.11C124.709 57.05 124.603 57.0067 124.516 56.98C124.429 56.9533 124.286 56.91 124.086 56.85L123.996 56.82C123.809 56.7667 123.649 56.7167 123.516 56.67C123.389 56.6167 123.246 56.5467 123.086 56.46C122.926 56.3733 122.796 56.28 122.696 56.18C122.596 56.0733 122.513 55.94 122.446 55.78C122.379 55.62 122.346 55.44 122.346 55.24C122.346 54.7533 122.523 54.3633 122.876 54.07C123.236 53.7767 123.686 53.63 124.226 53.63C124.913 53.63 125.559 53.83 126.166 54.23L125.686 55.09C125.139 54.7567 124.643 54.59 124.196 54.59C123.963 54.59 123.779 54.64 123.646 54.74C123.519 54.84 123.456 54.9733 123.456 55.14C123.456 55.2533 123.513 55.3567 123.626 55.45C123.746 55.5433 123.863 55.6133 123.976 55.66C124.096 55.7 124.286 55.7633 124.546 55.85C124.559 55.8567 124.576 55.8633 124.596 55.87C124.616 55.8767 124.633 55.88 124.646 55.88C124.879 55.9533 125.076 56.0267 125.236 56.1C125.396 56.1667 125.563 56.26 125.736 56.38C125.916 56.5 126.053 56.65 126.146 56.83C126.239 57.0033 126.286 57.2067 126.286 57.44C126.286 57.9733 126.103 58.3833 125.736 58.67C125.369 58.9567 124.899 59.1 124.326 59.1ZM129.188 59.09C128.175 59.09 127.668 58.5733 127.668 57.54V54.76H126.998V53.72H127.668V52.27H128.878V53.72H130.298V54.76H128.878V57.35C128.878 57.79 129.095 58.01 129.528 58.01C129.788 58.01 130.038 57.95 130.278 57.83V58.82C129.958 59 129.595 59.09 129.188 59.09ZM134.058 59L137.138 51.95H138.278L141.358 59H140.058L139.348 57.31H136.038L135.318 59H134.058ZM136.488 56.22H138.898L137.688 53.42L136.488 56.22ZM144.604 59.12C143.824 59.12 143.174 58.8533 142.654 58.32C142.134 57.7867 141.874 57.1367 141.874 56.37C141.874 55.61 142.134 54.96 142.654 54.42C143.181 53.88 143.834 53.61 144.614 53.61C145.468 53.61 146.171 53.9133 146.724 54.52L145.974 55.33C145.554 54.89 145.098 54.67 144.604 54.67C144.171 54.67 143.808 54.8367 143.514 55.17C143.228 55.4967 143.084 55.8967 143.084 56.37C143.084 56.85 143.231 57.2533 143.524 57.58C143.824 57.9067 144.204 58.07 144.664 58.07C145.151 58.07 145.608 57.85 146.034 57.41L146.764 58.13C146.478 58.45 146.164 58.6967 145.824 58.87C145.491 59.0367 145.084 59.12 144.604 59.12ZM149.647 59.09C148.634 59.09 148.127 58.5733 148.127 57.54V54.76H147.457V53.72H148.127V52.27H149.337V53.72H150.757V54.76H149.337V57.35C149.337 57.79 149.554 58.01 149.987 58.01C150.247 58.01 150.497 57.95 150.737 57.83V58.82C150.417 59 150.054 59.09 149.647 59.09ZM151.999 52.91V51.76H153.299V52.91H151.999ZM152.049 59V53.72H153.259V59H152.049ZM156.51 59.04L154.34 53.72H155.64L157.06 57.6L158.49 53.72H159.76L157.6 59.04H156.51ZM160.807 52.91V51.76H162.107V52.91H160.807ZM160.857 59V53.72H162.067V59H160.857ZM165.419 59.09C164.405 59.09 163.899 58.5733 163.899 57.54V54.76H163.229V53.72H163.899V52.27H165.109V53.72H166.529V54.76H165.109V57.35C165.109 57.79 165.325 58.01 165.759 58.01C166.019 58.01 166.269 57.95 166.509 57.83V58.82C166.189 59 165.825 59.09 165.419 59.09ZM168.83 60.63C168.39 60.63 167.974 60.5233 167.58 60.31L167.99 59.41C168.237 59.5433 168.474 59.61 168.7 59.61C168.874 59.61 169.017 59.5633 169.13 59.47C169.244 59.3833 169.35 59.2267 169.45 59L167.25 53.72H168.54L170.04 57.64L171.41 53.72H172.67L170.57 59.15C170.357 59.69 170.12 60.07 169.86 60.29C169.6 60.5167 169.257 60.63 168.83 60.63Z" fill="#32BA7C"/>
<rect width="62" height="62" fill="black" fill-opacity="0" transform="translate(5 4)"/>
<circle cx="36" cy="35" r="31" fill="#6FBFF6" fill-opacity="0.3"/>
<rect width="39.8747" height="39.8747" fill="black" fill-opacity="0" transform="translate(16 15)"/>
<rect width="39.8747" height="39.8747" fill="black" fill-opacity="0" transform="translate(16 15)"/>
<path d="M35.9374 15C46.9482 15 55.8747 23.9266 55.8747 34.9374C55.8747 45.9465 46.9482 54.8747 35.9374 54.8747C24.9266 54.8747 16 45.9463 16 34.9374C15.9998 23.9263 24.9263 15 35.9374 15Z" fill="#26A6D1"/>
<path d="M35.9374 24.0625C41.9423 24.0625 46.8124 28.9309 46.8124 34.9374C46.8124 40.944 41.9421 45.8124 35.9374 45.8124C29.9328 45.8124 25.0625 40.944 25.0625 34.9374C25.0625 28.9309 29.9326 24.0625 35.9374 24.0625Z" fill="#484848"/>
<path fill-rule="evenodd" clip-rule="evenodd" d="M48.625 28.5938C48.625 26.0906 46.5967 24.0625 44.0938 24.0625C41.708 24.0625 39.7539 25.905 39.5762 28.2451C39.5674 28.3601 39.5625 28.4763 39.5625 28.5938C39.5625 31.0967 41.5908 33.125 44.0938 33.125C46.5967 33.125 48.625 31.0967 48.625 28.5938Z" fill="white"/>
</svg>
