<svg width="13" height="13" viewBox="0 0 13 13" fill="none" xmlns="http://www.w3.org/2000/svg">
<rect width="12.9996" height="13" fill="black" fill-opacity="0"/>
<rect width="12.9996" height="13" fill="black" fill-opacity="0"/>
<rect width="12.9996" height="13" fill="black" fill-opacity="0"/>
<path d="M1.68224 9.63539C0.75467 9.63539 0 10.3901 0 11.3178C0 12.2454 0.75467 13 1.68224 13C2.6098 13 3.36447 12.2454 3.36447 11.3178C3.36447 10.3901 2.60967 9.63539 1.68224 9.63539Z" fill="white"/>
<path d="M0.279766 4.84279C0.207227 4.84106 0.137882 4.86729 0.0858408 4.9176C0.0339323 4.96778 0.00478363 5.03687 0.00478363 5.10901V7.26765C0.00478363 7.40981 0.11672 7.52694 0.258869 7.5336C3.0984 7.66311 5.33739 9.90228 5.46689 12.742C5.47341 12.8841 5.59054 12.996 5.73282 12.996H7.89142C7.96356 12.996 8.03277 12.9667 8.08281 12.9151C8.13286 12.8634 8.15975 12.7931 8.15762 12.7211C8.0888 10.6516 7.24083 8.70163 5.77009 7.23064C4.29908 5.75965 2.34932 4.91174 0.279766 4.84279Z" fill="white"/>
<path d="M9.19092 3.80933C6.80392 1.42242 3.63817 0.069493 0.276362 0.000276109C0.204489 -0.00318473 0.135543 0.0260993 0.0846997 0.0762815C0.0335898 0.126464 0.00470734 0.194882 0.00470734 0.266362V2.4238C0.00470734 2.56822 0.119838 2.68629 0.26425 2.69002C5.66819 2.82579 10.1745 7.3326 10.31 12.7364C10.3133 12.8809 10.4317 12.9959 10.5761 12.9959H12.7333C12.8048 12.9959 12.8735 12.9671 12.9237 12.9159C12.9736 12.8648 13.0011 12.7957 12.9995 12.7241C12.9301 9.36185 11.5772 6.19572 9.19092 3.80933Z" fill="white"/>
</svg>
