<svg width="103" height="58" viewBox="0 0 103 58" fill="none" xmlns="http://www.w3.org/2000/svg">
<rect width="101" height="56" fill="black" fill-opacity="0" transform="translate(1 1)"/>
<rect width="101" height="56" fill="black" fill-opacity="0" transform="translate(1 1)"/>
<rect width="101" height="56" fill="black" fill-opacity="0" transform="translate(1 1)"/>
<rect width="101" height="56" fill="black" fill-opacity="0" transform="translate(1 1)"/>
<rect width="101" height="56" fill="black" fill-opacity="0" transform="translate(1 1)"/>
<rect width="56.1111" height="56" fill="black" fill-opacity="0" transform="translate(45.8887 1)"/>
<rect width="25.1119" height="31.2232" fill="black" fill-opacity="0" transform="translate(59.9463 14.25)"/>
<path fill-rule="evenodd" clip-rule="evenodd" d="M79.2596 32.5932C79.2596 32.5932 77.0782 34.2273 76.2138 34.4196C75.9644 34.4752 73.7202 32.9663 72.0238 30.1485C70.3486 27.3661 69.8492 24.084 70.0205 23.8862C70.571 23.2501 72.9163 22.1497 72.9163 22.1497C73.5388 21.7764 73.7483 20.985 73.3852 20.382L70.3198 15.2904C69.8284 14.4741 68.1856 15.2349 67.4105 15.6997C63.2881 18.1714 63.3557 25.8388 67.5615 32.8245C71.767 39.8098 78.5187 43.4694 82.6413 40.9972C83.412 40.535 84.9194 39.3174 84.3587 38.3861L81.1356 33.0325C80.7535 32.3979 79.9135 32.201 79.2596 32.5932Z" stroke="#32BA7C" stroke-width="1.75"/>
<path d="M73.9442 57C89.4389 57 102 44.464 102 29C102 13.536 89.4389 1 73.9442 1C58.4496 1 45.8887 13.536 45.8887 29C45.8887 44.464 58.4496 57 73.9442 57Z" stroke="#32BA7C" stroke-width="1.75"/>
<rect width="56.1111" height="56" fill="black" fill-opacity="0" transform="translate(1 1)"/>
<path d="M29.0556 57C44.5502 57 57.1111 44.464 57.1111 29C57.1111 13.536 44.5502 1 29.0556 1C13.5609 1 1 13.536 1 29C1 44.464 13.5609 57 29.0556 57Z" fill="#F6F9FD" stroke="#3B75FF" stroke-width="1.75"/>
<path fill-rule="evenodd" clip-rule="evenodd" d="M36.541 16H15.7461C14.7832 16 14 16.7559 14 17.6855V32.7334C14 33.6631 14.7832 34.4189 15.7461 34.4189H17.0938V38.9043C17.0938 39.1895 17.2725 39.4473 17.5459 39.5566C17.6357 39.5928 17.7314 39.6104 17.8252 39.6104C18.0156 39.6104 18.2021 39.5381 18.3428 39.4033L23.5039 34.4189H24.54C24.9434 34.4189 25.2715 34.1025 25.2715 33.7129C25.2715 33.3223 24.9434 33.0068 24.54 33.0068L23.1514 33.0088C22.9814 33.0205 22.8145 33.0879 22.6836 33.2139L18.5566 37.1992C18.5566 37.1992 18.5557 33.668 18.5527 33.6494C18.5195 33.2891 18.207 33.0068 17.8252 33.0068H15.7461C15.5898 33.0068 15.4629 32.8838 15.4629 32.7334V17.6855C15.4629 17.5352 15.5898 17.4121 15.7461 17.4121H36.541C36.6973 17.4121 36.8242 17.5352 36.8242 17.6855V25.3076C36.8242 25.6982 37.1514 26.0137 37.5557 26.0137C37.959 26.0137 38.2861 25.6982 38.2861 25.3076V17.6855C38.2861 16.7559 37.5039 16 36.541 16ZM43.2549 27.6377H28.6992C27.7363 27.6377 26.9531 28.3936 26.9531 29.3232V37.542C26.9531 38.4717 27.7363 39.2275 28.6992 39.2275H37.8115L41.5039 42.793C41.6436 42.9287 41.8311 43 42.0215 43C42.1152 43 42.2109 42.9824 42.3008 42.9463C42.5742 42.8369 42.7529 42.5791 42.7529 42.2939V39.2275H43.2549C44.2178 39.2275 45.001 38.4717 45.001 37.542V29.3232C45.001 28.3936 44.2178 27.6377 43.2549 27.6377ZM43.5381 37.542C43.5381 37.6924 43.4111 37.8154 43.2549 37.8154H42.0215C41.6367 37.8154 41.3223 38.1025 41.293 38.4668C41.291 38.4824 41.29 40.5889 41.29 40.5889L38.6348 38.0244L38.626 38.0166L38.5967 37.9912C38.4678 37.8818 38.2998 37.8154 38.1152 37.8154H28.6992C28.543 37.8154 28.416 37.6924 28.416 37.542V29.3232C28.416 29.1729 28.543 29.0498 28.6992 29.0498H43.2549C43.4111 29.0498 43.5381 29.1729 43.5381 29.3232V37.542ZM35.2451 33.4326C35.2451 33.043 35.5723 32.7266 35.9766 32.7266C36.3799 32.7266 36.708 33.043 36.708 33.4326C36.708 33.8223 36.3799 34.1387 35.9766 34.1387C35.5723 34.1387 35.2451 33.8223 35.2451 33.4326ZM32.5771 32.7266C32.1738 32.7266 31.8457 33.043 31.8457 33.4326C31.8457 33.8223 32.1738 34.1387 32.5771 34.1387C32.9805 34.1387 33.3086 33.8223 33.3086 33.4326C33.3086 33.043 32.9805 32.7266 32.5771 32.7266ZM38.6426 33.4326C38.6426 33.043 38.9697 32.7266 39.374 32.7266C39.7773 32.7266 40.1055 33.043 40.1055 33.4326C40.1055 33.8223 39.7773 34.1387 39.374 34.1387C38.9697 34.1387 38.6426 33.8223 38.6426 33.4326Z" fill="#3B75FF"/>
</svg>
