<svg width="43" height="41" viewBox="0 0 43 41" fill="none" xmlns="http://www.w3.org/2000/svg">
<path d="M36.8571 15.5104C36.8571 6.92358 29.9848 0 21.5 0C13.0152 0 6.14286 6.92358 6.14286 15.4717C6.14286 15.4717 6.14286 15.4717 6.14286 15.5104C2.72589 15.7038 0 18.566 0 22.0472V22.8208C0 26.4566 2.91786 29.3962 6.52679 29.3962H6.87232L9.59821 33.767C11.5179 36.8613 14.7813 38.6792 18.3902 38.6792H18.9277C19.2732 39.9943 20.4634 41 21.8839 41C23.5732 41 24.9554 39.6075 24.9554 37.9057C24.9554 36.2038 23.5732 34.8113 21.8839 34.8113C20.4634 34.8113 19.2732 35.817 18.9277 37.1321H18.3902C15.3188 37.1321 12.5161 35.5462 10.9036 32.916L8.67679 29.3962H9.21429C10.0589 29.3962 10.75 28.7 10.75 27.8491V17.0189C10.75 16.1679 10.0589 15.4717 9.21429 15.4717H7.67857C7.67857 7.77453 13.8598 1.54717 21.5 1.54717C29.1402 1.54717 35.3214 7.77453 35.3214 15.4717H33.7857C32.9411 15.4717 32.25 16.1679 32.25 17.0189V27.8491C32.25 28.7 32.9411 29.3962 33.7857 29.3962H36.4732C40.0821 29.3962 43 26.4566 43 22.8208V22.0472C43 18.566 40.2741 15.7038 36.8571 15.5104ZM21.8839 36.3585C22.7286 36.3585 23.4196 37.0547 23.4196 37.9057C23.4196 38.7566 22.7286 39.4528 21.8839 39.4528C21.0393 39.4528 20.3482 38.7566 20.3482 37.9057C20.3482 37.0547 21.0393 36.3585 21.8839 36.3585ZM9.21429 17.0189V27.8491H6.52679C3.7625 27.8491 1.53571 25.6057 1.53571 22.8208V22.0472C1.53571 19.2623 3.7625 17.0189 6.52679 17.0189H9.21429ZM41.4643 22.8208C41.4643 25.6057 39.2375 27.8491 36.4732 27.8491H33.7857V17.0189H36.4732C39.2375 17.0189 41.4643 19.2623 41.4643 22.0472V22.8208Z" transform="translate(43) scale(-1 1)" fill="url(#paint0_linear)"/>
<defs>
<linearGradient id="paint0_linear" x2="1" gradientUnits="userSpaceOnUse" gradientTransform="translate(43) scale(43 41) rotate(90)">
<stop stop-color="#3B75FF"/>
<stop offset="1" stop-color="#5C68C9"/>
</linearGradient>
</defs>
</svg>
