<svg width="43" height="41" viewBox="0 0 43 41" fill="none" xmlns="http://www.w3.org/2000/svg">
<rect width="43" height="41" fill="black" fill-opacity="0" transform="translate(43) scale(-1 1)"/>
<rect width="43" height="41" fill="black" fill-opacity="0" transform="translate(43) scale(-1 1)"/>
<rect width="43" height="41" fill="black" fill-opacity="0" transform="translate(43) scale(-1 1)"/>
<rect width="43" height="41" fill="black" fill-opacity="0" transform="translate(43) scale(-1 1)"/>
<path d="M6.14286 15.5104C6.14286 6.92358 13.0152 0 21.5 0C29.9848 0 36.8571 6.92358 36.8571 15.4717C36.8571 15.4717 36.8571 15.4717 36.8571 15.5104C40.2741 15.7038 43 18.566 43 22.0472V22.8208C43 26.4566 40.0821 29.3962 36.4732 29.3962H36.1277L33.4018 33.767C31.4821 36.8613 28.2187 38.6792 24.6098 38.6792H24.0723C23.7268 39.9943 22.5366 41 21.1161 41C19.4268 41 18.0446 39.6075 18.0446 37.9057C18.0446 36.2038 19.4268 34.8113 21.1161 34.8113C22.5366 34.8113 23.7268 35.817 24.0723 37.1321H24.6098C27.6812 37.1321 30.4839 35.5462 32.0964 32.916L34.3232 29.3962H33.7857C32.9411 29.3962 32.25 28.7 32.25 27.8491V17.0189C32.25 16.1679 32.9411 15.4717 33.7857 15.4717H35.3214C35.3214 7.77453 29.1402 1.54717 21.5 1.54717C13.8598 1.54717 7.67857 7.77453 7.67857 15.4717H9.21429C10.0589 15.4717 10.75 16.1679 10.75 17.0189V27.8491C10.75 28.7 10.0589 29.3962 9.21429 29.3962H6.52679C2.91786 29.3962 0 26.4566 0 22.8208V22.0472C0 18.566 2.72589 15.7038 6.14286 15.5104ZM21.1161 36.3585C20.2714 36.3585 19.5804 37.0547 19.5804 37.9057C19.5804 38.7566 20.2714 39.4528 21.1161 39.4528C21.9607 39.4528 22.6518 38.7566 22.6518 37.9057C22.6518 37.0547 21.9607 36.3585 21.1161 36.3585ZM33.7857 17.0189V27.8491H36.4732C39.2375 27.8491 41.4643 25.6057 41.4643 22.8208V22.0472C41.4643 19.2623 39.2375 17.0189 36.4732 17.0189H33.7857ZM1.53571 22.8208C1.53571 25.6057 3.7625 27.8491 6.52679 27.8491H9.21429V17.0189H6.52679C3.7625 17.0189 1.53571 19.2623 1.53571 22.0472V22.8208Z" fill="#538CF8" fill-opacity="0.8"/>
</svg>
