<svg width="31" height="27" viewBox="0 0 31 27" fill="none" xmlns="http://www.w3.org/2000/svg">
<path fill-rule="evenodd" clip-rule="evenodd" d="M22.541 0H1.74609C0.783203 0 0 0.755859 0 1.68555V16.7334C0 17.6631 0.783203 18.4189 1.74609 18.4189H3.09375V22.9043C3.09375 23.1895 3.27148 23.4473 3.54492 23.5566C3.63672 23.5928 3.73047 23.6104 3.82617 23.6104C4.01562 23.6104 4.20312 23.5381 4.3418 23.4033L9.50391 18.4189H10.5391C10.9434 18.4189 11.2715 18.1025 11.2715 17.7129C11.2715 17.3223 10.9434 17.0068 10.5391 17.0068L9.15234 17.0088C8.98047 17.0205 8.81445 17.0879 8.68359 17.2139L4.55664 21.1992L4.55273 17.6494C4.51953 17.2891 4.20703 17.0068 3.82422 17.0068H1.74609C1.58984 17.0068 1.46289 16.8838 1.46289 16.7334V1.68555C1.46289 1.53516 1.58984 1.41211 1.74609 1.41211H22.541C22.6973 1.41211 22.8242 1.53516 22.8242 1.68555V9.30762C22.8242 9.69824 23.1523 10.0137 23.5547 10.0137C23.959 10.0137 24.2871 9.69824 24.2871 9.30762V1.68555C24.2871 0.755859 23.5039 0 22.541 0ZM29.2559 11.6377H14.6992C13.7363 11.6377 12.9531 12.3936 12.9531 13.3232V21.542C12.9531 22.4717 13.7363 23.2275 14.6992 23.2275H23.8125L27.5039 26.793C27.6445 26.9287 27.8301 27 28.0215 27C28.1152 27 28.2109 26.9824 28.3008 26.9463C28.5742 26.8369 28.752 26.5791 28.752 26.2939V23.2275H29.2559C30.2168 23.2275 31 22.4717 31 21.542V13.3232C31 12.3936 30.2168 11.6377 29.2559 11.6377ZM29.5391 21.542C29.5391 21.6924 29.4121 21.8154 29.2559 21.8154H28.0215C27.6367 21.8154 27.3223 22.1025 27.293 22.4668L27.2891 24.5889L24.6348 22.0244L24.5957 21.9912C24.4688 21.8818 24.3008 21.8154 24.1152 21.8154H14.6992C14.543 21.8154 14.416 21.6924 14.416 21.542V13.3232C14.416 13.1729 14.543 13.0498 14.6992 13.0498H29.2559C29.4121 13.0498 29.5391 13.1729 29.5391 13.3232V21.542ZM21.2461 17.4326C21.2461 17.043 21.5742 16.7266 21.9766 16.7266C22.3809 16.7266 22.709 17.043 22.709 17.4326C22.709 17.8223 22.3809 18.1387 21.9766 18.1387C21.5742 18.1387 21.2461 17.8223 21.2461 17.4326ZM18.5762 16.7266C18.1738 16.7266 17.8457 17.043 17.8457 17.4326C17.8457 17.8223 18.1738 18.1387 18.5762 18.1387C18.9805 18.1387 19.3086 17.8223 19.3086 17.4326C19.3086 17.043 18.9805 16.7266 18.5762 16.7266ZM24.6426 17.4326C24.6426 17.043 24.9707 16.7266 25.373 16.7266C25.7773 16.7266 26.1055 17.043 26.1055 17.4326C26.1055 17.8223 25.7773 18.1387 25.373 18.1387C24.9707 18.1387 24.6426 17.8223 24.6426 17.4326Z" fill="#A5A5A5"/>
</svg>
