<svg width="29" height="29" viewBox="0 0 29 29" fill="none" xmlns="http://www.w3.org/2000/svg">
<g opacity="0.8">
<rect width="28.8814" height="29" fill="black" fill-opacity="0"/>
<path d="M18.2622 10.2847L11.8301 16.2881C11.6041 16.499 11.4581 16.7823 11.4168 17.0893L11.1979 18.7194C11.1687 18.9369 10.8639 18.9588 10.8042 18.7478L9.96155 15.7751C9.86539 15.4358 10.0056 15.0736 10.3047 14.8886L18.0983 10.0684C18.2382 9.98204 18.3826 10.1724 18.2622 10.2847ZM14.4407 0C22.416 0 28.8814 6.52464 28.8814 14.5C28.8814 22.4754 22.416 29 14.4407 29C6.46531 29 0 22.4754 0 14.5C0 6.52464 6.46531 0 14.4407 0ZM21.3831 6.96728L5.01714 13.3067C4.61367 13.463 4.61677 14.0373 5.0219 14.1892C7.63 14.919 9.64415 16.9949 10.2947 19.6239L10.5532 20.6682C10.6521 20.9874 11.041 21.1051 11.2991 20.8938L13.5219 19.0742C13.755 18.8835 14.0865 18.8742 14.3298 19.0515L18.3394 21.9745C18.6154 22.1758 19.0063 22.024 19.0757 21.6887L22.0124 7.5035C22.0883 7.13769 21.7304 6.83272 21.3831 6.96728Z" fill="#8BA4CB"/>
</g>
</svg>
