<svg width="11" height="17" viewBox="0 0 11 17" fill="none" xmlns="http://www.w3.org/2000/svg">
<path d="M8.08462 10.2185C8.08462 9.05396 7.60233 8.03784 6.61816 7.39121C7.90579 6.78093 8.8 5.54309 8.8 4.08358C8.8 1.86598 6.83279 0 4.29269 0C1.64529 0 0 2.01374 0 3.47388C0 4.19442 0.733228 4.71172 1.37706 4.71172C2.59375 4.71172 2.30758 2.54954 4.32848 2.54954C5.259 2.54954 6.01012 3.28851 6.01012 4.26833C6.01012 6.85542 2.96932 4.95188 2.96932 7.13256C2.96932 9.07245 5.50882 7.7607 5.50882 9.81142C5.50882 10.514 5.02652 11.0498 4.22119 11.0498C2.52221 11.0498 2.75474 9.23927 1.53805 9.23927C0.804821 9.23927 0.375614 9.92283 0.375614 10.6064C0.375614 12.0475 2.28973 13.6 4.27484 13.6C6.85064 13.6 8.08462 11.6595 8.08462 10.2185Z" transform="translate(0 17) scale(1.25 -1.25)" fill="url(#paint0_linear)"/>
<defs>
<linearGradient id="paint0_linear" x2="1" gradientUnits="userSpaceOnUse" gradientTransform="translate(8.8) scale(8.8 13.6) rotate(90)">
<stop stop-color="#32BA7C"/>
<stop offset="1" stop-color="#54D5B2"/>
</linearGradient>
</defs>
</svg>
