<svg width="34" height="34" viewBox="0 0 34 34" fill="none" xmlns="http://www.w3.org/2000/svg">
<path d="M1.96778 0.0411381C1.68742 0.11152 1.40158 0.174025 1.11785 0.226664C0.376167 0.365587 -0.114175 1.08413 0.0230097 1.83189C0.0907612 2.19978 0.298183 2.50619 0.579787 2.70622C0.870015 2.91199 1.2394 3.0049 1.61579 2.93437C1.95367 2.8712 2.29419 2.79692 2.62834 2.71292C3.36074 2.52931 3.80694 1.7819 3.62422 1.04452C3.44194 0.306468 2.70062 -0.14262 1.96778 0.0411381Z" transform="translate(18.4668 31.0288)" fill="url(#paint0_linear)"/>
<path d="M0.396672 2.71197C0.492416 3.00263 0.675206 3.23991 0.906088 3.40386C1.24843 3.64674 1.69638 3.72846 2.12386 3.58607C2.84055 3.34636 3.22887 2.56789 2.99177 1.84634C2.88375 1.5174 2.76388 1.18743 2.6362 0.866147C2.35584 0.160123 1.5608 -0.183614 0.859532 0.0987961C0.158994 0.381059 -0.182395 1.18213 0.0981858 1.88837C0.205477 2.15842 0.305971 2.4356 0.396672 2.71197Z" transform="translate(30.1455 9.90381)" fill="url(#paint1_linear)"/>
<path d="M1.42471 0.228351C1.1836 0.388697 0.934741 0.543889 0.684053 0.689291C0.029998 1.06932 -0.194014 1.91147 0.183115 2.57001C0.28551 2.74913 0.421889 2.89556 0.578953 3.00747C1.00059 3.30629 1.57323 3.35106 2.04997 3.07439C2.34802 2.90123 2.64439 2.71703 2.93155 2.52577C3.56112 2.10679 3.73441 1.25257 3.31825 0.618101C2.90217 -0.0165854 2.0545 -0.19092 1.42471 0.228351Z" transform="translate(23.4512 28.8757)" fill="url(#paint2_linear)"/>
<path d="M2.73255 1.32279C2.7028 0.562871 2.06739 -0.0286001 1.31276 0.00106913C0.559091 0.0310328 -0.0285292 0.671314 0.00107096 1.43093C0.0123994 1.72137 0.0153232 2.01615 0.00867229 2.30629C-0.00192532 2.78284 0.229469 3.20763 0.589056 3.46295C0.803274 3.6149 1.06324 3.70685 1.34514 3.71333C2.09954 3.73019 2.72473 3.12746 2.74147 2.36717C2.749 2.02049 2.74614 1.66925 2.73255 1.32279Z" transform="translate(31.2544 15.1384)" fill="url(#paint3_linear)"/>
<path d="M2.78308 0.275896C2.17814 -0.18129 1.32229 -0.0571671 0.869221 0.551089C0.695713 0.784026 0.512996 1.01409 0.325893 1.23562C-0.163058 1.81428 -0.0939918 2.68345 0.480472 3.17634C0.513214 3.20432 0.546323 3.23001 0.580674 3.25416C1.15178 3.65973 1.9455 3.56653 2.40726 3.0207C2.63069 2.75641 2.84849 2.48158 3.05584 2.20337C3.50897 1.59511 3.38634 0.732419 2.78308 0.275896Z" transform="translate(27.5361 25.2063)" fill="url(#paint4_linear)"/>
<path d="M2.08834 0.0634174C1.36807 -0.164071 0.601022 0.239812 0.375329 0.965346C0.288941 1.24253 0.193196 1.52104 0.0898514 1.7938C-0.137084 2.39426 0.0803502 3.05493 0.578803 3.40897C0.670235 3.47369 0.770949 3.52853 0.88036 3.5702C1.58558 3.84128 2.37528 3.48488 2.64409 2.77421C2.76681 2.44991 2.88068 2.11855 2.98366 1.78902C3.20913 1.06334 2.80847 0.290906 2.08834 0.0634174Z" transform="translate(30.2397 20.4419)" fill="url(#paint5_linear)"/>
<path d="M14.4711 31.2679C13.2491 31.0469 12.0769 30.6705 10.9653 30.1456C10.9521 30.1387 10.9404 30.1308 10.9265 30.1245C10.6646 30.0003 10.4031 29.8672 10.1496 29.7282C10.1488 29.7272 10.1471 29.7265 10.1458 29.726C9.6807 29.468 9.22683 29.1826 8.7859 28.8699C2.35629 24.3076 0.81036 15.3267 5.33985 8.85022C6.32477 7.44244 7.51667 6.26796 8.84546 5.3371C8.86184 5.32562 8.87821 5.3142 8.89443 5.30265C13.5769 2.05272 19.9349 1.8337 24.907 5.17329L23.8391 6.72751C23.5422 7.1601 23.7249 7.47535 24.2446 7.42823L28.8832 7.00992C29.4036 6.9628 29.7148 6.50937 29.5748 6.00315L28.3292 1.48238C28.1897 0.975576 27.8327 0.914912 27.5355 1.34744L26.4652 2.90533C22.8164 0.43807 18.44 -0.502732 14.0962 0.256005C13.6587 0.332276 13.2274 0.425628 12.802 0.534292C12.7987 0.534881 12.796 0.535249 12.7934 0.535838C12.777 0.539887 12.7603 0.545262 12.7443 0.549753C8.99858 1.51868 5.7305 3.71928 3.39851 6.85907C3.37885 6.88255 3.35861 6.90552 3.34004 6.93107C3.2625 7.03627 3.18554 7.14391 3.11019 7.25154C2.98696 7.42794 2.86549 7.60875 2.74928 7.78956C2.73474 7.81135 2.72363 7.83351 2.71091 7.85553C0.786534 10.8593 -0.14167 14.332 0.0175131 17.8675C0.0178786 17.8791 0.0172208 17.8908 0.0175131 17.9027C0.0329345 18.2481 0.0601228 18.5982 0.0970317 18.9429C0.0990051 18.9651 0.103902 18.9862 0.107629 19.0084C0.145781 19.355 0.193653 19.7025 0.253657 20.0498C0.863494 23.5938 2.52315 26.7828 5.01008 29.2642C5.01586 29.27 5.02185 29.2763 5.0277 29.2824C5.02974 29.2847 5.03201 29.2858 5.03398 29.288C5.70214 29.9518 6.42892 30.5658 7.21146 31.121C9.25935 32.5746 11.5397 33.5354 13.9887 33.9781C14.7318 34.1126 15.4416 33.6143 15.5749 32.8662C15.7082 32.1175 15.214 31.4019 14.4711 31.2679Z" fill="url(#paint6_linear)"/>
<path d="M1.10632 0C0.49509 0 0 0.49915 0 1.11396V12.2121L10.0765 17.4591C10.2387 17.5437 10.4123 17.5835 10.5832 17.5835C10.9834 17.5835 11.37 17.364 11.5665 16.981C11.8468 16.4343 11.6347 15.7626 11.092 15.4803L2.21139 10.8556V1.11396C2.21132 0.49915 1.71681 0 1.10632 0Z" transform="translate(15.0552 6.00098)" fill="url(#paint7_linear)"/>
<defs>
<linearGradient id="paint0_linear" x2="1" gradientUnits="userSpaceOnUse" gradientTransform="translate(3.66515) scale(3.66515 2.95773) rotate(90)">
<stop stop-color="#F68B0E"/>
<stop offset="1" stop-color="#ECB11C"/>
</linearGradient>
<linearGradient id="paint1_linear" x2="1" gradientUnits="userSpaceOnUse" gradientTransform="translate(3.06136) scale(3.06136 3.65609) rotate(90)">
<stop stop-color="#F68B0E"/>
<stop offset="1" stop-color="#ECB11C"/>
</linearGradient>
<linearGradient id="paint2_linear" x2="1" gradientUnits="userSpaceOnUse" gradientTransform="translate(3.54485) scale(3.54485 3.25876) rotate(90)">
<stop stop-color="#F68B0E"/>
<stop offset="1" stop-color="#ECB11C"/>
</linearGradient>
<linearGradient id="paint3_linear" x2="1" gradientUnits="userSpaceOnUse" gradientTransform="translate(2.74555) scale(2.74555 3.71368) rotate(90)">
<stop stop-color="#F68B0E"/>
<stop offset="1" stop-color="#ECB11C"/>
</linearGradient>
<linearGradient id="paint4_linear" x2="1" gradientUnits="userSpaceOnUse" gradientTransform="translate(3.3294) scale(3.3294 3.50469) rotate(90)">
<stop stop-color="#F68B0E"/>
<stop offset="1" stop-color="#ECB11C"/>
</linearGradient>
<linearGradient id="paint5_linear" x2="1" gradientUnits="userSpaceOnUse" gradientTransform="translate(3.04647) scale(3.04647 3.661) rotate(90)">
<stop stop-color="#F68B0E"/>
<stop offset="1" stop-color="#ECB11C"/>
</linearGradient>
<linearGradient id="paint6_linear" x2="1" gradientUnits="userSpaceOnUse" gradientTransform="translate(29.6083) scale(29.6083 34) rotate(90)">
<stop stop-color="#F68B0E"/>
<stop offset="1" stop-color="#ECB11C"/>
</linearGradient>
<linearGradient id="paint7_linear" x2="1" gradientUnits="userSpaceOnUse" gradientTransform="translate(11.6902) scale(11.6902 17.5835) rotate(90)">
<stop stop-color="#F68B0E"/>
<stop offset="1" stop-color="#ECB11C"/>
</linearGradient>
</defs>
</svg>
