<svg width="37" height="33" viewBox="0 0 37 33" fill="none" xmlns="http://www.w3.org/2000/svg">
<rect width="37" height="33" fill="black" fill-opacity="0"/>
<path d="M34.7919 7.55525H28.6452V3.69747C28.6463 3.21173 28.5532 2.73056 28.3712 2.28156C28.1893 1.83257 27.9221 1.42459 27.585 1.08105C27.2479 0.737504 26.8475 0.465161 26.4068 0.279647C25.966 0.0941333 25.4937 -0.000898199 25.0169 6.39776e-06H11.5177C9.50755 6.39776e-06 7.84332 1.65 7.84332 3.69747V7.55525H2.20806C0.967712 7.55525 0 8.59848 0 9.86168V16.5C0 17.4559 0.511521 18.2765 1.36406 18.6194V32.1475C1.36337 32.2602 1.38479 32.372 1.42706 32.4762C1.46932 32.5804 1.53158 32.675 1.61018 32.7544C1.68879 32.8338 1.78216 32.8964 1.88482 32.9385C1.98749 32.9807 2.09738 33.0016 2.20806 32.9999H34.7919C34.9026 33.0016 35.0125 32.9807 35.1152 32.9385C35.2178 32.8964 35.3112 32.8338 35.3898 32.7544C35.4684 32.675 35.5307 32.5804 35.5729 32.4762C35.6152 32.372 35.6366 32.2602 35.6359 32.1475V18.6194C36.4885 18.2765 37 17.4557 37 16.5V9.86168C37 8.59848 36.0323 7.55525 34.7919 7.55525V7.55525ZM9.54839 3.69747C9.54839 2.60752 10.4476 1.73684 11.5177 1.73684H25.0169C25.2699 1.73567 25.5206 1.78559 25.7546 1.88373C25.9885 1.98186 26.2011 2.12626 26.3799 2.30858C26.5587 2.49089 26.7003 2.70751 26.7965 2.9459C26.8926 3.1843 26.9414 3.43974 26.9401 3.69747V7.55525H25.8318V4.17163C25.8351 3.99934 25.8043 3.82814 25.7412 3.66828C25.678 3.50842 25.5838 3.36318 25.4643 3.24126C25.3447 3.11934 25.2023 3.02324 25.0454 2.95873C24.8885 2.89421 24.7205 2.8626 24.5514 2.86579H11.9831C11.2564 2.86579 10.6567 3.43139 10.6567 4.17163V7.55525H9.54839V3.69747ZM24.1267 4.60262V7.55525H12.3618V4.60262H24.1267ZM33.9309 31.2631H3.06912V18.7578H14.3908C14.4078 19.8565 14.8482 20.9044 15.617 21.6752C16.3858 22.4461 17.4213 22.8781 18.5 22.8781C19.5787 22.8781 20.6142 22.4461 21.383 21.6752C22.1518 20.9044 22.5922 19.8565 22.6092 18.7578H33.9309V31.2631ZM16.1129 18.7127V15.8052H20.8871V18.7127C20.8871 19.3576 20.6356 19.9761 20.1879 20.4321C19.7403 20.8881 19.1331 21.1443 18.5 21.1443C17.8669 21.1443 17.2597 20.8881 16.8121 20.4321C16.3644 19.9761 16.1129 19.3576 16.1129 18.7127ZM35.2949 16.5C35.2989 16.5687 35.2886 16.6375 35.2648 16.7019C35.2411 16.7664 35.2043 16.8251 35.1569 16.8741C35.1095 16.9232 35.0526 16.9617 34.9897 16.987C34.9268 17.0123 34.8595 17.0239 34.7919 17.021H22.5922V14.9194C22.5939 14.8073 22.5736 14.696 22.5324 14.592C22.4911 14.4881 22.4298 14.3936 22.3521 14.3143C22.2743 14.2349 22.1817 14.1722 22.0797 14.13C21.9778 14.0878 21.8685 14.0668 21.7585 14.0684H15.2415C15.1315 14.0668 15.0222 14.0878 14.9203 14.13C14.8183 14.1722 14.7257 14.2349 14.6479 14.3143C14.5702 14.3936 14.5089 14.4881 14.4676 14.592C14.4264 14.696 14.4061 14.8073 14.4078 14.9194V17.021H2.20806C2.14053 17.0239 2.07317 17.0123 2.01031 16.987C1.94744 16.9617 1.89048 16.9232 1.84309 16.8741C1.79571 16.8251 1.75894 16.7664 1.73517 16.7019C1.71139 16.6375 1.70114 16.5687 1.70507 16.5V9.86168C1.70507 9.55617 1.90789 9.29208 2.20806 9.29208H34.7919C35.0918 9.29208 35.2949 9.55617 35.2949 9.86168V16.5Z" fill="#538CF8" fill-opacity="0.8"/>
</svg>
