<svg width="43" height="34" viewBox="0 0 43 34" fill="none" xmlns="http://www.w3.org/2000/svg">
<path fill-rule="evenodd" clip-rule="evenodd" d="M31.2666 0H2.42139C1.08594 0 0 1.07129 0 2.38794V19.4553C0 20.7722 1.08594 21.8435 2.42139 21.8435H4.29199V28.1973C4.29199 28.6018 4.53906 28.9666 4.91797 29.1216C5.04346 29.1729 5.17529 29.1978 5.30615 29.1978C5.56982 29.1978 5.82959 29.0959 6.02344 28.9048L13.1831 21.8435H14.6196C15.1802 21.8435 15.6343 21.3958 15.6343 20.843C15.6343 20.2905 15.1797 19.8425 14.6196 19.8425C14.6196 19.8425 12.7139 19.844 12.6943 19.8459C12.458 19.8618 12.2261 19.9578 12.0454 20.1357L6.32031 25.782C6.32031 25.782 6.31885 20.7798 6.31543 20.7539C6.26953 20.2432 5.83545 19.8425 5.30566 19.8425H2.42139C2.20508 19.8425 2.02881 19.6689 2.02881 19.4556V2.38794C2.02881 2.17432 2.20508 2.00073 2.42139 2.00073H31.2666C31.4829 2.00073 31.6592 2.17456 31.6592 2.38794V8.93604C31.6592 9.48853 32.1133 9.93652 32.6733 9.93652C33.2334 9.93652 33.688 9.48853 33.688 8.93604V2.38794C33.688 1.07129 32.6016 0 31.2666 0ZM40.5786 12.2368H20.3877C19.0527 12.2368 17.9663 13.3081 17.9663 14.6248V26.2681C17.9663 27.585 19.0522 28.6562 20.3877 28.6562H33.0283L38.1499 33.707C38.3438 33.8984 38.6035 34.0002 38.8672 34.0002C38.998 34.0002 39.1299 33.9751 39.2554 33.9238C39.6343 33.769 39.8813 33.4043 39.8813 32.9998V28.656H40.5786C41.9141 28.656 43 27.585 43 26.2681V14.6248C43 13.3081 41.9141 12.2368 40.5786 12.2368ZM40.9717 26.2681C40.9717 26.4817 40.7954 26.6553 40.5791 26.6553H38.8677C38.334 26.6553 37.8975 27.0623 37.8574 27.5786C37.8545 27.6003 37.853 30.5845 37.853 30.5845L34.1699 26.9519L34.1582 26.9407L34.1172 26.9041C33.9385 26.7495 33.7051 26.6553 33.4492 26.6553H20.3877C20.1714 26.6553 19.9951 26.4814 19.9951 26.2681V14.6248C19.9951 14.4111 20.1714 14.2375 20.3877 14.2375H40.5791C40.7954 14.2375 40.9717 14.4114 40.9717 14.6248V26.2681ZM29.4688 20.4465C29.4688 19.8943 29.9233 19.446 30.4829 19.446C31.043 19.446 31.4976 19.8943 31.4976 20.4465C31.4976 20.9988 31.043 21.4468 30.4829 21.4468C29.9233 21.4468 29.4688 20.9988 29.4688 20.4465ZM26.0747 6.61401H7.61279C7.05273 6.61401 6.59863 7.06177 6.59863 7.6145C6.59863 8.16699 7.05273 8.61475 7.61279 8.61475H26.0747C26.6348 8.61475 27.0889 8.16699 27.0889 7.6145C27.0889 7.06177 26.6348 6.61401 26.0747 6.61401ZM7.61279 13.2285H14.6196C15.1797 13.2285 15.6338 13.6763 15.6338 14.229C15.6338 14.7815 15.1797 15.2292 14.6196 15.2292H7.61279C7.05273 15.2292 6.59863 14.7815 6.59863 14.229C6.59863 13.6763 7.05273 13.2285 7.61279 13.2285ZM25.7695 19.446C25.21 19.446 24.7554 19.8943 24.7554 20.4465C24.7554 20.9988 25.21 21.4468 25.7695 21.4468C26.3296 21.4468 26.7842 20.9988 26.7842 20.4465C26.7842 19.8943 26.3296 19.446 25.7695 19.446ZM34.1816 20.4465C34.1816 19.8943 34.6362 19.446 35.1958 19.446C35.7559 19.446 36.2104 19.8943 36.2104 20.4465C36.2104 20.9988 35.7559 21.4468 35.1958 21.4468C34.6362 21.4468 34.1816 20.9988 34.1816 20.4465Z" fill="#538CF8" fill-opacity="0.8"/>
</svg>
