<svg width="29" height="29" viewBox="0 0 29 29" fill="none" xmlns="http://www.w3.org/2000/svg">
<g opacity="0.8">
<rect width="28.6803" height="28.7982" fill="black" fill-opacity="0"/>
<rect width="28.6803" height="28.7982" fill="black" fill-opacity="0"/>
<rect width="28.6803" height="28.7982" fill="black" fill-opacity="0"/>
<path d="M14.3402 0C6.43303 0 0 6.45946 0 14.3991C0 22.3381 6.43303 28.7982 14.3402 28.7982C22.2467 28.7982 28.6803 22.3381 28.6803 14.3991C28.6803 6.45946 22.2479 0 14.3402 0ZM20.7374 11.1035C20.7437 11.2462 20.7472 11.39 20.7472 11.5339C20.7472 15.9135 17.4282 20.9618 11.3556 20.9618C9.49157 20.9618 7.75638 20.4148 6.29613 19.4741C6.55433 19.5048 6.81715 19.5205 7.08344 19.5205C8.63032 19.5205 10.053 18.9904 11.1829 18.1018C9.73879 18.0751 8.51942 17.117 8.09949 15.7998C8.3005 15.8381 8.50787 15.8595 8.71986 15.8595C9.0208 15.8595 9.31308 15.8201 9.58976 15.7441C8.07985 15.4402 6.9425 14.101 6.9425 12.4944C6.9425 12.4804 6.9425 12.4659 6.94308 12.4526C7.38785 12.7003 7.89674 12.8499 8.4374 12.8667C7.55247 12.2734 6.96965 11.2584 6.96965 10.1088C6.96965 9.50098 7.13196 8.93142 7.41615 8.4419C9.04333 10.4475 11.4763 11.7665 14.2189 11.9057C14.1623 11.6626 14.134 11.4103 14.134 11.1499C14.134 9.32002 15.6115 7.8358 17.4339 7.8358C18.3836 7.8358 19.2402 8.23832 19.8432 8.88212C20.5959 8.73364 21.3006 8.45872 21.94 8.07766C21.6916 8.85196 21.17 9.50098 20.4867 9.91162C21.155 9.83158 21.7927 9.6541 22.3825 9.3902C21.9423 10.0537 21.3826 10.6378 20.7374 11.1035Z" fill="#B6C9E7"/>
</g>
</svg>
