<svg width="10" height="15" viewBox="0 0 10 15" fill="none" xmlns="http://www.w3.org/2000/svg">
<path d="M6.70994 2.18799C7.43762 2.18799 8 1.85657 8 1.09425C8 0.331424 7.43757 0 6.8096 0H1.28898C0.561301 0 0 0.331424 0 1.09425C0 1.44175 0.214307 1.74056 0.379558 1.9394C1.7517 3.57998 3.23957 5.072 4.49552 6.89539C4.79299 7.32624 5.07444 7.84 5.07444 8.43656C5.07444 9.11599 4.56214 9.71311 3.88404 9.71311C1.98306 9.71311 2.89197 7.02794 1.30552 7.02794C0.512293 7.02794 0.0986262 7.59137 0.0986262 8.23768C0.0986262 10.3262 1.95003 12 3.98323 12C6.01642 12 7.65244 10.6577 7.65244 8.55256C7.65244 6.24908 5.09098 3.96111 3.68576 2.18794H6.70994V2.18799Z" transform="translate(0 15) scale(1.25 -1.25)" fill="url(#paint0_linear)"/>
<defs>
<linearGradient id="paint0_linear" x2="1" gradientUnits="userSpaceOnUse" gradientTransform="translate(8) scale(8 12) rotate(90)">
<stop stop-color="#32BA7C"/>
<stop offset="1" stop-color="#54D5B2"/>
</linearGradient>
</defs>
</svg>
