<svg width="127" height="35" viewBox="0 0 127 35" fill="none" xmlns="http://www.w3.org/2000/svg">
<g opacity="0.7">
<path d="M78.8561 26.2543C77.0403 26.2543 74.3344 25.7026 74.0009 25.6278V22.945C74.8909 23.1284 77.1877 23.5087 78.8195 23.5087C80.709 23.5087 81.9322 21.9144 81.9322 19.084C81.9322 15.7375 81.377 13.9727 78.7453 13.9727H75.7059V11.2886H78.3742C81.377 11.2886 81.5244 8.23628 81.5244 6.76572C81.5244 3.86007 80.5978 2.68371 78.7453 2.68371C77.1144 2.68371 75.2607 3.08823 74.1862 3.30888V0.625172C74.5943 0.551189 76.7813 0 78.6708 0C82.4886 0 84.6751 1.61767 84.6751 7.09713C84.6751 9.59739 83.785 11.803 81.821 12.5022C84.0811 12.6488 85.119 15.1123 85.119 18.7163C85.119 24.1949 82.9705 26.2543 78.8561 26.2543ZM61.8082 2.68371C58.4736 2.68371 57.3607 4.92784 57.3607 13.0166C57.3607 20.9228 58.4736 23.5701 61.8082 23.5701C65.1438 23.5701 66.2557 20.9228 66.2557 13.0166C66.2557 4.92784 65.1438 2.68371 61.8082 2.68371ZM61.8082 26.2543C55.6932 26.2543 54.0618 21.8417 54.0618 12.8331C54.0618 4.19147 55.6932 0 61.8082 0C67.9237 0 69.5538 4.19147 69.5538 12.8331C69.5538 21.8417 67.9237 26.2543 61.8082 26.2543ZM43.3501 2.64779C41.311 2.64779 39.8663 2.86801 39.8663 2.86801V13.6046H43.3501C45.4254 13.6046 46.871 12.2439 46.871 8.23628C46.871 4.55879 45.9814 2.64779 43.3501 2.64779ZM42.9794 16.2891H39.8663V25.996H36.642V0.256989C36.642 0.256989 39.8292 0 42.9053 0C48.5389 0 50.1703 3.45598 50.1703 7.97886C50.1703 13.5687 48.2424 16.2891 42.9794 16.2891ZM26.2281 14.0463V25.996H22.8926V14.0463L16.259 0.256989H19.8161L24.7084 10.663L29.6007 0.256989H32.9729L26.2281 14.0463ZM8.93166 3.05231V25.996H5.70777V3.05231H0V0.256989H14.639V3.05231H8.93166Z" transform="translate(41.8809 8.74512)" fill="black"/>
<path d="M26.3467 23.5758C25.823 23.7289 25.4057 23.7817 24.8597 23.7817C20.3804 23.7817 13.8009 8.25143 13.8009 3.08261C13.8009 1.17853 14.2566 0.543836 14.8972 0C9.41396 0.63426 2.83361 2.62962 0.73086 5.16839C0.274291 5.80352 0 6.80077 0 8.06972C0 16.1403 8.68223 34.4555 14.806 34.4555C17.6388 34.4555 22.4168 29.8314 26.3467 23.5758Z" transform="translate(0 0.544434)" fill="#FF8700"/>
<path d="M3.2893 0C8.95564 0 14.6229 0.906829 14.6229 4.08029C14.6229 10.5185 10.5102 18.3165 8.40794 18.3165C4.66119 18.3165 0 7.98016 0 2.81134C0 0.453845 0.914008 0 3.2893 0Z" transform="translate(20.1982)" fill="#FF8700"/>
</g>
</svg>
