<svg width="14" height="16" viewBox="0 0 14 16" fill="none" xmlns="http://www.w3.org/2000/svg">
<path fill-rule="evenodd" clip-rule="evenodd" d="M7.01367 8.24963C9.25586 8.24963 11.0742 6.40289 11.0742 4.12481C11.0742 1.84674 9.25586 0 7.01367 0C4.77148 0 2.95312 1.84674 2.95312 4.12481C2.95312 6.40289 4.77148 8.24963 7.01367 8.24963ZM0 11.5932C0.378906 10.7287 1.66699 8.92459 3.7832 8.62461C4.12207 8.56211 4.36816 8.68711 4.67578 8.90585C4.9834 9.12459 5.99805 9.62456 7.16699 9.59332C8.33594 9.56207 9.25879 9.03084 9.41309 8.90585L9.45703 8.86805C9.60547 8.73801 9.82324 8.54836 10.5205 8.71835C11.2891 8.90585 13.0732 9.59332 13.9961 11.4682C14.0205 11.8432 13.9238 12.1036 13.873 12.1869C13.124 13.4786 10.7354 16.0493 7.16699 15.9993C2.86523 15.939 0.90918 13.2628 0.197266 12.2877L0.123047 12.1869C0.0556641 11.9813 0.0253906 11.9166 0.0117188 11.8486C0 11.7926 0 11.7343 0 11.5932Z" fill="#5C68C9"/>
</svg>
