<svg width="16" height="15" viewBox="0 0 16 15" fill="none" xmlns="http://www.w3.org/2000/svg">
<path d="M15.5416 7.07086C15.2869 7.07086 15.0832 7.28344 15.0832 7.54916V11.8999C15.0832 13.0833 14.1596 14.0434 13.0289 14.0434H2.97114C1.83701 14.0434 0.916808 13.0797 0.916808 11.8999V7.4783C0.916808 7.21258 0.713073 7 0.458404 7C0.203735 7 0 7.21258 0 7.4783V11.8999C0 13.6112 1.33447 15 2.97114 15H13.0289C14.6689 15 16 13.6076 16 11.8999V7.54916C16 7.28698 15.7963 7.07086 15.5416 7.07086Z" fill="white"/>
<path d="M4.81 3.5919L7.02405 1.52054V10.5547C7.02405 10.8021 7.23558 11 7.5 11C7.76442 11 7.97595 10.8021 7.97595 10.5547V1.52054L10.19 3.5919C10.2817 3.67766 10.4051 3.72384 10.5249 3.72384C10.6483 3.72384 10.7682 3.68096 10.8599 3.5919C11.0467 3.41709 11.0467 3.13673 10.8599 2.96192L7.83493 0.131934C7.74679 0.0494753 7.62339 0 7.5 0C7.37308 0 7.25321 0.0461769 7.16507 0.131934L4.14014 2.96192C3.95329 3.13673 3.95329 3.41709 4.14014 3.5919C4.32347 3.76342 4.62667 3.76342 4.81 3.5919Z" fill="white"/>
</svg>
