<svg width="12" height="14" viewBox="0 0 12 14" fill="none" xmlns="http://www.w3.org/2000/svg">
<path fill-rule="evenodd" clip-rule="evenodd" d="M6.01172 7.21851C7.93359 7.21851 9.49219 5.60254 9.49219 3.60913C9.49219 1.61597 7.93359 0 6.01172 0C4.08984 0 2.53125 1.61597 2.53125 3.60913C2.53125 5.60254 4.08984 7.21851 6.01172 7.21851ZM0 10.144C0.325195 9.3877 1.42871 7.80908 3.24316 7.54663C3.5332 7.49194 3.74414 7.60132 4.00781 7.79272C4.27148 7.98413 5.1416 8.42163 6.14355 8.39429C7.14551 8.36694 7.93652 7.9021 8.06836 7.79272L8.10645 7.75952C8.23438 7.64575 8.41992 7.47998 9.01758 7.62866C9.67676 7.79272 11.2061 8.39429 11.9971 10.0347C12.0176 10.3628 11.9355 10.5906 11.8916 10.6636C11.25 11.7937 9.20215 14.0432 6.14355 13.9993C2.45801 13.9468 0.78125 11.6067 0.169922 10.7527L0.105469 10.6636C0.0478516 10.4836 0.0214844 10.427 0.00976562 10.3677C0 10.3186 0 10.2676 0 10.144Z" fill="white"/>
</svg>
