<svg width="30" height="38" viewBox="0 0 30 38" fill="none" xmlns="http://www.w3.org/2000/svg">
<path d="M30 37.0333V31.7047C30 25.1107 25.6349 19.5069 19.627 17.5735C22.5159 15.9624 24.4762 12.8972 24.4762 9.38407C24.4762 4.21262 20.2222 0 15 0C9.77778 0 5.52381 4.21262 5.52381 9.38407C5.52381 12.8972 7.48413 15.9624 10.373 17.5735C4.35714 19.5069 0 25.1107 0 31.7047V37.0333C0 37.5677 0.436508 38 0.976191 38H29.0397C29.5635 37.9921 30 37.5677 30 37.0333ZM7.46032 9.38407C7.46032 5.27363 10.8413 1.92554 14.9921 1.92554C19.1429 1.92554 22.5238 5.27363 22.5238 9.38407C22.5238 13.4945 19.1429 16.8426 14.9921 16.8426C10.8413 16.8426 7.46032 13.4945 7.46032 9.38407ZM28.0556 36.0666H1.92857V31.6968C1.92857 24.5684 7.78571 18.7603 14.9921 18.7603C22.1984 18.7603 28.0556 24.5605 28.0556 31.6968V36.0666Z" fill="url(#paint0_linear)" fill-opacity="0.5"/>
<defs>
<linearGradient id="paint0_linear" x2="1" gradientUnits="userSpaceOnUse" gradientTransform="translate(30) scale(30 38) rotate(90)">
<stop stop-color="#BF002E"/>
<stop offset="1" stop-color="#EC1C73"/>
</linearGradient>
</defs>
</svg>
