<svg width="34" height="27" viewBox="0 0 34 27" fill="none" xmlns="http://www.w3.org/2000/svg">
<path d="M7.17956 4.20014L0.880194 0.0914397C0.703811 -0.0230168 0.48047 -0.0306478 0.296643 0.0720695C0.113961 0.175374 0 0.372592 0 0.586831V8.80422C0 9.01846 0.113961 9.21568 0.297215 9.31898C0.383116 9.36711 0.477607 9.39118 0.57267 9.39118C0.679759 9.39118 0.786848 9.36007 0.880194 9.29961L7.17956 5.19092C7.34449 5.08292 7.44471 4.89627 7.44471 4.69553C7.44471 4.49479 7.34449 4.30814 7.17956 4.20014ZM1.14534 7.73538V1.65568L5.80515 4.69553L1.14534 7.73538Z" transform="translate(13.8086 8.80447)" fill="url(#paint0_linear)"/>
<path d="M32.6422 0H26.9155H6.29937H0.57267C0.256556 0 0 0.26237 0 0.586957V7.04348V13.5V19.9565V26.413C0 26.7376 0.256556 27 0.57267 27H6.29937H26.9155H32.6422C32.9583 27 33.2148 26.7376 33.2148 26.413V19.9565V13.5V7.04348V0.586957C33.2148 0.26237 32.9583 0 32.6422 0ZM5.7267 12.913H1.14534V7.63043H5.7267V12.913ZM1.14534 14.087H5.7267V19.3696H1.14534V14.087ZM6.87204 19.9565V13.5V7.04348V1.17391H26.3428V7.04348V13.5V19.9565V25.8261H6.87204V19.9565ZM32.0695 12.913H27.4881V7.63043H32.0695V12.913ZM27.4881 14.087H32.0695V19.3696H27.4881V14.087ZM32.0695 1.17391V6.45652H27.4881V1.17391H32.0695ZM1.14534 1.17391H5.7267V6.45652H1.14534V1.17391ZM1.14534 25.8261V20.5435H5.7267V25.8261H1.14534ZM32.0695 25.8261H27.4881V20.5435H32.0695V25.8261Z" transform="translate(0.0664062)" fill="url(#paint1_linear)"/>
<defs>
<linearGradient id="paint0_linear" x2="1" gradientUnits="userSpaceOnUse" gradientTransform="translate(-0.957964 1.65591) scale(7.44471 9.39118) rotate(-17.7583)">
<stop stop-color="#F6633A"/>
<stop offset="0.988782" stop-color="#FB9E41"/>
</linearGradient>
<linearGradient id="paint1_linear" x2="1" gradientUnits="userSpaceOnUse" gradientTransform="translate(-4.27399 4.7608) scale(33.2148 27) rotate(-17.7583)">
<stop stop-color="#F6633A"/>
<stop offset="0.988782" stop-color="#FB9E41"/>
</linearGradient>
</defs>
</svg>
