<svg width="14" height="14" viewBox="0 0 14 14" fill="none" xmlns="http://www.w3.org/2000/svg">
<path d="M7 0C3.13406 0 0 3.134 0 7C0 10.866 3.13406 14 7 14C10.8659 14 14 10.866 14 7C14 3.134 10.8659 0 7 0ZM9.41938 7.37105L5.91937 9.55855C5.84855 9.60277 5.76803 9.625 5.6875 9.625C5.61455 9.625 5.54148 9.60684 5.47537 9.57009C5.3363 9.49298 5.25 9.34664 5.25 9.1875V4.8125C5.25 4.65336 5.3363 4.50702 5.47537 4.42991C5.61444 4.35236 5.78449 4.35706 5.91937 4.44145L9.41938 6.62895C9.54723 6.70906 9.625 6.8492 9.625 7C9.625 7.1508 9.54723 7.29097 9.41938 7.37105Z" fill="white"/>
</svg>
