<svg width="21" height="15" viewBox="0 0 21 15" fill="none" xmlns="http://www.w3.org/2000/svg">
<path d="M4.41767 0.175351L3.84155 0.0143836C3.7674 -0.0108193 3.69435 -0.00289347 3.62332 0.0380944C3.55206 0.0791154 3.50394 0.140697 3.47921 0.222739L0.0141217 12.4457C-0.010607 12.5278 -0.00286266 12.6052 0.0373867 12.6777C0.0776361 12.7503 0.137929 12.7992 0.218557 12.8244L0.79451 12.9855C0.868827 13.0109 0.941614 13.0029 1.01284 12.9619C1.0841 12.9206 1.13212 12.8593 1.15682 12.7774L4.62201 0.554156C4.6467 0.472114 4.63902 0.394715 4.59871 0.322058C4.55843 0.249434 4.4982 0.20052 4.41767 0.175351Z" transform="translate(8.18164 14) scale(1 -1)" fill="#646464" stroke="#646464" stroke-width="0.5"/>
<path d="M5.40672 0.785932C5.40672 0.70389 5.37571 0.631233 5.31379 0.568159L4.84925 0.094743C4.78733 0.0316363 4.71607 0 4.63557 0C4.55507 0 4.48378 0.0316695 4.4219 0.094743L0.0929282 4.50671C0.030911 4.56981 0 4.64244 0 4.72448C0 4.80652 0.0310086 4.87915 0.0929282 4.94222L4.42186 9.35418C4.48375 9.41739 4.55491 9.44883 4.63554 9.44883C4.71617 9.44883 4.78733 9.41729 4.84922 9.35418L5.31376 8.88103C5.37568 8.81796 5.40669 8.7453 5.40669 8.66316C5.40669 8.58122 5.37568 8.50859 5.31376 8.44552L1.66291 4.72448L5.31379 1.0037C5.37581 0.940631 5.40672 0.867974 5.40672 0.785932Z" transform="translate(1 12.2246) scale(1 -1)" fill="#646464" stroke="#646464" stroke-width="0.5"/>
<path d="M5.3135 4.50671L0.984433 0.094743C0.922546 0.0316695 0.851255 0 0.770887 0C0.690258 0 0.619228 0.0316695 0.557113 0.094743L0.0927649 0.568126C0.0308779 0.631233 0 0.703757 0 0.785899C0 0.86804 0.0308453 0.940598 0.0927649 1.00367L3.74371 4.72455L0.0927649 8.44562C0.0308779 8.50869 0 8.58135 0 8.66326C0 8.74543 0.0308453 8.81806 0.0927649 8.88113L0.557113 9.35428C0.619228 9.41749 0.690291 9.44893 0.770887 9.44893C0.851288 9.44893 0.922546 9.41739 0.984433 9.35428L5.3135 4.94235C5.37542 4.87928 5.40636 4.80652 5.40636 4.72448C5.40636 4.64241 5.37542 4.56978 5.3135 4.50671Z" transform="translate(14.5938 12.2246) scale(1 -1)" fill="#646464" stroke="#646464" stroke-width="0.5"/>
</svg>
