<svg width="47" height="30" viewBox="0 0 47 30" fill="none" xmlns="http://www.w3.org/2000/svg">
<rect width="550.385" height="345.141" fill="black" fill-opacity="0" transform="translate(0.748047 29.5469) scale(0.0838972 -0.0838972)"/>
<path d="M46.9238 29.5469H0.748047V0.590506H46.9238V29.5469Z" fill="white"/>
<path d="M1.51758 24.8409H46.1543V28.792H1.51758V24.8409Z" fill="#F9AB0C"/>
<path d="M1.51758 5.30078H46.1543V1.35045H1.51758V5.30078Z" fill="#1B54A2"/>
<rect width="174.12" height="35.731" fill="black" fill-opacity="0" transform="translate(24.9414 23.3916) scale(0.0838972 -0.0838972)"/>
<path d="M26.4113 22.0321H25.3121V23.042H26.5418V23.3457H24.9414V20.5433H26.4787V20.847H25.3121V21.7322H26.4113V22.0321Z" fill="#2753A5"/>
<path d="M27.1094 20.3937H27.4798V23.3457H27.1094V20.3937Z" fill="#2753A5"/>
<path d="M29.5024 22.144C29.5065 21.9155 29.4055 21.5539 28.9884 21.5539C28.6098 21.5539 28.4498 21.8907 28.4201 22.144H29.5024ZM28.416 22.4059C28.4245 22.9012 28.7403 23.1046 29.1151 23.1046C29.3804 23.1046 29.5447 23.0588 29.6795 23.0009L29.7467 23.2623C29.6165 23.3207 29.3889 23.3916 29.0643 23.3916C28.4373 23.3916 28.0625 22.9799 28.0625 22.3731C28.0625 21.766 28.4245 21.2917 29.0182 21.2917C29.6877 21.2917 29.8603 21.8656 29.8603 22.2356C29.8603 22.3102 29.8561 22.3642 29.8477 22.4059H28.416Z" fill="#2753A5"/>
<path d="M31.8757 23.2749C31.7789 23.3207 31.5637 23.3916 31.2902 23.3916C30.6753 23.3916 30.2754 22.9799 30.2754 22.3642C30.2754 21.7452 30.705 21.2917 31.3705 21.2917C31.5892 21.2917 31.7829 21.3456 31.884 21.4003L31.7999 21.6783C31.7112 21.6325 31.5725 21.5827 31.3705 21.5827C30.9029 21.5827 30.6501 21.9276 30.6501 22.344C30.6501 22.8096 30.9534 23.0965 31.3577 23.0965C31.5684 23.0965 31.7071 23.0467 31.8121 23.0009L31.8757 23.2749Z" fill="#2753A5"/>
<path d="M32.9144 20.8511V21.3334H33.445V21.6118H32.9144V22.6972C32.9144 22.9462 32.9862 23.0879 33.1925 23.0879C33.2935 23.0879 33.3525 23.0796 33.4071 23.0629L33.4243 23.3418C33.3525 23.3668 33.2389 23.3916 33.0956 23.3916C32.9229 23.3916 32.7836 23.3329 32.6955 23.2375C32.5945 23.1254 32.5525 22.9462 32.5525 22.7099V21.6118H32.2363V21.3334H32.5525V20.9589L32.9144 20.8511Z" fill="#2753A5"/>
<path d="M33.9622 21.9612C33.9622 21.7241 33.9579 21.5206 33.9453 21.3333H34.2699L34.2865 21.7322H34.2991C34.3916 21.4621 34.6193 21.2916 34.8674 21.2916C34.9054 21.2916 34.9351 21.2956 34.969 21.2997V21.6454C34.9307 21.6365 34.8931 21.6365 34.8423 21.6365C34.5813 21.6365 34.396 21.8278 34.3455 22.1027C34.337 22.1525 34.3329 22.2145 34.3329 22.2732V23.3457H33.9622V21.9612Z" fill="#2753A5"/>
<path d="M35.6349 22.344C35.6349 22.7845 35.8875 23.1168 36.2497 23.1168C36.6037 23.1168 36.8688 22.7886 36.8688 22.3353C36.8688 21.9944 36.696 21.566 36.2578 21.566C35.8241 21.566 35.6349 21.9653 35.6349 22.344ZM37.2477 22.3232C37.2477 23.0669 36.7213 23.3916 36.2328 23.3916C35.6855 23.3916 35.2559 22.992 35.2559 22.3561C35.2559 21.6864 35.7065 21.2917 36.2664 21.2917C36.8518 21.2917 37.2477 21.7115 37.2477 22.3232Z" fill="#2753A5"/>
<path d="M37.8136 21.878C37.8136 21.6662 37.8097 21.4999 37.7969 21.3333H38.1252L38.1463 21.6662H38.1547C38.256 21.4789 38.4916 21.2916 38.8287 21.2916C39.1107 21.2916 39.5488 21.4581 39.5488 22.148V23.3457H39.1781V22.1857C39.1781 21.8615 39.0561 21.5907 38.7067 21.5907C38.4664 21.5907 38.2767 21.7618 38.2096 21.9652C38.1927 22.0111 38.1842 22.0733 38.1842 22.1358V23.3457H37.8136V21.878Z" fill="#2753A5"/>
<rect width="365.206" height="127.904" fill="black" fill-opacity="0" transform="translate(8.94922 19.3174) scale(0.0838972 -0.0838972)"/>
<path d="M17.9102 19.1631L19.6041 8.76727H22.3135L20.6181 19.1631H17.9102Z" fill="#1B54A2"/>
<path d="M30.4471 9.02311C29.9102 8.81292 29.0689 8.58659 28.018 8.58659C25.3409 8.58659 23.4549 9.99672 23.4389 12.0176C23.4236 13.511 24.7853 14.3445 25.8133 14.8422C26.8681 15.3515 27.2221 15.6762 27.2174 16.131C27.2109 16.8289 26.3753 17.1469 25.5963 17.1469C24.5116 17.1469 23.9353 16.9892 23.0455 16.6007L22.6964 16.4354L22.3164 18.7628C22.9489 19.0525 24.1196 19.3044 25.3351 19.3174C28.1832 19.3174 30.032 17.9242 30.0535 15.7651C30.0636 14.5835 29.3417 13.6835 27.7784 12.9411C26.8312 12.4601 26.2506 12.1394 26.2572 11.6525C26.2572 11.22 26.7479 10.7579 27.809 10.7579C28.6947 10.7437 29.337 10.9465 29.837 11.1567L30.08 11.2766L30.4471 9.02311Z" fill="#1B54A2"/>
<path d="M34.0534 15.4771C34.2778 14.8781 35.1329 12.5715 35.1329 12.5715C35.1171 12.5993 35.3554 11.9692 35.4925 11.5799L35.6756 12.4758C35.6756 12.4758 36.1945 14.9571 36.3026 15.4771H34.0534ZM37.3947 8.77696H35.3011C34.6525 8.77696 34.1672 8.96203 33.8823 9.6384L29.8574 19.166H32.7031C32.7031 19.166 33.1685 17.8847 33.2738 17.6037C33.5847 17.6037 36.3487 17.6085 36.744 17.6085C36.825 17.9715 37.0742 19.166 37.0742 19.166H39.5885L37.3947 8.77696Z" fill="#1B54A2"/>
<path d="M15.6376 8.77524L12.9847 15.8642L12.7019 14.4232C12.2081 12.7627 10.6695 10.9632 8.94922 10.0619L11.3748 19.1543L14.242 19.1503L18.5078 8.77524H15.6376Z" fill="#1B54A2"/>
<path d="M10.5231 8.76915H6.15353L6.11914 8.98472C9.51861 9.84562 11.7681 11.9254 12.7016 14.4238L11.7514 9.64702C11.5876 8.98824 11.1116 8.7915 10.5231 8.76915Z" fill="#F89C0E"/>
</svg>
