<svg width="45" height="15" viewBox="0 0 45 15" fill="none" xmlns="http://www.w3.org/2000/svg">
<rect width="420.167" height="133.044" fill="black" fill-opacity="0" transform="translate(0.785156 14.4883) scale(0.105061 -0.105061)"/>
<rect width="384.644" height="133.044" fill="black" fill-opacity="0" transform="translate(4.51758 14.4883) scale(0.105061 -0.105061)"/>
<path d="M16.3359 14.2871L18.5704 0.745642H22.1436L19.9078 14.2871H16.3359Z" fill="#1B54A2"/>
<path d="M32.8702 1.0791C32.162 0.805614 31.0527 0.510503 29.6668 0.510503C26.1354 0.510503 23.6483 2.3474 23.6268 4.98014C23.6068 6.92516 25.4026 8.01076 26.7588 8.65877C28.1497 9.3223 28.6167 9.7454 28.6105 10.3382C28.6016 11.247 27.4999 11.6612 26.4722 11.6612C25.0417 11.6612 24.2816 11.4556 23.1081 10.9493L22.6478 10.7343L22.1465 13.7662C22.9808 14.1435 24.5248 14.4717 26.1275 14.4883C29.8841 14.4883 32.3224 12.6738 32.3509 9.8609C32.3645 8.32243 31.412 7.14954 29.3502 6.18273C28.1011 5.55636 27.3355 5.13835 27.3438 4.50436C27.3438 3.94084 27.991 3.33909 29.3907 3.33909C30.5587 3.32053 31.406 3.58464 32.0655 3.85813L32.3862 4.01457L32.8702 1.0791Z" fill="#1B54A2"/>
<path d="M37.6279 9.48652C37.9236 8.70673 39.0519 5.70205 39.0519 5.70205C39.0305 5.7384 39.3449 4.91794 39.5258 4.41037L39.7672 5.57739C39.7672 5.57739 40.4519 8.80926 40.5944 9.48652H37.6279ZM42.0348 0.759428H39.2735C38.418 0.759428 37.7777 1.00035 37.402 1.88138L32.0938 14.292H35.8467C35.8467 14.292 36.4607 12.623 36.5995 12.2571C37.0095 12.2571 40.6549 12.2627 41.1763 12.2627C41.2833 12.7362 41.6116 14.292 41.6116 14.292H44.928L42.0348 0.759428Z" fill="#1B54A2"/>
<path d="M13.3395 0.755533L9.84042 9.9897L9.46752 8.11284C8.81619 5.9495 6.78653 3.60581 4.51758 2.43169L7.71682 14.2754L11.4982 14.2703L17.1248 0.755533H13.3395Z" fill="#1B54A2"/>
<path d="M6.59362 0.748805H0.830561L0.785156 1.0292C5.26852 2.15069 8.23549 4.85944 9.46693 8.11426L8.21331 1.89167C7.99754 1.03375 7.36994 0.777333 6.59362 0.748805Z" fill="#F89C0E"/>
</svg>
