<svg width="57" height="25" viewBox="0 0 57 25" fill="none" xmlns="http://www.w3.org/2000/svg">
<rect width="551.266" height="234.66" fill="black" fill-opacity="0" transform="translate(0.486328 24.0479) scale(0.102095 -0.102095)"/>
<rect width="319.257" height="111.401" fill="black" fill-opacity="0" transform="translate(16.1309 24.0479) scale(0.102095 -0.102095)"/>
<path d="M23.2469 12.8776L20.4261 20.3867L20.1255 18.8603C19.423 16.9896 17.902 15.027 16.1309 14.2318L18.7118 23.874L21.7618 23.8724L26.2986 12.8776H23.2469Z" fill="#264391"/>
<path d="M25.666 23.8857L27.4693 12.8664H30.3512L28.5469 23.8857H25.666Z" fill="#264391"/>
<path d="M38.9999 13.1383C38.4302 12.916 37.5316 12.6744 36.4173 12.6744C33.5662 12.6744 31.5633 14.1706 31.546 16.3099C31.5274 17.8946 32.9779 18.779 34.0685 19.3056C35.1935 19.8441 35.5692 20.19 35.5659 20.672C35.5553 21.4108 34.6657 21.7469 33.8389 21.7469C32.687 21.7469 32.0732 21.5803 31.1291 21.1705L30.7545 20.995L30.3516 23.4609C31.0255 23.7685 32.2701 24.0341 33.5639 24.0479C36.5893 24.0479 38.5578 22.569 38.5813 20.2851C38.5933 19.0276 37.8237 18.0766 36.1592 17.2913C35.1543 16.7807 34.5332 16.442 34.5425 15.9239C34.5435 15.4664 35.0637 14.9769 36.1937 14.9769C37.1373 14.9615 37.8163 15.1746 38.3504 15.3999L38.6076 15.5261L38.9999 13.1383Z" fill="#264391"/>
<path d="M42.8381 19.9777C43.0772 19.3455 43.9864 16.8977 43.9864 16.8977C43.9684 16.9278 44.2225 16.2605 44.3694 15.8483L44.5613 16.7976C44.5613 16.7976 45.1147 19.4275 45.2307 19.9777C44.7815 19.9777 43.3997 19.9777 42.8381 19.9777ZM46.3919 12.8775H44.1654C43.4751 12.8775 42.9583 13.0716 42.6534 13.7924L38.375 23.8887H41.4017C41.4017 23.8887 41.8966 22.5295 42.009 22.2311C42.3392 22.2311 45.2788 22.2383 45.6984 22.2383C45.7873 22.6229 46.0494 23.8887 46.0494 23.8887H48.7254L46.3919 12.8775Z" fill="#264391"/>
<path d="M17.8097 12.8714H13.162L13.1348 13.0609C16.7487 13.9732 19.1327 16.2138 20.1256 18.8633L19.1154 13.7997C18.9417 13.1026 18.4362 12.8953 17.8097 12.8714Z" fill="#F79118"/>
<rect width="551.266" height="117.533" fill="black" fill-opacity="0" transform="translate(0.486328 12.0898) scale(0.102095 -0.102095)"/>
<path d="M4.4441 10.209H2.60589L0.486328 0.775031L2.51753 0.439923L3.96777 7.82277L7.66247 0.5373H9.61363L4.4441 10.209Z" fill="#264391"/>
<path d="M11.4224 4.44423C10.7441 4.44423 10.11 4.97451 9.81078 6.0772H12.5249C12.575 5.03025 12.2425 4.44423 11.4224 4.44423ZM14.0017 7.12391H9.61945C9.49947 8.43555 10.117 9.0078 11.1633 9.0078C12.0399 9.0078 12.8109 8.68646 13.641 8.17095L13.6343 9.48259C12.8205 9.98424 11.8801 10.3057 10.7774 10.3057C8.86905 10.3057 7.60847 9.23109 7.98714 6.80257C8.32895 4.61153 9.86418 3.28579 11.6457 3.28579C13.6954 3.28579 14.3771 4.80729 14.0791 6.71896C14.0575 6.85831 14.0169 7.02653 14.0017 7.12391Z" fill="#264391"/>
<path d="M16.8575 6.30168L16.255 10.167H14.5586L15.6096 3.4259H17.0516L17.0522 4.78018C17.6265 3.99908 18.4078 3.34229 19.4763 3.28655L19.4864 4.9474C18.4151 5.01724 17.4515 5.5753 16.8575 6.30168Z" fill="#264391"/>
<path d="M21.5538 2.29626C20.9888 2.29626 20.5972 1.90533 20.6846 1.34693C20.7739 0.774761 21.2891 0.369729 21.8541 0.369729C22.4062 0.369729 22.7951 0.774761 22.7058 1.34693C22.6191 1.90533 22.1059 2.29626 21.5538 2.29626ZM19.4648 10.167L20.5155 3.4259H22.2121L21.1612 10.167H19.4648Z" fill="#264391"/>
<path d="M26.9088 1.58399C26.3288 1.58399 25.9791 1.8349 25.885 2.43561L25.7309 3.4259H27.0314L27.03 4.79428H25.5177L24.6796 10.167H22.9975L23.8356 4.79428H22.8457L23.0593 3.4259H24.0485L24.2292 2.26772C24.462 0.77476 25.51 0.216613 26.9098 0.216613C27.2067 0.216613 27.4283 0.244483 27.594 0.272353L27.607 1.63973C27.4416 1.61186 27.1915 1.58399 26.9088 1.58399Z" fill="#264391"/>
<path d="M29.0177 2.29626C28.4521 2.29626 28.0608 1.90533 28.1478 1.34693C28.2372 0.774761 28.7523 0.369729 29.3181 0.369729C29.8691 0.369729 30.2584 0.774761 30.1693 1.34693C30.0824 1.90533 29.5692 2.29626 29.0177 2.29626ZM26.9277 10.167L27.9788 3.4259H29.6755L28.6244 10.167H26.9277Z" fill="#264391"/>
<path d="M33.6728 4.44423C32.9938 4.44423 32.3604 4.97451 32.0608 6.0772H34.7749C34.8254 5.03025 34.4925 4.44423 33.6728 4.44423ZM36.2521 7.12391H31.8695C31.7498 8.43555 32.3674 9.0078 33.4137 9.0078C34.2899 9.0078 35.0613 8.68646 35.8909 8.17095L35.884 9.48259C35.0709 9.98424 34.1299 10.3057 33.0271 10.3057C31.1187 10.3057 29.8585 9.23109 30.2372 6.80257C30.579 4.61153 32.1142 3.28579 33.8957 3.28579C35.9455 3.28579 36.6274 4.80729 36.3291 6.71896C36.3075 6.85831 36.267 7.02653 36.2521 7.12391Z" fill="#264391"/>
<path d="M41.8422 4.98861C41.4489 4.79352 41.139 4.69573 40.5594 4.69573C39.6685 4.69573 38.9072 5.40665 38.677 6.88618C38.4727 8.19781 38.942 8.81204 39.6915 8.81204C40.3136 8.81204 40.8503 8.44965 41.3898 7.89125L41.8422 4.98861ZM41.2755 10.1662L41.2798 9.23109C40.7102 9.80292 39.9675 10.3057 39.0201 10.3057C37.5925 10.3057 36.6109 9.25896 36.9653 6.98389C37.3569 4.4721 38.9301 3.35563 40.5135 3.35563C41.1639 3.35563 41.6695 3.46711 42.0578 3.60646L42.565 0.355201L44.3026 0.0902708L42.7317 10.1662H41.2755Z" fill="#264391"/>
<path d="M48.8787 6.0749C48.4502 6.0749 48.02 6.36116 47.6397 6.74159L47.279 9.05662C47.5317 9.15173 47.7068 9.1937 48.0709 9.1937C48.8847 9.1937 49.4534 8.70741 49.6347 7.54494C49.7879 6.56187 49.457 6.0749 48.8787 6.0749ZM47.9307 10.2295C47.1275 10.2295 46.4728 10.1033 45.8633 9.89212L46.9794 2.73517L48.2954 2.53445L47.8128 5.63159C48.1971 5.29288 48.7316 4.95508 49.3853 4.95508C50.4778 4.95508 51.2088 5.75852 50.9418 7.47116C50.6489 9.35235 49.4727 10.2295 47.9307 10.2295Z" fill="#264391"/>
<path d="M53.9686 10.4414C53.3123 11.6986 52.6622 12.0898 51.666 12.0898C51.4411 12.0898 51.3166 12.0691 51.2036 12.0374L51.1953 10.9913C51.3601 11.0333 51.5372 11.0651 51.7832 11.0651C52.1582 11.0651 52.4844 10.8962 52.7031 10.5257L52.8731 10.1879L51.7836 5.15518L53.1488 4.98628L53.7812 8.62318L55.4925 5.06107H56.7674L53.9686 10.4414Z" fill="#264391"/>
</svg>
