<svg width="29" height="29" viewBox="0 0 29 29" fill="none" xmlns="http://www.w3.org/2000/svg">
<g opacity="0.8">
<rect width="28.8814" height="29" fill="black" fill-opacity="0"/>
<rect width="28.8814" height="29" fill="black" fill-opacity="0"/>
<rect width="28.8814" height="29" fill="black" fill-opacity="0"/>
<path d="M11.8101 17.6782C13.977 16.55 16.125 15.4321 18.2928 14.3033C16.1185 13.164 13.9711 12.0396 11.8101 10.9072C11.8101 13.172 11.8101 15.4137 11.8101 17.6782Z" fill="#8BA4CB"/>
<path d="M14.4407 0C6.46558 0 0 6.49185 0 14.5C0 22.5082 6.46558 29 14.4407 29C22.4158 29 28.8814 22.5082 28.8814 14.5C28.8814 6.49185 22.4158 0 14.4407 0ZM24.2798 19.34C24.0299 20.4288 23.1429 21.2319 22.0754 21.3514C19.5471 21.6353 16.9884 21.6368 14.4401 21.6353C11.8917 21.6368 9.33244 21.6353 6.80359 21.3514C5.73609 21.2319 4.8497 20.4288 4.60033 19.34C4.24489 17.7889 4.24489 16.0964 4.24489 14.5C4.24489 12.9036 4.24903 11.2105 4.60447 9.66004C4.85384 8.57124 5.74022 7.76785 6.80773 7.64799C9.33658 7.36437 11.8959 7.36288 14.4442 7.36437C16.992 7.36288 19.5513 7.36437 22.0792 7.64799C23.1473 7.76785 24.0343 8.57095 24.2837 9.66004C24.6391 11.2108 24.6362 12.9036 24.6362 14.5C24.6362 16.0964 24.6353 17.7892 24.2798 19.34Z" fill="#8BA4CB"/>
</g>
</svg>
